%TF.GenerationSoftware,KiCad,Pcbnew,10.0.1*%
%TF.CreationDate,2026-06-27T11:11:45-04:00*%
%TF.ProjectId,Smart_Watch,536d6172-745f-4576-9174-63682e6b6963,rev?*%
%TF.SameCoordinates,Original*%
%TF.FileFunction,Copper,L3,Inr*%
%TF.FilePolarity,Positive*%
%FSLAX46Y46*%
G04 Gerber Fmt 4.6, Leading zero omitted, Abs format (unit mm)*
G04 Created by KiCad (PCBNEW 10.0.1) date 2026-06-27 11:11:45*
%MOMM*%
%LPD*%
G01*
G04 APERTURE LIST*
%TA.AperFunction,ViaPad*%
%ADD10C,0.500000*%
%TD*%
%TA.AperFunction,Conductor*%
%ADD11C,0.200000*%
%TD*%
G04 APERTURE END LIST*
D10*
%TO.N,PGND2*%
X165684999Y-104078100D03*
X171692800Y-105056000D03*
%TO.N,GND*%
X165038000Y-94642000D03*
X185510400Y-113946000D03*
X178100000Y-107300000D03*
X174791600Y-111101200D03*
X162250000Y-111750000D03*
X158662600Y-108201998D03*
X175960000Y-123090000D03*
X166850000Y-116450000D03*
X167618500Y-112019000D03*
X183600000Y-110050000D03*
X171591200Y-106453000D03*
X179025000Y-94300000D03*
X174690000Y-123090000D03*
X165350000Y-98700000D03*
X155950000Y-110085200D03*
X185104000Y-102008000D03*
X169102000Y-123090000D03*
X186650000Y-99350000D03*
X165190400Y-121718400D03*
X165437200Y-107550000D03*
X185307200Y-115114400D03*
X183450000Y-100250000D03*
X160800000Y-100150000D03*
X178100000Y-108400000D03*
X166350000Y-112350000D03*
X185662800Y-101042800D03*
X184392800Y-100941200D03*
X186069200Y-101957200D03*
X160974000Y-106707000D03*
X184150000Y-99125000D03*
X185053200Y-100128400D03*
X168891600Y-102109600D03*
X185053200Y-101347600D03*
X185002400Y-116130400D03*
X164225000Y-99900000D03*
X184494400Y-114708000D03*
X165858000Y-105063200D03*
%TO.N,+3V0*%
X169292000Y-118167447D03*
X168797200Y-104446400D03*
X158535600Y-111502602D03*
X158738800Y-101195200D03*
X168441600Y-101195200D03*
X163514000Y-101246000D03*
X159297600Y-115927200D03*
%TO.N,/Architecture/MCU/BTN_2*%
X163469014Y-97850620D03*
X174791600Y-107799200D03*
X174999999Y-99347543D03*
%TO.N,+1V8*%
X162726600Y-105792600D03*
X164834062Y-117096338D03*
X181275034Y-113011363D03*
X176950000Y-106877600D03*
X169996244Y-103808397D03*
X163399024Y-104047444D03*
X162117000Y-113554400D03*
X173700000Y-104600000D03*
X173761649Y-105605251D03*
X171510000Y-107450000D03*
X168441600Y-116428000D03*
X169429355Y-109594617D03*
%TO.N,VSYS*%
X165596800Y-102820800D03*
X156861202Y-109085200D03*
X166150000Y-109300000D03*
X169356000Y-105718899D03*
%TO.N,/Architecture/Peripherals/MOTOR+*%
X159678600Y-106486997D03*
X172912000Y-123090000D03*
%TO.N,/Architecture/Peripherals/MOTOR-*%
X159686768Y-107967001D03*
X170880000Y-123090000D03*
%TO.N,+BATT*%
X166315200Y-110377593D03*
X164580800Y-101906400D03*
X160466000Y-103278000D03*
%TO.N,/Architecture/MCU/VBUS_OUT*%
X168605513Y-110413080D03*
X166664726Y-102073385D03*
X174800000Y-103450000D03*
%TO.N,/Architecture/MCU/CLK1*%
X175893199Y-106756801D03*
X177950000Y-101492800D03*
%TO.N,/Architecture/MCU/USBC_D+*%
X175900000Y-103450000D03*
X175650000Y-99750000D03*
X171405671Y-100305671D03*
X172404000Y-100585600D03*
%TO.N,/Architecture/MCU/USBC_D-*%
X172912000Y-101754000D03*
X171911892Y-100973751D03*
%TO.N,/Architecture/MCU/VBUS_IN*%
X169762400Y-100230000D03*
X170067200Y-102262000D03*
X174486800Y-101804800D03*
X167618500Y-110459000D03*
%TO.N,/Architecture/MCU/SDA*%
X162902000Y-109280100D03*
X173700000Y-110050000D03*
X174080400Y-117349600D03*
X163378200Y-106703000D03*
X164530000Y-113184000D03*
X165417996Y-117448800D03*
X172800000Y-107050000D03*
%TO.N,/Architecture/MCU/BTN_3*%
X180830986Y-117849380D03*
X173698788Y-108966373D03*
X173449767Y-116898273D03*
%TO.N,/Architecture/MCU/LPS_INT*%
X164276000Y-112625200D03*
X173025490Y-112650000D03*
X173700000Y-107850000D03*
%TO.N,/Architecture/MCU/CTP_INT*%
X175049873Y-115335376D03*
X174800000Y-112250000D03*
%TO.N,/Architecture/MCU/DISPLAY_CLK*%
X174915317Y-110125859D03*
X174350001Y-114144416D03*
%TO.N,/Architecture/MCU/SCL*%
X162294800Y-112574400D03*
X174791600Y-108967600D03*
X174180916Y-115340601D03*
X166570001Y-113450000D03*
X163447980Y-107368583D03*
%TO.N,/Architecture/MCU/CLK2*%
X174800000Y-102350000D03*
X174787601Y-106762399D03*
%TO.N,/Architecture/MCU/DISPLAY_DATA*%
X175900000Y-112250000D03*
X173788999Y-114440601D03*
%TO.N,/Architecture/MCU/DISPLAY_DC*%
X175900000Y-111150000D03*
X175718998Y-114304860D03*
%TO.N,/Architecture/MCU/BMI_INT*%
X175858400Y-104598800D03*
X169102000Y-117146400D03*
X170890812Y-104439631D03*
%TO.N,/Architecture/MCU/QSPI_IO2*%
X176850000Y-112200000D03*
X176050000Y-118250000D03*
%TO.N,/Architecture/MCU/QSPI_IO0*%
X176874400Y-111101200D03*
X171743600Y-117451200D03*
X175045600Y-117661600D03*
%TO.N,/Architecture/MCU/QSPI_CS*%
X178754000Y-121312000D03*
X178100000Y-112250000D03*
%TO.N,/Architecture/MCU/QSPI_IO1*%
X178754000Y-120042000D03*
X178119000Y-111152000D03*
%TO.N,/Architecture/MCU/MAX_INT*%
X177350000Y-115700000D03*
X178100000Y-110050000D03*
%TO.N,/Architecture/MCU/CTP_RST*%
X178093600Y-104523000D03*
X173082600Y-115266800D03*
X177128400Y-114823000D03*
%TO.N,/Architecture/MCU/QSPI_CLK*%
X179051600Y-118842489D03*
X179200000Y-112250000D03*
X171550000Y-118772000D03*
%TO.N,/Architecture/MCU/QSPI_IO3*%
X171550000Y-120042000D03*
X179160400Y-111143467D03*
X179051600Y-119442492D03*
%TO.N,/Architecture/MCU/BTN_4*%
X163469014Y-117717447D03*
X180669929Y-116262313D03*
X179262000Y-104548000D03*
%TO.N,/Architecture/MCU/BTN_1*%
X180377554Y-111052446D03*
X181097803Y-97397803D03*
%TO.N,/Architecture/MCU/DISPLAY_LIGHT_IO*%
X180278000Y-110085200D03*
X159450000Y-109424800D03*
%TO.N,/Architecture/MCU/PMIC_INT*%
X181400000Y-112250000D03*
X165880200Y-113119800D03*
X164174400Y-104090800D03*
%TO.N,/Architecture/MCU/SWDIO*%
X181400000Y-111150000D03*
%TO.N,/Architecture/MCU/USB_RST*%
X181400000Y-110050000D03*
X173978800Y-101246000D03*
X182208400Y-100890400D03*
X170875000Y-101035130D03*
%TO.N,/Architecture/MCU/LRA_PWM*%
X181344800Y-105665600D03*
X157687601Y-106976999D03*
%TO.N,/Architecture/MCU/SWO*%
X181400000Y-104550000D03*
%TO.N,/Architecture/MCU/SWCLK*%
X183550000Y-109250000D03*
X183275200Y-101754000D03*
X179040000Y-101532000D03*
%TO.N,/Architecture/MCU/MCU_RST*%
X176950000Y-101492800D03*
X182462400Y-110085200D03*
X180278000Y-109374000D03*
%TO.N,/Architecture/MCU/LRA_EN*%
X182462400Y-104550000D03*
X157674341Y-105697063D03*
%TO.N,/Architecture/MCU/DISPLAY_RST*%
X183050000Y-111705049D03*
X182500000Y-103450000D03*
X175858400Y-113082400D03*
%TO.N,PGND1*%
X167679600Y-104090800D03*
X171655205Y-104000000D03*
%TO.N,/Architecture/Power/PMIC_SW*%
X164060100Y-107703000D03*
X163750000Y-111907391D03*
%TO.N,/Architecture/MCU/CC2*%
X168855823Y-109390596D03*
X170344984Y-101366358D03*
%TO.N,/Architecture/MCU/CC1*%
X168750000Y-108800000D03*
X171951219Y-109507180D03*
X173537003Y-101906400D03*
%TO.N,/Architecture/MCU/LEDK1*%
X170700000Y-111100000D03*
X159704000Y-110339200D03*
%TO.N,/Architecture/MCU/LEDK2*%
X160872400Y-111502602D03*
X171946800Y-114250800D03*
X160618400Y-115317600D03*
%TD*%
%TO.N,+3V0*%
D11*
X158535600Y-111304400D02*
X158180000Y-110948800D01*
X168441600Y-104371198D02*
X168441600Y-101195200D01*
X168516802Y-104446400D02*
X168441600Y-104371198D01*
X168797200Y-104446400D02*
X168516802Y-104446400D01*
X158180000Y-101754000D02*
X158738800Y-101195200D01*
X158535600Y-111502602D02*
X158535600Y-111304400D01*
X158180000Y-110948800D02*
X158180000Y-101754000D01*
%TO.N,/Architecture/MCU/BTN_2*%
X175143587Y-100406413D02*
X174987000Y-100563000D01*
X175250000Y-107340800D02*
X174791600Y-107799200D01*
X175143587Y-99491131D02*
X175143587Y-100406413D01*
X174999999Y-99347543D02*
X175143587Y-99491131D01*
X175250000Y-101931603D02*
X175250000Y-107340800D01*
X174987000Y-101668603D02*
X175250000Y-101931603D01*
X174987000Y-100563000D02*
X174987000Y-101668603D01*
%TO.N,+1V8*%
X173761649Y-105605251D02*
X173792795Y-105574105D01*
X162117000Y-113554400D02*
X162117000Y-113361800D01*
X161685200Y-106267800D02*
X162160400Y-105792600D01*
X173792795Y-104692795D02*
X173700000Y-104600000D01*
X161685200Y-112930000D02*
X161685200Y-106267800D01*
X162160400Y-105792600D02*
X162726600Y-105792600D01*
X162117000Y-113361800D02*
X161685200Y-112930000D01*
X173792795Y-105574105D02*
X173792795Y-104692795D01*
%TO.N,VSYS*%
X165950000Y-105513200D02*
X166044397Y-105513200D01*
X166308000Y-105249597D02*
X166308000Y-103532000D01*
X166308000Y-103532000D02*
X165596800Y-102820800D01*
X165950000Y-109100000D02*
X165950000Y-105513200D01*
X166044397Y-105513200D02*
X166308000Y-105249597D01*
X166150000Y-109300000D02*
X165950000Y-109100000D01*
%TO.N,+BATT*%
X166206400Y-110491600D02*
X164987200Y-109272400D01*
X164987200Y-102312800D02*
X164580800Y-101906400D01*
X166315200Y-110426589D02*
X166250189Y-110491600D01*
X166250189Y-110491600D02*
X166206400Y-110491600D01*
X166315200Y-110377593D02*
X166315200Y-110426589D01*
X164987200Y-109272400D02*
X164987200Y-102312800D01*
%TO.N,/Architecture/MCU/VBUS_OUT*%
X166765200Y-110898000D02*
X166765200Y-109308096D01*
X167954363Y-111101200D02*
X166968400Y-111101200D01*
X166650000Y-109192896D02*
X166650000Y-102088111D01*
X168529551Y-110526012D02*
X167954363Y-111101200D01*
X166968400Y-111101200D02*
X166765200Y-110898000D01*
X168529551Y-110489042D02*
X168529551Y-110526012D01*
X166650000Y-102088111D02*
X166664726Y-102073385D01*
X168605513Y-110413080D02*
X168529551Y-110489042D01*
X166765200Y-109308096D02*
X166650000Y-109192896D01*
%TO.N,/Architecture/MCU/CLK1*%
X176350000Y-106300000D02*
X176350000Y-101456403D01*
X176763603Y-101042800D02*
X177500000Y-101042800D01*
X177500000Y-101042800D02*
X177950000Y-101492800D01*
X175893199Y-106756801D02*
X176350000Y-106300000D01*
X176350000Y-101456403D02*
X176763603Y-101042800D01*
%TO.N,/Architecture/MCU/USBC_D+*%
X175807600Y-103357600D02*
X175900000Y-103450000D01*
X175650000Y-101677528D02*
X175807600Y-101835128D01*
X175807600Y-101835128D02*
X175807600Y-103357600D01*
X175650000Y-99750000D02*
X175650000Y-101677528D01*
%TO.N,/Architecture/MCU/VBUS_IN*%
X169762400Y-101957200D02*
X169762400Y-100230000D01*
X167250000Y-110090500D02*
X167250000Y-107050000D01*
X170067200Y-102262000D02*
X169762400Y-101957200D01*
X167350000Y-110370000D02*
X167350000Y-110190500D01*
X167350000Y-110190500D02*
X167250000Y-110090500D01*
X169546244Y-104753756D02*
X169546244Y-102782956D01*
X169546244Y-102782956D02*
X170067200Y-102262000D01*
X167250000Y-107050000D02*
X169546244Y-104753756D01*
%TO.N,/Architecture/MCU/SDA*%
X165592042Y-117274754D02*
X165592042Y-114222040D01*
X163908399Y-113222799D02*
X163250000Y-112564400D01*
X163250000Y-112564400D02*
X163250000Y-109628100D01*
X165417996Y-117448800D02*
X165592042Y-117274754D01*
X163250000Y-109628100D02*
X162902000Y-109280100D01*
X164592801Y-113222799D02*
X163908399Y-113222799D01*
X165592042Y-114222040D02*
X164592801Y-113222799D01*
%TO.N,/Architecture/MCU/BTN_3*%
X172632600Y-116081106D02*
X172632600Y-113710909D01*
X173202796Y-110283600D02*
X173202796Y-109462365D01*
X173202796Y-109462365D02*
X173698788Y-108966373D01*
X172632600Y-113710909D02*
X173475490Y-112868019D01*
X173475490Y-112868019D02*
X173475490Y-110556294D01*
X173475490Y-110556294D02*
X173202796Y-110283600D01*
X173449767Y-116898273D02*
X172632600Y-116081106D01*
%TO.N,/Architecture/MCU/LPS_INT*%
X172902796Y-112558928D02*
X172902796Y-112527306D01*
X173025490Y-112681622D02*
X172902796Y-112558928D01*
X172902796Y-112527306D02*
X172902796Y-108647204D01*
X172902796Y-108647204D02*
X173700000Y-107850000D01*
%TO.N,/Architecture/MCU/CTP_INT*%
X174800000Y-112328800D02*
X174800000Y-112250000D01*
X174800001Y-112328801D02*
X174800000Y-112328800D01*
X175049873Y-115335376D02*
X174876978Y-115335376D01*
X174876978Y-115335376D02*
X174800001Y-115258399D01*
X174800001Y-115258399D02*
X174800001Y-112328801D01*
%TO.N,/Architecture/MCU/DISPLAY_CLK*%
X174341600Y-110694798D02*
X174341600Y-114136015D01*
X174915317Y-110125859D02*
X174910539Y-110125859D01*
X174341600Y-114136015D02*
X174350001Y-114144416D01*
X174910539Y-110125859D02*
X174341600Y-110694798D01*
%TO.N,/Architecture/MCU/SCL*%
X162452000Y-109048000D02*
X163447980Y-108052020D01*
X174711580Y-109693199D02*
X174728920Y-109675859D01*
X174706802Y-109693199D02*
X174711580Y-109693199D01*
X163447980Y-108052020D02*
X163447980Y-107368583D01*
X162452000Y-109466497D02*
X162452000Y-109048000D01*
X174000000Y-113450000D02*
X174000000Y-110500000D01*
X162900000Y-111969200D02*
X162900000Y-109914497D01*
X174728920Y-109675859D02*
X174791600Y-109675859D01*
X174000000Y-110500000D02*
X174443199Y-110056801D01*
X174791600Y-109675859D02*
X174791600Y-108967600D01*
X174443199Y-110056801D02*
X174443199Y-109956802D01*
X173338999Y-114111001D02*
X174000000Y-113450000D01*
X174180916Y-115340601D02*
X174052602Y-115340601D01*
X174052602Y-115340601D02*
X173338999Y-114626998D01*
X162294800Y-112574400D02*
X162900000Y-111969200D01*
X174443199Y-109956802D02*
X174706802Y-109693199D01*
X162900000Y-109914497D02*
X162452000Y-109466497D01*
X173338999Y-114626998D02*
X173338999Y-114111001D01*
%TO.N,/Architecture/MCU/CLK2*%
X174350000Y-102800000D02*
X174350000Y-106324798D01*
X174350000Y-106324798D02*
X174787601Y-106762399D01*
X174800000Y-102350000D02*
X174350000Y-102800000D01*
%TO.N,/Architecture/MCU/DISPLAY_DC*%
X175299600Y-111750400D02*
X175299600Y-113885462D01*
X175900000Y-111150000D02*
X175299600Y-111750400D01*
X175299600Y-113885462D02*
X175718998Y-114304860D01*
%TO.N,/Architecture/MCU/BMI_INT*%
X170890812Y-104439631D02*
X170640000Y-104690443D01*
X169254400Y-111139203D02*
X169254400Y-116994000D01*
X169254400Y-116994000D02*
X169102000Y-117146400D01*
X170640000Y-104690443D02*
X170640000Y-109753603D01*
X170640000Y-109753603D02*
X169254400Y-111139203D01*
%TO.N,/Architecture/MCU/QSPI_IO2*%
X176678400Y-112592600D02*
X176678400Y-117690800D01*
X176119200Y-118250000D02*
X176050000Y-118250000D01*
X176850000Y-112421000D02*
X176678400Y-112592600D01*
X176678400Y-117690800D02*
X176119200Y-118250000D01*
X176850000Y-112200000D02*
X176850000Y-112421000D01*
%TO.N,/Architecture/MCU/QSPI_IO0*%
X176366400Y-116340800D02*
X176366400Y-111609200D01*
X175045600Y-117661600D02*
X176366400Y-116340800D01*
X176366400Y-111609200D02*
X176874400Y-111101200D01*
%TO.N,/Architecture/MCU/QSPI_CS*%
X178144400Y-120702400D02*
X178754000Y-121312000D01*
X178100000Y-112250000D02*
X178144400Y-112294400D01*
X178144400Y-112294400D02*
X178144400Y-120702400D01*
%TO.N,/Architecture/MCU/QSPI_IO1*%
X178754000Y-120042000D02*
X178601600Y-119889600D01*
X178601600Y-111634600D02*
X178119000Y-111152000D01*
X178601600Y-119889600D02*
X178601600Y-111634600D01*
%TO.N,/Architecture/MCU/MAX_INT*%
X177650000Y-115550000D02*
X177650000Y-110500000D01*
X177350000Y-115700000D02*
X177500000Y-115700000D01*
X177500000Y-115700000D02*
X177650000Y-115550000D01*
X177650000Y-110500000D02*
X178100000Y-110050000D01*
%TO.N,/Architecture/MCU/CTP_RST*%
X177128400Y-114823000D02*
X177128400Y-114758800D01*
X177324400Y-114562800D02*
X177324400Y-107139597D01*
X178093600Y-106370397D02*
X178093600Y-104523000D01*
X177128400Y-114758800D02*
X177324400Y-114562800D01*
X177324400Y-107139597D02*
X178093600Y-106370397D01*
%TO.N,/Architecture/MCU/QSPI_CLK*%
X178906400Y-118010000D02*
X179080278Y-118183878D01*
X179080278Y-118813811D02*
X179051600Y-118842489D01*
X179180000Y-112250000D02*
X178906400Y-112523600D01*
X178906400Y-112523600D02*
X178906400Y-118010000D01*
X179200000Y-112250000D02*
X179180000Y-112250000D01*
X179080278Y-118183878D02*
X179080278Y-118813811D01*
%TO.N,/Architecture/MCU/QSPI_IO3*%
X180050000Y-114903064D02*
X180031999Y-114921065D01*
X180031999Y-114921065D02*
X180031999Y-118603601D01*
X180050000Y-112041600D02*
X180050000Y-114903064D01*
X180031999Y-118603601D02*
X179193108Y-119442492D01*
X179193108Y-119442492D02*
X179051600Y-119442492D01*
X179160400Y-111152000D02*
X180050000Y-112041600D01*
X179160400Y-111143467D02*
X179160400Y-111152000D01*
%TO.N,/Architecture/MCU/BTN_4*%
X180500000Y-115082400D02*
X180350000Y-114932400D01*
X180669929Y-116262313D02*
X180500000Y-116092384D01*
X179778000Y-111160000D02*
X179778000Y-109940800D01*
X179262000Y-109424800D02*
X179262000Y-104548000D01*
X180500000Y-116092384D02*
X180500000Y-115082400D01*
X180350000Y-114932400D02*
X180350000Y-111732000D01*
X180350000Y-111732000D02*
X179778000Y-111160000D01*
X179778000Y-109940800D02*
X179262000Y-109424800D01*
%TO.N,/Architecture/MCU/BTN_1*%
X181097803Y-98117437D02*
X181513604Y-98533238D01*
X180778000Y-110652000D02*
X180377554Y-111052446D01*
X181513604Y-98533238D02*
X181513604Y-99030634D01*
X181097803Y-97397803D02*
X181097803Y-98117437D01*
X180778000Y-99766238D02*
X180778000Y-110652000D01*
X181513604Y-99030634D02*
X180778000Y-99766238D01*
%TO.N,/Architecture/MCU/PMIC_INT*%
X164520885Y-104437285D02*
X164174400Y-104090800D01*
X165837400Y-113119800D02*
X164750000Y-112032400D01*
X165880200Y-113119800D02*
X165837400Y-113119800D01*
X164750000Y-109650000D02*
X164520885Y-109420885D01*
X164520885Y-109420885D02*
X164520885Y-104437285D01*
X164750000Y-112032400D02*
X164750000Y-109650000D01*
%TO.N,/Architecture/MCU/USB_RST*%
X182208400Y-100890400D02*
X182005200Y-101093600D01*
X181400000Y-106246797D02*
X181400000Y-110050000D01*
X182005200Y-105641597D02*
X181400000Y-106246797D01*
X182005200Y-101093600D02*
X182005200Y-105641597D01*
%TO.N,/Architecture/MCU/SWCLK*%
X183550000Y-109250000D02*
X183550000Y-102028800D01*
X183550000Y-102028800D02*
X183275200Y-101754000D01*
%TO.N,/Architecture/MCU/MCU_RST*%
X180278000Y-104751200D02*
X180278000Y-109374000D01*
X177380400Y-101923200D02*
X177450000Y-101923200D01*
X177450000Y-101923200D02*
X180278000Y-104751200D01*
X176950000Y-101492800D02*
X177380400Y-101923200D01*
%TO.N,/Architecture/MCU/DISPLAY_RST*%
X182500000Y-103450000D02*
X182500000Y-103468000D01*
X183050000Y-111705047D02*
X183050000Y-111705049D01*
X183044951Y-104012951D02*
X183044951Y-111699998D01*
X182500000Y-103468000D02*
X183044951Y-104012951D01*
X183044951Y-111699998D02*
X183050000Y-111705047D01*
%TO.N,/Architecture/Power/PMIC_SW*%
X164220885Y-107863785D02*
X164060100Y-107703000D01*
X164220885Y-111436506D02*
X164220885Y-107863785D01*
X163750000Y-111907391D02*
X164220885Y-111436506D01*
%TO.N,/Architecture/MCU/CC2*%
X170517200Y-101538574D02*
X170344984Y-101366358D01*
X170517200Y-104176846D02*
X170517200Y-101538574D01*
X169846244Y-104847802D02*
X170517200Y-104176846D01*
X168855823Y-109390596D02*
X169846244Y-108400175D01*
X169846244Y-108400175D02*
X169846244Y-104847802D01*
%TO.N,/Architecture/MCU/CC1*%
X171951219Y-109346221D02*
X171950001Y-109345003D01*
X171950001Y-109345003D02*
X171950001Y-109175735D01*
X173250000Y-102193403D02*
X173537003Y-101906400D01*
X171950001Y-109175735D02*
X173250000Y-107875736D01*
X173250000Y-107875736D02*
X173250000Y-102193403D01*
X171951219Y-109507180D02*
X171951219Y-109346221D01*
%TO.N,/Architecture/MCU/LEDK2*%
X160618400Y-115317600D02*
X160618400Y-113285600D01*
X160872400Y-113031600D02*
X160872400Y-111502602D01*
X160618400Y-113285600D02*
X160872400Y-113031600D01*
%TD*%
%TA.AperFunction,Conductor*%
%TO.N,GND*%
G36*
X174047415Y-105986408D02*
G01*
X174090612Y-106041325D01*
X174099500Y-106087424D01*
X174099500Y-106374627D01*
X174137636Y-106466695D01*
X174350782Y-106679841D01*
X174384267Y-106741164D01*
X174387101Y-106767522D01*
X174387101Y-106815126D01*
X174406493Y-106887496D01*
X174414394Y-106916985D01*
X174414395Y-106916988D01*
X174422096Y-106930326D01*
X174467121Y-107008312D01*
X174541688Y-107082879D01*
X174633014Y-107135606D01*
X174729880Y-107161561D01*
X174789540Y-107197925D01*
X174820069Y-107260771D01*
X174811775Y-107330147D01*
X174767289Y-107384025D01*
X174729881Y-107401109D01*
X174637013Y-107425993D01*
X174637011Y-107425994D01*
X174637010Y-107425994D01*
X174545685Y-107478721D01*
X174471121Y-107553285D01*
X174418394Y-107644610D01*
X174418393Y-107644613D01*
X174391100Y-107746473D01*
X174391100Y-107851927D01*
X174404712Y-107902726D01*
X174418393Y-107953786D01*
X174418394Y-107953789D01*
X174432522Y-107978259D01*
X174471120Y-108045113D01*
X174545687Y-108119680D01*
X174637013Y-108172407D01*
X174738873Y-108199700D01*
X174738875Y-108199700D01*
X174844325Y-108199700D01*
X174844327Y-108199700D01*
X174946187Y-108172407D01*
X175037513Y-108119680D01*
X175112080Y-108045113D01*
X175164807Y-107953787D01*
X175192100Y-107851927D01*
X175192100Y-107804323D01*
X175211785Y-107737284D01*
X175228419Y-107716642D01*
X175340976Y-107604085D01*
X175462364Y-107482697D01*
X175500500Y-107390628D01*
X175500500Y-107290973D01*
X175500500Y-107207307D01*
X175520185Y-107140268D01*
X175572989Y-107094513D01*
X175642147Y-107084569D01*
X175686496Y-107099919D01*
X175738612Y-107130008D01*
X175840472Y-107157301D01*
X175840474Y-107157301D01*
X175945924Y-107157301D01*
X175945926Y-107157301D01*
X176047786Y-107130008D01*
X176139112Y-107077281D01*
X176213679Y-107002714D01*
X176266406Y-106911388D01*
X176293699Y-106809528D01*
X176293699Y-106761924D01*
X176302343Y-106732484D01*
X176308866Y-106702499D01*
X176312621Y-106697481D01*
X176313384Y-106694885D01*
X176330011Y-106674249D01*
X176357742Y-106646518D01*
X176419061Y-106613035D01*
X176488752Y-106618018D01*
X176544687Y-106659889D01*
X176569105Y-106725353D01*
X176565195Y-106766294D01*
X176549500Y-106824873D01*
X176549500Y-106930327D01*
X176576793Y-107032187D01*
X176629520Y-107123513D01*
X176704087Y-107198080D01*
X176795413Y-107250807D01*
X176897273Y-107278100D01*
X176897275Y-107278100D01*
X176949900Y-107278100D01*
X177016939Y-107297785D01*
X177062694Y-107350589D01*
X177073900Y-107402100D01*
X177073900Y-110578628D01*
X177054215Y-110645667D01*
X177001411Y-110691422D01*
X176933716Y-110701567D01*
X176927130Y-110700700D01*
X176927127Y-110700700D01*
X176821673Y-110700700D01*
X176719813Y-110727993D01*
X176719810Y-110727994D01*
X176628485Y-110780721D01*
X176553921Y-110855285D01*
X176501194Y-110946610D01*
X176501192Y-110946615D01*
X176497473Y-110960495D01*
X176461107Y-111020155D01*
X176398259Y-111050683D01*
X176328884Y-111042386D01*
X176275007Y-110997900D01*
X176270312Y-110990399D01*
X176253047Y-110960495D01*
X176220480Y-110904087D01*
X176145913Y-110829520D01*
X176079059Y-110790922D01*
X176054589Y-110776794D01*
X176054588Y-110776793D01*
X176054587Y-110776793D01*
X175952727Y-110749500D01*
X175847273Y-110749500D01*
X175745413Y-110776793D01*
X175745410Y-110776794D01*
X175654085Y-110829521D01*
X175579521Y-110904085D01*
X175526794Y-110995410D01*
X175526793Y-110995413D01*
X175499500Y-111097273D01*
X175499500Y-111144876D01*
X175479815Y-111211915D01*
X175463181Y-111232557D01*
X175140261Y-111555476D01*
X175140262Y-111555477D01*
X175087236Y-111608503D01*
X175049100Y-111700570D01*
X175049100Y-111740518D01*
X175029415Y-111807557D01*
X174976611Y-111853312D01*
X174918559Y-111864345D01*
X174905569Y-111863658D01*
X174852727Y-111849500D01*
X174747273Y-111849500D01*
X174729200Y-111854342D01*
X174709559Y-111853305D01*
X174694399Y-111847970D01*
X174678330Y-111847586D01*
X174662118Y-111836610D01*
X174643651Y-111830112D01*
X174633780Y-111817425D01*
X174620472Y-111808416D01*
X174612768Y-111790420D01*
X174600745Y-111774968D01*
X174599300Y-111758958D01*
X174592975Y-111744184D01*
X174592100Y-111729478D01*
X174592100Y-110849921D01*
X174611785Y-110782882D01*
X174628419Y-110762240D01*
X174827981Y-110562678D01*
X174889304Y-110529193D01*
X174915662Y-110526359D01*
X174968042Y-110526359D01*
X174968044Y-110526359D01*
X175069904Y-110499066D01*
X175161230Y-110446339D01*
X175235797Y-110371772D01*
X175288524Y-110280446D01*
X175315817Y-110178586D01*
X175315817Y-110073132D01*
X175288524Y-109971272D01*
X175235797Y-109879946D01*
X175161230Y-109805379D01*
X175136491Y-109791096D01*
X175104098Y-109772393D01*
X175055883Y-109721825D01*
X175042100Y-109665007D01*
X175042100Y-109334855D01*
X175061785Y-109267816D01*
X175078419Y-109247174D01*
X175094041Y-109231552D01*
X175112080Y-109213513D01*
X175164807Y-109122187D01*
X175192100Y-109020327D01*
X175192100Y-108914873D01*
X175164807Y-108813013D01*
X175112080Y-108721687D01*
X175037513Y-108647120D01*
X174970659Y-108608522D01*
X174946189Y-108594394D01*
X174946188Y-108594393D01*
X174946187Y-108594393D01*
X174844327Y-108567100D01*
X174738873Y-108567100D01*
X174637013Y-108594393D01*
X174637010Y-108594394D01*
X174545685Y-108647121D01*
X174471121Y-108721685D01*
X174418394Y-108813010D01*
X174418393Y-108813013D01*
X174391100Y-108914873D01*
X174391100Y-109020327D01*
X174417078Y-109117277D01*
X174418393Y-109122186D01*
X174418394Y-109122189D01*
X174421798Y-109128085D01*
X174470412Y-109212287D01*
X174471121Y-109213514D01*
X174504781Y-109247174D01*
X174519484Y-109274101D01*
X174536077Y-109299920D01*
X174536968Y-109306120D01*
X174538266Y-109308497D01*
X174541100Y-109334855D01*
X174541100Y-109453278D01*
X174521415Y-109520317D01*
X174504781Y-109540959D01*
X174494438Y-109551302D01*
X174494437Y-109551303D01*
X174387887Y-109657852D01*
X174284751Y-109760987D01*
X174284701Y-109761038D01*
X174230835Y-109814905D01*
X174229240Y-109818755D01*
X174218431Y-109830004D01*
X174197240Y-109842128D01*
X174178506Y-109857784D01*
X174167454Y-109859171D01*
X174157787Y-109864703D01*
X174133403Y-109863446D01*
X174109180Y-109866488D01*
X174099133Y-109861681D01*
X174088010Y-109861108D01*
X174068177Y-109846868D01*
X174046154Y-109836331D01*
X174035921Y-109823710D01*
X174031254Y-109820359D01*
X174029392Y-109815657D01*
X174021636Y-109806090D01*
X174020480Y-109804087D01*
X173945913Y-109729520D01*
X173864896Y-109682745D01*
X173854589Y-109676794D01*
X173854588Y-109676793D01*
X173854587Y-109676793D01*
X173752727Y-109649500D01*
X173669283Y-109649500D01*
X173648037Y-109643261D01*
X173625949Y-109641682D01*
X173615165Y-109633609D01*
X173602244Y-109629815D01*
X173587744Y-109613081D01*
X173570016Y-109599810D01*
X173565308Y-109587189D01*
X173556489Y-109577011D01*
X173553337Y-109555093D01*
X173545599Y-109534346D01*
X173548461Y-109521185D01*
X173546545Y-109507853D01*
X173555744Y-109487709D01*
X173560451Y-109466073D01*
X173573719Y-109448347D01*
X173575570Y-109444297D01*
X173581602Y-109437819D01*
X173616229Y-109403192D01*
X173677552Y-109369707D01*
X173703910Y-109366873D01*
X173751513Y-109366873D01*
X173751515Y-109366873D01*
X173853375Y-109339580D01*
X173944701Y-109286853D01*
X174019268Y-109212286D01*
X174071995Y-109120960D01*
X174099288Y-109019100D01*
X174099288Y-108913646D01*
X174071995Y-108811786D01*
X174019268Y-108720460D01*
X173944701Y-108645893D01*
X173853375Y-108593166D01*
X173751515Y-108565873D01*
X173646061Y-108565873D01*
X173637934Y-108565873D01*
X173637934Y-108562364D01*
X173624235Y-108560217D01*
X173594386Y-108558082D01*
X173590086Y-108554863D01*
X173584781Y-108554032D01*
X173562413Y-108534148D01*
X173538452Y-108516211D01*
X173536575Y-108511178D01*
X173532562Y-108507611D01*
X173524495Y-108478789D01*
X173514036Y-108450746D01*
X173515177Y-108445498D01*
X173513730Y-108440327D01*
X173522525Y-108411719D01*
X173528888Y-108382473D01*
X173533351Y-108376511D01*
X173534264Y-108373542D01*
X173550030Y-108354229D01*
X173617443Y-108286816D01*
X173678765Y-108253334D01*
X173705122Y-108250500D01*
X173752725Y-108250500D01*
X173752727Y-108250500D01*
X173854587Y-108223207D01*
X173945913Y-108170480D01*
X174020480Y-108095913D01*
X174073207Y-108004587D01*
X174100500Y-107902727D01*
X174100500Y-107797273D01*
X174073207Y-107695413D01*
X174020480Y-107604087D01*
X173945913Y-107529520D01*
X173858164Y-107478858D01*
X173854589Y-107476794D01*
X173854588Y-107476793D01*
X173854587Y-107476793D01*
X173752727Y-107449500D01*
X173647273Y-107449500D01*
X173647270Y-107449500D01*
X173640684Y-107450367D01*
X173571649Y-107439601D01*
X173519393Y-107393220D01*
X173500500Y-107327428D01*
X173500500Y-106111504D01*
X173520185Y-106044465D01*
X173572989Y-105998710D01*
X173642147Y-105988766D01*
X173656579Y-105991726D01*
X173708922Y-106005751D01*
X173708925Y-106005751D01*
X173814374Y-106005751D01*
X173814376Y-106005751D01*
X173916236Y-105978458D01*
X173916244Y-105978453D01*
X173923746Y-105975347D01*
X173924576Y-105977352D01*
X173981386Y-105963564D01*
X174047415Y-105986408D01*
G37*
%TD.AperFunction*%
%TA.AperFunction,Conductor*%
G36*
X176749222Y-101847958D02*
G01*
X176753735Y-101847744D01*
X176786497Y-101860859D01*
X176795413Y-101866007D01*
X176897273Y-101893300D01*
X176944878Y-101893300D01*
X176974318Y-101901944D01*
X177004305Y-101908468D01*
X177009320Y-101912222D01*
X177011917Y-101912985D01*
X177032559Y-101929619D01*
X177160965Y-102058025D01*
X177160968Y-102058029D01*
X177168036Y-102065097D01*
X177238503Y-102135564D01*
X177258790Y-102143967D01*
X177330573Y-102173701D01*
X177330574Y-102173701D01*
X177334533Y-102175341D01*
X177374760Y-102202221D01*
X179145837Y-103973298D01*
X179179322Y-104034621D01*
X179174338Y-104104313D01*
X179132466Y-104160246D01*
X179114354Y-104170560D01*
X179114452Y-104170729D01*
X179016085Y-104227521D01*
X178941521Y-104302085D01*
X178888794Y-104393410D01*
X178888793Y-104393413D01*
X178861500Y-104495273D01*
X178861500Y-104600727D01*
X178888793Y-104702587D01*
X178931103Y-104775871D01*
X178941521Y-104793914D01*
X178975181Y-104827574D01*
X179008666Y-104888897D01*
X179011500Y-104915255D01*
X179011500Y-109474629D01*
X179049636Y-109566697D01*
X179491181Y-110008242D01*
X179524666Y-110069565D01*
X179527500Y-110095923D01*
X179527500Y-110678180D01*
X179507815Y-110745219D01*
X179455011Y-110790974D01*
X179385853Y-110800918D01*
X179341501Y-110785568D01*
X179331027Y-110779521D01*
X179314987Y-110770260D01*
X179213127Y-110742967D01*
X179107673Y-110742967D01*
X179005813Y-110770260D01*
X179005810Y-110770261D01*
X178914485Y-110822988D01*
X178839921Y-110897552D01*
X178787194Y-110988877D01*
X178787193Y-110988878D01*
X178758331Y-111096595D01*
X178721966Y-111156255D01*
X178659118Y-111186784D01*
X178589743Y-111178489D01*
X178535865Y-111134004D01*
X178518782Y-111096595D01*
X178492207Y-110997413D01*
X178439480Y-110906087D01*
X178364913Y-110831520D01*
X178281717Y-110783487D01*
X178273589Y-110778794D01*
X178273588Y-110778793D01*
X178273587Y-110778793D01*
X178171727Y-110751500D01*
X178066273Y-110751500D01*
X178058146Y-110751500D01*
X178058146Y-110749911D01*
X178037768Y-110746732D01*
X178007874Y-110744594D01*
X178003612Y-110741404D01*
X177998355Y-110740584D01*
X177975944Y-110720691D01*
X177951941Y-110702723D01*
X177950080Y-110697734D01*
X177946101Y-110694202D01*
X177938001Y-110665346D01*
X177927525Y-110637258D01*
X177928656Y-110632057D01*
X177927218Y-110626933D01*
X177936004Y-110598276D01*
X177942377Y-110568985D01*
X177946797Y-110563080D01*
X177947701Y-110560133D01*
X177963524Y-110540736D01*
X178017443Y-110486818D01*
X178078766Y-110453334D01*
X178105123Y-110450500D01*
X178152725Y-110450500D01*
X178152727Y-110450500D01*
X178254587Y-110423207D01*
X178345913Y-110370480D01*
X178420480Y-110295913D01*
X178473207Y-110204587D01*
X178500500Y-110102727D01*
X178500500Y-109997273D01*
X178473207Y-109895413D01*
X178420480Y-109804087D01*
X178345913Y-109729520D01*
X178264896Y-109682745D01*
X178254589Y-109676794D01*
X178254588Y-109676793D01*
X178254587Y-109676793D01*
X178152727Y-109649500D01*
X178047273Y-109649500D01*
X177945413Y-109676793D01*
X177945410Y-109676794D01*
X177854085Y-109729521D01*
X177786581Y-109797026D01*
X177725258Y-109830511D01*
X177655566Y-109825527D01*
X177599633Y-109783655D01*
X177575216Y-109718191D01*
X177574900Y-109709345D01*
X177574900Y-107294720D01*
X177594585Y-107227681D01*
X177611219Y-107207039D01*
X177958056Y-106860202D01*
X178305964Y-106512294D01*
X178344100Y-106420225D01*
X178344100Y-106320569D01*
X178344100Y-104890255D01*
X178363785Y-104823216D01*
X178380419Y-104802574D01*
X178389953Y-104793040D01*
X178414080Y-104768913D01*
X178466807Y-104677587D01*
X178494100Y-104575727D01*
X178494100Y-104470273D01*
X178466807Y-104368413D01*
X178414080Y-104277087D01*
X178339513Y-104202520D01*
X178262071Y-104157809D01*
X178248189Y-104149794D01*
X178248188Y-104149793D01*
X178248187Y-104149793D01*
X178146327Y-104122500D01*
X178040873Y-104122500D01*
X177939013Y-104149793D01*
X177939010Y-104149794D01*
X177847685Y-104202521D01*
X177773121Y-104277085D01*
X177720394Y-104368410D01*
X177720393Y-104368413D01*
X177693100Y-104470273D01*
X177693100Y-104575727D01*
X177720393Y-104677587D01*
X177771946Y-104766880D01*
X177773121Y-104768914D01*
X177806781Y-104802574D01*
X177840266Y-104863897D01*
X177843100Y-104890255D01*
X177843100Y-106215273D01*
X177823415Y-106282312D01*
X177806781Y-106302954D01*
X177460581Y-106649153D01*
X177399258Y-106682638D01*
X177329566Y-106677654D01*
X177274523Y-106636957D01*
X177270482Y-106631690D01*
X177270480Y-106631687D01*
X177195913Y-106557120D01*
X177115837Y-106510888D01*
X177104589Y-106504394D01*
X177104588Y-106504393D01*
X177104587Y-106504393D01*
X177002727Y-106477100D01*
X176897273Y-106477100D01*
X176795413Y-106504393D01*
X176795408Y-106504395D01*
X176771440Y-106518233D01*
X176703540Y-106534704D01*
X176637513Y-106511851D01*
X176594324Y-106456929D01*
X176587683Y-106387376D01*
X176594882Y-106363390D01*
X176595595Y-106361669D01*
X176600500Y-106349828D01*
X176600500Y-106250172D01*
X176600500Y-101968248D01*
X176602210Y-101962421D01*
X176601062Y-101956460D01*
X176611939Y-101929289D01*
X176620185Y-101901209D01*
X176624773Y-101897233D01*
X176627030Y-101891596D01*
X176650873Y-101874617D01*
X176672989Y-101855454D01*
X176678998Y-101854589D01*
X176683944Y-101851068D01*
X176713174Y-101849675D01*
X176742147Y-101845510D01*
X176749222Y-101847958D01*
G37*
%TD.AperFunction*%
%TA.AperFunction,Conductor*%
G36*
X165431842Y-104394871D02*
G01*
X165432048Y-104394516D01*
X165434875Y-104396148D01*
X165437189Y-104397123D01*
X165439080Y-104398574D01*
X165439086Y-104398580D01*
X165530412Y-104451307D01*
X165632272Y-104478600D01*
X165632274Y-104478600D01*
X165737724Y-104478600D01*
X165737726Y-104478600D01*
X165839586Y-104451307D01*
X165871502Y-104432880D01*
X165939399Y-104416408D01*
X166005426Y-104439260D01*
X166048617Y-104494181D01*
X166057500Y-104540268D01*
X166057500Y-105094474D01*
X166048855Y-105123914D01*
X166042332Y-105153901D01*
X166038577Y-105158916D01*
X166037815Y-105161513D01*
X166021181Y-105182155D01*
X165976955Y-105226381D01*
X165915632Y-105259866D01*
X165912133Y-105260242D01*
X165912149Y-105260318D01*
X165900170Y-105262700D01*
X165808102Y-105300836D01*
X165737636Y-105371302D01*
X165699500Y-105463370D01*
X165699500Y-109149829D01*
X165740061Y-109247751D01*
X165741094Y-109252359D01*
X165742635Y-109254517D01*
X165745837Y-109273496D01*
X165749353Y-109289166D01*
X165749500Y-109292181D01*
X165749500Y-109352727D01*
X165753108Y-109366193D01*
X165753754Y-109379440D01*
X165748540Y-109401035D01*
X165748010Y-109423244D01*
X165740500Y-109434337D01*
X165737357Y-109447358D01*
X165721296Y-109462705D01*
X165708843Y-109481103D01*
X165696528Y-109486375D01*
X165686844Y-109495630D01*
X165665034Y-109499858D01*
X165644613Y-109508602D01*
X165631403Y-109506379D01*
X165618251Y-109508930D01*
X165597615Y-109500695D01*
X165575711Y-109497010D01*
X165559563Y-109485510D01*
X165553358Y-109483034D01*
X165550537Y-109479082D01*
X165542220Y-109473159D01*
X165274019Y-109204958D01*
X165240534Y-109143635D01*
X165237700Y-109117277D01*
X165237700Y-104495497D01*
X165257385Y-104428458D01*
X165310189Y-104382703D01*
X165379347Y-104372759D01*
X165431842Y-104394871D01*
G37*
%TD.AperFunction*%
%TA.AperFunction,Conductor*%
G36*
X172565718Y-89980401D02*
G01*
X173384857Y-90018272D01*
X173390568Y-90018668D01*
X174207072Y-90094328D01*
X174212733Y-90094985D01*
X175024881Y-90208274D01*
X175030526Y-90209195D01*
X175526061Y-90301827D01*
X175836585Y-90359874D01*
X175842188Y-90361056D01*
X176640426Y-90548800D01*
X176645910Y-90550225D01*
X177434621Y-90774633D01*
X177440094Y-90776327D01*
X178217609Y-91036923D01*
X178222946Y-91038850D01*
X178832704Y-91275071D01*
X178987621Y-91335087D01*
X178992913Y-91337280D01*
X179743041Y-91668494D01*
X179748175Y-91670903D01*
X180311991Y-91951651D01*
X180482242Y-92036426D01*
X180487309Y-92039097D01*
X180791007Y-92208255D01*
X181203679Y-92438112D01*
X181208594Y-92441000D01*
X181905810Y-92872697D01*
X181910567Y-92875797D01*
X182587097Y-93339231D01*
X182591737Y-93342570D01*
X183246111Y-93836730D01*
X183250601Y-93840287D01*
X183881445Y-94364134D01*
X183885766Y-94367894D01*
X184491754Y-94920324D01*
X184495897Y-94924280D01*
X185075719Y-95504102D01*
X185079675Y-95508245D01*
X185632105Y-96114233D01*
X185635865Y-96118554D01*
X186159712Y-96749398D01*
X186163269Y-96753888D01*
X186657429Y-97408262D01*
X186660774Y-97412910D01*
X187061055Y-97997249D01*
X187124188Y-98089411D01*
X187127308Y-98094200D01*
X187477405Y-98659626D01*
X187558992Y-98791393D01*
X187561894Y-98796332D01*
X187960902Y-99512690D01*
X187963573Y-99517757D01*
X188196328Y-99985191D01*
X188309461Y-100212393D01*
X188329083Y-100251798D01*
X188331513Y-100256977D01*
X188375809Y-100357295D01*
X188662719Y-101007086D01*
X188664912Y-101012378D01*
X188961140Y-101777028D01*
X188963085Y-101782416D01*
X189223672Y-102559906D01*
X189225366Y-102565378D01*
X189449766Y-103354059D01*
X189451206Y-103359603D01*
X189638942Y-104157809D01*
X189640125Y-104163414D01*
X189790803Y-104969469D01*
X189791725Y-104975123D01*
X189905012Y-105787252D01*
X189905672Y-105792942D01*
X189981330Y-106609430D01*
X189981727Y-106615144D01*
X190019599Y-107434281D01*
X190019731Y-107440008D01*
X190019731Y-108259991D01*
X190019599Y-108265718D01*
X189981727Y-109084855D01*
X189981330Y-109090569D01*
X189905672Y-109907057D01*
X189905012Y-109912747D01*
X189791725Y-110724876D01*
X189790803Y-110730530D01*
X189640125Y-111536585D01*
X189638942Y-111542190D01*
X189451206Y-112340396D01*
X189449766Y-112345940D01*
X189225366Y-113134621D01*
X189223672Y-113140093D01*
X188963085Y-113917583D01*
X188961140Y-113922971D01*
X188664912Y-114687621D01*
X188662719Y-114692913D01*
X188331517Y-115443015D01*
X188329083Y-115448201D01*
X187963573Y-116182242D01*
X187960902Y-116187309D01*
X187561894Y-116903667D01*
X187558992Y-116908606D01*
X187127315Y-117605789D01*
X187124188Y-117610588D01*
X186660775Y-118287087D01*
X186657429Y-118291737D01*
X186163269Y-118946111D01*
X186159712Y-118950601D01*
X185635865Y-119581445D01*
X185632105Y-119585766D01*
X185079675Y-120191754D01*
X185075719Y-120195897D01*
X184495897Y-120775719D01*
X184491754Y-120779675D01*
X183885766Y-121332105D01*
X183881445Y-121335865D01*
X183250601Y-121859712D01*
X183246111Y-121863269D01*
X182591737Y-122357429D01*
X182587087Y-122360775D01*
X181910588Y-122824188D01*
X181905789Y-122827315D01*
X181208606Y-123258992D01*
X181203667Y-123261894D01*
X180487309Y-123660902D01*
X180482242Y-123663573D01*
X179748201Y-124029083D01*
X179743015Y-124031517D01*
X178992913Y-124362719D01*
X178987621Y-124364912D01*
X178222971Y-124661140D01*
X178217583Y-124663085D01*
X177440093Y-124923672D01*
X177434621Y-124925366D01*
X176645940Y-125149766D01*
X176640396Y-125151206D01*
X175842190Y-125338942D01*
X175836585Y-125340125D01*
X175030530Y-125490803D01*
X175024876Y-125491725D01*
X174212747Y-125605012D01*
X174207057Y-125605672D01*
X173390569Y-125681330D01*
X173384855Y-125681727D01*
X172565718Y-125719599D01*
X172559991Y-125719731D01*
X171740009Y-125719731D01*
X171734282Y-125719599D01*
X170915144Y-125681727D01*
X170909430Y-125681330D01*
X170092942Y-125605672D01*
X170087252Y-125605012D01*
X169275123Y-125491725D01*
X169269469Y-125490803D01*
X168463414Y-125340125D01*
X168457809Y-125338942D01*
X167659603Y-125151206D01*
X167654059Y-125149766D01*
X166865378Y-124925366D01*
X166859906Y-124923672D01*
X166082416Y-124663085D01*
X166077028Y-124661140D01*
X165312378Y-124364912D01*
X165307086Y-124362719D01*
X164556984Y-124031517D01*
X164551798Y-124029083D01*
X163817757Y-123663573D01*
X163812690Y-123660902D01*
X163096332Y-123261894D01*
X163091394Y-123258992D01*
X162890450Y-123134573D01*
X162890449Y-123134573D01*
X162733304Y-123037273D01*
X170479500Y-123037273D01*
X170479500Y-123142727D01*
X170506793Y-123244587D01*
X170559520Y-123335913D01*
X170634087Y-123410480D01*
X170725413Y-123463207D01*
X170827273Y-123490500D01*
X170827275Y-123490500D01*
X170932725Y-123490500D01*
X170932727Y-123490500D01*
X171034587Y-123463207D01*
X171125913Y-123410480D01*
X171200480Y-123335913D01*
X171253207Y-123244587D01*
X171280500Y-123142727D01*
X171280500Y-123037273D01*
X172511500Y-123037273D01*
X172511500Y-123142727D01*
X172538793Y-123244587D01*
X172591520Y-123335913D01*
X172666087Y-123410480D01*
X172757413Y-123463207D01*
X172859273Y-123490500D01*
X172859275Y-123490500D01*
X172964725Y-123490500D01*
X172964727Y-123490500D01*
X173066587Y-123463207D01*
X173157913Y-123410480D01*
X173232480Y-123335913D01*
X173285207Y-123244587D01*
X173312500Y-123142727D01*
X173312500Y-123037273D01*
X173285207Y-122935413D01*
X173232480Y-122844087D01*
X173157913Y-122769520D01*
X173066587Y-122716793D01*
X172964727Y-122689500D01*
X172859273Y-122689500D01*
X172757413Y-122716793D01*
X172757410Y-122716794D01*
X172666085Y-122769521D01*
X172591521Y-122844085D01*
X172538794Y-122935410D01*
X172538793Y-122935413D01*
X172511500Y-123037273D01*
X171280500Y-123037273D01*
X171253207Y-122935413D01*
X171200480Y-122844087D01*
X171125913Y-122769520D01*
X171034587Y-122716793D01*
X170932727Y-122689500D01*
X170827273Y-122689500D01*
X170725413Y-122716793D01*
X170725410Y-122716794D01*
X170634085Y-122769521D01*
X170559521Y-122844085D01*
X170506794Y-122935410D01*
X170506793Y-122935413D01*
X170479500Y-123037273D01*
X162733304Y-123037273D01*
X162394200Y-122827308D01*
X162389422Y-122824195D01*
X161712910Y-122360774D01*
X161708262Y-122357429D01*
X161053888Y-121863269D01*
X161049398Y-121859712D01*
X160420636Y-121337594D01*
X160418555Y-121335866D01*
X160418554Y-121335865D01*
X160414233Y-121332105D01*
X160324522Y-121250323D01*
X162690158Y-121250323D01*
X162690158Y-121401854D01*
X162729377Y-121548225D01*
X162767260Y-121613839D01*
X162805143Y-121679454D01*
X162912293Y-121786604D01*
X163043523Y-121862370D01*
X163189892Y-121901589D01*
X163189894Y-121901589D01*
X163341422Y-121901589D01*
X163341424Y-121901589D01*
X163487793Y-121862370D01*
X163619023Y-121786604D01*
X163726173Y-121679454D01*
X163801939Y-121548224D01*
X163841158Y-121401855D01*
X163841158Y-121250323D01*
X163801939Y-121103954D01*
X163726173Y-120972724D01*
X163619023Y-120865574D01*
X163553408Y-120827691D01*
X163487794Y-120789808D01*
X163414608Y-120770198D01*
X163341424Y-120750589D01*
X163189892Y-120750589D01*
X163043521Y-120789808D01*
X162912293Y-120865574D01*
X162912290Y-120865576D01*
X162805145Y-120972721D01*
X162805143Y-120972724D01*
X162729377Y-121103952D01*
X162690158Y-121250323D01*
X160324522Y-121250323D01*
X159808245Y-120779675D01*
X159804102Y-120775719D01*
X159224280Y-120195897D01*
X159220324Y-120191754D01*
X159104485Y-120064684D01*
X159035739Y-119989273D01*
X171149500Y-119989273D01*
X171149500Y-120094727D01*
X171176793Y-120196587D01*
X171229520Y-120287913D01*
X171304087Y-120362480D01*
X171395413Y-120415207D01*
X171497273Y-120442500D01*
X171497275Y-120442500D01*
X171602725Y-120442500D01*
X171602727Y-120442500D01*
X171704587Y-120415207D01*
X171795913Y-120362480D01*
X171870480Y-120287913D01*
X171923207Y-120196587D01*
X171950500Y-120094727D01*
X171950500Y-119989273D01*
X171923207Y-119887413D01*
X171870480Y-119796087D01*
X171795913Y-119721520D01*
X171704587Y-119668793D01*
X171602727Y-119641500D01*
X171497273Y-119641500D01*
X171395413Y-119668793D01*
X171395410Y-119668794D01*
X171304085Y-119721521D01*
X171229521Y-119796085D01*
X171176794Y-119887410D01*
X171176793Y-119887413D01*
X171149500Y-119989273D01*
X159035739Y-119989273D01*
X158667894Y-119585766D01*
X158664134Y-119581445D01*
X158181661Y-119000426D01*
X158140283Y-118950596D01*
X158136730Y-118946111D01*
X158121986Y-118926587D01*
X157772767Y-118464145D01*
X159480842Y-118464145D01*
X159480842Y-118615677D01*
X159490173Y-118650500D01*
X159520061Y-118762047D01*
X159536063Y-118789762D01*
X159595827Y-118893276D01*
X159702977Y-119000426D01*
X159834207Y-119076192D01*
X159980576Y-119115411D01*
X159980578Y-119115411D01*
X160132106Y-119115411D01*
X160132108Y-119115411D01*
X160278477Y-119076192D01*
X160409707Y-119000426D01*
X160516857Y-118893276D01*
X160592623Y-118762046D01*
X160604084Y-118719273D01*
X171149500Y-118719273D01*
X171149500Y-118824727D01*
X171176793Y-118926587D01*
X171229520Y-119017913D01*
X171304087Y-119092480D01*
X171395413Y-119145207D01*
X171497273Y-119172500D01*
X171497275Y-119172500D01*
X171602725Y-119172500D01*
X171602727Y-119172500D01*
X171704587Y-119145207D01*
X171795913Y-119092480D01*
X171870480Y-119017913D01*
X171923207Y-118926587D01*
X171950500Y-118824727D01*
X171950500Y-118719273D01*
X171923207Y-118617413D01*
X171870480Y-118526087D01*
X171795913Y-118451520D01*
X171704587Y-118398793D01*
X171602727Y-118371500D01*
X171497273Y-118371500D01*
X171395413Y-118398793D01*
X171395410Y-118398794D01*
X171304085Y-118451521D01*
X171229521Y-118526085D01*
X171176794Y-118617410D01*
X171176793Y-118617413D01*
X171149500Y-118719273D01*
X160604084Y-118719273D01*
X160631842Y-118615677D01*
X160631842Y-118464145D01*
X160592623Y-118317776D01*
X160516857Y-118186546D01*
X160409707Y-118079396D01*
X160337881Y-118037927D01*
X160278478Y-118003630D01*
X160198043Y-117982078D01*
X160132108Y-117964411D01*
X159980576Y-117964411D01*
X159834205Y-118003630D01*
X159702977Y-118079396D01*
X159702974Y-118079398D01*
X159595829Y-118186543D01*
X159595827Y-118186546D01*
X159520061Y-118317774D01*
X159494449Y-118413361D01*
X159480842Y-118464145D01*
X157772767Y-118464145D01*
X157642563Y-118291727D01*
X157639224Y-118287087D01*
X157212893Y-117664720D01*
X163068514Y-117664720D01*
X163068514Y-117770174D01*
X163090359Y-117851699D01*
X163095807Y-117872033D01*
X163095808Y-117872036D01*
X163098555Y-117876794D01*
X163148534Y-117963360D01*
X163223101Y-118037927D01*
X163314427Y-118090654D01*
X163416287Y-118117947D01*
X163416289Y-118117947D01*
X163521739Y-118117947D01*
X163521741Y-118117947D01*
X163533784Y-118114720D01*
X168891500Y-118114720D01*
X168891500Y-118220174D01*
X168918793Y-118322034D01*
X168971520Y-118413360D01*
X169046087Y-118487927D01*
X169137413Y-118540654D01*
X169239273Y-118567947D01*
X169239275Y-118567947D01*
X169344725Y-118567947D01*
X169344727Y-118567947D01*
X169446587Y-118540654D01*
X169537913Y-118487927D01*
X169612480Y-118413360D01*
X169665207Y-118322034D01*
X169692500Y-118220174D01*
X169692500Y-118114720D01*
X169665207Y-118012860D01*
X169612480Y-117921534D01*
X169537913Y-117846967D01*
X169450770Y-117796655D01*
X169446589Y-117794241D01*
X169446588Y-117794240D01*
X169446587Y-117794240D01*
X169344727Y-117766947D01*
X169239273Y-117766947D01*
X169137413Y-117794240D01*
X169137411Y-117794241D01*
X169137410Y-117794241D01*
X169046085Y-117846968D01*
X168971521Y-117921532D01*
X168918794Y-118012857D01*
X168918793Y-118012860D01*
X168891500Y-118114720D01*
X163533784Y-118114720D01*
X163623601Y-118090654D01*
X163714927Y-118037927D01*
X163789494Y-117963360D01*
X163842221Y-117872034D01*
X163869514Y-117770174D01*
X163869514Y-117664720D01*
X163842221Y-117562860D01*
X163789494Y-117471534D01*
X163714927Y-117396967D01*
X163623601Y-117344240D01*
X163521741Y-117316947D01*
X163416287Y-117316947D01*
X163314427Y-117344240D01*
X163314424Y-117344241D01*
X163223099Y-117396968D01*
X163148535Y-117471532D01*
X163095808Y-117562857D01*
X163095807Y-117562860D01*
X163068514Y-117664720D01*
X157212893Y-117664720D01*
X157175797Y-117610567D01*
X157172697Y-117605810D01*
X156741000Y-116908594D01*
X156738105Y-116903667D01*
X156737953Y-116903395D01*
X156466978Y-116416900D01*
X156339097Y-116187309D01*
X156336426Y-116182242D01*
X156272964Y-116054793D01*
X156183175Y-115874473D01*
X158897100Y-115874473D01*
X158897100Y-115979927D01*
X158924393Y-116081787D01*
X158977120Y-116173113D01*
X159051687Y-116247680D01*
X159143013Y-116300407D01*
X159244873Y-116327700D01*
X159244875Y-116327700D01*
X159350325Y-116327700D01*
X159350327Y-116327700D01*
X159452187Y-116300407D01*
X159543513Y-116247680D01*
X159618080Y-116173113D01*
X159670807Y-116081787D01*
X159698100Y-115979927D01*
X159698100Y-115874473D01*
X159670807Y-115772613D01*
X159618080Y-115681287D01*
X159543513Y-115606720D01*
X159468676Y-115563513D01*
X159452189Y-115553994D01*
X159452188Y-115553993D01*
X159452187Y-115553993D01*
X159350327Y-115526700D01*
X159244873Y-115526700D01*
X159143013Y-115553993D01*
X159143010Y-115553994D01*
X159051685Y-115606721D01*
X158977121Y-115681285D01*
X158924394Y-115772610D01*
X158924393Y-115772613D01*
X158897100Y-115874473D01*
X156183175Y-115874473D01*
X155970903Y-115448175D01*
X155968494Y-115443041D01*
X155889825Y-115264873D01*
X160217900Y-115264873D01*
X160217900Y-115370327D01*
X160237377Y-115443015D01*
X160245193Y-115472186D01*
X160245194Y-115472189D01*
X160255455Y-115489962D01*
X160297920Y-115563513D01*
X160372487Y-115638080D01*
X160463813Y-115690807D01*
X160565673Y-115718100D01*
X160565675Y-115718100D01*
X160671125Y-115718100D01*
X160671127Y-115718100D01*
X160772987Y-115690807D01*
X160864313Y-115638080D01*
X160938880Y-115563513D01*
X160991607Y-115472187D01*
X161018900Y-115370327D01*
X161018900Y-115264873D01*
X160991607Y-115163013D01*
X160938880Y-115071687D01*
X160905219Y-115038026D01*
X160871734Y-114976703D01*
X160868900Y-114950345D01*
X160868900Y-113440723D01*
X160888585Y-113373684D01*
X160905219Y-113353042D01*
X160983875Y-113274386D01*
X161084764Y-113173497D01*
X161122900Y-113081428D01*
X161122900Y-112981772D01*
X161122900Y-111869857D01*
X161129927Y-111845922D01*
X161132867Y-111821148D01*
X161140530Y-111809814D01*
X161142585Y-111802818D01*
X161151209Y-111790994D01*
X161154995Y-111786399D01*
X161192880Y-111748515D01*
X161208466Y-111721519D01*
X161215009Y-111713580D01*
X161235748Y-111699515D01*
X161253879Y-111682228D01*
X161264164Y-111680245D01*
X161272836Y-111674365D01*
X161297883Y-111673746D01*
X161322486Y-111669004D01*
X161332212Y-111672897D01*
X161342685Y-111672639D01*
X161364090Y-111685659D01*
X161387351Y-111694972D01*
X161393427Y-111703505D01*
X161402378Y-111708950D01*
X161413345Y-111731475D01*
X161427880Y-111751886D01*
X161430305Y-111766308D01*
X161432964Y-111771769D01*
X161432244Y-111777837D01*
X161434700Y-111792443D01*
X161434700Y-112979829D01*
X161472836Y-113071897D01*
X161705207Y-113304268D01*
X161738692Y-113365591D01*
X161737301Y-113424041D01*
X161716500Y-113501673D01*
X161716500Y-113607127D01*
X161743793Y-113708987D01*
X161796520Y-113800313D01*
X161871087Y-113874880D01*
X161962413Y-113927607D01*
X162064273Y-113954900D01*
X162064275Y-113954900D01*
X162169725Y-113954900D01*
X162169727Y-113954900D01*
X162271587Y-113927607D01*
X162362913Y-113874880D01*
X162437480Y-113800313D01*
X162490207Y-113708987D01*
X162517500Y-113607127D01*
X162517500Y-113501673D01*
X162490207Y-113399813D01*
X162437480Y-113308487D01*
X162362913Y-113233920D01*
X162348323Y-113225496D01*
X162330833Y-113215398D01*
X162305154Y-113195693D01*
X162291842Y-113182381D01*
X162258357Y-113121058D01*
X162263341Y-113051366D01*
X162305213Y-112995433D01*
X162347430Y-112974925D01*
X162347523Y-112974900D01*
X162347527Y-112974900D01*
X162449387Y-112947607D01*
X162540713Y-112894880D01*
X162615280Y-112820313D01*
X162668007Y-112728987D01*
X162695300Y-112627127D01*
X162695300Y-112579523D01*
X162703944Y-112550082D01*
X162710468Y-112520096D01*
X162714222Y-112515080D01*
X162714985Y-112512484D01*
X162731619Y-112491842D01*
X162787819Y-112435642D01*
X162849142Y-112402157D01*
X162918834Y-112407141D01*
X162974767Y-112449013D01*
X162999184Y-112514477D01*
X162999500Y-112523323D01*
X162999500Y-112614229D01*
X163027530Y-112681900D01*
X163037636Y-112706297D01*
X163696034Y-113364694D01*
X163696035Y-113364696D01*
X163766502Y-113435163D01*
X163778856Y-113440280D01*
X163858571Y-113473300D01*
X163858574Y-113473300D01*
X163972661Y-113473300D01*
X163972669Y-113473299D01*
X164201544Y-113473299D01*
X164268583Y-113492984D01*
X164277281Y-113499993D01*
X164277637Y-113499531D01*
X164284083Y-113504477D01*
X164284085Y-113504478D01*
X164284087Y-113504480D01*
X164375413Y-113557207D01*
X164477273Y-113584500D01*
X164477275Y-113584500D01*
X164548879Y-113584500D01*
X164615918Y-113604185D01*
X164636560Y-113620819D01*
X165305223Y-114289482D01*
X165338708Y-114350805D01*
X165341542Y-114377163D01*
X165341542Y-116738063D01*
X165321857Y-116805102D01*
X165269053Y-116850857D01*
X165199895Y-116860801D01*
X165136339Y-116831776D01*
X165129861Y-116825744D01*
X165079976Y-116775859D01*
X165079975Y-116775858D01*
X164988649Y-116723131D01*
X164886789Y-116695838D01*
X164781335Y-116695838D01*
X164679475Y-116723131D01*
X164679472Y-116723132D01*
X164588147Y-116775859D01*
X164513583Y-116850423D01*
X164460856Y-116941748D01*
X164460855Y-116941751D01*
X164433562Y-117043611D01*
X164433562Y-117149065D01*
X164448627Y-117205287D01*
X164460855Y-117250924D01*
X164460856Y-117250927D01*
X164472721Y-117271478D01*
X164513582Y-117342251D01*
X164588149Y-117416818D01*
X164679475Y-117469545D01*
X164781335Y-117496838D01*
X164781337Y-117496838D01*
X164886785Y-117496838D01*
X164886789Y-117496838D01*
X164887788Y-117496570D01*
X164888663Y-117496590D01*
X164894845Y-117495777D01*
X164894971Y-117496740D01*
X164957635Y-117498229D01*
X165015500Y-117537388D01*
X165039660Y-117584247D01*
X165044788Y-117603384D01*
X165044790Y-117603389D01*
X165047582Y-117608225D01*
X165097516Y-117694713D01*
X165172083Y-117769280D01*
X165263409Y-117822007D01*
X165365269Y-117849300D01*
X165365271Y-117849300D01*
X165470721Y-117849300D01*
X165470723Y-117849300D01*
X165572583Y-117822007D01*
X165663909Y-117769280D01*
X165738476Y-117694713D01*
X165791203Y-117603387D01*
X165818496Y-117501527D01*
X165818496Y-117407299D01*
X165827935Y-117359845D01*
X165842542Y-117324582D01*
X165842542Y-117224926D01*
X165842542Y-114172212D01*
X165804406Y-114080143D01*
X165733939Y-114009676D01*
X164966819Y-113242556D01*
X164933334Y-113181233D01*
X164930500Y-113154875D01*
X164930500Y-113131275D01*
X164930500Y-113131273D01*
X164903207Y-113029413D01*
X164850480Y-112938087D01*
X164775913Y-112863520D01*
X164729151Y-112836522D01*
X164680936Y-112785956D01*
X164667548Y-112719228D01*
X164668450Y-112707968D01*
X164676500Y-112677927D01*
X164676500Y-112607554D01*
X164676896Y-112602614D01*
X164687685Y-112574429D01*
X164696185Y-112545483D01*
X164700047Y-112542136D01*
X164701875Y-112537362D01*
X164726189Y-112519483D01*
X164748989Y-112499728D01*
X164754046Y-112499000D01*
X164758166Y-112495972D01*
X164788281Y-112494078D01*
X164818147Y-112489784D01*
X164822797Y-112491907D01*
X164827898Y-112491587D01*
X164854252Y-112506272D01*
X164881703Y-112518809D01*
X164888171Y-112524832D01*
X165013840Y-112650500D01*
X165443381Y-113080041D01*
X165476866Y-113141364D01*
X165479700Y-113167722D01*
X165479700Y-113172527D01*
X165506993Y-113274387D01*
X165559720Y-113365713D01*
X165634287Y-113440280D01*
X165725613Y-113493007D01*
X165827473Y-113520300D01*
X165827475Y-113520300D01*
X165932924Y-113520300D01*
X165932927Y-113520300D01*
X166034787Y-113493007D01*
X166034791Y-113493004D01*
X166038271Y-113492072D01*
X166108121Y-113493735D01*
X166165984Y-113532897D01*
X166190139Y-113579752D01*
X166196792Y-113604582D01*
X166196795Y-113604589D01*
X166210923Y-113629059D01*
X166249521Y-113695913D01*
X166324088Y-113770480D01*
X166415414Y-113823207D01*
X166517274Y-113850500D01*
X166517276Y-113850500D01*
X166622726Y-113850500D01*
X166622728Y-113850500D01*
X166724588Y-113823207D01*
X166815914Y-113770480D01*
X166890481Y-113695913D01*
X166943208Y-113604587D01*
X166970501Y-113502727D01*
X166970501Y-113397273D01*
X166943208Y-113295413D01*
X166890481Y-113204087D01*
X166815914Y-113129520D01*
X166724588Y-113076793D01*
X166622728Y-113049500D01*
X166517274Y-113049500D01*
X166411928Y-113077727D01*
X166342078Y-113076064D01*
X166284216Y-113036901D01*
X166260060Y-112990044D01*
X166256002Y-112974900D01*
X166253407Y-112965213D01*
X166200680Y-112873887D01*
X166126113Y-112799320D01*
X166055024Y-112758277D01*
X166034789Y-112746594D01*
X166034788Y-112746593D01*
X166034787Y-112746593D01*
X165932927Y-112719300D01*
X165842522Y-112719300D01*
X165775483Y-112699615D01*
X165754841Y-112682981D01*
X165036819Y-111964958D01*
X165003334Y-111903635D01*
X165000500Y-111877277D01*
X165000500Y-109939323D01*
X165020185Y-109872284D01*
X165072989Y-109826529D01*
X165142147Y-109816585D01*
X165205703Y-109845610D01*
X165212181Y-109851642D01*
X165994036Y-110633497D01*
X166064503Y-110703964D01*
X166110037Y-110722824D01*
X166124577Y-110729994D01*
X166160613Y-110750800D01*
X166262473Y-110778093D01*
X166262475Y-110778093D01*
X166367925Y-110778093D01*
X166367927Y-110778093D01*
X166367928Y-110778092D01*
X166374508Y-110777226D01*
X166443544Y-110787988D01*
X166495802Y-110834365D01*
X166514700Y-110900164D01*
X166514700Y-110947829D01*
X166535239Y-110997414D01*
X166552836Y-111039897D01*
X166826503Y-111313564D01*
X166918572Y-111351700D01*
X166918574Y-111351700D01*
X168004189Y-111351700D01*
X168004191Y-111351700D01*
X168096260Y-111313564D01*
X168559924Y-110849898D01*
X168621247Y-110816414D01*
X168647605Y-110813580D01*
X168658238Y-110813580D01*
X168658240Y-110813580D01*
X168760100Y-110786287D01*
X168851426Y-110733560D01*
X168925993Y-110658993D01*
X168978720Y-110567667D01*
X169006013Y-110465807D01*
X169006013Y-110360353D01*
X168978720Y-110258493D01*
X168925993Y-110167167D01*
X168851426Y-110092600D01*
X168760100Y-110039873D01*
X168658240Y-110012580D01*
X168552786Y-110012580D01*
X168450926Y-110039873D01*
X168450923Y-110039874D01*
X168359598Y-110092601D01*
X168285034Y-110167165D01*
X168232307Y-110258490D01*
X168232306Y-110258493D01*
X168224874Y-110286231D01*
X168188509Y-110345892D01*
X168125662Y-110376421D01*
X168056287Y-110368126D01*
X168002409Y-110323641D01*
X167995828Y-110311418D01*
X167995771Y-110311452D01*
X167986800Y-110295914D01*
X167938980Y-110213087D01*
X167864413Y-110138520D01*
X167773087Y-110085793D01*
X167671227Y-110058500D01*
X167671226Y-110058500D01*
X167624500Y-110058500D01*
X167557461Y-110038815D01*
X167511706Y-109986011D01*
X167500500Y-109934500D01*
X167500500Y-107205123D01*
X167520185Y-107138084D01*
X167536819Y-107117442D01*
X168149868Y-106504393D01*
X168794583Y-105859677D01*
X168855904Y-105826194D01*
X168925596Y-105831178D01*
X168981529Y-105873050D01*
X168989644Y-105885353D01*
X169035520Y-105964812D01*
X169110087Y-106039379D01*
X169201413Y-106092106D01*
X169303273Y-106119399D01*
X169303275Y-106119399D01*
X169408725Y-106119399D01*
X169408727Y-106119399D01*
X169439650Y-106111113D01*
X169509499Y-106112774D01*
X169567362Y-106151936D01*
X169594867Y-106216164D01*
X169595744Y-106230887D01*
X169595744Y-108245051D01*
X169576059Y-108312090D01*
X169559425Y-108332732D01*
X169282692Y-108609464D01*
X169221369Y-108642949D01*
X169151677Y-108637965D01*
X169095744Y-108596093D01*
X169087634Y-108583798D01*
X169070480Y-108554087D01*
X168995913Y-108479520D01*
X168904587Y-108426793D01*
X168802727Y-108399500D01*
X168697273Y-108399500D01*
X168595413Y-108426793D01*
X168595410Y-108426794D01*
X168504085Y-108479521D01*
X168429521Y-108554085D01*
X168376794Y-108645410D01*
X168376793Y-108645413D01*
X168349500Y-108747273D01*
X168349500Y-108852727D01*
X168376793Y-108954587D01*
X168427985Y-109043255D01*
X168429521Y-109045914D01*
X168465481Y-109081874D01*
X168498966Y-109143197D01*
X168493982Y-109212889D01*
X168485189Y-109231552D01*
X168482617Y-109236006D01*
X168482616Y-109236009D01*
X168455323Y-109337869D01*
X168455323Y-109443323D01*
X168479713Y-109534346D01*
X168482616Y-109545182D01*
X168482617Y-109545185D01*
X168491116Y-109559905D01*
X168535343Y-109636509D01*
X168609910Y-109711076D01*
X168701236Y-109763803D01*
X168803096Y-109791096D01*
X168803098Y-109791096D01*
X168908548Y-109791096D01*
X168908550Y-109791096D01*
X168965415Y-109775859D01*
X169035263Y-109777522D01*
X169093126Y-109816685D01*
X169104893Y-109833633D01*
X169108875Y-109840530D01*
X169183442Y-109915097D01*
X169274768Y-109967824D01*
X169376628Y-109995117D01*
X169376630Y-109995117D01*
X169482080Y-109995117D01*
X169482082Y-109995117D01*
X169583942Y-109967824D01*
X169675268Y-109915097D01*
X169749835Y-109840530D01*
X169802562Y-109749204D01*
X169829855Y-109647344D01*
X169829855Y-109541890D01*
X169802562Y-109440030D01*
X169749835Y-109348704D01*
X169675268Y-109274137D01*
X169594132Y-109227293D01*
X169545918Y-109176726D01*
X169532696Y-109108119D01*
X169558664Y-109043255D01*
X169568453Y-109032226D01*
X169666572Y-108934107D01*
X169970699Y-108629978D01*
X169970702Y-108629977D01*
X169988140Y-108612539D01*
X169988141Y-108612539D01*
X170058608Y-108542072D01*
X170096744Y-108450003D01*
X170096744Y-105002925D01*
X170105388Y-104973484D01*
X170111912Y-104943498D01*
X170115666Y-104938482D01*
X170116429Y-104935886D01*
X170133063Y-104915244D01*
X170177819Y-104870488D01*
X170239142Y-104837003D01*
X170308834Y-104841987D01*
X170364767Y-104883859D01*
X170389184Y-104949323D01*
X170389500Y-104958169D01*
X170389500Y-109598480D01*
X170369815Y-109665519D01*
X170353181Y-109686161D01*
X169042037Y-110997304D01*
X169042036Y-110997305D01*
X169003900Y-111089373D01*
X169003900Y-116138158D01*
X168984215Y-116205197D01*
X168931411Y-116250952D01*
X168862253Y-116260896D01*
X168798697Y-116231871D01*
X168772515Y-116200162D01*
X168762080Y-116182087D01*
X168687513Y-116107520D01*
X168596187Y-116054793D01*
X168494327Y-116027500D01*
X168388873Y-116027500D01*
X168287013Y-116054793D01*
X168287010Y-116054794D01*
X168195685Y-116107521D01*
X168121121Y-116182085D01*
X168068394Y-116273410D01*
X168068393Y-116273413D01*
X168041100Y-116375273D01*
X168041100Y-116480727D01*
X168068393Y-116582587D01*
X168121120Y-116673913D01*
X168195687Y-116748480D01*
X168287013Y-116801207D01*
X168388873Y-116828500D01*
X168388875Y-116828500D01*
X168494324Y-116828500D01*
X168494327Y-116828500D01*
X168594089Y-116801769D01*
X168663935Y-116803432D01*
X168721798Y-116842594D01*
X168749302Y-116906823D01*
X168737716Y-116975725D01*
X168733569Y-116983538D01*
X168728796Y-116991804D01*
X168728793Y-116991813D01*
X168701500Y-117093673D01*
X168701500Y-117199127D01*
X168728793Y-117300987D01*
X168781520Y-117392313D01*
X168856087Y-117466880D01*
X168947413Y-117519607D01*
X169049273Y-117546900D01*
X169049275Y-117546900D01*
X169107656Y-117546900D01*
X169154727Y-117546900D01*
X169256587Y-117519607D01*
X169347913Y-117466880D01*
X169416320Y-117398473D01*
X171343100Y-117398473D01*
X171343100Y-117503927D01*
X171369772Y-117603467D01*
X171370393Y-117605786D01*
X171370394Y-117605789D01*
X171380537Y-117623357D01*
X171423120Y-117697113D01*
X171497687Y-117771680D01*
X171589013Y-117824407D01*
X171690873Y-117851700D01*
X171690875Y-117851700D01*
X171796325Y-117851700D01*
X171796327Y-117851700D01*
X171898187Y-117824407D01*
X171989513Y-117771680D01*
X172064080Y-117697113D01*
X172116807Y-117605787D01*
X172144100Y-117503927D01*
X172144100Y-117398473D01*
X172116807Y-117296613D01*
X172064080Y-117205287D01*
X171989513Y-117130720D01*
X171898187Y-117077993D01*
X171796327Y-117050700D01*
X171690873Y-117050700D01*
X171589013Y-117077993D01*
X171589010Y-117077994D01*
X171497685Y-117130721D01*
X171423121Y-117205285D01*
X171370394Y-117296610D01*
X171370393Y-117296613D01*
X171343100Y-117398473D01*
X169416320Y-117398473D01*
X169422480Y-117392313D01*
X169475207Y-117300987D01*
X169502500Y-117199127D01*
X169502500Y-117093673D01*
X169502180Y-117091244D01*
X169503501Y-117050857D01*
X169504898Y-117043830D01*
X169504900Y-117043828D01*
X169504900Y-116944172D01*
X169504900Y-114198073D01*
X171546300Y-114198073D01*
X171546300Y-114303527D01*
X171573593Y-114405387D01*
X171626320Y-114496713D01*
X171700887Y-114571280D01*
X171792213Y-114624007D01*
X171894073Y-114651300D01*
X171894075Y-114651300D01*
X171999525Y-114651300D01*
X171999527Y-114651300D01*
X172101387Y-114624007D01*
X172192713Y-114571280D01*
X172192715Y-114571277D01*
X172196099Y-114569324D01*
X172263999Y-114552850D01*
X172330026Y-114575702D01*
X172373217Y-114630623D01*
X172382100Y-114676710D01*
X172382100Y-116130935D01*
X172414679Y-116209588D01*
X172420236Y-116223003D01*
X172722300Y-116525067D01*
X173012948Y-116815714D01*
X173046433Y-116877037D01*
X173049267Y-116903395D01*
X173049267Y-116951000D01*
X173076560Y-117052860D01*
X173129287Y-117144186D01*
X173203854Y-117218753D01*
X173295180Y-117271480D01*
X173397040Y-117298773D01*
X173397042Y-117298773D01*
X173502492Y-117298773D01*
X173502494Y-117298773D01*
X173524110Y-117292981D01*
X173593957Y-117294642D01*
X173651820Y-117333804D01*
X173679142Y-117396568D01*
X173679900Y-117402326D01*
X173679900Y-117402327D01*
X173707124Y-117503927D01*
X173707193Y-117504186D01*
X173707194Y-117504189D01*
X173711614Y-117511845D01*
X173759920Y-117595513D01*
X173834487Y-117670080D01*
X173925813Y-117722807D01*
X174027673Y-117750100D01*
X174027675Y-117750100D01*
X174133125Y-117750100D01*
X174133127Y-117750100D01*
X174234987Y-117722807D01*
X174326313Y-117670080D01*
X174400880Y-117595513D01*
X174413714Y-117573282D01*
X174464279Y-117525069D01*
X174532886Y-117511845D01*
X174597751Y-117537813D01*
X174638280Y-117594727D01*
X174645100Y-117635284D01*
X174645100Y-117714327D01*
X174667160Y-117796655D01*
X174672393Y-117816186D01*
X174672394Y-117816189D01*
X174675753Y-117822007D01*
X174725120Y-117907513D01*
X174799687Y-117982080D01*
X174891013Y-118034807D01*
X174992873Y-118062100D01*
X174992875Y-118062100D01*
X175098325Y-118062100D01*
X175098327Y-118062100D01*
X175200187Y-118034807D01*
X175291513Y-117982080D01*
X175366080Y-117907513D01*
X175418807Y-117816187D01*
X175446100Y-117714327D01*
X175446100Y-117666723D01*
X175465785Y-117599684D01*
X175482419Y-117579042D01*
X176216219Y-116845242D01*
X176277542Y-116811757D01*
X176347234Y-116816741D01*
X176403167Y-116858613D01*
X176427584Y-116924077D01*
X176427900Y-116932923D01*
X176427900Y-117535676D01*
X176408215Y-117602715D01*
X176391581Y-117623357D01*
X176201382Y-117813555D01*
X176140059Y-117847040D01*
X176110854Y-117848261D01*
X176110854Y-117849500D01*
X175997273Y-117849500D01*
X175895413Y-117876793D01*
X175895410Y-117876794D01*
X175804085Y-117929521D01*
X175729521Y-118004085D01*
X175676794Y-118095410D01*
X175676793Y-118095413D01*
X175649500Y-118197273D01*
X175649500Y-118302727D01*
X175676793Y-118404587D01*
X175729520Y-118495913D01*
X175804087Y-118570480D01*
X175895413Y-118623207D01*
X175997273Y-118650500D01*
X175997275Y-118650500D01*
X176102725Y-118650500D01*
X176102727Y-118650500D01*
X176204587Y-118623207D01*
X176295913Y-118570480D01*
X176370480Y-118495913D01*
X176423207Y-118404587D01*
X176450500Y-118302727D01*
X176450500Y-118302725D01*
X176452603Y-118294877D01*
X176455916Y-118295764D01*
X176477700Y-118246383D01*
X176484764Y-118238696D01*
X176890764Y-117832697D01*
X176928900Y-117740628D01*
X176928900Y-117640972D01*
X176928900Y-116134109D01*
X176948585Y-116067070D01*
X177001389Y-116021315D01*
X177070547Y-116011371D01*
X177114894Y-116026719D01*
X177195413Y-116073207D01*
X177297273Y-116100500D01*
X177297275Y-116100500D01*
X177402725Y-116100500D01*
X177402727Y-116100500D01*
X177504587Y-116073207D01*
X177595913Y-116020480D01*
X177670480Y-115945913D01*
X177670486Y-115945901D01*
X177671519Y-115944557D01*
X177672694Y-115943698D01*
X177676227Y-115940166D01*
X177676777Y-115940716D01*
X177727944Y-115903351D01*
X177797690Y-115899191D01*
X177858613Y-115933399D01*
X177891370Y-115995115D01*
X177893900Y-116020037D01*
X177893900Y-120752229D01*
X177932036Y-120844297D01*
X178317181Y-121229441D01*
X178350666Y-121290764D01*
X178353500Y-121317122D01*
X178353500Y-121364727D01*
X178380793Y-121466587D01*
X178433520Y-121557913D01*
X178508087Y-121632480D01*
X178599413Y-121685207D01*
X178701273Y-121712500D01*
X178701275Y-121712500D01*
X178806725Y-121712500D01*
X178806727Y-121712500D01*
X178908587Y-121685207D01*
X178999913Y-121632480D01*
X179074480Y-121557913D01*
X179127207Y-121466587D01*
X179154500Y-121364727D01*
X179154500Y-121259273D01*
X179152102Y-121250323D01*
X180458842Y-121250323D01*
X180458842Y-121401854D01*
X180498061Y-121548225D01*
X180535944Y-121613839D01*
X180573827Y-121679454D01*
X180680977Y-121786604D01*
X180812207Y-121862370D01*
X180958576Y-121901589D01*
X180958578Y-121901589D01*
X181110106Y-121901589D01*
X181110108Y-121901589D01*
X181256477Y-121862370D01*
X181387707Y-121786604D01*
X181494857Y-121679454D01*
X181570623Y-121548224D01*
X181609842Y-121401855D01*
X181609842Y-121250323D01*
X181570623Y-121103954D01*
X181494857Y-120972724D01*
X181387707Y-120865574D01*
X181322092Y-120827691D01*
X181256478Y-120789808D01*
X181183292Y-120770198D01*
X181110108Y-120750589D01*
X180958576Y-120750589D01*
X180812205Y-120789808D01*
X180680977Y-120865574D01*
X180680974Y-120865576D01*
X180573829Y-120972721D01*
X180573827Y-120972724D01*
X180498061Y-121103952D01*
X180458842Y-121250323D01*
X179152102Y-121250323D01*
X179127207Y-121157413D01*
X179074480Y-121066087D01*
X178999913Y-120991520D01*
X178908587Y-120938793D01*
X178806727Y-120911500D01*
X178806726Y-120911500D01*
X178759122Y-120911500D01*
X178692083Y-120891815D01*
X178671441Y-120875181D01*
X178431219Y-120634958D01*
X178416515Y-120608030D01*
X178399923Y-120582212D01*
X178399031Y-120576011D01*
X178397734Y-120573635D01*
X178394900Y-120547277D01*
X178394900Y-120511905D01*
X178414585Y-120444866D01*
X178467389Y-120399111D01*
X178536547Y-120389167D01*
X178580899Y-120404517D01*
X178599413Y-120415207D01*
X178701273Y-120442500D01*
X178701275Y-120442500D01*
X178806725Y-120442500D01*
X178806727Y-120442500D01*
X178908587Y-120415207D01*
X178999913Y-120362480D01*
X179074480Y-120287913D01*
X179127207Y-120196587D01*
X179154500Y-120094727D01*
X179154500Y-119989273D01*
X179145772Y-119956699D01*
X179147435Y-119886853D01*
X179186597Y-119828991D01*
X179203548Y-119817222D01*
X179206184Y-119815699D01*
X179206187Y-119815699D01*
X179297513Y-119762972D01*
X179372080Y-119688405D01*
X179424807Y-119597079D01*
X179427928Y-119585429D01*
X179460021Y-119529838D01*
X180244363Y-118745498D01*
X180282499Y-118653429D01*
X180282499Y-118553773D01*
X180282499Y-118464145D01*
X183668158Y-118464145D01*
X183668158Y-118615677D01*
X183677489Y-118650500D01*
X183707377Y-118762047D01*
X183723379Y-118789762D01*
X183783143Y-118893276D01*
X183890293Y-119000426D01*
X184021523Y-119076192D01*
X184167892Y-119115411D01*
X184167894Y-119115411D01*
X184319422Y-119115411D01*
X184319424Y-119115411D01*
X184465793Y-119076192D01*
X184597023Y-119000426D01*
X184704173Y-118893276D01*
X184779939Y-118762046D01*
X184819158Y-118615677D01*
X184819158Y-118464145D01*
X184779939Y-118317776D01*
X184704173Y-118186546D01*
X184597023Y-118079396D01*
X184525197Y-118037927D01*
X184465794Y-118003630D01*
X184385359Y-117982078D01*
X184319424Y-117964411D01*
X184167892Y-117964411D01*
X184021521Y-118003630D01*
X183890293Y-118079396D01*
X183890290Y-118079398D01*
X183783145Y-118186543D01*
X183783143Y-118186546D01*
X183707377Y-118317774D01*
X183681765Y-118413361D01*
X183668158Y-118464145D01*
X180282499Y-118464145D01*
X180282499Y-118163146D01*
X180302184Y-118096107D01*
X180354988Y-118050352D01*
X180424146Y-118040408D01*
X180487702Y-118069433D01*
X180504439Y-118089706D01*
X180505560Y-118088847D01*
X180510505Y-118095292D01*
X180510506Y-118095293D01*
X180585073Y-118169860D01*
X180676399Y-118222587D01*
X180778259Y-118249880D01*
X180778261Y-118249880D01*
X180883711Y-118249880D01*
X180883713Y-118249880D01*
X180985573Y-118222587D01*
X181076899Y-118169860D01*
X181151466Y-118095293D01*
X181204193Y-118003967D01*
X181231486Y-117902107D01*
X181231486Y-117796653D01*
X181204193Y-117694793D01*
X181151466Y-117603467D01*
X181076899Y-117528900D01*
X180985573Y-117476173D01*
X180883713Y-117448880D01*
X180778259Y-117448880D01*
X180676399Y-117476173D01*
X180676396Y-117476174D01*
X180585071Y-117528901D01*
X180510505Y-117603467D01*
X180505560Y-117609913D01*
X180503029Y-117607971D01*
X180463290Y-117645844D01*
X180394679Y-117659048D01*
X180329822Y-117633063D01*
X180289308Y-117576138D01*
X180282499Y-117535613D01*
X180282499Y-116715861D01*
X180302184Y-116648822D01*
X180354988Y-116603067D01*
X180424146Y-116593123D01*
X180468495Y-116608472D01*
X180515342Y-116635520D01*
X180617202Y-116662813D01*
X180617204Y-116662813D01*
X180722654Y-116662813D01*
X180722656Y-116662813D01*
X180824516Y-116635520D01*
X180915842Y-116582793D01*
X180990409Y-116508226D01*
X181043136Y-116416900D01*
X181070429Y-116315040D01*
X181070429Y-116209586D01*
X181043136Y-116107726D01*
X180990409Y-116016400D01*
X180915842Y-115941833D01*
X180824516Y-115889106D01*
X180824515Y-115889105D01*
X180817477Y-115885042D01*
X180818501Y-115883267D01*
X180772643Y-115846312D01*
X180750579Y-115780018D01*
X180750500Y-115775593D01*
X180750500Y-115032573D01*
X180750499Y-115032570D01*
X180712364Y-114940503D01*
X180641897Y-114870036D01*
X180636819Y-114864958D01*
X180603334Y-114803635D01*
X180600500Y-114777277D01*
X180600500Y-112958636D01*
X180874534Y-112958636D01*
X180874534Y-113064090D01*
X180901827Y-113165950D01*
X180954554Y-113257276D01*
X181029121Y-113331843D01*
X181120447Y-113384570D01*
X181222307Y-113411863D01*
X181222309Y-113411863D01*
X181327759Y-113411863D01*
X181327761Y-113411863D01*
X181429621Y-113384570D01*
X181520947Y-113331843D01*
X181595514Y-113257276D01*
X181648241Y-113165950D01*
X181675534Y-113064090D01*
X181675534Y-112958636D01*
X181648241Y-112856776D01*
X181595514Y-112765450D01*
X181595507Y-112765443D01*
X181593383Y-112762674D01*
X181592314Y-112759908D01*
X181591450Y-112758412D01*
X181591683Y-112758277D01*
X181568192Y-112697504D01*
X181582232Y-112629059D01*
X181629760Y-112579805D01*
X181645913Y-112570480D01*
X181720480Y-112495913D01*
X181773207Y-112404587D01*
X181800500Y-112302727D01*
X181800500Y-112197273D01*
X181773207Y-112095413D01*
X181720480Y-112004087D01*
X181645913Y-111929520D01*
X181562075Y-111881116D01*
X181554589Y-111876794D01*
X181554588Y-111876793D01*
X181554587Y-111876793D01*
X181452727Y-111849500D01*
X181347273Y-111849500D01*
X181245413Y-111876793D01*
X181245410Y-111876794D01*
X181154085Y-111929521D01*
X181079521Y-112004085D01*
X181026794Y-112095410D01*
X181026793Y-112095413D01*
X180999500Y-112197273D01*
X180999500Y-112302727D01*
X181024326Y-112395378D01*
X181026793Y-112404586D01*
X181026794Y-112404589D01*
X181028470Y-112407492D01*
X181079231Y-112495413D01*
X181079521Y-112495914D01*
X181081651Y-112498690D01*
X181082718Y-112501452D01*
X181083584Y-112502951D01*
X181083350Y-112503085D01*
X181106842Y-112563860D01*
X181092800Y-112632304D01*
X181045276Y-112681555D01*
X181029120Y-112690883D01*
X180954555Y-112765448D01*
X180901828Y-112856773D01*
X180901827Y-112856776D01*
X180874534Y-112958636D01*
X180600500Y-112958636D01*
X180600500Y-111682173D01*
X180600499Y-111682170D01*
X180596551Y-111672639D01*
X180562364Y-111590103D01*
X180561312Y-111589051D01*
X180559752Y-111586195D01*
X180555579Y-111579949D01*
X180556137Y-111579575D01*
X180527827Y-111527728D01*
X180532811Y-111458036D01*
X180574683Y-111402103D01*
X180586973Y-111393995D01*
X180623467Y-111372926D01*
X180698034Y-111298359D01*
X180750761Y-111207033D01*
X180756585Y-111185294D01*
X180792948Y-111125635D01*
X180855795Y-111095104D01*
X180925170Y-111103398D01*
X180979049Y-111147882D01*
X180996944Y-111194998D01*
X180997397Y-111194877D01*
X180998590Y-111199332D01*
X180999299Y-111201197D01*
X180999500Y-111202725D01*
X180999500Y-111202727D01*
X181026793Y-111304587D01*
X181079520Y-111395913D01*
X181154087Y-111470480D01*
X181245413Y-111523207D01*
X181347273Y-111550500D01*
X181347275Y-111550500D01*
X181452725Y-111550500D01*
X181452727Y-111550500D01*
X181554587Y-111523207D01*
X181645913Y-111470480D01*
X181720480Y-111395913D01*
X181773207Y-111304587D01*
X181800500Y-111202727D01*
X181800500Y-111097273D01*
X181773207Y-110995413D01*
X181720480Y-110904087D01*
X181645913Y-110829520D01*
X181579059Y-110790922D01*
X181554589Y-110776794D01*
X181554588Y-110776793D01*
X181554587Y-110776793D01*
X181452727Y-110749500D01*
X181347273Y-110749500D01*
X181245413Y-110776793D01*
X181245412Y-110776793D01*
X181214499Y-110794641D01*
X181208597Y-110796072D01*
X181204011Y-110800047D01*
X181175040Y-110804212D01*
X181146598Y-110811112D01*
X181140862Y-110809126D01*
X181134853Y-110809991D01*
X181108229Y-110797832D01*
X181080572Y-110788260D01*
X181076819Y-110783487D01*
X181071297Y-110780966D01*
X181055473Y-110756343D01*
X181037382Y-110733338D01*
X181035965Y-110725988D01*
X181033523Y-110722188D01*
X181028500Y-110687253D01*
X181028500Y-110512746D01*
X181048185Y-110445707D01*
X181100989Y-110399952D01*
X181170147Y-110390008D01*
X181214496Y-110405357D01*
X181245413Y-110423207D01*
X181347273Y-110450500D01*
X181347275Y-110450500D01*
X181452725Y-110450500D01*
X181452727Y-110450500D01*
X181554587Y-110423207D01*
X181645913Y-110370480D01*
X181720480Y-110295913D01*
X181773207Y-110204587D01*
X181800500Y-110102727D01*
X181800500Y-109997273D01*
X181773207Y-109895413D01*
X181720480Y-109804087D01*
X181686819Y-109770426D01*
X181653334Y-109709103D01*
X181650500Y-109682745D01*
X181650500Y-106401920D01*
X181670185Y-106334881D01*
X181686819Y-106314239D01*
X181948829Y-106052229D01*
X182217564Y-105783494D01*
X182255700Y-105691425D01*
X182255700Y-105591769D01*
X182255700Y-105070842D01*
X182275385Y-105003803D01*
X182328189Y-104958048D01*
X182397347Y-104948104D01*
X182407856Y-104950260D01*
X182409671Y-104950499D01*
X182409673Y-104950500D01*
X182409675Y-104950500D01*
X182515125Y-104950500D01*
X182515127Y-104950500D01*
X182616987Y-104923207D01*
X182616997Y-104923201D01*
X182622999Y-104920716D01*
X182692469Y-104913248D01*
X182754948Y-104944524D01*
X182790600Y-105004613D01*
X182794451Y-105035278D01*
X182794451Y-109599921D01*
X182774766Y-109666960D01*
X182721962Y-109712715D01*
X182652804Y-109722659D01*
X182623007Y-109714486D01*
X182616989Y-109711994D01*
X182616988Y-109711993D01*
X182616987Y-109711993D01*
X182515127Y-109684700D01*
X182409673Y-109684700D01*
X182307813Y-109711993D01*
X182307810Y-109711994D01*
X182216485Y-109764721D01*
X182141921Y-109839285D01*
X182089194Y-109930610D01*
X182089193Y-109930613D01*
X182061900Y-110032473D01*
X182061900Y-110137927D01*
X182089193Y-110239787D01*
X182141920Y-110331113D01*
X182216487Y-110405680D01*
X182307813Y-110458407D01*
X182409673Y-110485700D01*
X182409675Y-110485700D01*
X182515125Y-110485700D01*
X182515127Y-110485700D01*
X182616987Y-110458407D01*
X182616997Y-110458401D01*
X182622999Y-110455916D01*
X182692469Y-110448448D01*
X182754948Y-110479724D01*
X182790600Y-110539813D01*
X182794451Y-110570478D01*
X182794451Y-111342843D01*
X182774766Y-111409882D01*
X182758132Y-111430524D01*
X182729521Y-111459134D01*
X182676794Y-111550459D01*
X182676793Y-111550462D01*
X182649500Y-111652322D01*
X182649500Y-111757776D01*
X182676793Y-111859636D01*
X182729520Y-111950962D01*
X182804087Y-112025529D01*
X182895413Y-112078256D01*
X182997273Y-112105549D01*
X182997275Y-112105549D01*
X183102725Y-112105549D01*
X183102727Y-112105549D01*
X183204587Y-112078256D01*
X183295913Y-112025529D01*
X183370480Y-111950962D01*
X183423207Y-111859636D01*
X183450500Y-111757776D01*
X183450500Y-111652322D01*
X183423207Y-111550462D01*
X183370480Y-111459136D01*
X183359820Y-111448476D01*
X183331769Y-111420424D01*
X183298284Y-111359101D01*
X183295451Y-111332744D01*
X183295451Y-109758021D01*
X183315136Y-109690982D01*
X183367940Y-109645227D01*
X183437098Y-109635283D01*
X183451536Y-109638244D01*
X183497273Y-109650500D01*
X183497275Y-109650500D01*
X183602725Y-109650500D01*
X183602727Y-109650500D01*
X183704587Y-109623207D01*
X183714001Y-109617771D01*
X183781895Y-109601297D01*
X183847923Y-109624145D01*
X183891117Y-109679064D01*
X183900002Y-109725157D01*
X183900000Y-111534184D01*
X183900000Y-111950000D01*
X186300000Y-111950020D01*
X186300000Y-111950019D01*
X186300000Y-110974954D01*
X186319685Y-110907915D01*
X186372489Y-110862160D01*
X186423532Y-110850955D01*
X186975215Y-110848878D01*
X187042327Y-110868310D01*
X187088281Y-110920941D01*
X187099681Y-110972885D01*
X187099540Y-113075019D01*
X187099540Y-113075020D01*
X187450000Y-113075010D01*
X187450000Y-102525010D01*
X187099890Y-102525010D01*
X187099890Y-104726001D01*
X187080205Y-104793040D01*
X187027401Y-104838795D01*
X186975892Y-104850001D01*
X186424010Y-104850008D01*
X186356970Y-104830324D01*
X186311214Y-104777521D01*
X186300008Y-104726013D01*
X186300000Y-103750030D01*
X183924498Y-103749990D01*
X183857459Y-103730304D01*
X183811705Y-103677500D01*
X183800500Y-103625990D01*
X183800500Y-101978973D01*
X183800499Y-101978970D01*
X183793644Y-101962421D01*
X183762364Y-101886903D01*
X183712019Y-101836558D01*
X183678534Y-101775235D01*
X183675700Y-101748877D01*
X183675700Y-101701275D01*
X183675700Y-101701273D01*
X183648407Y-101599413D01*
X183595680Y-101508087D01*
X183521113Y-101433520D01*
X183429787Y-101380793D01*
X183327927Y-101353500D01*
X183222473Y-101353500D01*
X183120613Y-101380793D01*
X183120610Y-101380794D01*
X183029285Y-101433521D01*
X182954721Y-101508085D01*
X182901994Y-101599410D01*
X182901993Y-101599413D01*
X182874700Y-101701273D01*
X182874700Y-101806727D01*
X182901668Y-101907372D01*
X182901993Y-101908586D01*
X182901994Y-101908589D01*
X182907888Y-101918798D01*
X182954720Y-101999913D01*
X183029287Y-102074480D01*
X183120613Y-102127207D01*
X183207595Y-102150513D01*
X183267253Y-102186876D01*
X183297783Y-102249723D01*
X183299500Y-102270287D01*
X183299500Y-103613877D01*
X183293261Y-103635122D01*
X183291682Y-103657211D01*
X183283609Y-103667994D01*
X183279815Y-103680916D01*
X183263081Y-103695415D01*
X183249810Y-103713144D01*
X183237189Y-103717851D01*
X183227011Y-103726671D01*
X183205093Y-103729822D01*
X183184346Y-103737561D01*
X183171185Y-103734698D01*
X183157853Y-103736615D01*
X183137709Y-103727415D01*
X183116073Y-103722709D01*
X183098347Y-103709440D01*
X183094297Y-103707590D01*
X183087819Y-103701558D01*
X182936819Y-103550558D01*
X182903334Y-103489235D01*
X182900500Y-103462877D01*
X182900500Y-103397275D01*
X182900500Y-103397273D01*
X182873207Y-103295413D01*
X182820480Y-103204087D01*
X182745913Y-103129520D01*
X182654587Y-103076793D01*
X182552727Y-103049500D01*
X182447273Y-103049500D01*
X182411792Y-103059006D01*
X182341943Y-103057344D01*
X182284081Y-103018181D01*
X182256577Y-102953953D01*
X182255700Y-102939232D01*
X182255700Y-101387502D01*
X182275385Y-101320463D01*
X182328189Y-101274708D01*
X182347596Y-101267730D01*
X182362987Y-101263607D01*
X182454313Y-101210880D01*
X182528880Y-101136313D01*
X182581607Y-101044987D01*
X182608900Y-100943127D01*
X182608900Y-100837673D01*
X182581607Y-100735813D01*
X182528880Y-100644487D01*
X182454313Y-100569920D01*
X182362987Y-100517193D01*
X182261127Y-100489900D01*
X182155673Y-100489900D01*
X182053813Y-100517193D01*
X182053810Y-100517194D01*
X181962485Y-100569921D01*
X181887921Y-100644485D01*
X181835194Y-100735810D01*
X181835193Y-100735813D01*
X181807900Y-100837673D01*
X181807900Y-100891543D01*
X181793977Y-100938956D01*
X181797510Y-100940420D01*
X181792836Y-100951702D01*
X181792836Y-100951703D01*
X181787224Y-100965251D01*
X181754700Y-101043770D01*
X181754700Y-104077554D01*
X181735015Y-104144593D01*
X181682211Y-104190348D01*
X181613053Y-104200292D01*
X181568700Y-104184941D01*
X181554589Y-104176794D01*
X181554588Y-104176793D01*
X181554587Y-104176793D01*
X181452727Y-104149500D01*
X181347273Y-104149500D01*
X181245413Y-104176793D01*
X181245412Y-104176793D01*
X181214499Y-104194641D01*
X181146598Y-104211112D01*
X181080572Y-104188260D01*
X181037382Y-104133338D01*
X181028500Y-104087253D01*
X181028500Y-99921361D01*
X181048185Y-99854322D01*
X181064819Y-99833680D01*
X181394414Y-99504085D01*
X181725968Y-99172531D01*
X181764104Y-99080462D01*
X181764104Y-98980806D01*
X181764104Y-98483410D01*
X181725968Y-98391341D01*
X181655501Y-98320874D01*
X181384622Y-98049995D01*
X181369918Y-98023067D01*
X181353326Y-97997249D01*
X181352434Y-97991048D01*
X181351137Y-97988672D01*
X181348303Y-97962314D01*
X181348303Y-97765058D01*
X181367988Y-97698019D01*
X181384622Y-97677377D01*
X181418283Y-97643716D01*
X181471010Y-97552390D01*
X181498303Y-97450530D01*
X181498303Y-97345076D01*
X181471010Y-97243216D01*
X181418283Y-97151890D01*
X181350716Y-97084323D01*
X183668158Y-97084323D01*
X183668158Y-97235855D01*
X183687767Y-97309039D01*
X183707377Y-97382225D01*
X183745260Y-97447839D01*
X183783143Y-97513454D01*
X183890293Y-97620604D01*
X183997290Y-97682379D01*
X184021519Y-97696368D01*
X184021523Y-97696370D01*
X184167892Y-97735589D01*
X184167894Y-97735589D01*
X184319422Y-97735589D01*
X184319424Y-97735589D01*
X184465793Y-97696370D01*
X184597023Y-97620604D01*
X184704173Y-97513454D01*
X184779939Y-97382224D01*
X184819158Y-97235855D01*
X184819158Y-97084323D01*
X184779939Y-96937954D01*
X184704173Y-96806724D01*
X184597023Y-96699574D01*
X184531408Y-96661691D01*
X184465794Y-96623808D01*
X184349911Y-96592758D01*
X184319424Y-96584589D01*
X184167892Y-96584589D01*
X184021521Y-96623808D01*
X183890293Y-96699574D01*
X183890290Y-96699576D01*
X183783145Y-96806721D01*
X183783143Y-96806724D01*
X183707377Y-96937952D01*
X183684161Y-97024597D01*
X183668158Y-97084323D01*
X181350716Y-97084323D01*
X181343716Y-97077323D01*
X181252390Y-97024596D01*
X181150530Y-96997303D01*
X181045076Y-96997303D01*
X180943216Y-97024596D01*
X180943213Y-97024597D01*
X180851888Y-97077324D01*
X180777324Y-97151888D01*
X180724597Y-97243213D01*
X180724596Y-97243216D01*
X180697303Y-97345076D01*
X180697303Y-97450530D01*
X180724596Y-97552390D01*
X180763979Y-97620604D01*
X180777324Y-97643717D01*
X180810984Y-97677377D01*
X180844469Y-97738700D01*
X180847303Y-97765058D01*
X180847303Y-98167266D01*
X180885439Y-98259334D01*
X181226785Y-98600680D01*
X181241488Y-98627607D01*
X181258081Y-98653426D01*
X181258972Y-98659626D01*
X181260270Y-98662003D01*
X181263104Y-98688361D01*
X181263104Y-98875511D01*
X181243419Y-98942550D01*
X181226785Y-98963192D01*
X180565637Y-99624339D01*
X180565636Y-99624340D01*
X180527500Y-99716408D01*
X180527500Y-104347077D01*
X180507815Y-104414116D01*
X180455011Y-104459871D01*
X180385853Y-104469815D01*
X180322297Y-104440790D01*
X180315819Y-104434758D01*
X177974488Y-102093427D01*
X177941003Y-102032104D01*
X177945987Y-101962412D01*
X177987859Y-101906479D01*
X178030073Y-101885972D01*
X178104587Y-101866007D01*
X178195913Y-101813280D01*
X178270480Y-101738713D01*
X178323207Y-101647387D01*
X178350500Y-101545527D01*
X178350500Y-101479273D01*
X178639500Y-101479273D01*
X178639500Y-101584727D01*
X178656290Y-101647386D01*
X178666793Y-101686586D01*
X178666794Y-101686589D01*
X178676946Y-101704172D01*
X178719520Y-101777913D01*
X178794087Y-101852480D01*
X178885413Y-101905207D01*
X178987273Y-101932500D01*
X178987275Y-101932500D01*
X179092725Y-101932500D01*
X179092727Y-101932500D01*
X179194587Y-101905207D01*
X179285913Y-101852480D01*
X179360480Y-101777913D01*
X179413207Y-101686587D01*
X179440500Y-101584727D01*
X179440500Y-101479273D01*
X179413207Y-101377413D01*
X179360480Y-101286087D01*
X179285913Y-101211520D01*
X179218018Y-101172321D01*
X179194589Y-101158794D01*
X179194588Y-101158793D01*
X179194587Y-101158793D01*
X179092727Y-101131500D01*
X178987273Y-101131500D01*
X178885413Y-101158793D01*
X178885410Y-101158794D01*
X178794085Y-101211521D01*
X178719521Y-101286085D01*
X178666794Y-101377410D01*
X178666793Y-101377413D01*
X178639500Y-101479273D01*
X178350500Y-101479273D01*
X178350500Y-101440073D01*
X178323207Y-101338213D01*
X178270480Y-101246887D01*
X178195913Y-101172320D01*
X178104587Y-101119593D01*
X178002727Y-101092300D01*
X178002726Y-101092300D01*
X177955123Y-101092300D01*
X177888084Y-101072615D01*
X177867442Y-101055981D01*
X177641897Y-100830436D01*
X177549829Y-100792300D01*
X177549828Y-100792300D01*
X176813431Y-100792300D01*
X176713775Y-100792300D01*
X176713773Y-100792300D01*
X176621705Y-100830436D01*
X176137637Y-101314504D01*
X176130851Y-101324661D01*
X176129066Y-101323468D01*
X176095216Y-101365472D01*
X176028921Y-101387534D01*
X175961223Y-101370253D01*
X175913614Y-101319114D01*
X175900500Y-101263613D01*
X175900500Y-100117255D01*
X175920185Y-100050216D01*
X175936819Y-100029574D01*
X175970480Y-99995913D01*
X176023207Y-99904587D01*
X176050500Y-99802727D01*
X176050500Y-99697273D01*
X176023207Y-99595413D01*
X175970480Y-99504087D01*
X175895913Y-99429520D01*
X175804587Y-99376793D01*
X175702727Y-99349500D01*
X175597273Y-99349500D01*
X175547125Y-99362937D01*
X175477275Y-99361274D01*
X175419412Y-99322111D01*
X175395258Y-99275257D01*
X175373206Y-99192956D01*
X175320479Y-99101630D01*
X175245912Y-99027063D01*
X175179058Y-98988465D01*
X175154588Y-98974337D01*
X175154587Y-98974336D01*
X175154586Y-98974336D01*
X175052726Y-98947043D01*
X174947272Y-98947043D01*
X174845412Y-98974336D01*
X174845409Y-98974337D01*
X174754084Y-99027064D01*
X174679520Y-99101628D01*
X174626793Y-99192953D01*
X174626792Y-99192956D01*
X174599499Y-99294816D01*
X174599499Y-99400270D01*
X174626792Y-99502130D01*
X174679519Y-99593456D01*
X174754086Y-99668023D01*
X174831088Y-99712480D01*
X174879303Y-99763046D01*
X174893087Y-99819866D01*
X174893087Y-100251290D01*
X174873402Y-100318329D01*
X174856768Y-100338971D01*
X174774637Y-100421101D01*
X174774636Y-100421102D01*
X174736500Y-100513170D01*
X174736500Y-101295479D01*
X174731556Y-101312313D01*
X174731639Y-101329856D01*
X174721917Y-101345139D01*
X174716815Y-101362518D01*
X174703558Y-101374005D01*
X174694141Y-101388811D01*
X174677697Y-101396413D01*
X174664011Y-101408273D01*
X174646516Y-101410830D01*
X174630722Y-101418133D01*
X174606168Y-101416728D01*
X174595428Y-101418298D01*
X174587824Y-101417241D01*
X174539527Y-101404300D01*
X174494724Y-101404300D01*
X174486228Y-101403119D01*
X174461883Y-101392138D01*
X174436261Y-101384615D01*
X174430524Y-101377994D01*
X174422537Y-101374392D01*
X174407991Y-101351990D01*
X174390506Y-101331811D01*
X174388297Y-101321659D01*
X174384488Y-101315792D01*
X174384432Y-101303891D01*
X174379300Y-101280300D01*
X174379300Y-101193275D01*
X174379300Y-101193273D01*
X174352007Y-101091413D01*
X174299280Y-101000087D01*
X174224713Y-100925520D01*
X174147763Y-100881093D01*
X174133389Y-100872794D01*
X174133388Y-100872793D01*
X174133387Y-100872793D01*
X174031527Y-100845500D01*
X173926073Y-100845500D01*
X173824213Y-100872793D01*
X173824210Y-100872794D01*
X173732885Y-100925521D01*
X173658321Y-101000085D01*
X173605594Y-101091410D01*
X173605593Y-101091413D01*
X173578300Y-101193273D01*
X173578300Y-101298727D01*
X173591981Y-101349787D01*
X173592121Y-101350307D01*
X173591921Y-101358698D01*
X173595307Y-101366380D01*
X173591102Y-101393107D01*
X173590458Y-101420157D01*
X173585752Y-101427109D01*
X173584448Y-101435401D01*
X173566460Y-101455612D01*
X173551295Y-101478019D01*
X173542372Y-101482678D01*
X173537998Y-101487594D01*
X173521902Y-101493368D01*
X173505702Y-101501829D01*
X173491126Y-101505900D01*
X173484276Y-101505900D01*
X173382416Y-101533193D01*
X173372120Y-101539137D01*
X173357033Y-101543351D01*
X173337111Y-101543087D01*
X173317747Y-101547780D01*
X173302890Y-101542634D01*
X173287169Y-101542426D01*
X173270552Y-101531433D01*
X173251725Y-101524912D01*
X173235996Y-101511603D01*
X173157914Y-101433521D01*
X173157913Y-101433520D01*
X173066587Y-101380793D01*
X172964727Y-101353500D01*
X172859273Y-101353500D01*
X172757413Y-101380793D01*
X172757410Y-101380794D01*
X172666085Y-101433521D01*
X172591521Y-101508085D01*
X172538794Y-101599410D01*
X172538793Y-101599413D01*
X172511500Y-101701273D01*
X172511500Y-101806727D01*
X172538468Y-101907372D01*
X172538793Y-101908586D01*
X172538794Y-101908589D01*
X172544688Y-101918798D01*
X172591520Y-101999913D01*
X172666087Y-102074480D01*
X172757413Y-102127207D01*
X172859273Y-102154500D01*
X172859275Y-102154500D01*
X172875500Y-102154500D01*
X172942539Y-102174185D01*
X172988294Y-102226989D01*
X172999500Y-102278500D01*
X172999500Y-106527428D01*
X172979815Y-106594467D01*
X172927011Y-106640222D01*
X172859316Y-106650367D01*
X172852730Y-106649500D01*
X172852727Y-106649500D01*
X172747273Y-106649500D01*
X172645413Y-106676793D01*
X172645410Y-106676794D01*
X172554085Y-106729521D01*
X172479521Y-106804085D01*
X172426794Y-106895410D01*
X172426793Y-106895413D01*
X172399500Y-106997273D01*
X172399500Y-107102727D01*
X172426659Y-107204085D01*
X172426793Y-107204586D01*
X172426794Y-107204589D01*
X172437622Y-107223343D01*
X172479520Y-107295913D01*
X172554087Y-107370480D01*
X172645413Y-107423207D01*
X172747273Y-107450500D01*
X172747275Y-107450500D01*
X172852725Y-107450500D01*
X172852727Y-107450500D01*
X172852728Y-107450499D01*
X172859308Y-107449633D01*
X172876211Y-107452268D01*
X172893147Y-107449833D01*
X172910019Y-107457538D01*
X172928344Y-107460395D01*
X172941139Y-107471750D01*
X172956703Y-107478858D01*
X172966731Y-107494462D01*
X172980602Y-107506772D01*
X172985417Y-107523539D01*
X172994477Y-107537636D01*
X172999500Y-107572571D01*
X172999500Y-107720613D01*
X172979815Y-107787652D01*
X172963181Y-107808294D01*
X171737638Y-109033836D01*
X171737637Y-109033837D01*
X171699501Y-109125905D01*
X171699501Y-109141143D01*
X171679816Y-109208182D01*
X171663182Y-109228824D01*
X171630740Y-109261265D01*
X171578013Y-109352590D01*
X171578012Y-109352593D01*
X171550719Y-109454453D01*
X171550719Y-109559907D01*
X171576492Y-109656092D01*
X171578012Y-109661766D01*
X171578013Y-109661769D01*
X171584474Y-109672959D01*
X171630739Y-109753093D01*
X171705306Y-109827660D01*
X171796632Y-109880387D01*
X171898492Y-109907680D01*
X171898494Y-109907680D01*
X172003944Y-109907680D01*
X172003946Y-109907680D01*
X172105806Y-109880387D01*
X172197132Y-109827660D01*
X172271699Y-109753093D01*
X172324426Y-109661767D01*
X172351719Y-109559907D01*
X172351719Y-109454453D01*
X172324426Y-109352593D01*
X172299883Y-109310083D01*
X172283411Y-109242187D01*
X172306263Y-109176160D01*
X172319578Y-109160418D01*
X172440618Y-109039378D01*
X172501938Y-109005896D01*
X172571630Y-109010880D01*
X172627563Y-109052752D01*
X172651980Y-109118216D01*
X172652296Y-109127062D01*
X172652296Y-112479039D01*
X172648071Y-112511132D01*
X172644398Y-112524841D01*
X172624990Y-112597273D01*
X172624990Y-112702727D01*
X172652283Y-112804587D01*
X172705010Y-112895913D01*
X172779577Y-112970480D01*
X172791269Y-112977230D01*
X172839483Y-113027795D01*
X172852707Y-113096402D01*
X172826739Y-113161267D01*
X172816950Y-113172297D01*
X172490703Y-113498545D01*
X172420237Y-113569010D01*
X172420236Y-113569011D01*
X172382100Y-113661079D01*
X172382100Y-113824889D01*
X172362415Y-113891928D01*
X172309611Y-113937683D01*
X172240453Y-113947627D01*
X172196100Y-113932276D01*
X172192714Y-113930321D01*
X172192713Y-113930320D01*
X172114973Y-113885437D01*
X172101389Y-113877594D01*
X172101388Y-113877593D01*
X172101387Y-113877593D01*
X171999527Y-113850300D01*
X171894073Y-113850300D01*
X171792213Y-113877593D01*
X171792210Y-113877594D01*
X171700885Y-113930321D01*
X171626321Y-114004885D01*
X171573594Y-114096210D01*
X171573593Y-114096213D01*
X171546300Y-114198073D01*
X169504900Y-114198073D01*
X169504900Y-111294326D01*
X169524585Y-111227287D01*
X169541219Y-111206645D01*
X169700591Y-111047273D01*
X170299500Y-111047273D01*
X170299500Y-111152727D01*
X170314051Y-111207030D01*
X170326793Y-111254586D01*
X170326794Y-111254589D01*
X170338440Y-111274761D01*
X170379520Y-111345913D01*
X170454087Y-111420480D01*
X170545413Y-111473207D01*
X170647273Y-111500500D01*
X170647275Y-111500500D01*
X170752725Y-111500500D01*
X170752727Y-111500500D01*
X170854587Y-111473207D01*
X170945913Y-111420480D01*
X171020480Y-111345913D01*
X171073207Y-111254587D01*
X171100500Y-111152727D01*
X171100500Y-111047273D01*
X171073207Y-110945413D01*
X171020480Y-110854087D01*
X170945913Y-110779520D01*
X170856667Y-110727994D01*
X170854589Y-110726794D01*
X170854588Y-110726793D01*
X170854587Y-110726793D01*
X170752727Y-110699500D01*
X170647273Y-110699500D01*
X170545413Y-110726793D01*
X170545410Y-110726794D01*
X170454085Y-110779521D01*
X170379521Y-110854085D01*
X170326794Y-110945410D01*
X170326793Y-110945413D01*
X170299500Y-111047273D01*
X169700591Y-111047273D01*
X169796399Y-110951465D01*
X170302157Y-110445707D01*
X170852364Y-109895500D01*
X170890500Y-109803431D01*
X170890500Y-109703776D01*
X170890500Y-107627281D01*
X170910185Y-107560242D01*
X170962989Y-107514487D01*
X171032147Y-107504543D01*
X171095703Y-107533568D01*
X171133477Y-107592346D01*
X171134265Y-107595154D01*
X171136659Y-107604087D01*
X171136793Y-107604587D01*
X171136794Y-107604589D01*
X171149895Y-107627281D01*
X171189520Y-107695913D01*
X171264087Y-107770480D01*
X171355413Y-107823207D01*
X171457273Y-107850500D01*
X171457275Y-107850500D01*
X171562725Y-107850500D01*
X171562727Y-107850500D01*
X171664587Y-107823207D01*
X171755913Y-107770480D01*
X171830480Y-107695913D01*
X171883207Y-107604587D01*
X171910500Y-107502727D01*
X171910500Y-107397273D01*
X171883207Y-107295413D01*
X171830480Y-107204087D01*
X171755913Y-107129520D01*
X171689059Y-107090922D01*
X171664589Y-107076794D01*
X171664588Y-107076793D01*
X171664587Y-107076793D01*
X171562727Y-107049500D01*
X171457273Y-107049500D01*
X171355413Y-107076793D01*
X171355410Y-107076794D01*
X171264085Y-107129521D01*
X171189521Y-107204085D01*
X171136794Y-107295410D01*
X171136793Y-107295411D01*
X171134275Y-107304812D01*
X171097909Y-107364473D01*
X171035062Y-107395001D01*
X170965686Y-107386706D01*
X170911809Y-107342220D01*
X170890535Y-107275668D01*
X170890500Y-107272718D01*
X170890500Y-104949491D01*
X170910185Y-104882452D01*
X170962989Y-104836697D01*
X170963954Y-104836261D01*
X170972920Y-104832258D01*
X171045399Y-104812838D01*
X171136725Y-104760111D01*
X171138487Y-104758348D01*
X171150050Y-104753187D01*
X171178544Y-104749338D01*
X171206495Y-104742557D01*
X171212741Y-104744718D01*
X171219291Y-104743834D01*
X171245346Y-104756003D01*
X171272523Y-104765409D01*
X171276608Y-104770604D01*
X171282596Y-104773401D01*
X171297935Y-104797724D01*
X171315713Y-104820330D01*
X171316341Y-104826908D01*
X171319867Y-104832499D01*
X171319621Y-104861256D01*
X171322355Y-104889883D01*
X171320371Y-104898510D01*
X171319593Y-104901412D01*
X171319593Y-104901413D01*
X171292300Y-105003273D01*
X171292300Y-105108727D01*
X171319593Y-105210587D01*
X171372320Y-105301913D01*
X171446887Y-105376480D01*
X171538213Y-105429207D01*
X171640073Y-105456500D01*
X171640075Y-105456500D01*
X171745525Y-105456500D01*
X171745527Y-105456500D01*
X171847387Y-105429207D01*
X171938713Y-105376480D01*
X172013280Y-105301913D01*
X172066007Y-105210587D01*
X172093300Y-105108727D01*
X172093300Y-105003273D01*
X172066007Y-104901413D01*
X172013280Y-104810087D01*
X171938713Y-104735520D01*
X171847387Y-104682793D01*
X171745527Y-104655500D01*
X171640073Y-104655500D01*
X171538213Y-104682793D01*
X171538212Y-104682793D01*
X171445014Y-104736601D01*
X171427315Y-104740894D01*
X171411490Y-104749899D01*
X171394071Y-104748959D01*
X171377114Y-104753073D01*
X171359902Y-104747115D01*
X171341722Y-104746135D01*
X171327576Y-104735927D01*
X171311087Y-104730220D01*
X171299830Y-104715905D01*
X171285064Y-104705250D01*
X171278681Y-104689012D01*
X171267897Y-104675298D01*
X171266166Y-104657170D01*
X171259505Y-104640223D01*
X171261904Y-104612534D01*
X171261256Y-104605745D01*
X171261406Y-104604980D01*
X171263303Y-104595456D01*
X171264019Y-104594218D01*
X171291312Y-104492358D01*
X171291312Y-104454903D01*
X171293703Y-104442905D01*
X171304462Y-104422352D01*
X171310997Y-104400099D01*
X171320360Y-104391985D01*
X171326109Y-104381005D01*
X171346273Y-104369532D01*
X171363801Y-104354344D01*
X171376066Y-104352580D01*
X171386837Y-104346452D01*
X171409997Y-104347701D01*
X171432959Y-104344400D01*
X171448499Y-104349778D01*
X171456605Y-104350216D01*
X171462910Y-104354766D01*
X171477309Y-104359749D01*
X171500618Y-104373207D01*
X171602478Y-104400500D01*
X171602480Y-104400500D01*
X171707930Y-104400500D01*
X171707932Y-104400500D01*
X171809792Y-104373207D01*
X171901118Y-104320480D01*
X171975685Y-104245913D01*
X172028412Y-104154587D01*
X172055705Y-104052727D01*
X172055705Y-103947273D01*
X172028412Y-103845413D01*
X171975685Y-103754087D01*
X171901118Y-103679520D01*
X171809792Y-103626793D01*
X171707932Y-103599500D01*
X171602478Y-103599500D01*
X171500618Y-103626793D01*
X171500615Y-103626794D01*
X171409290Y-103679521D01*
X171334726Y-103754085D01*
X171281999Y-103845410D01*
X171281998Y-103845413D01*
X171254705Y-103947273D01*
X171254705Y-103972492D01*
X171235020Y-104039531D01*
X171182216Y-104085286D01*
X171113058Y-104095230D01*
X171101767Y-104093068D01*
X171084277Y-104088870D01*
X171045399Y-104066424D01*
X170943539Y-104039131D01*
X170877029Y-104039131D01*
X170862762Y-104035707D01*
X170844671Y-104025321D01*
X170824661Y-104019446D01*
X170814985Y-104008279D01*
X170802167Y-104000921D01*
X170792562Y-103982402D01*
X170778906Y-103966642D01*
X170774944Y-103948432D01*
X170769999Y-103938897D01*
X170770858Y-103929651D01*
X170767700Y-103915131D01*
X170767700Y-101559630D01*
X170787385Y-101492591D01*
X170840189Y-101446836D01*
X170891700Y-101435630D01*
X170927725Y-101435630D01*
X170927727Y-101435630D01*
X171029587Y-101408337D01*
X171120913Y-101355610D01*
X171195480Y-101281043D01*
X171248207Y-101189717D01*
X171275500Y-101087857D01*
X171275500Y-101087848D01*
X171276561Y-101079797D01*
X171277855Y-101079967D01*
X171295185Y-101020950D01*
X171347989Y-100975195D01*
X171417147Y-100965251D01*
X171480703Y-100994276D01*
X171518477Y-101053054D01*
X171519262Y-101055852D01*
X171529029Y-101092300D01*
X171538685Y-101128337D01*
X171538686Y-101128340D01*
X171546846Y-101142473D01*
X171591412Y-101219664D01*
X171665979Y-101294231D01*
X171757305Y-101346958D01*
X171859165Y-101374251D01*
X171859167Y-101374251D01*
X171964617Y-101374251D01*
X171964619Y-101374251D01*
X172066479Y-101346958D01*
X172157805Y-101294231D01*
X172232372Y-101219664D01*
X172285099Y-101128338D01*
X172298585Y-101078005D01*
X172334950Y-101018346D01*
X172397797Y-100987817D01*
X172418360Y-100986100D01*
X172456725Y-100986100D01*
X172456727Y-100986100D01*
X172558587Y-100958807D01*
X172649913Y-100906080D01*
X172724480Y-100831513D01*
X172777207Y-100740187D01*
X172804500Y-100638327D01*
X172804500Y-100532873D01*
X172777207Y-100431013D01*
X172724480Y-100339687D01*
X172649913Y-100265120D01*
X172558587Y-100212393D01*
X172456727Y-100185100D01*
X172351273Y-100185100D01*
X172249413Y-100212393D01*
X172249410Y-100212394D01*
X172158085Y-100265121D01*
X172083522Y-100339684D01*
X172083520Y-100339686D01*
X172083520Y-100339687D01*
X172073354Y-100357295D01*
X172037558Y-100419296D01*
X171986990Y-100467511D01*
X171918383Y-100480733D01*
X171853519Y-100454765D01*
X171812991Y-100397851D01*
X171806171Y-100357295D01*
X171806171Y-100252946D01*
X171806171Y-100252944D01*
X171778878Y-100151084D01*
X171726151Y-100059758D01*
X171651584Y-99985191D01*
X171560258Y-99932464D01*
X171458398Y-99905171D01*
X171352944Y-99905171D01*
X171251084Y-99932464D01*
X171251081Y-99932465D01*
X171159756Y-99985192D01*
X171085192Y-100059756D01*
X171032465Y-100151081D01*
X171032464Y-100151084D01*
X171005171Y-100252944D01*
X171005171Y-100358398D01*
X171021973Y-100421102D01*
X171032464Y-100460257D01*
X171033675Y-100463181D01*
X171033961Y-100465844D01*
X171034568Y-100468109D01*
X171034214Y-100468203D01*
X171041141Y-100532651D01*
X171009864Y-100595129D01*
X170949774Y-100630779D01*
X170919112Y-100634630D01*
X170822273Y-100634630D01*
X170720413Y-100661923D01*
X170720410Y-100661924D01*
X170629085Y-100714651D01*
X170554521Y-100789215D01*
X170501794Y-100880540D01*
X170498684Y-100888050D01*
X170495711Y-100886818D01*
X170467219Y-100933590D01*
X170404379Y-100964136D01*
X170403247Y-100964321D01*
X170393575Y-100965858D01*
X170292257Y-100965858D01*
X170190397Y-100993151D01*
X170178456Y-101000044D01*
X170156362Y-101003556D01*
X170135648Y-101000890D01*
X170114877Y-101003122D01*
X170101688Y-100996519D01*
X170087064Y-100994637D01*
X170071078Y-100981194D01*
X170052399Y-100971843D01*
X170044874Y-100959159D01*
X170033588Y-100949669D01*
X170027407Y-100929717D01*
X170016750Y-100911753D01*
X170013277Y-100884102D01*
X170012914Y-100882928D01*
X170013063Y-100882391D01*
X170012900Y-100881093D01*
X170012900Y-100597255D01*
X170032585Y-100530216D01*
X170049219Y-100509574D01*
X170082880Y-100475913D01*
X170135607Y-100384587D01*
X170162900Y-100282727D01*
X170162900Y-100177273D01*
X170135607Y-100075413D01*
X170082880Y-99984087D01*
X170008313Y-99909520D01*
X169916987Y-99856793D01*
X169815127Y-99829500D01*
X169709673Y-99829500D01*
X169607813Y-99856793D01*
X169607810Y-99856794D01*
X169516485Y-99909521D01*
X169441921Y-99984085D01*
X169389194Y-100075410D01*
X169389193Y-100075413D01*
X169361900Y-100177273D01*
X169361900Y-100282727D01*
X169389193Y-100384587D01*
X169437414Y-100468109D01*
X169441921Y-100475914D01*
X169475581Y-100509574D01*
X169509066Y-100570897D01*
X169511900Y-100597255D01*
X169511900Y-102007029D01*
X169550036Y-102099097D01*
X169625258Y-102174319D01*
X169658743Y-102235642D01*
X169653759Y-102305334D01*
X169625258Y-102349681D01*
X169333881Y-102641057D01*
X169333880Y-102641058D01*
X169295744Y-102733126D01*
X169295744Y-104079189D01*
X169276059Y-104146228D01*
X169223255Y-104191983D01*
X169154097Y-104201927D01*
X169090541Y-104172902D01*
X169084063Y-104166870D01*
X169043114Y-104125921D01*
X169043113Y-104125920D01*
X168972733Y-104085286D01*
X168951789Y-104073194D01*
X168951788Y-104073193D01*
X168951787Y-104073193D01*
X168849927Y-104045900D01*
X168816100Y-104045900D01*
X168749061Y-104026215D01*
X168703306Y-103973411D01*
X168692100Y-103921900D01*
X168692100Y-101562455D01*
X168711785Y-101495416D01*
X168728419Y-101474774D01*
X168762080Y-101441113D01*
X168814807Y-101349787D01*
X168842100Y-101247927D01*
X168842100Y-101142473D01*
X168814807Y-101040613D01*
X168762080Y-100949287D01*
X168687513Y-100874720D01*
X168596187Y-100821993D01*
X168494327Y-100794700D01*
X168388873Y-100794700D01*
X168287013Y-100821993D01*
X168287010Y-100821994D01*
X168195685Y-100874721D01*
X168121121Y-100949285D01*
X168068394Y-101040610D01*
X168068393Y-101040613D01*
X168041100Y-101142473D01*
X168041100Y-101247927D01*
X168068393Y-101349787D01*
X168117954Y-101435630D01*
X168121121Y-101441114D01*
X168154781Y-101474774D01*
X168188266Y-101536097D01*
X168191100Y-101562455D01*
X168191100Y-103736545D01*
X168171415Y-103803584D01*
X168118611Y-103849339D01*
X168049453Y-103859283D01*
X167985897Y-103830258D01*
X167979419Y-103824226D01*
X167925514Y-103770321D01*
X167925513Y-103770320D01*
X167834187Y-103717593D01*
X167732327Y-103690300D01*
X167626873Y-103690300D01*
X167525013Y-103717593D01*
X167525010Y-103717594D01*
X167433685Y-103770321D01*
X167359121Y-103844885D01*
X167306394Y-103936210D01*
X167306393Y-103936213D01*
X167279100Y-104038073D01*
X167279100Y-104143527D01*
X167306393Y-104245387D01*
X167359120Y-104336713D01*
X167433687Y-104411280D01*
X167525013Y-104464007D01*
X167626873Y-104491300D01*
X167626875Y-104491300D01*
X167732325Y-104491300D01*
X167732327Y-104491300D01*
X167834187Y-104464007D01*
X167925513Y-104411280D01*
X167981382Y-104355410D01*
X168042701Y-104321928D01*
X168112393Y-104326912D01*
X168168327Y-104368783D01*
X168190677Y-104418902D01*
X168191099Y-104421023D01*
X168191100Y-104421025D01*
X168191100Y-104421026D01*
X168214947Y-104478599D01*
X168229236Y-104513095D01*
X168374906Y-104658765D01*
X168396861Y-104667858D01*
X168409728Y-104673188D01*
X168438001Y-104684899D01*
X168468659Y-104697599D01*
X168468661Y-104697600D01*
X168508885Y-104724478D01*
X168551287Y-104766880D01*
X168642613Y-104819607D01*
X168744473Y-104846900D01*
X168744475Y-104846900D01*
X168799477Y-104846900D01*
X168866516Y-104866585D01*
X168912271Y-104919389D01*
X168922215Y-104988547D01*
X168893190Y-105052103D01*
X168887158Y-105058581D01*
X167112181Y-106833558D01*
X167050858Y-106867043D01*
X166981166Y-106862059D01*
X166925233Y-106820187D01*
X166900816Y-106754723D01*
X166900500Y-106745877D01*
X166900500Y-102455366D01*
X166920185Y-102388327D01*
X166936819Y-102367685D01*
X166959440Y-102345064D01*
X166985206Y-102319298D01*
X167037933Y-102227972D01*
X167065226Y-102126112D01*
X167065226Y-102020658D01*
X167037933Y-101918798D01*
X166985206Y-101827472D01*
X166910639Y-101752905D01*
X166826231Y-101704172D01*
X166819315Y-101700179D01*
X166819314Y-101700178D01*
X166819313Y-101700178D01*
X166717453Y-101672885D01*
X166611999Y-101672885D01*
X166510139Y-101700178D01*
X166510136Y-101700179D01*
X166418811Y-101752906D01*
X166344247Y-101827470D01*
X166291520Y-101918795D01*
X166291519Y-101918798D01*
X166264226Y-102020658D01*
X166264226Y-102126112D01*
X166291519Y-102227972D01*
X166337087Y-102306899D01*
X166344247Y-102319299D01*
X166363181Y-102338233D01*
X166396666Y-102399556D01*
X166399500Y-102425914D01*
X166399500Y-102969877D01*
X166393261Y-102991122D01*
X166391682Y-103013211D01*
X166383609Y-103023994D01*
X166379815Y-103036916D01*
X166363081Y-103051415D01*
X166349810Y-103069144D01*
X166337189Y-103073851D01*
X166327011Y-103082671D01*
X166305093Y-103085822D01*
X166284346Y-103093561D01*
X166271185Y-103090698D01*
X166257853Y-103092615D01*
X166237709Y-103083415D01*
X166216073Y-103078709D01*
X166198347Y-103065440D01*
X166194297Y-103063590D01*
X166187819Y-103057558D01*
X166033619Y-102903358D01*
X166000134Y-102842035D01*
X165997300Y-102815677D01*
X165997300Y-102768075D01*
X165997300Y-102768073D01*
X165970007Y-102666213D01*
X165917280Y-102574887D01*
X165842713Y-102500320D01*
X165751387Y-102447593D01*
X165649527Y-102420300D01*
X165544073Y-102420300D01*
X165442213Y-102447593D01*
X165442212Y-102447593D01*
X165423699Y-102458282D01*
X165355798Y-102474753D01*
X165289772Y-102451900D01*
X165246582Y-102396979D01*
X165237700Y-102350894D01*
X165237700Y-102262973D01*
X165237699Y-102262970D01*
X165230262Y-102245015D01*
X165199564Y-102170903D01*
X165129097Y-102100436D01*
X165017619Y-101988958D01*
X164984134Y-101927635D01*
X164981300Y-101901277D01*
X164981300Y-101853675D01*
X164981300Y-101853673D01*
X164954007Y-101751813D01*
X164901280Y-101660487D01*
X164826713Y-101585920D01*
X164735387Y-101533193D01*
X164633527Y-101505900D01*
X164528073Y-101505900D01*
X164426213Y-101533193D01*
X164426210Y-101533194D01*
X164334885Y-101585921D01*
X164260321Y-101660485D01*
X164207594Y-101751810D01*
X164207593Y-101751813D01*
X164180300Y-101853673D01*
X164180300Y-101959127D01*
X164207593Y-102060987D01*
X164260320Y-102152313D01*
X164334887Y-102226880D01*
X164426213Y-102279607D01*
X164528073Y-102306900D01*
X164575677Y-102306900D01*
X164605117Y-102315544D01*
X164635104Y-102322068D01*
X164640119Y-102325822D01*
X164642716Y-102326585D01*
X164663358Y-102343219D01*
X164700381Y-102380242D01*
X164733866Y-102441565D01*
X164736700Y-102467923D01*
X164736700Y-103800958D01*
X164717015Y-103867997D01*
X164664211Y-103913752D01*
X164595053Y-103923696D01*
X164531497Y-103894671D01*
X164505315Y-103862962D01*
X164494880Y-103844887D01*
X164420313Y-103770320D01*
X164328987Y-103717593D01*
X164227127Y-103690300D01*
X164121673Y-103690300D01*
X164019813Y-103717593D01*
X164019810Y-103717594D01*
X163928485Y-103770321D01*
X163896071Y-103802736D01*
X163834748Y-103836221D01*
X163765056Y-103831237D01*
X163720709Y-103802736D01*
X163644938Y-103726965D01*
X163644937Y-103726964D01*
X163578083Y-103688366D01*
X163553613Y-103674238D01*
X163553612Y-103674237D01*
X163553611Y-103674237D01*
X163451751Y-103646944D01*
X163346297Y-103646944D01*
X163244437Y-103674237D01*
X163244434Y-103674238D01*
X163153109Y-103726965D01*
X163078545Y-103801529D01*
X163025818Y-103892854D01*
X163025817Y-103892857D01*
X162998524Y-103994717D01*
X162998524Y-104100171D01*
X163025404Y-104200487D01*
X163025817Y-104202030D01*
X163025818Y-104202033D01*
X163039422Y-104225595D01*
X163078544Y-104293357D01*
X163153111Y-104367924D01*
X163244437Y-104420651D01*
X163346297Y-104447944D01*
X163346299Y-104447944D01*
X163451749Y-104447944D01*
X163451751Y-104447944D01*
X163553611Y-104420651D01*
X163644937Y-104367924D01*
X163677353Y-104335508D01*
X163738676Y-104302023D01*
X163808368Y-104307007D01*
X163852715Y-104335508D01*
X163853920Y-104336713D01*
X163928487Y-104411280D01*
X164019813Y-104464007D01*
X164121673Y-104491300D01*
X164146385Y-104491300D01*
X164213424Y-104510985D01*
X164259179Y-104563789D01*
X164270385Y-104615300D01*
X164270385Y-107183117D01*
X164250700Y-107250156D01*
X164197896Y-107295911D01*
X164151350Y-107307018D01*
X164132506Y-107307773D01*
X164112827Y-107302500D01*
X164007373Y-107302500D01*
X163962225Y-107314597D01*
X163948431Y-107315150D01*
X163927389Y-107309876D01*
X163905707Y-107309360D01*
X163894170Y-107301551D01*
X163880657Y-107298165D01*
X163865807Y-107282353D01*
X163847845Y-107270196D01*
X163839882Y-107254750D01*
X163832825Y-107247236D01*
X163831044Y-107237606D01*
X163823691Y-107223343D01*
X163821186Y-107213994D01*
X163821185Y-107213993D01*
X163815756Y-107204589D01*
X163768460Y-107122670D01*
X163727901Y-107082111D01*
X163694416Y-107020788D01*
X163699400Y-106951096D01*
X163708191Y-106932438D01*
X163751407Y-106857587D01*
X163778700Y-106755727D01*
X163778700Y-106650273D01*
X163751407Y-106548413D01*
X163698680Y-106457087D01*
X163624113Y-106382520D01*
X163532787Y-106329793D01*
X163430927Y-106302500D01*
X163325473Y-106302500D01*
X163223613Y-106329793D01*
X163223610Y-106329794D01*
X163132285Y-106382521D01*
X163057721Y-106457085D01*
X163004994Y-106548410D01*
X163004993Y-106548413D01*
X162977700Y-106650273D01*
X162977700Y-106755727D01*
X163004993Y-106857587D01*
X163046989Y-106930327D01*
X163057721Y-106948914D01*
X163098277Y-106989470D01*
X163131762Y-107050793D01*
X163126778Y-107120485D01*
X163117984Y-107139149D01*
X163074775Y-107213991D01*
X163074774Y-107213994D01*
X163074773Y-107213996D01*
X163047480Y-107315856D01*
X163047480Y-107421310D01*
X163074773Y-107523170D01*
X163121780Y-107604589D01*
X163127501Y-107614497D01*
X163161161Y-107648157D01*
X163175864Y-107675084D01*
X163192457Y-107700903D01*
X163193348Y-107707103D01*
X163194646Y-107709480D01*
X163197480Y-107735838D01*
X163197480Y-107896897D01*
X163177795Y-107963936D01*
X163161161Y-107984578D01*
X162239637Y-108906101D01*
X162239636Y-108906102D01*
X162201500Y-108998170D01*
X162201500Y-109516326D01*
X162236080Y-109599810D01*
X162239636Y-109608394D01*
X162437332Y-109806090D01*
X162613181Y-109981938D01*
X162646666Y-110043261D01*
X162649500Y-110069619D01*
X162649500Y-111814077D01*
X162629815Y-111881116D01*
X162613181Y-111901758D01*
X162377358Y-112137581D01*
X162318317Y-112170547D01*
X162304193Y-112173900D01*
X162242073Y-112173900D01*
X162140213Y-112201193D01*
X162105991Y-112220950D01*
X162088340Y-112225141D01*
X162070833Y-112224220D01*
X162053798Y-112228353D01*
X162036670Y-112222424D01*
X162018567Y-112221473D01*
X162004335Y-112211233D01*
X161987772Y-112205500D01*
X161976568Y-112191253D01*
X161961853Y-112180665D01*
X161955417Y-112164357D01*
X161944582Y-112150579D01*
X161939429Y-112123842D01*
X161936205Y-112115673D01*
X161937040Y-112111449D01*
X161935700Y-112104494D01*
X161935700Y-106422923D01*
X161955385Y-106355884D01*
X161972019Y-106335242D01*
X162227842Y-106079419D01*
X162289165Y-106045934D01*
X162315523Y-106043100D01*
X162359345Y-106043100D01*
X162426384Y-106062785D01*
X162447026Y-106079419D01*
X162480687Y-106113080D01*
X162572013Y-106165807D01*
X162673873Y-106193100D01*
X162673875Y-106193100D01*
X162779325Y-106193100D01*
X162779327Y-106193100D01*
X162881187Y-106165807D01*
X162972513Y-106113080D01*
X163047080Y-106038513D01*
X163099807Y-105947187D01*
X163127100Y-105845327D01*
X163127100Y-105739873D01*
X163099807Y-105638013D01*
X163047080Y-105546687D01*
X162972513Y-105472120D01*
X162881187Y-105419393D01*
X162779327Y-105392100D01*
X162673873Y-105392100D01*
X162572013Y-105419393D01*
X162572010Y-105419394D01*
X162480685Y-105472121D01*
X162447026Y-105505781D01*
X162385703Y-105539266D01*
X162359345Y-105542100D01*
X162110570Y-105542100D01*
X162018502Y-105580236D01*
X161472836Y-106125902D01*
X161434700Y-106217970D01*
X161434700Y-111212760D01*
X161415015Y-111279799D01*
X161362211Y-111325554D01*
X161293053Y-111335498D01*
X161229497Y-111306473D01*
X161203315Y-111274764D01*
X161192880Y-111256689D01*
X161118313Y-111182122D01*
X161026987Y-111129395D01*
X160925127Y-111102102D01*
X160819673Y-111102102D01*
X160717813Y-111129395D01*
X160717810Y-111129396D01*
X160626485Y-111182123D01*
X160551921Y-111256687D01*
X160499194Y-111348012D01*
X160499193Y-111348015D01*
X160471900Y-111449875D01*
X160471900Y-111555329D01*
X160499193Y-111657189D01*
X160545388Y-111737202D01*
X160551921Y-111748516D01*
X160585581Y-111782176D01*
X160619066Y-111843499D01*
X160621900Y-111869857D01*
X160621900Y-112876477D01*
X160602215Y-112943516D01*
X160585581Y-112964158D01*
X160406037Y-113143701D01*
X160406036Y-113143702D01*
X160367900Y-113235770D01*
X160367900Y-114950345D01*
X160348215Y-115017384D01*
X160331581Y-115038026D01*
X160297921Y-115071685D01*
X160245194Y-115163010D01*
X160245193Y-115163013D01*
X160217900Y-115264873D01*
X155889825Y-115264873D01*
X155637280Y-114692913D01*
X155635087Y-114687621D01*
X155532562Y-114422975D01*
X155338850Y-113922946D01*
X155336923Y-113917609D01*
X155076327Y-113140093D01*
X155074633Y-113134621D01*
X155058180Y-113076794D01*
X154850225Y-112345910D01*
X154848800Y-112340426D01*
X154661056Y-111542188D01*
X154659874Y-111536585D01*
X154621770Y-111332745D01*
X154509195Y-110730526D01*
X154508274Y-110724876D01*
X154508273Y-110724869D01*
X154394985Y-109912733D01*
X154394327Y-109907057D01*
X154394319Y-109906974D01*
X154318668Y-109090568D01*
X154318272Y-109084855D01*
X154316734Y-109051593D01*
X154315850Y-109032473D01*
X156460702Y-109032473D01*
X156460702Y-109137927D01*
X156485789Y-109231552D01*
X156487995Y-109239786D01*
X156487996Y-109239789D01*
X156492260Y-109247174D01*
X156540722Y-109331113D01*
X156615289Y-109405680D01*
X156706615Y-109458407D01*
X156808475Y-109485700D01*
X156808477Y-109485700D01*
X156913927Y-109485700D01*
X156913929Y-109485700D01*
X157015789Y-109458407D01*
X157107115Y-109405680D01*
X157181682Y-109331113D01*
X157234409Y-109239787D01*
X157261702Y-109137927D01*
X157261702Y-109032473D01*
X157234409Y-108930613D01*
X157181682Y-108839287D01*
X157107115Y-108764720D01*
X157015789Y-108711993D01*
X156913929Y-108684700D01*
X156808475Y-108684700D01*
X156706615Y-108711993D01*
X156706612Y-108711994D01*
X156615287Y-108764721D01*
X156540723Y-108839285D01*
X156487996Y-108930610D01*
X156487995Y-108930613D01*
X156460702Y-109032473D01*
X154315850Y-109032473D01*
X154280401Y-108265718D01*
X154280269Y-108259991D01*
X154280269Y-107440008D01*
X154280401Y-107434281D01*
X154282601Y-107386706D01*
X154318272Y-106615139D01*
X154318669Y-106609430D01*
X154319191Y-106603793D01*
X154394329Y-105792922D01*
X154394987Y-105787252D01*
X154414923Y-105644336D01*
X157273841Y-105644336D01*
X157273841Y-105749790D01*
X157299440Y-105845325D01*
X157301134Y-105851649D01*
X157301135Y-105851652D01*
X157313489Y-105873050D01*
X157353861Y-105942976D01*
X157428428Y-106017543D01*
X157519754Y-106070270D01*
X157621614Y-106097563D01*
X157621616Y-106097563D01*
X157727065Y-106097563D01*
X157727068Y-106097563D01*
X157773409Y-106085146D01*
X157843256Y-106086809D01*
X157901119Y-106125971D01*
X157928623Y-106190200D01*
X157929500Y-106204921D01*
X157929500Y-106465587D01*
X157909815Y-106532626D01*
X157857011Y-106578381D01*
X157787853Y-106588325D01*
X157773409Y-106585362D01*
X157740332Y-106576499D01*
X157740328Y-106576499D01*
X157634874Y-106576499D01*
X157533014Y-106603792D01*
X157533011Y-106603793D01*
X157441686Y-106656520D01*
X157367122Y-106731084D01*
X157314395Y-106822409D01*
X157314394Y-106822412D01*
X157287101Y-106924272D01*
X157287101Y-107029726D01*
X157313841Y-107129520D01*
X157314394Y-107131585D01*
X157314395Y-107131588D01*
X157327197Y-107153761D01*
X157367121Y-107222912D01*
X157441688Y-107297479D01*
X157533014Y-107350206D01*
X157634874Y-107377499D01*
X157634876Y-107377499D01*
X157740325Y-107377499D01*
X157740328Y-107377499D01*
X157773409Y-107368635D01*
X157843256Y-107370298D01*
X157901119Y-107409460D01*
X157928623Y-107473689D01*
X157929500Y-107488410D01*
X157929500Y-110998629D01*
X157967636Y-111090697D01*
X158124990Y-111248051D01*
X158158475Y-111309374D01*
X158157084Y-111367824D01*
X158135100Y-111449872D01*
X158135100Y-111449875D01*
X158135100Y-111555329D01*
X158162393Y-111657189D01*
X158215120Y-111748515D01*
X158289687Y-111823082D01*
X158381013Y-111875809D01*
X158482873Y-111903102D01*
X158482875Y-111903102D01*
X158588325Y-111903102D01*
X158588327Y-111903102D01*
X158690187Y-111875809D01*
X158781513Y-111823082D01*
X158856080Y-111748515D01*
X158908807Y-111657189D01*
X158936100Y-111555329D01*
X158936100Y-111449875D01*
X158908807Y-111348015D01*
X158856080Y-111256689D01*
X158781513Y-111182122D01*
X158781512Y-111182121D01*
X158762687Y-111171252D01*
X158737010Y-111151549D01*
X158711096Y-111125635D01*
X158677497Y-111092036D01*
X158466819Y-110881358D01*
X158433334Y-110820035D01*
X158430500Y-110793677D01*
X158430500Y-109372073D01*
X159049500Y-109372073D01*
X159049500Y-109477527D01*
X159076793Y-109579387D01*
X159129520Y-109670713D01*
X159204087Y-109745280D01*
X159295413Y-109798007D01*
X159390327Y-109823438D01*
X159449985Y-109859801D01*
X159480515Y-109922648D01*
X159472221Y-109992023D01*
X159445914Y-110030893D01*
X159383520Y-110093287D01*
X159330794Y-110184610D01*
X159330793Y-110184613D01*
X159303500Y-110286473D01*
X159303500Y-110391927D01*
X159330793Y-110493787D01*
X159383520Y-110585113D01*
X159458087Y-110659680D01*
X159549413Y-110712407D01*
X159651273Y-110739700D01*
X159651275Y-110739700D01*
X159756725Y-110739700D01*
X159756727Y-110739700D01*
X159858587Y-110712407D01*
X159949913Y-110659680D01*
X160024480Y-110585113D01*
X160077207Y-110493787D01*
X160104500Y-110391927D01*
X160104500Y-110286473D01*
X160077207Y-110184613D01*
X160024480Y-110093287D01*
X159949913Y-110018720D01*
X159883059Y-109980122D01*
X159858589Y-109965994D01*
X159858588Y-109965993D01*
X159858587Y-109965993D01*
X159763672Y-109940560D01*
X159704013Y-109904197D01*
X159673484Y-109841351D01*
X159681778Y-109771975D01*
X159708081Y-109733111D01*
X159770480Y-109670713D01*
X159823207Y-109579387D01*
X159850500Y-109477527D01*
X159850500Y-109372073D01*
X159823207Y-109270213D01*
X159770480Y-109178887D01*
X159695913Y-109104320D01*
X159615870Y-109058107D01*
X159604589Y-109051594D01*
X159604588Y-109051593D01*
X159604587Y-109051593D01*
X159502727Y-109024300D01*
X159397273Y-109024300D01*
X159295413Y-109051593D01*
X159295410Y-109051594D01*
X159204085Y-109104321D01*
X159129521Y-109178885D01*
X159076794Y-109270210D01*
X159076793Y-109270213D01*
X159049500Y-109372073D01*
X158430500Y-109372073D01*
X158430500Y-107914274D01*
X159286268Y-107914274D01*
X159286268Y-108019728D01*
X159313561Y-108121588D01*
X159366288Y-108212914D01*
X159440855Y-108287481D01*
X159532181Y-108340208D01*
X159634041Y-108367501D01*
X159634043Y-108367501D01*
X159739493Y-108367501D01*
X159739495Y-108367501D01*
X159841355Y-108340208D01*
X159932681Y-108287481D01*
X160007248Y-108212914D01*
X160059975Y-108121588D01*
X160087268Y-108019728D01*
X160087268Y-107914274D01*
X160059975Y-107812414D01*
X160007248Y-107721088D01*
X159932681Y-107646521D01*
X159859180Y-107604085D01*
X159841357Y-107593795D01*
X159841356Y-107593794D01*
X159841355Y-107593794D01*
X159739495Y-107566501D01*
X159634041Y-107566501D01*
X159532181Y-107593794D01*
X159532178Y-107593795D01*
X159440853Y-107646522D01*
X159366289Y-107721086D01*
X159313562Y-107812411D01*
X159313561Y-107812414D01*
X159286268Y-107914274D01*
X158430500Y-107914274D01*
X158430500Y-106434270D01*
X159278100Y-106434270D01*
X159278100Y-106539724D01*
X159302741Y-106631684D01*
X159305393Y-106641583D01*
X159305394Y-106641586D01*
X159310411Y-106650275D01*
X159358120Y-106732910D01*
X159432687Y-106807477D01*
X159524013Y-106860204D01*
X159625873Y-106887497D01*
X159625875Y-106887497D01*
X159731325Y-106887497D01*
X159731327Y-106887497D01*
X159833187Y-106860204D01*
X159924513Y-106807477D01*
X159999080Y-106732910D01*
X160051807Y-106641584D01*
X160079100Y-106539724D01*
X160079100Y-106434270D01*
X160051807Y-106332410D01*
X159999080Y-106241084D01*
X159924513Y-106166517D01*
X159842902Y-106119399D01*
X159833189Y-106113791D01*
X159833188Y-106113790D01*
X159833187Y-106113790D01*
X159731327Y-106086497D01*
X159625873Y-106086497D01*
X159524013Y-106113790D01*
X159524010Y-106113791D01*
X159432685Y-106166518D01*
X159358121Y-106241082D01*
X159305394Y-106332407D01*
X159305393Y-106332410D01*
X159278100Y-106434270D01*
X158430500Y-106434270D01*
X158430500Y-103225273D01*
X160065500Y-103225273D01*
X160065500Y-103330727D01*
X160092793Y-103432587D01*
X160145520Y-103523913D01*
X160220087Y-103598480D01*
X160311413Y-103651207D01*
X160413273Y-103678500D01*
X160413275Y-103678500D01*
X160518725Y-103678500D01*
X160518727Y-103678500D01*
X160620587Y-103651207D01*
X160711913Y-103598480D01*
X160786480Y-103523913D01*
X160839207Y-103432587D01*
X160866500Y-103330727D01*
X160866500Y-103225273D01*
X160839207Y-103123413D01*
X160786480Y-103032087D01*
X160711913Y-102957520D01*
X160620587Y-102904793D01*
X160518727Y-102877500D01*
X160413273Y-102877500D01*
X160311413Y-102904793D01*
X160311410Y-102904794D01*
X160220085Y-102957521D01*
X160145521Y-103032085D01*
X160092794Y-103123410D01*
X160092793Y-103123413D01*
X160065500Y-103225273D01*
X158430500Y-103225273D01*
X158430500Y-101909122D01*
X158450185Y-101842083D01*
X158466819Y-101821441D01*
X158656241Y-101632019D01*
X158717564Y-101598534D01*
X158743922Y-101595700D01*
X158791525Y-101595700D01*
X158791527Y-101595700D01*
X158893387Y-101568407D01*
X158984713Y-101515680D01*
X159059280Y-101441113D01*
X159112007Y-101349787D01*
X159139300Y-101247927D01*
X159139300Y-101193273D01*
X163113500Y-101193273D01*
X163113500Y-101298727D01*
X163137296Y-101387534D01*
X163140793Y-101400586D01*
X163140794Y-101400589D01*
X163150112Y-101416728D01*
X163193520Y-101491913D01*
X163268087Y-101566480D01*
X163359413Y-101619207D01*
X163461273Y-101646500D01*
X163461275Y-101646500D01*
X163566725Y-101646500D01*
X163566727Y-101646500D01*
X163668587Y-101619207D01*
X163759913Y-101566480D01*
X163834480Y-101491913D01*
X163887207Y-101400587D01*
X163914500Y-101298727D01*
X163914500Y-101193273D01*
X163887207Y-101091413D01*
X163834480Y-101000087D01*
X163759913Y-100925520D01*
X163682963Y-100881093D01*
X163668589Y-100872794D01*
X163668588Y-100872793D01*
X163668587Y-100872793D01*
X163566727Y-100845500D01*
X163461273Y-100845500D01*
X163359413Y-100872793D01*
X163359410Y-100872794D01*
X163268085Y-100925521D01*
X163193521Y-101000085D01*
X163140794Y-101091410D01*
X163140793Y-101091413D01*
X163113500Y-101193273D01*
X159139300Y-101193273D01*
X159139300Y-101142473D01*
X159112007Y-101040613D01*
X159059280Y-100949287D01*
X158984713Y-100874720D01*
X158893387Y-100821993D01*
X158791527Y-100794700D01*
X158686073Y-100794700D01*
X158584213Y-100821993D01*
X158584210Y-100821994D01*
X158492885Y-100874721D01*
X158418321Y-100949285D01*
X158365594Y-101040610D01*
X158365593Y-101040613D01*
X158338300Y-101142473D01*
X158338300Y-101190076D01*
X158318615Y-101257115D01*
X158301981Y-101277757D01*
X158020661Y-101559076D01*
X158020662Y-101559077D01*
X157967636Y-101612103D01*
X157929500Y-101704170D01*
X157929500Y-105189204D01*
X157909815Y-105256243D01*
X157857011Y-105301998D01*
X157787853Y-105311942D01*
X157773408Y-105308979D01*
X157727069Y-105296563D01*
X157727068Y-105296563D01*
X157621614Y-105296563D01*
X157519754Y-105323856D01*
X157519751Y-105323857D01*
X157428426Y-105376584D01*
X157353862Y-105451148D01*
X157301135Y-105542473D01*
X157301134Y-105542476D01*
X157273841Y-105644336D01*
X154414923Y-105644336D01*
X154508275Y-104975111D01*
X154509196Y-104969469D01*
X154511309Y-104958169D01*
X154659875Y-104163405D01*
X154661057Y-104157809D01*
X154848803Y-103359563D01*
X154850222Y-103354099D01*
X155074636Y-102565366D01*
X155076327Y-102559906D01*
X155096298Y-102500320D01*
X155336928Y-101782376D01*
X155338844Y-101777067D01*
X155635090Y-101012369D01*
X155637280Y-101007086D01*
X155638839Y-101003556D01*
X155968501Y-100256941D01*
X155970895Y-100251841D01*
X156336430Y-99517747D01*
X156339097Y-99512690D01*
X156344979Y-99502130D01*
X156738123Y-98796301D01*
X156740988Y-98791423D01*
X157172710Y-98094169D01*
X157175784Y-98089452D01*
X157375506Y-97797893D01*
X163068514Y-97797893D01*
X163068514Y-97903346D01*
X163095807Y-98005206D01*
X163095808Y-98005209D01*
X163106118Y-98023067D01*
X163148534Y-98096533D01*
X163223101Y-98171100D01*
X163314427Y-98223827D01*
X163416287Y-98251120D01*
X163416289Y-98251120D01*
X163521739Y-98251120D01*
X163521741Y-98251120D01*
X163623601Y-98223827D01*
X163714927Y-98171100D01*
X163789494Y-98096533D01*
X163842221Y-98005207D01*
X163869514Y-97903347D01*
X163869514Y-97797893D01*
X163842221Y-97696033D01*
X163789494Y-97604707D01*
X163714927Y-97530140D01*
X163623601Y-97477413D01*
X163521741Y-97450120D01*
X163416287Y-97450120D01*
X163314427Y-97477413D01*
X163314424Y-97477414D01*
X163223099Y-97530141D01*
X163148535Y-97604705D01*
X163095808Y-97696030D01*
X163095807Y-97696033D01*
X163068514Y-97797893D01*
X157375506Y-97797893D01*
X157639245Y-97412881D01*
X157642548Y-97408292D01*
X157887197Y-97084323D01*
X159480842Y-97084323D01*
X159480842Y-97235855D01*
X159500451Y-97309039D01*
X159520061Y-97382225D01*
X159557944Y-97447839D01*
X159595827Y-97513454D01*
X159702977Y-97620604D01*
X159809974Y-97682379D01*
X159834203Y-97696368D01*
X159834207Y-97696370D01*
X159980576Y-97735589D01*
X159980578Y-97735589D01*
X160132106Y-97735589D01*
X160132108Y-97735589D01*
X160278477Y-97696370D01*
X160409707Y-97620604D01*
X160516857Y-97513454D01*
X160592623Y-97382224D01*
X160631842Y-97235855D01*
X160631842Y-97084323D01*
X160592623Y-96937954D01*
X160516857Y-96806724D01*
X160409707Y-96699574D01*
X160344092Y-96661691D01*
X160278478Y-96623808D01*
X160162595Y-96592758D01*
X160132108Y-96584589D01*
X159980576Y-96584589D01*
X159834205Y-96623808D01*
X159702977Y-96699574D01*
X159702974Y-96699576D01*
X159595829Y-96806721D01*
X159595827Y-96806724D01*
X159520061Y-96937952D01*
X159496845Y-97024597D01*
X159480842Y-97084323D01*
X157887197Y-97084323D01*
X158136750Y-96753861D01*
X158140266Y-96749424D01*
X158664151Y-96118533D01*
X158667875Y-96114254D01*
X159145165Y-95590691D01*
X168809500Y-95590691D01*
X168809500Y-95709309D01*
X168840201Y-95823886D01*
X168899511Y-95926613D01*
X168983387Y-96010489D01*
X169086114Y-96069799D01*
X169200691Y-96100500D01*
X169200694Y-96100500D01*
X169319306Y-96100500D01*
X169319309Y-96100500D01*
X169433886Y-96069799D01*
X169536613Y-96010489D01*
X169620489Y-95926613D01*
X169679799Y-95823886D01*
X169710500Y-95709309D01*
X169710500Y-95590691D01*
X174589500Y-95590691D01*
X174589500Y-95709309D01*
X174620201Y-95823886D01*
X174679511Y-95926613D01*
X174763387Y-96010489D01*
X174866114Y-96069799D01*
X174980691Y-96100500D01*
X174980694Y-96100500D01*
X175099306Y-96100500D01*
X175099309Y-96100500D01*
X175213886Y-96069799D01*
X175316613Y-96010489D01*
X175400489Y-95926613D01*
X175459799Y-95823886D01*
X175490500Y-95709309D01*
X175490500Y-95590691D01*
X175459799Y-95476114D01*
X175400489Y-95373387D01*
X175316613Y-95289511D01*
X175213886Y-95230201D01*
X175099309Y-95199500D01*
X174980691Y-95199500D01*
X174866114Y-95230201D01*
X174866112Y-95230201D01*
X174866112Y-95230202D01*
X174763387Y-95289511D01*
X174763384Y-95289513D01*
X174679513Y-95373384D01*
X174679511Y-95373387D01*
X174620201Y-95476114D01*
X174589500Y-95590691D01*
X169710500Y-95590691D01*
X169679799Y-95476114D01*
X169620489Y-95373387D01*
X169536613Y-95289511D01*
X169433886Y-95230201D01*
X169319309Y-95199500D01*
X169200691Y-95199500D01*
X169086114Y-95230201D01*
X169086112Y-95230201D01*
X169086112Y-95230202D01*
X168983387Y-95289511D01*
X168983384Y-95289513D01*
X168899513Y-95373384D01*
X168899511Y-95373387D01*
X168840201Y-95476114D01*
X168809500Y-95590691D01*
X159145165Y-95590691D01*
X159220344Y-95508223D01*
X159224258Y-95504124D01*
X159804124Y-94924258D01*
X159808223Y-94920344D01*
X160414254Y-94367875D01*
X160418533Y-94364151D01*
X160498021Y-94298145D01*
X162690158Y-94298145D01*
X162690158Y-94449676D01*
X162729377Y-94596047D01*
X162767260Y-94661661D01*
X162805143Y-94727276D01*
X162912293Y-94834426D01*
X163043523Y-94910192D01*
X163189892Y-94949411D01*
X163189894Y-94949411D01*
X163341422Y-94949411D01*
X163341424Y-94949411D01*
X163487793Y-94910192D01*
X163619023Y-94834426D01*
X163726173Y-94727276D01*
X163801939Y-94596046D01*
X163841158Y-94449677D01*
X163841158Y-94298145D01*
X180458842Y-94298145D01*
X180458842Y-94449676D01*
X180498061Y-94596047D01*
X180535944Y-94661661D01*
X180573827Y-94727276D01*
X180680977Y-94834426D01*
X180812207Y-94910192D01*
X180958576Y-94949411D01*
X180958578Y-94949411D01*
X181110106Y-94949411D01*
X181110108Y-94949411D01*
X181256477Y-94910192D01*
X181387707Y-94834426D01*
X181494857Y-94727276D01*
X181570623Y-94596046D01*
X181609842Y-94449677D01*
X181609842Y-94298145D01*
X181570623Y-94151776D01*
X181494857Y-94020546D01*
X181387707Y-93913396D01*
X181322092Y-93875513D01*
X181256478Y-93837630D01*
X181183292Y-93818020D01*
X181110108Y-93798411D01*
X180958576Y-93798411D01*
X180812205Y-93837630D01*
X180680977Y-93913396D01*
X180680974Y-93913398D01*
X180573829Y-94020543D01*
X180573827Y-94020546D01*
X180498061Y-94151774D01*
X180458842Y-94298145D01*
X163841158Y-94298145D01*
X163801939Y-94151776D01*
X163726173Y-94020546D01*
X163619023Y-93913396D01*
X163553408Y-93875513D01*
X163487794Y-93837630D01*
X163414608Y-93818020D01*
X163341424Y-93798411D01*
X163189892Y-93798411D01*
X163043521Y-93837630D01*
X162912293Y-93913396D01*
X162912290Y-93913398D01*
X162805145Y-94020543D01*
X162805143Y-94020546D01*
X162729377Y-94151774D01*
X162690158Y-94298145D01*
X160498021Y-94298145D01*
X161049424Y-93840266D01*
X161053861Y-93836750D01*
X161708292Y-93342548D01*
X161712881Y-93339245D01*
X162389452Y-92875784D01*
X162394169Y-92872710D01*
X163091423Y-92440988D01*
X163096301Y-92438123D01*
X163812699Y-92039092D01*
X163817747Y-92036430D01*
X164551841Y-91670895D01*
X164556941Y-91668501D01*
X165307094Y-91337276D01*
X165312369Y-91335090D01*
X166077067Y-91038844D01*
X166082376Y-91036928D01*
X166859917Y-90776323D01*
X166865366Y-90774636D01*
X167654099Y-90550222D01*
X167659563Y-90548803D01*
X168457819Y-90361054D01*
X168463405Y-90359875D01*
X169269480Y-90209194D01*
X169275111Y-90208275D01*
X170087271Y-90094984D01*
X170092922Y-90094329D01*
X170909434Y-90018668D01*
X170915139Y-90018272D01*
X171734282Y-89980401D01*
X171740009Y-89980269D01*
X172559991Y-89980269D01*
X172565718Y-89980401D01*
G37*
%TD.AperFunction*%
%TD*%
M02*
