%TF.GenerationSoftware,KiCad,Pcbnew,10.0.1*%
%TF.CreationDate,2026-06-27T11:11:45-04:00*%
%TF.ProjectId,Smart_Watch,536d6172-745f-4576-9174-63682e6b6963,rev?*%
%TF.SameCoordinates,Original*%
%TF.FileFunction,Paste,Top*%
%TF.FilePolarity,Positive*%
%FSLAX46Y46*%
G04 Gerber Fmt 4.6, Leading zero omitted, Abs format (unit mm)*
G04 Created by KiCad (PCBNEW 10.0.1) date 2026-06-27 11:11:45*
%MOMM*%
%LPD*%
G01*
G04 APERTURE LIST*
G04 Aperture macros list*
%AMRoundRect*
0 Rectangle with rounded corners*
0 $1 Rounding radius*
0 $2 $3 $4 $5 $6 $7 $8 $9 X,Y pos of 4 corners*
0 Add a 4 corners polygon primitive as box body*
4,1,4,$2,$3,$4,$5,$6,$7,$8,$9,$2,$3,0*
0 Add four circle primitives for the rounded corners*
1,1,$1+$1,$2,$3*
1,1,$1+$1,$4,$5*
1,1,$1+$1,$6,$7*
1,1,$1+$1,$8,$9*
0 Add four rect primitives between the rounded corners*
20,1,$1+$1,$2,$3,$4,$5,0*
20,1,$1+$1,$4,$5,$6,$7,0*
20,1,$1+$1,$6,$7,$8,$9,0*
20,1,$1+$1,$8,$9,$2,$3,0*%
G04 Aperture macros list end*
%ADD10C,0.000000*%
%ADD11C,0.010000*%
%ADD12RoundRect,0.225000X-0.225000X-0.250000X0.225000X-0.250000X0.225000X0.250000X-0.225000X0.250000X0*%
%ADD13RoundRect,0.187500X-0.325507X0.660952X-0.608682X0.415113X0.325507X-0.660952X0.608682X-0.415113X0*%
%ADD14RoundRect,0.150000X-0.378409X0.664686X-0.604949X0.468014X0.378409X-0.664686X0.604949X-0.468014X0*%
%ADD15RoundRect,0.225000X0.173428X0.448523X-0.468435X-0.108713X-0.173428X-0.448523X0.468435X0.108713X0*%
%ADD16RoundRect,0.225000X-0.250000X0.225000X-0.250000X-0.225000X0.250000X-0.225000X0.250000X0.225000X0*%
%ADD17RoundRect,0.140000X-0.170000X0.140000X-0.170000X-0.140000X0.170000X-0.140000X0.170000X0.140000X0*%
%ADD18RoundRect,0.150000X0.350000X0.350000X-0.350000X0.350000X-0.350000X-0.350000X0.350000X-0.350000X0*%
%ADD19R,0.850000X0.600000*%
%ADD20R,0.800000X0.700000*%
%ADD21RoundRect,0.218750X0.218750X0.381250X-0.218750X0.381250X-0.218750X-0.381250X0.218750X-0.381250X0*%
%ADD22RoundRect,0.200000X0.200000X0.275000X-0.200000X0.275000X-0.200000X-0.275000X0.200000X-0.275000X0*%
%ADD23R,0.228600X0.685800*%
%ADD24R,0.228600X0.609600*%
%ADD25R,0.600000X0.600000*%
%ADD26RoundRect,0.225000X0.225000X0.250000X-0.225000X0.250000X-0.225000X-0.250000X0.225000X-0.250000X0*%
%ADD27RoundRect,0.200000X-0.200000X-0.275000X0.200000X-0.275000X0.200000X0.275000X-0.200000X0.275000X0*%
%ADD28R,0.254000X0.660400*%
%ADD29R,0.660400X0.254000*%
%ADD30R,3.606800X3.606800*%
%ADD31RoundRect,0.218750X-0.218750X-0.381250X0.218750X-0.381250X0.218750X0.381250X-0.218750X0.381250X0*%
%ADD32R,0.950000X0.280000*%
%ADD33R,0.280000X0.950000*%
%ADD34RoundRect,0.162500X0.650000X0.162500X-0.650000X0.162500X-0.650000X-0.162500X0.650000X-0.162500X0*%
%ADD35R,0.600000X1.150000*%
%ADD36R,0.300000X1.150000*%
%ADD37R,2.180000X2.000000*%
%ADD38RoundRect,0.187500X0.608682X0.415113X0.325507X0.660952X-0.608682X-0.415113X-0.325507X-0.660952X0*%
%ADD39RoundRect,0.150000X0.604949X0.468014X0.378409X0.664686X-0.604949X-0.468014X-0.378409X-0.664686X0*%
%ADD40RoundRect,0.225000X0.468435X-0.108713X-0.173428X0.448523X-0.468435X0.108713X0.173428X-0.448523X0*%
%ADD41RoundRect,0.200000X-0.275000X0.200000X-0.275000X-0.200000X0.275000X-0.200000X0.275000X0.200000X0*%
%ADD42RoundRect,0.034500X-0.080500X-0.200500X0.080500X-0.200500X0.080500X0.200500X-0.080500X0.200500X0*%
%ADD43R,0.965200X0.508000*%
%ADD44RoundRect,0.250000X-0.250000X0.650000X-0.250000X-0.650000X0.250000X-0.650000X0.250000X0.650000X0*%
%ADD45RoundRect,0.187500X0.325507X-0.660952X0.608682X-0.415113X-0.325507X0.660952X-0.608682X0.415113X0*%
%ADD46RoundRect,0.150000X0.378409X-0.664686X0.604949X-0.468014X-0.378409X0.664686X-0.604949X0.468014X0*%
%ADD47RoundRect,0.225000X-0.173428X-0.448523X0.468435X0.108713X0.173428X0.448523X-0.468435X-0.108713X0*%
%ADD48R,0.381000X0.203200*%
%ADD49R,0.203200X0.381000*%
%ADD50RoundRect,0.187500X-0.608682X-0.415113X-0.325507X-0.660952X0.608682X0.415113X0.325507X0.660952X0*%
%ADD51RoundRect,0.150000X-0.604949X-0.468014X-0.378409X-0.664686X0.604949X0.468014X0.378409X0.664686X0*%
%ADD52RoundRect,0.225000X-0.468435X0.108713X0.173428X-0.448523X0.468435X-0.108713X-0.173428X0.448523X0*%
G04 APERTURE END LIST*
D10*
%TO.C,U6*%
G36*
X166335000Y-106353000D02*
G01*
X164731600Y-106353000D01*
X164731600Y-104749600D01*
X166335000Y-104749600D01*
X166335000Y-106353000D01*
G37*
G36*
X166335000Y-108156400D02*
G01*
X164731600Y-108156400D01*
X164731600Y-106553000D01*
X166335000Y-106553000D01*
X166335000Y-108156400D01*
G37*
G36*
X168138400Y-106353000D02*
G01*
X166535000Y-106353000D01*
X166535000Y-104749600D01*
X168138400Y-104749600D01*
X168138400Y-106353000D01*
G37*
G36*
X168138400Y-108156400D02*
G01*
X166535000Y-108156400D01*
X166535000Y-106553000D01*
X168138400Y-106553000D01*
X168138400Y-108156400D01*
G37*
D11*
%TO.C,A1*%
X162405500Y-110307000D02*
X162069500Y-110307000D01*
X162069500Y-109993000D01*
X162405500Y-109993000D01*
X162405500Y-110307000D01*
G36*
X162405500Y-110307000D02*
G01*
X162069500Y-110307000D01*
X162069500Y-109993000D01*
X162405500Y-109993000D01*
X162405500Y-110307000D01*
G37*
X162405500Y-110807000D02*
X162069500Y-110807000D01*
X162069500Y-110493000D01*
X162405500Y-110493000D01*
X162405500Y-110807000D01*
G36*
X162405500Y-110807000D02*
G01*
X162069500Y-110807000D01*
X162069500Y-110493000D01*
X162405500Y-110493000D01*
X162405500Y-110807000D01*
G37*
X162405500Y-111307000D02*
X162069500Y-111307000D01*
X162069500Y-110993000D01*
X162405500Y-110993000D01*
X162405500Y-111307000D01*
G36*
X162405500Y-111307000D02*
G01*
X162069500Y-111307000D01*
X162069500Y-110993000D01*
X162405500Y-110993000D01*
X162405500Y-111307000D01*
G37*
X162907000Y-110055500D02*
X162593000Y-110055500D01*
X162593000Y-109719500D01*
X162907000Y-109719500D01*
X162907000Y-110055500D01*
G36*
X162907000Y-110055500D02*
G01*
X162593000Y-110055500D01*
X162593000Y-109719500D01*
X162907000Y-109719500D01*
X162907000Y-110055500D01*
G37*
X162907000Y-111580500D02*
X162593000Y-111580500D01*
X162593000Y-111244500D01*
X162907000Y-111244500D01*
X162907000Y-111580500D01*
G36*
X162907000Y-111580500D02*
G01*
X162593000Y-111580500D01*
X162593000Y-111244500D01*
X162907000Y-111244500D01*
X162907000Y-111580500D01*
G37*
X163407000Y-110055500D02*
X163093000Y-110055500D01*
X163093000Y-109719500D01*
X163407000Y-109719500D01*
X163407000Y-110055500D01*
G36*
X163407000Y-110055500D02*
G01*
X163093000Y-110055500D01*
X163093000Y-109719500D01*
X163407000Y-109719500D01*
X163407000Y-110055500D01*
G37*
X163407000Y-111580500D02*
X163093000Y-111580500D01*
X163093000Y-111244500D01*
X163407000Y-111244500D01*
X163407000Y-111580500D01*
G36*
X163407000Y-111580500D02*
G01*
X163093000Y-111580500D01*
X163093000Y-111244500D01*
X163407000Y-111244500D01*
X163407000Y-111580500D01*
G37*
X163930500Y-110307000D02*
X163594500Y-110307000D01*
X163594500Y-109993000D01*
X163930500Y-109993000D01*
X163930500Y-110307000D01*
G36*
X163930500Y-110307000D02*
G01*
X163594500Y-110307000D01*
X163594500Y-109993000D01*
X163930500Y-109993000D01*
X163930500Y-110307000D01*
G37*
X163930500Y-110807000D02*
X163594500Y-110807000D01*
X163594500Y-110493000D01*
X163930500Y-110493000D01*
X163930500Y-110807000D01*
G36*
X163930500Y-110807000D02*
G01*
X163594500Y-110807000D01*
X163594500Y-110493000D01*
X163930500Y-110493000D01*
X163930500Y-110807000D01*
G37*
X163930500Y-111307000D02*
X163594500Y-111307000D01*
X163594500Y-110993000D01*
X163930500Y-110993000D01*
X163930500Y-111307000D01*
G36*
X163930500Y-111307000D02*
G01*
X163594500Y-111307000D01*
X163594500Y-110993000D01*
X163930500Y-110993000D01*
X163930500Y-111307000D01*
G37*
%TD*%
D12*
%TO.C,C20*%
X170118000Y-105050000D03*
X171678000Y-105050000D03*
%TD*%
D13*
%TO.C,SW5*%
X163176053Y-95643545D03*
X161325976Y-97249695D03*
D14*
X162251014Y-96446620D03*
D15*
X162369646Y-93761303D03*
X159575653Y-96186917D03*
%TD*%
D16*
%TO.C,C6*%
X166562000Y-118093600D03*
X166562000Y-119653600D03*
%TD*%
%TO.C,C8*%
X162117000Y-113554400D03*
X162117000Y-115114400D03*
%TD*%
D17*
%TO.C,R9*%
X155950000Y-109085200D03*
X155950000Y-110085200D03*
%TD*%
D18*
%TO.C,J2*%
X172880000Y-123090000D03*
X170880000Y-123090000D03*
%TD*%
D19*
%TO.C,J4*%
X158011800Y-103423400D03*
X158011800Y-102223400D03*
D20*
X161786800Y-104573400D03*
X161786800Y-101073400D03*
%TD*%
D21*
%TO.C,L3*%
X169529500Y-101246000D03*
X167404500Y-101246000D03*
%TD*%
D16*
%TO.C,C22*%
X168650000Y-110370000D03*
X168650000Y-111930000D03*
%TD*%
%TO.C,C25*%
X180300000Y-100320000D03*
X180300000Y-101880000D03*
%TD*%
D22*
%TO.C,R13*%
X162614000Y-106986400D03*
X160974000Y-106986400D03*
%TD*%
D23*
%TO.C,U8*%
X171502402Y-102427100D03*
D24*
X171902401Y-102465200D03*
X172302400Y-102465200D03*
X172302400Y-101677800D03*
X171902401Y-101677800D03*
X171502402Y-101677800D03*
%TD*%
D25*
%TO.C,U3*%
X173700000Y-112250000D03*
X173700000Y-111150000D03*
X173700000Y-110050000D03*
X173700000Y-108950000D03*
X173700000Y-107850000D03*
X173700000Y-106750000D03*
X173700000Y-105650000D03*
X173700000Y-104550000D03*
X173700000Y-103450000D03*
X174800000Y-112250000D03*
X174800000Y-111150000D03*
X174800000Y-110050000D03*
X174800000Y-108950000D03*
X174800000Y-107850000D03*
X174800000Y-106750000D03*
X174800000Y-105650000D03*
X174800000Y-104550000D03*
X174800000Y-103450000D03*
X175900000Y-112250000D03*
X175900000Y-111150000D03*
X175900000Y-108950000D03*
X175900000Y-107850000D03*
X175900000Y-106750000D03*
X175900000Y-104550000D03*
X175900000Y-103450000D03*
X177000000Y-112250000D03*
X177000000Y-111150000D03*
X177000000Y-110050000D03*
X177000000Y-105650000D03*
X177000000Y-104550000D03*
X177000000Y-103450000D03*
X178100000Y-112250000D03*
X178100000Y-111150000D03*
X178100000Y-110050000D03*
X178100000Y-108400000D03*
X178100000Y-107300000D03*
X178100000Y-105650000D03*
X178100000Y-104550000D03*
X178100000Y-103450000D03*
X179200000Y-112250000D03*
X179200000Y-111150000D03*
X179200000Y-110050000D03*
X179200000Y-108400000D03*
X179200000Y-107300000D03*
X179200000Y-105650000D03*
X179200000Y-104550000D03*
X179200000Y-103450000D03*
X180300000Y-112250000D03*
X180300000Y-111150000D03*
X180300000Y-110050000D03*
X180300000Y-108400000D03*
X180300000Y-107300000D03*
X180300000Y-105650000D03*
X180300000Y-104550000D03*
X180300000Y-103450000D03*
X181400000Y-112250000D03*
X181400000Y-111150000D03*
X181400000Y-110050000D03*
X181400000Y-105650000D03*
X181400000Y-104550000D03*
X181400000Y-103450000D03*
X182500000Y-112250000D03*
X182500000Y-111150000D03*
X182500000Y-110050000D03*
X182500000Y-108400000D03*
X182500000Y-107300000D03*
X182500000Y-105650000D03*
X182500000Y-104550000D03*
X182500000Y-103450000D03*
X183600000Y-112250000D03*
X183600000Y-111150000D03*
X183600000Y-110050000D03*
X183600000Y-107850000D03*
X183600000Y-105650000D03*
X183600000Y-104550000D03*
X183600000Y-103450000D03*
X185100000Y-112250000D03*
X185100000Y-103450000D03*
X186600000Y-112250000D03*
X186600000Y-111150000D03*
X186600000Y-104550000D03*
X186600000Y-103450000D03*
%TD*%
D26*
%TO.C,C17*%
X165596800Y-102820800D03*
X164036800Y-102820800D03*
%TD*%
%TO.C,C14*%
X159341000Y-112980800D03*
X157781000Y-112980800D03*
%TD*%
D27*
%TO.C,R1*%
X162180000Y-116450000D03*
X163820000Y-116450000D03*
%TD*%
D28*
%TO.C,U6*%
X168184999Y-104078100D03*
X167685000Y-104078100D03*
X167185001Y-104078100D03*
X166685000Y-104078100D03*
X166185000Y-104078100D03*
X165684999Y-104078100D03*
X165185000Y-104078100D03*
X164685001Y-104078100D03*
D29*
X164060100Y-104703001D03*
X164060100Y-105203000D03*
X164060100Y-105702999D03*
X164060100Y-106203000D03*
X164060100Y-106703000D03*
X164060100Y-107203001D03*
X164060100Y-107703000D03*
X164060100Y-108202999D03*
D28*
X164685001Y-108827900D03*
X165185000Y-108827900D03*
X165684999Y-108827900D03*
X166185000Y-108827900D03*
X166685000Y-108827900D03*
X167185001Y-108827900D03*
X167685000Y-108827900D03*
X168184999Y-108827900D03*
D29*
X168809900Y-108202999D03*
X168809900Y-107703000D03*
X168809900Y-107203001D03*
X168809900Y-106703000D03*
X168809900Y-106203000D03*
X168809900Y-105702999D03*
X168809900Y-105203000D03*
X168809900Y-104703001D03*
D30*
X166435000Y-106453000D03*
%TD*%
D31*
%TO.C,L4*%
X163514000Y-101246000D03*
X165639000Y-101246000D03*
%TD*%
D32*
%TO.C,U12*%
X157687601Y-106476998D03*
X157687601Y-106976999D03*
X157687601Y-107476999D03*
X157687601Y-107977000D03*
D33*
X158662600Y-108201998D03*
D32*
X159637599Y-107977000D03*
X159637599Y-107476999D03*
X159637599Y-106976999D03*
X159637599Y-106476998D03*
D33*
X158662600Y-106252000D03*
%TD*%
D16*
%TO.C,C10*%
X167350000Y-110370000D03*
X167350000Y-111930000D03*
%TD*%
%TO.C,C9*%
X163450000Y-113070000D03*
X163450000Y-114630000D03*
%TD*%
D34*
%TO.C,U5*%
X177515500Y-121312000D03*
X177515500Y-120042000D03*
X177515500Y-118772000D03*
X177515500Y-117502000D03*
X170340500Y-117502000D03*
X170340500Y-118772000D03*
X170340500Y-120042000D03*
X170340500Y-121312000D03*
%TD*%
D16*
%TO.C,C11*%
X166050000Y-110370000D03*
X166050000Y-111930000D03*
%TD*%
D27*
%TO.C,R3*%
X178030000Y-115700000D03*
X179670000Y-115700000D03*
%TD*%
D26*
%TO.C,C2*%
X171480000Y-110400000D03*
X169920000Y-110400000D03*
%TD*%
D35*
%TO.C,J7*%
X175350000Y-96725000D03*
X174550000Y-96725000D03*
D36*
X173400000Y-96725000D03*
X172400000Y-96725000D03*
X171900000Y-96725000D03*
X170900000Y-96725000D03*
D35*
X168950000Y-96725000D03*
X169750000Y-96725000D03*
D36*
X170400000Y-96725000D03*
X171400000Y-96725000D03*
X172900000Y-96725000D03*
X173900000Y-96725000D03*
D37*
X177260000Y-96150000D03*
X167040000Y-96150000D03*
X177260000Y-92220000D03*
X167040000Y-92220000D03*
%TD*%
D26*
%TO.C,C15*%
X162726600Y-105792600D03*
X161166600Y-105792600D03*
%TD*%
D38*
%TO.C,SW4*%
X182974024Y-97249695D03*
X181123947Y-95643544D03*
D39*
X182048986Y-96446620D03*
D40*
X184724347Y-96186917D03*
X181930354Y-93761303D03*
%TD*%
D12*
%TO.C,C16*%
X166943000Y-102897000D03*
X168503000Y-102897000D03*
%TD*%
D41*
%TO.C,R11*%
X160593000Y-112795800D03*
X160593000Y-114435800D03*
%TD*%
D42*
%TO.C,X608*%
X171550000Y-113730000D03*
X171950000Y-113730000D03*
X172350000Y-113730000D03*
X172750000Y-113730000D03*
X173150000Y-113730000D03*
X173550000Y-113730000D03*
X173950000Y-113730000D03*
X174350000Y-113730000D03*
X174750000Y-113730000D03*
X175150000Y-113730000D03*
X175550000Y-113730000D03*
X175950000Y-113730000D03*
X171550000Y-115920000D03*
X171950000Y-115920000D03*
X172350000Y-115920000D03*
X172750000Y-115920000D03*
X173150000Y-115920000D03*
X173550000Y-115920000D03*
X173950000Y-115920000D03*
X174350000Y-115920000D03*
X174750000Y-115920000D03*
X175150000Y-115920000D03*
X175550000Y-115920000D03*
X175950000Y-115920000D03*
%TD*%
D26*
%TO.C,C24*%
X178280000Y-99650000D03*
X176720000Y-99650000D03*
%TD*%
%TO.C,C26*%
X168510400Y-121007200D03*
X166950400Y-121007200D03*
%TD*%
D43*
%TO.C,U7*%
X158535600Y-109602600D03*
X158535600Y-110552601D03*
X158535600Y-111502602D03*
X160872400Y-111502602D03*
X160872400Y-110552601D03*
X160872400Y-109602600D03*
%TD*%
D12*
%TO.C,C18*%
X170031200Y-106250000D03*
X171591200Y-106250000D03*
%TD*%
D44*
%TO.C,X1*%
X177950000Y-101400000D03*
X175450000Y-101400000D03*
%TD*%
D26*
%TO.C,C4*%
X171580000Y-108700000D03*
X170020000Y-108700000D03*
%TD*%
D12*
%TO.C,C19*%
X170100000Y-103850000D03*
X171660000Y-103850000D03*
%TD*%
D26*
%TO.C,C3*%
X171510000Y-107450000D03*
X169950000Y-107450000D03*
%TD*%
D12*
%TO.C,C23*%
X161006800Y-108332600D03*
X162566800Y-108332600D03*
%TD*%
D45*
%TO.C,SW6*%
X181123947Y-120056456D03*
X182974024Y-118450305D03*
D46*
X182048986Y-119253380D03*
D47*
X181930354Y-121938697D03*
X184724347Y-119513083D03*
%TD*%
D22*
%TO.C,R2*%
X179620000Y-114350000D03*
X177980000Y-114350000D03*
%TD*%
D26*
%TO.C,C21*%
X168510400Y-122277200D03*
X166950400Y-122277200D03*
%TD*%
D41*
%TO.C,R12*%
X164750000Y-110230000D03*
X164750000Y-111870000D03*
%TD*%
D48*
%TO.C,U10*%
X165363501Y-114148499D03*
X165363501Y-114648500D03*
X165363501Y-115148500D03*
X165363501Y-115648501D03*
D49*
X166070002Y-115851000D03*
X166570001Y-115851000D03*
X167070000Y-115851000D03*
D48*
X167776501Y-115648501D03*
X167776501Y-115148500D03*
X167776501Y-114648500D03*
X167776501Y-114148499D03*
D49*
X167070000Y-113946000D03*
X166570001Y-113946000D03*
X166070002Y-113946000D03*
%TD*%
D26*
%TO.C,C1*%
X171480000Y-111650000D03*
X169920000Y-111650000D03*
%TD*%
D50*
%TO.C,SW7*%
X161325976Y-118450305D03*
X163176053Y-120056456D03*
D51*
X162251014Y-119253380D03*
D52*
X159575653Y-119513083D03*
X162369646Y-121938697D03*
%TD*%
M02*
