%TF.GenerationSoftware,KiCad,Pcbnew,10.0.1*%
%TF.CreationDate,2026-06-27T11:11:45-04:00*%
%TF.ProjectId,Smart_Watch,536d6172-745f-4576-9174-63682e6b6963,rev?*%
%TF.SameCoordinates,Original*%
%TF.FileFunction,Copper,L2,Inr*%
%TF.FilePolarity,Positive*%
%FSLAX46Y46*%
G04 Gerber Fmt 4.6, Leading zero omitted, Abs format (unit mm)*
G04 Created by KiCad (PCBNEW 10.0.1) date 2026-06-27 11:11:45*
%MOMM*%
%LPD*%
G01*
G04 APERTURE LIST*
%TA.AperFunction,ViaPad*%
%ADD10C,0.500000*%
%TD*%
%TA.AperFunction,Conductor*%
%ADD11C,0.200000*%
%TD*%
G04 APERTURE END LIST*
D10*
%TO.N,PGND2*%
X165684999Y-104078100D03*
X171692800Y-105056000D03*
%TO.N,GND*%
X165038000Y-94642000D03*
X185510400Y-113946000D03*
X178100000Y-107300000D03*
X174791600Y-111101200D03*
X162250000Y-111750000D03*
X158662600Y-108201998D03*
X175960000Y-123090000D03*
X166850000Y-116450000D03*
X167618500Y-112019000D03*
X183600000Y-110050000D03*
X171591200Y-106453000D03*
X179025000Y-94300000D03*
X174690000Y-123090000D03*
X165350000Y-98700000D03*
X155950000Y-110085200D03*
X185104000Y-102008000D03*
X169102000Y-123090000D03*
X186650000Y-99350000D03*
X165190400Y-121718400D03*
X165437200Y-107550000D03*
X185307200Y-115114400D03*
X183450000Y-100250000D03*
X160800000Y-100150000D03*
X178100000Y-108400000D03*
X166350000Y-112350000D03*
X185662800Y-101042800D03*
X184392800Y-100941200D03*
X186069200Y-101957200D03*
X160974000Y-106707000D03*
X184150000Y-99125000D03*
X185053200Y-100128400D03*
X168891600Y-102109600D03*
X185053200Y-101347600D03*
X185002400Y-116130400D03*
X164225000Y-99900000D03*
X184494400Y-114708000D03*
X165858000Y-105063200D03*
%TO.N,+3V0*%
X169292000Y-118167447D03*
X168797200Y-104446400D03*
X158535600Y-111502602D03*
X158738800Y-101195200D03*
X168441600Y-101195200D03*
X163514000Y-101246000D03*
X159297600Y-115927200D03*
%TO.N,/Architecture/MCU/BTN_2*%
X163469014Y-97850620D03*
X174791600Y-107799200D03*
X174999999Y-99347543D03*
%TO.N,+1V8*%
X162726600Y-105792600D03*
X164834062Y-117096338D03*
X181275034Y-113011363D03*
X176950000Y-106877600D03*
X169996244Y-103808397D03*
X163399024Y-104047444D03*
X162117000Y-113554400D03*
X173700000Y-104600000D03*
X173761649Y-105605251D03*
X171510000Y-107450000D03*
X168441600Y-116428000D03*
X169429355Y-109594617D03*
%TO.N,VSYS*%
X165596800Y-102820800D03*
X156861202Y-109085200D03*
X166150000Y-109300000D03*
X169356000Y-105718899D03*
%TO.N,/Architecture/Peripherals/MOTOR+*%
X159678600Y-106486997D03*
X172912000Y-123090000D03*
%TO.N,/Architecture/Peripherals/MOTOR-*%
X159686768Y-107967001D03*
X170880000Y-123090000D03*
%TO.N,+BATT*%
X166315200Y-110377593D03*
X164580800Y-101906400D03*
X160466000Y-103278000D03*
%TO.N,/Architecture/MCU/VBUS_OUT*%
X168605513Y-110413080D03*
X166664726Y-102073385D03*
X174800000Y-103450000D03*
%TO.N,/Architecture/MCU/CLK1*%
X175893199Y-106756801D03*
X177950000Y-101492800D03*
%TO.N,/Architecture/MCU/USBC_D+*%
X175900000Y-103450000D03*
X175650000Y-99750000D03*
X171405671Y-100305671D03*
X172404000Y-100585600D03*
%TO.N,/Architecture/MCU/USBC_D-*%
X172912000Y-101754000D03*
X171911892Y-100973751D03*
%TO.N,/Architecture/MCU/VBUS_IN*%
X169762400Y-100230000D03*
X170067200Y-102262000D03*
X174486800Y-101804800D03*
X167618500Y-110459000D03*
%TO.N,/Architecture/MCU/SDA*%
X162902000Y-109280100D03*
X173700000Y-110050000D03*
X174080400Y-117349600D03*
X163378200Y-106703000D03*
X164530000Y-113184000D03*
X165417996Y-117448800D03*
X172800000Y-107050000D03*
%TO.N,/Architecture/MCU/BTN_3*%
X180830986Y-117849380D03*
X173698788Y-108966373D03*
X173449767Y-116898273D03*
%TO.N,/Architecture/MCU/LPS_INT*%
X164276000Y-112625200D03*
X173025490Y-112650000D03*
X173700000Y-107850000D03*
%TO.N,/Architecture/MCU/CTP_INT*%
X175049873Y-115335376D03*
X174800000Y-112250000D03*
%TO.N,/Architecture/MCU/DISPLAY_CLK*%
X174915317Y-110125859D03*
X174350001Y-114144416D03*
%TO.N,/Architecture/MCU/SCL*%
X162294800Y-112574400D03*
X174791600Y-108967600D03*
X174180916Y-115340601D03*
X166570001Y-113450000D03*
X163447980Y-107368583D03*
%TO.N,/Architecture/MCU/CLK2*%
X174800000Y-102350000D03*
X174787601Y-106762399D03*
%TO.N,/Architecture/MCU/DISPLAY_DATA*%
X175900000Y-112250000D03*
X173788999Y-114440601D03*
%TO.N,/Architecture/MCU/DISPLAY_DC*%
X175900000Y-111150000D03*
X175718998Y-114304860D03*
%TO.N,/Architecture/MCU/BMI_INT*%
X175858400Y-104598800D03*
X169102000Y-117146400D03*
X170890812Y-104439631D03*
%TO.N,/Architecture/MCU/QSPI_IO2*%
X176850000Y-112200000D03*
X176050000Y-118250000D03*
%TO.N,/Architecture/MCU/QSPI_IO0*%
X176874400Y-111101200D03*
X171743600Y-117451200D03*
X175045600Y-117661600D03*
%TO.N,/Architecture/MCU/QSPI_CS*%
X178754000Y-121312000D03*
X178100000Y-112250000D03*
%TO.N,/Architecture/MCU/QSPI_IO1*%
X178754000Y-120042000D03*
X178119000Y-111152000D03*
%TO.N,/Architecture/MCU/MAX_INT*%
X177350000Y-115700000D03*
X178100000Y-110050000D03*
%TO.N,/Architecture/MCU/CTP_RST*%
X178093600Y-104523000D03*
X173082600Y-115266800D03*
X177128400Y-114823000D03*
%TO.N,/Architecture/MCU/QSPI_CLK*%
X179051600Y-118842489D03*
X179200000Y-112250000D03*
X171550000Y-118772000D03*
%TO.N,/Architecture/MCU/QSPI_IO3*%
X171550000Y-120042000D03*
X179160400Y-111143467D03*
X179051600Y-119442492D03*
%TO.N,/Architecture/MCU/BTN_4*%
X163469014Y-117717447D03*
X180669929Y-116262313D03*
X179262000Y-104548000D03*
%TO.N,/Architecture/MCU/BTN_1*%
X180377554Y-111052446D03*
X181097803Y-97397803D03*
%TO.N,/Architecture/MCU/DISPLAY_LIGHT_IO*%
X180278000Y-110085200D03*
X159450000Y-109424800D03*
%TO.N,/Architecture/MCU/PMIC_INT*%
X181400000Y-112250000D03*
X165880200Y-113119800D03*
X164174400Y-104090800D03*
%TO.N,/Architecture/MCU/SWDIO*%
X181400000Y-111150000D03*
%TO.N,/Architecture/MCU/USB_RST*%
X181400000Y-110050000D03*
X173978800Y-101246000D03*
X182208400Y-100890400D03*
X170875000Y-101035130D03*
%TO.N,/Architecture/MCU/LRA_PWM*%
X181344800Y-105665600D03*
X157687601Y-106976999D03*
%TO.N,/Architecture/MCU/SWO*%
X181400000Y-104550000D03*
%TO.N,/Architecture/MCU/SWCLK*%
X183550000Y-109250000D03*
X183275200Y-101754000D03*
X179040000Y-101532000D03*
%TO.N,/Architecture/MCU/MCU_RST*%
X176950000Y-101492800D03*
X182462400Y-110085200D03*
X180278000Y-109374000D03*
%TO.N,/Architecture/MCU/LRA_EN*%
X182462400Y-104550000D03*
X157674341Y-105697063D03*
%TO.N,/Architecture/MCU/DISPLAY_RST*%
X183050000Y-111705049D03*
X182500000Y-103450000D03*
X175858400Y-113082400D03*
%TO.N,PGND1*%
X167679600Y-104090800D03*
X171655205Y-104000000D03*
%TO.N,/Architecture/Power/PMIC_SW*%
X164060100Y-107703000D03*
X163750000Y-111907391D03*
%TO.N,/Architecture/MCU/CC2*%
X168855823Y-109390596D03*
X170344984Y-101366358D03*
%TO.N,/Architecture/MCU/CC1*%
X168750000Y-108800000D03*
X171951219Y-109507180D03*
X173537003Y-101906400D03*
%TO.N,/Architecture/MCU/LEDK1*%
X170700000Y-111100000D03*
X159704000Y-110339200D03*
%TO.N,/Architecture/MCU/LEDK2*%
X160872400Y-111502602D03*
X171946800Y-114250800D03*
X160618400Y-115317600D03*
%TD*%
%TO.N,PGND2*%
D11*
X171533200Y-104896400D02*
X171692800Y-105056000D01*
X166503299Y-104896400D02*
X171533200Y-104896400D01*
X165684999Y-104078100D02*
X166503299Y-104896400D01*
%TO.N,+3V0*%
X163514000Y-101246000D02*
X168390800Y-101246000D01*
X168390800Y-101246000D02*
X168441600Y-101195200D01*
X159297600Y-115927200D02*
X159297600Y-116297600D01*
X159297600Y-116297600D02*
X161167447Y-118167447D01*
X161167447Y-118167447D02*
X169292000Y-118167447D01*
%TO.N,/Architecture/MCU/BTN_2*%
X174446727Y-99347543D02*
X174123070Y-99671200D01*
X165289594Y-99671200D02*
X163469014Y-97850620D01*
X174999999Y-99347543D02*
X174446727Y-99347543D01*
X174123070Y-99671200D02*
X165289594Y-99671200D01*
%TO.N,+1V8*%
X163818368Y-103628100D02*
X163399024Y-104047444D01*
X169815947Y-103628100D02*
X163818368Y-103628100D01*
X169996244Y-103808397D02*
X169815947Y-103628100D01*
X164945872Y-117096338D02*
X165043410Y-116998800D01*
X167870800Y-116998800D02*
X168441600Y-116428000D01*
X164834062Y-117096338D02*
X164945872Y-117096338D01*
X165043410Y-116998800D02*
X167870800Y-116998800D01*
%TO.N,VSYS*%
X166148400Y-109889200D02*
X158503000Y-109889200D01*
X158503000Y-109889200D02*
X157699000Y-109085200D01*
X166185000Y-109335000D02*
X166185000Y-109852600D01*
X166185000Y-109852600D02*
X166148400Y-109889200D01*
X166150000Y-109300000D02*
X166185000Y-109335000D01*
X157699000Y-109085200D02*
X156861202Y-109085200D01*
%TO.N,+BATT*%
X164580800Y-101906400D02*
X164530000Y-101957200D01*
X164530000Y-101957200D02*
X161786800Y-101957200D01*
X161786800Y-101957200D02*
X160466000Y-103278000D01*
%TO.N,/Architecture/MCU/VBUS_OUT*%
X174678100Y-103328100D02*
X167919441Y-103328100D01*
X167919441Y-103328100D02*
X166664726Y-102073385D01*
X174800000Y-103450000D02*
X174678100Y-103328100D01*
%TO.N,/Architecture/MCU/USBC_D+*%
X172342151Y-100523751D02*
X172404000Y-100585600D01*
X171405671Y-100428773D02*
X171500649Y-100523751D01*
X171500649Y-100523751D02*
X172342151Y-100523751D01*
X171405671Y-100305671D02*
X171405671Y-100428773D01*
%TO.N,/Architecture/MCU/VBUS_IN*%
X170067200Y-102262000D02*
X170161600Y-102356400D01*
X170161600Y-102356400D02*
X173935200Y-102356400D01*
X173935200Y-102356400D02*
X174486800Y-101804800D01*
%TO.N,/Architecture/MCU/SDA*%
X169486397Y-110350000D02*
X169236397Y-110100000D01*
X165417996Y-117448800D02*
X165619196Y-117650000D01*
X169236397Y-110100000D02*
X168928830Y-110100000D01*
X172916297Y-117001200D02*
X173264697Y-117349600D01*
X167678830Y-108850000D02*
X163332100Y-108850000D01*
X170908403Y-117650000D02*
X171557203Y-117001200D01*
X165619196Y-117650000D02*
X170908403Y-117650000D01*
X163332100Y-108850000D02*
X162902000Y-109280100D01*
X173700000Y-110050000D02*
X173400000Y-110350000D01*
X173400000Y-110350000D02*
X169486397Y-110350000D01*
X171557203Y-117001200D02*
X172916297Y-117001200D01*
X173264697Y-117349600D02*
X174080400Y-117349600D01*
X168928830Y-110100000D02*
X167678830Y-108850000D01*
%TO.N,/Architecture/MCU/BTN_3*%
X179823206Y-116841600D02*
X173506440Y-116841600D01*
X173506440Y-116841600D02*
X173449767Y-116898273D01*
X180830986Y-117849380D02*
X179823206Y-116841600D01*
%TO.N,/Architecture/MCU/LPS_INT*%
X164276000Y-112625200D02*
X165332200Y-111569000D01*
X165332200Y-111569000D02*
X171944490Y-111569000D01*
X171944490Y-111569000D02*
X173025490Y-112650000D01*
%TO.N,/Architecture/MCU/SCL*%
X174155600Y-115876400D02*
X174182000Y-115850000D01*
X171782397Y-113450000D02*
X172550000Y-114217603D01*
X174155600Y-115876400D02*
X174180916Y-115851084D01*
X162294800Y-112574400D02*
X163470400Y-113750000D01*
X173055803Y-115876400D02*
X174155600Y-115876400D01*
X174180916Y-115851084D02*
X174180916Y-115340601D01*
X166270001Y-113750000D02*
X166570001Y-113450000D01*
X172550000Y-114217603D02*
X172550000Y-115370597D01*
X172550000Y-115370597D02*
X173055803Y-115876400D01*
X163470400Y-113750000D02*
X166270001Y-113750000D01*
X166570001Y-113450000D02*
X171782397Y-113450000D01*
%TO.N,/Architecture/MCU/BMI_INT*%
X175408400Y-104148800D02*
X175858400Y-104598800D01*
X173108000Y-104148800D02*
X175408400Y-104148800D01*
X172759600Y-104497200D02*
X173108000Y-104148800D01*
X170890812Y-104439631D02*
X170948381Y-104497200D01*
X170948381Y-104497200D02*
X172759600Y-104497200D01*
%TO.N,/Architecture/MCU/QSPI_IO0*%
X172092000Y-117799600D02*
X174907600Y-117799600D01*
X174907600Y-117799600D02*
X175045600Y-117661600D01*
X171743600Y-117451200D02*
X172092000Y-117799600D01*
%TO.N,/Architecture/MCU/CTP_RST*%
X173975396Y-114890601D02*
X173458799Y-114890601D01*
X176544624Y-114885376D02*
X173980621Y-114885376D01*
X173458799Y-114890601D02*
X173082600Y-115266800D01*
X173980621Y-114885376D02*
X173975396Y-114890601D01*
X177064200Y-114758800D02*
X176671200Y-114758800D01*
X177128400Y-114823000D02*
X177064200Y-114758800D01*
X176671200Y-114758800D02*
X176544624Y-114885376D01*
%TO.N,/Architecture/MCU/QSPI_CLK*%
X171620489Y-118842489D02*
X179051600Y-118842489D01*
X171550000Y-118772000D02*
X171620489Y-118842489D01*
%TO.N,/Architecture/MCU/QSPI_IO3*%
X178990708Y-119381600D02*
X179051600Y-119442492D01*
X171743600Y-120042000D02*
X172404000Y-119381600D01*
X171550000Y-120042000D02*
X171743600Y-120042000D01*
X172404000Y-119381600D02*
X178990708Y-119381600D01*
%TO.N,/Architecture/MCU/BTN_4*%
X165208461Y-115978000D02*
X169078000Y-115978000D01*
X180500024Y-116432218D02*
X180669929Y-116262313D01*
X169532218Y-116432218D02*
X180500024Y-116432218D01*
X163469014Y-117717447D02*
X165208461Y-115978000D01*
X169078000Y-115978000D02*
X169532218Y-116432218D01*
%TO.N,/Architecture/MCU/DISPLAY_LIGHT_IO*%
X168707907Y-108205696D02*
X173420096Y-108205696D01*
X173420096Y-108205696D02*
X173732000Y-108517600D01*
X175881596Y-108517600D02*
X176963996Y-109600000D01*
X173732000Y-108517600D02*
X175881596Y-108517600D01*
X162950000Y-108550000D02*
X168363603Y-108550000D01*
X179792800Y-109600000D02*
X180278000Y-110085200D01*
X159450000Y-109424800D02*
X162075200Y-109424800D01*
X162075200Y-109424800D02*
X162950000Y-108550000D01*
X176963996Y-109600000D02*
X179792800Y-109600000D01*
X168363603Y-108550000D02*
X168707907Y-108205696D01*
%TO.N,/Architecture/MCU/PMIC_INT*%
X166000000Y-113000000D02*
X171150000Y-113000000D01*
X171300000Y-113150000D02*
X175289603Y-113150000D01*
X171150000Y-113000000D02*
X171300000Y-113150000D01*
X175672003Y-113532400D02*
X180117600Y-113532400D01*
X175289603Y-113150000D02*
X175672003Y-113532400D01*
X180117600Y-113532400D02*
X181400000Y-112250000D01*
X165880200Y-113119800D02*
X166000000Y-113000000D01*
%TO.N,/Architecture/MCU/USB_RST*%
X182208400Y-100890400D02*
X182056000Y-101042800D01*
X174182000Y-101042800D02*
X173978800Y-101246000D01*
X172278284Y-101246000D02*
X173978800Y-101246000D01*
X172100533Y-101423751D02*
X172278284Y-101246000D01*
X171263621Y-101423751D02*
X172100533Y-101423751D01*
X170875000Y-101035130D02*
X171263621Y-101423751D01*
X182056000Y-101042800D02*
X174182000Y-101042800D01*
%TO.N,/Architecture/MCU/LRA_PWM*%
X163119603Y-106180800D02*
X170219200Y-106180800D01*
X171829848Y-106055251D02*
X175844749Y-106055251D01*
X171352552Y-106055251D02*
X171404803Y-106003000D01*
X171404803Y-106003000D02*
X171777597Y-106003000D01*
X180969064Y-105200000D02*
X181344800Y-105575736D01*
X181344800Y-105575736D02*
X181344800Y-105665600D01*
X157687601Y-106976999D02*
X157867602Y-107157000D01*
X170344749Y-106055251D02*
X171352552Y-106055251D01*
X175844749Y-106055251D02*
X176700000Y-105200000D01*
X162143403Y-107157000D02*
X163119603Y-106180800D01*
X170219200Y-106180800D02*
X170344749Y-106055251D01*
X171777597Y-106003000D02*
X171829848Y-106055251D01*
X176700000Y-105200000D02*
X180969064Y-105200000D01*
X157867602Y-107157000D02*
X162143403Y-107157000D01*
%TO.N,/Architecture/MCU/SWCLK*%
X179262000Y-101754000D02*
X183275200Y-101754000D01*
X179040000Y-101532000D02*
X179262000Y-101754000D01*
%TO.N,/Architecture/MCU/MCU_RST*%
X181751200Y-109374000D02*
X182462400Y-110085200D01*
X180278000Y-109374000D02*
X181751200Y-109374000D01*
%TO.N,/Architecture/MCU/LRA_EN*%
X158028804Y-105342600D02*
X157674341Y-105697063D01*
X163451197Y-105880800D02*
X162912997Y-105342600D01*
X182413600Y-104550000D02*
X181936600Y-104073000D01*
X169031101Y-105268899D02*
X168419200Y-105880800D01*
X171506403Y-105506000D02*
X171269302Y-105268899D01*
X176050000Y-105150000D02*
X173450000Y-105150000D01*
X168419200Y-105880800D02*
X163451197Y-105880800D01*
X181936600Y-104073000D02*
X177127000Y-104073000D01*
X177127000Y-104073000D02*
X176050000Y-105150000D01*
X182462400Y-104550000D02*
X182413600Y-104550000D01*
X162912997Y-105342600D02*
X158028804Y-105342600D01*
X173094000Y-105506000D02*
X171506403Y-105506000D01*
X171269302Y-105268899D02*
X169031101Y-105268899D01*
X173450000Y-105150000D02*
X173094000Y-105506000D01*
%TO.N,/Architecture/MCU/DISPLAY_RST*%
X183050000Y-111705049D02*
X183049998Y-111705049D01*
X183044949Y-111700000D02*
X181313603Y-111700000D01*
X181313603Y-111700000D02*
X179931203Y-113082400D01*
X179931203Y-113082400D02*
X175858400Y-113082400D01*
X183049998Y-111705049D02*
X183044949Y-111700000D01*
%TO.N,PGND1*%
X169809847Y-104258397D02*
X169547850Y-103996400D01*
X171655205Y-104000000D02*
X171604571Y-104000000D01*
X167774000Y-103996400D02*
X167679600Y-104090800D01*
X169547850Y-103996400D02*
X167774000Y-103996400D01*
X170704415Y-103989631D02*
X170435649Y-104258397D01*
X170435649Y-104258397D02*
X169809847Y-104258397D01*
X171604571Y-104000000D02*
X171594202Y-103989631D01*
X171594202Y-103989631D02*
X170704415Y-103989631D01*
%TO.N,/Architecture/MCU/CC1*%
X171656416Y-109356416D02*
X171556416Y-109356416D01*
X171800000Y-109500000D02*
X171656416Y-109356416D01*
X171951219Y-109507180D02*
X171944039Y-109500000D01*
X171944039Y-109500000D02*
X171800000Y-109500000D01*
X168750000Y-108683205D02*
X168750000Y-108800000D01*
X168866795Y-108800000D02*
X168750000Y-108683205D01*
X171556416Y-109356416D02*
X171000000Y-108800000D01*
X171000000Y-108800000D02*
X168866795Y-108800000D01*
%TO.N,/Architecture/MCU/LEDK1*%
X165640410Y-110339200D02*
X159704000Y-110339200D01*
X170700000Y-111100000D02*
X166401210Y-111100000D01*
X166401210Y-111100000D02*
X165640410Y-110339200D01*
%TO.N,/Architecture/MCU/LEDK2*%
X160812032Y-115317600D02*
X161985216Y-114144416D01*
X160618400Y-115317600D02*
X160812032Y-115317600D01*
X161985216Y-114144416D02*
X171840416Y-114144416D01*
X171840416Y-114144416D02*
X171946800Y-114250800D01*
%TD*%
%TA.AperFunction,Conductor*%
%TO.N,GND*%
G36*
X167929345Y-116231529D02*
G01*
X167940030Y-116230291D01*
X167962289Y-116241203D01*
X167986067Y-116248185D01*
X167993108Y-116256311D01*
X168002767Y-116261046D01*
X168015593Y-116282260D01*
X168031822Y-116300989D01*
X168033438Y-116311774D01*
X168038917Y-116320836D01*
X168042981Y-116355896D01*
X168042603Y-116369660D01*
X168041100Y-116375273D01*
X168041100Y-116424557D01*
X168041053Y-116426273D01*
X168030799Y-116457955D01*
X168021415Y-116489916D01*
X168020082Y-116491070D01*
X168019540Y-116492748D01*
X168004781Y-116510558D01*
X167803358Y-116711981D01*
X167742035Y-116745466D01*
X167715677Y-116748300D01*
X165107680Y-116748300D01*
X165107672Y-116748299D01*
X165093238Y-116748299D01*
X165091784Y-116748299D01*
X165080315Y-116744931D01*
X165077606Y-116744598D01*
X165077602Y-116744597D01*
X165077709Y-116744166D01*
X165024745Y-116728614D01*
X164978990Y-116675810D01*
X164969046Y-116606652D01*
X164998071Y-116543096D01*
X165004103Y-116536618D01*
X165275902Y-116264819D01*
X165337225Y-116231334D01*
X165363583Y-116228500D01*
X167919028Y-116228500D01*
X167929345Y-116231529D01*
G37*
%TD.AperFunction*%
%TA.AperFunction,Conductor*%
G36*
X171856406Y-111839185D02*
G01*
X171877048Y-111855819D01*
X172588671Y-112567441D01*
X172599795Y-112587813D01*
X172614684Y-112605627D01*
X172617865Y-112620906D01*
X172622156Y-112628764D01*
X172624023Y-112639663D01*
X172624990Y-112647359D01*
X172624990Y-112702727D01*
X172638089Y-112751614D01*
X172639148Y-112760041D01*
X172634864Y-112786480D01*
X172634227Y-112813258D01*
X172629361Y-112820446D01*
X172627974Y-112829012D01*
X172610079Y-112848935D01*
X172595064Y-112871120D01*
X172587084Y-112874536D01*
X172581286Y-112880993D01*
X172555457Y-112888079D01*
X172530835Y-112898623D01*
X172516115Y-112899500D01*
X171455123Y-112899500D01*
X171388084Y-112879815D01*
X171367442Y-112863181D01*
X171291897Y-112787636D01*
X171199829Y-112749500D01*
X171199828Y-112749500D01*
X166064216Y-112749500D01*
X166061903Y-112749499D01*
X166061859Y-112749486D01*
X166029864Y-112745274D01*
X165994271Y-112735737D01*
X165932927Y-112719300D01*
X165827473Y-112719300D01*
X165725613Y-112746593D01*
X165725610Y-112746594D01*
X165634285Y-112799321D01*
X165559721Y-112873885D01*
X165506994Y-112965210D01*
X165506993Y-112965213D01*
X165479700Y-113067073D01*
X165479700Y-113172527D01*
X165506993Y-113274387D01*
X165526679Y-113308485D01*
X165529575Y-113313500D01*
X165546048Y-113381400D01*
X165523196Y-113447427D01*
X165468274Y-113490618D01*
X165422188Y-113499500D01*
X165021690Y-113499500D01*
X164954651Y-113479815D01*
X164908896Y-113427011D01*
X164898952Y-113357853D01*
X164901915Y-113343407D01*
X164903206Y-113338588D01*
X164903207Y-113338587D01*
X164930500Y-113236727D01*
X164930500Y-113131273D01*
X164903207Y-113029413D01*
X164850480Y-112938087D01*
X164775913Y-112863520D01*
X164729151Y-112836522D01*
X164680936Y-112785956D01*
X164667703Y-112717457D01*
X164668682Y-112707102D01*
X164676500Y-112677927D01*
X164676500Y-112624468D01*
X164677051Y-112618644D01*
X164687926Y-112591409D01*
X164696185Y-112563284D01*
X164702077Y-112555971D01*
X164702962Y-112553757D01*
X164705079Y-112552246D01*
X164712819Y-112542642D01*
X165399642Y-111855819D01*
X165460965Y-111822334D01*
X165487323Y-111819500D01*
X171789367Y-111819500D01*
X171856406Y-111839185D01*
G37*
%TD.AperFunction*%
%TA.AperFunction,Conductor*%
G36*
X172565718Y-89980401D02*
G01*
X173384857Y-90018272D01*
X173390568Y-90018668D01*
X174207072Y-90094328D01*
X174212733Y-90094985D01*
X175024881Y-90208274D01*
X175030526Y-90209195D01*
X175526061Y-90301827D01*
X175836585Y-90359874D01*
X175842188Y-90361056D01*
X176640426Y-90548800D01*
X176645910Y-90550225D01*
X177434621Y-90774633D01*
X177440094Y-90776327D01*
X178217609Y-91036923D01*
X178222946Y-91038850D01*
X178832704Y-91275071D01*
X178987621Y-91335087D01*
X178992913Y-91337280D01*
X179743041Y-91668494D01*
X179748175Y-91670903D01*
X180311991Y-91951651D01*
X180482242Y-92036426D01*
X180487309Y-92039097D01*
X180791007Y-92208255D01*
X181203679Y-92438112D01*
X181208594Y-92441000D01*
X181905810Y-92872697D01*
X181910567Y-92875797D01*
X182587097Y-93339231D01*
X182591737Y-93342570D01*
X183246111Y-93836730D01*
X183250601Y-93840287D01*
X183881445Y-94364134D01*
X183885766Y-94367894D01*
X184491754Y-94920324D01*
X184495897Y-94924280D01*
X185075719Y-95504102D01*
X185079675Y-95508245D01*
X185632105Y-96114233D01*
X185635865Y-96118554D01*
X186159712Y-96749398D01*
X186163269Y-96753888D01*
X186657429Y-97408262D01*
X186660774Y-97412910D01*
X187030131Y-97952106D01*
X187124188Y-98089411D01*
X187127308Y-98094200D01*
X187207570Y-98223827D01*
X187558992Y-98791393D01*
X187561894Y-98796332D01*
X187960902Y-99512690D01*
X187963573Y-99517757D01*
X188196328Y-99985191D01*
X188309461Y-100212393D01*
X188329083Y-100251798D01*
X188331513Y-100256977D01*
X188368033Y-100339685D01*
X188662719Y-101007086D01*
X188664912Y-101012378D01*
X188961140Y-101777028D01*
X188963085Y-101782416D01*
X189223672Y-102559906D01*
X189225366Y-102565378D01*
X189449766Y-103354059D01*
X189451206Y-103359603D01*
X189638942Y-104157809D01*
X189640125Y-104163414D01*
X189790803Y-104969469D01*
X189791725Y-104975123D01*
X189905012Y-105787252D01*
X189905672Y-105792942D01*
X189981330Y-106609430D01*
X189981727Y-106615144D01*
X190019599Y-107434281D01*
X190019731Y-107440008D01*
X190019731Y-108259991D01*
X190019599Y-108265718D01*
X189981727Y-109084855D01*
X189981330Y-109090569D01*
X189905672Y-109907057D01*
X189905012Y-109912747D01*
X189791725Y-110724876D01*
X189790803Y-110730530D01*
X189640125Y-111536585D01*
X189638942Y-111542190D01*
X189451206Y-112340396D01*
X189449766Y-112345940D01*
X189225366Y-113134621D01*
X189223672Y-113140093D01*
X188963085Y-113917583D01*
X188961140Y-113922971D01*
X188664912Y-114687621D01*
X188662719Y-114692913D01*
X188331517Y-115443015D01*
X188329083Y-115448201D01*
X187963573Y-116182242D01*
X187960902Y-116187309D01*
X187561894Y-116903667D01*
X187558992Y-116908606D01*
X187127315Y-117605789D01*
X187124188Y-117610588D01*
X186660775Y-118287087D01*
X186657429Y-118291737D01*
X186163269Y-118946111D01*
X186159712Y-118950601D01*
X185635865Y-119581445D01*
X185632105Y-119585766D01*
X185079675Y-120191754D01*
X185075719Y-120195897D01*
X184495897Y-120775719D01*
X184491754Y-120779675D01*
X183885766Y-121332105D01*
X183881445Y-121335865D01*
X183250601Y-121859712D01*
X183246111Y-121863269D01*
X182591737Y-122357429D01*
X182587087Y-122360775D01*
X181910588Y-122824188D01*
X181905789Y-122827315D01*
X181208606Y-123258992D01*
X181203667Y-123261894D01*
X180487309Y-123660902D01*
X180482242Y-123663573D01*
X179748201Y-124029083D01*
X179743015Y-124031517D01*
X178992913Y-124362719D01*
X178987621Y-124364912D01*
X178222971Y-124661140D01*
X178217583Y-124663085D01*
X177440093Y-124923672D01*
X177434621Y-124925366D01*
X176645940Y-125149766D01*
X176640396Y-125151206D01*
X175842190Y-125338942D01*
X175836585Y-125340125D01*
X175030530Y-125490803D01*
X175024876Y-125491725D01*
X174212747Y-125605012D01*
X174207057Y-125605672D01*
X173390569Y-125681330D01*
X173384855Y-125681727D01*
X172565718Y-125719599D01*
X172559991Y-125719731D01*
X171740009Y-125719731D01*
X171734282Y-125719599D01*
X170915144Y-125681727D01*
X170909430Y-125681330D01*
X170092942Y-125605672D01*
X170087252Y-125605012D01*
X169275123Y-125491725D01*
X169269469Y-125490803D01*
X168463414Y-125340125D01*
X168457809Y-125338942D01*
X167659603Y-125151206D01*
X167654059Y-125149766D01*
X166865378Y-124925366D01*
X166859906Y-124923672D01*
X166082416Y-124663085D01*
X166077028Y-124661140D01*
X165312378Y-124364912D01*
X165307086Y-124362719D01*
X164556984Y-124031517D01*
X164551798Y-124029083D01*
X163817757Y-123663573D01*
X163812690Y-123660902D01*
X163096332Y-123261894D01*
X163091394Y-123258992D01*
X162890450Y-123134573D01*
X162890449Y-123134573D01*
X162733304Y-123037273D01*
X170479500Y-123037273D01*
X170479500Y-123142727D01*
X170506793Y-123244587D01*
X170559520Y-123335913D01*
X170634087Y-123410480D01*
X170725413Y-123463207D01*
X170827273Y-123490500D01*
X170827275Y-123490500D01*
X170932725Y-123490500D01*
X170932727Y-123490500D01*
X171034587Y-123463207D01*
X171125913Y-123410480D01*
X171200480Y-123335913D01*
X171253207Y-123244587D01*
X171280500Y-123142727D01*
X171280500Y-123037273D01*
X172511500Y-123037273D01*
X172511500Y-123142727D01*
X172538793Y-123244587D01*
X172591520Y-123335913D01*
X172666087Y-123410480D01*
X172757413Y-123463207D01*
X172859273Y-123490500D01*
X172859275Y-123490500D01*
X172964725Y-123490500D01*
X172964727Y-123490500D01*
X173066587Y-123463207D01*
X173157913Y-123410480D01*
X173232480Y-123335913D01*
X173285207Y-123244587D01*
X173312500Y-123142727D01*
X173312500Y-123037273D01*
X173285207Y-122935413D01*
X173232480Y-122844087D01*
X173157913Y-122769520D01*
X173066587Y-122716793D01*
X172964727Y-122689500D01*
X172859273Y-122689500D01*
X172757413Y-122716793D01*
X172757410Y-122716794D01*
X172666085Y-122769521D01*
X172591521Y-122844085D01*
X172538794Y-122935410D01*
X172538793Y-122935413D01*
X172511500Y-123037273D01*
X171280500Y-123037273D01*
X171253207Y-122935413D01*
X171200480Y-122844087D01*
X171125913Y-122769520D01*
X171034587Y-122716793D01*
X170932727Y-122689500D01*
X170827273Y-122689500D01*
X170725413Y-122716793D01*
X170725410Y-122716794D01*
X170634085Y-122769521D01*
X170559521Y-122844085D01*
X170506794Y-122935410D01*
X170506793Y-122935413D01*
X170479500Y-123037273D01*
X162733304Y-123037273D01*
X162394200Y-122827308D01*
X162389422Y-122824195D01*
X161712910Y-122360774D01*
X161708262Y-122357429D01*
X161053888Y-121863269D01*
X161049398Y-121859712D01*
X160420636Y-121337594D01*
X160418555Y-121335866D01*
X160418554Y-121335865D01*
X160414233Y-121332105D01*
X160324522Y-121250323D01*
X162690158Y-121250323D01*
X162690158Y-121401854D01*
X162729377Y-121548225D01*
X162767260Y-121613839D01*
X162805143Y-121679454D01*
X162912293Y-121786604D01*
X163043523Y-121862370D01*
X163189892Y-121901589D01*
X163189894Y-121901589D01*
X163341422Y-121901589D01*
X163341424Y-121901589D01*
X163487793Y-121862370D01*
X163619023Y-121786604D01*
X163726173Y-121679454D01*
X163801939Y-121548224D01*
X163841158Y-121401855D01*
X163841158Y-121259273D01*
X178353500Y-121259273D01*
X178353500Y-121364727D01*
X178380793Y-121466587D01*
X178433520Y-121557913D01*
X178508087Y-121632480D01*
X178599413Y-121685207D01*
X178701273Y-121712500D01*
X178701275Y-121712500D01*
X178806725Y-121712500D01*
X178806727Y-121712500D01*
X178908587Y-121685207D01*
X178999913Y-121632480D01*
X179074480Y-121557913D01*
X179127207Y-121466587D01*
X179154500Y-121364727D01*
X179154500Y-121259273D01*
X179152102Y-121250323D01*
X180458842Y-121250323D01*
X180458842Y-121401854D01*
X180498061Y-121548225D01*
X180535944Y-121613839D01*
X180573827Y-121679454D01*
X180680977Y-121786604D01*
X180812207Y-121862370D01*
X180958576Y-121901589D01*
X180958578Y-121901589D01*
X181110106Y-121901589D01*
X181110108Y-121901589D01*
X181256477Y-121862370D01*
X181387707Y-121786604D01*
X181494857Y-121679454D01*
X181570623Y-121548224D01*
X181609842Y-121401855D01*
X181609842Y-121250323D01*
X181570623Y-121103954D01*
X181494857Y-120972724D01*
X181387707Y-120865574D01*
X181322092Y-120827691D01*
X181256478Y-120789808D01*
X181183292Y-120770198D01*
X181110108Y-120750589D01*
X180958576Y-120750589D01*
X180812205Y-120789808D01*
X180680977Y-120865574D01*
X180680974Y-120865576D01*
X180573829Y-120972721D01*
X180573827Y-120972724D01*
X180498061Y-121103952D01*
X180458842Y-121250323D01*
X179152102Y-121250323D01*
X179127207Y-121157413D01*
X179074480Y-121066087D01*
X178999913Y-120991520D01*
X178908587Y-120938793D01*
X178806727Y-120911500D01*
X178701273Y-120911500D01*
X178599413Y-120938793D01*
X178599410Y-120938794D01*
X178508085Y-120991521D01*
X178433521Y-121066085D01*
X178380794Y-121157410D01*
X178380793Y-121157413D01*
X178353500Y-121259273D01*
X163841158Y-121259273D01*
X163841158Y-121250323D01*
X163801939Y-121103954D01*
X163726173Y-120972724D01*
X163619023Y-120865574D01*
X163553408Y-120827691D01*
X163487794Y-120789808D01*
X163414608Y-120770198D01*
X163341424Y-120750589D01*
X163189892Y-120750589D01*
X163043521Y-120789808D01*
X162912293Y-120865574D01*
X162912290Y-120865576D01*
X162805145Y-120972721D01*
X162805143Y-120972724D01*
X162729377Y-121103952D01*
X162690158Y-121250323D01*
X160324522Y-121250323D01*
X159808245Y-120779675D01*
X159804102Y-120775719D01*
X159224280Y-120195897D01*
X159220324Y-120191754D01*
X158667894Y-119585766D01*
X158664134Y-119581445D01*
X158504965Y-119389765D01*
X158140283Y-118950596D01*
X158136730Y-118946111D01*
X158121986Y-118926587D01*
X157642563Y-118291727D01*
X157639224Y-118287087D01*
X157175797Y-117610567D01*
X157172697Y-117605810D01*
X156741000Y-116908594D01*
X156738105Y-116903667D01*
X156713394Y-116859303D01*
X156489846Y-116457955D01*
X156339097Y-116187309D01*
X156336426Y-116182242D01*
X156173272Y-115854586D01*
X155970903Y-115448175D01*
X155968494Y-115443041D01*
X155669622Y-114766160D01*
X155637280Y-114692913D01*
X155635087Y-114687621D01*
X155535157Y-114429673D01*
X155338850Y-113922946D01*
X155336923Y-113917609D01*
X155076327Y-113140093D01*
X155074633Y-113134621D01*
X155029188Y-112974900D01*
X154850225Y-112345910D01*
X154848800Y-112340426D01*
X154661056Y-111542188D01*
X154659874Y-111536585D01*
X154648251Y-111474406D01*
X154643665Y-111449875D01*
X158135100Y-111449875D01*
X158135100Y-111555329D01*
X158162393Y-111657189D01*
X158215120Y-111748515D01*
X158289687Y-111823082D01*
X158381013Y-111875809D01*
X158482873Y-111903102D01*
X158482875Y-111903102D01*
X158588325Y-111903102D01*
X158588327Y-111903102D01*
X158690187Y-111875809D01*
X158781513Y-111823082D01*
X158856080Y-111748515D01*
X158908807Y-111657189D01*
X158936100Y-111555329D01*
X158936100Y-111449875D01*
X160471900Y-111449875D01*
X160471900Y-111555329D01*
X160499193Y-111657189D01*
X160551920Y-111748515D01*
X160626487Y-111823082D01*
X160717813Y-111875809D01*
X160819673Y-111903102D01*
X160819675Y-111903102D01*
X160925125Y-111903102D01*
X160925127Y-111903102D01*
X161026987Y-111875809D01*
X161118313Y-111823082D01*
X161192880Y-111748515D01*
X161245607Y-111657189D01*
X161272900Y-111555329D01*
X161272900Y-111449875D01*
X161245607Y-111348015D01*
X161192880Y-111256689D01*
X161118313Y-111182122D01*
X161026987Y-111129395D01*
X160925127Y-111102102D01*
X160819673Y-111102102D01*
X160717813Y-111129395D01*
X160717810Y-111129396D01*
X160626485Y-111182123D01*
X160551921Y-111256687D01*
X160499194Y-111348012D01*
X160499193Y-111348015D01*
X160471900Y-111449875D01*
X158936100Y-111449875D01*
X158908807Y-111348015D01*
X158856080Y-111256689D01*
X158781513Y-111182122D01*
X158690187Y-111129395D01*
X158588327Y-111102102D01*
X158482873Y-111102102D01*
X158381013Y-111129395D01*
X158381010Y-111129396D01*
X158289685Y-111182123D01*
X158215121Y-111256687D01*
X158162394Y-111348012D01*
X158162393Y-111348015D01*
X158135100Y-111449875D01*
X154643665Y-111449875D01*
X154509195Y-110730526D01*
X154508274Y-110724876D01*
X154506535Y-110712406D01*
X154394985Y-109912733D01*
X154394327Y-109907057D01*
X154393904Y-109902497D01*
X154318668Y-109090568D01*
X154318272Y-109084855D01*
X154316823Y-109053520D01*
X154315850Y-109032473D01*
X156460702Y-109032473D01*
X156460702Y-109137927D01*
X156487995Y-109239787D01*
X156540722Y-109331113D01*
X156615289Y-109405680D01*
X156706615Y-109458407D01*
X156808475Y-109485700D01*
X156808477Y-109485700D01*
X156913927Y-109485700D01*
X156913929Y-109485700D01*
X157015789Y-109458407D01*
X157107115Y-109405680D01*
X157140776Y-109372019D01*
X157202099Y-109338534D01*
X157228457Y-109335700D01*
X157543877Y-109335700D01*
X157610916Y-109355385D01*
X157631558Y-109372019D01*
X157956529Y-109696989D01*
X158290635Y-110031095D01*
X158290636Y-110031097D01*
X158361103Y-110101564D01*
X158370951Y-110105643D01*
X158453173Y-110139701D01*
X158453174Y-110139701D01*
X158567262Y-110139701D01*
X158567270Y-110139700D01*
X159181428Y-110139700D01*
X159248467Y-110159385D01*
X159294222Y-110212189D01*
X159304367Y-110279884D01*
X159303500Y-110286470D01*
X159303500Y-110286473D01*
X159303500Y-110391927D01*
X159330793Y-110493787D01*
X159383520Y-110585113D01*
X159458087Y-110659680D01*
X159549413Y-110712407D01*
X159651273Y-110739700D01*
X159651275Y-110739700D01*
X159756725Y-110739700D01*
X159756727Y-110739700D01*
X159858587Y-110712407D01*
X159949913Y-110659680D01*
X159983574Y-110626019D01*
X160044897Y-110592534D01*
X160071255Y-110589700D01*
X165485287Y-110589700D01*
X165552326Y-110609385D01*
X165572968Y-110626019D01*
X165854864Y-110907915D01*
X166053769Y-111106819D01*
X166087254Y-111168142D01*
X166082270Y-111237833D01*
X166040399Y-111293767D01*
X165974934Y-111318184D01*
X165966088Y-111318500D01*
X165282370Y-111318500D01*
X165190302Y-111356636D01*
X165190301Y-111356637D01*
X164358558Y-112188381D01*
X164331630Y-112203084D01*
X164305812Y-112219677D01*
X164299611Y-112220568D01*
X164297235Y-112221866D01*
X164270877Y-112224700D01*
X164241205Y-112224700D01*
X164174166Y-112205015D01*
X164128411Y-112152211D01*
X164118467Y-112083053D01*
X164121430Y-112068606D01*
X164123205Y-112061981D01*
X164123207Y-112061978D01*
X164150500Y-111960118D01*
X164150500Y-111854664D01*
X164123207Y-111752804D01*
X164070480Y-111661478D01*
X163995913Y-111586911D01*
X163904587Y-111534184D01*
X163802727Y-111506891D01*
X163697273Y-111506891D01*
X163595413Y-111534184D01*
X163595410Y-111534185D01*
X163504085Y-111586912D01*
X163429521Y-111661476D01*
X163376794Y-111752801D01*
X163376793Y-111752804D01*
X163349500Y-111854664D01*
X163349500Y-111960118D01*
X163372927Y-112047547D01*
X163376793Y-112061977D01*
X163376794Y-112061980D01*
X163386191Y-112078256D01*
X163429520Y-112153304D01*
X163504087Y-112227871D01*
X163595413Y-112280598D01*
X163697273Y-112307891D01*
X163697275Y-112307891D01*
X163784795Y-112307891D01*
X163851834Y-112327576D01*
X163897589Y-112380380D01*
X163907533Y-112449538D01*
X163904570Y-112463985D01*
X163902794Y-112470609D01*
X163902793Y-112470613D01*
X163875500Y-112572473D01*
X163875500Y-112677927D01*
X163902793Y-112779787D01*
X163955520Y-112871113D01*
X164030087Y-112945680D01*
X164076848Y-112972677D01*
X164125062Y-113023242D01*
X164138286Y-113091849D01*
X164134623Y-113112153D01*
X164129500Y-113131273D01*
X164129500Y-113236727D01*
X164154985Y-113331841D01*
X164158085Y-113343407D01*
X164156422Y-113413257D01*
X164117259Y-113471119D01*
X164053031Y-113498623D01*
X164038310Y-113499500D01*
X163625523Y-113499500D01*
X163558484Y-113479815D01*
X163537842Y-113463181D01*
X162731619Y-112656958D01*
X162698134Y-112595635D01*
X162695300Y-112569277D01*
X162695300Y-112521675D01*
X162695300Y-112521673D01*
X162668007Y-112419813D01*
X162615280Y-112328487D01*
X162540713Y-112253920D01*
X162456007Y-112205015D01*
X162449389Y-112201194D01*
X162449388Y-112201193D01*
X162449387Y-112201193D01*
X162347527Y-112173900D01*
X162242073Y-112173900D01*
X162140213Y-112201193D01*
X162140210Y-112201194D01*
X162048885Y-112253921D01*
X161974321Y-112328485D01*
X161921594Y-112419810D01*
X161921593Y-112419813D01*
X161894300Y-112521673D01*
X161894300Y-112627127D01*
X161921593Y-112728987D01*
X161974320Y-112820313D01*
X162048887Y-112894880D01*
X162100934Y-112924929D01*
X162149148Y-112975495D01*
X162162372Y-113044102D01*
X162136404Y-113108967D01*
X162079490Y-113149495D01*
X162071027Y-113152090D01*
X161962411Y-113181193D01*
X161962410Y-113181194D01*
X161871085Y-113233921D01*
X161796521Y-113308485D01*
X161743794Y-113399810D01*
X161743793Y-113399813D01*
X161716500Y-113501673D01*
X161716500Y-113607127D01*
X161743793Y-113708987D01*
X161779717Y-113771210D01*
X161796521Y-113800314D01*
X161798108Y-113801901D01*
X161799020Y-113803571D01*
X161801469Y-113806763D01*
X161800971Y-113807144D01*
X161802446Y-113809846D01*
X161809694Y-113815272D01*
X161818928Y-113840031D01*
X161831593Y-113863224D01*
X161830947Y-113872253D01*
X161834111Y-113880736D01*
X161828494Y-113906556D01*
X161826609Y-113932916D01*
X161820790Y-113941969D01*
X161819259Y-113949009D01*
X161798108Y-113977263D01*
X161772851Y-114002520D01*
X160869344Y-114906025D01*
X160808021Y-114939510D01*
X160749572Y-114938119D01*
X160671127Y-114917100D01*
X160565673Y-114917100D01*
X160463813Y-114944393D01*
X160463810Y-114944394D01*
X160372485Y-114997121D01*
X160297921Y-115071685D01*
X160245194Y-115163010D01*
X160245193Y-115163013D01*
X160217900Y-115264873D01*
X160217900Y-115370327D01*
X160245193Y-115472187D01*
X160297920Y-115563513D01*
X160372487Y-115638080D01*
X160463813Y-115690807D01*
X160565673Y-115718100D01*
X160565675Y-115718100D01*
X160671125Y-115718100D01*
X160671127Y-115718100D01*
X160772987Y-115690807D01*
X160864313Y-115638080D01*
X160938880Y-115563513D01*
X160955990Y-115533875D01*
X160975692Y-115508199D01*
X162052657Y-114431235D01*
X162113980Y-114397750D01*
X162140338Y-114394916D01*
X171495957Y-114394916D01*
X171562996Y-114414601D01*
X171603342Y-114456913D01*
X171626320Y-114496713D01*
X171700887Y-114571280D01*
X171792213Y-114624007D01*
X171894073Y-114651300D01*
X171894075Y-114651300D01*
X171999525Y-114651300D01*
X171999527Y-114651300D01*
X172101387Y-114624007D01*
X172113500Y-114617013D01*
X172181397Y-114600540D01*
X172247425Y-114623391D01*
X172290617Y-114678311D01*
X172299500Y-114724400D01*
X172299500Y-115420426D01*
X172337636Y-115512494D01*
X172795179Y-115970037D01*
X172828664Y-116031360D01*
X172823680Y-116101052D01*
X172781808Y-116156985D01*
X172716344Y-116181402D01*
X172707498Y-116181718D01*
X169687341Y-116181718D01*
X169620302Y-116162033D01*
X169599660Y-116145399D01*
X169219897Y-115765636D01*
X169127829Y-115727500D01*
X169127828Y-115727500D01*
X165258291Y-115727500D01*
X165258289Y-115727499D01*
X165158634Y-115727499D01*
X165138411Y-115735876D01*
X165121391Y-115742925D01*
X165121388Y-115742926D01*
X165066563Y-115765636D01*
X165066562Y-115765637D01*
X163551572Y-117280628D01*
X163490249Y-117314113D01*
X163463891Y-117316947D01*
X163416287Y-117316947D01*
X163314427Y-117344240D01*
X163314424Y-117344241D01*
X163223099Y-117396968D01*
X163148535Y-117471532D01*
X163095808Y-117562857D01*
X163095807Y-117562860D01*
X163068514Y-117664720D01*
X163068514Y-117770176D01*
X163069381Y-117776763D01*
X163058615Y-117845798D01*
X163012234Y-117898054D01*
X162946442Y-117916947D01*
X161322570Y-117916947D01*
X161255531Y-117897262D01*
X161234889Y-117880628D01*
X159652159Y-116297898D01*
X159618674Y-116236575D01*
X159623658Y-116166883D01*
X159632447Y-116148227D01*
X159670807Y-116081787D01*
X159698100Y-115979927D01*
X159698100Y-115874473D01*
X159670807Y-115772613D01*
X159618080Y-115681287D01*
X159543513Y-115606720D01*
X159468676Y-115563513D01*
X159452189Y-115553994D01*
X159452188Y-115553993D01*
X159452187Y-115553993D01*
X159350327Y-115526700D01*
X159244873Y-115526700D01*
X159143013Y-115553993D01*
X159143010Y-115553994D01*
X159051685Y-115606721D01*
X158977121Y-115681285D01*
X158924394Y-115772610D01*
X158924393Y-115772613D01*
X158897100Y-115874473D01*
X158897100Y-115979927D01*
X158924393Y-116081787D01*
X158961119Y-116145399D01*
X158977121Y-116173114D01*
X159010781Y-116206774D01*
X159044266Y-116268097D01*
X159047100Y-116294455D01*
X159047100Y-116347429D01*
X159085236Y-116439497D01*
X160490012Y-117844273D01*
X160523497Y-117905596D01*
X160518513Y-117975288D01*
X160476641Y-118031221D01*
X160411177Y-118055638D01*
X160342904Y-118040786D01*
X160340331Y-118039341D01*
X160278480Y-118003631D01*
X160278477Y-118003630D01*
X160132108Y-117964411D01*
X159980576Y-117964411D01*
X159834205Y-118003630D01*
X159702977Y-118079396D01*
X159702974Y-118079398D01*
X159595829Y-118186543D01*
X159595827Y-118186546D01*
X159520061Y-118317774D01*
X159487946Y-118437632D01*
X159480842Y-118464145D01*
X159480842Y-118615677D01*
X159481307Y-118617413D01*
X159520061Y-118762047D01*
X159536063Y-118789762D01*
X159595827Y-118893276D01*
X159702977Y-119000426D01*
X159834207Y-119076192D01*
X159980576Y-119115411D01*
X159980578Y-119115411D01*
X160132106Y-119115411D01*
X160132108Y-119115411D01*
X160278477Y-119076192D01*
X160409707Y-119000426D01*
X160516857Y-118893276D01*
X160592623Y-118762046D01*
X160604084Y-118719273D01*
X171149500Y-118719273D01*
X171149500Y-118824727D01*
X171176793Y-118926587D01*
X171229520Y-119017913D01*
X171304087Y-119092480D01*
X171395413Y-119145207D01*
X171497273Y-119172500D01*
X171497275Y-119172500D01*
X171602725Y-119172500D01*
X171602727Y-119172500D01*
X171704587Y-119145207D01*
X171766257Y-119109602D01*
X171781745Y-119105451D01*
X171793322Y-119098012D01*
X171828257Y-119092989D01*
X172038988Y-119092989D01*
X172106027Y-119112674D01*
X172151782Y-119165478D01*
X172161726Y-119234636D01*
X172132701Y-119298192D01*
X172126684Y-119304654D01*
X171849893Y-119581445D01*
X171800919Y-119630419D01*
X171739596Y-119663903D01*
X171681145Y-119662512D01*
X171602727Y-119641500D01*
X171497273Y-119641500D01*
X171395413Y-119668793D01*
X171395410Y-119668794D01*
X171304085Y-119721521D01*
X171229521Y-119796085D01*
X171176794Y-119887410D01*
X171176793Y-119887413D01*
X171149500Y-119989273D01*
X171149500Y-120094727D01*
X171176793Y-120196587D01*
X171229520Y-120287913D01*
X171304087Y-120362480D01*
X171395413Y-120415207D01*
X171497273Y-120442500D01*
X171497275Y-120442500D01*
X171602725Y-120442500D01*
X171602727Y-120442500D01*
X171704587Y-120415207D01*
X171795913Y-120362480D01*
X171870480Y-120287913D01*
X171887634Y-120258199D01*
X171907336Y-120232523D01*
X172471441Y-119668419D01*
X172532764Y-119634934D01*
X172559122Y-119632100D01*
X178313424Y-119632100D01*
X178380463Y-119651785D01*
X178426218Y-119704589D01*
X178436162Y-119773747D01*
X178420811Y-119818100D01*
X178380794Y-119887410D01*
X178380793Y-119887413D01*
X178353500Y-119989273D01*
X178353500Y-120094727D01*
X178380793Y-120196587D01*
X178433520Y-120287913D01*
X178508087Y-120362480D01*
X178599413Y-120415207D01*
X178701273Y-120442500D01*
X178701275Y-120442500D01*
X178806725Y-120442500D01*
X178806727Y-120442500D01*
X178908587Y-120415207D01*
X178999913Y-120362480D01*
X179074480Y-120287913D01*
X179127207Y-120196587D01*
X179154500Y-120094727D01*
X179154500Y-119989273D01*
X179145772Y-119956699D01*
X179147435Y-119886853D01*
X179186597Y-119828991D01*
X179203548Y-119817222D01*
X179206184Y-119815699D01*
X179206187Y-119815699D01*
X179297513Y-119762972D01*
X179372080Y-119688405D01*
X179424807Y-119597079D01*
X179452100Y-119495219D01*
X179452100Y-119389765D01*
X179424807Y-119287905D01*
X179376646Y-119204488D01*
X179360174Y-119136590D01*
X179376645Y-119080494D01*
X179424807Y-118997076D01*
X179452100Y-118895216D01*
X179452100Y-118789762D01*
X179424807Y-118687902D01*
X179372080Y-118596576D01*
X179297513Y-118522009D01*
X179206187Y-118469282D01*
X179187015Y-118464145D01*
X183668158Y-118464145D01*
X183668158Y-118615677D01*
X183668623Y-118617413D01*
X183707377Y-118762047D01*
X183723379Y-118789762D01*
X183783143Y-118893276D01*
X183890293Y-119000426D01*
X184021523Y-119076192D01*
X184167892Y-119115411D01*
X184167894Y-119115411D01*
X184319422Y-119115411D01*
X184319424Y-119115411D01*
X184465793Y-119076192D01*
X184597023Y-119000426D01*
X184704173Y-118893276D01*
X184779939Y-118762046D01*
X184819158Y-118615677D01*
X184819158Y-118464145D01*
X184779939Y-118317776D01*
X184704173Y-118186546D01*
X184597023Y-118079396D01*
X184519791Y-118034806D01*
X184465794Y-118003630D01*
X184360018Y-117975288D01*
X184319424Y-117964411D01*
X184167892Y-117964411D01*
X184021521Y-118003630D01*
X183890293Y-118079396D01*
X183890290Y-118079398D01*
X183783145Y-118186543D01*
X183783143Y-118186546D01*
X183707377Y-118317774D01*
X183675262Y-118437632D01*
X183668158Y-118464145D01*
X179187015Y-118464145D01*
X179104327Y-118441989D01*
X178998873Y-118441989D01*
X178897013Y-118469282D01*
X178897010Y-118469283D01*
X178805685Y-118522010D01*
X178772026Y-118555670D01*
X178710703Y-118589155D01*
X178684345Y-118591989D01*
X176529785Y-118591989D01*
X176462746Y-118572304D01*
X176416991Y-118519500D01*
X176407047Y-118450342D01*
X176420259Y-118412164D01*
X176420096Y-118412097D01*
X176421235Y-118409344D01*
X176422396Y-118405993D01*
X176422867Y-118405175D01*
X176423207Y-118404587D01*
X176450500Y-118302727D01*
X176450500Y-118197273D01*
X176423207Y-118095413D01*
X176370480Y-118004087D01*
X176295913Y-117929520D01*
X176224031Y-117888019D01*
X176204589Y-117876794D01*
X176204588Y-117876793D01*
X176204587Y-117876793D01*
X176102727Y-117849500D01*
X175997273Y-117849500D01*
X175895413Y-117876793D01*
X175895410Y-117876794D01*
X175804085Y-117929521D01*
X175729521Y-118004085D01*
X175676794Y-118095410D01*
X175676793Y-118095413D01*
X175649500Y-118197273D01*
X175649500Y-118302727D01*
X175670155Y-118379811D01*
X175676793Y-118404586D01*
X175676796Y-118404593D01*
X175677604Y-118405993D01*
X175677926Y-118407322D01*
X175679904Y-118412097D01*
X175679159Y-118412405D01*
X175694074Y-118473894D01*
X175671220Y-118539920D01*
X175616297Y-118583108D01*
X175570215Y-118591989D01*
X171980120Y-118591989D01*
X171913081Y-118572304D01*
X171872732Y-118529987D01*
X171870482Y-118526090D01*
X171870478Y-118526085D01*
X171795914Y-118451521D01*
X171795913Y-118451520D01*
X171704587Y-118398793D01*
X171602727Y-118371500D01*
X171497273Y-118371500D01*
X171395413Y-118398793D01*
X171395410Y-118398794D01*
X171304085Y-118451521D01*
X171229521Y-118526085D01*
X171176794Y-118617410D01*
X171176793Y-118617413D01*
X171149500Y-118719273D01*
X160604084Y-118719273D01*
X160631842Y-118615677D01*
X160631842Y-118464145D01*
X160592623Y-118317776D01*
X160556910Y-118255920D01*
X160540438Y-118188022D01*
X160563290Y-118121995D01*
X160618211Y-118078804D01*
X160687764Y-118072162D01*
X160749867Y-118104177D01*
X160751979Y-118106240D01*
X160955083Y-118309344D01*
X161025550Y-118379811D01*
X161117619Y-118417947D01*
X168924745Y-118417947D01*
X168991784Y-118437632D01*
X169012426Y-118454266D01*
X169046087Y-118487927D01*
X169137413Y-118540654D01*
X169239273Y-118567947D01*
X169239275Y-118567947D01*
X169344725Y-118567947D01*
X169344727Y-118567947D01*
X169446587Y-118540654D01*
X169537913Y-118487927D01*
X169612480Y-118413360D01*
X169665207Y-118322034D01*
X169692500Y-118220174D01*
X169692500Y-118114720D01*
X169676925Y-118056592D01*
X169678588Y-117986743D01*
X169717751Y-117928881D01*
X169781980Y-117901377D01*
X169796700Y-117900500D01*
X170958229Y-117900500D01*
X170958231Y-117900500D01*
X171050300Y-117862364D01*
X171233021Y-117679642D01*
X171294339Y-117646160D01*
X171364031Y-117651144D01*
X171419073Y-117691839D01*
X171423119Y-117697112D01*
X171423120Y-117697113D01*
X171497687Y-117771680D01*
X171589013Y-117824407D01*
X171690873Y-117851700D01*
X171738477Y-117851700D01*
X171805516Y-117871385D01*
X171826158Y-117888019D01*
X171950103Y-118011964D01*
X172042172Y-118050100D01*
X172141828Y-118050100D01*
X174857772Y-118050100D01*
X174931763Y-118050100D01*
X174963855Y-118054325D01*
X174968756Y-118055638D01*
X174992873Y-118062100D01*
X174992875Y-118062100D01*
X175098325Y-118062100D01*
X175098327Y-118062100D01*
X175200187Y-118034807D01*
X175291513Y-117982080D01*
X175366080Y-117907513D01*
X175418807Y-117816187D01*
X175446100Y-117714327D01*
X175446100Y-117608873D01*
X175418807Y-117507013D01*
X175366080Y-117415687D01*
X175291513Y-117341120D01*
X175260970Y-117323486D01*
X175212755Y-117272920D01*
X175199533Y-117204313D01*
X175225501Y-117139448D01*
X175282415Y-117098920D01*
X175322971Y-117092100D01*
X179668083Y-117092100D01*
X179735122Y-117111785D01*
X179755764Y-117128419D01*
X180394167Y-117766822D01*
X180427652Y-117828145D01*
X180430486Y-117854503D01*
X180430486Y-117902107D01*
X180457779Y-118003967D01*
X180510506Y-118095293D01*
X180585073Y-118169860D01*
X180676399Y-118222587D01*
X180778259Y-118249880D01*
X180778261Y-118249880D01*
X180883711Y-118249880D01*
X180883713Y-118249880D01*
X180985573Y-118222587D01*
X181076899Y-118169860D01*
X181151466Y-118095293D01*
X181204193Y-118003967D01*
X181231486Y-117902107D01*
X181231486Y-117796653D01*
X181204193Y-117694793D01*
X181151466Y-117603467D01*
X181076899Y-117528900D01*
X180985573Y-117476173D01*
X180883713Y-117448880D01*
X180883712Y-117448880D01*
X180836109Y-117448880D01*
X180769070Y-117429195D01*
X180748428Y-117412561D01*
X180230266Y-116894399D01*
X180196781Y-116833076D01*
X180201765Y-116763384D01*
X180243637Y-116707451D01*
X180309101Y-116683034D01*
X180317947Y-116682718D01*
X180549851Y-116682718D01*
X180549852Y-116682718D01*
X180575118Y-116672251D01*
X180622572Y-116662813D01*
X180722654Y-116662813D01*
X180722656Y-116662813D01*
X180824516Y-116635520D01*
X180915842Y-116582793D01*
X180990409Y-116508226D01*
X181043136Y-116416900D01*
X181070429Y-116315040D01*
X181070429Y-116209586D01*
X181043136Y-116107726D01*
X180990409Y-116016400D01*
X180915842Y-115941833D01*
X180824516Y-115889106D01*
X180722656Y-115861813D01*
X180617202Y-115861813D01*
X180515342Y-115889106D01*
X180515339Y-115889107D01*
X180424014Y-115941834D01*
X180349450Y-116016398D01*
X180292658Y-116114765D01*
X180290878Y-116113737D01*
X180253932Y-116159579D01*
X180187636Y-116181639D01*
X180183219Y-116181718D01*
X177734037Y-116181718D01*
X177666998Y-116162033D01*
X177621243Y-116109229D01*
X177611299Y-116040071D01*
X177640324Y-115976515D01*
X177646356Y-115970037D01*
X177670480Y-115945913D01*
X177723207Y-115854587D01*
X177750500Y-115752727D01*
X177750500Y-115647273D01*
X177723207Y-115545413D01*
X177670480Y-115454087D01*
X177595913Y-115379520D01*
X177504589Y-115326794D01*
X177504588Y-115326793D01*
X177488770Y-115322554D01*
X177464721Y-115316111D01*
X177405063Y-115279747D01*
X177374534Y-115216900D01*
X177382829Y-115147524D01*
X177409134Y-115108658D01*
X177448880Y-115068913D01*
X177501607Y-114977587D01*
X177528900Y-114875727D01*
X177528900Y-114770273D01*
X177501607Y-114668413D01*
X177448880Y-114577087D01*
X177374313Y-114502520D01*
X177299708Y-114459447D01*
X177282989Y-114449794D01*
X177282988Y-114449793D01*
X177282987Y-114449793D01*
X177181127Y-114422500D01*
X177075673Y-114422500D01*
X176973813Y-114449793D01*
X176973810Y-114449794D01*
X176943493Y-114467298D01*
X176901249Y-114491687D01*
X176839251Y-114508300D01*
X176621370Y-114508300D01*
X176529302Y-114546436D01*
X176529301Y-114546437D01*
X176477182Y-114598557D01*
X176450254Y-114613260D01*
X176424436Y-114629853D01*
X176418235Y-114630744D01*
X176415859Y-114632042D01*
X176389501Y-114634876D01*
X176205119Y-114634876D01*
X176138080Y-114615191D01*
X176092325Y-114562387D01*
X176082381Y-114493229D01*
X176090557Y-114463425D01*
X176092201Y-114459453D01*
X176092205Y-114459447D01*
X176119498Y-114357587D01*
X176119498Y-114252133D01*
X176092205Y-114150273D01*
X176039478Y-114058947D01*
X175975112Y-113994581D01*
X175941627Y-113933258D01*
X175946611Y-113863566D01*
X175988483Y-113807633D01*
X176053947Y-113783216D01*
X176062793Y-113782900D01*
X180167426Y-113782900D01*
X180167428Y-113782900D01*
X180259497Y-113744764D01*
X180764453Y-113239806D01*
X180825774Y-113206323D01*
X180895465Y-113211307D01*
X180950507Y-113252002D01*
X180954553Y-113257275D01*
X180954554Y-113257276D01*
X181029121Y-113331843D01*
X181120447Y-113384570D01*
X181222307Y-113411863D01*
X181222309Y-113411863D01*
X181327759Y-113411863D01*
X181327761Y-113411863D01*
X181429621Y-113384570D01*
X181520947Y-113331843D01*
X181595514Y-113257276D01*
X181648241Y-113165950D01*
X181675534Y-113064090D01*
X181675534Y-112958636D01*
X181648241Y-112856776D01*
X181595514Y-112765450D01*
X181595507Y-112765443D01*
X181593383Y-112762674D01*
X181592314Y-112759908D01*
X181591450Y-112758412D01*
X181591683Y-112758277D01*
X181568192Y-112697504D01*
X181582232Y-112629059D01*
X181629760Y-112579805D01*
X181645913Y-112570480D01*
X181720480Y-112495913D01*
X181773207Y-112404587D01*
X181800500Y-112302727D01*
X181800500Y-112197273D01*
X181776202Y-112106590D01*
X181777865Y-112036744D01*
X181817027Y-111978881D01*
X181881256Y-111951377D01*
X181895977Y-111950500D01*
X182677695Y-111950500D01*
X182744734Y-111970185D01*
X182765375Y-111986818D01*
X182804085Y-112025527D01*
X182804087Y-112025529D01*
X182895413Y-112078256D01*
X182997273Y-112105549D01*
X182997275Y-112105549D01*
X183102725Y-112105549D01*
X183102727Y-112105549D01*
X183204587Y-112078256D01*
X183295913Y-112025529D01*
X183370480Y-111950962D01*
X183423207Y-111859636D01*
X183450500Y-111757776D01*
X183450500Y-111652322D01*
X183423207Y-111550462D01*
X183370480Y-111459136D01*
X183295913Y-111384569D01*
X183204587Y-111331842D01*
X183102727Y-111304549D01*
X182997273Y-111304549D01*
X182895413Y-111331842D01*
X182895410Y-111331843D01*
X182804085Y-111384570D01*
X182775475Y-111413181D01*
X182714152Y-111446666D01*
X182687794Y-111449500D01*
X181895977Y-111449500D01*
X181828938Y-111429815D01*
X181783183Y-111377011D01*
X181773239Y-111307853D01*
X181776199Y-111293420D01*
X181800500Y-111202727D01*
X181800500Y-111097273D01*
X181773207Y-110995413D01*
X181720480Y-110904087D01*
X181645913Y-110829520D01*
X181571031Y-110786287D01*
X181554589Y-110776794D01*
X181554588Y-110776793D01*
X181554587Y-110776793D01*
X181452727Y-110749500D01*
X181347273Y-110749500D01*
X181245413Y-110776793D01*
X181245410Y-110776794D01*
X181154085Y-110829521D01*
X181079521Y-110904085D01*
X181026794Y-110995410D01*
X181026792Y-110995415D01*
X181023465Y-111007829D01*
X181023464Y-111007836D01*
X180999500Y-111097273D01*
X180999500Y-111202727D01*
X181025246Y-111298815D01*
X181026793Y-111304586D01*
X181026794Y-111304589D01*
X181031283Y-111312364D01*
X181075748Y-111389380D01*
X181079521Y-111395914D01*
X181083793Y-111400186D01*
X181117278Y-111461509D01*
X181112294Y-111531201D01*
X181083793Y-111575548D01*
X179863761Y-112795581D01*
X179802438Y-112829066D01*
X179776080Y-112831900D01*
X179455894Y-112831900D01*
X179388855Y-112812215D01*
X179343100Y-112759411D01*
X179333156Y-112690253D01*
X179362181Y-112626697D01*
X179393890Y-112600515D01*
X179445913Y-112570480D01*
X179520480Y-112495913D01*
X179573207Y-112404587D01*
X179600500Y-112302727D01*
X179600500Y-112197273D01*
X179573207Y-112095413D01*
X179520480Y-112004087D01*
X179445913Y-111929520D01*
X179359312Y-111879521D01*
X179354589Y-111876794D01*
X179354588Y-111876793D01*
X179354587Y-111876793D01*
X179252727Y-111849500D01*
X179147273Y-111849500D01*
X179045413Y-111876793D01*
X179045410Y-111876794D01*
X178954085Y-111929521D01*
X178879521Y-112004085D01*
X178826794Y-112095410D01*
X178826793Y-112095413D01*
X178799500Y-112197273D01*
X178799500Y-112302727D01*
X178826793Y-112404587D01*
X178879520Y-112495913D01*
X178954087Y-112570480D01*
X179006108Y-112600514D01*
X179054322Y-112651081D01*
X179067544Y-112719688D01*
X179041576Y-112784552D01*
X178984662Y-112825080D01*
X178944106Y-112831900D01*
X178355894Y-112831900D01*
X178288855Y-112812215D01*
X178243100Y-112759411D01*
X178233156Y-112690253D01*
X178262181Y-112626697D01*
X178293890Y-112600515D01*
X178345913Y-112570480D01*
X178420480Y-112495913D01*
X178473207Y-112404587D01*
X178500500Y-112302727D01*
X178500500Y-112197273D01*
X178473207Y-112095413D01*
X178420480Y-112004087D01*
X178345913Y-111929520D01*
X178259312Y-111879521D01*
X178254589Y-111876794D01*
X178254588Y-111876793D01*
X178254587Y-111876793D01*
X178152727Y-111849500D01*
X178047273Y-111849500D01*
X177945413Y-111876793D01*
X177945410Y-111876794D01*
X177854085Y-111929521D01*
X177779521Y-112004085D01*
X177726794Y-112095410D01*
X177726793Y-112095413D01*
X177699500Y-112197273D01*
X177699500Y-112302727D01*
X177726793Y-112404587D01*
X177779520Y-112495913D01*
X177854087Y-112570480D01*
X177906108Y-112600514D01*
X177954322Y-112651081D01*
X177967544Y-112719688D01*
X177941576Y-112784552D01*
X177884662Y-112825080D01*
X177844106Y-112831900D01*
X176981003Y-112831900D01*
X176913964Y-112812215D01*
X176868209Y-112759411D01*
X176858265Y-112690253D01*
X176887290Y-112626697D01*
X176946068Y-112588923D01*
X176948875Y-112588134D01*
X177004587Y-112573207D01*
X177095913Y-112520480D01*
X177170480Y-112445913D01*
X177223207Y-112354587D01*
X177250500Y-112252727D01*
X177250500Y-112147273D01*
X177223207Y-112045413D01*
X177170480Y-111954087D01*
X177095913Y-111879520D01*
X177004587Y-111826793D01*
X176902727Y-111799500D01*
X176797273Y-111799500D01*
X176695413Y-111826793D01*
X176695410Y-111826794D01*
X176604085Y-111879521D01*
X176529521Y-111954085D01*
X176476789Y-112045418D01*
X176475908Y-112047547D01*
X176474684Y-112049065D01*
X176472729Y-112052452D01*
X176472200Y-112052146D01*
X176432063Y-112101947D01*
X176365767Y-112124006D01*
X176298069Y-112106722D01*
X176253966Y-112062087D01*
X176220480Y-112004087D01*
X176145913Y-111929520D01*
X176059312Y-111879521D01*
X176054589Y-111876794D01*
X176054588Y-111876793D01*
X176054587Y-111876793D01*
X175952727Y-111849500D01*
X175847273Y-111849500D01*
X175745413Y-111876793D01*
X175745410Y-111876794D01*
X175654085Y-111929521D01*
X175579521Y-112004085D01*
X175526794Y-112095410D01*
X175526793Y-112095413D01*
X175499500Y-112197273D01*
X175499500Y-112302727D01*
X175526793Y-112404587D01*
X175579231Y-112495413D01*
X175579521Y-112495914D01*
X175645960Y-112562353D01*
X175679445Y-112623676D01*
X175674461Y-112693368D01*
X175647894Y-112735737D01*
X175635635Y-112748555D01*
X175612487Y-112761920D01*
X175537920Y-112836487D01*
X175517168Y-112872429D01*
X175506854Y-112883215D01*
X175488981Y-112893498D01*
X175474056Y-112907729D01*
X175459310Y-112910570D01*
X175446294Y-112918060D01*
X175425696Y-112917048D01*
X175405449Y-112920950D01*
X175380942Y-112914849D01*
X175376508Y-112914632D01*
X175374604Y-112913272D01*
X175369787Y-112912073D01*
X175339434Y-112899501D01*
X175339432Y-112899500D01*
X175339431Y-112899500D01*
X175339429Y-112899500D01*
X173534865Y-112899500D01*
X173467826Y-112879815D01*
X173422071Y-112827011D01*
X173412127Y-112757853D01*
X173415090Y-112743408D01*
X173424383Y-112708723D01*
X173425990Y-112702727D01*
X173425990Y-112597273D01*
X173398697Y-112495413D01*
X173345970Y-112404087D01*
X173271403Y-112329520D01*
X173180077Y-112276793D01*
X173078217Y-112249500D01*
X173078216Y-112249500D01*
X173030612Y-112249500D01*
X172963573Y-112229815D01*
X172942931Y-112213181D01*
X172927023Y-112197273D01*
X174399500Y-112197273D01*
X174399500Y-112302727D01*
X174426793Y-112404587D01*
X174479520Y-112495913D01*
X174554087Y-112570480D01*
X174645413Y-112623207D01*
X174747273Y-112650500D01*
X174747275Y-112650500D01*
X174852725Y-112650500D01*
X174852727Y-112650500D01*
X174954587Y-112623207D01*
X175045913Y-112570480D01*
X175120480Y-112495913D01*
X175173207Y-112404587D01*
X175200500Y-112302727D01*
X175200500Y-112197273D01*
X175173207Y-112095413D01*
X175120480Y-112004087D01*
X175045913Y-111929520D01*
X174959312Y-111879521D01*
X174954589Y-111876794D01*
X174954588Y-111876793D01*
X174954587Y-111876793D01*
X174852727Y-111849500D01*
X174747273Y-111849500D01*
X174645413Y-111876793D01*
X174645410Y-111876794D01*
X174554085Y-111929521D01*
X174479521Y-112004085D01*
X174426794Y-112095410D01*
X174426793Y-112095413D01*
X174399500Y-112197273D01*
X172927023Y-112197273D01*
X172529250Y-111799500D01*
X172086387Y-111356636D01*
X172063399Y-111347114D01*
X171994319Y-111318500D01*
X171994318Y-111318500D01*
X171217681Y-111318500D01*
X171150642Y-111298815D01*
X171104887Y-111246011D01*
X171093940Y-111186491D01*
X171094732Y-111174253D01*
X171100500Y-111152727D01*
X171100500Y-111097273D01*
X175499500Y-111097273D01*
X175499500Y-111202727D01*
X175525247Y-111298815D01*
X175526793Y-111304586D01*
X175526794Y-111304589D01*
X175531283Y-111312364D01*
X175579520Y-111395913D01*
X175654087Y-111470480D01*
X175745413Y-111523207D01*
X175847273Y-111550500D01*
X175847275Y-111550500D01*
X175952725Y-111550500D01*
X175952727Y-111550500D01*
X176054587Y-111523207D01*
X176145913Y-111470480D01*
X176220480Y-111395913D01*
X176273207Y-111304587D01*
X176276925Y-111290708D01*
X176313287Y-111231049D01*
X176376133Y-111200518D01*
X176445509Y-111208810D01*
X176499388Y-111253294D01*
X176504082Y-111260792D01*
X176553920Y-111347113D01*
X176628487Y-111421680D01*
X176719813Y-111474407D01*
X176821673Y-111501700D01*
X176821675Y-111501700D01*
X176927125Y-111501700D01*
X176927127Y-111501700D01*
X177028987Y-111474407D01*
X177120313Y-111421680D01*
X177194880Y-111347113D01*
X177247607Y-111255787D01*
X177274900Y-111153927D01*
X177274900Y-111099273D01*
X177718500Y-111099273D01*
X177718500Y-111204727D01*
X177745258Y-111304588D01*
X177745793Y-111306586D01*
X177745794Y-111306589D01*
X177752671Y-111318500D01*
X177798520Y-111397913D01*
X177873087Y-111472480D01*
X177964413Y-111525207D01*
X178066273Y-111552500D01*
X178066275Y-111552500D01*
X178171725Y-111552500D01*
X178171727Y-111552500D01*
X178273587Y-111525207D01*
X178364913Y-111472480D01*
X178439480Y-111397913D01*
X178492207Y-111306587D01*
X178519500Y-111204727D01*
X178519500Y-111099273D01*
X178517214Y-111090740D01*
X178759900Y-111090740D01*
X178759900Y-111196194D01*
X178786044Y-111293767D01*
X178787193Y-111298053D01*
X178787194Y-111298056D01*
X178792121Y-111306589D01*
X178839920Y-111389380D01*
X178914487Y-111463947D01*
X179005813Y-111516674D01*
X179107673Y-111543967D01*
X179107675Y-111543967D01*
X179213125Y-111543967D01*
X179213127Y-111543967D01*
X179314987Y-111516674D01*
X179406313Y-111463947D01*
X179480880Y-111389380D01*
X179533607Y-111298054D01*
X179560900Y-111196194D01*
X179560900Y-111090740D01*
X179533607Y-110988880D01*
X179480880Y-110897554D01*
X179406313Y-110822987D01*
X179314987Y-110770260D01*
X179213127Y-110742967D01*
X179107673Y-110742967D01*
X179005813Y-110770260D01*
X179005810Y-110770261D01*
X178914485Y-110822988D01*
X178839921Y-110897552D01*
X178787194Y-110988877D01*
X178787193Y-110988878D01*
X178770633Y-111050683D01*
X178759900Y-111090740D01*
X178517214Y-111090740D01*
X178492207Y-110997413D01*
X178439480Y-110906087D01*
X178364913Y-110831520D01*
X178286567Y-110786287D01*
X178273589Y-110778794D01*
X178273588Y-110778793D01*
X178273587Y-110778793D01*
X178171727Y-110751500D01*
X178066273Y-110751500D01*
X177964413Y-110778793D01*
X177964410Y-110778794D01*
X177873085Y-110831521D01*
X177798521Y-110906085D01*
X177745794Y-110997410D01*
X177745793Y-110997413D01*
X177718500Y-111099273D01*
X177274900Y-111099273D01*
X177274900Y-111048473D01*
X177247607Y-110946613D01*
X177194880Y-110855287D01*
X177120313Y-110780720D01*
X177049262Y-110739699D01*
X177028989Y-110727994D01*
X177028988Y-110727993D01*
X177028987Y-110727993D01*
X176927127Y-110700700D01*
X176821673Y-110700700D01*
X176719813Y-110727993D01*
X176719810Y-110727994D01*
X176628485Y-110780721D01*
X176553921Y-110855285D01*
X176501194Y-110946610D01*
X176501192Y-110946615D01*
X176497473Y-110960495D01*
X176461107Y-111020155D01*
X176398259Y-111050683D01*
X176328884Y-111042386D01*
X176275007Y-110997900D01*
X176270312Y-110990399D01*
X176253047Y-110960495D01*
X176220480Y-110904087D01*
X176145913Y-110829520D01*
X176071031Y-110786287D01*
X176054589Y-110776794D01*
X176054588Y-110776793D01*
X176054587Y-110776793D01*
X175952727Y-110749500D01*
X175847273Y-110749500D01*
X175745413Y-110776793D01*
X175745410Y-110776794D01*
X175654085Y-110829521D01*
X175579521Y-110904085D01*
X175526794Y-110995410D01*
X175526793Y-110995413D01*
X175499500Y-111097273D01*
X171100500Y-111097273D01*
X171100500Y-111047273D01*
X171073207Y-110945413D01*
X171020480Y-110854087D01*
X170978574Y-110812181D01*
X170945089Y-110750858D01*
X170950073Y-110681166D01*
X170991945Y-110625233D01*
X171057409Y-110600816D01*
X171066255Y-110600500D01*
X173449826Y-110600500D01*
X173449828Y-110600500D01*
X173541897Y-110562364D01*
X173617442Y-110486819D01*
X173678765Y-110453334D01*
X173705123Y-110450500D01*
X173752725Y-110450500D01*
X173752727Y-110450500D01*
X173854587Y-110423207D01*
X173945913Y-110370480D01*
X174020480Y-110295913D01*
X174073207Y-110204587D01*
X174100500Y-110102727D01*
X174100500Y-110073132D01*
X174514817Y-110073132D01*
X174514817Y-110178586D01*
X174542110Y-110280446D01*
X174594837Y-110371772D01*
X174669404Y-110446339D01*
X174760730Y-110499066D01*
X174862590Y-110526359D01*
X174862592Y-110526359D01*
X174968042Y-110526359D01*
X174968044Y-110526359D01*
X175069904Y-110499066D01*
X175161230Y-110446339D01*
X175235797Y-110371772D01*
X175288524Y-110280446D01*
X175315817Y-110178586D01*
X175315817Y-110073132D01*
X175288524Y-109971272D01*
X175235797Y-109879946D01*
X175161230Y-109805379D01*
X175089218Y-109763803D01*
X175069906Y-109752653D01*
X175069905Y-109752652D01*
X175069904Y-109752652D01*
X174968044Y-109725359D01*
X174862590Y-109725359D01*
X174760730Y-109752652D01*
X174760727Y-109752653D01*
X174669402Y-109805380D01*
X174594838Y-109879944D01*
X174542111Y-109971269D01*
X174542110Y-109971272D01*
X174514817Y-110073132D01*
X174100500Y-110073132D01*
X174100500Y-109997273D01*
X174073207Y-109895413D01*
X174020480Y-109804087D01*
X173945913Y-109729520D01*
X173868282Y-109684700D01*
X173854589Y-109676794D01*
X173854588Y-109676793D01*
X173854587Y-109676793D01*
X173752727Y-109649500D01*
X173647273Y-109649500D01*
X173545413Y-109676793D01*
X173545410Y-109676794D01*
X173454085Y-109729521D01*
X173379521Y-109804085D01*
X173326794Y-109895410D01*
X173326793Y-109895413D01*
X173300007Y-109995383D01*
X173297397Y-110005123D01*
X173294618Y-110004378D01*
X173271975Y-110055575D01*
X173213654Y-110094050D01*
X173177297Y-110099500D01*
X172189065Y-110099500D01*
X172122026Y-110079815D01*
X172076271Y-110027011D01*
X172066327Y-109957853D01*
X172095352Y-109894297D01*
X172127065Y-109868113D01*
X172131300Y-109865668D01*
X172197132Y-109827660D01*
X172271699Y-109753093D01*
X172324426Y-109661767D01*
X172351719Y-109559907D01*
X172351719Y-109454453D01*
X172324426Y-109352593D01*
X172271699Y-109261267D01*
X172197132Y-109186700D01*
X172112653Y-109137926D01*
X172105808Y-109133974D01*
X172105807Y-109133973D01*
X172105806Y-109133973D01*
X172003946Y-109106680D01*
X171898492Y-109106680D01*
X171898490Y-109106680D01*
X171823533Y-109126764D01*
X171805876Y-109126390D01*
X171789151Y-109130968D01*
X171762839Y-109125481D01*
X171754315Y-109125301D01*
X171749071Y-109123655D01*
X171706244Y-109105916D01*
X171692539Y-109105916D01*
X171674413Y-109100228D01*
X171660527Y-109090937D01*
X171644500Y-109086231D01*
X171623858Y-109069597D01*
X171222138Y-108667877D01*
X171188653Y-108606554D01*
X171193637Y-108536862D01*
X171235509Y-108480929D01*
X171300973Y-108456512D01*
X171309819Y-108456196D01*
X173264973Y-108456196D01*
X173332012Y-108475881D01*
X173352654Y-108492515D01*
X173391772Y-108531633D01*
X173425257Y-108592956D01*
X173420273Y-108662648D01*
X173391775Y-108706993D01*
X173378308Y-108720460D01*
X173325582Y-108811783D01*
X173325581Y-108811786D01*
X173298288Y-108913646D01*
X173298288Y-109019100D01*
X173325453Y-109120480D01*
X173325581Y-109120959D01*
X173325582Y-109120962D01*
X173327047Y-109123500D01*
X173378308Y-109212286D01*
X173452875Y-109286853D01*
X173544201Y-109339580D01*
X173646061Y-109366873D01*
X173646063Y-109366873D01*
X173751513Y-109366873D01*
X173751515Y-109366873D01*
X173853375Y-109339580D01*
X173944701Y-109286853D01*
X174019268Y-109212286D01*
X174071995Y-109120960D01*
X174099288Y-109019100D01*
X174099288Y-108913646D01*
X174099287Y-108913643D01*
X174098582Y-108908288D01*
X174101217Y-108891384D01*
X174098783Y-108874453D01*
X174106488Y-108857580D01*
X174109346Y-108839253D01*
X174120701Y-108826458D01*
X174127808Y-108810897D01*
X174143413Y-108800868D01*
X174155725Y-108786996D01*
X174172491Y-108782180D01*
X174186586Y-108773123D01*
X174221521Y-108768100D01*
X174269028Y-108768100D01*
X174336067Y-108787785D01*
X174381822Y-108840589D01*
X174391967Y-108908284D01*
X174391100Y-108914870D01*
X174391100Y-108914873D01*
X174391100Y-109020327D01*
X174417645Y-109119393D01*
X174418393Y-109122186D01*
X174418394Y-109122189D01*
X174421798Y-109128085D01*
X174471120Y-109213513D01*
X174545687Y-109288080D01*
X174637013Y-109340807D01*
X174738873Y-109368100D01*
X174738875Y-109368100D01*
X174844325Y-109368100D01*
X174844327Y-109368100D01*
X174946187Y-109340807D01*
X175037513Y-109288080D01*
X175112080Y-109213513D01*
X175164807Y-109122187D01*
X175192100Y-109020327D01*
X175192100Y-108914873D01*
X175192100Y-108914870D01*
X175191233Y-108908284D01*
X175201999Y-108839249D01*
X175248380Y-108786993D01*
X175314172Y-108768100D01*
X175726473Y-108768100D01*
X175793512Y-108787785D01*
X175814154Y-108804419D01*
X176277647Y-109267911D01*
X176751631Y-109741895D01*
X176751632Y-109741897D01*
X176822099Y-109812364D01*
X176831947Y-109816443D01*
X176914168Y-109850501D01*
X176914169Y-109850501D01*
X177028258Y-109850501D01*
X177028266Y-109850500D01*
X177577428Y-109850500D01*
X177644467Y-109870185D01*
X177690222Y-109922989D01*
X177700367Y-109990684D01*
X177699500Y-109997270D01*
X177699500Y-109997273D01*
X177699500Y-110102727D01*
X177726793Y-110204587D01*
X177779520Y-110295913D01*
X177854087Y-110370480D01*
X177945413Y-110423207D01*
X178047273Y-110450500D01*
X178047275Y-110450500D01*
X178152725Y-110450500D01*
X178152727Y-110450500D01*
X178254587Y-110423207D01*
X178345913Y-110370480D01*
X178420480Y-110295913D01*
X178473207Y-110204587D01*
X178500500Y-110102727D01*
X178500500Y-109997273D01*
X178500500Y-109997270D01*
X178499633Y-109990684D01*
X178510399Y-109921649D01*
X178556780Y-109869393D01*
X178622572Y-109850500D01*
X179637677Y-109850500D01*
X179667117Y-109859144D01*
X179697104Y-109865668D01*
X179702119Y-109869422D01*
X179704716Y-109870185D01*
X179725358Y-109886819D01*
X179841181Y-110002642D01*
X179874666Y-110063965D01*
X179877500Y-110090322D01*
X179877500Y-110137927D01*
X179904793Y-110239787D01*
X179957520Y-110331113D01*
X180032087Y-110405680D01*
X180123413Y-110458407D01*
X180163495Y-110469146D01*
X180223155Y-110505510D01*
X180253685Y-110568357D01*
X180245391Y-110637732D01*
X180200906Y-110691611D01*
X180193408Y-110696304D01*
X180132624Y-110731399D01*
X180131638Y-110731968D01*
X180057075Y-110806531D01*
X180004348Y-110897856D01*
X180004347Y-110897859D01*
X179977054Y-110999719D01*
X179977054Y-111105173D01*
X180004347Y-111207033D01*
X180057074Y-111298359D01*
X180131641Y-111372926D01*
X180222967Y-111425653D01*
X180324827Y-111452946D01*
X180324829Y-111452946D01*
X180430279Y-111452946D01*
X180430281Y-111452946D01*
X180532141Y-111425653D01*
X180623467Y-111372926D01*
X180698034Y-111298359D01*
X180750761Y-111207033D01*
X180778054Y-111105173D01*
X180778054Y-110999719D01*
X180750761Y-110897859D01*
X180698034Y-110806533D01*
X180623467Y-110731966D01*
X180532143Y-110679240D01*
X180532142Y-110679239D01*
X180508815Y-110672989D01*
X180492055Y-110668498D01*
X180432397Y-110632134D01*
X180401868Y-110569287D01*
X180410163Y-110499911D01*
X180454648Y-110446033D01*
X180462117Y-110441357D01*
X180523913Y-110405680D01*
X180598480Y-110331113D01*
X180651207Y-110239787D01*
X180678500Y-110137927D01*
X180678500Y-110032473D01*
X180651207Y-109930613D01*
X180598480Y-109839287D01*
X180595374Y-109836181D01*
X180593590Y-109832913D01*
X180593531Y-109832837D01*
X180593543Y-109832827D01*
X180561889Y-109774858D01*
X180566873Y-109705166D01*
X180608745Y-109649233D01*
X180674209Y-109624816D01*
X180683055Y-109624500D01*
X180968431Y-109624500D01*
X181035470Y-109644185D01*
X181081225Y-109696989D01*
X181091169Y-109766147D01*
X181075818Y-109810497D01*
X181059197Y-109839287D01*
X181026794Y-109895410D01*
X181026793Y-109895413D01*
X180999500Y-109997273D01*
X180999500Y-110102727D01*
X181026793Y-110204587D01*
X181079520Y-110295913D01*
X181154087Y-110370480D01*
X181245413Y-110423207D01*
X181347273Y-110450500D01*
X181347275Y-110450500D01*
X181452725Y-110450500D01*
X181452727Y-110450500D01*
X181554587Y-110423207D01*
X181645913Y-110370480D01*
X181720480Y-110295913D01*
X181773207Y-110204587D01*
X181800500Y-110102727D01*
X181800500Y-110076922D01*
X181806738Y-110055676D01*
X181808318Y-110033588D01*
X181816390Y-110022804D01*
X181820185Y-110009883D01*
X181836918Y-109995383D01*
X181850190Y-109977655D01*
X181862810Y-109972947D01*
X181872989Y-109964128D01*
X181894906Y-109960976D01*
X181915654Y-109953238D01*
X181928814Y-109956100D01*
X181942147Y-109954184D01*
X181962290Y-109963383D01*
X181983927Y-109968090D01*
X182001652Y-109981358D01*
X182005703Y-109983209D01*
X182012181Y-109989241D01*
X182025581Y-110002641D01*
X182059066Y-110063964D01*
X182061900Y-110090322D01*
X182061900Y-110137927D01*
X182089193Y-110239787D01*
X182141920Y-110331113D01*
X182216487Y-110405680D01*
X182307813Y-110458407D01*
X182409673Y-110485700D01*
X182409675Y-110485700D01*
X182515125Y-110485700D01*
X182515127Y-110485700D01*
X182616987Y-110458407D01*
X182708313Y-110405680D01*
X182782880Y-110331113D01*
X182835607Y-110239787D01*
X182862900Y-110137927D01*
X182862900Y-110032473D01*
X182835607Y-109930613D01*
X182782880Y-109839287D01*
X182708313Y-109764720D01*
X182616987Y-109711993D01*
X182515127Y-109684700D01*
X182515126Y-109684700D01*
X182467522Y-109684700D01*
X182400483Y-109665015D01*
X182379841Y-109648381D01*
X182008288Y-109276827D01*
X181928734Y-109197273D01*
X183149500Y-109197273D01*
X183149500Y-109302727D01*
X183176793Y-109404587D01*
X183229520Y-109495913D01*
X183304087Y-109570480D01*
X183395413Y-109623207D01*
X183497273Y-109650500D01*
X183497275Y-109650500D01*
X183602725Y-109650500D01*
X183602727Y-109650500D01*
X183704587Y-109623207D01*
X183714001Y-109617771D01*
X183781895Y-109601297D01*
X183847923Y-109624145D01*
X183891117Y-109679064D01*
X183900002Y-109725157D01*
X183900000Y-111534184D01*
X183900000Y-111950000D01*
X186300000Y-111950020D01*
X186300000Y-111950019D01*
X186300000Y-110974954D01*
X186319685Y-110907915D01*
X186372489Y-110862160D01*
X186423532Y-110850955D01*
X186975215Y-110848878D01*
X187042327Y-110868310D01*
X187088281Y-110920941D01*
X187099681Y-110972885D01*
X187099540Y-113075019D01*
X187099540Y-113075020D01*
X187450000Y-113075010D01*
X187450000Y-102525010D01*
X187099890Y-102525010D01*
X187099890Y-104726001D01*
X187080205Y-104793040D01*
X187027401Y-104838795D01*
X186975892Y-104850001D01*
X186424010Y-104850008D01*
X186356970Y-104830324D01*
X186311214Y-104777521D01*
X186300008Y-104726013D01*
X186300000Y-103750030D01*
X183900010Y-103749989D01*
X183900009Y-103749990D01*
X183900003Y-108774842D01*
X183880318Y-108841882D01*
X183827514Y-108887636D01*
X183758356Y-108897580D01*
X183714004Y-108882230D01*
X183704587Y-108876793D01*
X183614770Y-108852727D01*
X183602727Y-108849500D01*
X183497273Y-108849500D01*
X183395413Y-108876793D01*
X183395410Y-108876794D01*
X183304085Y-108929521D01*
X183229521Y-109004085D01*
X183176794Y-109095410D01*
X183176793Y-109095413D01*
X183149500Y-109197273D01*
X181928734Y-109197273D01*
X181893097Y-109161636D01*
X181801029Y-109123500D01*
X181801028Y-109123500D01*
X180645255Y-109123500D01*
X180578216Y-109103815D01*
X180557574Y-109087181D01*
X180523914Y-109053521D01*
X180523913Y-109053520D01*
X180457059Y-109014922D01*
X180432589Y-109000794D01*
X180432588Y-109000793D01*
X180432587Y-109000793D01*
X180330727Y-108973500D01*
X180225273Y-108973500D01*
X180123413Y-109000793D01*
X180123410Y-109000794D01*
X180032085Y-109053521D01*
X179957521Y-109128085D01*
X179904794Y-109219410D01*
X179904793Y-109219411D01*
X179900922Y-109233861D01*
X179897607Y-109246234D01*
X179894563Y-109257594D01*
X179858198Y-109317254D01*
X179795351Y-109347783D01*
X179774788Y-109349500D01*
X177119118Y-109349500D01*
X177052079Y-109329815D01*
X177031437Y-109313181D01*
X176544714Y-108826458D01*
X176023493Y-108305236D01*
X175993180Y-108292680D01*
X175931425Y-108267100D01*
X175931424Y-108267100D01*
X175189455Y-108267100D01*
X175122416Y-108247415D01*
X175076661Y-108194611D01*
X175066717Y-108125453D01*
X175095742Y-108061897D01*
X175101774Y-108055419D01*
X175112080Y-108045113D01*
X175164807Y-107953787D01*
X175192100Y-107851927D01*
X175192100Y-107746473D01*
X175164807Y-107644613D01*
X175112080Y-107553287D01*
X175037513Y-107478720D01*
X174946189Y-107425994D01*
X174946188Y-107425993D01*
X174865444Y-107404358D01*
X174865443Y-107404358D01*
X174844327Y-107398700D01*
X174738873Y-107398700D01*
X174714468Y-107405238D01*
X174714467Y-107405239D01*
X174680581Y-107414319D01*
X174637013Y-107425993D01*
X174637011Y-107425994D01*
X174637010Y-107425994D01*
X174545685Y-107478721D01*
X174471121Y-107553285D01*
X174418394Y-107644610D01*
X174418393Y-107644613D01*
X174391100Y-107746473D01*
X174391100Y-107851927D01*
X174418393Y-107953787D01*
X174456463Y-108019727D01*
X174471121Y-108045114D01*
X174481426Y-108055419D01*
X174514911Y-108116742D01*
X174509927Y-108186434D01*
X174468055Y-108242367D01*
X174402591Y-108266784D01*
X174393745Y-108267100D01*
X174136419Y-108267100D01*
X174069380Y-108247415D01*
X174023625Y-108194611D01*
X174013681Y-108125453D01*
X174029032Y-108081100D01*
X174043859Y-108055419D01*
X174073207Y-108004587D01*
X174100500Y-107902727D01*
X174100500Y-107797273D01*
X174073207Y-107695413D01*
X174020480Y-107604087D01*
X173945913Y-107529520D01*
X173860123Y-107479989D01*
X173854589Y-107476794D01*
X173854588Y-107476793D01*
X173854587Y-107476793D01*
X173752727Y-107449500D01*
X173647273Y-107449500D01*
X173545413Y-107476793D01*
X173545410Y-107476794D01*
X173454085Y-107529521D01*
X173379521Y-107604085D01*
X173326794Y-107695410D01*
X173326793Y-107695413D01*
X173299500Y-107797273D01*
X173299500Y-107831196D01*
X173279815Y-107898235D01*
X173227011Y-107943990D01*
X173175500Y-107955196D01*
X171870559Y-107955196D01*
X171803520Y-107935511D01*
X171757765Y-107882707D01*
X171747821Y-107813549D01*
X171776846Y-107749993D01*
X171782878Y-107743515D01*
X171805307Y-107721086D01*
X171830480Y-107695913D01*
X171883207Y-107604587D01*
X171910500Y-107502727D01*
X171910500Y-107397273D01*
X171883207Y-107295413D01*
X171830480Y-107204087D01*
X171755913Y-107129520D01*
X171664587Y-107076793D01*
X171562727Y-107049500D01*
X171457273Y-107049500D01*
X171355413Y-107076793D01*
X171355410Y-107076794D01*
X171264085Y-107129521D01*
X171189521Y-107204085D01*
X171136794Y-107295410D01*
X171136793Y-107295413D01*
X171109500Y-107397273D01*
X171109500Y-107502727D01*
X171136659Y-107604085D01*
X171136793Y-107604586D01*
X171136794Y-107604589D01*
X171150922Y-107629059D01*
X171189231Y-107695413D01*
X171189521Y-107695914D01*
X171237122Y-107743515D01*
X171270607Y-107804838D01*
X171265623Y-107874530D01*
X171223751Y-107930463D01*
X171158287Y-107954880D01*
X171149441Y-107955196D01*
X168658077Y-107955196D01*
X168566009Y-107993332D01*
X168566008Y-107993333D01*
X168296161Y-108263181D01*
X168234838Y-108296666D01*
X168208480Y-108299500D01*
X164290706Y-108299500D01*
X164223667Y-108279815D01*
X164177912Y-108227011D01*
X164167968Y-108157853D01*
X164196993Y-108094297D01*
X164228706Y-108068113D01*
X164306013Y-108023480D01*
X164380580Y-107948913D01*
X164433307Y-107857587D01*
X164460600Y-107755727D01*
X164460600Y-107650273D01*
X164433307Y-107548413D01*
X164380580Y-107457087D01*
X164306013Y-107382520D01*
X164214687Y-107329793D01*
X164112827Y-107302500D01*
X164007373Y-107302500D01*
X163975557Y-107311025D01*
X163905707Y-107309360D01*
X163847845Y-107270196D01*
X163839487Y-107258810D01*
X163828778Y-107242329D01*
X163821187Y-107213996D01*
X163768460Y-107122670D01*
X163718693Y-107072903D01*
X163711603Y-107061991D01*
X163705171Y-107040485D01*
X163694416Y-107020788D01*
X163695354Y-107007659D01*
X163692249Y-106997273D01*
X172399500Y-106997273D01*
X172399500Y-107102727D01*
X172426659Y-107204085D01*
X172426793Y-107204586D01*
X172426794Y-107204589D01*
X172440922Y-107229059D01*
X172479520Y-107295913D01*
X172554087Y-107370480D01*
X172645413Y-107423207D01*
X172747273Y-107450500D01*
X172747275Y-107450500D01*
X172852725Y-107450500D01*
X172852727Y-107450500D01*
X172954587Y-107423207D01*
X173045913Y-107370480D01*
X173120480Y-107295913D01*
X173173207Y-107204587D01*
X173200500Y-107102727D01*
X173200500Y-106997273D01*
X173173207Y-106895413D01*
X173120480Y-106804087D01*
X173045913Y-106729520D01*
X172954587Y-106676793D01*
X172852727Y-106649500D01*
X172747273Y-106649500D01*
X172645413Y-106676793D01*
X172645410Y-106676794D01*
X172554085Y-106729521D01*
X172479521Y-106804085D01*
X172426794Y-106895410D01*
X172426793Y-106895413D01*
X172399500Y-106997273D01*
X163692249Y-106997273D01*
X163691584Y-106995050D01*
X163697798Y-106973484D01*
X163699400Y-106951096D01*
X163708191Y-106932438D01*
X163751407Y-106857587D01*
X163778700Y-106755727D01*
X163778700Y-106650273D01*
X163761851Y-106587391D01*
X163763514Y-106517544D01*
X163802676Y-106459681D01*
X163866905Y-106432177D01*
X163881626Y-106431300D01*
X170269026Y-106431300D01*
X170269028Y-106431300D01*
X170361097Y-106393164D01*
X170412191Y-106342070D01*
X170473514Y-106308585D01*
X170499872Y-106305751D01*
X171402378Y-106305751D01*
X171402380Y-106305751D01*
X171494449Y-106267615D01*
X171494449Y-106267614D01*
X171505732Y-106262941D01*
X171506919Y-106265806D01*
X171518253Y-106258523D01*
X171549429Y-106254040D01*
X171551104Y-106253518D01*
X171553188Y-106253500D01*
X171629212Y-106253500D01*
X171675008Y-106266947D01*
X171676668Y-106262941D01*
X171687950Y-106267614D01*
X171687951Y-106267615D01*
X171780020Y-106305751D01*
X171780022Y-106305751D01*
X174378494Y-106305751D01*
X174445533Y-106325436D01*
X174491288Y-106378240D01*
X174501232Y-106447398D01*
X174472207Y-106510954D01*
X174467425Y-106516088D01*
X174467123Y-106516482D01*
X174414395Y-106607809D01*
X174414394Y-106607812D01*
X174387101Y-106709672D01*
X174387101Y-106815126D01*
X174411585Y-106906500D01*
X174414394Y-106916985D01*
X174414395Y-106916988D01*
X174422095Y-106930325D01*
X174467121Y-107008312D01*
X174541688Y-107082879D01*
X174633014Y-107135606D01*
X174734874Y-107162899D01*
X174840328Y-107162899D01*
X174942188Y-107135606D01*
X175033514Y-107082879D01*
X175108081Y-107008312D01*
X175160808Y-106916986D01*
X175188101Y-106815126D01*
X175188101Y-106709672D01*
X175160808Y-106607812D01*
X175108081Y-106516486D01*
X175108079Y-106516484D01*
X175108078Y-106516482D01*
X175103132Y-106510036D01*
X175104440Y-106509032D01*
X175075542Y-106456109D01*
X175080526Y-106386417D01*
X175122398Y-106330484D01*
X175187862Y-106306067D01*
X175196708Y-106305751D01*
X175478679Y-106305751D01*
X175545718Y-106325436D01*
X175591473Y-106378240D01*
X175601417Y-106447398D01*
X175577058Y-106505233D01*
X175572720Y-106510885D01*
X175519993Y-106602211D01*
X175519992Y-106602214D01*
X175492699Y-106704074D01*
X175492699Y-106809528D01*
X175518683Y-106906500D01*
X175519992Y-106911387D01*
X175519993Y-106911390D01*
X175530925Y-106930325D01*
X175572719Y-107002714D01*
X175647286Y-107077281D01*
X175738612Y-107130008D01*
X175840472Y-107157301D01*
X175840474Y-107157301D01*
X175945924Y-107157301D01*
X175945926Y-107157301D01*
X176047786Y-107130008D01*
X176139112Y-107077281D01*
X176213679Y-107002714D01*
X176266406Y-106911388D01*
X176289587Y-106824873D01*
X176549500Y-106824873D01*
X176549500Y-106930327D01*
X176576793Y-107032187D01*
X176629520Y-107123513D01*
X176704087Y-107198080D01*
X176795413Y-107250807D01*
X176897273Y-107278100D01*
X176897275Y-107278100D01*
X177002725Y-107278100D01*
X177002727Y-107278100D01*
X177104587Y-107250807D01*
X177195913Y-107198080D01*
X177270480Y-107123513D01*
X177323207Y-107032187D01*
X177350500Y-106930327D01*
X177350500Y-106824873D01*
X177323207Y-106723013D01*
X177270480Y-106631687D01*
X177195913Y-106557120D01*
X177115833Y-106510886D01*
X177104589Y-106504394D01*
X177104588Y-106504393D01*
X177104587Y-106504393D01*
X177002727Y-106477100D01*
X176897273Y-106477100D01*
X176795413Y-106504393D01*
X176795410Y-106504394D01*
X176704085Y-106557121D01*
X176629521Y-106631685D01*
X176576794Y-106723010D01*
X176576793Y-106723013D01*
X176549500Y-106824873D01*
X176289587Y-106824873D01*
X176293699Y-106809528D01*
X176293699Y-106704074D01*
X176266406Y-106602214D01*
X176213679Y-106510888D01*
X176139112Y-106436321D01*
X176135560Y-106434270D01*
X176075445Y-106399562D01*
X176027230Y-106348995D01*
X176014008Y-106280388D01*
X176039976Y-106215523D01*
X176049757Y-106204503D01*
X176767441Y-105486818D01*
X176828764Y-105453334D01*
X176855122Y-105450500D01*
X180813940Y-105450500D01*
X180843375Y-105459143D01*
X180873361Y-105465665D01*
X180878380Y-105469421D01*
X180880979Y-105470185D01*
X180901617Y-105486814D01*
X180911292Y-105496489D01*
X180944780Y-105557810D01*
X180943668Y-105604589D01*
X180945361Y-105604812D01*
X180944300Y-105612873D01*
X180944300Y-105718327D01*
X180971593Y-105820187D01*
X181024320Y-105911513D01*
X181098887Y-105986080D01*
X181190213Y-106038807D01*
X181292073Y-106066100D01*
X181292075Y-106066100D01*
X181397525Y-106066100D01*
X181397527Y-106066100D01*
X181499387Y-106038807D01*
X181590713Y-105986080D01*
X181665280Y-105911513D01*
X181718007Y-105820187D01*
X181745300Y-105718327D01*
X181745300Y-105612873D01*
X181718007Y-105511013D01*
X181665280Y-105419687D01*
X181590713Y-105345120D01*
X181499389Y-105292394D01*
X181499388Y-105292393D01*
X181417185Y-105270367D01*
X181403298Y-105262349D01*
X181389853Y-105259425D01*
X181361598Y-105238274D01*
X181333911Y-105210587D01*
X181285503Y-105162178D01*
X181252020Y-105100859D01*
X181257004Y-105031167D01*
X181298875Y-104975233D01*
X181364339Y-104950816D01*
X181373186Y-104950500D01*
X181452725Y-104950500D01*
X181452727Y-104950500D01*
X181554587Y-104923207D01*
X181645913Y-104870480D01*
X181720480Y-104795913D01*
X181773207Y-104704587D01*
X181800500Y-104602727D01*
X181800500Y-104590522D01*
X181806738Y-104569276D01*
X181808318Y-104547188D01*
X181816390Y-104536404D01*
X181820185Y-104523483D01*
X181836918Y-104508983D01*
X181850190Y-104491255D01*
X181862810Y-104486547D01*
X181872989Y-104477728D01*
X181894906Y-104474576D01*
X181915654Y-104466838D01*
X181928814Y-104469700D01*
X181942147Y-104467784D01*
X181962290Y-104476983D01*
X181983927Y-104481690D01*
X182001652Y-104494958D01*
X182005703Y-104496809D01*
X182012181Y-104502841D01*
X182025581Y-104516241D01*
X182059066Y-104577564D01*
X182061198Y-104597395D01*
X182061900Y-104602725D01*
X182061900Y-104602727D01*
X182089193Y-104704587D01*
X182141920Y-104795913D01*
X182216487Y-104870480D01*
X182307813Y-104923207D01*
X182409673Y-104950500D01*
X182409675Y-104950500D01*
X182515125Y-104950500D01*
X182515127Y-104950500D01*
X182616987Y-104923207D01*
X182708313Y-104870480D01*
X182782880Y-104795913D01*
X182835607Y-104704587D01*
X182862900Y-104602727D01*
X182862900Y-104497273D01*
X182835607Y-104395413D01*
X182782880Y-104304087D01*
X182708313Y-104229520D01*
X182639265Y-104189655D01*
X182616989Y-104176794D01*
X182616988Y-104176793D01*
X182616987Y-104176793D01*
X182515127Y-104149500D01*
X182418723Y-104149500D01*
X182389282Y-104140855D01*
X182359296Y-104134332D01*
X182354280Y-104130577D01*
X182351684Y-104129815D01*
X182331042Y-104113181D01*
X182256899Y-104039038D01*
X182223414Y-103977715D01*
X182228398Y-103908023D01*
X182270270Y-103852090D01*
X182335734Y-103827673D01*
X182376666Y-103831581D01*
X182447273Y-103850500D01*
X182447276Y-103850500D01*
X182552725Y-103850500D01*
X182552727Y-103850500D01*
X182654587Y-103823207D01*
X182745913Y-103770480D01*
X182820480Y-103695913D01*
X182873207Y-103604587D01*
X182900500Y-103502727D01*
X182900500Y-103397273D01*
X182873207Y-103295413D01*
X182820480Y-103204087D01*
X182745913Y-103129520D01*
X182654587Y-103076793D01*
X182552727Y-103049500D01*
X182447273Y-103049500D01*
X182345413Y-103076793D01*
X182345410Y-103076794D01*
X182254085Y-103129521D01*
X182179521Y-103204085D01*
X182126794Y-103295410D01*
X182126793Y-103295413D01*
X182099500Y-103397273D01*
X182099500Y-103502727D01*
X182125105Y-103598285D01*
X182126793Y-103604586D01*
X182126794Y-103604589D01*
X182153622Y-103651056D01*
X182170095Y-103718956D01*
X182147243Y-103784983D01*
X182092321Y-103828174D01*
X182022768Y-103834815D01*
X181998783Y-103827617D01*
X181986431Y-103822501D01*
X181986429Y-103822500D01*
X181986428Y-103822500D01*
X177176828Y-103822500D01*
X177077172Y-103822500D01*
X177077170Y-103822500D01*
X176985102Y-103860636D01*
X176408069Y-104437669D01*
X176346746Y-104471154D01*
X176277054Y-104466170D01*
X176221121Y-104424298D01*
X176213008Y-104411999D01*
X176178880Y-104352887D01*
X176104313Y-104278320D01*
X176025274Y-104232687D01*
X176012989Y-104225594D01*
X176012988Y-104225593D01*
X176012987Y-104225593D01*
X175911127Y-104198300D01*
X175911126Y-104198300D01*
X175863523Y-104198300D01*
X175834082Y-104189655D01*
X175804096Y-104183132D01*
X175799080Y-104179377D01*
X175796484Y-104178615D01*
X175775842Y-104161981D01*
X175651435Y-104037574D01*
X175617950Y-103976251D01*
X175622934Y-103906559D01*
X175664806Y-103850626D01*
X175730270Y-103826209D01*
X175771202Y-103830117D01*
X175847273Y-103850500D01*
X175847276Y-103850500D01*
X175952725Y-103850500D01*
X175952727Y-103850500D01*
X176054587Y-103823207D01*
X176145913Y-103770480D01*
X176220480Y-103695913D01*
X176273207Y-103604587D01*
X176300500Y-103502727D01*
X176300500Y-103397273D01*
X176273207Y-103295413D01*
X176220480Y-103204087D01*
X176145913Y-103129520D01*
X176054587Y-103076793D01*
X175952727Y-103049500D01*
X175847273Y-103049500D01*
X175745413Y-103076793D01*
X175745410Y-103076794D01*
X175654085Y-103129521D01*
X175579521Y-103204085D01*
X175526794Y-103295410D01*
X175526793Y-103295413D01*
X175499500Y-103397273D01*
X175499500Y-103502727D01*
X175526793Y-103604587D01*
X175579520Y-103695913D01*
X175579523Y-103695916D01*
X175584074Y-103701847D01*
X175609269Y-103767016D01*
X175595231Y-103835461D01*
X175546418Y-103885451D01*
X175478327Y-103901115D01*
X175461516Y-103898953D01*
X175458232Y-103898300D01*
X175458228Y-103898300D01*
X175216630Y-103898300D01*
X175149591Y-103878615D01*
X175103836Y-103825811D01*
X175093892Y-103756653D01*
X175116491Y-103702994D01*
X175116416Y-103702951D01*
X175116760Y-103702353D01*
X175118250Y-103698818D01*
X175120471Y-103695921D01*
X175120480Y-103695913D01*
X175173207Y-103604587D01*
X175200500Y-103502727D01*
X175200500Y-103397273D01*
X175173207Y-103295413D01*
X175120480Y-103204087D01*
X175045913Y-103129520D01*
X174954587Y-103076793D01*
X174852727Y-103049500D01*
X174747273Y-103049500D01*
X174658169Y-103073375D01*
X174626076Y-103077600D01*
X168074564Y-103077600D01*
X168007525Y-103057915D01*
X167986883Y-103041281D01*
X167101545Y-102155943D01*
X167068060Y-102094620D01*
X167065226Y-102068262D01*
X167065226Y-102020660D01*
X167065226Y-102020658D01*
X167037933Y-101918798D01*
X166985206Y-101827472D01*
X166910639Y-101752905D01*
X166867305Y-101727886D01*
X166819090Y-101677320D01*
X166805868Y-101608713D01*
X166831836Y-101543848D01*
X166888750Y-101503320D01*
X166929306Y-101496500D01*
X168129242Y-101496500D01*
X168191242Y-101513113D01*
X168195685Y-101515678D01*
X168195687Y-101515680D01*
X168287013Y-101568407D01*
X168388873Y-101595700D01*
X168388875Y-101595700D01*
X168494325Y-101595700D01*
X168494327Y-101595700D01*
X168596187Y-101568407D01*
X168687513Y-101515680D01*
X168762080Y-101441113D01*
X168814807Y-101349787D01*
X168842100Y-101247927D01*
X168842100Y-101142473D01*
X168814807Y-101040613D01*
X168762080Y-100949287D01*
X168687513Y-100874720D01*
X168612676Y-100831513D01*
X168596189Y-100821994D01*
X168596188Y-100821993D01*
X168596187Y-100821993D01*
X168494327Y-100794700D01*
X168388873Y-100794700D01*
X168287013Y-100821993D01*
X168287010Y-100821994D01*
X168195685Y-100874721D01*
X168115373Y-100955034D01*
X168113892Y-100953553D01*
X168066460Y-100988189D01*
X168024510Y-100995500D01*
X163881255Y-100995500D01*
X163814216Y-100975815D01*
X163793574Y-100959181D01*
X163759914Y-100925521D01*
X163759913Y-100925520D01*
X163692879Y-100886818D01*
X163668589Y-100872794D01*
X163668588Y-100872793D01*
X163668587Y-100872793D01*
X163566727Y-100845500D01*
X163461273Y-100845500D01*
X163359413Y-100872793D01*
X163359410Y-100872794D01*
X163268085Y-100925521D01*
X163193521Y-101000085D01*
X163140794Y-101091410D01*
X163140793Y-101091413D01*
X163113500Y-101193273D01*
X163113500Y-101298727D01*
X163135490Y-101380793D01*
X163140793Y-101400586D01*
X163140794Y-101400589D01*
X163150029Y-101416584D01*
X163189136Y-101484320D01*
X163193521Y-101491914D01*
X163196626Y-101495019D01*
X163198409Y-101498286D01*
X163198469Y-101498363D01*
X163198456Y-101498372D01*
X163230111Y-101556342D01*
X163225127Y-101626034D01*
X163183255Y-101681967D01*
X163117791Y-101706384D01*
X163108945Y-101706700D01*
X161736970Y-101706700D01*
X161644902Y-101744836D01*
X161644901Y-101744837D01*
X160548558Y-102841181D01*
X160487235Y-102874666D01*
X160460877Y-102877500D01*
X160413273Y-102877500D01*
X160311413Y-102904793D01*
X160311410Y-102904794D01*
X160220085Y-102957521D01*
X160145521Y-103032085D01*
X160092794Y-103123410D01*
X160092793Y-103123413D01*
X160065500Y-103225273D01*
X160065500Y-103330727D01*
X160092793Y-103432587D01*
X160145520Y-103523913D01*
X160220087Y-103598480D01*
X160311413Y-103651207D01*
X160413273Y-103678500D01*
X160413275Y-103678500D01*
X160518725Y-103678500D01*
X160518727Y-103678500D01*
X160620587Y-103651207D01*
X160711913Y-103598480D01*
X160786480Y-103523913D01*
X160839207Y-103432587D01*
X160866500Y-103330727D01*
X160866500Y-103283123D01*
X160886185Y-103216084D01*
X160902819Y-103195442D01*
X161854242Y-102244019D01*
X161915565Y-102210534D01*
X161941923Y-102207700D01*
X164268442Y-102207700D01*
X164330442Y-102224313D01*
X164334885Y-102226878D01*
X164334887Y-102226880D01*
X164426213Y-102279607D01*
X164528073Y-102306900D01*
X164528075Y-102306900D01*
X164633525Y-102306900D01*
X164633527Y-102306900D01*
X164735387Y-102279607D01*
X164826713Y-102226880D01*
X164901280Y-102152313D01*
X164954007Y-102060987D01*
X164981300Y-101959127D01*
X164981300Y-101853673D01*
X164954007Y-101751813D01*
X164913988Y-101682499D01*
X164897516Y-101614600D01*
X164920368Y-101548573D01*
X164975290Y-101505382D01*
X165021376Y-101496500D01*
X166400146Y-101496500D01*
X166467185Y-101516185D01*
X166512940Y-101568989D01*
X166522884Y-101638147D01*
X166493859Y-101701703D01*
X166462146Y-101727887D01*
X166418811Y-101752906D01*
X166344247Y-101827470D01*
X166291520Y-101918795D01*
X166291519Y-101918798D01*
X166264226Y-102020658D01*
X166264226Y-102126112D01*
X166291519Y-102227972D01*
X166344246Y-102319298D01*
X166418813Y-102393865D01*
X166510139Y-102446592D01*
X166611999Y-102473885D01*
X166659603Y-102473885D01*
X166726642Y-102493570D01*
X166747284Y-102510204D01*
X167402999Y-103165919D01*
X167436484Y-103227242D01*
X167431500Y-103296934D01*
X167389628Y-103352867D01*
X167324164Y-103377284D01*
X167315318Y-103377600D01*
X165896168Y-103377600D01*
X165829129Y-103357915D01*
X165783374Y-103305111D01*
X165773430Y-103235953D01*
X165802455Y-103172397D01*
X165834162Y-103146216D01*
X165842713Y-103141280D01*
X165917280Y-103066713D01*
X165970007Y-102975387D01*
X165997300Y-102873527D01*
X165997300Y-102768073D01*
X165970007Y-102666213D01*
X165917280Y-102574887D01*
X165842713Y-102500320D01*
X165751387Y-102447593D01*
X165649527Y-102420300D01*
X165544073Y-102420300D01*
X165442213Y-102447593D01*
X165442210Y-102447594D01*
X165350885Y-102500321D01*
X165276321Y-102574885D01*
X165223594Y-102666210D01*
X165223593Y-102666213D01*
X165196300Y-102768073D01*
X165196300Y-102873527D01*
X165223593Y-102975387D01*
X165276320Y-103066713D01*
X165350887Y-103141280D01*
X165359435Y-103146215D01*
X165407648Y-103196781D01*
X165420870Y-103265388D01*
X165394902Y-103330252D01*
X165337988Y-103370780D01*
X165297432Y-103377600D01*
X163768538Y-103377600D01*
X163676470Y-103415736D01*
X163676469Y-103415737D01*
X163481582Y-103610625D01*
X163420259Y-103644110D01*
X163393901Y-103646944D01*
X163346297Y-103646944D01*
X163244437Y-103674237D01*
X163244434Y-103674238D01*
X163153109Y-103726965D01*
X163078545Y-103801529D01*
X163025818Y-103892854D01*
X163025817Y-103892857D01*
X162998524Y-103994717D01*
X162998524Y-104100171D01*
X163024818Y-104198300D01*
X163025817Y-104202030D01*
X163025818Y-104202033D01*
X163039421Y-104225594D01*
X163078544Y-104293357D01*
X163153111Y-104367924D01*
X163244437Y-104420651D01*
X163346297Y-104447944D01*
X163346299Y-104447944D01*
X163451749Y-104447944D01*
X163451751Y-104447944D01*
X163553611Y-104420651D01*
X163644937Y-104367924D01*
X163677353Y-104335508D01*
X163738676Y-104302023D01*
X163808368Y-104307007D01*
X163852715Y-104335508D01*
X163853920Y-104336713D01*
X163928487Y-104411280D01*
X164019813Y-104464007D01*
X164121673Y-104491300D01*
X164121675Y-104491300D01*
X164227125Y-104491300D01*
X164227127Y-104491300D01*
X164328987Y-104464007D01*
X164420313Y-104411280D01*
X164494880Y-104336713D01*
X164547607Y-104245387D01*
X164574900Y-104143527D01*
X164574900Y-104038073D01*
X164573994Y-104034691D01*
X164574064Y-104031729D01*
X164573839Y-104030017D01*
X164574106Y-104029981D01*
X164575657Y-103964843D01*
X164614820Y-103906981D01*
X164679049Y-103879477D01*
X164693769Y-103878600D01*
X165162427Y-103878600D01*
X165229466Y-103898285D01*
X165275221Y-103951089D01*
X165285366Y-104018784D01*
X165284499Y-104025370D01*
X165284499Y-104025373D01*
X165284499Y-104130827D01*
X165311792Y-104232687D01*
X165364519Y-104324013D01*
X165439086Y-104398580D01*
X165530412Y-104451307D01*
X165632272Y-104478600D01*
X165679876Y-104478600D01*
X165746915Y-104498285D01*
X165767557Y-104514919D01*
X166361402Y-105108764D01*
X166453471Y-105146900D01*
X166553127Y-105146900D01*
X168499478Y-105146900D01*
X168566517Y-105166585D01*
X168612272Y-105219389D01*
X168622216Y-105288547D01*
X168593191Y-105352103D01*
X168587164Y-105358574D01*
X168458999Y-105486740D01*
X168351758Y-105593981D01*
X168290435Y-105627466D01*
X168264077Y-105630300D01*
X163606319Y-105630300D01*
X163539280Y-105610615D01*
X163518638Y-105593981D01*
X163301241Y-105376584D01*
X163054894Y-105130236D01*
X163003056Y-105108764D01*
X162962826Y-105092100D01*
X162962825Y-105092100D01*
X158078631Y-105092100D01*
X157978976Y-105092100D01*
X157978974Y-105092100D01*
X157886906Y-105130236D01*
X157886905Y-105130237D01*
X157756899Y-105260244D01*
X157695576Y-105293729D01*
X157669218Y-105296563D01*
X157621614Y-105296563D01*
X157519754Y-105323856D01*
X157519751Y-105323857D01*
X157428426Y-105376584D01*
X157353862Y-105451148D01*
X157301135Y-105542473D01*
X157301134Y-105542476D01*
X157273841Y-105644336D01*
X157273841Y-105749790D01*
X157301134Y-105851650D01*
X157353861Y-105942976D01*
X157428428Y-106017543D01*
X157519754Y-106070270D01*
X157621614Y-106097563D01*
X157621616Y-106097563D01*
X157727066Y-106097563D01*
X157727068Y-106097563D01*
X157828928Y-106070270D01*
X157920254Y-106017543D01*
X157994821Y-105942976D01*
X158047548Y-105851650D01*
X158074841Y-105749790D01*
X158074841Y-105717100D01*
X158094526Y-105650061D01*
X158147330Y-105604306D01*
X158198841Y-105593100D01*
X162204028Y-105593100D01*
X162271067Y-105612785D01*
X162316822Y-105665589D01*
X162326967Y-105733284D01*
X162326100Y-105739870D01*
X162326100Y-105739873D01*
X162326100Y-105845327D01*
X162353393Y-105947187D01*
X162406120Y-106038513D01*
X162480687Y-106113080D01*
X162564134Y-106161258D01*
X162612350Y-106211825D01*
X162625572Y-106280432D01*
X162599604Y-106345297D01*
X162589815Y-106356326D01*
X162075961Y-106870181D01*
X162014638Y-106903666D01*
X161988280Y-106906500D01*
X160113631Y-106906500D01*
X160046592Y-106886815D01*
X160000837Y-106834011D01*
X159990893Y-106764853D01*
X160006241Y-106720505D01*
X160051807Y-106641584D01*
X160079100Y-106539724D01*
X160079100Y-106434270D01*
X160051807Y-106332410D01*
X159999080Y-106241084D01*
X159924513Y-106166517D01*
X159833187Y-106113790D01*
X159731327Y-106086497D01*
X159625873Y-106086497D01*
X159524013Y-106113790D01*
X159524010Y-106113791D01*
X159432685Y-106166518D01*
X159358121Y-106241082D01*
X159305394Y-106332407D01*
X159305393Y-106332410D01*
X159278100Y-106434270D01*
X159278100Y-106539724D01*
X159305393Y-106641584D01*
X159350957Y-106720503D01*
X159367429Y-106788399D01*
X159344577Y-106854426D01*
X159289656Y-106897617D01*
X159243569Y-106906500D01*
X158178488Y-106906500D01*
X158111449Y-106886815D01*
X158065694Y-106834011D01*
X158064157Y-106829819D01*
X158063917Y-106829919D01*
X158060809Y-106822417D01*
X158060808Y-106822412D01*
X158008081Y-106731086D01*
X157933514Y-106656519D01*
X157842188Y-106603792D01*
X157740328Y-106576499D01*
X157634874Y-106576499D01*
X157533014Y-106603792D01*
X157533011Y-106603793D01*
X157441686Y-106656520D01*
X157367122Y-106731084D01*
X157314395Y-106822409D01*
X157314394Y-106822412D01*
X157287101Y-106924272D01*
X157287101Y-107029726D01*
X157313841Y-107129520D01*
X157314394Y-107131585D01*
X157314395Y-107131588D01*
X157318244Y-107138255D01*
X157367121Y-107222912D01*
X157441688Y-107297479D01*
X157533014Y-107350206D01*
X157634874Y-107377499D01*
X157634876Y-107377499D01*
X157720681Y-107377499D01*
X157768135Y-107386939D01*
X157817769Y-107407498D01*
X157817774Y-107407500D01*
X157817775Y-107407500D01*
X159392078Y-107407500D01*
X159459117Y-107427185D01*
X159504872Y-107479989D01*
X159514816Y-107549147D01*
X159485791Y-107612703D01*
X159454079Y-107638886D01*
X159440854Y-107646521D01*
X159366289Y-107721086D01*
X159313562Y-107812411D01*
X159313561Y-107812414D01*
X159286268Y-107914274D01*
X159286268Y-108019728D01*
X159313561Y-108121588D01*
X159366288Y-108212914D01*
X159440855Y-108287481D01*
X159532181Y-108340208D01*
X159634041Y-108367501D01*
X159634043Y-108367501D01*
X159739493Y-108367501D01*
X159739495Y-108367501D01*
X159841355Y-108340208D01*
X159932681Y-108287481D01*
X160007248Y-108212914D01*
X160059975Y-108121588D01*
X160087268Y-108019728D01*
X160087268Y-107914274D01*
X160059975Y-107812414D01*
X160007248Y-107721088D01*
X159932681Y-107646521D01*
X159919457Y-107638886D01*
X159871242Y-107588319D01*
X159858020Y-107519712D01*
X159883988Y-107454847D01*
X159940903Y-107414319D01*
X159981458Y-107407500D01*
X162193229Y-107407500D01*
X162193231Y-107407500D01*
X162285300Y-107369364D01*
X162814624Y-106840039D01*
X162831093Y-106831046D01*
X162844568Y-106817983D01*
X162861123Y-106814649D01*
X162875945Y-106806556D01*
X162894664Y-106807894D01*
X162913062Y-106804190D01*
X162928790Y-106810335D01*
X162945636Y-106811540D01*
X162960660Y-106822787D01*
X162978141Y-106829617D01*
X162993944Y-106847702D01*
X163001570Y-106853411D01*
X163002708Y-106854957D01*
X163006477Y-106860158D01*
X163057720Y-106948913D01*
X163105230Y-106996423D01*
X163111001Y-107004386D01*
X163119541Y-107028412D01*
X163131762Y-107050793D01*
X163131047Y-107060782D01*
X163134402Y-107070220D01*
X163128597Y-107095047D01*
X163126778Y-107120485D01*
X163118583Y-107137876D01*
X163118495Y-107138255D01*
X163118329Y-107138415D01*
X163117984Y-107139149D01*
X163074775Y-107213991D01*
X163074773Y-107213996D01*
X163047480Y-107315856D01*
X163047480Y-107421310D01*
X163074773Y-107523170D01*
X163127500Y-107614496D01*
X163202067Y-107689063D01*
X163293393Y-107741790D01*
X163395253Y-107769083D01*
X163395255Y-107769083D01*
X163500704Y-107769083D01*
X163500707Y-107769083D01*
X163532522Y-107760558D01*
X163602368Y-107762221D01*
X163660231Y-107801383D01*
X163684386Y-107848234D01*
X163685376Y-107851927D01*
X163686893Y-107857587D01*
X163739620Y-107948913D01*
X163814187Y-108023480D01*
X163891494Y-108068113D01*
X163939710Y-108118680D01*
X163952932Y-108187287D01*
X163926964Y-108252152D01*
X163870050Y-108292680D01*
X163829494Y-108299500D01*
X162900170Y-108299500D01*
X162808102Y-108337636D01*
X162808101Y-108337637D01*
X162007758Y-109137981D01*
X161946435Y-109171466D01*
X161920077Y-109174300D01*
X159817255Y-109174300D01*
X159750216Y-109154615D01*
X159729574Y-109137981D01*
X159695914Y-109104321D01*
X159695913Y-109104320D01*
X159629059Y-109065722D01*
X159604589Y-109051594D01*
X159604588Y-109051593D01*
X159604587Y-109051593D01*
X159502727Y-109024300D01*
X159397273Y-109024300D01*
X159295413Y-109051593D01*
X159295410Y-109051594D01*
X159204085Y-109104321D01*
X159129521Y-109178885D01*
X159076794Y-109270210D01*
X159076793Y-109270213D01*
X159049500Y-109372073D01*
X159049500Y-109477527D01*
X159050860Y-109482606D01*
X159049200Y-109552453D01*
X159010039Y-109610316D01*
X158945812Y-109637823D01*
X158931087Y-109638700D01*
X158658122Y-109638700D01*
X158591083Y-109619015D01*
X158570441Y-109602381D01*
X158215333Y-109247273D01*
X157840897Y-108872836D01*
X157804066Y-108857580D01*
X157748829Y-108834700D01*
X157748828Y-108834700D01*
X157228457Y-108834700D01*
X157161418Y-108815015D01*
X157140776Y-108798381D01*
X157107116Y-108764721D01*
X157107115Y-108764720D01*
X157015789Y-108711993D01*
X156913929Y-108684700D01*
X156808475Y-108684700D01*
X156706615Y-108711993D01*
X156706612Y-108711994D01*
X156615287Y-108764721D01*
X156540723Y-108839285D01*
X156487996Y-108930610D01*
X156487995Y-108930613D01*
X156460702Y-109032473D01*
X154315850Y-109032473D01*
X154280401Y-108265718D01*
X154280269Y-108259991D01*
X154280269Y-107440008D01*
X154280401Y-107434281D01*
X154283402Y-107369363D01*
X154318272Y-106615139D01*
X154318669Y-106609430D01*
X154319191Y-106603793D01*
X154394329Y-105792922D01*
X154394987Y-105787252D01*
X154395997Y-105780018D01*
X154508275Y-104975111D01*
X154509196Y-104969469D01*
X154514590Y-104940617D01*
X154659875Y-104163405D01*
X154661057Y-104157809D01*
X154661815Y-104154587D01*
X154848803Y-103359563D01*
X154850222Y-103354099D01*
X155074636Y-102565366D01*
X155076327Y-102559906D01*
X155088023Y-102525010D01*
X155336928Y-101782377D01*
X155338860Y-101777028D01*
X155407669Y-101599413D01*
X155458618Y-101467898D01*
X155584688Y-101142473D01*
X158338300Y-101142473D01*
X158338300Y-101247927D01*
X158365593Y-101349787D01*
X158418320Y-101441113D01*
X158492887Y-101515680D01*
X158584213Y-101568407D01*
X158686073Y-101595700D01*
X158686075Y-101595700D01*
X158791525Y-101595700D01*
X158791527Y-101595700D01*
X158893387Y-101568407D01*
X158984713Y-101515680D01*
X159059280Y-101441113D01*
X159112007Y-101349787D01*
X159139300Y-101247927D01*
X159139300Y-101142473D01*
X159112007Y-101040613D01*
X159059280Y-100949287D01*
X158984713Y-100874720D01*
X158909876Y-100831513D01*
X158893389Y-100821994D01*
X158893388Y-100821993D01*
X158893387Y-100821993D01*
X158791527Y-100794700D01*
X158686073Y-100794700D01*
X158584213Y-100821993D01*
X158584210Y-100821994D01*
X158492885Y-100874721D01*
X158418321Y-100949285D01*
X158365594Y-101040610D01*
X158365593Y-101040613D01*
X158338300Y-101142473D01*
X155584688Y-101142473D01*
X155605188Y-101089557D01*
X155605190Y-101089553D01*
X155635087Y-101012379D01*
X155637280Y-101007086D01*
X155968501Y-100256941D01*
X155970895Y-100251841D01*
X156336430Y-99517747D01*
X156339097Y-99512690D01*
X156343890Y-99504085D01*
X156738123Y-98796301D01*
X156740988Y-98791423D01*
X157172710Y-98094169D01*
X157175784Y-98089452D01*
X157375506Y-97797893D01*
X163068514Y-97797893D01*
X163068514Y-97903347D01*
X163095807Y-98005207D01*
X163148534Y-98096533D01*
X163223101Y-98171100D01*
X163314427Y-98223827D01*
X163416287Y-98251120D01*
X163463891Y-98251120D01*
X163530930Y-98270805D01*
X163551572Y-98287439D01*
X165070159Y-99806025D01*
X165070162Y-99806029D01*
X165077230Y-99813097D01*
X165147697Y-99883564D01*
X165239766Y-99921700D01*
X169268781Y-99921700D01*
X169335820Y-99941385D01*
X169381575Y-99994189D01*
X169391519Y-100063347D01*
X169388559Y-100077778D01*
X169361900Y-100177273D01*
X169361900Y-100282727D01*
X169389193Y-100384587D01*
X169441920Y-100475913D01*
X169516487Y-100550480D01*
X169607813Y-100603207D01*
X169709673Y-100630500D01*
X169709675Y-100630500D01*
X169815125Y-100630500D01*
X169815127Y-100630500D01*
X169916987Y-100603207D01*
X170008313Y-100550480D01*
X170082880Y-100475913D01*
X170135607Y-100384587D01*
X170162900Y-100282727D01*
X170162900Y-100177273D01*
X170136244Y-100077790D01*
X170137907Y-100007944D01*
X170177069Y-99950081D01*
X170241298Y-99922577D01*
X170256019Y-99921700D01*
X170950125Y-99921700D01*
X171017164Y-99941385D01*
X171062919Y-99994189D01*
X171072863Y-100063347D01*
X171057512Y-100107700D01*
X171032465Y-100151081D01*
X171032465Y-100151082D01*
X171032464Y-100151084D01*
X171005171Y-100252944D01*
X171005171Y-100358398D01*
X171012189Y-100384587D01*
X171032464Y-100460257D01*
X171033675Y-100463181D01*
X171033961Y-100465844D01*
X171034568Y-100468109D01*
X171034214Y-100468203D01*
X171041141Y-100532651D01*
X171009864Y-100595129D01*
X170949774Y-100630779D01*
X170919112Y-100634630D01*
X170822273Y-100634630D01*
X170720413Y-100661923D01*
X170720410Y-100661924D01*
X170629085Y-100714651D01*
X170554521Y-100789215D01*
X170501794Y-100880540D01*
X170498684Y-100888050D01*
X170495711Y-100886818D01*
X170467219Y-100933590D01*
X170404379Y-100964136D01*
X170383785Y-100965858D01*
X170292257Y-100965858D01*
X170190397Y-100993151D01*
X170190394Y-100993152D01*
X170099069Y-101045879D01*
X170024505Y-101120443D01*
X169971778Y-101211768D01*
X169971777Y-101211771D01*
X169944484Y-101313631D01*
X169944484Y-101419085D01*
X169970367Y-101515680D01*
X169971777Y-101520944D01*
X169971778Y-101520947D01*
X169984763Y-101543438D01*
X170022191Y-101608265D01*
X170024505Y-101612272D01*
X170067076Y-101654843D01*
X170100561Y-101716166D01*
X170095577Y-101785858D01*
X170053705Y-101841791D01*
X170011489Y-101862299D01*
X169912611Y-101888793D01*
X169912610Y-101888794D01*
X169821285Y-101941521D01*
X169746721Y-102016085D01*
X169693994Y-102107410D01*
X169693993Y-102107413D01*
X169666700Y-102209273D01*
X169666700Y-102314727D01*
X169693993Y-102416587D01*
X169746720Y-102507913D01*
X169821287Y-102582480D01*
X169912613Y-102635207D01*
X170014473Y-102662500D01*
X170014475Y-102662500D01*
X170119925Y-102662500D01*
X170119927Y-102662500D01*
X170221787Y-102635207D01*
X170242041Y-102623512D01*
X170304042Y-102606900D01*
X173985026Y-102606900D01*
X173985028Y-102606900D01*
X174077097Y-102568764D01*
X174214591Y-102431268D01*
X174275909Y-102397787D01*
X174345601Y-102402771D01*
X174401535Y-102444642D01*
X174422042Y-102486858D01*
X174426791Y-102504582D01*
X174426792Y-102504586D01*
X174426793Y-102504587D01*
X174479520Y-102595913D01*
X174554087Y-102670480D01*
X174645413Y-102723207D01*
X174747273Y-102750500D01*
X174747275Y-102750500D01*
X174852725Y-102750500D01*
X174852727Y-102750500D01*
X174954587Y-102723207D01*
X175045913Y-102670480D01*
X175120480Y-102595913D01*
X175173207Y-102504587D01*
X175200500Y-102402727D01*
X175200500Y-102297273D01*
X175173207Y-102195413D01*
X175120480Y-102104087D01*
X175045913Y-102029520D01*
X174954587Y-101976793D01*
X174954586Y-101976792D01*
X174949214Y-101973691D01*
X174900998Y-101923124D01*
X174889922Y-101865654D01*
X174887300Y-101865654D01*
X174887300Y-101752075D01*
X174887300Y-101752073D01*
X174860007Y-101650213D01*
X174807280Y-101558887D01*
X174753374Y-101504981D01*
X174719889Y-101443658D01*
X174724873Y-101373966D01*
X174766745Y-101318033D01*
X174832209Y-101293616D01*
X174841055Y-101293300D01*
X176427428Y-101293300D01*
X176494467Y-101312985D01*
X176540222Y-101365789D01*
X176550367Y-101433484D01*
X176549500Y-101440070D01*
X176549500Y-101440073D01*
X176549500Y-101545527D01*
X176576793Y-101647385D01*
X176576793Y-101647386D01*
X176576794Y-101647389D01*
X176578747Y-101650772D01*
X176629520Y-101738713D01*
X176704087Y-101813280D01*
X176795413Y-101866007D01*
X176897273Y-101893300D01*
X176897275Y-101893300D01*
X177002725Y-101893300D01*
X177002727Y-101893300D01*
X177104587Y-101866007D01*
X177195913Y-101813280D01*
X177270480Y-101738713D01*
X177323207Y-101647387D01*
X177330225Y-101621193D01*
X177366589Y-101561533D01*
X177429436Y-101531003D01*
X177498812Y-101539297D01*
X177552690Y-101583782D01*
X177569775Y-101621194D01*
X177576792Y-101647385D01*
X177576794Y-101647389D01*
X177578747Y-101650772D01*
X177629520Y-101738713D01*
X177704087Y-101813280D01*
X177795413Y-101866007D01*
X177897273Y-101893300D01*
X177897275Y-101893300D01*
X178002725Y-101893300D01*
X178002727Y-101893300D01*
X178104587Y-101866007D01*
X178195913Y-101813280D01*
X178270480Y-101738713D01*
X178323207Y-101647387D01*
X178350500Y-101545527D01*
X178350500Y-101440073D01*
X178350500Y-101440070D01*
X178349633Y-101433484D01*
X178352268Y-101416584D01*
X178349834Y-101399653D01*
X178357540Y-101382777D01*
X178360399Y-101364449D01*
X178371753Y-101351656D01*
X178378859Y-101336097D01*
X178394465Y-101326067D01*
X178406780Y-101312193D01*
X178423546Y-101307378D01*
X178437637Y-101298323D01*
X178472572Y-101293300D01*
X178527732Y-101293300D01*
X178594771Y-101312985D01*
X178640526Y-101365789D01*
X178650470Y-101434947D01*
X178647510Y-101449377D01*
X178639500Y-101479273D01*
X178639500Y-101584727D01*
X178666793Y-101686587D01*
X178719520Y-101777913D01*
X178794087Y-101852480D01*
X178885413Y-101905207D01*
X178987273Y-101932500D01*
X179034877Y-101932500D01*
X179101916Y-101952185D01*
X179116637Y-101964048D01*
X179120102Y-101966363D01*
X179120103Y-101966364D01*
X179212172Y-102004500D01*
X179311827Y-102004500D01*
X182907945Y-102004500D01*
X182974984Y-102024185D01*
X182995626Y-102040819D01*
X183029287Y-102074480D01*
X183120613Y-102127207D01*
X183222473Y-102154500D01*
X183222475Y-102154500D01*
X183327925Y-102154500D01*
X183327927Y-102154500D01*
X183429787Y-102127207D01*
X183521113Y-102074480D01*
X183595680Y-101999913D01*
X183648407Y-101908587D01*
X183675700Y-101806727D01*
X183675700Y-101701273D01*
X183648407Y-101599413D01*
X183595680Y-101508087D01*
X183521113Y-101433520D01*
X183454259Y-101394922D01*
X183429789Y-101380794D01*
X183429788Y-101380793D01*
X183429787Y-101380793D01*
X183327927Y-101353500D01*
X183222473Y-101353500D01*
X183120613Y-101380793D01*
X183120610Y-101380794D01*
X183029285Y-101433521D01*
X182995626Y-101467181D01*
X182934303Y-101500666D01*
X182907945Y-101503500D01*
X182407224Y-101503500D01*
X182340185Y-101483815D01*
X182294430Y-101431011D01*
X182284486Y-101361853D01*
X182313511Y-101298297D01*
X182355958Y-101267688D01*
X182355948Y-101267671D01*
X182356120Y-101267571D01*
X182359771Y-101264939D01*
X182362980Y-101263608D01*
X182362987Y-101263607D01*
X182454313Y-101210880D01*
X182528880Y-101136313D01*
X182581607Y-101044987D01*
X182608900Y-100943127D01*
X182608900Y-100837673D01*
X182581607Y-100735813D01*
X182528880Y-100644487D01*
X182454313Y-100569920D01*
X182362987Y-100517193D01*
X182261127Y-100489900D01*
X182155673Y-100489900D01*
X182053813Y-100517193D01*
X182053810Y-100517194D01*
X181962485Y-100569921D01*
X181887921Y-100644485D01*
X181838376Y-100730300D01*
X181787809Y-100778516D01*
X181730989Y-100792300D01*
X174132170Y-100792300D01*
X174090647Y-100809500D01*
X174040103Y-100830436D01*
X174040102Y-100830436D01*
X174028820Y-100835110D01*
X174027264Y-100831355D01*
X173982168Y-100845480D01*
X173979944Y-100845500D01*
X173926073Y-100845500D01*
X173824213Y-100872793D01*
X173824210Y-100872794D01*
X173732885Y-100925521D01*
X173699226Y-100959181D01*
X173637903Y-100992666D01*
X173611545Y-100995500D01*
X172844576Y-100995500D01*
X172777537Y-100975815D01*
X172731782Y-100923011D01*
X172721838Y-100853853D01*
X172737189Y-100809500D01*
X172745734Y-100794700D01*
X172777207Y-100740187D01*
X172804500Y-100638327D01*
X172804500Y-100532873D01*
X172777207Y-100431013D01*
X172724480Y-100339687D01*
X172649913Y-100265120D01*
X172558587Y-100212393D01*
X172456727Y-100185100D01*
X172351273Y-100185100D01*
X172249413Y-100212393D01*
X172249410Y-100212394D01*
X172200528Y-100240616D01*
X172172777Y-100256638D01*
X172157290Y-100260788D01*
X172145714Y-100268228D01*
X172110779Y-100273251D01*
X171906761Y-100273251D01*
X171839722Y-100253566D01*
X171793967Y-100200762D01*
X171786986Y-100181345D01*
X171778878Y-100151084D01*
X171753829Y-100107699D01*
X171737357Y-100039800D01*
X171760209Y-99973773D01*
X171815130Y-99930583D01*
X171861217Y-99921700D01*
X174172896Y-99921700D01*
X174172898Y-99921700D01*
X174264967Y-99883564D01*
X174514169Y-99634362D01*
X174541096Y-99619658D01*
X174566915Y-99603066D01*
X174573115Y-99602174D01*
X174575492Y-99600877D01*
X174601850Y-99598043D01*
X174632744Y-99598043D01*
X174699783Y-99617728D01*
X174720425Y-99634362D01*
X174754086Y-99668023D01*
X174845412Y-99720750D01*
X174947272Y-99748043D01*
X174947274Y-99748043D01*
X175052724Y-99748043D01*
X175052726Y-99748043D01*
X175102873Y-99734606D01*
X175172721Y-99736267D01*
X175230584Y-99775429D01*
X175254741Y-99822286D01*
X175276793Y-99904588D01*
X175276794Y-99904589D01*
X175290922Y-99929059D01*
X175329520Y-99995913D01*
X175404087Y-100070480D01*
X175495413Y-100123207D01*
X175597273Y-100150500D01*
X175597275Y-100150500D01*
X175702725Y-100150500D01*
X175702727Y-100150500D01*
X175804587Y-100123207D01*
X175895913Y-100070480D01*
X175970480Y-99995913D01*
X176023207Y-99904587D01*
X176050500Y-99802727D01*
X176050500Y-99697273D01*
X176023207Y-99595413D01*
X175970480Y-99504087D01*
X175895913Y-99429520D01*
X175804587Y-99376793D01*
X175702727Y-99349500D01*
X175597273Y-99349500D01*
X175547125Y-99362937D01*
X175477275Y-99361274D01*
X175419412Y-99322111D01*
X175395258Y-99275257D01*
X175373206Y-99192956D01*
X175320479Y-99101630D01*
X175245912Y-99027063D01*
X175154586Y-98974336D01*
X175052726Y-98947043D01*
X174947272Y-98947043D01*
X174845412Y-98974336D01*
X174845409Y-98974337D01*
X174754084Y-99027064D01*
X174720425Y-99060724D01*
X174659102Y-99094209D01*
X174632744Y-99097043D01*
X174396897Y-99097043D01*
X174304829Y-99135179D01*
X174304828Y-99135180D01*
X174055628Y-99384381D01*
X173994305Y-99417866D01*
X173967947Y-99420700D01*
X165444716Y-99420700D01*
X165377677Y-99401015D01*
X165357035Y-99384381D01*
X163905833Y-97933178D01*
X163872348Y-97871855D01*
X163869514Y-97845497D01*
X163869514Y-97797895D01*
X163869514Y-97797893D01*
X163842221Y-97696033D01*
X163789494Y-97604707D01*
X163714927Y-97530140D01*
X163623601Y-97477413D01*
X163521741Y-97450120D01*
X163416287Y-97450120D01*
X163314427Y-97477413D01*
X163314424Y-97477414D01*
X163223099Y-97530141D01*
X163148535Y-97604705D01*
X163095808Y-97696030D01*
X163095807Y-97696033D01*
X163068514Y-97797893D01*
X157375506Y-97797893D01*
X157639245Y-97412881D01*
X157642548Y-97408292D01*
X157887197Y-97084323D01*
X159480842Y-97084323D01*
X159480842Y-97235855D01*
X159500451Y-97309039D01*
X159520061Y-97382225D01*
X159557944Y-97447839D01*
X159595827Y-97513454D01*
X159702977Y-97620604D01*
X159809974Y-97682379D01*
X159834203Y-97696368D01*
X159834207Y-97696370D01*
X159980576Y-97735589D01*
X159980578Y-97735589D01*
X160132106Y-97735589D01*
X160132108Y-97735589D01*
X160278477Y-97696370D01*
X160409707Y-97620604D01*
X160516857Y-97513454D01*
X160592623Y-97382224D01*
X160602577Y-97345076D01*
X180697303Y-97345076D01*
X180697303Y-97450530D01*
X180724596Y-97552390D01*
X180777323Y-97643716D01*
X180851890Y-97718283D01*
X180943216Y-97771010D01*
X181045076Y-97798303D01*
X181045078Y-97798303D01*
X181150528Y-97798303D01*
X181150530Y-97798303D01*
X181252390Y-97771010D01*
X181343716Y-97718283D01*
X181418283Y-97643716D01*
X181471010Y-97552390D01*
X181498303Y-97450530D01*
X181498303Y-97345076D01*
X181471010Y-97243216D01*
X181418283Y-97151890D01*
X181350716Y-97084323D01*
X183668158Y-97084323D01*
X183668158Y-97235855D01*
X183687767Y-97309039D01*
X183707377Y-97382225D01*
X183745260Y-97447839D01*
X183783143Y-97513454D01*
X183890293Y-97620604D01*
X183997290Y-97682379D01*
X184021519Y-97696368D01*
X184021523Y-97696370D01*
X184167892Y-97735589D01*
X184167894Y-97735589D01*
X184319422Y-97735589D01*
X184319424Y-97735589D01*
X184465793Y-97696370D01*
X184597023Y-97620604D01*
X184704173Y-97513454D01*
X184779939Y-97382224D01*
X184819158Y-97235855D01*
X184819158Y-97084323D01*
X184779939Y-96937954D01*
X184704173Y-96806724D01*
X184597023Y-96699574D01*
X184531408Y-96661691D01*
X184465794Y-96623808D01*
X184349911Y-96592758D01*
X184319424Y-96584589D01*
X184167892Y-96584589D01*
X184021521Y-96623808D01*
X183890293Y-96699574D01*
X183890290Y-96699576D01*
X183783145Y-96806721D01*
X183783143Y-96806724D01*
X183707377Y-96937952D01*
X183684161Y-97024597D01*
X183668158Y-97084323D01*
X181350716Y-97084323D01*
X181343716Y-97077323D01*
X181252390Y-97024596D01*
X181150530Y-96997303D01*
X181045076Y-96997303D01*
X180943216Y-97024596D01*
X180943213Y-97024597D01*
X180851888Y-97077324D01*
X180777324Y-97151888D01*
X180724597Y-97243213D01*
X180724596Y-97243216D01*
X180697303Y-97345076D01*
X160602577Y-97345076D01*
X160631842Y-97235855D01*
X160631842Y-97084323D01*
X160592623Y-96937954D01*
X160516857Y-96806724D01*
X160409707Y-96699574D01*
X160344092Y-96661691D01*
X160278478Y-96623808D01*
X160162595Y-96592758D01*
X160132108Y-96584589D01*
X159980576Y-96584589D01*
X159834205Y-96623808D01*
X159702977Y-96699574D01*
X159702974Y-96699576D01*
X159595829Y-96806721D01*
X159595827Y-96806724D01*
X159520061Y-96937952D01*
X159496845Y-97024597D01*
X159480842Y-97084323D01*
X157887197Y-97084323D01*
X158136750Y-96753861D01*
X158140266Y-96749424D01*
X158664151Y-96118533D01*
X158667875Y-96114254D01*
X159145165Y-95590691D01*
X168809500Y-95590691D01*
X168809500Y-95709309D01*
X168840201Y-95823886D01*
X168899511Y-95926613D01*
X168983387Y-96010489D01*
X169086114Y-96069799D01*
X169200691Y-96100500D01*
X169200694Y-96100500D01*
X169319306Y-96100500D01*
X169319309Y-96100500D01*
X169433886Y-96069799D01*
X169536613Y-96010489D01*
X169620489Y-95926613D01*
X169679799Y-95823886D01*
X169710500Y-95709309D01*
X169710500Y-95590691D01*
X174589500Y-95590691D01*
X174589500Y-95709309D01*
X174620201Y-95823886D01*
X174679511Y-95926613D01*
X174763387Y-96010489D01*
X174866114Y-96069799D01*
X174980691Y-96100500D01*
X174980694Y-96100500D01*
X175099306Y-96100500D01*
X175099309Y-96100500D01*
X175213886Y-96069799D01*
X175316613Y-96010489D01*
X175400489Y-95926613D01*
X175459799Y-95823886D01*
X175490500Y-95709309D01*
X175490500Y-95590691D01*
X175459799Y-95476114D01*
X175400489Y-95373387D01*
X175316613Y-95289511D01*
X175213886Y-95230201D01*
X175099309Y-95199500D01*
X174980691Y-95199500D01*
X174866114Y-95230201D01*
X174866112Y-95230201D01*
X174866112Y-95230202D01*
X174763387Y-95289511D01*
X174763384Y-95289513D01*
X174679513Y-95373384D01*
X174679511Y-95373387D01*
X174620201Y-95476114D01*
X174589500Y-95590691D01*
X169710500Y-95590691D01*
X169679799Y-95476114D01*
X169620489Y-95373387D01*
X169536613Y-95289511D01*
X169433886Y-95230201D01*
X169319309Y-95199500D01*
X169200691Y-95199500D01*
X169086114Y-95230201D01*
X169086112Y-95230201D01*
X169086112Y-95230202D01*
X168983387Y-95289511D01*
X168983384Y-95289513D01*
X168899513Y-95373384D01*
X168899511Y-95373387D01*
X168840201Y-95476114D01*
X168809500Y-95590691D01*
X159145165Y-95590691D01*
X159220344Y-95508223D01*
X159224258Y-95504124D01*
X159804124Y-94924258D01*
X159808223Y-94920344D01*
X160414254Y-94367875D01*
X160418533Y-94364151D01*
X160498021Y-94298145D01*
X162690158Y-94298145D01*
X162690158Y-94449676D01*
X162729377Y-94596047D01*
X162767260Y-94661661D01*
X162805143Y-94727276D01*
X162912293Y-94834426D01*
X163043523Y-94910192D01*
X163189892Y-94949411D01*
X163189894Y-94949411D01*
X163341422Y-94949411D01*
X163341424Y-94949411D01*
X163487793Y-94910192D01*
X163619023Y-94834426D01*
X163726173Y-94727276D01*
X163801939Y-94596046D01*
X163841158Y-94449677D01*
X163841158Y-94298145D01*
X180458842Y-94298145D01*
X180458842Y-94449676D01*
X180498061Y-94596047D01*
X180535944Y-94661661D01*
X180573827Y-94727276D01*
X180680977Y-94834426D01*
X180812207Y-94910192D01*
X180958576Y-94949411D01*
X180958578Y-94949411D01*
X181110106Y-94949411D01*
X181110108Y-94949411D01*
X181256477Y-94910192D01*
X181387707Y-94834426D01*
X181494857Y-94727276D01*
X181570623Y-94596046D01*
X181609842Y-94449677D01*
X181609842Y-94298145D01*
X181570623Y-94151776D01*
X181494857Y-94020546D01*
X181387707Y-93913396D01*
X181322092Y-93875513D01*
X181256478Y-93837630D01*
X181183292Y-93818020D01*
X181110108Y-93798411D01*
X180958576Y-93798411D01*
X180812205Y-93837630D01*
X180680977Y-93913396D01*
X180680974Y-93913398D01*
X180573829Y-94020543D01*
X180573827Y-94020546D01*
X180498061Y-94151774D01*
X180458842Y-94298145D01*
X163841158Y-94298145D01*
X163801939Y-94151776D01*
X163726173Y-94020546D01*
X163619023Y-93913396D01*
X163553408Y-93875513D01*
X163487794Y-93837630D01*
X163414608Y-93818020D01*
X163341424Y-93798411D01*
X163189892Y-93798411D01*
X163043521Y-93837630D01*
X162912293Y-93913396D01*
X162912290Y-93913398D01*
X162805145Y-94020543D01*
X162805143Y-94020546D01*
X162729377Y-94151774D01*
X162690158Y-94298145D01*
X160498021Y-94298145D01*
X161049424Y-93840266D01*
X161053861Y-93836750D01*
X161708292Y-93342548D01*
X161712881Y-93339245D01*
X162389452Y-92875784D01*
X162394169Y-92872710D01*
X163091423Y-92440988D01*
X163096301Y-92438123D01*
X163812699Y-92039092D01*
X163817747Y-92036430D01*
X164551841Y-91670895D01*
X164556941Y-91668501D01*
X165307094Y-91337276D01*
X165312369Y-91335090D01*
X166077067Y-91038844D01*
X166082376Y-91036928D01*
X166859917Y-90776323D01*
X166865366Y-90774636D01*
X167654099Y-90550222D01*
X167659563Y-90548803D01*
X168457819Y-90361054D01*
X168463405Y-90359875D01*
X169269480Y-90209194D01*
X169275111Y-90208275D01*
X170087271Y-90094984D01*
X170092922Y-90094329D01*
X170909434Y-90018668D01*
X170915139Y-90018272D01*
X171734282Y-89980401D01*
X171740009Y-89980269D01*
X172559991Y-89980269D01*
X172565718Y-89980401D01*
G37*
%TD.AperFunction*%
%TD*%
M02*
