%TF.GenerationSoftware,KiCad,Pcbnew,10.0.1*%
%TF.CreationDate,2026-06-27T11:11:45-04:00*%
%TF.ProjectId,Smart_Watch,536d6172-745f-4576-9174-63682e6b6963,rev?*%
%TF.SameCoordinates,Original*%
%TF.FileFunction,Legend,Top*%
%TF.FilePolarity,Positive*%
%FSLAX46Y46*%
G04 Gerber Fmt 4.6, Leading zero omitted, Abs format (unit mm)*
G04 Created by KiCad (PCBNEW 10.0.1) date 2026-06-27 11:11:45*
%MOMM*%
%LPD*%
G01*
G04 APERTURE LIST*
%ADD10C,0.150000*%
%ADD11C,0.120000*%
%ADD12C,0.127000*%
%ADD13C,0.200000*%
%ADD14C,0.127500*%
%ADD15C,0.152400*%
%ADD16C,0.000000*%
G04 APERTURE END LIST*
D10*
X170904819Y-103049999D02*
X171142914Y-103049999D01*
X171047676Y-103288094D02*
X171142914Y-103049999D01*
X171142914Y-103049999D02*
X171047676Y-102811904D01*
X171333390Y-103192856D02*
X171142914Y-103049999D01*
X171142914Y-103049999D02*
X171333390Y-102907142D01*
X170904819Y-103049999D02*
X171142914Y-103049999D01*
X171047676Y-103288094D02*
X171142914Y-103049999D01*
X171142914Y-103049999D02*
X171047676Y-102811904D01*
X171333390Y-103192856D02*
X171142914Y-103049999D01*
X171142914Y-103049999D02*
X171333390Y-102907142D01*
X169595180Y-103150000D02*
X169357085Y-103150000D01*
X169452323Y-102911905D02*
X169357085Y-103150000D01*
X169357085Y-103150000D02*
X169452323Y-103388095D01*
X169166609Y-103007143D02*
X169357085Y-103150000D01*
X169357085Y-103150000D02*
X169166609Y-103292857D01*
X169104819Y-103149999D02*
X169342914Y-103149999D01*
X169247676Y-103388094D02*
X169342914Y-103149999D01*
X169342914Y-103149999D02*
X169247676Y-102911904D01*
X169533390Y-103292856D02*
X169342914Y-103149999D01*
X169342914Y-103149999D02*
X169533390Y-103007142D01*
X156750000Y-106204819D02*
X156750000Y-106442914D01*
X156511905Y-106347676D02*
X156750000Y-106442914D01*
X156750000Y-106442914D02*
X156988095Y-106347676D01*
X156607143Y-106633390D02*
X156750000Y-106442914D01*
X156750000Y-106442914D02*
X156892857Y-106633390D01*
X156750000Y-106204819D02*
X156750000Y-106442914D01*
X156511905Y-106347676D02*
X156750000Y-106442914D01*
X156750000Y-106442914D02*
X156988095Y-106347676D01*
X156607143Y-106633390D02*
X156750000Y-106442914D01*
X156750000Y-106442914D02*
X156892857Y-106633390D01*
X156450000Y-109304819D02*
X156450000Y-109542914D01*
X156211905Y-109447676D02*
X156450000Y-109542914D01*
X156450000Y-109542914D02*
X156688095Y-109447676D01*
X156307143Y-109733390D02*
X156450000Y-109542914D01*
X156450000Y-109542914D02*
X156592857Y-109733390D01*
X158038068Y-108684799D02*
X158038068Y-108922894D01*
X157799973Y-108827656D02*
X158038068Y-108922894D01*
X158038068Y-108922894D02*
X158276163Y-108827656D01*
X157895211Y-109113370D02*
X158038068Y-108922894D01*
X158038068Y-108922894D02*
X158180925Y-109113370D01*
X164538001Y-113353319D02*
X164538001Y-113591414D01*
X164299906Y-113496176D02*
X164538001Y-113591414D01*
X164538001Y-113591414D02*
X164776096Y-113496176D01*
X164395144Y-113781890D02*
X164538001Y-113591414D01*
X164538001Y-113591414D02*
X164680858Y-113781890D01*
X164538001Y-113353319D02*
X164538001Y-113591414D01*
X164299906Y-113496176D02*
X164538001Y-113591414D01*
X164538001Y-113591414D02*
X164776096Y-113496176D01*
X164395144Y-113781890D02*
X164538001Y-113591414D01*
X164538001Y-113591414D02*
X164680858Y-113781890D01*
%TO.C,SW5*%
D11*
X160832038Y-98473071D02*
X160176467Y-97717939D01*
X161285117Y-98079728D02*
X160832038Y-98473071D01*
X161563890Y-94129754D02*
X160053624Y-95440899D01*
X164003596Y-95719672D02*
X164456676Y-95326329D01*
X164456676Y-95326329D02*
X163801107Y-94571195D01*
%TO.C,J4*%
D12*
X157906800Y-100723400D02*
X161076800Y-100723400D01*
X157906800Y-101613400D02*
X157906800Y-100723400D01*
X157906800Y-104033400D02*
X157906800Y-104923400D01*
X157906800Y-104923400D02*
X161076800Y-104923400D01*
X162496800Y-104923400D02*
X162496800Y-100723400D01*
D13*
X157186800Y-103423400D02*
G75*
G02*
X156986800Y-103423400I-100000J0D01*
G01*
X156986800Y-103423400D02*
G75*
G02*
X157186800Y-103423400I100000J0D01*
G01*
%TO.C,L3*%
D11*
X168866622Y-100686000D02*
X168067378Y-100686000D01*
X168866622Y-101806000D02*
X168067378Y-101806000D01*
%TO.C,U3*%
D12*
X172800000Y-102500000D02*
X187250000Y-102500000D01*
X172800000Y-113200000D02*
X172800000Y-102500000D01*
X172800000Y-113200000D02*
X187250000Y-113200000D01*
D14*
X172856690Y-113043980D02*
X173006690Y-113193980D01*
X172900000Y-113000000D02*
G75*
G02*
X173050000Y-113150000I0J-150000D01*
G01*
X172900002Y-112899996D02*
G75*
G02*
X173175090Y-113198960I-24911J-298963D01*
G01*
%TO.C,U6*%
D15*
X163806100Y-103824100D02*
X163806100Y-104243261D01*
X163806100Y-108662739D02*
X163806100Y-109081900D01*
X163806100Y-109081900D02*
X164225261Y-109081900D01*
X164225261Y-103824100D02*
X163806100Y-103824100D01*
X168644739Y-109081900D02*
X169063900Y-109081900D01*
X169063900Y-103824100D02*
X168644739Y-103824100D01*
X169063900Y-104243261D02*
X169063900Y-103824100D01*
X169063900Y-109081900D02*
X169063900Y-108662739D01*
D16*
G36*
X163475900Y-105393500D02*
G01*
X163221900Y-105393500D01*
X163221900Y-105012500D01*
X163475900Y-105012500D01*
X163475900Y-105393500D01*
G37*
G36*
X166375501Y-109666100D02*
G01*
X165994500Y-109666100D01*
X165994500Y-109412100D01*
X166375501Y-109412100D01*
X166375501Y-109666100D01*
G37*
G36*
X169648100Y-105893499D02*
G01*
X169394100Y-105893499D01*
X169394100Y-105512499D01*
X169648100Y-105512499D01*
X169648100Y-105893499D01*
G37*
%TO.C,L4*%
D11*
X164176878Y-100686000D02*
X164976122Y-100686000D01*
X164176878Y-101806000D02*
X164976122Y-101806000D01*
%TO.C,U12*%
D15*
X157231600Y-108657999D02*
X158189860Y-108657999D01*
X158189860Y-105795999D02*
X157231600Y-105795999D01*
X159135340Y-108657999D02*
X160093600Y-108657999D01*
X160093600Y-105795999D02*
X159135340Y-105795999D01*
D16*
G36*
X158853100Y-105522999D02*
G01*
X158472100Y-105522999D01*
X158472100Y-105268999D01*
X158853100Y-105268999D01*
X158853100Y-105522999D01*
G37*
%TO.C,U5*%
D11*
X171168000Y-116647000D02*
X176688000Y-116647000D01*
X171168000Y-116917000D02*
X171168000Y-116647000D01*
X171168000Y-122167000D02*
X171168000Y-121897000D01*
X176688000Y-116647000D02*
X176688000Y-116917000D01*
X176688000Y-121897000D02*
X176688000Y-122167000D01*
X176688000Y-122167000D02*
X171168000Y-122167000D01*
X177858000Y-122377000D02*
X177178000Y-122377000D01*
X177518000Y-121907000D01*
X177858000Y-122377000D01*
G36*
X177858000Y-122377000D02*
G01*
X177178000Y-122377000D01*
X177518000Y-121907000D01*
X177858000Y-122377000D01*
G37*
%TO.C,J7*%
D13*
X167680000Y-89370000D02*
X167680000Y-90860000D01*
X167680000Y-94790000D02*
X167680000Y-93580000D01*
X176620000Y-89370000D02*
X167680000Y-89370000D01*
X176620000Y-90860000D02*
X176620000Y-89370000D01*
X176620000Y-94790000D02*
X176620000Y-93580000D01*
X176030000Y-97880000D02*
G75*
G02*
X175830000Y-97880000I-100000J0D01*
G01*
X175830000Y-97880000D02*
G75*
G02*
X176030000Y-97880000I100000J0D01*
G01*
%TO.C,SW4*%
D11*
X179843324Y-95326329D02*
X180498893Y-94571195D01*
X180296404Y-95719672D02*
X179843324Y-95326329D01*
X183014882Y-98079728D02*
X183467962Y-98473071D01*
X183467962Y-98473071D02*
X184123534Y-97717939D01*
X184246376Y-95440899D02*
X182736110Y-94129755D01*
%TO.C,U7*%
D15*
X158726100Y-112178201D02*
X160681900Y-112178201D01*
X160681900Y-108927001D02*
X158726100Y-108927001D01*
%TO.C,X1*%
D10*
X176100000Y-100600000D02*
X177300000Y-100600000D01*
X177300000Y-102200000D02*
X176100000Y-102200000D01*
%TO.C,A1*%
D12*
X162000000Y-109650000D02*
X162255000Y-109650000D01*
X162000000Y-111650000D02*
X162255000Y-111650000D01*
X163745000Y-109650000D02*
X164000000Y-109650000D01*
X164000000Y-111650000D02*
X163745000Y-111650000D01*
D13*
X163350000Y-109150000D02*
G75*
G02*
X163150000Y-109150000I-100000J0D01*
G01*
X163150000Y-109150000D02*
G75*
G02*
X163350000Y-109150000I100000J0D01*
G01*
%TO.C,SW6*%
D11*
X179843324Y-120373671D02*
X180498893Y-121128805D01*
X180296404Y-119980328D02*
X179843324Y-120373671D01*
X182736110Y-121570245D02*
X184246376Y-120259101D01*
X183014882Y-117620272D02*
X183467962Y-117226929D01*
X183467962Y-117226929D02*
X184123534Y-117982061D01*
%TO.C,U10*%
D15*
X164919001Y-113501500D02*
X164919001Y-113831957D01*
X164919001Y-115965043D02*
X164919001Y-116295500D01*
X164919001Y-116295500D02*
X165753460Y-116295500D01*
X165753460Y-113501500D02*
X164919001Y-113501500D01*
X167386542Y-116295500D02*
X168221001Y-116295500D01*
X168221001Y-113501500D02*
X167386542Y-113501500D01*
X168221001Y-113831957D02*
X168221001Y-113501500D01*
X168221001Y-116295500D02*
X168221001Y-115965043D01*
D16*
G36*
X168475001Y-114839001D02*
G01*
X168221001Y-114839001D01*
X168221001Y-114458000D01*
X168475001Y-114458000D01*
X168475001Y-114839001D01*
G37*
%TO.C,SW7*%
D11*
X160053624Y-120259101D02*
X161563890Y-121570245D01*
X160832038Y-117226929D02*
X160176466Y-117982061D01*
X161285118Y-117620272D02*
X160832038Y-117226929D01*
X164003596Y-119980328D02*
X164456676Y-120373671D01*
X164456676Y-120373671D02*
X163801107Y-121128805D01*
%TD*%
M02*
