%TF.GenerationSoftware,KiCad,Pcbnew,10.0.1*%
%TF.CreationDate,2026-06-27T11:11:45-04:00*%
%TF.ProjectId,Smart_Watch,536d6172-745f-4576-9174-63682e6b6963,rev?*%
%TF.SameCoordinates,Original*%
%TF.FileFunction,Soldermask,Bot*%
%TF.FilePolarity,Negative*%
%FSLAX46Y46*%
G04 Gerber Fmt 4.6, Leading zero omitted, Abs format (unit mm)*
G04 Created by KiCad (PCBNEW 10.0.1) date 2026-06-27 11:11:45*
%MOMM*%
%LPD*%
G01*
G04 APERTURE LIST*
G04 Aperture macros list*
%AMRoundRect*
0 Rectangle with rounded corners*
0 $1 Rounding radius*
0 $2 $3 $4 $5 $6 $7 $8 $9 X,Y pos of 4 corners*
0 Add a 4 corners polygon primitive as box body*
4,1,4,$2,$3,$4,$5,$6,$7,$8,$9,$2,$3,0*
0 Add four circle primitives for the rounded corners*
1,1,$1+$1,$2,$3*
1,1,$1+$1,$4,$5*
1,1,$1+$1,$6,$7*
1,1,$1+$1,$8,$9*
0 Add four rect primitives between the rounded corners*
20,1,$1+$1,$2,$3,$4,$5,0*
20,1,$1+$1,$4,$5,$6,$7,0*
20,1,$1+$1,$6,$7,$8,$9,0*
20,1,$1+$1,$8,$9,$2,$3,0*%
G04 Aperture macros list end*
%ADD10C,0.900000*%
%ADD11C,0.650000*%
%ADD12R,1.000000X1.000000*%
%ADD13RoundRect,0.102000X0.375000X0.175000X-0.375000X0.175000X-0.375000X-0.175000X0.375000X-0.175000X0*%
%ADD14RoundRect,0.250000X0.262500X0.450000X-0.262500X0.450000X-0.262500X-0.450000X0.262500X-0.450000X0*%
%ADD15RoundRect,0.150000X0.350000X0.350000X-0.350000X0.350000X-0.350000X-0.350000X0.350000X-0.350000X0*%
G04 APERTURE END LIST*
D10*
%TO.C,SW5*%
X163265658Y-94373911D03*
X160056342Y-97160089D03*
%TD*%
D11*
%TO.C,J7*%
X175040000Y-95650000D03*
X169260000Y-95650000D03*
%TD*%
D10*
%TO.C,SW4*%
X184243658Y-97160089D03*
X181034342Y-94373911D03*
%TD*%
%TO.C,SW6*%
X181034342Y-121326089D03*
X184243658Y-118539911D03*
%TD*%
%TO.C,SW7*%
X160056342Y-118539911D03*
X163265658Y-121326089D03*
%TD*%
D12*
%TO.C,PGND1*%
X168594000Y-103151000D03*
%TD*%
%TO.C,+1V8*%
X169610000Y-94515000D03*
%TD*%
%TO.C,VBUS_IN1*%
X173420000Y-98325000D03*
%TD*%
D13*
%TO.C,U9*%
X172830000Y-105460000D03*
X172830000Y-106260000D03*
X172830000Y-107060000D03*
X172830000Y-107860000D03*
X172830000Y-108660000D03*
X172830000Y-109460000D03*
X172830000Y-110260000D03*
X170430000Y-110260000D03*
X170430000Y-109460000D03*
X170430000Y-108660000D03*
X170430000Y-107860000D03*
X170430000Y-107060000D03*
X170430000Y-106260000D03*
X170430000Y-105460000D03*
%TD*%
D14*
%TO.C,SW2*%
X165647600Y-111355200D03*
X163822600Y-111355200D03*
%TD*%
D12*
%TO.C,LRA_EN1*%
X160085000Y-102135000D03*
%TD*%
%TO.C,+BATT1*%
X167070000Y-94515000D03*
%TD*%
%TO.C,VBUS_OUT1*%
X170880000Y-98325000D03*
%TD*%
D14*
%TO.C,SW3*%
X185292357Y-113031600D03*
X183467357Y-113031600D03*
%TD*%
D12*
%TO.C,GND1*%
X177230000Y-98325000D03*
%TD*%
%TO.C,VSYS1*%
X172150000Y-94515000D03*
%TD*%
D15*
%TO.C,J3*%
X181040000Y-101532000D03*
X179040000Y-101532000D03*
X177040000Y-101532000D03*
X181040000Y-103532000D03*
X179040000Y-103532000D03*
X177040000Y-103532000D03*
%TD*%
D12*
%TO.C,LRA_PWM1*%
X158815000Y-113565000D03*
%TD*%
%TO.C,+3V0*%
X174690000Y-94515000D03*
%TD*%
%TO.C,SCL1*%
X165165000Y-106580000D03*
%TD*%
%TO.C,SDA1*%
X165165000Y-109120000D03*
%TD*%
%TO.C,QSPI_CS1*%
X177230000Y-120550000D03*
%TD*%
%TO.C,QSPI_CLK1*%
X174055000Y-120550000D03*
%TD*%
%TO.C,PMIC_INT1*%
X159450000Y-104675000D03*
%TD*%
%TO.C,PGND2*%
X171515000Y-102135000D03*
%TD*%
M02*
