%TF.GenerationSoftware,KiCad,Pcbnew,10.0.1*%
%TF.CreationDate,2026-05-06T10:39:13-04:00*%
%TF.ProjectId,Smart_Watch,536d6172-745f-4576-9174-63682e6b6963,rev?*%
%TF.SameCoordinates,Original*%
%TF.FileFunction,Copper,L3,Inr*%
%TF.FilePolarity,Positive*%
%FSLAX46Y46*%
G04 Gerber Fmt 4.6, Leading zero omitted, Abs format (unit mm)*
G04 Created by KiCad (PCBNEW 10.0.1) date 2026-05-06 10:39:13*
%MOMM*%
%LPD*%
G01*
G04 APERTURE LIST*
%TA.AperFunction,ComponentPad*%
%ADD10C,0.500000*%
%TD*%
%TA.AperFunction,ViaPad*%
%ADD11C,0.500000*%
%TD*%
%TA.AperFunction,Conductor*%
%ADD12C,0.200000*%
%TD*%
G04 APERTURE END LIST*
D10*
%TO.N,GND*%
%TO.C,U2*%
X7431999Y-6331001D03*
X7431999Y-7130999D03*
%TD*%
D11*
%TO.N,GND*%
X-7112000Y13208000D03*
X13360400Y-6096000D03*
X5950000Y550000D03*
X2641600Y-3251200D03*
X-13487400Y-351998D03*
X3810000Y-15240000D03*
X-50800Y-3022600D03*
X-4531500Y-4169000D03*
X-558800Y1397000D03*
X6875000Y13550000D03*
X2540000Y-15240000D03*
X11450000Y-3300000D03*
X-6800000Y9150000D03*
X-14986000Y-2235200D03*
X-3683000Y-10767447D03*
X12954000Y5842000D03*
X-3048000Y-15240000D03*
X6850000Y9150000D03*
X-4826000Y-14986000D03*
X13157200Y-7264400D03*
X11300000Y7600000D03*
X-11350000Y7700000D03*
X5950000Y-550000D03*
X-5928500Y-4368800D03*
X13512800Y6807200D03*
X12242800Y6908800D03*
X13919200Y5892800D03*
X-11176000Y1143000D03*
X12000000Y8725000D03*
X12903200Y7721600D03*
X-3258400Y5740400D03*
X12903200Y6502400D03*
X12852400Y-8280400D03*
X-7925000Y7950000D03*
X12344400Y-6858000D03*
X-6292000Y2786800D03*
%TO.N,+1V8*%
X-9423400Y2057400D03*
X9303600Y-5249667D03*
X4800000Y972400D03*
X-2153756Y4041603D03*
X-8750976Y3802556D03*
X-9956800Y-4927600D03*
X1550000Y2330000D03*
%TO.N,/Architecture/MCU/BMI_INT*%
X3708400Y3251200D03*
X-2895600Y-6959600D03*
X-1259188Y3410369D03*
%TO.N,/Architecture/MCU/SCL*%
X2641600Y-1117600D03*
X4013200Y6350000D03*
X2030916Y-7490601D03*
X-8382000Y-7467600D03*
X7213600Y-8026400D03*
X-8379115Y-1831444D03*
X-8733101Y512499D03*
X4443600Y-743207D03*
X-4769351Y-6852151D03*
%TO.N,/Architecture/MCU/SDA*%
X2580484Y5496910D03*
X-9248000Y-1430100D03*
X-5442910Y-5784000D03*
X-6400800Y-9448800D03*
X1930400Y-9499600D03*
X8686800Y-5689600D03*
X10250000Y-8350000D03*
X-8771800Y1147000D03*
X1550000Y-2200000D03*
%TO.N,PGND2*%
X-6465001Y3771900D03*
X-457200Y2794000D03*
%TO.N,+3V0*%
X-2858000Y-10317447D03*
X-3352800Y3403600D03*
X-13614400Y-3652602D03*
X-13411200Y6654800D03*
X-3708400Y6654800D03*
X-8636000Y6604000D03*
X-12852400Y-8077200D03*
%TO.N,/Architecture/MCU/BTN_2*%
X-8680986Y9999380D03*
X2641600Y50800D03*
X2837000Y7314870D03*
%TO.N,VSYS*%
X-6553200Y5029200D03*
X-14986000Y-1235200D03*
X-5892800Y-1930400D03*
X-2794000Y2131101D03*
%TO.N,+BATT*%
X-5928500Y-2641600D03*
X-7569200Y5943600D03*
X-11684000Y4572000D03*
%TO.N,/Architecture/MCU/OPT_INT*%
X10312400Y1500000D03*
X9670200Y-6070600D03*
X4850000Y2200000D03*
%TO.N,/Architecture/MCU/VBUS_OUT*%
X-3562307Y-2676012D03*
X-5485274Y5776615D03*
X2650000Y4400000D03*
%TO.N,/Architecture/MCU/USBC_D+*%
X3750000Y4400000D03*
X3365272Y6307200D03*
X-762000Y7213600D03*
X254000Y7264400D03*
%TO.N,/Architecture/MCU/USBC_D-*%
X762000Y6096000D03*
X-238108Y6876249D03*
%TO.N,/Architecture/MCU/VBUS_IN*%
X-2387600Y7620000D03*
X-2082800Y5588000D03*
X2336800Y6045200D03*
X-4876800Y-2641600D03*
%TO.N,/Architecture/MCU/CC1*%
X-3937998Y-825600D03*
X-108800Y-787400D03*
X1387003Y5943600D03*
%TO.N,/Architecture/MCU/USB_RST*%
X9250000Y-2200000D03*
X1828800Y6604000D03*
X10058400Y6959600D03*
X-1275000Y6814870D03*
%TO.N,/Architecture/MCU/CC2*%
X-1920000Y-2950000D03*
X-1805016Y6483642D03*
%TO.N,PGND1*%
X-4470400Y3759200D03*
X-520113Y3824684D03*
%TO.N,/Architecture/MCU/PMIC_INT*%
X9250000Y-4400000D03*
X-6959600Y-5334000D03*
X-7975600Y3759200D03*
%TO.N,/Architecture/Power/PMIC_SW*%
X-8089900Y147000D03*
X-8382000Y-3860800D03*
%TO.N,/Architecture/MCU/LRA_EN*%
X10312400Y3251200D03*
X-14475659Y2152937D03*
%TO.N,/Architecture/MCU/LRA_PWM*%
X9194800Y2184400D03*
X-14462399Y873001D03*
%TO.N,/Architecture/Peripherals/MOTOR-*%
X-12463232Y-117001D03*
X-1270000Y-15240000D03*
%TO.N,/Architecture/Peripherals/MOTOR+*%
X-12471400Y1363003D03*
X762000Y-15240000D03*
%TO.N,/Architecture/MCU/LPS_INT*%
X875490Y-4831622D03*
X-10827600Y-4346743D03*
X1550000Y0D03*
%TO.N,/Architecture/MCU/QSPI_CS*%
X6604000Y-13462000D03*
X5994400Y-4419600D03*
%TO.N,/Architecture/MCU/QSPI_IO1*%
X6604000Y-12192000D03*
X5969000Y-3302000D03*
%TO.N,/Architecture/MCU/QSPI_IO2*%
X4826000Y-4445000D03*
X3657600Y-10711600D03*
%TO.N,/Architecture/MCU/QSPI_IO0*%
X4724400Y-3251200D03*
X-406400Y-9601200D03*
X2895600Y-9811600D03*
%TO.N,/Architecture/MCU/QSPI_CLK*%
X6901600Y-10992489D03*
X7010400Y-4419600D03*
X-407629Y-11000526D03*
%TO.N,/Architecture/MCU/QSPI_IO3*%
X-406400Y-12192000D03*
X7010400Y-3302000D03*
X6901600Y-11592492D03*
%TO.N,/Architecture/MCU/BTN_3*%
X8680986Y-9999380D03*
X1524000Y3251200D03*
X1299767Y-9048273D03*
%TO.N,/Architecture/MCU/CTP_INT*%
X2641600Y-7416800D03*
X2641600Y-4470400D03*
%TO.N,/Architecture/MCU/DISPLAY_CLK*%
X2946400Y-2200000D03*
X2200001Y-6294416D03*
%TO.N,/Architecture/MCU/DISPLAY_DATA*%
X3759200Y-4419600D03*
X1638999Y-6590601D03*
%TO.N,/Architecture/MCU/DISPLAY_DC*%
X3750000Y-3300000D03*
X3568998Y-6454860D03*
%TO.N,/Architecture/MCU/MAX_INT*%
X5950000Y-2200000D03*
%TO.N,/Architecture/MCU/CTP_RST*%
X5943600Y3327000D03*
X932600Y-7416800D03*
X4978400Y-6908800D03*
%TO.N,/Architecture/MCU/BTN_4*%
X-8680986Y-9867447D03*
X8519929Y-8412313D03*
X7112000Y3302000D03*
%TO.N,/Architecture/MCU/BTN_1*%
X8227554Y-3202446D03*
X8680986Y9999380D03*
%TO.N,/Architecture/MCU/DISPLAY_LIGHT_IO*%
X8128000Y-2235200D03*
X-12700000Y-1574800D03*
%TO.N,/Architecture/MCU/SWDIO*%
X9250000Y-3300000D03*
%TO.N,/Architecture/MCU/SWO*%
X9250000Y3300000D03*
%TO.N,/Architecture/MCU/SWCLK*%
X10972800Y-1422400D03*
X11125200Y6096000D03*
X5890000Y6260000D03*
%TO.N,/Architecture/MCU/MCU_RST*%
X4927600Y6299200D03*
X10312400Y-2235200D03*
X8128000Y-1524000D03*
%TO.N,/Architecture/MCU/DISPLAY_RST*%
X10900000Y-3855049D03*
X10363200Y4368800D03*
X3708400Y-5232400D03*
%TO.N,/Architecture/MCU/LEDK1*%
X-1930400Y-3657600D03*
X-914400Y-6756400D03*
X-12446000Y-2489200D03*
%TO.N,/Architecture/MCU/LEDK2*%
X-11277600Y-3652602D03*
X-203200Y-6400800D03*
X-10820400Y-5638800D03*
%TD*%
%TO.N,+1V8*%
D12*
X-9423400Y2057400D02*
X-9989600Y2057400D01*
X-9989600Y2057400D02*
X-10148000Y1899000D01*
X-10148000Y1899000D02*
X-10148000Y-4736400D01*
X-10148000Y-4736400D02*
X-9956800Y-4927600D01*
%TO.N,/Architecture/MCU/BMI_INT*%
X-2895600Y-6959600D02*
X-2895600Y-1389464D01*
X-2895600Y-1389464D02*
X-1510000Y-3864D01*
X-1510000Y-3864D02*
X-1510000Y3163600D01*
X-1510000Y3163600D02*
X-1219200Y3454400D01*
%TO.N,/Architecture/MCU/SCL*%
X2030916Y-7490601D02*
X1902602Y-7490601D01*
X1734400Y-2650000D02*
X1736397Y-2650000D01*
X1188999Y-6776998D02*
X1188999Y-6404204D01*
X4013200Y6298000D02*
X4013200Y6350000D01*
X2000000Y-2386397D02*
X2000000Y-2384400D01*
X-9698000Y-452400D02*
X-8733101Y512499D01*
X-8382000Y-4996264D02*
X-9698000Y-3680264D01*
X-8382000Y-7467600D02*
X-8382000Y-4996264D01*
X4165600Y6145600D02*
X4013200Y6298000D01*
X-8379115Y-1730085D02*
X-8379115Y-1831444D01*
X2000000Y-2384400D02*
X2200000Y-2184400D01*
X4165600Y4620797D02*
X4165600Y6145600D01*
X4403200Y-390000D02*
X4165600Y-152400D01*
X2200000Y-2013603D02*
X2641600Y-1572003D01*
X2200000Y-2184400D02*
X2200000Y-2013603D01*
X2641600Y-1572003D02*
X2641600Y-1117600D01*
X1727200Y-5866003D02*
X1727200Y-2657200D01*
X4443600Y-743207D02*
X4403200Y-702807D01*
X1727200Y-2657200D02*
X1734400Y-2650000D01*
X4200000Y4213603D02*
X4200000Y4586397D01*
X1736397Y-2650000D02*
X2000000Y-2386397D01*
X-9698000Y-3680264D02*
X-9698000Y-452400D01*
X-8788400Y-1320800D02*
X-8379115Y-1730085D01*
X4165600Y-152400D02*
X4165600Y4179203D01*
X1902602Y-7490601D02*
X1188999Y-6776998D01*
X4165600Y4179203D02*
X4200000Y4213603D01*
X4403200Y-702807D02*
X4403200Y-390000D01*
X1188999Y-6404204D02*
X1727200Y-5866003D01*
X4200000Y4586397D02*
X4165600Y4620797D01*
X-8733101Y512499D02*
X-8788400Y457200D01*
X-8788400Y457200D02*
X-8788400Y-1320800D01*
%TO.N,/Architecture/MCU/SDA*%
X-6468400Y-6809490D02*
X-5442910Y-5784000D01*
X-9248000Y-1430100D02*
X-9398000Y-1580100D01*
X10103997Y-8350000D02*
X8686800Y-6932803D01*
X-6400800Y-9448800D02*
X-6468400Y-9381200D01*
X-6468400Y-9381200D02*
X-6468400Y-6809490D01*
X1550000Y-2200000D02*
X2191600Y-1558400D01*
X2191600Y5108026D02*
X2580484Y5496910D01*
X-7170000Y-5784000D02*
X-5442910Y-5784000D01*
X-9398000Y-1580100D02*
X-9398000Y-3556000D01*
X10250000Y-8350000D02*
X10103997Y-8350000D01*
X8686800Y-6932803D02*
X8686800Y-5689600D01*
X-9398000Y-3556000D02*
X-7170000Y-5784000D01*
X2191600Y-1558400D02*
X2191600Y5108026D01*
%TO.N,+3V0*%
X-13614400Y-3454400D02*
X-13970000Y-3098800D01*
X-3708400Y3478802D02*
X-3708400Y6654800D01*
X-3633198Y3403600D02*
X-3708400Y3478802D01*
X-3352800Y3403600D02*
X-3633198Y3403600D01*
X-13970000Y6096000D02*
X-13411200Y6654800D01*
X-13614400Y-3652602D02*
X-13614400Y-3454400D01*
X-13970000Y-3098800D02*
X-13970000Y6096000D01*
%TO.N,/Architecture/MCU/BTN_2*%
X3100000Y509200D02*
X3100000Y5918397D01*
X2837000Y6181397D02*
X2837000Y7314870D01*
X2641600Y50800D02*
X3100000Y509200D01*
X3100000Y5918397D02*
X2837000Y6181397D01*
%TO.N,VSYS*%
X-5842000Y4318000D02*
X-6553200Y5029200D01*
X-5892800Y-1930400D02*
X-5842000Y-1879600D01*
X-5842000Y-1879600D02*
X-5842000Y4318000D01*
%TO.N,+BATT*%
X-7162800Y-1422400D02*
X-7162800Y5537200D01*
X-7162800Y5537200D02*
X-7569200Y5943600D01*
X-5928500Y-2641600D02*
X-5943600Y-2641600D01*
X-5943600Y-2641600D02*
X-7162800Y-1422400D01*
%TO.N,/Architecture/MCU/OPT_INT*%
X9753600Y-5987200D02*
X9753600Y941200D01*
X9670200Y-6070600D02*
X9753600Y-5987200D01*
X9753600Y941200D02*
X10312400Y1500000D01*
%TO.N,/Architecture/MCU/VBUS_OUT*%
X-5384800Y-1458096D02*
X-5181600Y-1254896D01*
X-5384800Y-3048000D02*
X-5384800Y-1458096D01*
X-3620449Y-2676012D02*
X-4195637Y-3251200D01*
X-5181600Y-3251200D02*
X-5384800Y-3048000D01*
X-3562307Y-2676012D02*
X-3620449Y-2676012D01*
X-4195637Y-3251200D02*
X-5181600Y-3251200D01*
X-5181600Y-1254896D02*
X-5181600Y5472941D01*
X-5181600Y5472941D02*
X-5485274Y5776615D01*
%TO.N,/Architecture/MCU/USBC_D+*%
X3657600Y4492400D02*
X3657600Y6014872D01*
X3750000Y4400000D02*
X3657600Y4492400D01*
X3657600Y6014872D02*
X3365272Y6307200D01*
%TO.N,/Architecture/MCU/VBUS_IN*%
X-4572000Y-2641600D02*
X-1810000Y120400D01*
X-1582000Y3979203D02*
X-1582000Y4351997D01*
X-2387600Y5892800D02*
X-2387600Y7620000D01*
X-1810000Y120400D02*
X-1810000Y3751203D01*
X-2082800Y5588000D02*
X-2387600Y5892800D01*
X-2082800Y4852797D02*
X-2082800Y5588000D01*
X-1810000Y3751203D02*
X-1582000Y3979203D01*
X-4876800Y-2641600D02*
X-4572000Y-2641600D01*
X-1582000Y4351997D02*
X-2082800Y4852797D01*
%TO.N,/Architecture/MCU/CC1*%
X-108800Y-787400D02*
X401600Y-277000D01*
X401600Y-277000D02*
X401600Y4958197D01*
X401600Y4958197D02*
X1387003Y5943600D01*
%TO.N,/Architecture/MCU/USB_RST*%
X10058400Y6959600D02*
X9855200Y6756400D01*
X9250000Y1603203D02*
X9250000Y-2200000D01*
X9855200Y2208403D02*
X9250000Y1603203D01*
X9855200Y6756400D02*
X9855200Y2208403D01*
%TO.N,/Architecture/MCU/CC2*%
X-1210000Y2823160D02*
X-658476Y3374684D01*
X-70113Y4748739D02*
X-1805016Y6483642D01*
X-1210000Y-2240000D02*
X-1210000Y2823160D01*
X-70113Y3638287D02*
X-70113Y4748739D01*
X-333716Y3374684D02*
X-70113Y3638287D01*
X-1920000Y-2950000D02*
X-1210000Y-2240000D01*
X-658476Y3374684D02*
X-333716Y3374684D01*
%TO.N,/Architecture/MCU/PMIC_INT*%
X-7629115Y-4664485D02*
X-6959600Y-5334000D01*
X-7975600Y3759200D02*
X-7629115Y3412715D01*
X-7629115Y3412715D02*
X-7629115Y-4664485D01*
%TO.N,/Architecture/Power/PMIC_SW*%
X-8089900Y147000D02*
X-7929115Y-13785D01*
X-7929115Y-3407915D02*
X-8382000Y-3860800D01*
X-7929115Y-13785D02*
X-7929115Y-3407915D01*
%TO.N,/Architecture/MCU/LPS_INT*%
X875490Y-4831622D02*
X873112Y-4829244D01*
X873112Y-4829244D02*
X873112Y-1051704D01*
X1550000Y-374816D02*
X1550000Y0D01*
X873112Y-1051704D02*
X1550000Y-374816D01*
%TO.N,/Architecture/MCU/QSPI_CS*%
X5994400Y-12852400D02*
X6604000Y-13462000D01*
X5994400Y-4419600D02*
X5994400Y-12852400D01*
%TO.N,/Architecture/MCU/QSPI_IO1*%
X6604000Y-12192000D02*
X6451600Y-12039600D01*
X6451600Y-3784600D02*
X5969000Y-3302000D01*
X6451600Y-12039600D02*
X6451600Y-3784600D01*
%TO.N,/Architecture/MCU/QSPI_IO2*%
X4528400Y-4742600D02*
X4826000Y-4445000D01*
X3657600Y-10711600D02*
X4528400Y-9840800D01*
X4528400Y-9840800D02*
X4528400Y-4742600D01*
%TO.N,/Architecture/MCU/QSPI_IO0*%
X4216400Y-8490800D02*
X4216400Y-3759200D01*
X2895600Y-9811600D02*
X4216400Y-8490800D01*
X4216400Y-3759200D02*
X4724400Y-3251200D01*
%TO.N,/Architecture/MCU/QSPI_CLK*%
X6930278Y-10333878D02*
X6756400Y-10160000D01*
X6756400Y-10160000D02*
X6756400Y-4673600D01*
X6901600Y-10992489D02*
X6930278Y-10963811D01*
X6756400Y-4673600D02*
X7010400Y-4419600D01*
X6930278Y-10963811D02*
X6930278Y-10333878D01*
%TO.N,/Architecture/MCU/QSPI_IO3*%
X7881999Y-7071065D02*
X7900000Y-7053064D01*
X7043108Y-11592492D02*
X7881999Y-10753601D01*
X7900000Y-4191600D02*
X7010400Y-3302000D01*
X7900000Y-7053064D02*
X7900000Y-4191600D01*
X7881999Y-10753601D02*
X7881999Y-7071065D01*
X6901600Y-11592492D02*
X7043108Y-11592492D01*
%TO.N,/Architecture/MCU/BTN_3*%
X1100000Y2827200D02*
X1524000Y3251200D01*
X1100000Y-27841D02*
X1100000Y2827200D01*
X1299767Y-9048273D02*
X399200Y-8147706D01*
X399200Y-8147706D02*
X399200Y-728641D01*
X399200Y-728641D02*
X1100000Y-27841D01*
%TO.N,/Architecture/MCU/CTP_INT*%
X2650001Y-7408399D02*
X2650001Y-4478801D01*
X2650001Y-4478801D02*
X2641600Y-4470400D01*
X2641600Y-7416800D02*
X2650001Y-7408399D01*
%TO.N,/Architecture/MCU/DISPLAY_CLK*%
X2027200Y-5990267D02*
X1981200Y-6036267D01*
X1981200Y-6075615D02*
X2200001Y-6294416D01*
X2650000Y-2200000D02*
X2027200Y-2822800D01*
X1981200Y-6036267D02*
X1981200Y-6075615D01*
X2027200Y-2822800D02*
X2027200Y-5990267D01*
X2946400Y-2200000D02*
X2650000Y-2200000D01*
%TO.N,/Architecture/MCU/DISPLAY_DC*%
X3149600Y-3900400D02*
X3149600Y-6035462D01*
X3750000Y-3300000D02*
X3149600Y-3900400D01*
X3149600Y-6035462D02*
X3568998Y-6454860D01*
%TO.N,/Architecture/MCU/CTP_RST*%
X5500000Y2807600D02*
X5943600Y3251200D01*
X4978400Y-6908800D02*
X5232400Y-6908800D01*
X5943600Y3251200D02*
X5943600Y3327000D01*
X5232400Y-6908800D02*
X5500000Y-6641200D01*
X5500000Y-6641200D02*
X5500000Y2807600D01*
%TO.N,/Architecture/MCU/BTN_4*%
X8350000Y-7232400D02*
X8200000Y-7082400D01*
X8519929Y-8412313D02*
X8350000Y-8242384D01*
X7628000Y-3310000D02*
X7628000Y-2090800D01*
X7112000Y-1574800D02*
X7112000Y3302000D01*
X8350000Y-8242384D02*
X8350000Y-7232400D01*
X8200000Y-7082400D02*
X8200000Y-3882000D01*
X8200000Y-3882000D02*
X7628000Y-3310000D01*
X7628000Y-2090800D02*
X7112000Y-1574800D01*
%TO.N,/Architecture/MCU/BTN_1*%
X8680986Y9999380D02*
X9363604Y9316762D01*
X9363604Y8819366D02*
X8628000Y8083762D01*
X8628000Y8083762D02*
X8628000Y-2802000D01*
X8628000Y-2802000D02*
X8227554Y-3202446D01*
X9363604Y9316762D02*
X9363604Y8819366D01*
%TO.N,/Architecture/MCU/SWCLK*%
X11310000Y5911200D02*
X11125200Y6096000D01*
X11310000Y-1085200D02*
X11310000Y5911200D01*
X10972800Y-1422400D02*
X11310000Y-1085200D01*
%TO.N,/Architecture/MCU/MCU_RST*%
X8128000Y3098800D02*
X8128000Y-1524000D01*
X4927600Y6299200D02*
X8128000Y3098800D01*
%TO.N,/Architecture/MCU/DISPLAY_RST*%
X10762400Y3969600D02*
X10363200Y4368800D01*
X10762400Y1313603D02*
X10762400Y3969600D01*
X10515600Y1066803D02*
X10762400Y1313603D01*
X10900000Y-3855047D02*
X10894951Y-3849998D01*
X10894951Y-3849998D02*
X10894951Y-2181354D01*
X10900000Y-3855049D02*
X10900000Y-3855047D01*
X10515600Y-1802003D02*
X10515600Y1066803D01*
X10894951Y-2181354D02*
X10515600Y-1802003D01*
%TO.N,/Architecture/MCU/LEDK1*%
X-914400Y-4673600D02*
X-1930400Y-3657600D01*
X-914400Y-6756400D02*
X-914400Y-4673600D01*
%TO.N,/Architecture/MCU/LEDK2*%
X-11277600Y-5181600D02*
X-10820400Y-5638800D01*
X-11277600Y-3652602D02*
X-11277600Y-5181600D01*
%TD*%
%TA.AperFunction,Conductor*%
%TO.N,GND*%
G36*
X399974Y16169480D02*
G01*
X436612Y16167681D01*
X1186871Y16130822D01*
X1192867Y16130379D01*
X1976914Y16053158D01*
X1982926Y16052416D01*
X2762229Y15936818D01*
X2768214Y15935778D01*
X3540872Y15782087D01*
X3546776Y15780762D01*
X4263731Y15601174D01*
X4310991Y15589336D01*
X4316854Y15587714D01*
X5070755Y15359021D01*
X5076519Y15357116D01*
X5818252Y15091719D01*
X5823915Y15089535D01*
X6551768Y14788049D01*
X6557311Y14785593D01*
X7269498Y14448752D01*
X7274932Y14446016D01*
X7555742Y14295920D01*
X7969694Y14074659D01*
X7974984Y14071663D01*
X8650730Y13666636D01*
X8655824Y13663410D01*
X9000230Y13433286D01*
X9310872Y13225722D01*
X9315848Y13222218D01*
X9948625Y12752917D01*
X9953423Y12749172D01*
X10562392Y12249404D01*
X10567000Y12245429D01*
X11150721Y11716376D01*
X11155129Y11712179D01*
X11712178Y11155130D01*
X11716375Y11150722D01*
X12245428Y10567001D01*
X12249403Y10562393D01*
X12749171Y9953424D01*
X12752916Y9948626D01*
X13222217Y9315849D01*
X13225721Y9310873D01*
X13306235Y9190375D01*
X13648948Y8677468D01*
X13663394Y8655849D01*
X13666650Y8650707D01*
X14071658Y7974991D01*
X14074658Y7969695D01*
X14446014Y7274935D01*
X14448751Y7269499D01*
X14785587Y6557322D01*
X14788053Y6551758D01*
X15089531Y5823924D01*
X15091721Y5818245D01*
X15253618Y5365774D01*
X15257670Y5296022D01*
X15223367Y5235153D01*
X15161601Y5202492D01*
X15136867Y5200000D01*
X14950000Y5200000D01*
X14950000Y3124000D01*
X14930315Y3056961D01*
X14877511Y3011206D01*
X14826000Y3000000D01*
X14274000Y3000000D01*
X14206961Y3019685D01*
X14161206Y3072489D01*
X14150000Y3124000D01*
X14150000Y4100000D01*
X11750000Y4100000D01*
X11731560Y4100000D01*
X11710858Y4088696D01*
X11641166Y4093680D01*
X11585233Y4135552D01*
X11560816Y4201016D01*
X11560500Y4209862D01*
X11560500Y5837305D01*
X11560500Y5861370D01*
X11560501Y5861372D01*
X11560501Y5961027D01*
X11535026Y6022528D01*
X11529471Y6035938D01*
X11527186Y6050571D01*
X11528109Y6057598D01*
X11525700Y6069709D01*
X11525700Y6148725D01*
X11525700Y6148727D01*
X11498407Y6250587D01*
X11445680Y6341913D01*
X11371113Y6416480D01*
X11279787Y6469207D01*
X11177927Y6496500D01*
X11072473Y6496500D01*
X10970613Y6469207D01*
X10970610Y6469206D01*
X10879285Y6416479D01*
X10804721Y6341915D01*
X10751994Y6250590D01*
X10751993Y6250587D01*
X10724700Y6148727D01*
X10724700Y6043273D01*
X10751668Y5942628D01*
X10751993Y5941414D01*
X10751994Y5941411D01*
X10757888Y5931202D01*
X10804720Y5850087D01*
X10879287Y5775520D01*
X10970613Y5722793D01*
X10970615Y5722793D01*
X10978125Y5719681D01*
X10977298Y5717686D01*
X11027251Y5687240D01*
X11057782Y5624395D01*
X11059500Y5603827D01*
X11059500Y4326123D01*
X11053261Y4304878D01*
X11051682Y4282789D01*
X11043609Y4272006D01*
X11039815Y4259084D01*
X11023081Y4244585D01*
X11009810Y4226856D01*
X10997189Y4222149D01*
X10987011Y4213329D01*
X10965093Y4210178D01*
X10944346Y4202439D01*
X10931185Y4205302D01*
X10917853Y4203385D01*
X10897709Y4212585D01*
X10876073Y4217291D01*
X10858347Y4230560D01*
X10854297Y4232410D01*
X10847819Y4238442D01*
X10800019Y4286242D01*
X10766534Y4347565D01*
X10763700Y4373923D01*
X10763700Y4421525D01*
X10763700Y4421527D01*
X10736407Y4523387D01*
X10683680Y4614713D01*
X10609113Y4689280D01*
X10517787Y4742007D01*
X10415927Y4769300D01*
X10310473Y4769300D01*
X10310468Y4769300D01*
X10261791Y4756257D01*
X10191941Y4757921D01*
X10134080Y4797084D01*
X10106577Y4861313D01*
X10105700Y4876032D01*
X10105700Y6462498D01*
X10125385Y6529537D01*
X10178189Y6575292D01*
X10197596Y6582270D01*
X10212987Y6586393D01*
X10304313Y6639120D01*
X10378880Y6713687D01*
X10431607Y6805013D01*
X10458900Y6906873D01*
X10458900Y7012327D01*
X10431607Y7114187D01*
X10378880Y7205513D01*
X10304313Y7280080D01*
X10212987Y7332807D01*
X10111127Y7360100D01*
X10005673Y7360100D01*
X9903813Y7332807D01*
X9903810Y7332806D01*
X9812485Y7280079D01*
X9737921Y7205515D01*
X9685194Y7114190D01*
X9685193Y7114187D01*
X9657900Y7012327D01*
X9657900Y6958457D01*
X9643977Y6911044D01*
X9647510Y6909580D01*
X9642836Y6898298D01*
X9642836Y6898297D01*
X9636973Y6884142D01*
X9604700Y6806230D01*
X9604700Y3772446D01*
X9585015Y3705407D01*
X9532211Y3659652D01*
X9463053Y3649708D01*
X9418700Y3665059D01*
X9404589Y3673206D01*
X9404588Y3673207D01*
X9404587Y3673207D01*
X9302727Y3700500D01*
X9197273Y3700500D01*
X9095413Y3673207D01*
X9095412Y3673207D01*
X9064499Y3655359D01*
X8996598Y3638888D01*
X8930572Y3661740D01*
X8887382Y3716662D01*
X8878500Y3762747D01*
X8878500Y7928639D01*
X8898185Y7995678D01*
X8914819Y8016320D01*
X9194625Y8296126D01*
X9575968Y8677469D01*
X9614104Y8769538D01*
X9614104Y8869194D01*
X9614104Y9266932D01*
X9614105Y9266934D01*
X9614105Y9361677D01*
X10300158Y9361677D01*
X10300158Y9210146D01*
X10339377Y9063775D01*
X10377260Y8998161D01*
X10415143Y8932546D01*
X10522293Y8825396D01*
X10653523Y8749630D01*
X10799892Y8710411D01*
X10799894Y8710411D01*
X10951422Y8710411D01*
X10951424Y8710411D01*
X11097793Y8749630D01*
X11229023Y8825396D01*
X11336173Y8932546D01*
X11411939Y9063776D01*
X11451158Y9210145D01*
X11451158Y9361677D01*
X11411939Y9508046D01*
X11336173Y9639276D01*
X11229023Y9746426D01*
X11163408Y9784309D01*
X11097794Y9822192D01*
X11013440Y9844794D01*
X10951424Y9861411D01*
X10799892Y9861411D01*
X10653521Y9822192D01*
X10522293Y9746426D01*
X10522290Y9746424D01*
X10415145Y9639279D01*
X10415143Y9639276D01*
X10339377Y9508048D01*
X10300158Y9361677D01*
X9614105Y9361677D01*
X9614105Y9366589D01*
X9575968Y9458658D01*
X9575968Y9458659D01*
X9505501Y9529126D01*
X9498436Y9536191D01*
X9498429Y9536197D01*
X9117805Y9916822D01*
X9084320Y9978145D01*
X9081486Y10004503D01*
X9081486Y10052105D01*
X9081486Y10052107D01*
X9054193Y10153967D01*
X9001466Y10245293D01*
X8926899Y10319860D01*
X8835573Y10372587D01*
X8733713Y10399880D01*
X8628259Y10399880D01*
X8526399Y10372587D01*
X8526396Y10372586D01*
X8435071Y10319859D01*
X8360507Y10245295D01*
X8307780Y10153970D01*
X8307779Y10153967D01*
X8280486Y10052107D01*
X8280486Y9946653D01*
X8307779Y9844793D01*
X8360506Y9753467D01*
X8435073Y9678900D01*
X8526399Y9626173D01*
X8628259Y9598880D01*
X8675863Y9598880D01*
X8742902Y9579195D01*
X8763544Y9562561D01*
X9076785Y9249321D01*
X9091488Y9222394D01*
X9108081Y9196575D01*
X9108972Y9190375D01*
X9110270Y9187998D01*
X9113104Y9161640D01*
X9113104Y8974489D01*
X9093419Y8907450D01*
X9076785Y8886808D01*
X8415637Y8225661D01*
X8415636Y8225660D01*
X8377500Y8133592D01*
X8377500Y3502923D01*
X8357815Y3435884D01*
X8305011Y3390129D01*
X8235853Y3380185D01*
X8172297Y3409210D01*
X8165819Y3415242D01*
X5920166Y5660895D01*
X5886681Y5722218D01*
X5891665Y5791910D01*
X5933537Y5847843D01*
X5975751Y5868349D01*
X6044587Y5886793D01*
X6135913Y5939520D01*
X6210480Y6014087D01*
X6263207Y6105413D01*
X6290500Y6207273D01*
X6290500Y6312727D01*
X6263207Y6414587D01*
X6210480Y6505913D01*
X6135913Y6580480D01*
X6068018Y6619679D01*
X6044589Y6633206D01*
X6044588Y6633207D01*
X6044587Y6633207D01*
X5942727Y6660500D01*
X5837273Y6660500D01*
X5735413Y6633207D01*
X5735410Y6633206D01*
X5644085Y6580479D01*
X5569521Y6505915D01*
X5526125Y6430752D01*
X5475558Y6382538D01*
X5406950Y6369316D01*
X5342086Y6395284D01*
X5305349Y6446874D01*
X5303916Y6446280D01*
X5300808Y6453782D01*
X5300807Y6453787D01*
X5248080Y6545113D01*
X5173513Y6619680D01*
X5102811Y6660500D01*
X5082189Y6672406D01*
X5082188Y6672407D01*
X5082187Y6672407D01*
X4980327Y6699700D01*
X4874873Y6699700D01*
X4773013Y6672407D01*
X4773010Y6672406D01*
X4681685Y6619679D01*
X4607121Y6545115D01*
X4592449Y6519703D01*
X4541880Y6471490D01*
X4473273Y6458269D01*
X4408409Y6484239D01*
X4377677Y6519707D01*
X4377425Y6520144D01*
X4333680Y6595913D01*
X4259113Y6670480D01*
X4181505Y6715287D01*
X4167789Y6723206D01*
X4167788Y6723207D01*
X4167787Y6723207D01*
X4065927Y6750500D01*
X3960473Y6750500D01*
X3858613Y6723207D01*
X3858610Y6723206D01*
X3767285Y6670479D01*
X3750293Y6653487D01*
X3688969Y6620003D01*
X3619278Y6624989D01*
X3600614Y6633783D01*
X3519861Y6680406D01*
X3519860Y6680407D01*
X3519859Y6680407D01*
X3417999Y6707700D01*
X3312545Y6707700D01*
X3312543Y6707700D01*
X3243592Y6689225D01*
X3218598Y6689821D01*
X3193853Y6686262D01*
X3184272Y6690638D01*
X3173742Y6690888D01*
X3153037Y6704902D01*
X3130297Y6715287D01*
X3124602Y6724149D01*
X3115880Y6730052D01*
X3106039Y6753033D01*
X3092523Y6774065D01*
X3090243Y6789923D01*
X3088377Y6794280D01*
X3087500Y6809000D01*
X3087500Y6947615D01*
X3107185Y7014654D01*
X3123819Y7035296D01*
X3157480Y7068957D01*
X3210207Y7160283D01*
X3237500Y7262143D01*
X3237500Y7367597D01*
X3210207Y7469457D01*
X3157480Y7560783D01*
X3082913Y7635350D01*
X2991587Y7688077D01*
X2889727Y7715370D01*
X2784273Y7715370D01*
X2682413Y7688077D01*
X2682410Y7688076D01*
X2591085Y7635349D01*
X2516521Y7560785D01*
X2463794Y7469460D01*
X2463793Y7469457D01*
X2436500Y7367597D01*
X2436500Y7262143D01*
X2463793Y7160283D01*
X2490406Y7114187D01*
X2516521Y7068956D01*
X2550181Y7035296D01*
X2583666Y6973973D01*
X2586500Y6947615D01*
X2586500Y6554521D01*
X2581556Y6537687D01*
X2581639Y6520144D01*
X2571917Y6504861D01*
X2566815Y6487482D01*
X2553558Y6475995D01*
X2544141Y6461189D01*
X2527697Y6453587D01*
X2514011Y6441727D01*
X2496516Y6439170D01*
X2480722Y6431867D01*
X2456168Y6433272D01*
X2445428Y6431702D01*
X2437824Y6432759D01*
X2389527Y6445700D01*
X2344724Y6445700D01*
X2336228Y6446881D01*
X2311883Y6457862D01*
X2286261Y6465385D01*
X2280524Y6472006D01*
X2272537Y6475608D01*
X2257991Y6498010D01*
X2240506Y6518189D01*
X2238297Y6528341D01*
X2234488Y6534208D01*
X2234432Y6546109D01*
X2229300Y6569700D01*
X2229300Y6656725D01*
X2229300Y6656727D01*
X2202007Y6758587D01*
X2149280Y6849913D01*
X2074713Y6924480D01*
X1997763Y6968907D01*
X1983389Y6977206D01*
X1983388Y6977207D01*
X1983387Y6977207D01*
X1881527Y7004500D01*
X1776073Y7004500D01*
X1674213Y6977207D01*
X1674210Y6977206D01*
X1582885Y6924479D01*
X1508321Y6849915D01*
X1455594Y6758590D01*
X1455593Y6758587D01*
X1428300Y6656727D01*
X1428300Y6551273D01*
X1441981Y6500213D01*
X1442121Y6499693D01*
X1441921Y6491302D01*
X1445307Y6483620D01*
X1441102Y6456893D01*
X1440458Y6429843D01*
X1435752Y6422891D01*
X1434448Y6414599D01*
X1416460Y6394388D01*
X1401295Y6371981D01*
X1392372Y6367322D01*
X1387998Y6362406D01*
X1371902Y6356632D01*
X1355702Y6348171D01*
X1341126Y6344100D01*
X1334276Y6344100D01*
X1232416Y6316807D01*
X1222120Y6310863D01*
X1207033Y6306649D01*
X1187111Y6306913D01*
X1167747Y6302220D01*
X1152890Y6307366D01*
X1137169Y6307574D01*
X1120552Y6318567D01*
X1101725Y6325088D01*
X1085996Y6338397D01*
X1007914Y6416479D01*
X1007913Y6416480D01*
X916587Y6469207D01*
X814727Y6496500D01*
X709273Y6496500D01*
X607413Y6469207D01*
X607410Y6469206D01*
X516085Y6416479D01*
X441521Y6341915D01*
X388794Y6250590D01*
X388793Y6250587D01*
X361500Y6148727D01*
X361500Y6043273D01*
X388468Y5942628D01*
X388793Y5941414D01*
X388794Y5941411D01*
X394688Y5931202D01*
X441520Y5850087D01*
X516087Y5775520D01*
X573129Y5742587D01*
X597125Y5728733D01*
X645341Y5678166D01*
X658563Y5609559D01*
X632595Y5544694D01*
X622806Y5533665D01*
X263479Y5174338D01*
X263473Y5174332D01*
X259703Y5170561D01*
X189236Y5100094D01*
X177809Y5072508D01*
X165469Y5057839D01*
X151680Y5048692D01*
X141298Y5035808D01*
X123167Y5029775D01*
X107247Y5019212D01*
X90702Y5018971D01*
X75003Y5013746D01*
X56491Y5018472D01*
X37385Y5018193D01*
X23335Y5026936D01*
X7304Y5031028D01*
X-17099Y5049986D01*
X-1195970Y6228857D01*
X-1229455Y6290180D01*
X-1224471Y6359872D01*
X-1182599Y6415805D01*
X-1140383Y6436313D01*
X-1120413Y6441663D01*
X-1029087Y6494390D01*
X-954520Y6568957D01*
X-901793Y6660283D01*
X-885472Y6721195D01*
X-870981Y6744970D01*
X-859411Y6770303D01*
X-853045Y6774395D01*
X-849108Y6780853D01*
X-824063Y6793020D01*
X-800633Y6808077D01*
X-789887Y6809623D01*
X-786262Y6811383D01*
X-765698Y6813100D01*
X-730964Y6813100D01*
X-663925Y6793415D01*
X-618170Y6740611D01*
X-611638Y6722442D01*
X-611314Y6721660D01*
X-603254Y6707700D01*
X-558588Y6630336D01*
X-484021Y6555769D01*
X-392695Y6503042D01*
X-290835Y6475749D01*
X-290833Y6475749D01*
X-185383Y6475749D01*
X-185381Y6475749D01*
X-83521Y6503042D01*
X7805Y6555769D01*
X82372Y6630336D01*
X135099Y6721662D01*
X148585Y6771995D01*
X184950Y6831654D01*
X247797Y6862183D01*
X268360Y6863900D01*
X306725Y6863900D01*
X306727Y6863900D01*
X408587Y6891193D01*
X499913Y6943920D01*
X574480Y7018487D01*
X627207Y7109813D01*
X654500Y7211673D01*
X654500Y7317127D01*
X627207Y7418987D01*
X574480Y7510313D01*
X499913Y7584880D01*
X408587Y7637607D01*
X306727Y7664900D01*
X201273Y7664900D01*
X99413Y7637607D01*
X99410Y7637606D01*
X8085Y7584879D01*
X-66479Y7510315D01*
X-119206Y7418990D01*
X-119207Y7418989D01*
X-132693Y7368655D01*
X-147188Y7344876D01*
X-158755Y7319546D01*
X-165121Y7315456D01*
X-169058Y7308995D01*
X-194106Y7296828D01*
X-217533Y7281772D01*
X-228281Y7280227D01*
X-231905Y7278466D01*
X-252468Y7276749D01*
X-269144Y7276749D01*
X-336183Y7296434D01*
X-381938Y7349238D01*
X-388471Y7367408D01*
X-388792Y7368182D01*
X-388793Y7368187D01*
X-441520Y7459513D01*
X-516087Y7534080D01*
X-582941Y7572678D01*
X-607411Y7586806D01*
X-607412Y7586807D01*
X-607413Y7586807D01*
X-709273Y7614100D01*
X-814727Y7614100D01*
X-916587Y7586807D01*
X-916590Y7586806D01*
X-1007915Y7534079D01*
X-1082479Y7459515D01*
X-1135206Y7368190D01*
X-1135207Y7368188D01*
X-1135207Y7368187D01*
X-1151529Y7307276D01*
X-1187892Y7247617D01*
X-1250738Y7217087D01*
X-1271302Y7215370D01*
X-1327727Y7215370D01*
X-1429587Y7188077D01*
X-1429590Y7188076D01*
X-1520915Y7135349D01*
X-1595479Y7060785D01*
X-1648206Y6969460D01*
X-1651316Y6961950D01*
X-1654289Y6963182D01*
X-1682781Y6916410D01*
X-1745621Y6885864D01*
X-1746753Y6885679D01*
X-1756425Y6884142D01*
X-1857743Y6884142D01*
X-1959603Y6856849D01*
X-1971544Y6849956D01*
X-1993638Y6846444D01*
X-2014352Y6849110D01*
X-2035123Y6846878D01*
X-2048312Y6853481D01*
X-2062936Y6855363D01*
X-2078922Y6868806D01*
X-2097601Y6878157D01*
X-2105126Y6890841D01*
X-2116412Y6900331D01*
X-2122593Y6920283D01*
X-2133250Y6938247D01*
X-2136723Y6965898D01*
X-2137086Y6967072D01*
X-2136937Y6967609D01*
X-2137100Y6968907D01*
X-2137100Y7252745D01*
X-2117415Y7319784D01*
X-2100781Y7340426D01*
X-2091969Y7349238D01*
X-2067120Y7374087D01*
X-2014393Y7465413D01*
X-1987100Y7567273D01*
X-1987100Y7672727D01*
X-2014393Y7774587D01*
X-2067120Y7865913D01*
X-2141687Y7940480D01*
X-2233013Y7993207D01*
X-2334873Y8020500D01*
X-2440327Y8020500D01*
X-2542187Y7993207D01*
X-2542190Y7993206D01*
X-2633515Y7940479D01*
X-2708079Y7865915D01*
X-2760806Y7774590D01*
X-2760807Y7774587D01*
X-2788100Y7672727D01*
X-2788100Y7567273D01*
X-2760807Y7465413D01*
X-2715718Y7387316D01*
X-2708079Y7374086D01*
X-2674419Y7340426D01*
X-2640934Y7279103D01*
X-2638100Y7252745D01*
X-2638100Y5842971D01*
X-2599964Y5750903D01*
X-2519619Y5670558D01*
X-2486134Y5609235D01*
X-2483300Y5582877D01*
X-2483300Y5535273D01*
X-2456007Y5433413D01*
X-2407664Y5349680D01*
X-2403279Y5342086D01*
X-2369619Y5308426D01*
X-2336134Y5247103D01*
X-2333300Y5220745D01*
X-2333300Y4802968D01*
X-2295164Y4710900D01*
X-2216299Y4632035D01*
X-2182814Y4570712D01*
X-2187798Y4501020D01*
X-2229670Y4445087D01*
X-2271884Y4424580D01*
X-2308341Y4414811D01*
X-2308346Y4414809D01*
X-2399671Y4362082D01*
X-2474235Y4287518D01*
X-2526962Y4196193D01*
X-2526963Y4196190D01*
X-2554256Y4094330D01*
X-2554256Y3988876D01*
X-2526963Y3887016D01*
X-2474236Y3795690D01*
X-2399669Y3721123D01*
X-2308343Y3668396D01*
X-2206483Y3641103D01*
X-2206481Y3641103D01*
X-2184500Y3641103D01*
X-2117461Y3621418D01*
X-2071706Y3568614D01*
X-2060500Y3517103D01*
X-2060500Y275523D01*
X-2080185Y208484D01*
X-2096819Y187842D01*
X-3347348Y-1062686D01*
X-3408671Y-1096171D01*
X-3478363Y-1091187D01*
X-3534296Y-1049315D01*
X-3558713Y-983851D01*
X-3554805Y-942916D01*
X-3537498Y-878327D01*
X-3537498Y-772873D01*
X-3564791Y-671013D01*
X-3617518Y-579687D01*
X-3692085Y-505120D01*
X-3783411Y-452393D01*
X-3885271Y-425100D01*
X-3990725Y-425100D01*
X-4092585Y-452393D01*
X-4092588Y-452394D01*
X-4183913Y-505121D01*
X-4258477Y-579685D01*
X-4311204Y-671010D01*
X-4311205Y-671013D01*
X-4338498Y-772873D01*
X-4338498Y-878327D01*
X-4311205Y-980187D01*
X-4258478Y-1071513D01*
X-4183911Y-1146080D01*
X-4092585Y-1198807D01*
X-3990725Y-1226100D01*
X-3990723Y-1226100D01*
X-3885274Y-1226100D01*
X-3885271Y-1226100D01*
X-3820684Y-1208794D01*
X-3750837Y-1210457D01*
X-3692974Y-1249619D01*
X-3665470Y-1313848D01*
X-3677056Y-1382750D01*
X-3700912Y-1416250D01*
X-4547691Y-2263029D01*
X-4609014Y-2296514D01*
X-4678706Y-2291530D01*
X-4697372Y-2282735D01*
X-4722211Y-2268394D01*
X-4722212Y-2268393D01*
X-4722213Y-2268393D01*
X-4824073Y-2241100D01*
X-4929527Y-2241100D01*
X-4929532Y-2241100D01*
X-4978209Y-2254143D01*
X-5048059Y-2252479D01*
X-5105920Y-2213316D01*
X-5133423Y-2149087D01*
X-5134300Y-2134368D01*
X-5134300Y-1613219D01*
X-5114615Y-1546180D01*
X-5097981Y-1525538D01*
X-5042759Y-1470316D01*
X-4969236Y-1396793D01*
X-4931100Y-1304724D01*
X-4931100Y-1205068D01*
X-4931100Y2183828D01*
X-3194500Y2183828D01*
X-3194500Y2078374D01*
X-3167207Y1976514D01*
X-3114480Y1885188D01*
X-3039913Y1810621D01*
X-2948587Y1757894D01*
X-2846727Y1730601D01*
X-2846725Y1730601D01*
X-2741275Y1730601D01*
X-2741273Y1730601D01*
X-2639413Y1757894D01*
X-2548087Y1810621D01*
X-2473520Y1885188D01*
X-2420793Y1976514D01*
X-2393500Y2078374D01*
X-2393500Y2183828D01*
X-2420793Y2285688D01*
X-2473520Y2377014D01*
X-2548087Y2451581D01*
X-2627767Y2497584D01*
X-2639411Y2504307D01*
X-2639412Y2504308D01*
X-2639413Y2504308D01*
X-2741273Y2531601D01*
X-2846727Y2531601D01*
X-2948587Y2504308D01*
X-2948590Y2504307D01*
X-3039915Y2451580D01*
X-3114479Y2377016D01*
X-3167206Y2285691D01*
X-3167207Y2285688D01*
X-3194500Y2183828D01*
X-4931100Y2183828D01*
X-4931100Y3354145D01*
X-4911415Y3421184D01*
X-4858611Y3466939D01*
X-4789453Y3476883D01*
X-4725897Y3447858D01*
X-4719419Y3441826D01*
X-4716313Y3438720D01*
X-4624987Y3385993D01*
X-4523127Y3358700D01*
X-4523125Y3358700D01*
X-4417675Y3358700D01*
X-4417673Y3358700D01*
X-4315813Y3385993D01*
X-4224487Y3438720D01*
X-4168618Y3494590D01*
X-4107299Y3528072D01*
X-4037607Y3523088D01*
X-3981673Y3481217D01*
X-3959323Y3431098D01*
X-3958901Y3428977D01*
X-3958900Y3428975D01*
X-3958900Y3428974D01*
X-3926550Y3350874D01*
X-3920764Y3336905D01*
X-3775094Y3191235D01*
X-3753139Y3182142D01*
X-3740272Y3176812D01*
X-3729647Y3172411D01*
X-3681341Y3152401D01*
X-3681339Y3152400D01*
X-3641115Y3125522D01*
X-3598713Y3083120D01*
X-3507387Y3030393D01*
X-3405527Y3003100D01*
X-3405525Y3003100D01*
X-3300075Y3003100D01*
X-3300073Y3003100D01*
X-3198213Y3030393D01*
X-3106887Y3083120D01*
X-3032320Y3157687D01*
X-2979593Y3249013D01*
X-2952300Y3350873D01*
X-2952300Y3456327D01*
X-2979593Y3558187D01*
X-3032320Y3649513D01*
X-3106887Y3724080D01*
X-3173860Y3762747D01*
X-3198211Y3776806D01*
X-3198212Y3776807D01*
X-3198213Y3776807D01*
X-3300073Y3804100D01*
X-3333900Y3804100D01*
X-3400939Y3823785D01*
X-3446694Y3876589D01*
X-3457900Y3928100D01*
X-3457900Y6287545D01*
X-3438215Y6354584D01*
X-3421581Y6375226D01*
X-3414269Y6382538D01*
X-3387920Y6408887D01*
X-3335193Y6500213D01*
X-3307900Y6602073D01*
X-3307900Y6707527D01*
X-3335193Y6809387D01*
X-3387920Y6900713D01*
X-3462487Y6975280D01*
X-3553813Y7028007D01*
X-3655673Y7055300D01*
X-3761127Y7055300D01*
X-3862987Y7028007D01*
X-3862990Y7028006D01*
X-3954315Y6975279D01*
X-4028879Y6900715D01*
X-4081606Y6809390D01*
X-4081607Y6809387D01*
X-4108900Y6707527D01*
X-4108900Y6602073D01*
X-4081607Y6500213D01*
X-4032046Y6414370D01*
X-4028879Y6408886D01*
X-3995219Y6375226D01*
X-3961734Y6313903D01*
X-3958900Y6287545D01*
X-3958900Y4113455D01*
X-3978585Y4046416D01*
X-4031389Y4000661D01*
X-4100547Y3990717D01*
X-4164103Y4019742D01*
X-4170581Y4025774D01*
X-4224486Y4079679D01*
X-4224487Y4079680D01*
X-4315813Y4132407D01*
X-4417673Y4159700D01*
X-4523127Y4159700D01*
X-4624987Y4132407D01*
X-4624990Y4132406D01*
X-4716315Y4079679D01*
X-4719419Y4076574D01*
X-4722687Y4074791D01*
X-4722763Y4074731D01*
X-4722773Y4074744D01*
X-4780742Y4043089D01*
X-4850434Y4048073D01*
X-4906367Y4089945D01*
X-4930784Y4155409D01*
X-4931100Y4164255D01*
X-4931100Y5522768D01*
X-4931101Y5522771D01*
X-4935941Y5534456D01*
X-4969236Y5614838D01*
X-5039703Y5685305D01*
X-5046771Y5692373D01*
X-5046770Y5692375D01*
X-5046801Y5692402D01*
X-5048481Y5694083D01*
X-5081948Y5755416D01*
X-5084774Y5781738D01*
X-5084774Y5829340D01*
X-5084774Y5829342D01*
X-5112067Y5931202D01*
X-5164794Y6022528D01*
X-5239361Y6097095D01*
X-5323769Y6145828D01*
X-5330685Y6149821D01*
X-5330686Y6149822D01*
X-5330687Y6149822D01*
X-5432547Y6177115D01*
X-5538001Y6177115D01*
X-5639861Y6149822D01*
X-5639864Y6149821D01*
X-5731189Y6097094D01*
X-5805753Y6022530D01*
X-5858480Y5931205D01*
X-5858481Y5931202D01*
X-5885774Y5829342D01*
X-5885774Y5723888D01*
X-5858773Y5623120D01*
X-5858481Y5622029D01*
X-5858480Y5622026D01*
X-5854330Y5614838D01*
X-5805754Y5530702D01*
X-5731187Y5456135D01*
X-5639861Y5403408D01*
X-5538001Y5376115D01*
X-5537999Y5376115D01*
X-5530151Y5374012D01*
X-5530623Y5372254D01*
X-5476031Y5348113D01*
X-5437552Y5289794D01*
X-5432100Y5253429D01*
X-5432100Y4561723D01*
X-5438339Y4540478D01*
X-5439918Y4518390D01*
X-5447991Y4507607D01*
X-5451785Y4494684D01*
X-5468517Y4480186D01*
X-5481789Y4462456D01*
X-5494412Y4457749D01*
X-5504589Y4448929D01*
X-5526505Y4445778D01*
X-5547253Y4438039D01*
X-5560415Y4440902D01*
X-5573747Y4438985D01*
X-5593889Y4448184D01*
X-5615526Y4452890D01*
X-5633253Y4466161D01*
X-5637303Y4468010D01*
X-5643767Y4474028D01*
X-5700103Y4530364D01*
X-5700105Y4530365D01*
X-5911747Y4742007D01*
X-6116381Y4946642D01*
X-6149866Y5007965D01*
X-6152700Y5034323D01*
X-6152700Y5081925D01*
X-6152700Y5081927D01*
X-6179993Y5183787D01*
X-6232720Y5275113D01*
X-6307287Y5349680D01*
X-6398613Y5402407D01*
X-6500473Y5429700D01*
X-6605927Y5429700D01*
X-6707787Y5402407D01*
X-6707788Y5402407D01*
X-6726301Y5391718D01*
X-6794202Y5375247D01*
X-6860228Y5398100D01*
X-6903418Y5453021D01*
X-6912300Y5499106D01*
X-6912300Y5587027D01*
X-6912301Y5587030D01*
X-6950436Y5679097D01*
X-7020903Y5749564D01*
X-7132381Y5861042D01*
X-7165866Y5922365D01*
X-7168700Y5948723D01*
X-7168700Y5996325D01*
X-7168700Y5996327D01*
X-7195993Y6098187D01*
X-7248720Y6189513D01*
X-7323287Y6264080D01*
X-7414613Y6316807D01*
X-7516473Y6344100D01*
X-7621927Y6344100D01*
X-7723787Y6316807D01*
X-7723790Y6316806D01*
X-7815115Y6264079D01*
X-7889679Y6189515D01*
X-7942406Y6098190D01*
X-7942407Y6098187D01*
X-7969700Y5996327D01*
X-7969700Y5890873D01*
X-7942407Y5789013D01*
X-7889680Y5697687D01*
X-7815113Y5623120D01*
X-7723787Y5570393D01*
X-7621927Y5543100D01*
X-7574323Y5543100D01*
X-7544883Y5534456D01*
X-7514896Y5527932D01*
X-7509881Y5524178D01*
X-7507284Y5523415D01*
X-7486642Y5506781D01*
X-7449619Y5469758D01*
X-7416134Y5408435D01*
X-7413300Y5382077D01*
X-7413300Y4049042D01*
X-7432985Y3982003D01*
X-7485789Y3936248D01*
X-7554947Y3926304D01*
X-7618503Y3955329D01*
X-7644685Y3987038D01*
X-7655120Y4005113D01*
X-7729687Y4079680D01*
X-7821013Y4132407D01*
X-7922873Y4159700D01*
X-8028327Y4159700D01*
X-8130187Y4132407D01*
X-8130190Y4132406D01*
X-8221515Y4079679D01*
X-8253929Y4047264D01*
X-8315252Y4013779D01*
X-8384944Y4018763D01*
X-8429291Y4047264D01*
X-8505062Y4123035D01*
X-8505063Y4123036D01*
X-8575629Y4163777D01*
X-8596387Y4175762D01*
X-8596388Y4175763D01*
X-8596389Y4175763D01*
X-8698249Y4203056D01*
X-8803703Y4203056D01*
X-8905563Y4175763D01*
X-8905566Y4175762D01*
X-8996891Y4123035D01*
X-9071455Y4048471D01*
X-9124182Y3957146D01*
X-9124183Y3957143D01*
X-9151476Y3855283D01*
X-9151476Y3749829D01*
X-9124596Y3649513D01*
X-9124183Y3647970D01*
X-9124182Y3647967D01*
X-9110579Y3624406D01*
X-9071456Y3556643D01*
X-8996889Y3482076D01*
X-8905563Y3429349D01*
X-8803703Y3402056D01*
X-8803701Y3402056D01*
X-8698251Y3402056D01*
X-8698249Y3402056D01*
X-8596389Y3429349D01*
X-8505063Y3482076D01*
X-8472647Y3514492D01*
X-8411324Y3547977D01*
X-8341632Y3542993D01*
X-8297285Y3514492D01*
X-8296080Y3513287D01*
X-8221513Y3438720D01*
X-8130187Y3385993D01*
X-8028327Y3358700D01*
X-8003615Y3358700D01*
X-7936576Y3339015D01*
X-7890821Y3286211D01*
X-7879615Y3234700D01*
X-7879615Y666883D01*
X-7899300Y599844D01*
X-7952104Y554089D01*
X-7995984Y543118D01*
X-8016174Y541874D01*
X-8037173Y547500D01*
X-8142627Y547500D01*
X-8207698Y530065D01*
X-8220132Y529298D01*
X-8242545Y534405D01*
X-8265522Y534952D01*
X-8275964Y542020D01*
X-8288256Y544820D01*
X-8304349Y561232D01*
X-8323383Y574115D01*
X-8330480Y587881D01*
X-8337174Y594708D01*
X-8339309Y605007D01*
X-8347537Y620968D01*
X-8359894Y667086D01*
X-8412621Y758412D01*
X-8422098Y767889D01*
X-8455583Y829212D01*
X-8450599Y898904D01*
X-8441804Y917570D01*
X-8398593Y992413D01*
X-8371300Y1094273D01*
X-8371300Y1199727D01*
X-8398593Y1301587D01*
X-8451320Y1392913D01*
X-8525887Y1467480D01*
X-8617213Y1520207D01*
X-8719073Y1547500D01*
X-8824527Y1547500D01*
X-8926387Y1520207D01*
X-8926390Y1520206D01*
X-9017715Y1467479D01*
X-9092279Y1392915D01*
X-9145006Y1301590D01*
X-9145007Y1301587D01*
X-9172300Y1199727D01*
X-9172300Y1094273D01*
X-9153772Y1025127D01*
X-9145007Y992414D01*
X-9145006Y992411D01*
X-9143497Y989798D01*
X-9100463Y915260D01*
X-9092279Y901086D01*
X-9082804Y891611D01*
X-9049319Y830288D01*
X-9054303Y760596D01*
X-9063097Y741931D01*
X-9106308Y667087D01*
X-9106308Y667086D01*
X-9133601Y565226D01*
X-9133601Y517622D01*
X-9153286Y450583D01*
X-9169920Y429941D01*
X-9685819Y-85958D01*
X-9747142Y-119443D01*
X-9816834Y-114459D01*
X-9872767Y-72587D01*
X-9897184Y-7123D01*
X-9897500Y1723D01*
X-9897500Y1665745D01*
X-9877815Y1732784D01*
X-9825011Y1778539D01*
X-9755853Y1788483D01*
X-9692297Y1759458D01*
X-9685819Y1753426D01*
X-9669313Y1736920D01*
X-9577987Y1684193D01*
X-9476127Y1656900D01*
X-9476125Y1656900D01*
X-9370675Y1656900D01*
X-9370673Y1656900D01*
X-9268813Y1684193D01*
X-9177487Y1736920D01*
X-9102920Y1811487D01*
X-9050193Y1902813D01*
X-9022900Y2004673D01*
X-9022900Y2110127D01*
X-9050193Y2211987D01*
X-9102920Y2303313D01*
X-9177487Y2377880D01*
X-9268304Y2430313D01*
X-9268811Y2430606D01*
X-9268812Y2430607D01*
X-9268813Y2430607D01*
X-9370673Y2457900D01*
X-9476127Y2457900D01*
X-9577987Y2430607D01*
X-9577990Y2430606D01*
X-9669315Y2377879D01*
X-9702974Y2344219D01*
X-9764297Y2310734D01*
X-9790655Y2307900D01*
X-10039430Y2307900D01*
X-10131498Y2269764D01*
X-10360364Y2040898D01*
X-10398500Y1948830D01*
X-10398500Y-3917252D01*
X-10418185Y-3984291D01*
X-10470989Y-4030046D01*
X-10540147Y-4039990D01*
X-10584500Y-4024639D01*
X-10673011Y-3973537D01*
X-10673012Y-3973536D01*
X-10673013Y-3973536D01*
X-10774873Y-3946243D01*
X-10780053Y-3946243D01*
X-10847092Y-3926558D01*
X-10892847Y-3873754D01*
X-10902791Y-3804596D01*
X-10899830Y-3790158D01*
X-10877100Y-3705329D01*
X-10877100Y-3599875D01*
X-10904393Y-3498015D01*
X-10957120Y-3406689D01*
X-11031687Y-3332122D01*
X-11123013Y-3279395D01*
X-11224873Y-3252102D01*
X-11330327Y-3252102D01*
X-11432187Y-3279395D01*
X-11432190Y-3279396D01*
X-11523515Y-3332123D01*
X-11598079Y-3406687D01*
X-11650806Y-3498012D01*
X-11650807Y-3498015D01*
X-11678100Y-3599875D01*
X-11678100Y-3705329D01*
X-11652110Y-3802324D01*
X-11650807Y-3807188D01*
X-11650806Y-3807191D01*
X-11647920Y-3812189D01*
X-11612376Y-3873754D01*
X-11598079Y-3898516D01*
X-11564419Y-3932176D01*
X-11530934Y-3993499D01*
X-11528100Y-4019857D01*
X-11528100Y-5231429D01*
X-11489964Y-5323497D01*
X-11257219Y-5556242D01*
X-11223734Y-5617565D01*
X-11220900Y-5643923D01*
X-11220900Y-5691527D01*
X-11193607Y-5793387D01*
X-11140880Y-5884713D01*
X-11066313Y-5959280D01*
X-10974987Y-6012007D01*
X-10873127Y-6039300D01*
X-10873125Y-6039300D01*
X-10767675Y-6039300D01*
X-10767673Y-6039300D01*
X-10665813Y-6012007D01*
X-10574487Y-5959280D01*
X-10499920Y-5884713D01*
X-10447193Y-5793387D01*
X-10419900Y-5691527D01*
X-10419900Y-5586073D01*
X-10447193Y-5484213D01*
X-10499920Y-5392887D01*
X-10574487Y-5318320D01*
X-10665813Y-5265593D01*
X-10767673Y-5238300D01*
X-10767674Y-5238300D01*
X-10815277Y-5238300D01*
X-10844718Y-5229655D01*
X-10874704Y-5223132D01*
X-10879720Y-5219377D01*
X-10882316Y-5218615D01*
X-10902958Y-5201981D01*
X-10990781Y-5114158D01*
X-11024266Y-5052835D01*
X-11027100Y-5026477D01*
X-11027100Y-4869314D01*
X-11007415Y-4802275D01*
X-10954611Y-4756520D01*
X-10886908Y-4746376D01*
X-10880329Y-4747242D01*
X-10880327Y-4747243D01*
X-10880325Y-4747243D01*
X-10774875Y-4747243D01*
X-10774873Y-4747243D01*
X-10673013Y-4719950D01*
X-10584497Y-4668844D01*
X-10516601Y-4652373D01*
X-10450574Y-4675225D01*
X-10407383Y-4730146D01*
X-10403966Y-4739823D01*
X-10398500Y-4757617D01*
X-10398500Y-4786228D01*
X-10364492Y-4868331D01*
X-10362766Y-4873950D01*
X-10362648Y-4883476D01*
X-10357300Y-4910360D01*
X-10357300Y-4980327D01*
X-10330007Y-5082187D01*
X-10277280Y-5173513D01*
X-10202713Y-5248080D01*
X-10111387Y-5300807D01*
X-10009527Y-5328100D01*
X-10009525Y-5328100D01*
X-9904075Y-5328100D01*
X-9904073Y-5328100D01*
X-9802213Y-5300807D01*
X-9710887Y-5248080D01*
X-9636320Y-5173513D01*
X-9583593Y-5082187D01*
X-9556300Y-4980327D01*
X-9556300Y-4874873D01*
X-9583593Y-4773013D01*
X-9636320Y-4681687D01*
X-9710887Y-4607120D01*
X-9791247Y-4560724D01*
X-9802211Y-4554394D01*
X-9802218Y-4554391D01*
X-9805600Y-4553485D01*
X-9808131Y-4551942D01*
X-9809720Y-4551284D01*
X-9809618Y-4551036D01*
X-9865259Y-4517117D01*
X-9895784Y-4454268D01*
X-9897500Y-4433712D01*
X-9897500Y-4134387D01*
X-9877815Y-4067348D01*
X-9825011Y-4021593D01*
X-9755853Y-4011649D01*
X-9692297Y-4040674D01*
X-9685819Y-4046706D01*
X-8668819Y-5063706D01*
X-8635334Y-5125029D01*
X-8632500Y-5151387D01*
X-8632500Y-7100345D01*
X-8652185Y-7167384D01*
X-8668819Y-7188026D01*
X-8702479Y-7221685D01*
X-8755206Y-7313010D01*
X-8755207Y-7313013D01*
X-8782500Y-7414873D01*
X-8782500Y-7520327D01*
X-8755207Y-7622187D01*
X-8702480Y-7713513D01*
X-8627913Y-7788080D01*
X-8536587Y-7840807D01*
X-8434727Y-7868100D01*
X-8434725Y-7868100D01*
X-8329275Y-7868100D01*
X-8329273Y-7868100D01*
X-8227413Y-7840807D01*
X-8136087Y-7788080D01*
X-8061520Y-7713513D01*
X-8008793Y-7622187D01*
X-7981500Y-7520327D01*
X-7981500Y-7414873D01*
X-8008793Y-7313013D01*
X-8061520Y-7221687D01*
X-8095181Y-7188026D01*
X-8128666Y-7126703D01*
X-8131500Y-7100345D01*
X-8131500Y-5476122D01*
X-8111815Y-5409083D01*
X-8059011Y-5363328D01*
X-7989853Y-5353384D01*
X-7926297Y-5382409D01*
X-7919819Y-5388441D01*
X-7389435Y-5918825D01*
X-7389432Y-5918829D01*
X-7382364Y-5925897D01*
X-7311897Y-5996364D01*
X-7219828Y-6034500D01*
X-7120172Y-6034500D01*
X-6347033Y-6034500D01*
X-6279994Y-6054185D01*
X-6234239Y-6106989D01*
X-6224295Y-6176147D01*
X-6253320Y-6239703D01*
X-6259352Y-6246181D01*
X-6627730Y-6614556D01*
X-6627739Y-6614568D01*
X-6680764Y-6667593D01*
X-6718900Y-6759660D01*
X-6718900Y-9165540D01*
X-6735513Y-9227538D01*
X-6748931Y-9250779D01*
X-6774006Y-9294210D01*
X-6774007Y-9294213D01*
X-6801300Y-9396073D01*
X-6801300Y-9501527D01*
X-6774007Y-9603387D01*
X-6721280Y-9694713D01*
X-6646713Y-9769280D01*
X-6555387Y-9822007D01*
X-6453527Y-9849300D01*
X-6453525Y-9849300D01*
X-6348075Y-9849300D01*
X-6348073Y-9849300D01*
X-6246213Y-9822007D01*
X-6154887Y-9769280D01*
X-6080320Y-9694713D01*
X-6027593Y-9603387D01*
X-6012879Y-9548473D01*
X-806900Y-9548473D01*
X-806900Y-9653927D01*
X-780228Y-9753467D01*
X-779607Y-9755786D01*
X-779606Y-9755789D01*
X-771818Y-9769278D01*
X-726880Y-9847113D01*
X-652313Y-9921680D01*
X-560987Y-9974407D01*
X-459127Y-10001700D01*
X-459125Y-10001700D01*
X-353675Y-10001700D01*
X-353673Y-10001700D01*
X-251813Y-9974407D01*
X-160487Y-9921680D01*
X-85920Y-9847113D01*
X-33193Y-9755787D01*
X-5900Y-9653927D01*
X-5900Y-9548473D01*
X-33193Y-9446613D01*
X-85920Y-9355287D01*
X-160487Y-9280720D01*
X-251813Y-9227993D01*
X-353673Y-9200700D01*
X-459127Y-9200700D01*
X-560987Y-9227993D01*
X-560990Y-9227994D01*
X-652315Y-9280721D01*
X-726879Y-9355285D01*
X-779606Y-9446610D01*
X-779607Y-9446613D01*
X-806900Y-9548473D01*
X-6012879Y-9548473D01*
X-6000300Y-9501527D01*
X-6000300Y-9396073D01*
X-6027593Y-9294213D01*
X-6080320Y-9202887D01*
X-6154887Y-9128320D01*
X-6155903Y-9127733D01*
X-6156585Y-9127017D01*
X-6161336Y-9123372D01*
X-6160768Y-9122631D01*
X-6204117Y-9077166D01*
X-6217900Y-9020348D01*
X-6217900Y-6964612D01*
X-6209256Y-6935171D01*
X-6202732Y-6905185D01*
X-6198978Y-6900169D01*
X-6198215Y-6897573D01*
X-6181581Y-6876931D01*
X-6104074Y-6799424D01*
X-5169851Y-6799424D01*
X-5169851Y-6904878D01*
X-5143743Y-7002313D01*
X-5142558Y-7006737D01*
X-5142557Y-7006740D01*
X-5134189Y-7021233D01*
X-5089831Y-7098064D01*
X-5015264Y-7172631D01*
X-4923938Y-7225358D01*
X-4822078Y-7252651D01*
X-4822076Y-7252651D01*
X-4716626Y-7252651D01*
X-4716624Y-7252651D01*
X-4614764Y-7225358D01*
X-4523438Y-7172631D01*
X-4448871Y-7098064D01*
X-4396144Y-7006738D01*
X-4368851Y-6904878D01*
X-4368851Y-6799424D01*
X-4396144Y-6697564D01*
X-4448871Y-6606238D01*
X-4523438Y-6531671D01*
X-4614764Y-6478944D01*
X-4716624Y-6451651D01*
X-4822078Y-6451651D01*
X-4923938Y-6478944D01*
X-4923941Y-6478945D01*
X-5015266Y-6531672D01*
X-5089830Y-6606236D01*
X-5142557Y-6697561D01*
X-5142558Y-6697564D01*
X-5169851Y-6799424D01*
X-6104074Y-6799424D01*
X-5525469Y-6220819D01*
X-5464146Y-6187334D01*
X-5437788Y-6184500D01*
X-5390185Y-6184500D01*
X-5390183Y-6184500D01*
X-5288323Y-6157207D01*
X-5196997Y-6104480D01*
X-5122430Y-6029913D01*
X-5069703Y-5938587D01*
X-5042410Y-5836727D01*
X-5042410Y-5731273D01*
X-5069703Y-5629413D01*
X-5122430Y-5538087D01*
X-5196997Y-5463520D01*
X-5288323Y-5410793D01*
X-5390183Y-5383500D01*
X-5495637Y-5383500D01*
X-5597497Y-5410793D01*
X-5597500Y-5410794D01*
X-5688825Y-5463521D01*
X-5722484Y-5497181D01*
X-5783807Y-5530666D01*
X-5810165Y-5533500D01*
X-6437028Y-5533500D01*
X-6504067Y-5513815D01*
X-6549822Y-5461011D01*
X-6559967Y-5393316D01*
X-6559100Y-5386729D01*
X-6559100Y-5281275D01*
X-6559100Y-5281273D01*
X-6586393Y-5179413D01*
X-6639120Y-5088087D01*
X-6713687Y-5013520D01*
X-6805013Y-4960793D01*
X-6906873Y-4933500D01*
X-6906874Y-4933500D01*
X-6954477Y-4933500D01*
X-7021516Y-4913815D01*
X-7042158Y-4897181D01*
X-7342296Y-4597043D01*
X-7375781Y-4535720D01*
X-7378615Y-4509362D01*
X-7378615Y-1860208D01*
X-7358930Y-1793169D01*
X-7306126Y-1747414D01*
X-7236968Y-1737470D01*
X-7173412Y-1766495D01*
X-7166934Y-1772527D01*
X-6365319Y-2574142D01*
X-6331834Y-2635465D01*
X-6329000Y-2661823D01*
X-6329000Y-2694327D01*
X-6302938Y-2791590D01*
X-6301707Y-2796186D01*
X-6301706Y-2796189D01*
X-6298382Y-2801946D01*
X-6248980Y-2887513D01*
X-6174413Y-2962080D01*
X-6083087Y-3014807D01*
X-5981227Y-3042100D01*
X-5981225Y-3042100D01*
X-5875776Y-3042100D01*
X-5875773Y-3042100D01*
X-5785136Y-3017814D01*
X-5715291Y-3019477D01*
X-5657429Y-3058639D01*
X-5638486Y-3090136D01*
X-5635300Y-3097827D01*
X-5635300Y-3097828D01*
X-5597164Y-3189897D01*
X-5393964Y-3393097D01*
X-5323497Y-3463564D01*
X-5231428Y-3501700D01*
X-5231426Y-3501700D01*
X-4145811Y-3501700D01*
X-4145809Y-3501700D01*
X-4053740Y-3463564D01*
X-3703008Y-3112830D01*
X-3641685Y-3079346D01*
X-3615327Y-3076512D01*
X-3509582Y-3076512D01*
X-3509580Y-3076512D01*
X-3407720Y-3049219D01*
X-3332097Y-3005557D01*
X-3264201Y-2989086D01*
X-3198174Y-3011938D01*
X-3154983Y-3066859D01*
X-3146100Y-3112946D01*
X-3146100Y-6592345D01*
X-3165785Y-6659384D01*
X-3182419Y-6680026D01*
X-3216079Y-6713685D01*
X-3268806Y-6805010D01*
X-3268807Y-6805013D01*
X-3296100Y-6906873D01*
X-3296100Y-7012327D01*
X-3274184Y-7094117D01*
X-3268807Y-7114186D01*
X-3268806Y-7114189D01*
X-3264779Y-7121164D01*
X-3216080Y-7205513D01*
X-3141513Y-7280080D01*
X-3050187Y-7332807D01*
X-2948327Y-7360100D01*
X-2948325Y-7360100D01*
X-2842875Y-7360100D01*
X-2842873Y-7360100D01*
X-2741013Y-7332807D01*
X-2649687Y-7280080D01*
X-2575120Y-7205513D01*
X-2522393Y-7114187D01*
X-2495100Y-7012327D01*
X-2495100Y-6906873D01*
X-2522393Y-6805013D01*
X-2575120Y-6713687D01*
X-2608781Y-6680026D01*
X-2642266Y-6618703D01*
X-2645100Y-6592345D01*
X-2645100Y-1544587D01*
X-2625415Y-1477548D01*
X-2608781Y-1456906D01*
X-1672181Y-520306D01*
X-1610858Y-486821D01*
X-1541166Y-491805D01*
X-1485233Y-533677D01*
X-1460816Y-599141D01*
X-1460500Y-607987D01*
X-1460500Y-2084877D01*
X-1480185Y-2151916D01*
X-1496819Y-2172558D01*
X-1837442Y-2513181D01*
X-1898765Y-2546666D01*
X-1925123Y-2549500D01*
X-1972727Y-2549500D01*
X-2074587Y-2576793D01*
X-2074590Y-2576794D01*
X-2165915Y-2629521D01*
X-2240479Y-2704085D01*
X-2293206Y-2795410D01*
X-2293207Y-2795413D01*
X-2320500Y-2897273D01*
X-2320500Y-3002727D01*
X-2295343Y-3096613D01*
X-2293207Y-3104586D01*
X-2293206Y-3104589D01*
X-2240479Y-3195914D01*
X-2225475Y-3210918D01*
X-2191990Y-3272241D01*
X-2196974Y-3341933D01*
X-2225472Y-3386277D01*
X-2250879Y-3411684D01*
X-2303606Y-3503010D01*
X-2303607Y-3503013D01*
X-2330900Y-3604873D01*
X-2330900Y-3710327D01*
X-2304945Y-3807191D01*
X-2303607Y-3812186D01*
X-2303606Y-3812189D01*
X-2289478Y-3836659D01*
X-2250880Y-3903513D01*
X-2176313Y-3978080D01*
X-2084987Y-4030807D01*
X-1983127Y-4058100D01*
X-1935523Y-4058100D01*
X-1868484Y-4077785D01*
X-1847842Y-4094419D01*
X-1201219Y-4741042D01*
X-1167734Y-4802365D01*
X-1164900Y-4828723D01*
X-1164900Y-6389145D01*
X-1184585Y-6456184D01*
X-1201219Y-6476826D01*
X-1234879Y-6510485D01*
X-1287606Y-6601810D01*
X-1287607Y-6601813D01*
X-1314900Y-6703673D01*
X-1314900Y-6809127D01*
X-1289161Y-6905185D01*
X-1287607Y-6910986D01*
X-1287606Y-6910989D01*
X-1284497Y-6916374D01*
X-1234880Y-7002313D01*
X-1160313Y-7076880D01*
X-1068987Y-7129607D01*
X-967127Y-7156900D01*
X-967125Y-7156900D01*
X-861675Y-7156900D01*
X-861673Y-7156900D01*
X-759813Y-7129607D01*
X-668487Y-7076880D01*
X-593920Y-7002313D01*
X-541193Y-6910987D01*
X-526429Y-6855886D01*
X-490065Y-6796228D01*
X-427219Y-6765698D01*
X-365843Y-6772667D01*
X-365638Y-6771903D01*
X-360538Y-6773269D01*
X-359196Y-6773422D01*
X-357797Y-6774001D01*
X-357787Y-6774007D01*
X-255927Y-6801300D01*
X-255925Y-6801300D01*
X-150475Y-6801300D01*
X-150473Y-6801300D01*
X-48613Y-6774007D01*
X-37301Y-6767475D01*
X30598Y-6751002D01*
X96625Y-6773853D01*
X139817Y-6828774D01*
X148700Y-6874862D01*
X148700Y-8197535D01*
X186836Y-8289603D01*
X862948Y-8965715D01*
X896433Y-9027038D01*
X899267Y-9053396D01*
X899267Y-9101000D01*
X925982Y-9200700D01*
X926560Y-9202859D01*
X926561Y-9202862D01*
X930766Y-9210145D01*
X979287Y-9294186D01*
X1053854Y-9368753D01*
X1145180Y-9421480D01*
X1247040Y-9448773D01*
X1247042Y-9448773D01*
X1352492Y-9448773D01*
X1352494Y-9448773D01*
X1374110Y-9442981D01*
X1443957Y-9444642D01*
X1501820Y-9483804D01*
X1529142Y-9546568D01*
X1529900Y-9552326D01*
X1529900Y-9552327D01*
X1557124Y-9653927D01*
X1557193Y-9654186D01*
X1557194Y-9654189D01*
X1561614Y-9661845D01*
X1609920Y-9745513D01*
X1684487Y-9820080D01*
X1775813Y-9872807D01*
X1877673Y-9900100D01*
X1877675Y-9900100D01*
X1983125Y-9900100D01*
X1983127Y-9900100D01*
X2084987Y-9872807D01*
X2176313Y-9820080D01*
X2250880Y-9745513D01*
X2263714Y-9723282D01*
X2314279Y-9675069D01*
X2382886Y-9661845D01*
X2447751Y-9687813D01*
X2488280Y-9744727D01*
X2495100Y-9785284D01*
X2495100Y-9864327D01*
X2522393Y-9966187D01*
X2575120Y-10057513D01*
X2649687Y-10132080D01*
X2741013Y-10184807D01*
X2842873Y-10212100D01*
X2842875Y-10212100D01*
X2948325Y-10212100D01*
X2948327Y-10212100D01*
X3050187Y-10184807D01*
X3141513Y-10132080D01*
X3216080Y-10057513D01*
X3268807Y-9966187D01*
X3296100Y-9864327D01*
X3296100Y-9816723D01*
X3315785Y-9749684D01*
X3332419Y-9729042D01*
X4066219Y-8995242D01*
X4127542Y-8961757D01*
X4197234Y-8966741D01*
X4253167Y-9008613D01*
X4277584Y-9074077D01*
X4277900Y-9082923D01*
X4277900Y-9685677D01*
X4258215Y-9752716D01*
X4241581Y-9773358D01*
X3740158Y-10274781D01*
X3678835Y-10308266D01*
X3652477Y-10311100D01*
X3604873Y-10311100D01*
X3503013Y-10338393D01*
X3503010Y-10338394D01*
X3411685Y-10391121D01*
X3337121Y-10465685D01*
X3284394Y-10557010D01*
X3284393Y-10557013D01*
X3257100Y-10658873D01*
X3257100Y-10764327D01*
X3284393Y-10866187D01*
X3337120Y-10957513D01*
X3411687Y-11032080D01*
X3503013Y-11084807D01*
X3604873Y-11112100D01*
X3604875Y-11112100D01*
X3710325Y-11112100D01*
X3710327Y-11112100D01*
X3812187Y-11084807D01*
X3903513Y-11032080D01*
X3978080Y-10957513D01*
X4030807Y-10866187D01*
X4058100Y-10764327D01*
X4058100Y-10716723D01*
X4077785Y-10649684D01*
X4094419Y-10629042D01*
X4415195Y-10308266D01*
X4740764Y-9982697D01*
X4778900Y-9890628D01*
X4778900Y-9790972D01*
X4778900Y-7431371D01*
X4798585Y-7364332D01*
X4851389Y-7318577D01*
X4919092Y-7308433D01*
X4925671Y-7309299D01*
X4925673Y-7309300D01*
X4925675Y-7309300D01*
X5031125Y-7309300D01*
X5031127Y-7309300D01*
X5132987Y-7282007D01*
X5224313Y-7229280D01*
X5285388Y-7168204D01*
X5325611Y-7141329D01*
X5374297Y-7121164D01*
X5532219Y-6963240D01*
X5593541Y-6929756D01*
X5663233Y-6934740D01*
X5719167Y-6976611D01*
X5743584Y-7042075D01*
X5743900Y-7050922D01*
X5743900Y-12902229D01*
X5782036Y-12994297D01*
X6167181Y-13379441D01*
X6200666Y-13440764D01*
X6203500Y-13467122D01*
X6203500Y-13514727D01*
X6230793Y-13616587D01*
X6283520Y-13707913D01*
X6358087Y-13782480D01*
X6449413Y-13835207D01*
X6551273Y-13862500D01*
X6551275Y-13862500D01*
X6656725Y-13862500D01*
X6656727Y-13862500D01*
X6758587Y-13835207D01*
X6849913Y-13782480D01*
X6924480Y-13707913D01*
X6977207Y-13616587D01*
X7004500Y-13514727D01*
X7004500Y-13409273D01*
X6977207Y-13307413D01*
X6924480Y-13216087D01*
X6849913Y-13141520D01*
X6758587Y-13088793D01*
X6656727Y-13061500D01*
X6656726Y-13061500D01*
X6609122Y-13061500D01*
X6542083Y-13041815D01*
X6521441Y-13025181D01*
X6281219Y-12784958D01*
X6266515Y-12758030D01*
X6249923Y-12732212D01*
X6249031Y-12726011D01*
X6247734Y-12723635D01*
X6244900Y-12697277D01*
X6244900Y-12661905D01*
X6264585Y-12594866D01*
X6317389Y-12549111D01*
X6386547Y-12539167D01*
X6430899Y-12554517D01*
X6449413Y-12565207D01*
X6551273Y-12592500D01*
X6551275Y-12592500D01*
X6656725Y-12592500D01*
X6656727Y-12592500D01*
X6758587Y-12565207D01*
X6849913Y-12512480D01*
X6924480Y-12437913D01*
X6961365Y-12374026D01*
X7011928Y-12325814D01*
X7080535Y-12312590D01*
X7145400Y-12338558D01*
X7176136Y-12374028D01*
X7205827Y-12425454D01*
X7312977Y-12532604D01*
X7444207Y-12608370D01*
X7590576Y-12647589D01*
X7590578Y-12647589D01*
X7742106Y-12647589D01*
X7742108Y-12647589D01*
X7888477Y-12608370D01*
X8019707Y-12532604D01*
X8126857Y-12425454D01*
X8202623Y-12294224D01*
X8241842Y-12147855D01*
X8241842Y-11996323D01*
X8202623Y-11849954D01*
X8126857Y-11718724D01*
X8019707Y-11611574D01*
X7888477Y-11535808D01*
X7753310Y-11499590D01*
X7693651Y-11463226D01*
X7663122Y-11400379D01*
X7671417Y-11331003D01*
X7697721Y-11292139D01*
X8094363Y-10895498D01*
X8132499Y-10803429D01*
X8132499Y-10703773D01*
X8132499Y-10313146D01*
X8152184Y-10246107D01*
X8204988Y-10200352D01*
X8274146Y-10190408D01*
X8337702Y-10219433D01*
X8354439Y-10239706D01*
X8355560Y-10238847D01*
X8360505Y-10245292D01*
X8360506Y-10245293D01*
X8435073Y-10319860D01*
X8526399Y-10372587D01*
X8628259Y-10399880D01*
X8628261Y-10399880D01*
X8733711Y-10399880D01*
X8733713Y-10399880D01*
X8835573Y-10372587D01*
X8926899Y-10319860D01*
X9001466Y-10245293D01*
X9054193Y-10153967D01*
X9081486Y-10052107D01*
X9081486Y-9946653D01*
X9054193Y-9844793D01*
X9001466Y-9753467D01*
X8926899Y-9678900D01*
X8835573Y-9626173D01*
X8733713Y-9598880D01*
X8628259Y-9598880D01*
X8526399Y-9626173D01*
X8526396Y-9626174D01*
X8435071Y-9678901D01*
X8360505Y-9753467D01*
X8355560Y-9759913D01*
X8353029Y-9757971D01*
X8313290Y-9795844D01*
X8244679Y-9809048D01*
X8179822Y-9783063D01*
X8139308Y-9726138D01*
X8132499Y-9685613D01*
X8132499Y-8865861D01*
X8152184Y-8798822D01*
X8204988Y-8753067D01*
X8274146Y-8743123D01*
X8318495Y-8758472D01*
X8365342Y-8785520D01*
X8467202Y-8812813D01*
X8467204Y-8812813D01*
X8572654Y-8812813D01*
X8572656Y-8812813D01*
X8674516Y-8785520D01*
X8765842Y-8732793D01*
X8840409Y-8658226D01*
X8893136Y-8566900D01*
X8920429Y-8465040D01*
X8920429Y-8359586D01*
X8893136Y-8257726D01*
X8840409Y-8166400D01*
X8765842Y-8091833D01*
X8674516Y-8039106D01*
X8674515Y-8039105D01*
X8667477Y-8035042D01*
X8668501Y-8033267D01*
X8622643Y-7996312D01*
X8600579Y-7930018D01*
X8600500Y-7925593D01*
X8600500Y-7500126D01*
X8620185Y-7433087D01*
X8672989Y-7387332D01*
X8742147Y-7377388D01*
X8805703Y-7406413D01*
X8812181Y-7412445D01*
X9843221Y-8443485D01*
X9875313Y-8499067D01*
X9876791Y-8504582D01*
X9876792Y-8504586D01*
X9894368Y-8535029D01*
X9929520Y-8595913D01*
X10004087Y-8670480D01*
X10095413Y-8723207D01*
X10197273Y-8750500D01*
X10197275Y-8750500D01*
X10305473Y-8750500D01*
X10372512Y-8770185D01*
X10418267Y-8822989D01*
X10428211Y-8892147D01*
X10412860Y-8936500D01*
X10339378Y-9063772D01*
X10339378Y-9063773D01*
X10339378Y-9063774D01*
X10339377Y-9063776D01*
X10300158Y-9210145D01*
X10300158Y-9361677D01*
X10302054Y-9368753D01*
X10339377Y-9508047D01*
X10362719Y-9548475D01*
X10415143Y-9639276D01*
X10522293Y-9746426D01*
X10630757Y-9809048D01*
X10653202Y-9822007D01*
X10653523Y-9822192D01*
X10799892Y-9861411D01*
X10799894Y-9861411D01*
X10951422Y-9861411D01*
X10951424Y-9861411D01*
X11097793Y-9822192D01*
X11229023Y-9746426D01*
X11336173Y-9639276D01*
X11411939Y-9508046D01*
X11451158Y-9361677D01*
X11451158Y-9210145D01*
X11411939Y-9063776D01*
X11336173Y-8932546D01*
X11229023Y-8825396D01*
X11156563Y-8783561D01*
X11097794Y-8749630D01*
X10999172Y-8723205D01*
X10951424Y-8710411D01*
X10799892Y-8710411D01*
X10739451Y-8726606D01*
X10669601Y-8724943D01*
X10611739Y-8685780D01*
X10584235Y-8621551D01*
X10595822Y-8552649D01*
X10599957Y-8544857D01*
X10623207Y-8504587D01*
X10650500Y-8402727D01*
X10650500Y-8297273D01*
X10623207Y-8195413D01*
X10570480Y-8104087D01*
X10495913Y-8029520D01*
X10404587Y-7976793D01*
X10302727Y-7949500D01*
X10197273Y-7949500D01*
X10156392Y-7960454D01*
X10086542Y-7958791D01*
X10036618Y-7928360D01*
X8973619Y-6865361D01*
X8940134Y-6804038D01*
X8937300Y-6777680D01*
X8937300Y-6056855D01*
X8956985Y-5989816D01*
X8958723Y-5987185D01*
X8965317Y-5977475D01*
X9007280Y-5935513D01*
X9060007Y-5844187D01*
X9062717Y-5834069D01*
X9073639Y-5817990D01*
X9091209Y-5803530D01*
X9105492Y-5785806D01*
X9117676Y-5781750D01*
X9127589Y-5773593D01*
X9150189Y-5770927D01*
X9171786Y-5763739D01*
X9184226Y-5766913D01*
X9196978Y-5765410D01*
X9217434Y-5775388D01*
X9239486Y-5781016D01*
X9248235Y-5790413D01*
X9259775Y-5796042D01*
X9271588Y-5815493D01*
X9287098Y-5832151D01*
X9289378Y-5844786D01*
X9296043Y-5855761D01*
X9295464Y-5878514D01*
X9299506Y-5900911D01*
X9295991Y-5919751D01*
X9269700Y-6017873D01*
X9269700Y-6123327D01*
X9296993Y-6225187D01*
X9349720Y-6316513D01*
X9424287Y-6391080D01*
X9515613Y-6443807D01*
X9617473Y-6471100D01*
X9617475Y-6471100D01*
X9722925Y-6471100D01*
X9722927Y-6471100D01*
X9824787Y-6443807D01*
X9916113Y-6391080D01*
X9990680Y-6316513D01*
X10043407Y-6225187D01*
X10070700Y-6123327D01*
X10070700Y-6017873D01*
X10043407Y-5916013D01*
X10020711Y-5876703D01*
X10004100Y-5814705D01*
X10004100Y-2728819D01*
X10023785Y-2661780D01*
X10076589Y-2616025D01*
X10145747Y-2606081D01*
X10160178Y-2609040D01*
X10259673Y-2635700D01*
X10259676Y-2635700D01*
X10365125Y-2635700D01*
X10365127Y-2635700D01*
X10466987Y-2608407D01*
X10466997Y-2608401D01*
X10472999Y-2605916D01*
X10542469Y-2598448D01*
X10604948Y-2629724D01*
X10640600Y-2689813D01*
X10644451Y-2720478D01*
X10644451Y-3492843D01*
X10624766Y-3559882D01*
X10608132Y-3580524D01*
X10579521Y-3609134D01*
X10526794Y-3700459D01*
X10526793Y-3700462D01*
X10499500Y-3802322D01*
X10499500Y-3907776D01*
X10526793Y-4009636D01*
X10579520Y-4100962D01*
X10654087Y-4175529D01*
X10745413Y-4228256D01*
X10847273Y-4255549D01*
X10847275Y-4255549D01*
X10952725Y-4255549D01*
X10952727Y-4255549D01*
X11054587Y-4228256D01*
X11145913Y-4175529D01*
X11220480Y-4100962D01*
X11273207Y-4009636D01*
X11300500Y-3907776D01*
X11300500Y-3802322D01*
X11273207Y-3700462D01*
X11220480Y-3609136D01*
X11203199Y-3591855D01*
X11181769Y-3570424D01*
X11148284Y-3509101D01*
X11145451Y-3482744D01*
X11145451Y-2131527D01*
X11145450Y-2131524D01*
X11123014Y-2077358D01*
X11107315Y-2039457D01*
X11071106Y-2003248D01*
X11037621Y-1941925D01*
X11042605Y-1872233D01*
X11084477Y-1816300D01*
X11120013Y-1799038D01*
X11119880Y-1798716D01*
X11125286Y-1796476D01*
X11126695Y-1795792D01*
X11127387Y-1795607D01*
X11218713Y-1742880D01*
X11293280Y-1668313D01*
X11346007Y-1576987D01*
X11373300Y-1475127D01*
X11373300Y-1427522D01*
X11381944Y-1398081D01*
X11388467Y-1368097D01*
X11392222Y-1363080D01*
X11392985Y-1360483D01*
X11409617Y-1339843D01*
X11434452Y-1315007D01*
X11434456Y-1315004D01*
X11451896Y-1297564D01*
X11451897Y-1297564D01*
X11522364Y-1227097D01*
X11522365Y-1227093D01*
X11522897Y-1226299D01*
X11524510Y-1224950D01*
X11531000Y-1218461D01*
X11531580Y-1219041D01*
X11576508Y-1181493D01*
X11645833Y-1172784D01*
X11708861Y-1202938D01*
X11745581Y-1262381D01*
X11750000Y-1295188D01*
X11750000Y-4100000D01*
X14150000Y-4100000D01*
X14150000Y-3124000D01*
X14169685Y-3056961D01*
X14222489Y-3011206D01*
X14274000Y-3000000D01*
X14826000Y-3000000D01*
X14893039Y-3019685D01*
X14938794Y-3072489D01*
X14950000Y-3124000D01*
X14950000Y-5200000D01*
X15136867Y-5200000D01*
X15203906Y-5219685D01*
X15249661Y-5272489D01*
X15259605Y-5341647D01*
X15253618Y-5365774D01*
X15091721Y-5818244D01*
X15089531Y-5823923D01*
X14788053Y-6551757D01*
X14785587Y-6557321D01*
X14448751Y-7269498D01*
X14446014Y-7274934D01*
X14074658Y-7969694D01*
X14071658Y-7974990D01*
X13666650Y-8650706D01*
X13663394Y-8655848D01*
X13225721Y-9310872D01*
X13222217Y-9315848D01*
X12752916Y-9948625D01*
X12749171Y-9953423D01*
X12249403Y-10562392D01*
X12245428Y-10567000D01*
X11716375Y-11150721D01*
X11712178Y-11155129D01*
X11155129Y-11712178D01*
X11150721Y-11716375D01*
X10567000Y-12245428D01*
X10562392Y-12249403D01*
X9953423Y-12749171D01*
X9948625Y-12752916D01*
X9315848Y-13222217D01*
X9310872Y-13225721D01*
X8655848Y-13663394D01*
X8650706Y-13666650D01*
X7974990Y-14071658D01*
X7969694Y-14074658D01*
X7274934Y-14446014D01*
X7269498Y-14448751D01*
X6557321Y-14785587D01*
X6551757Y-14788053D01*
X5823923Y-15089531D01*
X5818244Y-15091721D01*
X5076527Y-15357112D01*
X5070748Y-15359022D01*
X4316856Y-15587712D01*
X4310991Y-15589335D01*
X3546793Y-15780757D01*
X3540854Y-15782090D01*
X2768220Y-15935776D01*
X2762224Y-15936817D01*
X1982940Y-16052413D01*
X1976899Y-16053158D01*
X1192905Y-16130375D01*
X1186836Y-16130823D01*
X399975Y-16169480D01*
X393890Y-16169629D01*
X-393890Y-16169629D01*
X-399975Y-16169480D01*
X-1186837Y-16130823D01*
X-1192906Y-16130375D01*
X-1976900Y-16053158D01*
X-1982941Y-16052413D01*
X-2762225Y-15936817D01*
X-2768221Y-15935776D01*
X-3540855Y-15782090D01*
X-3546794Y-15780757D01*
X-4310992Y-15589335D01*
X-4316857Y-15587712D01*
X-5070749Y-15359022D01*
X-5076528Y-15357112D01*
X-5247612Y-15295897D01*
X-5551195Y-15187273D01*
X-1670500Y-15187273D01*
X-1670500Y-15292727D01*
X-1643207Y-15394587D01*
X-1590480Y-15485913D01*
X-1515913Y-15560480D01*
X-1424587Y-15613207D01*
X-1322727Y-15640500D01*
X-1322725Y-15640500D01*
X-1217275Y-15640500D01*
X-1217273Y-15640500D01*
X-1115413Y-15613207D01*
X-1024087Y-15560480D01*
X-949520Y-15485913D01*
X-896793Y-15394587D01*
X-869500Y-15292727D01*
X-869500Y-15187273D01*
X361500Y-15187273D01*
X361500Y-15292727D01*
X388793Y-15394587D01*
X441520Y-15485913D01*
X516087Y-15560480D01*
X607413Y-15613207D01*
X709273Y-15640500D01*
X709275Y-15640500D01*
X814725Y-15640500D01*
X814727Y-15640500D01*
X916587Y-15613207D01*
X1007913Y-15560480D01*
X1082480Y-15485913D01*
X1135207Y-15394587D01*
X1162500Y-15292727D01*
X1162500Y-15187273D01*
X1135207Y-15085413D01*
X1082480Y-14994087D01*
X1007913Y-14919520D01*
X916587Y-14866793D01*
X814727Y-14839500D01*
X709273Y-14839500D01*
X607413Y-14866793D01*
X607410Y-14866794D01*
X516085Y-14919521D01*
X441521Y-14994085D01*
X388794Y-15085410D01*
X388793Y-15085413D01*
X361500Y-15187273D01*
X-869500Y-15187273D01*
X-896793Y-15085413D01*
X-949520Y-14994087D01*
X-1024087Y-14919520D01*
X-1115413Y-14866793D01*
X-1217273Y-14839500D01*
X-1322727Y-14839500D01*
X-1424587Y-14866793D01*
X-1424590Y-14866794D01*
X-1515915Y-14919521D01*
X-1590479Y-14994085D01*
X-1643206Y-15085410D01*
X-1643207Y-15085413D01*
X-1670500Y-15187273D01*
X-5551195Y-15187273D01*
X-5818245Y-15091721D01*
X-5823924Y-15089531D01*
X-6551758Y-14788053D01*
X-6557322Y-14785587D01*
X-7269499Y-14448751D01*
X-7274935Y-14446014D01*
X-7969695Y-14074658D01*
X-7974991Y-14071658D01*
X-8292546Y-13881323D01*
X-8650720Y-13666642D01*
X-8655836Y-13663402D01*
X-9310873Y-13225721D01*
X-9315849Y-13222217D01*
X-9948626Y-12752916D01*
X-9953424Y-12749171D01*
X-10562393Y-12249403D01*
X-10567001Y-12245428D01*
X-10749441Y-12080074D01*
X-10841846Y-11996323D01*
X-8241842Y-11996323D01*
X-8241842Y-12147854D01*
X-8202623Y-12294225D01*
X-8177027Y-12338558D01*
X-8126857Y-12425454D01*
X-8019707Y-12532604D01*
X-7888477Y-12608370D01*
X-7742108Y-12647589D01*
X-7742106Y-12647589D01*
X-7590578Y-12647589D01*
X-7590576Y-12647589D01*
X-7444207Y-12608370D01*
X-7312977Y-12532604D01*
X-7205827Y-12425454D01*
X-7130061Y-12294224D01*
X-7090842Y-12147855D01*
X-7090842Y-12139273D01*
X-806900Y-12139273D01*
X-806900Y-12244727D01*
X-779607Y-12346587D01*
X-726880Y-12437913D01*
X-652313Y-12512480D01*
X-560987Y-12565207D01*
X-459127Y-12592500D01*
X-459125Y-12592500D01*
X-353675Y-12592500D01*
X-353673Y-12592500D01*
X-251813Y-12565207D01*
X-160487Y-12512480D01*
X-85920Y-12437913D01*
X-33193Y-12346587D01*
X-5900Y-12244727D01*
X-5900Y-12139273D01*
X-33193Y-12037413D01*
X-85920Y-11946087D01*
X-160487Y-11871520D01*
X-251813Y-11818793D01*
X-353673Y-11791500D01*
X-459127Y-11791500D01*
X-560987Y-11818793D01*
X-560990Y-11818794D01*
X-652315Y-11871521D01*
X-726879Y-11946085D01*
X-779606Y-12037410D01*
X-779607Y-12037413D01*
X-806900Y-12139273D01*
X-7090842Y-12139273D01*
X-7090842Y-11996323D01*
X-7130061Y-11849954D01*
X-7205827Y-11718724D01*
X-7312977Y-11611574D01*
X-7378592Y-11573691D01*
X-7444206Y-11535808D01*
X-7517392Y-11516198D01*
X-7590576Y-11496589D01*
X-7742108Y-11496589D01*
X-7888479Y-11535808D01*
X-8019707Y-11611574D01*
X-8019710Y-11611576D01*
X-8126855Y-11718721D01*
X-8126857Y-11718724D01*
X-8202623Y-11849952D01*
X-8241842Y-11996323D01*
X-10841846Y-11996323D01*
X-11150722Y-11716375D01*
X-11155130Y-11712178D01*
X-11712179Y-11155129D01*
X-11716376Y-11150721D01*
X-11832185Y-11022945D01*
X-11900293Y-10947799D01*
X-808129Y-10947799D01*
X-808129Y-11053253D01*
X-780836Y-11155113D01*
X-728109Y-11246439D01*
X-653542Y-11321006D01*
X-562216Y-11373733D01*
X-460356Y-11401026D01*
X-460354Y-11401026D01*
X-354904Y-11401026D01*
X-354902Y-11401026D01*
X-253042Y-11373733D01*
X-161716Y-11321006D01*
X-87149Y-11246439D01*
X-34422Y-11155113D01*
X-7129Y-11053253D01*
X-7129Y-10947799D01*
X-34422Y-10845939D01*
X-87149Y-10754613D01*
X-161716Y-10680046D01*
X-234672Y-10637925D01*
X-253040Y-10627320D01*
X-253041Y-10627319D01*
X-253042Y-10627319D01*
X-354902Y-10600026D01*
X-460356Y-10600026D01*
X-562216Y-10627319D01*
X-562219Y-10627320D01*
X-653544Y-10680047D01*
X-728108Y-10754611D01*
X-780835Y-10845936D01*
X-780836Y-10845939D01*
X-808129Y-10947799D01*
X-11900293Y-10947799D01*
X-12245429Y-10567000D01*
X-12249404Y-10562392D01*
X-12749172Y-9953423D01*
X-12752917Y-9948625D01*
X-13110155Y-9466947D01*
X-13222221Y-9315844D01*
X-13225723Y-9310871D01*
X-13236871Y-9294187D01*
X-13293026Y-9210145D01*
X-11451158Y-9210145D01*
X-11451158Y-9361677D01*
X-11449262Y-9368753D01*
X-11411939Y-9508047D01*
X-11388597Y-9548475D01*
X-11336173Y-9639276D01*
X-11229023Y-9746426D01*
X-11120559Y-9809048D01*
X-11098114Y-9822007D01*
X-11097793Y-9822192D01*
X-10951424Y-9861411D01*
X-10951422Y-9861411D01*
X-10799894Y-9861411D01*
X-10799892Y-9861411D01*
X-10653523Y-9822192D01*
X-10640581Y-9814720D01*
X-9081486Y-9814720D01*
X-9081486Y-9920174D01*
X-9054193Y-10022034D01*
X-9001466Y-10113360D01*
X-8926899Y-10187927D01*
X-8835573Y-10240654D01*
X-8733713Y-10267947D01*
X-8733711Y-10267947D01*
X-8628261Y-10267947D01*
X-8628259Y-10267947D01*
X-8616216Y-10264720D01*
X-3258500Y-10264720D01*
X-3258500Y-10370174D01*
X-3231207Y-10472034D01*
X-3178480Y-10563360D01*
X-3103913Y-10637927D01*
X-3012587Y-10690654D01*
X-2910727Y-10717947D01*
X-2910725Y-10717947D01*
X-2805275Y-10717947D01*
X-2805273Y-10717947D01*
X-2703413Y-10690654D01*
X-2612087Y-10637927D01*
X-2537520Y-10563360D01*
X-2484793Y-10472034D01*
X-2457500Y-10370174D01*
X-2457500Y-10264720D01*
X-2484793Y-10162860D01*
X-2537520Y-10071534D01*
X-2612087Y-9996967D01*
X-2678941Y-9958369D01*
X-2703411Y-9944241D01*
X-2703412Y-9944240D01*
X-2703413Y-9944240D01*
X-2805273Y-9916947D01*
X-2910727Y-9916947D01*
X-3012587Y-9944240D01*
X-3012590Y-9944241D01*
X-3103915Y-9996968D01*
X-3178479Y-10071532D01*
X-3231206Y-10162857D01*
X-3231207Y-10162860D01*
X-3258500Y-10264720D01*
X-8616216Y-10264720D01*
X-8526399Y-10240654D01*
X-8435073Y-10187927D01*
X-8360506Y-10113360D01*
X-8307779Y-10022034D01*
X-8280486Y-9920174D01*
X-8280486Y-9814720D01*
X-8307779Y-9712860D01*
X-8360506Y-9621534D01*
X-8435073Y-9546967D01*
X-8502486Y-9508046D01*
X-8526397Y-9494241D01*
X-8526398Y-9494240D01*
X-8526399Y-9494240D01*
X-8628259Y-9466947D01*
X-8733713Y-9466947D01*
X-8835573Y-9494240D01*
X-8835576Y-9494241D01*
X-8926901Y-9546968D01*
X-9001465Y-9621532D01*
X-9054192Y-9712857D01*
X-9054193Y-9712860D01*
X-9081486Y-9814720D01*
X-10640581Y-9814720D01*
X-10522293Y-9746426D01*
X-10415143Y-9639276D01*
X-10339377Y-9508046D01*
X-10300158Y-9361677D01*
X-10300158Y-9210145D01*
X-10339377Y-9063776D01*
X-10415143Y-8932546D01*
X-10522293Y-8825396D01*
X-10594753Y-8783561D01*
X-10653522Y-8749630D01*
X-10752144Y-8723205D01*
X-10799892Y-8710411D01*
X-10951424Y-8710411D01*
X-11097795Y-8749630D01*
X-11229023Y-8825396D01*
X-11229026Y-8825398D01*
X-11336171Y-8932543D01*
X-11336173Y-8932546D01*
X-11411939Y-9063774D01*
X-11429234Y-9128322D01*
X-11451158Y-9210145D01*
X-13293026Y-9210145D01*
X-13663410Y-8655824D01*
X-13666636Y-8650730D01*
X-14042000Y-8024473D01*
X-13252900Y-8024473D01*
X-13252900Y-8129927D01*
X-13225607Y-8231787D01*
X-13172880Y-8323113D01*
X-13098313Y-8397680D01*
X-13006987Y-8450407D01*
X-12905127Y-8477700D01*
X-12905125Y-8477700D01*
X-12799675Y-8477700D01*
X-12799673Y-8477700D01*
X-12697813Y-8450407D01*
X-12606487Y-8397680D01*
X-12531920Y-8323113D01*
X-12479193Y-8231787D01*
X-12451900Y-8129927D01*
X-12451900Y-8024473D01*
X-12479193Y-7922613D01*
X-12531920Y-7831287D01*
X-12606487Y-7756720D01*
X-12697813Y-7703993D01*
X-12799673Y-7676700D01*
X-12905127Y-7676700D01*
X-13006987Y-7703993D01*
X-13006990Y-7703994D01*
X-13098315Y-7756721D01*
X-13172879Y-7831285D01*
X-13225606Y-7922610D01*
X-13225607Y-7922613D01*
X-13252900Y-8024473D01*
X-14042000Y-8024473D01*
X-14071670Y-7974971D01*
X-14074659Y-7969694D01*
X-14128963Y-7868099D01*
X-14446016Y-7274932D01*
X-14448752Y-7269498D01*
X-14785593Y-6557311D01*
X-14788054Y-6551757D01*
X-14793985Y-6537439D01*
X-15089535Y-5823915D01*
X-15091722Y-5818244D01*
X-15098765Y-5798561D01*
X-15357116Y-5076519D01*
X-15359023Y-5070748D01*
X-15376383Y-5013521D01*
X-15587714Y-4316854D01*
X-15589336Y-4310991D01*
X-15593588Y-4294016D01*
X-15780762Y-3546776D01*
X-15782091Y-3540854D01*
X-15785658Y-3522923D01*
X-15935778Y-2768214D01*
X-15936818Y-2762224D01*
X-15940839Y-2735114D01*
X-16052416Y-1982926D01*
X-16053159Y-1976899D01*
X-16055391Y-1954234D01*
X-16130379Y-1192867D01*
X-16130823Y-1186842D01*
X-16130823Y-1186836D01*
X-16131037Y-1182473D01*
X-15386500Y-1182473D01*
X-15386500Y-1287927D01*
X-15361092Y-1382750D01*
X-15359207Y-1389786D01*
X-15359206Y-1389789D01*
X-15354061Y-1398700D01*
X-15306480Y-1481113D01*
X-15231913Y-1555680D01*
X-15140587Y-1608407D01*
X-15038727Y-1635700D01*
X-15038725Y-1635700D01*
X-14933275Y-1635700D01*
X-14933273Y-1635700D01*
X-14831413Y-1608407D01*
X-14740087Y-1555680D01*
X-14665520Y-1481113D01*
X-14612793Y-1389787D01*
X-14585500Y-1287927D01*
X-14585500Y-1182473D01*
X-14612793Y-1080613D01*
X-14665520Y-989287D01*
X-14740087Y-914720D01*
X-14831413Y-861993D01*
X-14933273Y-834700D01*
X-15038727Y-834700D01*
X-15140587Y-861993D01*
X-15140590Y-861994D01*
X-15231915Y-914721D01*
X-15306479Y-989285D01*
X-15359206Y-1080610D01*
X-15359207Y-1080613D01*
X-15386500Y-1182473D01*
X-16131037Y-1182473D01*
X-16169480Y-399973D01*
X-16169629Y-393889D01*
X-16169629Y393890D01*
X-16169480Y399974D01*
X-16166994Y450583D01*
X-16130822Y1186875D01*
X-16130380Y1192865D01*
X-16053157Y1976920D01*
X-16052414Y1982940D01*
X-16051966Y1985957D01*
X-16019376Y2205664D01*
X-14876159Y2205664D01*
X-14876159Y2100210D01*
X-14848866Y1998350D01*
X-14796139Y1907024D01*
X-14721572Y1832457D01*
X-14630246Y1779730D01*
X-14528386Y1752437D01*
X-14528384Y1752437D01*
X-14422935Y1752437D01*
X-14422932Y1752437D01*
X-14376591Y1764854D01*
X-14306744Y1763191D01*
X-14248881Y1724029D01*
X-14221377Y1659800D01*
X-14220500Y1645079D01*
X-14220500Y1384413D01*
X-14240185Y1317374D01*
X-14292989Y1271619D01*
X-14362147Y1261675D01*
X-14376591Y1264638D01*
X-14409668Y1273501D01*
X-14409672Y1273501D01*
X-14515126Y1273501D01*
X-14616986Y1246208D01*
X-14616989Y1246207D01*
X-14708314Y1193480D01*
X-14782878Y1118916D01*
X-14835605Y1027591D01*
X-14835606Y1027588D01*
X-14862899Y925728D01*
X-14862899Y820274D01*
X-14835606Y718414D01*
X-14782879Y627088D01*
X-14708312Y552521D01*
X-14616986Y499794D01*
X-14515126Y472501D01*
X-14515124Y472501D01*
X-14409675Y472501D01*
X-14409672Y472501D01*
X-14376591Y481365D01*
X-14306744Y479702D01*
X-14248881Y440540D01*
X-14221377Y376311D01*
X-14220500Y361590D01*
X-14220500Y-3148629D01*
X-14182364Y-3240697D01*
X-14025010Y-3398051D01*
X-13991525Y-3459374D01*
X-13992916Y-3517824D01*
X-14014900Y-3599872D01*
X-14014900Y-3599875D01*
X-14014900Y-3705329D01*
X-13988910Y-3802324D01*
X-13987607Y-3807188D01*
X-13987606Y-3807191D01*
X-13984720Y-3812189D01*
X-13934880Y-3898515D01*
X-13860313Y-3973082D01*
X-13768987Y-4025809D01*
X-13667127Y-4053102D01*
X-13667125Y-4053102D01*
X-13561675Y-4053102D01*
X-13561673Y-4053102D01*
X-13459813Y-4025809D01*
X-13368487Y-3973082D01*
X-13293920Y-3898515D01*
X-13241193Y-3807189D01*
X-13213900Y-3705329D01*
X-13213900Y-3599875D01*
X-13241193Y-3498015D01*
X-13293920Y-3406689D01*
X-13368487Y-3332122D01*
X-13368488Y-3332121D01*
X-13387313Y-3321252D01*
X-13412990Y-3301549D01*
X-13442298Y-3272241D01*
X-13472503Y-3242036D01*
X-13683181Y-3031358D01*
X-13716666Y-2970035D01*
X-13719500Y-2943677D01*
X-13719500Y-1522073D01*
X-13100500Y-1522073D01*
X-13100500Y-1627527D01*
X-13073207Y-1729387D01*
X-13020480Y-1820713D01*
X-12945913Y-1895280D01*
X-12854587Y-1948007D01*
X-12759673Y-1973438D01*
X-12700015Y-2009801D01*
X-12669485Y-2072648D01*
X-12677779Y-2142023D01*
X-12704086Y-2180893D01*
X-12766480Y-2243287D01*
X-12819206Y-2334610D01*
X-12819207Y-2334613D01*
X-12846500Y-2436473D01*
X-12846500Y-2541927D01*
X-12819207Y-2643787D01*
X-12766480Y-2735113D01*
X-12691913Y-2809680D01*
X-12600587Y-2862407D01*
X-12498727Y-2889700D01*
X-12498725Y-2889700D01*
X-12393275Y-2889700D01*
X-12393273Y-2889700D01*
X-12291413Y-2862407D01*
X-12200087Y-2809680D01*
X-12125520Y-2735113D01*
X-12072793Y-2643787D01*
X-12045500Y-2541927D01*
X-12045500Y-2436473D01*
X-12072793Y-2334613D01*
X-12125520Y-2243287D01*
X-12200087Y-2168720D01*
X-12291413Y-2115993D01*
X-12386328Y-2090560D01*
X-12445987Y-2054197D01*
X-12476516Y-1991351D01*
X-12468222Y-1921975D01*
X-12441919Y-1883111D01*
X-12379520Y-1820713D01*
X-12326793Y-1729387D01*
X-12299500Y-1627527D01*
X-12299500Y-1522073D01*
X-12326793Y-1420213D01*
X-12379520Y-1328887D01*
X-12454087Y-1254320D01*
X-12545413Y-1201593D01*
X-12647273Y-1174300D01*
X-12752727Y-1174300D01*
X-12854587Y-1201593D01*
X-12854590Y-1201594D01*
X-12945915Y-1254321D01*
X-13020479Y-1328885D01*
X-13073206Y-1420210D01*
X-13073207Y-1420213D01*
X-13100500Y-1522073D01*
X-13719500Y-1522073D01*
X-13719500Y-64274D01*
X-12863732Y-64274D01*
X-12863732Y-169728D01*
X-12836439Y-271588D01*
X-12783712Y-362914D01*
X-12709145Y-437481D01*
X-12617819Y-490208D01*
X-12515959Y-517501D01*
X-12515957Y-517501D01*
X-12410507Y-517501D01*
X-12410505Y-517501D01*
X-12308645Y-490208D01*
X-12217319Y-437481D01*
X-12142752Y-362914D01*
X-12090025Y-271588D01*
X-12062732Y-169728D01*
X-12062732Y-64274D01*
X-12090025Y37586D01*
X-12142752Y128912D01*
X-12217319Y203479D01*
X-12308645Y256206D01*
X-12410505Y283499D01*
X-12515959Y283499D01*
X-12617819Y256206D01*
X-12617822Y256205D01*
X-12709147Y203478D01*
X-12783711Y128914D01*
X-12836438Y37589D01*
X-12836439Y37586D01*
X-12863732Y-64274D01*
X-13719500Y-64274D01*
X-13719500Y1415730D01*
X-12871900Y1415730D01*
X-12871900Y1310276D01*
X-12856832Y1254043D01*
X-12844607Y1208417D01*
X-12844606Y1208414D01*
X-12832148Y1186837D01*
X-12791880Y1117090D01*
X-12717313Y1042523D01*
X-12625987Y989796D01*
X-12524127Y962503D01*
X-12524125Y962503D01*
X-12418675Y962503D01*
X-12418673Y962503D01*
X-12316813Y989796D01*
X-12225487Y1042523D01*
X-12150920Y1117090D01*
X-12098193Y1208416D01*
X-12070900Y1310276D01*
X-12070900Y1415730D01*
X-12098193Y1517590D01*
X-12150920Y1608916D01*
X-12225487Y1683483D01*
X-12307098Y1730601D01*
X-12316811Y1736209D01*
X-12316812Y1736210D01*
X-12316813Y1736210D01*
X-12418673Y1763503D01*
X-12524127Y1763503D01*
X-12625987Y1736210D01*
X-12625990Y1736209D01*
X-12717315Y1683482D01*
X-12791879Y1608918D01*
X-12844606Y1517593D01*
X-12844607Y1517590D01*
X-12871900Y1415730D01*
X-13719500Y1415730D01*
X-13719500Y4624727D01*
X-12084500Y4624727D01*
X-12084500Y4519273D01*
X-12057207Y4417413D01*
X-12004480Y4326087D01*
X-11929913Y4251520D01*
X-11838587Y4198793D01*
X-11736727Y4171500D01*
X-11736725Y4171500D01*
X-11631275Y4171500D01*
X-11631273Y4171500D01*
X-11529413Y4198793D01*
X-11438087Y4251520D01*
X-11363520Y4326087D01*
X-11310793Y4417413D01*
X-11283500Y4519273D01*
X-11283500Y4624727D01*
X-11310793Y4726587D01*
X-11363520Y4817913D01*
X-11438087Y4892480D01*
X-11529413Y4945207D01*
X-11631273Y4972500D01*
X-11736727Y4972500D01*
X-11838587Y4945207D01*
X-11838590Y4945206D01*
X-11929915Y4892479D01*
X-12004479Y4817915D01*
X-12057206Y4726590D01*
X-12057207Y4726587D01*
X-12084500Y4624727D01*
X-13719500Y4624727D01*
X-13719500Y5940878D01*
X-13699815Y6007917D01*
X-13683181Y6028559D01*
X-13493759Y6217981D01*
X-13432436Y6251466D01*
X-13406078Y6254300D01*
X-13358475Y6254300D01*
X-13358473Y6254300D01*
X-13256613Y6281593D01*
X-13165287Y6334320D01*
X-13090720Y6408887D01*
X-13037993Y6500213D01*
X-13010700Y6602073D01*
X-13010700Y6656727D01*
X-9036500Y6656727D01*
X-9036500Y6551273D01*
X-9013486Y6465385D01*
X-9009207Y6449414D01*
X-9009206Y6449411D01*
X-9004734Y6441665D01*
X-8956480Y6358087D01*
X-8881913Y6283520D01*
X-8790587Y6230793D01*
X-8688727Y6203500D01*
X-8688725Y6203500D01*
X-8583275Y6203500D01*
X-8583273Y6203500D01*
X-8481413Y6230793D01*
X-8390087Y6283520D01*
X-8315520Y6358087D01*
X-8262793Y6449413D01*
X-8235500Y6551273D01*
X-8235500Y6656727D01*
X-8262793Y6758587D01*
X-8315520Y6849913D01*
X-8390087Y6924480D01*
X-8467037Y6968907D01*
X-8481411Y6977206D01*
X-8481412Y6977207D01*
X-8481413Y6977207D01*
X-8583273Y7004500D01*
X-8688727Y7004500D01*
X-8790587Y6977207D01*
X-8790590Y6977206D01*
X-8881915Y6924479D01*
X-8956479Y6849915D01*
X-9009206Y6758590D01*
X-9009207Y6758587D01*
X-9036500Y6656727D01*
X-13010700Y6656727D01*
X-13010700Y6707527D01*
X-13037993Y6809387D01*
X-13090720Y6900713D01*
X-13165287Y6975280D01*
X-13256613Y7028007D01*
X-13358473Y7055300D01*
X-13463927Y7055300D01*
X-13565787Y7028007D01*
X-13565790Y7028006D01*
X-13657115Y6975279D01*
X-13731679Y6900715D01*
X-13784406Y6809390D01*
X-13784407Y6809387D01*
X-13811700Y6707527D01*
X-13811700Y6659924D01*
X-13831385Y6592885D01*
X-13848019Y6572243D01*
X-14129339Y6290924D01*
X-14129338Y6290923D01*
X-14182364Y6237897D01*
X-14220500Y6145830D01*
X-14220500Y2660796D01*
X-14240185Y2593757D01*
X-14292989Y2548002D01*
X-14362147Y2538058D01*
X-14376592Y2541021D01*
X-14422931Y2553437D01*
X-14422932Y2553437D01*
X-14528386Y2553437D01*
X-14630246Y2526144D01*
X-14630249Y2526143D01*
X-14721574Y2473416D01*
X-14796138Y2398852D01*
X-14848865Y2307527D01*
X-14848866Y2307524D01*
X-14876159Y2205664D01*
X-16019376Y2205664D01*
X-15936817Y2762237D01*
X-15935777Y2768221D01*
X-15782086Y3540881D01*
X-15780764Y3546768D01*
X-15589333Y4311004D01*
X-15587713Y4316857D01*
X-15359017Y5070768D01*
X-15357113Y5076527D01*
X-15091714Y5818267D01*
X-15089541Y5823903D01*
X-14788043Y6551784D01*
X-14785600Y6557297D01*
X-14448744Y7269517D01*
X-14446025Y7274917D01*
X-14074646Y7969720D01*
X-14071673Y7974968D01*
X-13666625Y8650750D01*
X-13663422Y8655807D01*
X-13225706Y9310897D01*
X-13222217Y9315849D01*
X-13188229Y9361677D01*
X-11451158Y9361677D01*
X-11451158Y9210146D01*
X-11411939Y9063775D01*
X-11374056Y8998161D01*
X-11336173Y8932546D01*
X-11229023Y8825396D01*
X-11097793Y8749630D01*
X-10951424Y8710411D01*
X-10951422Y8710411D01*
X-10799894Y8710411D01*
X-10799892Y8710411D01*
X-10653523Y8749630D01*
X-10522293Y8825396D01*
X-10415143Y8932546D01*
X-10339377Y9063776D01*
X-10300158Y9210145D01*
X-10300158Y9361677D01*
X-10339377Y9508046D01*
X-10415143Y9639276D01*
X-10522293Y9746426D01*
X-10587908Y9784309D01*
X-10653522Y9822192D01*
X-10737876Y9844794D01*
X-10799892Y9861411D01*
X-10951424Y9861411D01*
X-11097795Y9822192D01*
X-11229023Y9746426D01*
X-11229026Y9746424D01*
X-11336171Y9639279D01*
X-11336173Y9639276D01*
X-11411939Y9508048D01*
X-11451158Y9361677D01*
X-13188229Y9361677D01*
X-13127420Y9443668D01*
X-13127418Y9443671D01*
X-12752906Y9948642D01*
X-12749185Y9953409D01*
X-12668185Y10052107D01*
X-9081486Y10052107D01*
X-9081486Y9946653D01*
X-9054193Y9844793D01*
X-9001466Y9753467D01*
X-8926899Y9678900D01*
X-8835573Y9626173D01*
X-8733713Y9598880D01*
X-8733711Y9598880D01*
X-8628261Y9598880D01*
X-8628259Y9598880D01*
X-8526399Y9626173D01*
X-8435073Y9678900D01*
X-8360506Y9753467D01*
X-8307779Y9844793D01*
X-8280486Y9946653D01*
X-8280486Y9996809D01*
X-3350500Y9996809D01*
X-3350500Y9878191D01*
X-3319799Y9763614D01*
X-3260489Y9660887D01*
X-3176613Y9577011D01*
X-3073886Y9517701D01*
X-2959309Y9487000D01*
X-2959306Y9487000D01*
X-2840694Y9487000D01*
X-2840691Y9487000D01*
X-2726114Y9517701D01*
X-2623387Y9577011D01*
X-2539511Y9660887D01*
X-2480201Y9763614D01*
X-2449500Y9878191D01*
X-2449500Y9996809D01*
X2429500Y9996809D01*
X2429500Y9878191D01*
X2460201Y9763614D01*
X2519511Y9660887D01*
X2603387Y9577011D01*
X2706114Y9517701D01*
X2820691Y9487000D01*
X2820694Y9487000D01*
X2939306Y9487000D01*
X2939309Y9487000D01*
X3053886Y9517701D01*
X3156613Y9577011D01*
X3240489Y9660887D01*
X3299799Y9763614D01*
X3330500Y9878191D01*
X3330500Y9996809D01*
X3299799Y10111386D01*
X3240489Y10214113D01*
X3156613Y10297989D01*
X3053886Y10357299D01*
X2939309Y10388000D01*
X2820691Y10388000D01*
X2706114Y10357299D01*
X2706112Y10357299D01*
X2706112Y10357298D01*
X2603387Y10297989D01*
X2603384Y10297987D01*
X2519513Y10214116D01*
X2519511Y10214113D01*
X2460201Y10111386D01*
X2429500Y9996809D01*
X-2449500Y9996809D01*
X-2480201Y10111386D01*
X-2539511Y10214113D01*
X-2623387Y10297989D01*
X-2726114Y10357299D01*
X-2840691Y10388000D01*
X-2959309Y10388000D01*
X-3073886Y10357299D01*
X-3073888Y10357299D01*
X-3073888Y10357298D01*
X-3176613Y10297989D01*
X-3176616Y10297987D01*
X-3260487Y10214116D01*
X-3260489Y10214113D01*
X-3319799Y10111386D01*
X-3350500Y9996809D01*
X-8280486Y9996809D01*
X-8280486Y10052107D01*
X-8307779Y10153967D01*
X-8360506Y10245293D01*
X-8435073Y10319860D01*
X-8526399Y10372587D01*
X-8628259Y10399880D01*
X-8733713Y10399880D01*
X-8835573Y10372587D01*
X-8835576Y10372586D01*
X-8926901Y10319859D01*
X-9001465Y10245295D01*
X-9054192Y10153970D01*
X-9054193Y10153967D01*
X-9081486Y10052107D01*
X-12668185Y10052107D01*
X-12249392Y10562407D01*
X-12245442Y10566987D01*
X-11716358Y11150742D01*
X-11712199Y11155110D01*
X-11155110Y11712199D01*
X-11150742Y11716358D01*
X-10674658Y12147855D01*
X-8241842Y12147855D01*
X-8241842Y11996324D01*
X-8202623Y11849953D01*
X-8164740Y11784339D01*
X-8126857Y11718724D01*
X-8019707Y11611574D01*
X-7888477Y11535808D01*
X-7742108Y11496589D01*
X-7742106Y11496589D01*
X-7590578Y11496589D01*
X-7590576Y11496589D01*
X-7444207Y11535808D01*
X-7312977Y11611574D01*
X-7205827Y11718724D01*
X-7130061Y11849954D01*
X-7090842Y11996323D01*
X-7090842Y12147855D01*
X7090842Y12147855D01*
X7090842Y11996324D01*
X7130061Y11849953D01*
X7167944Y11784339D01*
X7205827Y11718724D01*
X7312977Y11611574D01*
X7444207Y11535808D01*
X7590576Y11496589D01*
X7590578Y11496589D01*
X7742106Y11496589D01*
X7742108Y11496589D01*
X7888477Y11535808D01*
X8019707Y11611574D01*
X8126857Y11718724D01*
X8202623Y11849954D01*
X8241842Y11996323D01*
X8241842Y12147855D01*
X8202623Y12294224D01*
X8126857Y12425454D01*
X8019707Y12532604D01*
X7954092Y12570487D01*
X7888478Y12608370D01*
X7815292Y12627980D01*
X7742108Y12647589D01*
X7590576Y12647589D01*
X7444205Y12608370D01*
X7312977Y12532604D01*
X7312974Y12532602D01*
X7205829Y12425457D01*
X7205827Y12425454D01*
X7130061Y12294226D01*
X7090842Y12147855D01*
X-7090842Y12147855D01*
X-7130061Y12294224D01*
X-7205827Y12425454D01*
X-7312977Y12532604D01*
X-7378592Y12570487D01*
X-7444206Y12608370D01*
X-7517392Y12627980D01*
X-7590576Y12647589D01*
X-7742108Y12647589D01*
X-7888479Y12608370D01*
X-8019707Y12532604D01*
X-8019710Y12532602D01*
X-8126855Y12425457D01*
X-8126857Y12425454D01*
X-8202623Y12294226D01*
X-8241842Y12147855D01*
X-10674658Y12147855D01*
X-10566987Y12245442D01*
X-10562421Y12249381D01*
X-9953409Y12749185D01*
X-9948642Y12752906D01*
X-9315826Y13222235D01*
X-9310897Y13225706D01*
X-8655807Y13663422D01*
X-8650750Y13666625D01*
X-7974968Y14071673D01*
X-7969720Y14074646D01*
X-7274917Y14446025D01*
X-7269517Y14448744D01*
X-6557297Y14785600D01*
X-6551784Y14788043D01*
X-5823903Y15089541D01*
X-5818267Y15091714D01*
X-5076508Y15357120D01*
X-5070768Y15359017D01*
X-4316845Y15587717D01*
X-4311004Y15589333D01*
X-3546768Y15780764D01*
X-3540881Y15782086D01*
X-2768208Y15935780D01*
X-2762237Y15936817D01*
X-1982922Y16052417D01*
X-1976920Y16053157D01*
X-1192865Y16130380D01*
X-1186875Y16130822D01*
X-434794Y16167770D01*
X-399974Y16169480D01*
X-393890Y16169629D01*
X393890Y16169629D01*
X399974Y16169480D01*
G37*
%TD.AperFunction*%
%TA.AperFunction,Conductor*%
G36*
X7574312Y-4409744D02*
G01*
X7628190Y-4454229D01*
X7649465Y-4520781D01*
X7649500Y-4523732D01*
X7649500Y-6953113D01*
X7640061Y-7000565D01*
X7631500Y-7021233D01*
X7631499Y-7021238D01*
X7631499Y-7590442D01*
X7611814Y-7657481D01*
X7559010Y-7703236D01*
X7489852Y-7713180D01*
X7445499Y-7697829D01*
X7368189Y-7653194D01*
X7368188Y-7653193D01*
X7368187Y-7653193D01*
X7266327Y-7625900D01*
X7160873Y-7625900D01*
X7160871Y-7625900D01*
X7152817Y-7626961D01*
X7152570Y-7625085D01*
X7093137Y-7623667D01*
X7035277Y-7584501D01*
X7007776Y-7520271D01*
X7006900Y-7505557D01*
X7006900Y-4930314D01*
X7026585Y-4863275D01*
X7079389Y-4817520D01*
X7098799Y-4810541D01*
X7164987Y-4792807D01*
X7256313Y-4740080D01*
X7330880Y-4665513D01*
X7383607Y-4574187D01*
X7405725Y-4491637D01*
X7442090Y-4431978D01*
X7504937Y-4401449D01*
X7574312Y-4409744D01*
G37*
%TD.AperFunction*%
%TA.AperFunction,Conductor*%
G36*
X103752Y2681302D02*
G01*
X144280Y2624388D01*
X151100Y2583832D01*
X151100Y-121877D01*
X131415Y-188916D01*
X114781Y-209558D01*
X-26242Y-350581D01*
X-87565Y-384066D01*
X-113923Y-386900D01*
X-161527Y-386900D01*
X-263387Y-414193D01*
X-263390Y-414194D01*
X-354715Y-466921D01*
X-429279Y-541485D01*
X-482006Y-632810D01*
X-482007Y-632813D01*
X-509300Y-734673D01*
X-509300Y-840127D01*
X-482007Y-941987D01*
X-429280Y-1033313D01*
X-354713Y-1107880D01*
X-263387Y-1160607D01*
X-161527Y-1187900D01*
X-161525Y-1187900D01*
X-56075Y-1187900D01*
X-56073Y-1187900D01*
X-7392Y-1174856D01*
X62457Y-1176519D01*
X120319Y-1215682D01*
X147823Y-1279910D01*
X148700Y-1294631D01*
X148700Y-5926737D01*
X129015Y-5993776D01*
X76211Y-6039531D01*
X7053Y-6049475D01*
X-37298Y-6034125D01*
X-48609Y-6027595D01*
X-48611Y-6027594D01*
X-48613Y-6027593D01*
X-150473Y-6000300D01*
X-255927Y-6000300D01*
X-357787Y-6027593D01*
X-357790Y-6027594D01*
X-449115Y-6080321D01*
X-452219Y-6083426D01*
X-455487Y-6085209D01*
X-455563Y-6085269D01*
X-455573Y-6085256D01*
X-513542Y-6116911D01*
X-583234Y-6111927D01*
X-639167Y-6070055D01*
X-663584Y-6004591D01*
X-663900Y-5995745D01*
X-663900Y-4623773D01*
X-663901Y-4623770D01*
X-670797Y-4607121D01*
X-702036Y-4531703D01*
X-772503Y-4461236D01*
X-1493581Y-3740158D01*
X-1527066Y-3678835D01*
X-1529900Y-3652477D01*
X-1529900Y-3604875D01*
X-1529900Y-3604873D01*
X-1557193Y-3503013D01*
X-1609920Y-3411687D01*
X-1624926Y-3396681D01*
X-1658411Y-3335358D01*
X-1653427Y-3265666D01*
X-1624926Y-3221319D01*
X-1614525Y-3210918D01*
X-1599520Y-3195913D01*
X-1546793Y-3104587D01*
X-1519500Y-3002727D01*
X-1519500Y-2955121D01*
X-1499815Y-2888082D01*
X-1483185Y-2867444D01*
X-1085545Y-2469803D01*
X-1085542Y-2469802D01*
X-1068104Y-2452364D01*
X-1068103Y-2452364D01*
X-997636Y-2381897D01*
X-965207Y-2303607D01*
X-959499Y-2289827D01*
X-959499Y-2190172D01*
X-959499Y-2180183D01*
X-959500Y-2180169D01*
X-959500Y2430545D01*
X-939815Y2497584D01*
X-887011Y2543339D01*
X-817853Y2553283D01*
X-754297Y2524258D01*
X-747819Y2518226D01*
X-703113Y2473520D01*
X-611787Y2420793D01*
X-509927Y2393500D01*
X-509925Y2393500D01*
X-404475Y2393500D01*
X-404473Y2393500D01*
X-302613Y2420793D01*
X-211287Y2473520D01*
X-136720Y2548087D01*
X-83993Y2639413D01*
X-83993Y2639414D01*
X-80287Y2645832D01*
X-29720Y2694048D01*
X38887Y2707270D01*
X103752Y2681302D01*
G37*
%TD.AperFunction*%
%TA.AperFunction,Conductor*%
G36*
X3499222Y2900892D02*
G01*
X3503735Y2901106D01*
X3536501Y2887988D01*
X3553813Y2877993D01*
X3655673Y2850700D01*
X3655675Y2850700D01*
X3761125Y2850700D01*
X3761127Y2850700D01*
X3761128Y2850701D01*
X3769183Y2851761D01*
X3769430Y2849882D01*
X3828844Y2848474D01*
X3886710Y2809318D01*
X3914221Y2745092D01*
X3915100Y2730358D01*
X3915100Y-202229D01*
X3953236Y-294297D01*
X4067959Y-409020D01*
X4101444Y-470343D01*
X4096460Y-540035D01*
X4087667Y-558697D01*
X4070396Y-588613D01*
X4070393Y-588620D01*
X4043100Y-690480D01*
X4043100Y-795934D01*
X4060801Y-861993D01*
X4070393Y-897793D01*
X4070394Y-897796D01*
X4076013Y-907528D01*
X4123120Y-989120D01*
X4197687Y-1063687D01*
X4289013Y-1116414D01*
X4390873Y-1143707D01*
X4390875Y-1143707D01*
X4496325Y-1143707D01*
X4496327Y-1143707D01*
X4598187Y-1116414D01*
X4689513Y-1063687D01*
X4764080Y-989120D01*
X4816807Y-897794D01*
X4844100Y-795934D01*
X4844100Y-690480D01*
X4816807Y-588620D01*
X4764080Y-497294D01*
X4690019Y-423233D01*
X4656534Y-361910D01*
X4654781Y-345610D01*
X4653700Y-340175D01*
X4653700Y-340172D01*
X4615564Y-248103D01*
X4545097Y-177636D01*
X4452419Y-84958D01*
X4418934Y-23635D01*
X4416100Y2723D01*
X4416100Y516814D01*
X4435785Y583853D01*
X4488589Y629608D01*
X4557747Y639552D01*
X4602095Y624203D01*
X4645413Y599193D01*
X4747273Y571900D01*
X4747275Y571900D01*
X4852725Y571900D01*
X4852727Y571900D01*
X4954587Y599193D01*
X5045913Y651920D01*
X5045921Y651929D01*
X5050011Y655066D01*
X5115179Y680262D01*
X5183625Y666225D01*
X5233616Y617413D01*
X5249500Y556692D01*
X5249500Y-2910545D01*
X5229815Y-2977584D01*
X5177011Y-3023339D01*
X5107853Y-3033283D01*
X5044297Y-3004258D01*
X5037819Y-2998226D01*
X4970314Y-2930721D01*
X4970313Y-2930720D01*
X4888245Y-2883338D01*
X4878989Y-2877994D01*
X4878988Y-2877993D01*
X4878987Y-2877993D01*
X4777127Y-2850700D01*
X4671673Y-2850700D01*
X4569813Y-2877993D01*
X4569810Y-2877994D01*
X4478485Y-2930721D01*
X4403921Y-3005285D01*
X4351194Y-3096610D01*
X4351192Y-3096615D01*
X4347473Y-3110495D01*
X4311107Y-3170155D01*
X4248259Y-3200683D01*
X4178884Y-3192386D01*
X4125007Y-3147900D01*
X4120312Y-3140399D01*
X4104462Y-3112946D01*
X4070480Y-3054087D01*
X3995913Y-2979520D01*
X3929059Y-2940922D01*
X3904589Y-2926794D01*
X3904588Y-2926793D01*
X3904587Y-2926793D01*
X3802727Y-2899500D01*
X3697273Y-2899500D01*
X3595413Y-2926793D01*
X3595410Y-2926794D01*
X3504085Y-2979521D01*
X3429521Y-3054085D01*
X3376794Y-3145410D01*
X3376793Y-3145413D01*
X3349500Y-3247273D01*
X3349500Y-3294876D01*
X3329815Y-3361915D01*
X3313181Y-3382557D01*
X2990261Y-3705476D01*
X2990262Y-3705477D01*
X2937236Y-3758503D01*
X2899100Y-3850570D01*
X2899100Y-3963168D01*
X2879415Y-4030207D01*
X2826611Y-4075962D01*
X2757453Y-4085906D01*
X2743009Y-4082943D01*
X2694331Y-4069900D01*
X2694327Y-4069900D01*
X2588873Y-4069900D01*
X2487013Y-4097193D01*
X2487008Y-4097195D01*
X2463698Y-4110653D01*
X2395798Y-4127124D01*
X2329771Y-4104271D01*
X2286582Y-4049349D01*
X2277700Y-4003265D01*
X2277700Y-2977923D01*
X2297385Y-2910884D01*
X2314019Y-2890242D01*
X2452089Y-2752172D01*
X2622617Y-2581643D01*
X2683938Y-2548160D01*
X2753629Y-2553144D01*
X2772297Y-2561939D01*
X2791813Y-2573207D01*
X2893673Y-2600500D01*
X2893675Y-2600500D01*
X2999125Y-2600500D01*
X2999127Y-2600500D01*
X3100987Y-2573207D01*
X3192313Y-2520480D01*
X3266880Y-2445913D01*
X3319607Y-2354587D01*
X3346900Y-2252727D01*
X3346900Y-2147273D01*
X3319607Y-2045413D01*
X3266880Y-1954087D01*
X3192313Y-1879520D01*
X3114682Y-1834700D01*
X3100989Y-1826794D01*
X3100988Y-1826793D01*
X3100987Y-1826793D01*
X2999127Y-1799500D01*
X2999126Y-1799500D01*
X2991067Y-1798439D01*
X2991417Y-1795779D01*
X2937048Y-1779815D01*
X2891293Y-1727011D01*
X2880421Y-1666404D01*
X2881885Y-1646492D01*
X2892101Y-1621830D01*
X2892101Y-1522175D01*
X2892100Y-1522172D01*
X2892100Y-1484855D01*
X2911785Y-1417816D01*
X2928419Y-1397174D01*
X2942843Y-1382750D01*
X2962080Y-1363513D01*
X3014807Y-1272187D01*
X3042100Y-1170327D01*
X3042100Y-1064873D01*
X3014807Y-963013D01*
X2962080Y-871687D01*
X2887513Y-797120D01*
X2796187Y-744393D01*
X2694327Y-717100D01*
X2588873Y-717100D01*
X2588870Y-717100D01*
X2582284Y-717967D01*
X2565384Y-715331D01*
X2548453Y-717766D01*
X2531577Y-710059D01*
X2513249Y-707201D01*
X2500456Y-695846D01*
X2484897Y-688741D01*
X2474867Y-673134D01*
X2460993Y-660820D01*
X2456178Y-644053D01*
X2447123Y-629963D01*
X2442100Y-595028D01*
X2442100Y-471771D01*
X2461785Y-404732D01*
X2514589Y-358977D01*
X2582292Y-348833D01*
X2588871Y-349699D01*
X2588873Y-349700D01*
X2588875Y-349700D01*
X2694325Y-349700D01*
X2694327Y-349700D01*
X2796187Y-322407D01*
X2887513Y-269680D01*
X2962080Y-195113D01*
X3014807Y-103787D01*
X3042100Y-1927D01*
X3042100Y45677D01*
X3061785Y112716D01*
X3078419Y133358D01*
X3190974Y245913D01*
X3312364Y367303D01*
X3350500Y459372D01*
X3350500Y559027D01*
X3350500Y2780602D01*
X3352210Y2786429D01*
X3351062Y2792390D01*
X3361940Y2819563D01*
X3370185Y2847641D01*
X3374772Y2851617D01*
X3377030Y2857255D01*
X3400877Y2874237D01*
X3422989Y2893396D01*
X3428997Y2894260D01*
X3433945Y2897783D01*
X3463180Y2899176D01*
X3492147Y2903340D01*
X3499222Y2900892D01*
G37*
%TD.AperFunction*%
%TA.AperFunction,Conductor*%
G36*
X4621303Y6038658D02*
G01*
X4627781Y6032626D01*
X4681687Y5978720D01*
X4773013Y5925993D01*
X4874873Y5898700D01*
X4922477Y5898700D01*
X4989516Y5879015D01*
X5010158Y5862381D01*
X6995837Y3876702D01*
X7029322Y3815379D01*
X7024338Y3745687D01*
X6982466Y3689754D01*
X6964354Y3679440D01*
X6964452Y3679271D01*
X6866085Y3622479D01*
X6791521Y3547915D01*
X6738794Y3456590D01*
X6738793Y3456587D01*
X6711500Y3354727D01*
X6711500Y3249273D01*
X6738793Y3147413D01*
X6791015Y3056961D01*
X6791521Y3056086D01*
X6825181Y3022426D01*
X6858666Y2961103D01*
X6861500Y2934745D01*
X6861500Y-1624629D01*
X6899636Y-1716697D01*
X7341181Y-2158242D01*
X7374666Y-2219565D01*
X7377500Y-2245923D01*
X7377500Y-2836713D01*
X7357815Y-2903752D01*
X7305011Y-2949507D01*
X7235853Y-2959451D01*
X7191501Y-2944101D01*
X7164987Y-2928793D01*
X7063127Y-2901500D01*
X6957673Y-2901500D01*
X6855813Y-2928793D01*
X6855810Y-2928794D01*
X6764485Y-2981521D01*
X6689921Y-3056085D01*
X6637194Y-3147410D01*
X6637193Y-3147413D01*
X6609475Y-3250860D01*
X6573110Y-3310521D01*
X6510263Y-3341050D01*
X6440888Y-3332755D01*
X6387010Y-3288270D01*
X6369925Y-3250860D01*
X6367202Y-3240697D01*
X6342207Y-3147413D01*
X6289480Y-3056087D01*
X6214913Y-2981520D01*
X6127351Y-2930966D01*
X6123589Y-2928794D01*
X6123588Y-2928793D01*
X6123587Y-2928793D01*
X6021727Y-2901500D01*
X5916273Y-2901500D01*
X5906592Y-2904093D01*
X5881598Y-2903498D01*
X5856853Y-2907057D01*
X5847272Y-2902681D01*
X5836743Y-2902431D01*
X5816039Y-2888418D01*
X5793297Y-2878032D01*
X5787602Y-2869170D01*
X5778881Y-2863268D01*
X5769040Y-2840287D01*
X5755523Y-2819254D01*
X5753243Y-2803396D01*
X5751377Y-2799039D01*
X5750500Y-2784319D01*
X5750500Y-2722571D01*
X5770185Y-2655532D01*
X5822989Y-2609777D01*
X5890692Y-2599633D01*
X5897271Y-2600499D01*
X5897273Y-2600500D01*
X5897275Y-2600500D01*
X6002725Y-2600500D01*
X6002727Y-2600500D01*
X6104587Y-2573207D01*
X6195913Y-2520480D01*
X6270480Y-2445913D01*
X6323207Y-2354587D01*
X6350500Y-2252727D01*
X6350500Y-2147273D01*
X6323207Y-2045413D01*
X6270480Y-1954087D01*
X6195913Y-1879520D01*
X6118282Y-1834700D01*
X6104589Y-1826794D01*
X6104588Y-1826793D01*
X6104587Y-1826793D01*
X6002727Y-1799500D01*
X5897273Y-1799500D01*
X5897270Y-1799500D01*
X5890684Y-1800367D01*
X5821649Y-1789601D01*
X5769393Y-1743220D01*
X5750500Y-1677428D01*
X5750500Y2652477D01*
X5759144Y2681918D01*
X5765668Y2711904D01*
X5769422Y2716920D01*
X5770185Y2719516D01*
X5786813Y2740153D01*
X5941190Y2894530D01*
X5996771Y2926620D01*
X6098187Y2953793D01*
X6189513Y3006520D01*
X6264080Y3081087D01*
X6316807Y3172413D01*
X6344100Y3274273D01*
X6344100Y3379727D01*
X6316807Y3481587D01*
X6264080Y3572913D01*
X6189513Y3647480D01*
X6098187Y3700207D01*
X5996327Y3727500D01*
X5890873Y3727500D01*
X5789013Y3700207D01*
X5789010Y3700206D01*
X5697685Y3647479D01*
X5623121Y3572915D01*
X5570394Y3481590D01*
X5570393Y3481587D01*
X5543100Y3379727D01*
X5543100Y3274268D01*
X5543182Y3273644D01*
X5543100Y3273119D01*
X5543100Y3268529D01*
X5543926Y3266314D01*
X5537251Y3235631D01*
X5532412Y3204609D01*
X5529649Y3200680D01*
X5529075Y3198041D01*
X5507923Y3169786D01*
X5358103Y3019964D01*
X5358102Y3019964D01*
X5358101Y3019963D01*
X5287636Y2949498D01*
X5249500Y2857430D01*
X5249500Y2646581D01*
X5229815Y2579542D01*
X5177011Y2533787D01*
X5107853Y2523843D01*
X5063500Y2539194D01*
X5004589Y2573206D01*
X5004588Y2573207D01*
X5004587Y2573207D01*
X4902727Y2600500D01*
X4797273Y2600500D01*
X4695413Y2573207D01*
X4695410Y2573206D01*
X4602100Y2519333D01*
X4534200Y2502860D01*
X4468173Y2525713D01*
X4424982Y2580634D01*
X4416100Y2626720D01*
X4416100Y4056061D01*
X4425539Y4103514D01*
X4435924Y4128586D01*
X4450500Y4163775D01*
X4450500Y4636225D01*
X4431831Y4681297D01*
X4425539Y4696488D01*
X4416100Y4743940D01*
X4416100Y5944945D01*
X4435785Y6011984D01*
X4488589Y6057739D01*
X4557747Y6067683D01*
X4621303Y6038658D01*
G37*
%TD.AperFunction*%
%TA.AperFunction,Conductor*%
G36*
X-6718158Y3455129D02*
G01*
X-6717952Y3455484D01*
X-6715125Y3453852D01*
X-6712811Y3452877D01*
X-6710920Y3451426D01*
X-6710914Y3451420D01*
X-6619588Y3398693D01*
X-6517728Y3371400D01*
X-6517726Y3371400D01*
X-6412276Y3371400D01*
X-6412274Y3371400D01*
X-6310414Y3398693D01*
X-6278498Y3417120D01*
X-6210601Y3433592D01*
X-6144574Y3410740D01*
X-6101383Y3355819D01*
X-6092500Y3309732D01*
X-6092500Y-1513309D01*
X-6112185Y-1580348D01*
X-6119922Y-1591083D01*
X-6131945Y-1606011D01*
X-6138713Y-1609920D01*
X-6213280Y-1684487D01*
X-6259225Y-1764065D01*
X-6265239Y-1771534D01*
X-6286376Y-1786219D01*
X-6304998Y-1803976D01*
X-6314593Y-1805825D01*
X-6322618Y-1811401D01*
X-6348336Y-1812328D01*
X-6373605Y-1817198D01*
X-6382678Y-1813565D01*
X-6392443Y-1813918D01*
X-6414578Y-1800795D01*
X-6438470Y-1791230D01*
X-6449498Y-1781441D01*
X-6875981Y-1354958D01*
X-6909466Y-1293635D01*
X-6912300Y-1267277D01*
X-6912300Y3354503D01*
X-6892615Y3421542D01*
X-6839811Y3467297D01*
X-6770653Y3477241D01*
X-6718158Y3455129D01*
G37*
%TD.AperFunction*%
%TD*%
M02*
