%TF.GenerationSoftware,KiCad,Pcbnew,10.0.1*%
%TF.CreationDate,2026-05-06T10:39:13-04:00*%
%TF.ProjectId,Smart_Watch,536d6172-745f-4576-9174-63682e6b6963,rev?*%
%TF.SameCoordinates,Original*%
%TF.FileFunction,Legend,Bot*%
%TF.FilePolarity,Positive*%
%FSLAX46Y46*%
G04 Gerber Fmt 4.6, Leading zero omitted, Abs format (unit mm)*
G04 Created by KiCad (PCBNEW 10.0.1) date 2026-05-06 10:39:13*
%MOMM*%
%LPD*%
G01*
G04 APERTURE LIST*
G04 Aperture macros list*
%AMRoundRect*
0 Rectangle with rounded corners*
0 $1 Rounding radius*
0 $2 $3 $4 $5 $6 $7 $8 $9 X,Y pos of 4 corners*
0 Add a 4 corners polygon primitive as box body*
4,1,4,$2,$3,$4,$5,$6,$7,$8,$9,$2,$3,0*
0 Add four circle primitives for the rounded corners*
1,1,$1+$1,$2,$3*
1,1,$1+$1,$4,$5*
1,1,$1+$1,$6,$7*
1,1,$1+$1,$8,$9*
0 Add four rect primitives between the rounded corners*
20,1,$1+$1,$2,$3,$4,$5,0*
20,1,$1+$1,$4,$5,$6,$7,0*
20,1,$1+$1,$6,$7,$8,$9,0*
20,1,$1+$1,$8,$9,$2,$3,0*%
G04 Aperture macros list end*
%ADD10C,0.062500*%
%ADD11C,0.150000*%
%ADD12C,0.120000*%
%ADD13C,0.127000*%
%ADD14C,0.200000*%
%ADD15C,0.000000*%
%ADD16C,0.900000*%
%ADD17C,0.500000*%
%ADD18C,0.650000*%
%ADD19R,1.000000X1.000000*%
%ADD20RoundRect,0.102000X0.375000X0.175000X-0.375000X0.175000X-0.375000X-0.175000X0.375000X-0.175000X0*%
%ADD21RoundRect,0.250000X0.262500X0.450000X-0.262500X0.450000X-0.262500X-0.450000X0.262500X-0.450000X0*%
%ADD22RoundRect,0.219000X0.294000X-0.219000X0.294000X0.219000X-0.294000X0.219000X-0.294000X-0.219000X0*%
%ADD23RoundRect,0.244000X-0.244000X-0.269000X0.244000X-0.269000X0.244000X0.269000X-0.244000X0.269000X0*%
%ADD24RoundRect,0.150000X0.350000X0.350000X-0.350000X0.350000X-0.350000X-0.350000X0.350000X-0.350000X0*%
%ADD25RoundRect,0.244000X0.244000X0.269000X-0.244000X0.269000X-0.244000X-0.269000X0.244000X-0.269000X0*%
%ADD26RoundRect,0.244000X-0.269000X0.244000X-0.269000X-0.244000X0.269000X-0.244000X0.269000X0.244000X0*%
%ADD27RoundRect,0.244000X0.269000X-0.244000X0.269000X0.244000X-0.269000X0.244000X-0.269000X-0.244000X0*%
G04 APERTURE END LIST*
D10*
X-2686954Y6418941D02*
X-2972668Y6418941D01*
X-2829811Y5918941D02*
X-2829811Y6418941D01*
X-3139334Y5918941D02*
X-3139334Y6418941D01*
X-3139334Y6418941D02*
X-3329810Y6418941D01*
X-3329810Y6418941D02*
X-3377429Y6395131D01*
X-3377429Y6395131D02*
X-3401239Y6371322D01*
X-3401239Y6371322D02*
X-3425048Y6323703D01*
X-3425048Y6323703D02*
X-3425048Y6252274D01*
X-3425048Y6252274D02*
X-3401239Y6204655D01*
X-3401239Y6204655D02*
X-3377429Y6180846D01*
X-3377429Y6180846D02*
X-3329810Y6157036D01*
X-3329810Y6157036D02*
X-3139334Y6157036D01*
X-3901239Y5918941D02*
X-3615525Y5918941D01*
X-3758382Y5918941D02*
X-3758382Y6418941D01*
X-3758382Y6418941D02*
X-3710763Y6347512D01*
X-3710763Y6347512D02*
X-3663144Y6299893D01*
X-3663144Y6299893D02*
X-3615525Y6276084D01*
X-4353619Y6418941D02*
X-4115524Y6418941D01*
X-4115524Y6418941D02*
X-4091715Y6180846D01*
X-4091715Y6180846D02*
X-4115524Y6204655D01*
X-4115524Y6204655D02*
X-4163143Y6228465D01*
X-4163143Y6228465D02*
X-4282191Y6228465D01*
X-4282191Y6228465D02*
X-4329810Y6204655D01*
X-4329810Y6204655D02*
X-4353619Y6180846D01*
X-4353619Y6180846D02*
X-4377429Y6133227D01*
X-4377429Y6133227D02*
X-4377429Y6014179D01*
X-4377429Y6014179D02*
X-4353619Y5966560D01*
X-4353619Y5966560D02*
X-4329810Y5942750D01*
X-4329810Y5942750D02*
X-4282191Y5918941D01*
X-4282191Y5918941D02*
X-4163143Y5918941D01*
X-4163143Y5918941D02*
X-4115524Y5942750D01*
X-4115524Y5942750D02*
X-4091715Y5966560D01*
X-2230478Y14554941D02*
X-1944764Y14554941D01*
X-2087621Y14554941D02*
X-2087621Y15054941D01*
X-2087621Y15054941D02*
X-2040002Y14983512D01*
X-2040002Y14983512D02*
X-1992383Y14935893D01*
X-1992383Y14935893D02*
X-1944764Y14912084D01*
X-2373335Y15054941D02*
X-2540001Y14554941D01*
X-2540001Y14554941D02*
X-2706668Y15054941D01*
X-2944763Y14840655D02*
X-2897144Y14864465D01*
X-2897144Y14864465D02*
X-2873334Y14888274D01*
X-2873334Y14888274D02*
X-2849525Y14935893D01*
X-2849525Y14935893D02*
X-2849525Y14959703D01*
X-2849525Y14959703D02*
X-2873334Y15007322D01*
X-2873334Y15007322D02*
X-2897144Y15031131D01*
X-2897144Y15031131D02*
X-2944763Y15054941D01*
X-2944763Y15054941D02*
X-3040001Y15054941D01*
X-3040001Y15054941D02*
X-3087620Y15031131D01*
X-3087620Y15031131D02*
X-3111429Y15007322D01*
X-3111429Y15007322D02*
X-3135239Y14959703D01*
X-3135239Y14959703D02*
X-3135239Y14935893D01*
X-3135239Y14935893D02*
X-3111429Y14888274D01*
X-3111429Y14888274D02*
X-3087620Y14864465D01*
X-3087620Y14864465D02*
X-3040001Y14840655D01*
X-3040001Y14840655D02*
X-2944763Y14840655D01*
X-2944763Y14840655D02*
X-2897144Y14816846D01*
X-2897144Y14816846D02*
X-2873334Y14793036D01*
X-2873334Y14793036D02*
X-2849525Y14745417D01*
X-2849525Y14745417D02*
X-2849525Y14650179D01*
X-2849525Y14650179D02*
X-2873334Y14602560D01*
X-2873334Y14602560D02*
X-2897144Y14578750D01*
X-2897144Y14578750D02*
X-2944763Y14554941D01*
X-2944763Y14554941D02*
X-3040001Y14554941D01*
X-3040001Y14554941D02*
X-3087620Y14578750D01*
X-3087620Y14578750D02*
X-3111429Y14602560D01*
X-3111429Y14602560D02*
X-3135239Y14650179D01*
X-3135239Y14650179D02*
X-3135239Y14745417D01*
X-3135239Y14745417D02*
X-3111429Y14793036D01*
X-3111429Y14793036D02*
X-3087620Y14816846D01*
X-3087620Y14816846D02*
X-3040001Y14840655D01*
X3238094Y11244941D02*
X3071428Y10744941D01*
X3071428Y10744941D02*
X2904761Y11244941D01*
X2571428Y11006846D02*
X2500000Y10983036D01*
X2500000Y10983036D02*
X2476190Y10959227D01*
X2476190Y10959227D02*
X2452381Y10911608D01*
X2452381Y10911608D02*
X2452381Y10840179D01*
X2452381Y10840179D02*
X2476190Y10792560D01*
X2476190Y10792560D02*
X2500000Y10768750D01*
X2500000Y10768750D02*
X2547619Y10744941D01*
X2547619Y10744941D02*
X2738095Y10744941D01*
X2738095Y10744941D02*
X2738095Y11244941D01*
X2738095Y11244941D02*
X2571428Y11244941D01*
X2571428Y11244941D02*
X2523809Y11221131D01*
X2523809Y11221131D02*
X2500000Y11197322D01*
X2500000Y11197322D02*
X2476190Y11149703D01*
X2476190Y11149703D02*
X2476190Y11102084D01*
X2476190Y11102084D02*
X2500000Y11054465D01*
X2500000Y11054465D02*
X2523809Y11030655D01*
X2523809Y11030655D02*
X2571428Y11006846D01*
X2571428Y11006846D02*
X2738095Y11006846D01*
X2238095Y11244941D02*
X2238095Y10840179D01*
X2238095Y10840179D02*
X2214285Y10792560D01*
X2214285Y10792560D02*
X2190476Y10768750D01*
X2190476Y10768750D02*
X2142857Y10744941D01*
X2142857Y10744941D02*
X2047619Y10744941D01*
X2047619Y10744941D02*
X2000000Y10768750D01*
X2000000Y10768750D02*
X1976190Y10792560D01*
X1976190Y10792560D02*
X1952381Y10840179D01*
X1952381Y10840179D02*
X1952381Y11244941D01*
X1738094Y10768750D02*
X1666666Y10744941D01*
X1666666Y10744941D02*
X1547618Y10744941D01*
X1547618Y10744941D02*
X1499999Y10768750D01*
X1499999Y10768750D02*
X1476190Y10792560D01*
X1476190Y10792560D02*
X1452380Y10840179D01*
X1452380Y10840179D02*
X1452380Y10887798D01*
X1452380Y10887798D02*
X1476190Y10935417D01*
X1476190Y10935417D02*
X1499999Y10959227D01*
X1499999Y10959227D02*
X1547618Y10983036D01*
X1547618Y10983036D02*
X1642856Y11006846D01*
X1642856Y11006846D02*
X1690475Y11030655D01*
X1690475Y11030655D02*
X1714285Y11054465D01*
X1714285Y11054465D02*
X1738094Y11102084D01*
X1738094Y11102084D02*
X1738094Y11149703D01*
X1738094Y11149703D02*
X1714285Y11197322D01*
X1714285Y11197322D02*
X1690475Y11221131D01*
X1690475Y11221131D02*
X1642856Y11244941D01*
X1642856Y11244941D02*
X1523809Y11244941D01*
X1523809Y11244941D02*
X1452380Y11221131D01*
X1357143Y10697322D02*
X976190Y10697322D01*
X857143Y10744941D02*
X857143Y11244941D01*
X619048Y10744941D02*
X619048Y11244941D01*
X619048Y11244941D02*
X333334Y10744941D01*
X333334Y10744941D02*
X333334Y11244941D01*
D11*
X566666Y-3489866D02*
X566666Y-4623200D01*
X566666Y-4623200D02*
X500000Y-4756533D01*
X500000Y-4756533D02*
X433333Y-4823200D01*
X433333Y-4823200D02*
X300000Y-4889866D01*
X300000Y-4889866D02*
X33333Y-4889866D01*
X33333Y-4889866D02*
X-100000Y-4823200D01*
X-100000Y-4823200D02*
X-166667Y-4756533D01*
X-166667Y-4756533D02*
X-233334Y-4623200D01*
X-233334Y-4623200D02*
X-233334Y-3489866D01*
X-966667Y-4889866D02*
X-1233334Y-4889866D01*
X-1233334Y-4889866D02*
X-1366667Y-4823200D01*
X-1366667Y-4823200D02*
X-1433334Y-4756533D01*
X-1433334Y-4756533D02*
X-1566667Y-4556533D01*
X-1566667Y-4556533D02*
X-1633334Y-4289866D01*
X-1633334Y-4289866D02*
X-1633334Y-3756533D01*
X-1633334Y-3756533D02*
X-1566667Y-3623200D01*
X-1566667Y-3623200D02*
X-1500001Y-3556533D01*
X-1500001Y-3556533D02*
X-1366667Y-3489866D01*
X-1366667Y-3489866D02*
X-1100001Y-3489866D01*
X-1100001Y-3489866D02*
X-966667Y-3556533D01*
X-966667Y-3556533D02*
X-900001Y-3623200D01*
X-900001Y-3623200D02*
X-833334Y-3756533D01*
X-833334Y-3756533D02*
X-833334Y-4089866D01*
X-833334Y-4089866D02*
X-900001Y-4223200D01*
X-900001Y-4223200D02*
X-966667Y-4289866D01*
X-966667Y-4289866D02*
X-1100001Y-4356533D01*
X-1100001Y-4356533D02*
X-1366667Y-4356533D01*
X-1366667Y-4356533D02*
X-1500001Y-4289866D01*
X-1500001Y-4289866D02*
X-1566667Y-4223200D01*
X-1566667Y-4223200D02*
X-1633334Y-4089866D01*
X-6166668Y-6657200D02*
X-6309525Y-6704819D01*
X-6309525Y-6704819D02*
X-6547620Y-6704819D01*
X-6547620Y-6704819D02*
X-6642858Y-6657200D01*
X-6642858Y-6657200D02*
X-6690477Y-6609580D01*
X-6690477Y-6609580D02*
X-6738096Y-6514342D01*
X-6738096Y-6514342D02*
X-6738096Y-6419104D01*
X-6738096Y-6419104D02*
X-6690477Y-6323866D01*
X-6690477Y-6323866D02*
X-6642858Y-6276247D01*
X-6642858Y-6276247D02*
X-6547620Y-6228628D01*
X-6547620Y-6228628D02*
X-6357144Y-6181009D01*
X-6357144Y-6181009D02*
X-6261906Y-6133390D01*
X-6261906Y-6133390D02*
X-6214287Y-6085771D01*
X-6214287Y-6085771D02*
X-6166668Y-5990533D01*
X-6166668Y-5990533D02*
X-6166668Y-5895295D01*
X-6166668Y-5895295D02*
X-6214287Y-5800057D01*
X-6214287Y-5800057D02*
X-6261906Y-5752438D01*
X-6261906Y-5752438D02*
X-6357144Y-5704819D01*
X-6357144Y-5704819D02*
X-6595239Y-5704819D01*
X-6595239Y-5704819D02*
X-6738096Y-5752438D01*
X-7071430Y-5704819D02*
X-7309525Y-6704819D01*
X-7309525Y-6704819D02*
X-7500001Y-5990533D01*
X-7500001Y-5990533D02*
X-7690477Y-6704819D01*
X-7690477Y-6704819D02*
X-7928572Y-5704819D01*
X-8261906Y-5800057D02*
X-8309525Y-5752438D01*
X-8309525Y-5752438D02*
X-8404763Y-5704819D01*
X-8404763Y-5704819D02*
X-8642858Y-5704819D01*
X-8642858Y-5704819D02*
X-8738096Y-5752438D01*
X-8738096Y-5752438D02*
X-8785715Y-5800057D01*
X-8785715Y-5800057D02*
X-8833334Y-5895295D01*
X-8833334Y-5895295D02*
X-8833334Y-5990533D01*
X-8833334Y-5990533D02*
X-8785715Y-6133390D01*
X-8785715Y-6133390D02*
X-8214287Y-6704819D01*
X-8214287Y-6704819D02*
X-8833334Y-6704819D01*
D10*
X-11076905Y6934941D02*
X-10838810Y6934941D01*
X-10838810Y6934941D02*
X-10838810Y7434941D01*
X-11529286Y6934941D02*
X-11362620Y7173036D01*
X-11243572Y6934941D02*
X-11243572Y7434941D01*
X-11243572Y7434941D02*
X-11434048Y7434941D01*
X-11434048Y7434941D02*
X-11481667Y7411131D01*
X-11481667Y7411131D02*
X-11505477Y7387322D01*
X-11505477Y7387322D02*
X-11529286Y7339703D01*
X-11529286Y7339703D02*
X-11529286Y7268274D01*
X-11529286Y7268274D02*
X-11505477Y7220655D01*
X-11505477Y7220655D02*
X-11481667Y7196846D01*
X-11481667Y7196846D02*
X-11434048Y7173036D01*
X-11434048Y7173036D02*
X-11243572Y7173036D01*
X-11719763Y7077798D02*
X-11957858Y7077798D01*
X-11672144Y6934941D02*
X-11838810Y7434941D01*
X-11838810Y7434941D02*
X-12005477Y6934941D01*
X-12053095Y6887322D02*
X-12434048Y6887322D01*
X-12553095Y7196846D02*
X-12719762Y7196846D01*
X-12791190Y6934941D02*
X-12553095Y6934941D01*
X-12553095Y6934941D02*
X-12553095Y7434941D01*
X-12553095Y7434941D02*
X-12791190Y7434941D01*
X-13005476Y6934941D02*
X-13005476Y7434941D01*
X-13005476Y7434941D02*
X-13291190Y6934941D01*
X-13291190Y6934941D02*
X-13291190Y7434941D01*
X-4520478Y14816846D02*
X-4591906Y14793036D01*
X-4591906Y14793036D02*
X-4615716Y14769227D01*
X-4615716Y14769227D02*
X-4639525Y14721608D01*
X-4639525Y14721608D02*
X-4639525Y14650179D01*
X-4639525Y14650179D02*
X-4615716Y14602560D01*
X-4615716Y14602560D02*
X-4591906Y14578750D01*
X-4591906Y14578750D02*
X-4544287Y14554941D01*
X-4544287Y14554941D02*
X-4353811Y14554941D01*
X-4353811Y14554941D02*
X-4353811Y15054941D01*
X-4353811Y15054941D02*
X-4520478Y15054941D01*
X-4520478Y15054941D02*
X-4568097Y15031131D01*
X-4568097Y15031131D02*
X-4591906Y15007322D01*
X-4591906Y15007322D02*
X-4615716Y14959703D01*
X-4615716Y14959703D02*
X-4615716Y14912084D01*
X-4615716Y14912084D02*
X-4591906Y14864465D01*
X-4591906Y14864465D02*
X-4568097Y14840655D01*
X-4568097Y14840655D02*
X-4520478Y14816846D01*
X-4520478Y14816846D02*
X-4353811Y14816846D01*
X-4830002Y14697798D02*
X-5068097Y14697798D01*
X-4782383Y14554941D02*
X-4949049Y15054941D01*
X-4949049Y15054941D02*
X-5115716Y14554941D01*
X-5210954Y15054941D02*
X-5496668Y15054941D01*
X-5353811Y14554941D02*
X-5353811Y15054941D01*
X-5591906Y15054941D02*
X-5877620Y15054941D01*
X-5734763Y14554941D02*
X-5734763Y15054941D01*
X-178573Y11244941D02*
X-345239Y10744941D01*
X-345239Y10744941D02*
X-511906Y11244941D01*
X-845239Y11006846D02*
X-916667Y10983036D01*
X-916667Y10983036D02*
X-940477Y10959227D01*
X-940477Y10959227D02*
X-964286Y10911608D01*
X-964286Y10911608D02*
X-964286Y10840179D01*
X-964286Y10840179D02*
X-940477Y10792560D01*
X-940477Y10792560D02*
X-916667Y10768750D01*
X-916667Y10768750D02*
X-869048Y10744941D01*
X-869048Y10744941D02*
X-678572Y10744941D01*
X-678572Y10744941D02*
X-678572Y11244941D01*
X-678572Y11244941D02*
X-845239Y11244941D01*
X-845239Y11244941D02*
X-892858Y11221131D01*
X-892858Y11221131D02*
X-916667Y11197322D01*
X-916667Y11197322D02*
X-940477Y11149703D01*
X-940477Y11149703D02*
X-940477Y11102084D01*
X-940477Y11102084D02*
X-916667Y11054465D01*
X-916667Y11054465D02*
X-892858Y11030655D01*
X-892858Y11030655D02*
X-845239Y11006846D01*
X-845239Y11006846D02*
X-678572Y11006846D01*
X-1178572Y11244941D02*
X-1178572Y10840179D01*
X-1178572Y10840179D02*
X-1202382Y10792560D01*
X-1202382Y10792560D02*
X-1226191Y10768750D01*
X-1226191Y10768750D02*
X-1273810Y10744941D01*
X-1273810Y10744941D02*
X-1369048Y10744941D01*
X-1369048Y10744941D02*
X-1416667Y10768750D01*
X-1416667Y10768750D02*
X-1440477Y10792560D01*
X-1440477Y10792560D02*
X-1464286Y10840179D01*
X-1464286Y10840179D02*
X-1464286Y11244941D01*
X-1678573Y10768750D02*
X-1750001Y10744941D01*
X-1750001Y10744941D02*
X-1869049Y10744941D01*
X-1869049Y10744941D02*
X-1916668Y10768750D01*
X-1916668Y10768750D02*
X-1940477Y10792560D01*
X-1940477Y10792560D02*
X-1964287Y10840179D01*
X-1964287Y10840179D02*
X-1964287Y10887798D01*
X-1964287Y10887798D02*
X-1940477Y10935417D01*
X-1940477Y10935417D02*
X-1916668Y10959227D01*
X-1916668Y10959227D02*
X-1869049Y10983036D01*
X-1869049Y10983036D02*
X-1773811Y11006846D01*
X-1773811Y11006846D02*
X-1726192Y11030655D01*
X-1726192Y11030655D02*
X-1702382Y11054465D01*
X-1702382Y11054465D02*
X-1678573Y11102084D01*
X-1678573Y11102084D02*
X-1678573Y11149703D01*
X-1678573Y11149703D02*
X-1702382Y11197322D01*
X-1702382Y11197322D02*
X-1726192Y11221131D01*
X-1726192Y11221131D02*
X-1773811Y11244941D01*
X-1773811Y11244941D02*
X-1892858Y11244941D01*
X-1892858Y11244941D02*
X-1964287Y11221131D01*
X-2059524Y10697322D02*
X-2440477Y10697322D01*
X-2654762Y11244941D02*
X-2750000Y11244941D01*
X-2750000Y11244941D02*
X-2797619Y11221131D01*
X-2797619Y11221131D02*
X-2845238Y11173512D01*
X-2845238Y11173512D02*
X-2869048Y11078274D01*
X-2869048Y11078274D02*
X-2869048Y10911608D01*
X-2869048Y10911608D02*
X-2845238Y10816370D01*
X-2845238Y10816370D02*
X-2797619Y10768750D01*
X-2797619Y10768750D02*
X-2750000Y10744941D01*
X-2750000Y10744941D02*
X-2654762Y10744941D01*
X-2654762Y10744941D02*
X-2607143Y10768750D01*
X-2607143Y10768750D02*
X-2559524Y10816370D01*
X-2559524Y10816370D02*
X-2535715Y10911608D01*
X-2535715Y10911608D02*
X-2535715Y11078274D01*
X-2535715Y11078274D02*
X-2559524Y11173512D01*
X-2559524Y11173512D02*
X-2607143Y11221131D01*
X-2607143Y11221131D02*
X-2654762Y11244941D01*
X-3083334Y11244941D02*
X-3083334Y10840179D01*
X-3083334Y10840179D02*
X-3107144Y10792560D01*
X-3107144Y10792560D02*
X-3130953Y10768750D01*
X-3130953Y10768750D02*
X-3178572Y10744941D01*
X-3178572Y10744941D02*
X-3273810Y10744941D01*
X-3273810Y10744941D02*
X-3321429Y10768750D01*
X-3321429Y10768750D02*
X-3345239Y10792560D01*
X-3345239Y10792560D02*
X-3369048Y10840179D01*
X-3369048Y10840179D02*
X-3369048Y11244941D01*
X-3535716Y11244941D02*
X-3821430Y11244941D01*
X-3678573Y10744941D02*
X-3678573Y11244941D01*
D11*
X13563189Y-3938800D02*
X13420332Y-3986419D01*
X13420332Y-3986419D02*
X13182237Y-3986419D01*
X13182237Y-3986419D02*
X13086999Y-3938800D01*
X13086999Y-3938800D02*
X13039380Y-3891180D01*
X13039380Y-3891180D02*
X12991761Y-3795942D01*
X12991761Y-3795942D02*
X12991761Y-3700704D01*
X12991761Y-3700704D02*
X13039380Y-3605466D01*
X13039380Y-3605466D02*
X13086999Y-3557847D01*
X13086999Y-3557847D02*
X13182237Y-3510228D01*
X13182237Y-3510228D02*
X13372713Y-3462609D01*
X13372713Y-3462609D02*
X13467951Y-3414990D01*
X13467951Y-3414990D02*
X13515570Y-3367371D01*
X13515570Y-3367371D02*
X13563189Y-3272133D01*
X13563189Y-3272133D02*
X13563189Y-3176895D01*
X13563189Y-3176895D02*
X13515570Y-3081657D01*
X13515570Y-3081657D02*
X13467951Y-3034038D01*
X13467951Y-3034038D02*
X13372713Y-2986419D01*
X13372713Y-2986419D02*
X13134618Y-2986419D01*
X13134618Y-2986419D02*
X12991761Y-3034038D01*
X12658427Y-2986419D02*
X12420332Y-3986419D01*
X12420332Y-3986419D02*
X12229856Y-3272133D01*
X12229856Y-3272133D02*
X12039380Y-3986419D01*
X12039380Y-3986419D02*
X11801285Y-2986419D01*
X11515570Y-2986419D02*
X10896523Y-2986419D01*
X10896523Y-2986419D02*
X11229856Y-3367371D01*
X11229856Y-3367371D02*
X11086999Y-3367371D01*
X11086999Y-3367371D02*
X10991761Y-3414990D01*
X10991761Y-3414990D02*
X10944142Y-3462609D01*
X10944142Y-3462609D02*
X10896523Y-3557847D01*
X10896523Y-3557847D02*
X10896523Y-3795942D01*
X10896523Y-3795942D02*
X10944142Y-3891180D01*
X10944142Y-3891180D02*
X10991761Y-3938800D01*
X10991761Y-3938800D02*
X11086999Y-3986419D01*
X11086999Y-3986419D02*
X11372713Y-3986419D01*
X11372713Y-3986419D02*
X11467951Y-3938800D01*
X11467951Y-3938800D02*
X11515570Y-3891180D01*
D10*
X5460952Y11221131D02*
X5508571Y11244941D01*
X5508571Y11244941D02*
X5580000Y11244941D01*
X5580000Y11244941D02*
X5651428Y11221131D01*
X5651428Y11221131D02*
X5699047Y11173512D01*
X5699047Y11173512D02*
X5722857Y11125893D01*
X5722857Y11125893D02*
X5746666Y11030655D01*
X5746666Y11030655D02*
X5746666Y10959227D01*
X5746666Y10959227D02*
X5722857Y10863989D01*
X5722857Y10863989D02*
X5699047Y10816370D01*
X5699047Y10816370D02*
X5651428Y10768750D01*
X5651428Y10768750D02*
X5580000Y10744941D01*
X5580000Y10744941D02*
X5532381Y10744941D01*
X5532381Y10744941D02*
X5460952Y10768750D01*
X5460952Y10768750D02*
X5437143Y10792560D01*
X5437143Y10792560D02*
X5437143Y10959227D01*
X5437143Y10959227D02*
X5532381Y10959227D01*
X5222857Y10744941D02*
X5222857Y11244941D01*
X5222857Y11244941D02*
X4937143Y10744941D01*
X4937143Y10744941D02*
X4937143Y11244941D01*
X4699047Y10744941D02*
X4699047Y11244941D01*
X4699047Y11244941D02*
X4579999Y11244941D01*
X4579999Y11244941D02*
X4508571Y11221131D01*
X4508571Y11221131D02*
X4460952Y11173512D01*
X4460952Y11173512D02*
X4437142Y11125893D01*
X4437142Y11125893D02*
X4413333Y11030655D01*
X4413333Y11030655D02*
X4413333Y10959227D01*
X4413333Y10959227D02*
X4437142Y10863989D01*
X4437142Y10863989D02*
X4460952Y10816370D01*
X4460952Y10816370D02*
X4508571Y10768750D01*
X4508571Y10768750D02*
X4579999Y10744941D01*
X4579999Y10744941D02*
X4699047Y10744941D01*
X857141Y15054941D02*
X690475Y14554941D01*
X690475Y14554941D02*
X523808Y15054941D01*
X380951Y14578750D02*
X309523Y14554941D01*
X309523Y14554941D02*
X190475Y14554941D01*
X190475Y14554941D02*
X142856Y14578750D01*
X142856Y14578750D02*
X119047Y14602560D01*
X119047Y14602560D02*
X95237Y14650179D01*
X95237Y14650179D02*
X95237Y14697798D01*
X95237Y14697798D02*
X119047Y14745417D01*
X119047Y14745417D02*
X142856Y14769227D01*
X142856Y14769227D02*
X190475Y14793036D01*
X190475Y14793036D02*
X285713Y14816846D01*
X285713Y14816846D02*
X333332Y14840655D01*
X333332Y14840655D02*
X357142Y14864465D01*
X357142Y14864465D02*
X380951Y14912084D01*
X380951Y14912084D02*
X380951Y14959703D01*
X380951Y14959703D02*
X357142Y15007322D01*
X357142Y15007322D02*
X333332Y15031131D01*
X333332Y15031131D02*
X285713Y15054941D01*
X285713Y15054941D02*
X166666Y15054941D01*
X166666Y15054941D02*
X95237Y15031131D01*
X-214286Y14793036D02*
X-214286Y14554941D01*
X-47620Y15054941D02*
X-214286Y14793036D01*
X-214286Y14793036D02*
X-380953Y15054941D01*
X-523810Y14578750D02*
X-595238Y14554941D01*
X-595238Y14554941D02*
X-714286Y14554941D01*
X-714286Y14554941D02*
X-761905Y14578750D01*
X-761905Y14578750D02*
X-785714Y14602560D01*
X-785714Y14602560D02*
X-809524Y14650179D01*
X-809524Y14650179D02*
X-809524Y14697798D01*
X-809524Y14697798D02*
X-785714Y14745417D01*
X-785714Y14745417D02*
X-761905Y14769227D01*
X-761905Y14769227D02*
X-714286Y14793036D01*
X-714286Y14793036D02*
X-619048Y14816846D01*
X-619048Y14816846D02*
X-571429Y14840655D01*
X-571429Y14840655D02*
X-547619Y14864465D01*
X-547619Y14864465D02*
X-523810Y14912084D01*
X-523810Y14912084D02*
X-523810Y14959703D01*
X-523810Y14959703D02*
X-547619Y15007322D01*
X-547619Y15007322D02*
X-571429Y15031131D01*
X-571429Y15031131D02*
X-619048Y15054941D01*
X-619048Y15054941D02*
X-738095Y15054941D01*
X-738095Y15054941D02*
X-809524Y15031131D01*
D11*
X7223333Y2863181D02*
X7223333Y2148896D01*
X7223333Y2148896D02*
X7270952Y2006039D01*
X7270952Y2006039D02*
X7366190Y1910800D01*
X7366190Y1910800D02*
X7509047Y1863181D01*
X7509047Y1863181D02*
X7604285Y1863181D01*
X6842380Y2863181D02*
X6223333Y2863181D01*
X6223333Y2863181D02*
X6556666Y2482229D01*
X6556666Y2482229D02*
X6413809Y2482229D01*
X6413809Y2482229D02*
X6318571Y2434610D01*
X6318571Y2434610D02*
X6270952Y2386991D01*
X6270952Y2386991D02*
X6223333Y2291753D01*
X6223333Y2291753D02*
X6223333Y2053658D01*
X6223333Y2053658D02*
X6270952Y1958420D01*
X6270952Y1958420D02*
X6318571Y1910800D01*
X6318571Y1910800D02*
X6413809Y1863181D01*
X6413809Y1863181D02*
X6699523Y1863181D01*
X6699523Y1863181D02*
X6794761Y1910800D01*
X6794761Y1910800D02*
X6842380Y1958420D01*
D10*
X-12013572Y-4495059D02*
X-11775477Y-4495059D01*
X-11775477Y-4495059D02*
X-11775477Y-3995059D01*
X-12465953Y-4495059D02*
X-12299287Y-4256964D01*
X-12180239Y-4495059D02*
X-12180239Y-3995059D01*
X-12180239Y-3995059D02*
X-12370715Y-3995059D01*
X-12370715Y-3995059D02*
X-12418334Y-4018869D01*
X-12418334Y-4018869D02*
X-12442144Y-4042678D01*
X-12442144Y-4042678D02*
X-12465953Y-4090297D01*
X-12465953Y-4090297D02*
X-12465953Y-4161726D01*
X-12465953Y-4161726D02*
X-12442144Y-4209345D01*
X-12442144Y-4209345D02*
X-12418334Y-4233154D01*
X-12418334Y-4233154D02*
X-12370715Y-4256964D01*
X-12370715Y-4256964D02*
X-12180239Y-4256964D01*
X-12656430Y-4352202D02*
X-12894525Y-4352202D01*
X-12608811Y-4495059D02*
X-12775477Y-3995059D01*
X-12775477Y-3995059D02*
X-12942144Y-4495059D01*
X-12989762Y-4542678D02*
X-13370715Y-4542678D01*
X-13489762Y-4495059D02*
X-13489762Y-3995059D01*
X-13489762Y-3995059D02*
X-13680238Y-3995059D01*
X-13680238Y-3995059D02*
X-13727857Y-4018869D01*
X-13727857Y-4018869D02*
X-13751667Y-4042678D01*
X-13751667Y-4042678D02*
X-13775476Y-4090297D01*
X-13775476Y-4090297D02*
X-13775476Y-4161726D01*
X-13775476Y-4161726D02*
X-13751667Y-4209345D01*
X-13751667Y-4209345D02*
X-13727857Y-4233154D01*
X-13727857Y-4233154D02*
X-13680238Y-4256964D01*
X-13680238Y-4256964D02*
X-13489762Y-4256964D01*
X-13942143Y-3995059D02*
X-14061191Y-4495059D01*
X-14061191Y-4495059D02*
X-14156429Y-4137916D01*
X-14156429Y-4137916D02*
X-14251667Y-4495059D01*
X-14251667Y-4495059D02*
X-14370714Y-3995059D01*
X-14561191Y-4495059D02*
X-14561191Y-3995059D01*
X-14561191Y-3995059D02*
X-14727858Y-4352202D01*
X-14727858Y-4352202D02*
X-14894524Y-3995059D01*
X-14894524Y-3995059D02*
X-14894524Y-4495059D01*
X3159046Y15054941D02*
X2849522Y15054941D01*
X2849522Y15054941D02*
X3016189Y14864465D01*
X3016189Y14864465D02*
X2944760Y14864465D01*
X2944760Y14864465D02*
X2897141Y14840655D01*
X2897141Y14840655D02*
X2873332Y14816846D01*
X2873332Y14816846D02*
X2849522Y14769227D01*
X2849522Y14769227D02*
X2849522Y14650179D01*
X2849522Y14650179D02*
X2873332Y14602560D01*
X2873332Y14602560D02*
X2897141Y14578750D01*
X2897141Y14578750D02*
X2944760Y14554941D01*
X2944760Y14554941D02*
X3087617Y14554941D01*
X3087617Y14554941D02*
X3135236Y14578750D01*
X3135236Y14578750D02*
X3159046Y14602560D01*
X2706665Y15054941D02*
X2539999Y14554941D01*
X2539999Y14554941D02*
X2373332Y15054941D01*
X2111428Y15054941D02*
X2063809Y15054941D01*
X2063809Y15054941D02*
X2016190Y15031131D01*
X2016190Y15031131D02*
X1992380Y15007322D01*
X1992380Y15007322D02*
X1968571Y14959703D01*
X1968571Y14959703D02*
X1944761Y14864465D01*
X1944761Y14864465D02*
X1944761Y14745417D01*
X1944761Y14745417D02*
X1968571Y14650179D01*
X1968571Y14650179D02*
X1992380Y14602560D01*
X1992380Y14602560D02*
X2016190Y14578750D01*
X2016190Y14578750D02*
X2063809Y14554941D01*
X2063809Y14554941D02*
X2111428Y14554941D01*
X2111428Y14554941D02*
X2159047Y14578750D01*
X2159047Y14578750D02*
X2182856Y14602560D01*
X2182856Y14602560D02*
X2206666Y14650179D01*
X2206666Y14650179D02*
X2230475Y14745417D01*
X2230475Y14745417D02*
X2230475Y14864465D01*
X2230475Y14864465D02*
X2206666Y14959703D01*
X2206666Y14959703D02*
X2182856Y15007322D01*
X2182856Y15007322D02*
X2159047Y15031131D01*
X2159047Y15031131D02*
X2111428Y15054941D01*
X-6389763Y2513750D02*
X-6461191Y2489941D01*
X-6461191Y2489941D02*
X-6580239Y2489941D01*
X-6580239Y2489941D02*
X-6627858Y2513750D01*
X-6627858Y2513750D02*
X-6651667Y2537560D01*
X-6651667Y2537560D02*
X-6675477Y2585179D01*
X-6675477Y2585179D02*
X-6675477Y2632798D01*
X-6675477Y2632798D02*
X-6651667Y2680417D01*
X-6651667Y2680417D02*
X-6627858Y2704227D01*
X-6627858Y2704227D02*
X-6580239Y2728036D01*
X-6580239Y2728036D02*
X-6485001Y2751846D01*
X-6485001Y2751846D02*
X-6437382Y2775655D01*
X-6437382Y2775655D02*
X-6413572Y2799465D01*
X-6413572Y2799465D02*
X-6389763Y2847084D01*
X-6389763Y2847084D02*
X-6389763Y2894703D01*
X-6389763Y2894703D02*
X-6413572Y2942322D01*
X-6413572Y2942322D02*
X-6437382Y2966131D01*
X-6437382Y2966131D02*
X-6485001Y2989941D01*
X-6485001Y2989941D02*
X-6604048Y2989941D01*
X-6604048Y2989941D02*
X-6675477Y2966131D01*
X-7175476Y2537560D02*
X-7151667Y2513750D01*
X-7151667Y2513750D02*
X-7080238Y2489941D01*
X-7080238Y2489941D02*
X-7032619Y2489941D01*
X-7032619Y2489941D02*
X-6961191Y2513750D01*
X-6961191Y2513750D02*
X-6913572Y2561370D01*
X-6913572Y2561370D02*
X-6889762Y2608989D01*
X-6889762Y2608989D02*
X-6865953Y2704227D01*
X-6865953Y2704227D02*
X-6865953Y2775655D01*
X-6865953Y2775655D02*
X-6889762Y2870893D01*
X-6889762Y2870893D02*
X-6913572Y2918512D01*
X-6913572Y2918512D02*
X-6961191Y2966131D01*
X-6961191Y2966131D02*
X-7032619Y2989941D01*
X-7032619Y2989941D02*
X-7080238Y2989941D01*
X-7080238Y2989941D02*
X-7151667Y2966131D01*
X-7151667Y2966131D02*
X-7175476Y2942322D01*
X-7627857Y2489941D02*
X-7389762Y2489941D01*
X-7389762Y2489941D02*
X-7389762Y2989941D01*
X-6377859Y-204250D02*
X-6449287Y-228059D01*
X-6449287Y-228059D02*
X-6568335Y-228059D01*
X-6568335Y-228059D02*
X-6615954Y-204250D01*
X-6615954Y-204250D02*
X-6639763Y-180440D01*
X-6639763Y-180440D02*
X-6663573Y-132821D01*
X-6663573Y-132821D02*
X-6663573Y-85202D01*
X-6663573Y-85202D02*
X-6639763Y-37583D01*
X-6639763Y-37583D02*
X-6615954Y-13773D01*
X-6615954Y-13773D02*
X-6568335Y10036D01*
X-6568335Y10036D02*
X-6473097Y33846D01*
X-6473097Y33846D02*
X-6425478Y57655D01*
X-6425478Y57655D02*
X-6401668Y81465D01*
X-6401668Y81465D02*
X-6377859Y129084D01*
X-6377859Y129084D02*
X-6377859Y176703D01*
X-6377859Y176703D02*
X-6401668Y224322D01*
X-6401668Y224322D02*
X-6425478Y248131D01*
X-6425478Y248131D02*
X-6473097Y271941D01*
X-6473097Y271941D02*
X-6592144Y271941D01*
X-6592144Y271941D02*
X-6663573Y248131D01*
X-6877858Y-228059D02*
X-6877858Y271941D01*
X-6877858Y271941D02*
X-6996906Y271941D01*
X-6996906Y271941D02*
X-7068334Y248131D01*
X-7068334Y248131D02*
X-7115953Y200512D01*
X-7115953Y200512D02*
X-7139763Y152893D01*
X-7139763Y152893D02*
X-7163572Y57655D01*
X-7163572Y57655D02*
X-7163572Y-13773D01*
X-7163572Y-13773D02*
X-7139763Y-109011D01*
X-7139763Y-109011D02*
X-7115953Y-156630D01*
X-7115953Y-156630D02*
X-7068334Y-204250D01*
X-7068334Y-204250D02*
X-6996906Y-228059D01*
X-6996906Y-228059D02*
X-6877858Y-228059D01*
X-7354049Y-85202D02*
X-7592144Y-85202D01*
X-7306430Y-228059D02*
X-7473096Y271941D01*
X-7473096Y271941D02*
X-7639763Y-228059D01*
X6845237Y-11525678D02*
X6892856Y-11501869D01*
X6892856Y-11501869D02*
X6940475Y-11454250D01*
X6940475Y-11454250D02*
X7011903Y-11382821D01*
X7011903Y-11382821D02*
X7059522Y-11359011D01*
X7059522Y-11359011D02*
X7107141Y-11359011D01*
X7083332Y-11478059D02*
X7130951Y-11454250D01*
X7130951Y-11454250D02*
X7178570Y-11406630D01*
X7178570Y-11406630D02*
X7202379Y-11311392D01*
X7202379Y-11311392D02*
X7202379Y-11144726D01*
X7202379Y-11144726D02*
X7178570Y-11049488D01*
X7178570Y-11049488D02*
X7130951Y-11001869D01*
X7130951Y-11001869D02*
X7083332Y-10978059D01*
X7083332Y-10978059D02*
X6988094Y-10978059D01*
X6988094Y-10978059D02*
X6940475Y-11001869D01*
X6940475Y-11001869D02*
X6892856Y-11049488D01*
X6892856Y-11049488D02*
X6869046Y-11144726D01*
X6869046Y-11144726D02*
X6869046Y-11311392D01*
X6869046Y-11311392D02*
X6892856Y-11406630D01*
X6892856Y-11406630D02*
X6940475Y-11454250D01*
X6940475Y-11454250D02*
X6988094Y-11478059D01*
X6988094Y-11478059D02*
X7083332Y-11478059D01*
X6678569Y-11454250D02*
X6607141Y-11478059D01*
X6607141Y-11478059D02*
X6488093Y-11478059D01*
X6488093Y-11478059D02*
X6440474Y-11454250D01*
X6440474Y-11454250D02*
X6416665Y-11430440D01*
X6416665Y-11430440D02*
X6392855Y-11382821D01*
X6392855Y-11382821D02*
X6392855Y-11335202D01*
X6392855Y-11335202D02*
X6416665Y-11287583D01*
X6416665Y-11287583D02*
X6440474Y-11263773D01*
X6440474Y-11263773D02*
X6488093Y-11239964D01*
X6488093Y-11239964D02*
X6583331Y-11216154D01*
X6583331Y-11216154D02*
X6630950Y-11192345D01*
X6630950Y-11192345D02*
X6654760Y-11168535D01*
X6654760Y-11168535D02*
X6678569Y-11120916D01*
X6678569Y-11120916D02*
X6678569Y-11073297D01*
X6678569Y-11073297D02*
X6654760Y-11025678D01*
X6654760Y-11025678D02*
X6630950Y-11001869D01*
X6630950Y-11001869D02*
X6583331Y-10978059D01*
X6583331Y-10978059D02*
X6464284Y-10978059D01*
X6464284Y-10978059D02*
X6392855Y-11001869D01*
X6178570Y-11478059D02*
X6178570Y-10978059D01*
X6178570Y-10978059D02*
X5988094Y-10978059D01*
X5988094Y-10978059D02*
X5940475Y-11001869D01*
X5940475Y-11001869D02*
X5916665Y-11025678D01*
X5916665Y-11025678D02*
X5892856Y-11073297D01*
X5892856Y-11073297D02*
X5892856Y-11144726D01*
X5892856Y-11144726D02*
X5916665Y-11192345D01*
X5916665Y-11192345D02*
X5940475Y-11216154D01*
X5940475Y-11216154D02*
X5988094Y-11239964D01*
X5988094Y-11239964D02*
X6178570Y-11239964D01*
X5678570Y-11478059D02*
X5678570Y-10978059D01*
X5559523Y-11525678D02*
X5178570Y-11525678D01*
X4773809Y-11430440D02*
X4797618Y-11454250D01*
X4797618Y-11454250D02*
X4869047Y-11478059D01*
X4869047Y-11478059D02*
X4916666Y-11478059D01*
X4916666Y-11478059D02*
X4988094Y-11454250D01*
X4988094Y-11454250D02*
X5035713Y-11406630D01*
X5035713Y-11406630D02*
X5059523Y-11359011D01*
X5059523Y-11359011D02*
X5083332Y-11263773D01*
X5083332Y-11263773D02*
X5083332Y-11192345D01*
X5083332Y-11192345D02*
X5059523Y-11097107D01*
X5059523Y-11097107D02*
X5035713Y-11049488D01*
X5035713Y-11049488D02*
X4988094Y-11001869D01*
X4988094Y-11001869D02*
X4916666Y-10978059D01*
X4916666Y-10978059D02*
X4869047Y-10978059D01*
X4869047Y-10978059D02*
X4797618Y-11001869D01*
X4797618Y-11001869D02*
X4773809Y-11025678D01*
X4583332Y-11454250D02*
X4511904Y-11478059D01*
X4511904Y-11478059D02*
X4392856Y-11478059D01*
X4392856Y-11478059D02*
X4345237Y-11454250D01*
X4345237Y-11454250D02*
X4321428Y-11430440D01*
X4321428Y-11430440D02*
X4297618Y-11382821D01*
X4297618Y-11382821D02*
X4297618Y-11335202D01*
X4297618Y-11335202D02*
X4321428Y-11287583D01*
X4321428Y-11287583D02*
X4345237Y-11263773D01*
X4345237Y-11263773D02*
X4392856Y-11239964D01*
X4392856Y-11239964D02*
X4488094Y-11216154D01*
X4488094Y-11216154D02*
X4535713Y-11192345D01*
X4535713Y-11192345D02*
X4559523Y-11168535D01*
X4559523Y-11168535D02*
X4583332Y-11120916D01*
X4583332Y-11120916D02*
X4583332Y-11073297D01*
X4583332Y-11073297D02*
X4559523Y-11025678D01*
X4559523Y-11025678D02*
X4535713Y-11001869D01*
X4535713Y-11001869D02*
X4488094Y-10978059D01*
X4488094Y-10978059D02*
X4369047Y-10978059D01*
X4369047Y-10978059D02*
X4297618Y-11001869D01*
X2809523Y-11525678D02*
X2857142Y-11501869D01*
X2857142Y-11501869D02*
X2904761Y-11454250D01*
X2904761Y-11454250D02*
X2976189Y-11382821D01*
X2976189Y-11382821D02*
X3023808Y-11359011D01*
X3023808Y-11359011D02*
X3071427Y-11359011D01*
X3047618Y-11478059D02*
X3095237Y-11454250D01*
X3095237Y-11454250D02*
X3142856Y-11406630D01*
X3142856Y-11406630D02*
X3166665Y-11311392D01*
X3166665Y-11311392D02*
X3166665Y-11144726D01*
X3166665Y-11144726D02*
X3142856Y-11049488D01*
X3142856Y-11049488D02*
X3095237Y-11001869D01*
X3095237Y-11001869D02*
X3047618Y-10978059D01*
X3047618Y-10978059D02*
X2952380Y-10978059D01*
X2952380Y-10978059D02*
X2904761Y-11001869D01*
X2904761Y-11001869D02*
X2857142Y-11049488D01*
X2857142Y-11049488D02*
X2833332Y-11144726D01*
X2833332Y-11144726D02*
X2833332Y-11311392D01*
X2833332Y-11311392D02*
X2857142Y-11406630D01*
X2857142Y-11406630D02*
X2904761Y-11454250D01*
X2904761Y-11454250D02*
X2952380Y-11478059D01*
X2952380Y-11478059D02*
X3047618Y-11478059D01*
X2642855Y-11454250D02*
X2571427Y-11478059D01*
X2571427Y-11478059D02*
X2452379Y-11478059D01*
X2452379Y-11478059D02*
X2404760Y-11454250D01*
X2404760Y-11454250D02*
X2380951Y-11430440D01*
X2380951Y-11430440D02*
X2357141Y-11382821D01*
X2357141Y-11382821D02*
X2357141Y-11335202D01*
X2357141Y-11335202D02*
X2380951Y-11287583D01*
X2380951Y-11287583D02*
X2404760Y-11263773D01*
X2404760Y-11263773D02*
X2452379Y-11239964D01*
X2452379Y-11239964D02*
X2547617Y-11216154D01*
X2547617Y-11216154D02*
X2595236Y-11192345D01*
X2595236Y-11192345D02*
X2619046Y-11168535D01*
X2619046Y-11168535D02*
X2642855Y-11120916D01*
X2642855Y-11120916D02*
X2642855Y-11073297D01*
X2642855Y-11073297D02*
X2619046Y-11025678D01*
X2619046Y-11025678D02*
X2595236Y-11001869D01*
X2595236Y-11001869D02*
X2547617Y-10978059D01*
X2547617Y-10978059D02*
X2428570Y-10978059D01*
X2428570Y-10978059D02*
X2357141Y-11001869D01*
X2142856Y-11478059D02*
X2142856Y-10978059D01*
X2142856Y-10978059D02*
X1952380Y-10978059D01*
X1952380Y-10978059D02*
X1904761Y-11001869D01*
X1904761Y-11001869D02*
X1880951Y-11025678D01*
X1880951Y-11025678D02*
X1857142Y-11073297D01*
X1857142Y-11073297D02*
X1857142Y-11144726D01*
X1857142Y-11144726D02*
X1880951Y-11192345D01*
X1880951Y-11192345D02*
X1904761Y-11216154D01*
X1904761Y-11216154D02*
X1952380Y-11239964D01*
X1952380Y-11239964D02*
X2142856Y-11239964D01*
X1642856Y-11478059D02*
X1642856Y-10978059D01*
X1523809Y-11525678D02*
X1142856Y-11525678D01*
X738095Y-11430440D02*
X761904Y-11454250D01*
X761904Y-11454250D02*
X833333Y-11478059D01*
X833333Y-11478059D02*
X880952Y-11478059D01*
X880952Y-11478059D02*
X952380Y-11454250D01*
X952380Y-11454250D02*
X999999Y-11406630D01*
X999999Y-11406630D02*
X1023809Y-11359011D01*
X1023809Y-11359011D02*
X1047618Y-11263773D01*
X1047618Y-11263773D02*
X1047618Y-11192345D01*
X1047618Y-11192345D02*
X1023809Y-11097107D01*
X1023809Y-11097107D02*
X999999Y-11049488D01*
X999999Y-11049488D02*
X952380Y-11001869D01*
X952380Y-11001869D02*
X880952Y-10978059D01*
X880952Y-10978059D02*
X833333Y-10978059D01*
X833333Y-10978059D02*
X761904Y-11001869D01*
X761904Y-11001869D02*
X738095Y-11025678D01*
X285714Y-11478059D02*
X523809Y-11478059D01*
X523809Y-11478059D02*
X523809Y-10978059D01*
X119047Y-11478059D02*
X119047Y-10978059D01*
X-166667Y-11478059D02*
X47618Y-11192345D01*
X-166667Y-10978059D02*
X119047Y-11263773D01*
X-11152382Y4394941D02*
X-11152382Y4894941D01*
X-11152382Y4894941D02*
X-11342858Y4894941D01*
X-11342858Y4894941D02*
X-11390477Y4871131D01*
X-11390477Y4871131D02*
X-11414287Y4847322D01*
X-11414287Y4847322D02*
X-11438096Y4799703D01*
X-11438096Y4799703D02*
X-11438096Y4728274D01*
X-11438096Y4728274D02*
X-11414287Y4680655D01*
X-11414287Y4680655D02*
X-11390477Y4656846D01*
X-11390477Y4656846D02*
X-11342858Y4633036D01*
X-11342858Y4633036D02*
X-11152382Y4633036D01*
X-11652382Y4394941D02*
X-11652382Y4894941D01*
X-11652382Y4894941D02*
X-11819049Y4537798D01*
X-11819049Y4537798D02*
X-11985715Y4894941D01*
X-11985715Y4894941D02*
X-11985715Y4394941D01*
X-12223811Y4394941D02*
X-12223811Y4894941D01*
X-12747620Y4442560D02*
X-12723811Y4418750D01*
X-12723811Y4418750D02*
X-12652382Y4394941D01*
X-12652382Y4394941D02*
X-12604763Y4394941D01*
X-12604763Y4394941D02*
X-12533335Y4418750D01*
X-12533335Y4418750D02*
X-12485716Y4466370D01*
X-12485716Y4466370D02*
X-12461906Y4513989D01*
X-12461906Y4513989D02*
X-12438097Y4609227D01*
X-12438097Y4609227D02*
X-12438097Y4680655D01*
X-12438097Y4680655D02*
X-12461906Y4775893D01*
X-12461906Y4775893D02*
X-12485716Y4823512D01*
X-12485716Y4823512D02*
X-12533335Y4871131D01*
X-12533335Y4871131D02*
X-12604763Y4894941D01*
X-12604763Y4894941D02*
X-12652382Y4894941D01*
X-12652382Y4894941D02*
X-12723811Y4871131D01*
X-12723811Y4871131D02*
X-12747620Y4847322D01*
X-12842858Y4347322D02*
X-13223811Y4347322D01*
X-13342858Y4394941D02*
X-13342858Y4894941D01*
X-13580953Y4394941D02*
X-13580953Y4894941D01*
X-13580953Y4894941D02*
X-13866667Y4394941D01*
X-13866667Y4394941D02*
X-13866667Y4894941D01*
X-14033335Y4894941D02*
X-14319049Y4894941D01*
X-14176192Y4394941D02*
X-14176192Y4894941D01*
X234046Y7434941D02*
X-51668Y7434941D01*
X91189Y6934941D02*
X91189Y7434941D01*
X-218334Y6934941D02*
X-218334Y7434941D01*
X-218334Y7434941D02*
X-408810Y7434941D01*
X-408810Y7434941D02*
X-456429Y7411131D01*
X-456429Y7411131D02*
X-480239Y7387322D01*
X-480239Y7387322D02*
X-504048Y7339703D01*
X-504048Y7339703D02*
X-504048Y7268274D01*
X-504048Y7268274D02*
X-480239Y7220655D01*
X-480239Y7220655D02*
X-456429Y7196846D01*
X-456429Y7196846D02*
X-408810Y7173036D01*
X-408810Y7173036D02*
X-218334Y7173036D01*
X-980239Y6934941D02*
X-694525Y6934941D01*
X-837382Y6934941D02*
X-837382Y7434941D01*
X-837382Y7434941D02*
X-789763Y7363512D01*
X-789763Y7363512D02*
X-742144Y7315893D01*
X-742144Y7315893D02*
X-694525Y7292084D01*
X-1408810Y7434941D02*
X-1313572Y7434941D01*
X-1313572Y7434941D02*
X-1265953Y7411131D01*
X-1265953Y7411131D02*
X-1242143Y7387322D01*
X-1242143Y7387322D02*
X-1194524Y7315893D01*
X-1194524Y7315893D02*
X-1170715Y7220655D01*
X-1170715Y7220655D02*
X-1170715Y7030179D01*
X-1170715Y7030179D02*
X-1194524Y6982560D01*
X-1194524Y6982560D02*
X-1218334Y6958750D01*
X-1218334Y6958750D02*
X-1265953Y6934941D01*
X-1265953Y6934941D02*
X-1361191Y6934941D01*
X-1361191Y6934941D02*
X-1408810Y6958750D01*
X-1408810Y6958750D02*
X-1432619Y6982560D01*
X-1432619Y6982560D02*
X-1456429Y7030179D01*
X-1456429Y7030179D02*
X-1456429Y7149227D01*
X-1456429Y7149227D02*
X-1432619Y7196846D01*
X-1432619Y7196846D02*
X-1408810Y7220655D01*
X-1408810Y7220655D02*
X-1361191Y7244465D01*
X-1361191Y7244465D02*
X-1265953Y7244465D01*
X-1265953Y7244465D02*
X-1218334Y7220655D01*
X-1218334Y7220655D02*
X-1194524Y7196846D01*
X-1194524Y7196846D02*
X-1170715Y7149227D01*
%TO.C,TP15*%
D12*
X-4256000Y5399000D02*
X-4256000Y3999000D01*
X-4256000Y3999000D02*
X-2856000Y3999000D01*
X-2856000Y5399000D02*
X-4256000Y5399000D01*
X-2856000Y3999000D02*
X-2856000Y5399000D01*
%TO.C,1V8*%
X-3240000Y14035000D02*
X-3240000Y12635000D01*
X-3240000Y12635000D02*
X-1840000Y12635000D01*
X-1840000Y14035000D02*
X-3240000Y14035000D01*
X-1840000Y12635000D02*
X-1840000Y14035000D01*
%TO.C,VBUS_IN*%
X570000Y10225000D02*
X570000Y8825000D01*
X570000Y8825000D02*
X1970000Y8825000D01*
X1970000Y10225000D02*
X570000Y10225000D01*
X1970000Y8825000D02*
X1970000Y10225000D01*
%TO.C,U9*%
D13*
X-1025000Y-2860000D02*
X-15000Y-2860000D01*
X-15000Y2840000D02*
X-1025000Y2840000D01*
D14*
X1730000Y2390000D02*
G75*
G02*
X1530000Y2390000I-100000J0D01*
G01*
X1530000Y2390000D02*
G75*
G02*
X1730000Y2390000I100000J0D01*
G01*
D15*
%TO.C,G\u002A\u002A\u002A*%
G36*
X7150811Y5654548D02*
G01*
X7140349Y5644086D01*
X7129888Y5654548D01*
X7140349Y5665009D01*
X7150811Y5654548D01*
G37*
G36*
X9054765Y5884696D02*
G01*
X9044303Y5874235D01*
X9033842Y5884696D01*
X9044303Y5895157D01*
X9054765Y5884696D01*
G37*
G36*
X9075687Y6031154D02*
G01*
X9065226Y6020693D01*
X9054765Y6031154D01*
X9065226Y6041615D01*
X9075687Y6031154D01*
G37*
G36*
X9075687Y5989309D02*
G01*
X9065226Y5978847D01*
X9054765Y5989309D01*
X9065226Y5999770D01*
X9075687Y5989309D01*
G37*
G36*
X9201223Y6156689D02*
G01*
X9190761Y6146228D01*
X9180300Y6156689D01*
X9190761Y6167151D01*
X9201223Y6156689D01*
G37*
G36*
X9243068Y6156689D02*
G01*
X9232606Y6146228D01*
X9222145Y6156689D01*
X9232606Y6167151D01*
X9243068Y6156689D01*
G37*
G36*
X9368603Y6219457D02*
G01*
X9358142Y6208996D01*
X9347681Y6219457D01*
X9358142Y6229918D01*
X9368603Y6219457D01*
G37*
G36*
X9473216Y6240380D02*
G01*
X9462755Y6229918D01*
X9452293Y6240380D01*
X9462755Y6250841D01*
X9473216Y6240380D01*
G37*
G36*
X9619674Y7223740D02*
G01*
X9609213Y7213279D01*
X9598751Y7223740D01*
X9609213Y7234202D01*
X9619674Y7223740D01*
G37*
G36*
X10958718Y5738238D02*
G01*
X10948257Y5727777D01*
X10937796Y5738238D01*
X10948257Y5748699D01*
X10958718Y5738238D01*
G37*
G36*
X11167944Y8290791D02*
G01*
X11157483Y8280330D01*
X11147022Y8290791D01*
X11157483Y8301253D01*
X11167944Y8290791D01*
G37*
G36*
X11167944Y8228024D02*
G01*
X11157483Y8217562D01*
X11147022Y8228024D01*
X11157483Y8238485D01*
X11167944Y8228024D01*
G37*
G36*
X11188867Y5654548D02*
G01*
X11178405Y5644086D01*
X11167944Y5654548D01*
X11178405Y5665009D01*
X11188867Y5654548D01*
G37*
G36*
X11314402Y5612702D02*
G01*
X11303941Y5602241D01*
X11293480Y5612702D01*
X11303941Y5623164D01*
X11314402Y5612702D01*
G37*
G36*
X11377170Y5591780D02*
G01*
X11366709Y5581319D01*
X11356247Y5591780D01*
X11366709Y5602241D01*
X11377170Y5591780D01*
G37*
G36*
X11502705Y5863773D02*
G01*
X11492244Y5853312D01*
X11481783Y5863773D01*
X11492244Y5874235D01*
X11502705Y5863773D01*
G37*
G36*
X11565473Y6386838D02*
G01*
X11555012Y6376376D01*
X11544550Y6386838D01*
X11555012Y6397299D01*
X11565473Y6386838D01*
G37*
G36*
X11753776Y8102488D02*
G01*
X11743315Y8092027D01*
X11732854Y8102488D01*
X11743315Y8112950D01*
X11753776Y8102488D01*
G37*
G36*
X11900234Y8081566D02*
G01*
X11889773Y8071104D01*
X11879311Y8081566D01*
X11889773Y8092027D01*
X11900234Y8081566D01*
G37*
G36*
X12569756Y7537579D02*
G01*
X12559295Y7527118D01*
X12548834Y7537579D01*
X12559295Y7548040D01*
X12569756Y7537579D01*
G37*
G36*
X12674369Y7474811D02*
G01*
X12663908Y7464350D01*
X12653447Y7474811D01*
X12663908Y7485272D01*
X12674369Y7474811D01*
G37*
G36*
X8859487Y5783570D02*
G01*
X8862760Y5777277D01*
X8845539Y5769622D01*
X8834463Y5771132D01*
X8831590Y5783570D01*
X8834657Y5786074D01*
X8859487Y5783570D01*
G37*
G36*
X9361629Y6181099D02*
G01*
X9364902Y6174806D01*
X9347681Y6167151D01*
X9336604Y6168660D01*
X9333732Y6181099D01*
X9336799Y6183603D01*
X9361629Y6181099D01*
G37*
G36*
X9771363Y5783478D02*
G01*
X9774912Y5776213D01*
X9745209Y5772925D01*
X9716428Y5775842D01*
X9719056Y5783478D01*
X9728527Y5786242D01*
X9771363Y5783478D01*
G37*
G36*
X11014512Y5720802D02*
G01*
X11017785Y5714509D01*
X11000564Y5706854D01*
X10989487Y5708364D01*
X10986615Y5720802D01*
X10989682Y5723306D01*
X11014512Y5720802D01*
G37*
G36*
X11077280Y5699880D02*
G01*
X11080553Y5693587D01*
X11063331Y5685931D01*
X11052255Y5687441D01*
X11049383Y5699880D01*
X11052449Y5702384D01*
X11077280Y5699880D01*
G37*
G36*
X11140047Y5678957D02*
G01*
X11143321Y5672664D01*
X11126099Y5665009D01*
X11115023Y5666519D01*
X11112151Y5678957D01*
X11115217Y5681461D01*
X11140047Y5678957D01*
G37*
G36*
X11265583Y5637112D02*
G01*
X11268856Y5630819D01*
X11251634Y5623164D01*
X11240558Y5624674D01*
X11237686Y5637112D01*
X11240753Y5639616D01*
X11265583Y5637112D01*
G37*
G36*
X11453886Y5574344D02*
G01*
X11457159Y5568051D01*
X11439938Y5560396D01*
X11428861Y5561906D01*
X11425989Y5574344D01*
X11429056Y5576848D01*
X11453886Y5574344D01*
G37*
G36*
X11495731Y6411247D02*
G01*
X11499004Y6404954D01*
X11481783Y6397299D01*
X11470706Y6398809D01*
X11467834Y6411247D01*
X11470901Y6413751D01*
X11495731Y6411247D01*
G37*
G36*
X11516654Y5553422D02*
G01*
X11519927Y5547129D01*
X11502705Y5539473D01*
X11491629Y5540983D01*
X11488757Y5553422D01*
X11491823Y5555926D01*
X11516654Y5553422D01*
G37*
G36*
X11921157Y5455783D02*
G01*
X11919647Y5444707D01*
X11907208Y5441835D01*
X11904704Y5444901D01*
X11907208Y5469732D01*
X11913501Y5473005D01*
X11921157Y5455783D01*
G37*
G36*
X12486066Y7589885D02*
G01*
X12484556Y7578809D01*
X12472118Y7575937D01*
X12469614Y7579003D01*
X12472118Y7603834D01*
X12478411Y7607107D01*
X12486066Y7589885D01*
G37*
G36*
X12625550Y7520143D02*
G01*
X12628823Y7513850D01*
X12611601Y7506195D01*
X12600525Y7507705D01*
X12597653Y7520143D01*
X12600720Y7522647D01*
X12625550Y7520143D01*
G37*
G36*
X12688318Y5406964D02*
G01*
X12691591Y5400671D01*
X12674369Y5393015D01*
X12663293Y5394525D01*
X12660421Y5406964D01*
X12663487Y5409468D01*
X12688318Y5406964D01*
G37*
G36*
X8083863Y5228868D02*
G01*
X8077404Y5219573D01*
X8059708Y5204712D01*
X8056783Y5204916D01*
X8052175Y5217027D01*
X8074636Y5238094D01*
X8086329Y5243185D01*
X8083863Y5228868D01*
G37*
G36*
X8328202Y5378307D02*
G01*
X8343397Y5349936D01*
X8342292Y5338202D01*
X8331375Y5333268D01*
X8314491Y5362718D01*
X8310825Y5379038D01*
X8322714Y5382406D01*
X8328202Y5378307D01*
G37*
G36*
X8427087Y5248810D02*
G01*
X8424271Y5241910D01*
X8397698Y5232609D01*
X8385053Y5235948D01*
X8378968Y5260386D01*
X8389064Y5273477D01*
X8413735Y5273758D01*
X8427087Y5248810D01*
G37*
G36*
X10791338Y6911137D02*
G01*
X10790929Y6900573D01*
X10781045Y6879443D01*
X10760848Y6897995D01*
X10758004Y6905539D01*
X10770074Y6930613D01*
X10781044Y6932686D01*
X10791338Y6911137D01*
G37*
G36*
X7969728Y5236577D02*
G01*
X7987713Y5223020D01*
X7980287Y5209953D01*
X7948776Y5206818D01*
X7907020Y5223340D01*
X7903961Y5225372D01*
X7898916Y5237560D01*
X7933173Y5241327D01*
X7969728Y5236577D01*
G37*
G36*
X8191310Y5219211D02*
G01*
X8194908Y5218176D01*
X8198005Y5211808D01*
X8165555Y5208791D01*
X8160601Y5208762D01*
X8127847Y5211568D01*
X8128543Y5218436D01*
X8145734Y5222274D01*
X8191310Y5219211D01*
G37*
G36*
X9572200Y5805043D02*
G01*
X9575797Y5804008D01*
X9578895Y5797640D01*
X9546445Y5794623D01*
X9541490Y5794594D01*
X9508737Y5797400D01*
X9509432Y5804268D01*
X9526624Y5808106D01*
X9572200Y5805043D01*
G37*
G36*
X9969729Y5763198D02*
G01*
X9973326Y5762163D01*
X9976424Y5755795D01*
X9943974Y5752778D01*
X9939019Y5752749D01*
X9906266Y5755554D01*
X9906961Y5762423D01*
X9924153Y5766261D01*
X9969729Y5763198D01*
G37*
G36*
X11954662Y5475743D02*
G01*
X11973463Y5455783D01*
X11976732Y5447679D01*
X11964237Y5434861D01*
X11958163Y5435665D01*
X11942079Y5455783D01*
X11942319Y5460518D01*
X11951306Y5476706D01*
X11954662Y5475743D01*
G37*
G36*
X12769730Y7421563D02*
G01*
X12789443Y7401582D01*
X12793340Y7394174D01*
X12791913Y7380660D01*
X12788234Y7381601D01*
X12768521Y7401582D01*
X12764624Y7408990D01*
X12766051Y7422505D01*
X12769730Y7421563D01*
G37*
G36*
X9517023Y6187023D02*
G01*
X9539889Y6169001D01*
X9545796Y6145178D01*
X9538803Y6136565D01*
X9503908Y6123790D01*
X9468488Y6135532D01*
X9452293Y6167151D01*
X9455849Y6199113D01*
X9474073Y6206256D01*
X9517023Y6187023D01*
G37*
G36*
X10817116Y5763862D02*
G01*
X10817617Y5763800D01*
X10834330Y5759534D01*
X10813647Y5756440D01*
X10759954Y5755182D01*
X10704918Y5756245D01*
X10680024Y5759289D01*
X10691581Y5763649D01*
X10748885Y5767279D01*
X10817116Y5763862D01*
G37*
G36*
X11865073Y8197263D02*
G01*
X11862543Y8150416D01*
X11850978Y8119487D01*
X11825985Y8117440D01*
X11780710Y8128642D01*
X11742216Y8137724D01*
X11701060Y8129894D01*
X11690397Y8099211D01*
X11715122Y8051437D01*
X11721579Y8043216D01*
X11741443Y8004435D01*
X11730607Y7974246D01*
X11720486Y7963586D01*
X11685980Y7947822D01*
X11636924Y7955766D01*
X11563922Y7988205D01*
X11539882Y7999528D01*
X11489140Y8016933D01*
X11459200Y8017772D01*
X11458839Y8017570D01*
X11432124Y8023601D01*
X11383748Y8050549D01*
X11323921Y8092754D01*
X11274652Y8131626D01*
X11229664Y8169771D01*
X11210745Y8189683D01*
X11220162Y8188806D01*
X11260181Y8164587D01*
X11296157Y8144910D01*
X11323535Y8149246D01*
X11359563Y8181888D01*
X11391724Y8207101D01*
X11439938Y8207101D01*
X11450399Y8196640D01*
X11460860Y8207101D01*
X11450399Y8217562D01*
X11439938Y8207101D01*
X11391724Y8207101D01*
X11392619Y8207803D01*
X11459945Y8236419D01*
X11560242Y8259625D01*
X11571781Y8261767D01*
X11642824Y8277765D01*
X11692950Y8293853D01*
X11711931Y8306847D01*
X11715474Y8314942D01*
X11740947Y8315518D01*
X11755573Y8312680D01*
X11764946Y8326098D01*
X11754514Y8355203D01*
X11729121Y8389469D01*
X11693614Y8418366D01*
X11687301Y8422122D01*
X11665530Y8438269D01*
X11677028Y8438581D01*
X11699659Y8432798D01*
X11745026Y8426788D01*
X11763632Y8416808D01*
X11775364Y8379712D01*
X11779927Y8348680D01*
X11806999Y8292367D01*
X11847928Y8257331D01*
X11859015Y8239814D01*
X11863672Y8207101D01*
X11865073Y8197263D01*
G37*
G36*
X10705436Y9621391D02*
G01*
X10702044Y9591965D01*
X10675029Y9577529D01*
X10659262Y9580974D01*
X10657339Y9601685D01*
X10662430Y9613377D01*
X10648113Y9610911D01*
X10633322Y9591477D01*
X10623957Y9547149D01*
X10620636Y9525023D01*
X10587778Y9483679D01*
X10525858Y9464478D01*
X10497157Y9450647D01*
X10458767Y9417228D01*
X10447036Y9405778D01*
X10394206Y9364201D01*
X10331948Y9324455D01*
X10305996Y9309168D01*
X10263948Y9280354D01*
X10247351Y9262454D01*
X10252891Y9251944D01*
X10291982Y9238651D01*
X10364181Y9234244D01*
X10464357Y9238871D01*
X10587378Y9252679D01*
X10601708Y9254656D01*
X10742389Y9272827D01*
X10901132Y9291480D01*
X11071315Y9310006D01*
X11246313Y9327797D01*
X11419505Y9344244D01*
X11584267Y9358737D01*
X11733975Y9370668D01*
X11862007Y9379428D01*
X11961740Y9384407D01*
X12026550Y9384998D01*
X12100940Y9380848D01*
X12152841Y9373439D01*
X12179447Y9360836D01*
X12189520Y9340654D01*
X12187286Y9304279D01*
X12166396Y9232482D01*
X12127975Y9137161D01*
X12074712Y9024856D01*
X12009293Y8902106D01*
X11993721Y8874759D01*
X11945403Y8798066D01*
X11895375Y8736531D01*
X11832397Y8677679D01*
X11745231Y8609035D01*
X11692898Y8568000D01*
X11632752Y8515931D01*
X11593294Y8475402D01*
X11581216Y8452787D01*
X11575046Y8434895D01*
X11535097Y8426788D01*
X11491701Y8420353D01*
X11433808Y8396319D01*
X11424401Y8390918D01*
X11358110Y8369418D01*
X11257907Y8353707D01*
X11130095Y8344853D01*
X11101779Y8338738D01*
X11094520Y8322490D01*
X11094274Y8314509D01*
X11063853Y8311392D01*
X10997394Y8321512D01*
X10897127Y8344619D01*
X10888004Y8346836D01*
X10840014Y8354976D01*
X10815315Y8353127D01*
X10813769Y8349020D01*
X10816761Y8315425D01*
X10829831Y8262346D01*
X10839028Y8212031D01*
X10846860Y8129884D01*
X10849402Y8081275D01*
X10852158Y8028584D01*
X10854106Y7919671D01*
X10854080Y7902063D01*
X10851406Y7770942D01*
X10850281Y7756454D01*
X10843040Y7663199D01*
X10827153Y7562440D01*
X10816664Y7516656D01*
X10801914Y7452272D01*
X10787318Y7391390D01*
X10771458Y7313334D01*
X10763605Y7257068D01*
X10765299Y7231872D01*
X10766613Y7230885D01*
X10772606Y7227709D01*
X10795351Y7215656D01*
X10855278Y7186701D01*
X10940346Y7146859D01*
X11044507Y7098967D01*
X11161711Y7045865D01*
X11294620Y6983876D01*
X11495032Y6883448D01*
X11594661Y6829699D01*
X11690086Y6778218D01*
X11862617Y6677214D01*
X11877330Y6668141D01*
X11989317Y6598497D01*
X12074655Y6542912D01*
X12141526Y6494493D01*
X12198113Y6446348D01*
X12252599Y6391581D01*
X12313168Y6323301D01*
X12388001Y6234612D01*
X12481422Y6125169D01*
X12584872Y6008818D01*
X12593711Y5998877D01*
X12602595Y5989309D01*
X12631735Y5957925D01*
X12702931Y5881247D01*
X12805140Y5776205D01*
X12835131Y5747111D01*
X12896398Y5687675D01*
X12972764Y5619581D01*
X13030298Y5575846D01*
X13062924Y5561345D01*
X13065059Y5560396D01*
X13108049Y5550803D01*
X13129635Y5524972D01*
X13117471Y5492987D01*
X13112230Y5488918D01*
X13074224Y5485481D01*
X13007885Y5506147D01*
X12981871Y5515865D01*
X12933298Y5529634D01*
X12908880Y5529888D01*
X12906416Y5525600D01*
X12921953Y5518551D01*
X12929955Y5517545D01*
X12946363Y5500438D01*
X12942888Y5496129D01*
X12911419Y5493530D01*
X12857442Y5501444D01*
X12815990Y5509357D01*
X12706726Y5518698D01*
X12622409Y5507365D01*
X12569047Y5475888D01*
X12563539Y5469619D01*
X12544126Y5453080D01*
X12523920Y5455355D01*
X12493911Y5480592D01*
X12445089Y5532938D01*
X12404197Y5580308D01*
X12359981Y5637706D01*
X12343539Y5664060D01*
X12741411Y5664060D01*
X12751255Y5646150D01*
X12783513Y5612702D01*
X12791593Y5605361D01*
X12831531Y5573381D01*
X12856315Y5560396D01*
X12858398Y5561345D01*
X12848554Y5579255D01*
X12816296Y5612702D01*
X12808216Y5620044D01*
X12768278Y5652024D01*
X12743494Y5665009D01*
X12741411Y5664060D01*
X12343539Y5664060D01*
X12334126Y5679147D01*
X12314842Y5713324D01*
X12289386Y5725011D01*
X12257862Y5698735D01*
X12252305Y5692901D01*
X12217197Y5679587D01*
X12157073Y5686990D01*
X12144982Y5689563D01*
X12093822Y5696837D01*
X12065326Y5694978D01*
X12059154Y5693263D01*
X12042194Y5709887D01*
X12023690Y5723085D01*
X11977811Y5735328D01*
X11918480Y5743609D01*
X11859281Y5746693D01*
X11813800Y5743345D01*
X11795621Y5732326D01*
X11804155Y5721551D01*
X11837466Y5721714D01*
X11837604Y5721750D01*
X11870459Y5720914D01*
X11879311Y5688372D01*
X11879216Y5683542D01*
X11866303Y5652555D01*
X11824390Y5644086D01*
X11792837Y5641780D01*
X11777104Y5625172D01*
X11782022Y5581319D01*
X11786398Y5554424D01*
X11781620Y5525586D01*
X11754997Y5518551D01*
X11732074Y5522669D01*
X11704806Y5544704D01*
X11692879Y5558418D01*
X11671999Y5539473D01*
X11658522Y5525002D01*
X11649484Y5532391D01*
X11644721Y5545543D01*
X11615801Y5551164D01*
X11570185Y5532099D01*
X11557390Y5526133D01*
X11546510Y5532688D01*
X11549983Y5577471D01*
X11536568Y5626285D01*
X11502705Y5644086D01*
X11474350Y5651846D01*
X11460860Y5688493D01*
X11460696Y5698356D01*
X11453579Y5720283D01*
X11429693Y5707034D01*
X11394169Y5689357D01*
X11336469Y5676676D01*
X11274541Y5672639D01*
X11223234Y5678088D01*
X11197403Y5693865D01*
X11181625Y5709041D01*
X11140277Y5712685D01*
X11091498Y5718900D01*
X11056941Y5738238D01*
X11230712Y5738238D01*
X11241173Y5727777D01*
X11247764Y5734368D01*
X11305622Y5734368D01*
X11335325Y5731080D01*
X11364106Y5733997D01*
X11361478Y5741633D01*
X11352007Y5744397D01*
X11309171Y5741633D01*
X11307513Y5738238D01*
X11305622Y5734368D01*
X11247764Y5734368D01*
X11251634Y5738238D01*
X11241173Y5748699D01*
X11230712Y5738238D01*
X11056941Y5738238D01*
X11032886Y5751699D01*
X11027406Y5755905D01*
X10974157Y5789007D01*
X10928740Y5806138D01*
X10902449Y5813681D01*
X10892229Y5821928D01*
X11209789Y5821928D01*
X11220251Y5811467D01*
X11230712Y5821928D01*
X11251634Y5821928D01*
X11262096Y5811467D01*
X11272557Y5821928D01*
X11262096Y5832389D01*
X11251634Y5821928D01*
X11230712Y5821928D01*
X11220251Y5832389D01*
X11209789Y5821928D01*
X10892229Y5821928D01*
X10878515Y5832994D01*
X10876100Y5837971D01*
X10847873Y5852446D01*
X10810091Y5847201D01*
X10784672Y5824274D01*
X10772382Y5810256D01*
X10733067Y5794069D01*
X10662626Y5779434D01*
X10555710Y5764966D01*
X10536638Y5759928D01*
X10524456Y5743825D01*
X10526013Y5740800D01*
X10546439Y5710923D01*
X10586353Y5656381D01*
X10640897Y5583737D01*
X10705217Y5499551D01*
X10880369Y5272106D01*
X10944086Y5344677D01*
X11007804Y5417247D01*
X11068012Y5352825D01*
X11068862Y5351917D01*
X11114018Y5311417D01*
X11161193Y5292852D01*
X11230061Y5288403D01*
X11263128Y5287883D01*
X11338652Y5280980D01*
X11381807Y5266994D01*
X11387985Y5247130D01*
X11388500Y5238429D01*
X11414258Y5231268D01*
X11460430Y5229972D01*
X11492552Y5222472D01*
X11493450Y5206664D01*
X11494145Y5197369D01*
X11520480Y5197827D01*
X11551035Y5196873D01*
X11593738Y5173459D01*
X11616071Y5154162D01*
X11628241Y5151648D01*
X11637797Y5154583D01*
X11670086Y5141945D01*
X11700698Y5120383D01*
X11703606Y5108016D01*
X11708046Y5089137D01*
X11677328Y5047563D01*
X11637377Y5027343D01*
X11569282Y5017588D01*
X11491124Y5020497D01*
X11418354Y5035377D01*
X11366423Y5061533D01*
X11358341Y5068042D01*
X11305691Y5101316D01*
X11242551Y5132256D01*
X11204911Y5147983D01*
X11471548Y5147983D01*
X11480750Y5112091D01*
X11484995Y5100846D01*
X11496543Y5084560D01*
X11508594Y5106190D01*
X11509239Y5108016D01*
X11507883Y5139063D01*
X11491973Y5161772D01*
X11472556Y5159732D01*
X11471548Y5147983D01*
X11204911Y5147983D01*
X11160811Y5166409D01*
X11197433Y5110517D01*
X11199425Y5107446D01*
X11221412Y5067499D01*
X11225911Y5046480D01*
X11222307Y5044335D01*
X11189171Y5033408D01*
X11135319Y5020010D01*
X11107844Y5014409D01*
X11064031Y5012675D01*
X11026872Y5029868D01*
X10978759Y5071815D01*
X10937576Y5107065D01*
X10883519Y5134680D01*
X10818674Y5141945D01*
X10807085Y5142035D01*
X10777914Y5144500D01*
X10750045Y5153384D01*
X10718495Y5172708D01*
X10678281Y5206496D01*
X10624422Y5258769D01*
X10551935Y5333550D01*
X10455837Y5434861D01*
X10449943Y5441089D01*
X10362418Y5531769D01*
X10283159Y5610702D01*
X10217183Y5673129D01*
X10169512Y5714291D01*
X10145164Y5729428D01*
X10127145Y5732444D01*
X10138381Y5741924D01*
X10151293Y5753731D01*
X10144987Y5778307D01*
X10117071Y5801302D01*
X10077409Y5811467D01*
X10055531Y5815036D01*
X10038125Y5832389D01*
X10037517Y5837390D01*
X10017203Y5853312D01*
X9994741Y5861815D01*
X11460860Y5861815D01*
X11468677Y5840423D01*
X11496167Y5821928D01*
X11502705Y5817529D01*
X11527040Y5806115D01*
X11544550Y5779690D01*
X11544589Y5778724D01*
X11563729Y5753695D01*
X11601416Y5733997D01*
X11607318Y5730912D01*
X11617354Y5727196D01*
X11658625Y5699602D01*
X11670086Y5655636D01*
X11675398Y5620179D01*
X11691008Y5602241D01*
X11705589Y5619237D01*
X11711931Y5661982D01*
X11710207Y5687578D01*
X11691942Y5721216D01*
X11643933Y5743537D01*
X11575934Y5765350D01*
X11659625Y5769138D01*
X11660731Y5769188D01*
X11709689Y5772980D01*
X11720474Y5778780D01*
X11691957Y5787547D01*
X11630636Y5798836D01*
X12221009Y5798836D01*
X12223891Y5778780D01*
X12226280Y5762155D01*
X12235691Y5744547D01*
X12258156Y5727777D01*
X12263885Y5728307D01*
X12275461Y5747111D01*
X12256735Y5789938D01*
X12234751Y5810105D01*
X12221009Y5798836D01*
X11630636Y5798836D01*
X11623010Y5800240D01*
X11596059Y5805666D01*
X11555902Y5823885D01*
X11544550Y5854260D01*
X11537797Y5880246D01*
X11502705Y5895157D01*
X11478334Y5889490D01*
X11460860Y5861815D01*
X9994741Y5861815D01*
X9993898Y5862134D01*
X9955935Y5889926D01*
X9947380Y5897664D01*
X9890678Y5946532D01*
X9874150Y5957925D01*
X10383348Y5957925D01*
X10387642Y5951663D01*
X10405505Y5937002D01*
X10407593Y5937546D01*
X10414732Y5957925D01*
X10413880Y5963659D01*
X10406658Y5968807D01*
X12155775Y5968807D01*
X12156872Y5957925D01*
X12158279Y5943976D01*
X12164572Y5940703D01*
X12172227Y5957925D01*
X12170718Y5969001D01*
X12158279Y5971873D01*
X12155775Y5968807D01*
X10406658Y5968807D01*
X10392574Y5978847D01*
X10385007Y5977205D01*
X10383348Y5957925D01*
X9874150Y5957925D01*
X9854151Y5971710D01*
X9829783Y5978847D01*
X9824035Y5979566D01*
X9816031Y5989309D01*
X11126099Y5989309D01*
X11136560Y5978847D01*
X11147022Y5989309D01*
X11136560Y5999770D01*
X11126099Y5989309D01*
X9816031Y5989309D01*
X9807977Y5999113D01*
X9803789Y6007689D01*
X9777255Y6007590D01*
X9764055Y5999770D01*
X9763336Y5999344D01*
X9751102Y5973029D01*
X9751164Y5972683D01*
X9737163Y5948262D01*
X9698134Y5921565D01*
X9660344Y5893917D01*
X9640276Y5846940D01*
X9640217Y5842510D01*
X9635613Y5817070D01*
X9621599Y5829991D01*
X9601442Y5846167D01*
X9547863Y5845076D01*
X9512508Y5841222D01*
X9446810Y5863167D01*
X9440420Y5867593D01*
X9397615Y5891702D01*
X9380351Y5885520D01*
X9384651Y5848081D01*
X9389269Y5828449D01*
X9386567Y5813007D01*
X9361378Y5830046D01*
X9350879Y5838161D01*
X9321619Y5847254D01*
X9288104Y5824816D01*
X9273202Y5814589D01*
X9227827Y5798176D01*
X9176654Y5790576D01*
X9134838Y5793296D01*
X9117532Y5807843D01*
X9117767Y5809260D01*
X9139426Y5818340D01*
X9185531Y5818338D01*
X9194892Y5817497D01*
X9227709Y5817392D01*
X9227376Y5823705D01*
X9217269Y5829747D01*
X9201223Y5853009D01*
X9202101Y5856352D01*
X9226724Y5876224D01*
X9274266Y5898258D01*
X9329966Y5916484D01*
X9379064Y5924933D01*
X9381828Y5925079D01*
X9412278Y5939596D01*
X9420910Y5983606D01*
X9425164Y6022703D01*
X9436601Y6041143D01*
X9479212Y6042054D01*
X9518413Y6039696D01*
X9527888Y6030064D01*
X9515061Y6010231D01*
X9502732Y5990796D01*
X9511089Y5978847D01*
X9526572Y5986848D01*
X9540549Y6010652D01*
X9624144Y6010652D01*
X9626648Y5985822D01*
X9632941Y5982548D01*
X9640597Y5999770D01*
X9639171Y6010231D01*
X10331041Y6010231D01*
X10341503Y5999770D01*
X10351964Y6010231D01*
X10341503Y6020693D01*
X10331041Y6010231D01*
X9639171Y6010231D01*
X9639087Y6010846D01*
X9626648Y6013718D01*
X9624144Y6010652D01*
X9540549Y6010652D01*
X9546445Y6020693D01*
X9552195Y6031154D01*
X10289196Y6031154D01*
X10299657Y6020693D01*
X10310119Y6031154D01*
X10299657Y6041615D01*
X10289196Y6031154D01*
X9552195Y6031154D01*
X9559867Y6045113D01*
X9566984Y6049270D01*
X9665220Y6049270D01*
X9682442Y6041615D01*
X9693518Y6043125D01*
X9696390Y6055564D01*
X9693323Y6058068D01*
X9668493Y6055564D01*
X9665220Y6049270D01*
X9566984Y6049270D01*
X9589700Y6062538D01*
X9609427Y6073772D01*
X9616208Y6101768D01*
X10707648Y6101768D01*
X10712800Y6079828D01*
X10737576Y6062538D01*
X10754746Y6056554D01*
X10755351Y6055564D01*
X10770273Y6031154D01*
X10774191Y6024744D01*
X10775505Y6018502D01*
X10782039Y6010231D01*
X10792400Y5997114D01*
X10833183Y6001736D01*
X10862138Y6010313D01*
X10869341Y6016158D01*
X10838414Y6018607D01*
X10824530Y6020092D01*
X10795158Y6034621D01*
X10797504Y6053295D01*
X10833183Y6062538D01*
X10859533Y6069002D01*
X10875028Y6102928D01*
X10882817Y6129169D01*
X10893982Y6135767D01*
X11795621Y6135767D01*
X11806083Y6125305D01*
X11816544Y6135767D01*
X11806083Y6146228D01*
X11795621Y6135767D01*
X10893982Y6135767D01*
X10922104Y6152385D01*
X10939142Y6156210D01*
X10941509Y6161198D01*
X10903797Y6164301D01*
X10864220Y6164882D01*
X10781262Y6156195D01*
X10727058Y6134514D01*
X10707648Y6101768D01*
X9616208Y6101768D01*
X9619674Y6116079D01*
X9625082Y6149282D01*
X9640597Y6156689D01*
X9648532Y6153236D01*
X9661519Y6163070D01*
X9651484Y6177612D01*
X10540267Y6177612D01*
X10548034Y6159310D01*
X10582112Y6146228D01*
X10606514Y6152053D01*
X10623957Y6177612D01*
X10616191Y6195913D01*
X10582112Y6208996D01*
X10557710Y6203171D01*
X10540267Y6177612D01*
X9651484Y6177612D01*
X9646801Y6184398D01*
X9608065Y6217755D01*
X9576684Y6240133D01*
X10828655Y6240133D01*
X10856285Y6242069D01*
X10897163Y6240567D01*
X10934745Y6224600D01*
X10947489Y6214948D01*
X10958718Y6220701D01*
X10949578Y6238896D01*
X10916873Y6266908D01*
X10889538Y6279178D01*
X10875028Y6273396D01*
X10869460Y6261631D01*
X10838414Y6244658D01*
X10837842Y6244515D01*
X10828655Y6240133D01*
X9576684Y6240133D01*
X9558426Y6253153D01*
X9511041Y6281245D01*
X9479066Y6292686D01*
X9469665Y6294564D01*
X9445227Y6318839D01*
X9444986Y6319422D01*
X9437197Y6320048D01*
X9433023Y6287057D01*
X9427333Y6253044D01*
X9407272Y6238435D01*
X9364635Y6241899D01*
X9291209Y6261984D01*
X9279723Y6261962D01*
X9277308Y6240479D01*
X9277455Y6221821D01*
X9247158Y6214440D01*
X9221937Y6221985D01*
X9217333Y6249889D01*
X9218917Y6255103D01*
X9211593Y6262052D01*
X9178420Y6236416D01*
X9178347Y6236350D01*
X9139260Y6203418D01*
X9108928Y6190382D01*
X9066041Y6188073D01*
X9034119Y6176117D01*
X8993961Y6143517D01*
X8952451Y6098960D01*
X8952147Y6289769D01*
X8951649Y6328662D01*
X8948786Y6386838D01*
X11126099Y6386838D01*
X11136560Y6376376D01*
X11147022Y6386838D01*
X11136560Y6397299D01*
X11126099Y6386838D01*
X8948786Y6386838D01*
X8947756Y6407760D01*
X10603035Y6407760D01*
X10613496Y6397299D01*
X10623957Y6407760D01*
X10613496Y6418221D01*
X10603035Y6407760D01*
X8947756Y6407760D01*
X8947423Y6414530D01*
X8942367Y6460067D01*
X10948257Y6460067D01*
X10952551Y6453805D01*
X10970414Y6439144D01*
X10972503Y6439688D01*
X10979641Y6460067D01*
X10978790Y6465801D01*
X10957484Y6480989D01*
X10949916Y6479346D01*
X10948257Y6460067D01*
X8942367Y6460067D01*
X8939848Y6482759D01*
X8930075Y6521253D01*
X8915810Y6562907D01*
X8912412Y6590061D01*
X10501566Y6590061D01*
X10501723Y6582070D01*
X10516511Y6547754D01*
X10562432Y6529909D01*
X10567373Y6528875D01*
X10612521Y6512077D01*
X10621665Y6492199D01*
X10592163Y6474192D01*
X10576600Y6467660D01*
X10597394Y6467641D01*
X10615641Y6473487D01*
X10637621Y6505289D01*
X10636913Y6550877D01*
X10611770Y6594800D01*
X10592892Y6620688D01*
X10596288Y6649992D01*
X10623897Y6650777D01*
X10665542Y6617263D01*
X10668080Y6614620D01*
X10714733Y6579360D01*
X10758370Y6565000D01*
X10785083Y6569061D01*
X10774656Y6582539D01*
X10758681Y6600681D01*
X10777204Y6624399D01*
X10790463Y6633328D01*
X10807319Y6627295D01*
X10819516Y6585938D01*
X10831247Y6547936D01*
X10850361Y6524790D01*
X10865160Y6535258D01*
X10866867Y6580371D01*
X10866494Y6583438D01*
X10864552Y6610606D01*
X10868845Y6601294D01*
X10877659Y6582015D01*
X10904624Y6564679D01*
X10931724Y6554184D01*
X10969309Y6522691D01*
X11000402Y6495423D01*
X11030089Y6483325D01*
X11030199Y6483338D01*
X11066102Y6484449D01*
X11120212Y6483468D01*
X11139436Y6482274D01*
X11173491Y6472306D01*
X11174562Y6460067D01*
X11175483Y6449535D01*
X11174143Y6445429D01*
X11182925Y6421032D01*
X11220786Y6407760D01*
X11228446Y6405075D01*
X11231502Y6404446D01*
X11275378Y6390592D01*
X11279911Y6386838D01*
X11293480Y6375600D01*
X11295694Y6371466D01*
X11324897Y6357455D01*
X11377170Y6344992D01*
X11396264Y6341314D01*
X11442403Y6327544D01*
X11460860Y6313728D01*
X11469307Y6305650D01*
X11502705Y6307546D01*
X11527138Y6317437D01*
X11544550Y6336971D01*
X11552952Y6347904D01*
X11587630Y6355454D01*
X11612832Y6350918D01*
X11615781Y6331298D01*
X11610839Y6320343D01*
X11623120Y6320905D01*
X11656756Y6327853D01*
X11694968Y6309011D01*
X11711931Y6270182D01*
X11717619Y6246017D01*
X11744563Y6243754D01*
X11768023Y6244352D01*
X11783113Y6220701D01*
X11788848Y6211713D01*
X11803176Y6184819D01*
X11816671Y6177612D01*
X11836259Y6167151D01*
X11855733Y6161198D01*
X11864140Y6158628D01*
X11895587Y6135767D01*
X11908878Y6126105D01*
X11946924Y6082980D01*
X11963002Y6044087D01*
X11970051Y6029891D01*
X12004847Y6031154D01*
X12030403Y6034915D01*
X12046692Y6022102D01*
X12054070Y6009331D01*
X12087482Y5999770D01*
X12105066Y6000495D01*
X12116393Y6008818D01*
X12108983Y6034478D01*
X12082251Y6087209D01*
X12073808Y6101452D01*
X12033459Y6156894D01*
X11972680Y6231016D01*
X11898149Y6315871D01*
X11816544Y6403508D01*
X11770910Y6450740D01*
X11689505Y6532108D01*
X11623865Y6591639D01*
X11565854Y6635834D01*
X11507337Y6671195D01*
X11440176Y6704220D01*
X11428916Y6709308D01*
X11340219Y6745078D01*
X11254577Y6773313D01*
X11189106Y6788281D01*
X11146026Y6795219D01*
X11092420Y6807847D01*
X11055308Y6820916D01*
X11052328Y6823405D01*
X11108877Y6823405D01*
X11126099Y6815750D01*
X11137175Y6817260D01*
X11140047Y6829699D01*
X11136981Y6832203D01*
X11112151Y6829699D01*
X11108877Y6823405D01*
X11052328Y6823405D01*
X11042828Y6831340D01*
X11063117Y6836037D01*
X11069143Y6836813D01*
X11071106Y6852469D01*
X11037877Y6888979D01*
X11029557Y6896563D01*
X10990786Y6928378D01*
X10968092Y6941286D01*
X10966101Y6941584D01*
X10937881Y6955708D01*
X10894093Y6984454D01*
X10886687Y6989497D01*
X10840793Y7011588D01*
X10809170Y7012605D01*
X10798186Y7007617D01*
X10798446Y7019551D01*
X10800878Y7029228D01*
X10785237Y7049920D01*
X10754870Y7060386D01*
X10728794Y7051815D01*
X10725781Y7048203D01*
X10672907Y6981512D01*
X10626901Y6917958D01*
X10594418Y6867198D01*
X10582112Y6838893D01*
X10581288Y6832020D01*
X10575084Y6826212D01*
X10563909Y6815750D01*
X10554382Y6807482D01*
X10537282Y6769039D01*
X10529520Y6742521D01*
X10520335Y6711139D01*
X10507208Y6647056D01*
X10501566Y6590061D01*
X8912412Y6590061D01*
X8908307Y6622857D01*
X8905098Y6659560D01*
X8889599Y6717703D01*
X8877838Y6742521D01*
X9556906Y6742521D01*
X9567368Y6732060D01*
X9577829Y6742521D01*
X9567368Y6752983D01*
X9556906Y6742521D01*
X8877838Y6742521D01*
X8866209Y6767062D01*
X8840493Y6796930D01*
X8818017Y6796597D01*
X8806837Y6778979D01*
X8820432Y6748798D01*
X8832292Y6732441D01*
X8845539Y6686030D01*
X8849407Y6665655D01*
X8869704Y6648370D01*
X8878000Y6639268D01*
X8859243Y6610108D01*
X8847737Y6593792D01*
X8835754Y6554218D01*
X8830151Y6535716D01*
X8824616Y6444222D01*
X8823659Y6404384D01*
X8814266Y6329495D01*
X8796006Y6287987D01*
X8792150Y6283451D01*
X8775309Y6235398D01*
X8771495Y6160957D01*
X8772064Y6145492D01*
X8770710Y6092422D01*
X8759680Y6068262D01*
X8735099Y6062538D01*
X8710484Y6057264D01*
X8706435Y6031707D01*
X8709011Y6015336D01*
X8692981Y5984631D01*
X8666421Y5956658D01*
X8633287Y5905476D01*
X8605883Y5850486D01*
X8594468Y5809886D01*
X8586423Y5784227D01*
X8559027Y5744216D01*
X8550536Y5734617D01*
X8539361Y5717315D01*
X8537553Y5714515D01*
X8554535Y5716930D01*
X8575191Y5717577D01*
X8588626Y5687123D01*
X8586825Y5674820D01*
X8566940Y5644086D01*
X8559879Y5633172D01*
X8508636Y5583868D01*
X8443053Y5534021D01*
X8373091Y5490742D01*
X8308708Y5461143D01*
X8259862Y5452337D01*
X8209121Y5450032D01*
X8151177Y5432013D01*
X8112623Y5416128D01*
X8070017Y5410315D01*
X8038481Y5402806D01*
X7998776Y5372757D01*
X7960391Y5345436D01*
X7900780Y5330248D01*
X7866397Y5326652D01*
X7840707Y5303712D01*
X7840432Y5289637D01*
X7839694Y5251788D01*
X7835596Y5230369D01*
X7808918Y5230843D01*
X7756805Y5259660D01*
X7733425Y5276707D01*
X7757565Y5276707D01*
X7758109Y5274618D01*
X7778488Y5267480D01*
X7784222Y5268332D01*
X7799410Y5289637D01*
X7797768Y5297205D01*
X7778488Y5298864D01*
X7772226Y5294570D01*
X7757565Y5276707D01*
X7733425Y5276707D01*
X7677339Y5317600D01*
X7616394Y5361957D01*
X7539806Y5412462D01*
X7464263Y5458042D01*
X7400696Y5492134D01*
X7360036Y5508173D01*
X7312198Y5522032D01*
X7275219Y5542639D01*
X7266816Y5561902D01*
X7269735Y5568559D01*
X7259197Y5581319D01*
X7258145Y5581402D01*
X7236952Y5600766D01*
X7213689Y5643820D01*
X7211542Y5648821D01*
X7207773Y5654968D01*
X8536170Y5654968D01*
X8538674Y5630138D01*
X8544968Y5626865D01*
X8552623Y5644086D01*
X8551113Y5655163D01*
X8538674Y5658035D01*
X8536170Y5654968D01*
X7207773Y5654968D01*
X7188785Y5685937D01*
X7169305Y5694892D01*
X7163538Y5692227D01*
X7150811Y5701418D01*
X7149384Y5704646D01*
X7122515Y5711649D01*
X7072351Y5709535D01*
X7061520Y5708158D01*
X7020308Y5701442D01*
X7016430Y5694715D01*
X7023857Y5692151D01*
X7046198Y5684438D01*
X7048932Y5683308D01*
X7036280Y5678674D01*
X6988308Y5674481D01*
X6910298Y5670985D01*
X6807529Y5668438D01*
X6685283Y5667094D01*
X6585326Y5666837D01*
X6461278Y5667699D01*
X6372119Y5670317D01*
X6313626Y5674936D01*
X6281575Y5681802D01*
X6271742Y5691162D01*
X6271386Y5692523D01*
X6451586Y5692523D01*
X6481288Y5689235D01*
X6510070Y5692151D01*
X6507442Y5699788D01*
X6497971Y5702551D01*
X6455135Y5699788D01*
X6451586Y5692523D01*
X6271386Y5692523D01*
X6268340Y5704177D01*
X6252746Y5687813D01*
X6251893Y5686562D01*
X6237828Y5676604D01*
X6209166Y5670007D01*
X6160474Y5666584D01*
X6086313Y5666145D01*
X5981249Y5668502D01*
X5839846Y5673465D01*
X5726117Y5677598D01*
X5592139Y5681898D01*
X5469940Y5685239D01*
X5369530Y5687353D01*
X5300919Y5687969D01*
X5225871Y5689099D01*
X5173499Y5695933D01*
X5138036Y5712019D01*
X5132263Y5717315D01*
X5225934Y5717315D01*
X5236396Y5706854D01*
X5246857Y5717315D01*
X5236396Y5727777D01*
X5225934Y5717315D01*
X5132263Y5717315D01*
X5106592Y5740866D01*
X5064122Y5775485D01*
X5022122Y5781041D01*
X5005962Y5771539D01*
X5011099Y5754608D01*
X5049069Y5725212D01*
X5069256Y5710750D01*
X5087030Y5692862D01*
X5069015Y5692978D01*
X5034333Y5701329D01*
X4967900Y5717212D01*
X4879857Y5738206D01*
X4779888Y5761996D01*
X4532607Y5820791D01*
X4436708Y5933042D01*
X4377420Y6014737D01*
X4317044Y6126959D01*
X4258056Y6268924D01*
X4198813Y6444616D01*
X4167410Y6554218D01*
X8761849Y6554218D01*
X8772310Y6543757D01*
X8782771Y6554218D01*
X8772310Y6564679D01*
X8761849Y6554218D01*
X4167410Y6554218D01*
X4137670Y6658019D01*
X4129907Y6687084D01*
X4106334Y6779014D01*
X4093240Y6841355D01*
X4089711Y6882568D01*
X4094832Y6911116D01*
X4107689Y6935458D01*
X4128144Y6962706D01*
X4153888Y6971848D01*
X4196121Y6954831D01*
X4201624Y6952175D01*
X4249127Y6931891D01*
X4324825Y6901759D01*
X4419486Y6865396D01*
X4523878Y6826418D01*
X4794721Y6726735D01*
X5298013Y6795842D01*
X5388808Y6808229D01*
X5522814Y6826212D01*
X9452293Y6826212D01*
X9462755Y6815750D01*
X9473216Y6826212D01*
X9462755Y6836673D01*
X9452293Y6826212D01*
X5522814Y6826212D01*
X5529252Y6827076D01*
X5656039Y6843717D01*
X5762223Y6857257D01*
X5840858Y6866801D01*
X5884995Y6871455D01*
X5919308Y6874569D01*
X6031694Y6888235D01*
X6173617Y6909062D01*
X6336950Y6935692D01*
X6513570Y6966766D01*
X6695352Y7000927D01*
X6874170Y7036816D01*
X7256591Y7116310D01*
X7348396Y7227825D01*
X7354845Y7235545D01*
X7402744Y7290034D01*
X7472630Y7366626D01*
X7539571Y7438531D01*
X8840899Y7438531D01*
X8845685Y7417446D01*
X8878341Y7370198D01*
X8893782Y7351215D01*
X8933291Y7312410D01*
X8962250Y7296969D01*
X8963417Y7296929D01*
X8997155Y7281591D01*
X9038226Y7246908D01*
X9086357Y7208554D01*
X9138455Y7184333D01*
X9167783Y7178920D01*
X9165783Y7183440D01*
X9156006Y7191274D01*
X9151518Y7222976D01*
X9153938Y7236053D01*
X9139881Y7264704D01*
X9130536Y7268437D01*
X9117532Y7256359D01*
X9113981Y7246152D01*
X9086148Y7234202D01*
X9067739Y7242067D01*
X9054765Y7276508D01*
X9053526Y7285948D01*
X9046167Y7296850D01*
X9180300Y7296850D01*
X9183908Y7285182D01*
X9211564Y7262736D01*
X9225816Y7254540D01*
X9232700Y7234353D01*
X9232026Y7232666D01*
X9247438Y7218899D01*
X9290357Y7207752D01*
X9295288Y7207048D01*
X9341589Y7204731D01*
X9363649Y7211470D01*
X9377886Y7218045D01*
X9421856Y7221510D01*
X9480703Y7219687D01*
X9539405Y7213184D01*
X9582939Y7202608D01*
X9601751Y7191487D01*
X9606552Y7178920D01*
X9609336Y7171634D01*
X9614133Y7158952D01*
X9647014Y7146164D01*
X9650937Y7145538D01*
X9697295Y7154796D01*
X9735120Y7186355D01*
X9754261Y7227709D01*
X9744570Y7266356D01*
X9727170Y7280655D01*
X9697438Y7282845D01*
X9686206Y7280116D01*
X9688026Y7302267D01*
X9689614Y7307493D01*
X9680690Y7338007D01*
X9649223Y7353206D01*
X9611791Y7344011D01*
X9611330Y7343698D01*
X9574491Y7332622D01*
X9519790Y7328663D01*
X9471199Y7323134D01*
X9462387Y7307431D01*
X9460886Y7304757D01*
X9462291Y7300055D01*
X9451940Y7289174D01*
X9409272Y7297307D01*
X9399989Y7299837D01*
X9354879Y7303653D01*
X9330128Y7282812D01*
X9315618Y7264572D01*
X9291771Y7264058D01*
X9246246Y7284864D01*
X9237796Y7289085D01*
X9196216Y7303657D01*
X9180300Y7296850D01*
X9046167Y7296850D01*
X9039024Y7307431D01*
X9284913Y7307431D01*
X9295374Y7296969D01*
X9305835Y7307431D01*
X9295374Y7317892D01*
X9284913Y7307431D01*
X9039024Y7307431D01*
X9023921Y7329804D01*
X8956517Y7381120D01*
X8921172Y7403084D01*
X8865541Y7433671D01*
X8840899Y7438531D01*
X7539571Y7438531D01*
X7558452Y7458812D01*
X7613120Y7516656D01*
X10623957Y7516656D01*
X10634419Y7506195D01*
X10644880Y7516656D01*
X10634419Y7527118D01*
X10623957Y7516656D01*
X7613120Y7516656D01*
X7654163Y7560084D01*
X7753714Y7663935D01*
X7898271Y7813602D01*
X8847828Y7813602D01*
X8867209Y7790895D01*
X8878708Y7781032D01*
X8926920Y7754232D01*
X8973243Y7744700D01*
X9001956Y7756454D01*
X8999022Y7772395D01*
X8968888Y7794490D01*
X8921741Y7812555D01*
X8871077Y7820034D01*
X8862395Y7819886D01*
X8847828Y7813602D01*
X7898271Y7813602D01*
X8067227Y7988530D01*
X8273310Y8072749D01*
X8334359Y8097108D01*
X8425485Y8131412D01*
X8502266Y8157948D01*
X8552623Y8172406D01*
X8625852Y8187845D01*
X8631723Y8243759D01*
X8720538Y8243759D01*
X8722429Y8150130D01*
X8726611Y8065959D01*
X8733038Y8001027D01*
X8741662Y7965116D01*
X8753574Y7945538D01*
X8780923Y7927273D01*
X8814155Y7947082D01*
X8816012Y7948872D01*
X8847530Y7977914D01*
X8891329Y8017074D01*
X8922967Y8048658D01*
X8937487Y8085066D01*
X8930354Y8129188D01*
X9277277Y8129188D01*
X9282106Y8085066D01*
X9283790Y8069682D01*
X9300607Y8007038D01*
X9339528Y7909537D01*
X9388690Y7841792D01*
X9389744Y7840746D01*
X9441472Y7808280D01*
X9507337Y7804182D01*
X9596180Y7827857D01*
X9652656Y7853686D01*
X9709824Y7905223D01*
X9738014Y7978677D01*
X9741365Y8081275D01*
X9730396Y8158955D01*
X9706579Y8247394D01*
X9674812Y8327966D01*
X9639585Y8389466D01*
X9605385Y8420691D01*
X9598016Y8422458D01*
X9551815Y8414606D01*
X9492714Y8387335D01*
X9434844Y8348305D01*
X9392333Y8305177D01*
X9355304Y8254803D01*
X9312411Y8199141D01*
X9296574Y8177615D01*
X9277277Y8129188D01*
X8930354Y8129188D01*
X8929105Y8136912D01*
X8923373Y8158863D01*
X8904604Y8231933D01*
X8885144Y8308920D01*
X8869323Y8357898D01*
X8837796Y8424302D01*
X8801222Y8479687D01*
X8766123Y8514643D01*
X8739019Y8519761D01*
X8736819Y8517209D01*
X8729079Y8483570D01*
X8723817Y8420261D01*
X8720985Y8337064D01*
X8720538Y8243759D01*
X8631723Y8243759D01*
X8646774Y8387112D01*
X8660196Y8489094D01*
X8681352Y8587667D01*
X8713733Y8689604D01*
X8761849Y8811537D01*
X8791371Y8880336D01*
X8836552Y8974174D01*
X8884268Y9053725D01*
X8943647Y9133500D01*
X9023819Y9228015D01*
X9027794Y9232535D01*
X9129944Y9341119D01*
X9223593Y9426438D01*
X9301996Y9482325D01*
X9353682Y9512846D01*
X9386696Y9537567D01*
X9392406Y9555020D01*
X9376227Y9571730D01*
X9355032Y9590622D01*
X9356116Y9611515D01*
X9385464Y9646435D01*
X9389921Y9651179D01*
X10607505Y9651179D01*
X10610009Y9626349D01*
X10616302Y9623076D01*
X10623957Y9640297D01*
X10622447Y9651374D01*
X10610009Y9654246D01*
X10607505Y9651179D01*
X9389921Y9651179D01*
X9430828Y9694723D01*
X9241093Y9787723D01*
X9188051Y9814359D01*
X9112531Y9854697D01*
X9056165Y9887846D01*
X9028308Y9908497D01*
X9022211Y9914771D01*
X8982102Y9944399D01*
X8926978Y9976207D01*
X8901187Y9990876D01*
X8832646Y10038653D01*
X8768659Y10092910D01*
X8733110Y10128732D01*
X8721014Y10146636D01*
X8740926Y10138295D01*
X8743822Y10136564D01*
X8782393Y10113731D01*
X8849670Y10074093D01*
X8939218Y10021436D01*
X9044600Y9959544D01*
X9159377Y9892204D01*
X9181385Y9879289D01*
X9292232Y9813931D01*
X9390417Y9755547D01*
X9470068Y9707662D01*
X9525314Y9673801D01*
X9550282Y9657491D01*
X9551896Y9656581D01*
X9580512Y9661004D01*
X9639449Y9685477D01*
X9729946Y9730612D01*
X9853242Y9797024D01*
X10010578Y9885325D01*
X10063881Y9915527D01*
X10202165Y9992817D01*
X10338425Y10067610D01*
X10464117Y10135286D01*
X10570693Y10191225D01*
X10649607Y10230807D01*
X10853099Y10328452D01*
X10902972Y10244819D01*
X10952845Y10161185D01*
X10917381Y10008625D01*
X10903390Y9953817D01*
X10862379Y9841179D01*
X10813386Y9767854D01*
X10755582Y9732424D01*
X10721303Y9718471D01*
X10685230Y9691253D01*
X10669123Y9663641D01*
X10681494Y9645612D01*
X10683226Y9644988D01*
X10687641Y9640297D01*
X10705436Y9621391D01*
G37*
%TO.C,SW2*%
D12*
X-7242436Y-2973400D02*
X-7696564Y-2973400D01*
X-7242436Y-4443400D02*
X-7696564Y-4443400D01*
%TO.C,LRA_EN*%
X-12765000Y6415000D02*
X-12765000Y5015000D01*
X-12765000Y5015000D02*
X-11365000Y5015000D01*
X-11365000Y6415000D02*
X-12765000Y6415000D01*
X-11365000Y5015000D02*
X-11365000Y6415000D01*
%TO.C,BATT*%
X-5780000Y14035000D02*
X-5780000Y12635000D01*
X-5780000Y12635000D02*
X-4380000Y12635000D01*
X-4380000Y14035000D02*
X-5780000Y14035000D01*
X-4380000Y12635000D02*
X-4380000Y14035000D01*
%TO.C,VBUS_OUT*%
X-1970000Y10225000D02*
X-1970000Y8825000D01*
X-1970000Y8825000D02*
X-570000Y8825000D01*
X-570000Y10225000D02*
X-1970000Y10225000D01*
X-570000Y8825000D02*
X-570000Y10225000D01*
%TO.C,SW3*%
X12456921Y-4446600D02*
X12002793Y-4446600D01*
X12456921Y-5916600D02*
X12002793Y-5916600D01*
%TO.C,GND*%
X4380000Y10225000D02*
X4380000Y8825000D01*
X4380000Y8825000D02*
X5780000Y8825000D01*
X5780000Y10225000D02*
X4380000Y10225000D01*
X5780000Y8825000D02*
X5780000Y10225000D01*
%TO.C,VSYS*%
X-700000Y14035000D02*
X-700000Y12635000D01*
X-700000Y12635000D02*
X700000Y12635000D01*
X700000Y14035000D02*
X-700000Y14035000D01*
X700000Y12635000D02*
X700000Y14035000D01*
%TO.C,LRA_PWM*%
X-14035000Y-5015000D02*
X-14035000Y-6415000D01*
X-14035000Y-6415000D02*
X-12635000Y-6415000D01*
X-12635000Y-5015000D02*
X-14035000Y-5015000D01*
X-12635000Y-6415000D02*
X-12635000Y-5015000D01*
%TO.C,3V0*%
X1840000Y14035000D02*
X1840000Y12635000D01*
X1840000Y12635000D02*
X3240000Y12635000D01*
X3240000Y14035000D02*
X1840000Y14035000D01*
X3240000Y12635000D02*
X3240000Y14035000D01*
%TO.C,SCL*%
X-7685000Y1970000D02*
X-7685000Y570000D01*
X-7685000Y570000D02*
X-6285000Y570000D01*
X-6285000Y1970000D02*
X-7685000Y1970000D01*
X-6285000Y570000D02*
X-6285000Y1970000D01*
%TO.C,SDA*%
X-7685000Y-570000D02*
X-7685000Y-1970000D01*
X-7685000Y-1970000D02*
X-6285000Y-1970000D01*
X-6285000Y-570000D02*
X-7685000Y-570000D01*
X-6285000Y-1970000D02*
X-6285000Y-570000D01*
%TO.C,QSPI_CS*%
X4380000Y-12000000D02*
X4380000Y-13400000D01*
X4380000Y-13400000D02*
X5780000Y-13400000D01*
X5780000Y-12000000D02*
X4380000Y-12000000D01*
X5780000Y-13400000D02*
X5780000Y-12000000D01*
%TO.C,QSPI_CLK*%
X1205000Y-12000000D02*
X1205000Y-13400000D01*
X1205000Y-13400000D02*
X2605000Y-13400000D01*
X2605000Y-12000000D02*
X1205000Y-12000000D01*
X2605000Y-13400000D02*
X2605000Y-12000000D01*
D15*
%TO.C,G\u002A\u002A\u002A*%
G36*
X-6185506Y-12252745D02*
G01*
X-6189674Y-12256913D01*
X-6193842Y-12252745D01*
X-6189674Y-12248577D01*
X-6185506Y-12252745D01*
G37*
G36*
X-6177170Y-12044343D02*
G01*
X-6181338Y-12048511D01*
X-6185506Y-12044343D01*
X-6181338Y-12040175D01*
X-6177170Y-12044343D01*
G37*
G36*
X-6143826Y-12144376D02*
G01*
X-6147994Y-12148544D01*
X-6152162Y-12144376D01*
X-6147994Y-12140208D01*
X-6143826Y-12144376D01*
G37*
G36*
X-6068801Y-11935975D02*
G01*
X-6072969Y-11940143D01*
X-6077137Y-11935975D01*
X-6072969Y-11931806D01*
X-6068801Y-11935975D01*
G37*
G36*
X-6043793Y-11952647D02*
G01*
X-6047961Y-11956815D01*
X-6052129Y-11952647D01*
X-6047961Y-11948479D01*
X-6043793Y-11952647D01*
G37*
G36*
X-5968768Y-11877622D02*
G01*
X-5972936Y-11881790D01*
X-5977104Y-11877622D01*
X-5972936Y-11873454D01*
X-5968768Y-11877622D01*
G37*
G36*
X-5952096Y-11794261D02*
G01*
X-5956264Y-11798429D01*
X-5960432Y-11794261D01*
X-5956264Y-11790093D01*
X-5952096Y-11794261D01*
G37*
G36*
X-5943760Y-11827606D02*
G01*
X-5947928Y-11831774D01*
X-5952096Y-11827606D01*
X-5947928Y-11823438D01*
X-5943760Y-11827606D01*
G37*
G36*
X-5777039Y-11702565D02*
G01*
X-5781207Y-11706733D01*
X-5785375Y-11702565D01*
X-5781207Y-11698397D01*
X-5777039Y-11702565D01*
G37*
G36*
X-5752030Y-11935975D02*
G01*
X-5756198Y-11940143D01*
X-5760366Y-11935975D01*
X-5756198Y-11931806D01*
X-5752030Y-11935975D01*
G37*
G36*
X-5743694Y-11952647D02*
G01*
X-5747862Y-11956815D01*
X-5752030Y-11952647D01*
X-5747862Y-11948479D01*
X-5743694Y-11952647D01*
G37*
G36*
X-5743694Y-12036007D02*
G01*
X-5747862Y-12040175D01*
X-5752030Y-12036007D01*
X-5747862Y-12031839D01*
X-5743694Y-12036007D01*
G37*
G36*
X-5718686Y-11552515D02*
G01*
X-5722854Y-11556683D01*
X-5727022Y-11552515D01*
X-5722854Y-11548347D01*
X-5718686Y-11552515D01*
G37*
G36*
X-5443596Y-9210080D02*
G01*
X-5447764Y-9214248D01*
X-5451932Y-9210080D01*
X-5447764Y-9205912D01*
X-5443596Y-9210080D01*
G37*
G36*
X-5435260Y-9185072D02*
G01*
X-5439428Y-9189240D01*
X-5443596Y-9185072D01*
X-5439428Y-9180904D01*
X-5435260Y-9185072D01*
G37*
G36*
X-5426924Y-9168400D02*
G01*
X-5431092Y-9172568D01*
X-5435260Y-9168400D01*
X-5431092Y-9164232D01*
X-5426924Y-9168400D01*
G37*
G36*
X-5376907Y-8976670D02*
G01*
X-5381075Y-8980838D01*
X-5385243Y-8976670D01*
X-5381075Y-8972502D01*
X-5376907Y-8976670D01*
G37*
G36*
X-5360235Y-8893310D02*
G01*
X-5364403Y-8897478D01*
X-5368571Y-8893310D01*
X-5364403Y-8889142D01*
X-5360235Y-8893310D01*
G37*
G36*
X-5351899Y-9376802D02*
G01*
X-5356067Y-9380970D01*
X-5360235Y-9376802D01*
X-5356067Y-9372634D01*
X-5351899Y-9376802D01*
G37*
G36*
X-5268538Y-8601547D02*
G01*
X-5272707Y-8605715D01*
X-5276875Y-8601547D01*
X-5272707Y-8597379D01*
X-5268538Y-8601547D01*
G37*
G36*
X-5243530Y-8568203D02*
G01*
X-5247698Y-8572371D01*
X-5251866Y-8568203D01*
X-5247698Y-8564035D01*
X-5243530Y-8568203D01*
G37*
G36*
X-4985112Y-8384809D02*
G01*
X-4989280Y-8388977D01*
X-4993448Y-8384809D01*
X-4989280Y-8380641D01*
X-4985112Y-8384809D01*
G37*
G36*
X-4976776Y-8368137D02*
G01*
X-4980944Y-8372305D01*
X-4985112Y-8368137D01*
X-4980944Y-8363969D01*
X-4976776Y-8368137D01*
G37*
G36*
X-4960104Y-8351465D02*
G01*
X-4964272Y-8355633D01*
X-4968440Y-8351465D01*
X-4964272Y-8347297D01*
X-4960104Y-8351465D01*
G37*
G36*
X-4960104Y-8376473D02*
G01*
X-4964272Y-8380641D01*
X-4968440Y-8376473D01*
X-4964272Y-8372305D01*
X-4960104Y-8376473D01*
G37*
G36*
X-4918424Y-9576867D02*
G01*
X-4922592Y-9581035D01*
X-4926760Y-9576867D01*
X-4922592Y-9572699D01*
X-4918424Y-9576867D01*
G37*
G36*
X-4851735Y-8334793D02*
G01*
X-4855903Y-8338961D01*
X-4860071Y-8334793D01*
X-4855903Y-8330625D01*
X-4851735Y-8334793D01*
G37*
G36*
X-4826727Y-8068039D02*
G01*
X-4830895Y-8072207D01*
X-4835063Y-8068039D01*
X-4830895Y-8063871D01*
X-4826727Y-8068039D01*
G37*
G36*
X-4818391Y-8318121D02*
G01*
X-4822559Y-8322289D01*
X-4826727Y-8318121D01*
X-4822559Y-8313953D01*
X-4818391Y-8318121D01*
G37*
G36*
X-4785047Y-7917990D02*
G01*
X-4789215Y-7922158D01*
X-4793383Y-7917990D01*
X-4789215Y-7913822D01*
X-4785047Y-7917990D01*
G37*
G36*
X-4751702Y-7892981D02*
G01*
X-4755870Y-7897149D01*
X-4760038Y-7892981D01*
X-4755870Y-7888813D01*
X-4751702Y-7892981D01*
G37*
G36*
X-4735030Y-8018022D02*
G01*
X-4739198Y-8022190D01*
X-4743366Y-8018022D01*
X-4739198Y-8013854D01*
X-4735030Y-8018022D01*
G37*
G36*
X-4726694Y-8293113D02*
G01*
X-4730862Y-8297281D01*
X-4735030Y-8293113D01*
X-4730862Y-8288945D01*
X-4726694Y-8293113D01*
G37*
G36*
X-4693350Y-7901317D02*
G01*
X-4697518Y-7905485D01*
X-4701686Y-7901317D01*
X-4697518Y-7897149D01*
X-4693350Y-7901317D01*
G37*
G36*
X-4685014Y-7876309D02*
G01*
X-4689182Y-7880477D01*
X-4693350Y-7876309D01*
X-4689182Y-7872141D01*
X-4685014Y-7876309D01*
G37*
G36*
X-4276546Y-9351793D02*
G01*
X-4280714Y-9355961D01*
X-4284882Y-9351793D01*
X-4280714Y-9347625D01*
X-4276546Y-9351793D01*
G37*
G36*
X-4259874Y-9293441D02*
G01*
X-4264042Y-9297609D01*
X-4268210Y-9293441D01*
X-4264042Y-9289273D01*
X-4259874Y-9293441D01*
G37*
G36*
X-4243202Y-8384809D02*
G01*
X-4247370Y-8388977D01*
X-4251538Y-8384809D01*
X-4247370Y-8380641D01*
X-4243202Y-8384809D01*
G37*
G36*
X-4218194Y-9326785D02*
G01*
X-4222362Y-9330953D01*
X-4226530Y-9326785D01*
X-4222362Y-9322617D01*
X-4218194Y-9326785D01*
G37*
G36*
X-4209858Y-9310113D02*
G01*
X-4214026Y-9314281D01*
X-4218194Y-9310113D01*
X-4214026Y-9305945D01*
X-4209858Y-9310113D01*
G37*
G36*
X-4201522Y-9326785D02*
G01*
X-4205690Y-9330953D01*
X-4209858Y-9326785D01*
X-4205690Y-9322617D01*
X-4201522Y-9326785D01*
G37*
G36*
X-4193186Y-9268433D02*
G01*
X-4197354Y-9272601D01*
X-4201522Y-9268433D01*
X-4197354Y-9264265D01*
X-4193186Y-9268433D01*
G37*
G36*
X-4184850Y-9235088D02*
G01*
X-4189018Y-9239256D01*
X-4193186Y-9235088D01*
X-4189018Y-9230920D01*
X-4184850Y-9235088D01*
G37*
G36*
X-4176514Y-9276769D02*
G01*
X-4180682Y-9280937D01*
X-4184850Y-9276769D01*
X-4180682Y-9272601D01*
X-4176514Y-9276769D01*
G37*
G36*
X-4143169Y-8443162D02*
G01*
X-4147337Y-8447330D01*
X-4151505Y-8443162D01*
X-4147337Y-8438994D01*
X-4143169Y-8443162D01*
G37*
G36*
X-4126497Y-8468170D02*
G01*
X-4130665Y-8472338D01*
X-4134833Y-8468170D01*
X-4130665Y-8464002D01*
X-4126497Y-8468170D01*
G37*
G36*
X-4109825Y-8459834D02*
G01*
X-4113993Y-8464002D01*
X-4118161Y-8459834D01*
X-4113993Y-8455666D01*
X-4109825Y-8459834D01*
G37*
G36*
X-4101489Y-8493178D02*
G01*
X-4105657Y-8497346D01*
X-4109825Y-8493178D01*
X-4105657Y-8489010D01*
X-4101489Y-8493178D01*
G37*
G36*
X-4093153Y-8459834D02*
G01*
X-4097321Y-8464002D01*
X-4101489Y-8459834D01*
X-4097321Y-8455666D01*
X-4093153Y-8459834D01*
G37*
G36*
X-4093153Y-8476506D02*
G01*
X-4097321Y-8480674D01*
X-4101489Y-8476506D01*
X-4097321Y-8472338D01*
X-4093153Y-8476506D01*
G37*
G36*
X-4084817Y-8651564D02*
G01*
X-4088985Y-8655732D01*
X-4093153Y-8651564D01*
X-4088985Y-8647396D01*
X-4084817Y-8651564D01*
G37*
G36*
X-4051473Y-8643228D02*
G01*
X-4055641Y-8647396D01*
X-4059809Y-8643228D01*
X-4055641Y-8639060D01*
X-4051473Y-8643228D01*
G37*
G36*
X-4051473Y-8718252D02*
G01*
X-4055641Y-8722420D01*
X-4059809Y-8718252D01*
X-4055641Y-8714084D01*
X-4051473Y-8718252D01*
G37*
G36*
X-4051473Y-8768269D02*
G01*
X-4055641Y-8772437D01*
X-4059809Y-8768269D01*
X-4055641Y-8764101D01*
X-4051473Y-8768269D01*
G37*
G36*
X-4034800Y-9093375D02*
G01*
X-4038968Y-9097543D01*
X-4043136Y-9093375D01*
X-4038968Y-9089207D01*
X-4034800Y-9093375D01*
G37*
G36*
X-3701358Y-8418154D02*
G01*
X-3705526Y-8422322D01*
X-3709694Y-8418154D01*
X-3705526Y-8413986D01*
X-3701358Y-8418154D01*
G37*
G36*
X-3234538Y-8109719D02*
G01*
X-3238706Y-8113887D01*
X-3242874Y-8109719D01*
X-3238706Y-8105551D01*
X-3234538Y-8109719D01*
G37*
G36*
X-2400931Y-12394458D02*
G01*
X-2405099Y-12398626D01*
X-2409267Y-12394458D01*
X-2405099Y-12390290D01*
X-2400931Y-12394458D01*
G37*
G36*
X-2342579Y-12469483D02*
G01*
X-2346747Y-12473651D01*
X-2350915Y-12469483D01*
X-2346747Y-12465315D01*
X-2342579Y-12469483D01*
G37*
G36*
X-2317570Y-12502827D02*
G01*
X-2321738Y-12506995D01*
X-2325906Y-12502827D01*
X-2321738Y-12498659D01*
X-2317570Y-12502827D01*
G37*
G36*
X-6219508Y-12093665D02*
G01*
X-6220098Y-12102120D01*
X-6223887Y-12104606D01*
X-6225539Y-12101657D01*
X-6224545Y-12088629D01*
X-6221544Y-12084770D01*
X-6219508Y-12093665D01*
G37*
G36*
X-5451932Y-9230920D02*
G01*
X-5452534Y-9235333D01*
X-5457489Y-9236478D01*
X-5458487Y-9235256D01*
X-5457489Y-9225363D01*
X-5454982Y-9224059D01*
X-5451932Y-9230920D01*
G37*
G36*
X-5410252Y-9114215D02*
G01*
X-5410853Y-9118628D01*
X-5415809Y-9119773D01*
X-5416807Y-9118551D01*
X-5415809Y-9108658D01*
X-5413302Y-9107354D01*
X-5410252Y-9114215D01*
G37*
G36*
X-5335227Y-8805781D02*
G01*
X-5335829Y-8810194D01*
X-5340784Y-8811338D01*
X-5341782Y-8810116D01*
X-5340784Y-8800223D01*
X-5338277Y-8798919D01*
X-5335227Y-8805781D01*
G37*
G36*
X-5193514Y-9430986D02*
G01*
X-5194115Y-9435399D01*
X-5199071Y-9436543D01*
X-5200069Y-9435322D01*
X-5199071Y-9425429D01*
X-5196564Y-9424124D01*
X-5193514Y-9430986D01*
G37*
G36*
X-4768374Y-7905485D02*
G01*
X-4768976Y-7909899D01*
X-4773932Y-7911043D01*
X-4774929Y-7909821D01*
X-4773932Y-7899928D01*
X-4771424Y-7898624D01*
X-4768374Y-7905485D01*
G37*
G36*
X-4725131Y-7999824D02*
G01*
X-4721273Y-8002824D01*
X-4730167Y-8004860D01*
X-4738622Y-8004271D01*
X-4741108Y-8000482D01*
X-4738159Y-7998830D01*
X-4725131Y-7999824D01*
G37*
G36*
X-4729473Y-7949945D02*
G01*
X-4728169Y-7952452D01*
X-4735030Y-7955502D01*
X-4739443Y-7954900D01*
X-4740587Y-7949945D01*
X-4739366Y-7948947D01*
X-4729473Y-7949945D01*
G37*
G36*
X-5327907Y-9371969D02*
G01*
X-5322999Y-9376881D01*
X-5322596Y-9389100D01*
X-5326876Y-9393681D01*
X-5337106Y-9390761D01*
X-5343189Y-9378711D01*
X-5339198Y-9370341D01*
X-5327907Y-9371969D01*
G37*
G36*
X-4714249Y-7780540D02*
G01*
X-4715882Y-7782726D01*
X-4727186Y-7788781D01*
X-4731861Y-7788340D01*
X-4733827Y-7783991D01*
X-4722093Y-7777264D01*
X-4715591Y-7775803D01*
X-4714249Y-7780540D01*
G37*
G36*
X-4655041Y-7687460D02*
G01*
X-4657615Y-7691163D01*
X-4664665Y-7697084D01*
X-4665831Y-7697003D01*
X-4667667Y-7692177D01*
X-4658717Y-7683784D01*
X-4654059Y-7681755D01*
X-4655041Y-7687460D01*
G37*
G36*
X-4113197Y-8479386D02*
G01*
X-4114304Y-8481083D01*
X-4122541Y-8488760D01*
X-4126497Y-8485334D01*
X-4125752Y-8483459D01*
X-4116873Y-8475710D01*
X-4112214Y-8473682D01*
X-4113197Y-8479386D01*
G37*
G36*
X-3321271Y-7887525D02*
G01*
X-3323844Y-7891228D01*
X-3330895Y-7897149D01*
X-3332060Y-7897068D01*
X-3333896Y-7892243D01*
X-3324947Y-7883849D01*
X-3320288Y-7881821D01*
X-3321271Y-7887525D01*
G37*
G36*
X-6133721Y-12048430D02*
G01*
X-6127154Y-12057739D01*
X-6128090Y-12060723D01*
X-6138268Y-12065184D01*
X-6143083Y-12064021D01*
X-6149383Y-12053474D01*
X-6148036Y-12048421D01*
X-6138268Y-12046030D01*
X-6133721Y-12048430D01*
G37*
G36*
X-6089159Y-11998870D02*
G01*
X-6081305Y-12006831D01*
X-6079752Y-12009782D01*
X-6080321Y-12015167D01*
X-6081787Y-12014792D01*
X-6089641Y-12006831D01*
X-6091194Y-12003880D01*
X-6090625Y-11998495D01*
X-6089159Y-11998870D01*
G37*
G36*
X-6072487Y-12023878D02*
G01*
X-6064633Y-12031839D01*
X-6063080Y-12034791D01*
X-6063649Y-12040175D01*
X-6065115Y-12039800D01*
X-6072969Y-12031839D01*
X-6074522Y-12028888D01*
X-6073953Y-12023503D01*
X-6072487Y-12023878D01*
G37*
G36*
X-5915245Y-12149199D02*
G01*
X-5914584Y-12156880D01*
X-5916295Y-12159375D01*
X-5923412Y-12165216D01*
X-5924244Y-12165000D01*
X-5927088Y-12156880D01*
X-5926749Y-12154595D01*
X-5918260Y-12148544D01*
X-5915245Y-12149199D01*
G37*
G36*
X-5360235Y-8671912D02*
G01*
X-5360556Y-8674331D01*
X-5368571Y-8680740D01*
X-5370458Y-8680644D01*
X-5376907Y-8677064D01*
X-5376524Y-8675727D01*
X-5368571Y-8668236D01*
X-5365342Y-8666933D01*
X-5360235Y-8671912D01*
G37*
G36*
X-5238517Y-9398025D02*
G01*
X-5231026Y-9405978D01*
X-5229724Y-9409207D01*
X-5234702Y-9414314D01*
X-5237122Y-9413994D01*
X-5243530Y-9405978D01*
X-5243435Y-9404091D01*
X-5239854Y-9397642D01*
X-5238517Y-9398025D01*
G37*
G36*
X-4958020Y-9613316D02*
G01*
X-4949128Y-9620946D01*
X-4943432Y-9627904D01*
X-4943569Y-9629367D01*
X-4949000Y-9629423D01*
X-4961167Y-9616464D01*
X-4965824Y-9610424D01*
X-4967894Y-9606107D01*
X-4958020Y-9613316D01*
G37*
G36*
X-4171864Y-8381016D02*
G01*
X-4164009Y-8388977D01*
X-4162457Y-8391929D01*
X-4163025Y-8397314D01*
X-4164491Y-8396938D01*
X-4172345Y-8388977D01*
X-4173898Y-8386026D01*
X-4173329Y-8380641D01*
X-4171864Y-8381016D01*
G37*
G36*
X-2382006Y-12421170D02*
G01*
X-2375923Y-12432955D01*
X-2376565Y-12435758D01*
X-2384259Y-12436139D01*
X-2386512Y-12434435D01*
X-2392595Y-12422651D01*
X-2391953Y-12419848D01*
X-2384259Y-12419466D01*
X-2382006Y-12421170D01*
G37*
G36*
X-1748441Y-13163083D02*
G01*
X-1742382Y-13174373D01*
X-1742620Y-13176234D01*
X-1750718Y-13182217D01*
X-1754701Y-13180626D01*
X-1759054Y-13169221D01*
X-1757854Y-13163266D01*
X-1750718Y-13161377D01*
X-1748441Y-13163083D01*
G37*
G36*
X-4245809Y-9287241D02*
G01*
X-4243544Y-9291270D01*
X-4235543Y-9293859D01*
X-4232918Y-9293242D01*
X-4229309Y-9300754D01*
X-4229844Y-9305515D01*
X-4236008Y-9311608D01*
X-4244382Y-9307149D01*
X-4249019Y-9294136D01*
X-4248606Y-9285467D01*
X-4245809Y-9287241D01*
G37*
G36*
X-4055095Y-8748312D02*
G01*
X-4052843Y-8753406D01*
X-4058521Y-8752392D01*
X-4062880Y-8750662D01*
X-4068145Y-8755272D01*
X-4070084Y-8759758D01*
X-4082038Y-8764101D01*
X-4088841Y-8763743D01*
X-4092458Y-8761742D01*
X-4087935Y-8758460D01*
X-4075139Y-8748833D01*
X-4063333Y-8742625D01*
X-4055095Y-8748312D01*
G37*
G36*
X-4967622Y-8991708D02*
G01*
X-4941788Y-8996267D01*
X-4930326Y-9003148D01*
X-4934003Y-9011478D01*
X-4953585Y-9020385D01*
X-4956803Y-9021405D01*
X-4985474Y-9028683D01*
X-5004014Y-9028488D01*
X-5016789Y-9020851D01*
X-5026321Y-9008842D01*
X-5026200Y-8997350D01*
X-5010671Y-8991408D01*
X-4979519Y-8990842D01*
X-4967622Y-8991708D01*
G37*
G36*
X-4396917Y-9371820D02*
G01*
X-4397198Y-9372241D01*
X-4407354Y-9377449D01*
X-4420241Y-9377272D01*
X-4426596Y-9371736D01*
X-4425761Y-9368465D01*
X-4409923Y-9368465D01*
X-4405755Y-9372634D01*
X-4401587Y-9368465D01*
X-4405755Y-9364297D01*
X-4409923Y-9368465D01*
X-4425761Y-9368465D01*
X-4425377Y-9366962D01*
X-4414889Y-9359014D01*
X-4401451Y-9360213D01*
X-4398794Y-9362389D01*
X-4397585Y-9368465D01*
X-4396917Y-9371820D01*
G37*
G36*
X-5895155Y-11800811D02*
G01*
X-5904775Y-11806615D01*
X-5907216Y-11805966D01*
X-5909492Y-11797674D01*
X-5908349Y-11794261D01*
X-5902080Y-11794261D01*
X-5897912Y-11798429D01*
X-5893744Y-11794261D01*
X-5897912Y-11790093D01*
X-5902080Y-11794261D01*
X-5908349Y-11794261D01*
X-5905678Y-11786283D01*
X-5897912Y-11780060D01*
X-5891777Y-11777444D01*
X-5879837Y-11765925D01*
X-5873192Y-11759143D01*
X-5864928Y-11757778D01*
X-5864439Y-11758572D01*
X-5867476Y-11768940D01*
X-5878835Y-11784706D01*
X-5880721Y-11786821D01*
X-5888397Y-11794261D01*
X-5895155Y-11800811D01*
G37*
G36*
X-4840459Y-9541450D02*
G01*
X-4839637Y-9549011D01*
X-4844176Y-9551379D01*
X-4846742Y-9550319D01*
X-4851735Y-9555535D01*
X-4852055Y-9557955D01*
X-4860071Y-9564363D01*
X-4863664Y-9563207D01*
X-4868407Y-9552593D01*
X-4872026Y-9545415D01*
X-4887858Y-9542958D01*
X-4900347Y-9541997D01*
X-4907287Y-9535187D01*
X-4885079Y-9535187D01*
X-4880911Y-9539355D01*
X-4876743Y-9535187D01*
X-4880911Y-9531019D01*
X-4885079Y-9535187D01*
X-4907287Y-9535187D01*
X-4907309Y-9535165D01*
X-4901887Y-9528201D01*
X-4886372Y-9525194D01*
X-4866842Y-9526787D01*
X-4849477Y-9532400D01*
X-4846700Y-9535187D01*
X-4840459Y-9541450D01*
G37*
G36*
X-5549941Y-11410963D02*
G01*
X-5561131Y-11427474D01*
X-5562208Y-11429063D01*
X-5563927Y-11430991D01*
X-5576140Y-11435491D01*
X-5586600Y-11430318D01*
X-5586950Y-11427474D01*
X-5576973Y-11427474D01*
X-5572805Y-11431642D01*
X-5568637Y-11427474D01*
X-5572805Y-11423306D01*
X-5576973Y-11427474D01*
X-5586950Y-11427474D01*
X-5588059Y-11418448D01*
X-5585511Y-11413180D01*
X-5583079Y-11410802D01*
X-5568637Y-11410802D01*
X-5564469Y-11414970D01*
X-5560301Y-11410802D01*
X-5564469Y-11406634D01*
X-5568637Y-11410802D01*
X-5583079Y-11410802D01*
X-5578165Y-11405996D01*
X-5573549Y-11405306D01*
X-5558177Y-11402560D01*
X-5549390Y-11402827D01*
X-5549930Y-11410802D01*
X-5549941Y-11410963D01*
G37*
G36*
X-4103326Y-8643392D02*
G01*
X-4115170Y-8650989D01*
X-4122379Y-8647788D01*
X-4121861Y-8643228D01*
X-4118161Y-8643228D01*
X-4113993Y-8647396D01*
X-4109825Y-8643228D01*
X-4113993Y-8639060D01*
X-4118161Y-8643228D01*
X-4121861Y-8643228D01*
X-4120805Y-8633926D01*
X-4115651Y-8625772D01*
X-4108793Y-8632109D01*
X-4105154Y-8637024D01*
X-4101617Y-8637657D01*
X-4100729Y-8632621D01*
X-4095904Y-8617534D01*
X-4093952Y-8607927D01*
X-4101360Y-8609804D01*
X-4107772Y-8612644D01*
X-4106004Y-8606277D01*
X-4101208Y-8601190D01*
X-4090973Y-8604561D01*
X-4087671Y-8615304D01*
X-4096448Y-8634729D01*
X-4103196Y-8643228D01*
X-4103326Y-8643392D01*
G37*
G36*
X-4142749Y-9255929D02*
G01*
X-4145958Y-9255137D01*
X-4155097Y-9245067D01*
X-4156824Y-9243424D01*
X-4151505Y-9243424D01*
X-4147337Y-9247592D01*
X-4143169Y-9243424D01*
X-4147337Y-9239256D01*
X-4151505Y-9243424D01*
X-4156824Y-9243424D01*
X-4164891Y-9235751D01*
X-4170654Y-9240899D01*
X-4173129Y-9243798D01*
X-4173995Y-9234394D01*
X-4171433Y-9224050D01*
X-4162707Y-9217027D01*
X-4158761Y-9217654D01*
X-4156532Y-9223974D01*
X-4157428Y-9226009D01*
X-4152609Y-9230920D01*
X-4147628Y-9228688D01*
X-4140303Y-9216332D01*
X-4139961Y-9215222D01*
X-4138751Y-9216139D01*
X-4139048Y-9227033D01*
X-4140498Y-9242198D01*
X-4140699Y-9243424D01*
X-4142749Y-9255929D01*
G37*
G36*
X-6004661Y-11896673D02*
G01*
X-6016584Y-11906942D01*
X-6036643Y-11911200D01*
X-6049282Y-11903122D01*
X-6027121Y-11903122D01*
X-6027040Y-11904288D01*
X-6022214Y-11906123D01*
X-6013821Y-11897174D01*
X-6011792Y-11892516D01*
X-6017497Y-11893498D01*
X-6021200Y-11896071D01*
X-6027121Y-11903122D01*
X-6049282Y-11903122D01*
X-6055920Y-11898879D01*
X-6058361Y-11896093D01*
X-6061864Y-11889067D01*
X-6054367Y-11886139D01*
X-6033045Y-11885680D01*
X-6026486Y-11885604D01*
X-6005648Y-11882684D01*
X-5997958Y-11876233D01*
X-5997789Y-11873723D01*
X-5992318Y-11860881D01*
X-5989892Y-11858815D01*
X-5986998Y-11860557D01*
X-5989605Y-11870666D01*
X-5996048Y-11884315D01*
X-6001764Y-11892516D01*
X-6004661Y-11896673D01*
G37*
G36*
X-4433597Y-9574057D02*
G01*
X-4434564Y-9576867D01*
X-4438580Y-9588531D01*
X-4440656Y-9591036D01*
X-4452060Y-9593459D01*
X-4462631Y-9586811D01*
X-4464293Y-9576867D01*
X-4459940Y-9576867D01*
X-4455772Y-9581035D01*
X-4451604Y-9576867D01*
X-4455772Y-9572699D01*
X-4459940Y-9576867D01*
X-4464293Y-9576867D01*
X-4464587Y-9575110D01*
X-4462509Y-9569355D01*
X-4460044Y-9560195D01*
X-4451604Y-9560195D01*
X-4447436Y-9564363D01*
X-4443268Y-9560195D01*
X-4447436Y-9556027D01*
X-4451604Y-9560195D01*
X-4460044Y-9560195D01*
X-4459940Y-9559807D01*
X-4456919Y-9556301D01*
X-4444451Y-9548324D01*
X-4438780Y-9545558D01*
X-4431334Y-9546174D01*
X-4431161Y-9560059D01*
X-4431185Y-9560195D01*
X-4433597Y-9574057D01*
G37*
G36*
X-1705123Y-13284346D02*
G01*
X-1715054Y-13299588D01*
X-1718146Y-13302736D01*
X-1728460Y-13312627D01*
X-1735261Y-13314359D01*
X-1745868Y-13310534D01*
X-1752302Y-13306579D01*
X-1759054Y-13293862D01*
X-1763558Y-13281501D01*
X-1769390Y-13273913D01*
X-1742382Y-13273913D01*
X-1742286Y-13275800D01*
X-1738706Y-13282250D01*
X-1737368Y-13281866D01*
X-1729877Y-13273913D01*
X-1728575Y-13270684D01*
X-1733554Y-13265577D01*
X-1735973Y-13265898D01*
X-1742382Y-13273913D01*
X-1769390Y-13273913D01*
X-1776030Y-13265273D01*
X-1780337Y-13260545D01*
X-1787862Y-13244824D01*
X-1782101Y-13235351D01*
X-1764327Y-13235379D01*
X-1759434Y-13236328D01*
X-1741185Y-13235041D01*
X-1729451Y-13227518D01*
X-1729301Y-13216493D01*
X-1730937Y-13212465D01*
X-1726495Y-13207225D01*
X-1719439Y-13210697D01*
X-1709037Y-13223897D01*
X-1704703Y-13234757D01*
X-1708538Y-13240569D01*
X-1712763Y-13245130D01*
X-1708596Y-13262571D01*
X-1707294Y-13266167D01*
X-1706755Y-13270684D01*
X-1705123Y-13284346D01*
G37*
G36*
X-5735358Y-11709809D02*
G01*
X-5735358Y-11723897D01*
X-5736409Y-11727246D01*
X-5744982Y-11726777D01*
X-5749795Y-11724735D01*
X-5748412Y-11730852D01*
X-5746259Y-11736124D01*
X-5746848Y-11752581D01*
X-5746862Y-11752980D01*
X-5754517Y-11761931D01*
X-5768091Y-11765417D01*
X-5780001Y-11761451D01*
X-5782759Y-11752581D01*
X-5777039Y-11752581D01*
X-5772871Y-11756749D01*
X-5768703Y-11752581D01*
X-5760366Y-11752581D01*
X-5756198Y-11756749D01*
X-5752030Y-11752581D01*
X-5756198Y-11748413D01*
X-5760366Y-11752581D01*
X-5768703Y-11752581D01*
X-5772871Y-11748413D01*
X-5777039Y-11752581D01*
X-5782759Y-11752581D01*
X-5783407Y-11750497D01*
X-5779862Y-11743008D01*
X-5768880Y-11738463D01*
X-5766420Y-11738950D01*
X-5762110Y-11737134D01*
X-5769376Y-11726443D01*
X-5771700Y-11723540D01*
X-5776433Y-11715977D01*
X-5769894Y-11718680D01*
X-5767566Y-11719974D01*
X-5761921Y-11719264D01*
X-5763131Y-11712019D01*
X-5750556Y-11712019D01*
X-5743694Y-11715069D01*
X-5739281Y-11714467D01*
X-5738137Y-11709511D01*
X-5739359Y-11708514D01*
X-5749252Y-11709511D01*
X-5750556Y-11712019D01*
X-5763131Y-11712019D01*
X-5764188Y-11705693D01*
X-5766173Y-11694423D01*
X-5762997Y-11694229D01*
X-5760438Y-11696760D01*
X-5745778Y-11702565D01*
X-5741979Y-11702997D01*
X-5735358Y-11708817D01*
X-5735358Y-11709511D01*
X-5735358Y-11709809D01*
G37*
G36*
X-4399443Y-8484535D02*
G01*
X-4354742Y-8493404D01*
X-4337632Y-8498821D01*
X-4308955Y-8510348D01*
X-4289093Y-8524670D01*
X-4273123Y-8546044D01*
X-4256123Y-8578731D01*
X-4243623Y-8604778D01*
X-4231333Y-8631614D01*
X-4222815Y-8653567D01*
X-4216341Y-8675949D01*
X-4210182Y-8704075D01*
X-4202610Y-8743260D01*
X-4201565Y-8748420D01*
X-4194792Y-8774181D01*
X-4187503Y-8793277D01*
X-4179192Y-8817822D01*
X-4173671Y-8858661D01*
X-4172742Y-8909862D01*
X-4176598Y-8968334D01*
X-4178183Y-8983361D01*
X-4183844Y-9029844D01*
X-4189986Y-9064991D01*
X-4197692Y-9092984D01*
X-4208044Y-9118006D01*
X-4222126Y-9144240D01*
X-4246990Y-9179255D01*
X-4281082Y-9207603D01*
X-4326563Y-9228401D01*
X-4336121Y-9230843D01*
X-4366041Y-9234309D01*
X-4405254Y-9235557D01*
X-4448867Y-9234634D01*
X-4491987Y-9231587D01*
X-4529721Y-9226462D01*
X-4530760Y-9226263D01*
X-4564172Y-9212212D01*
X-4598223Y-9185092D01*
X-4630502Y-9148108D01*
X-4658598Y-9104464D01*
X-4680099Y-9057365D01*
X-4692594Y-9010015D01*
X-4695578Y-8989010D01*
X-4701984Y-8920391D01*
X-4703866Y-8851462D01*
X-4701426Y-8785542D01*
X-4694864Y-8725954D01*
X-4684381Y-8676019D01*
X-4670177Y-8639060D01*
X-4650770Y-8609471D01*
X-4623739Y-8576260D01*
X-4593398Y-8544165D01*
X-4563834Y-8517505D01*
X-4539132Y-8500595D01*
X-4533782Y-8498087D01*
X-4495174Y-8487119D01*
X-4448324Y-8482521D01*
X-4399443Y-8484535D01*
G37*
G36*
X-5041046Y-8691913D02*
G01*
X-5040805Y-8736236D01*
X-5042963Y-8783943D01*
X-5047121Y-8832170D01*
X-5052883Y-8878052D01*
X-5059851Y-8918724D01*
X-5067629Y-8951322D01*
X-5075820Y-8972982D01*
X-5084025Y-8980838D01*
X-5085269Y-8981064D01*
X-5094708Y-8990839D01*
X-5106547Y-9012301D01*
X-5119259Y-9041639D01*
X-5131315Y-9075043D01*
X-5141190Y-9108702D01*
X-5147354Y-9138806D01*
X-5151970Y-9157324D01*
X-5168947Y-9188494D01*
X-5193524Y-9212456D01*
X-5221605Y-9224484D01*
X-5227139Y-9225210D01*
X-5262805Y-9221525D01*
X-5291948Y-9202624D01*
X-5314016Y-9168840D01*
X-5323989Y-9142179D01*
X-5337210Y-9086985D01*
X-5345136Y-9024223D01*
X-5347196Y-8959263D01*
X-5342820Y-8897478D01*
X-5342304Y-8893570D01*
X-5337132Y-8851350D01*
X-5332417Y-8808040D01*
X-5329123Y-8772437D01*
X-5329001Y-8770900D01*
X-5325952Y-8742991D01*
X-5322507Y-8731182D01*
X-5318511Y-8734924D01*
X-5315740Y-8739847D01*
X-5313172Y-8733919D01*
X-5312512Y-8711658D01*
X-5312481Y-8710541D01*
X-5308204Y-8710541D01*
X-5303811Y-8711881D01*
X-5296825Y-8704378D01*
X-5293800Y-8689771D01*
X-5293892Y-8687155D01*
X-5296081Y-8682175D01*
X-5302900Y-8691785D01*
X-5307457Y-8701515D01*
X-5308204Y-8710541D01*
X-5312481Y-8710541D01*
X-5312162Y-8699061D01*
X-5308879Y-8675671D01*
X-5303208Y-8662059D01*
X-5298797Y-8656036D01*
X-5293547Y-8637884D01*
X-5292368Y-8630081D01*
X-5284319Y-8617668D01*
X-5282396Y-8616744D01*
X-5278589Y-8621290D01*
X-5281128Y-8640101D01*
X-5287164Y-8668236D01*
X-5270934Y-8647396D01*
X-5258332Y-8629169D01*
X-5249682Y-8612756D01*
X-5238805Y-8598298D01*
X-5216848Y-8580213D01*
X-5188733Y-8562027D01*
X-5159220Y-8546810D01*
X-5133071Y-8537629D01*
X-5117099Y-8535114D01*
X-5091308Y-8538081D01*
X-5071709Y-8552459D01*
X-5057480Y-8579499D01*
X-5047800Y-8620453D01*
X-5041847Y-8676572D01*
X-5041158Y-8689771D01*
X-5041046Y-8691913D01*
G37*
G36*
X-4327080Y-7486689D02*
G01*
X-4327049Y-7486729D01*
X-4311566Y-7519965D01*
X-4311195Y-7521248D01*
X-4302898Y-7549969D01*
X-4292606Y-7591371D01*
X-4287675Y-7623374D01*
X-4287616Y-7649836D01*
X-4290986Y-7669156D01*
X-4291938Y-7674613D01*
X-4293823Y-7682764D01*
X-4299337Y-7716470D01*
X-4301555Y-7747172D01*
X-4301681Y-7752887D01*
X-4304996Y-7779579D01*
X-4311406Y-7799749D01*
X-4317514Y-7813985D01*
X-4323473Y-7837943D01*
X-4326639Y-7851913D01*
X-4334461Y-7866702D01*
X-4340240Y-7878174D01*
X-4343235Y-7898325D01*
X-4345397Y-7914973D01*
X-4351571Y-7926326D01*
X-4355915Y-7931295D01*
X-4359907Y-7946963D01*
X-4361177Y-7955700D01*
X-4368002Y-7965227D01*
X-4373450Y-7970648D01*
X-4378878Y-7986391D01*
X-4382683Y-7999463D01*
X-4394228Y-8019735D01*
X-4394264Y-8019778D01*
X-4407877Y-8037446D01*
X-4422949Y-8058896D01*
X-4429041Y-8068093D01*
X-4433140Y-8074281D01*
X-4455552Y-8109719D01*
X-4467138Y-8128039D01*
X-4470112Y-8133366D01*
X-4480180Y-8151400D01*
X-4490657Y-8170167D01*
X-4503984Y-8201492D01*
X-4507408Y-8222842D01*
X-4501217Y-8235045D01*
X-4485702Y-8238928D01*
X-4475848Y-8240299D01*
X-4464108Y-8247264D01*
X-4457518Y-8252238D01*
X-4440692Y-8255865D01*
X-4426769Y-8258398D01*
X-4406246Y-8268370D01*
X-4390716Y-8276144D01*
X-4367142Y-8280609D01*
X-4350416Y-8282778D01*
X-4339067Y-8288945D01*
X-4328958Y-8294660D01*
X-4309891Y-8297281D01*
X-4292007Y-8299563D01*
X-4280714Y-8305617D01*
X-4275274Y-8310150D01*
X-4259269Y-8313953D01*
X-4249666Y-8314866D01*
X-4228501Y-8321353D01*
X-4227148Y-8322036D01*
X-4209220Y-8330630D01*
X-4182656Y-8342962D01*
X-4153325Y-8356351D01*
X-4127092Y-8368117D01*
X-4109825Y-8375580D01*
X-4096889Y-8382031D01*
X-4074360Y-8394374D01*
X-4047304Y-8409849D01*
X-4020609Y-8424972D01*
X-3997089Y-8437472D01*
X-3982700Y-8444147D01*
X-3975064Y-8447467D01*
X-3968813Y-8456836D01*
X-3978115Y-8470671D01*
X-3982365Y-8476138D01*
X-3980684Y-8480674D01*
X-3977016Y-8479251D01*
X-3963745Y-8468689D01*
X-3946281Y-8451509D01*
X-3928726Y-8432124D01*
X-3915185Y-8414947D01*
X-3909759Y-8404391D01*
X-3908519Y-8400800D01*
X-3898549Y-8387175D01*
X-3881854Y-8369662D01*
X-3873850Y-8361798D01*
X-3858306Y-8344800D01*
X-3850593Y-8333707D01*
X-3843796Y-8322924D01*
X-3827040Y-8302174D01*
X-3802415Y-8274034D01*
X-3776404Y-8245498D01*
X-3744107Y-8245498D01*
X-3741488Y-8312975D01*
X-3741066Y-8322660D01*
X-3738288Y-8356697D01*
X-3733756Y-8376754D01*
X-3727032Y-8384997D01*
X-3721141Y-8386206D01*
X-3710360Y-8381757D01*
X-3704872Y-8376953D01*
X-3688854Y-8371054D01*
X-3676497Y-8371904D01*
X-3672308Y-8380135D01*
X-3678642Y-8392159D01*
X-3694737Y-8403732D01*
X-3709465Y-8414373D01*
X-3713091Y-8425493D01*
X-3707624Y-8431324D01*
X-3695152Y-8430952D01*
X-3671533Y-8424145D01*
X-3659839Y-8420404D01*
X-3640979Y-8416138D01*
X-3628417Y-8418349D01*
X-3615667Y-8427416D01*
X-3614786Y-8428154D01*
X-3604117Y-8436439D01*
X-3603012Y-8435829D01*
X-3604532Y-8426882D01*
X-3594950Y-8415418D01*
X-3576870Y-8406146D01*
X-3554600Y-8402069D01*
X-3551607Y-8401973D01*
X-3533666Y-8399639D01*
X-3526325Y-8395436D01*
X-3520346Y-8393525D01*
X-3504917Y-8397520D01*
X-3485294Y-8403943D01*
X-3471837Y-8404273D01*
X-3467948Y-8396034D01*
X-3465869Y-8387499D01*
X-3458175Y-8367286D01*
X-3446756Y-8341622D01*
X-3438078Y-8321083D01*
X-3431581Y-8299484D01*
X-3431372Y-8287430D01*
X-3433276Y-8283002D01*
X-3427555Y-8283981D01*
X-3423170Y-8285661D01*
X-3417931Y-8280609D01*
X-3417376Y-8277533D01*
X-3410013Y-8276182D01*
X-3402939Y-8275433D01*
X-3393048Y-8264170D01*
X-3384972Y-8253892D01*
X-3371581Y-8247264D01*
X-3361439Y-8240363D01*
X-3354120Y-8222053D01*
X-3344149Y-8199963D01*
X-3323068Y-8178321D01*
X-3318130Y-8174820D01*
X-3302679Y-8164101D01*
X-3295849Y-8159768D01*
X-3289989Y-8164289D01*
X-3276896Y-8175794D01*
X-3274244Y-8178132D01*
X-3260018Y-8186492D01*
X-3249430Y-8182130D01*
X-3244353Y-8175648D01*
X-3238683Y-8162682D01*
X-3238105Y-8152796D01*
X-3243742Y-8151936D01*
X-3246421Y-8154776D01*
X-3245841Y-8166564D01*
X-3243993Y-8170539D01*
X-3247244Y-8170006D01*
X-3252383Y-8158957D01*
X-3255426Y-8139250D01*
X-3255477Y-8134727D01*
X-3251210Y-8134727D01*
X-3247042Y-8138895D01*
X-3242874Y-8134727D01*
X-3247042Y-8130559D01*
X-3251210Y-8134727D01*
X-3255477Y-8134727D01*
X-3255551Y-8128178D01*
X-3252230Y-8119644D01*
X-3242225Y-8122571D01*
X-3235529Y-8125480D01*
X-3229822Y-8122300D01*
X-3229569Y-8105917D01*
X-3229597Y-8105492D01*
X-3229153Y-8089593D01*
X-3225862Y-8084921D01*
X-3224951Y-8085100D01*
X-3218782Y-8077631D01*
X-3211775Y-8059920D01*
X-3208552Y-8048247D01*
X-3207688Y-8033742D01*
X-3214641Y-8027150D01*
X-3225064Y-8017234D01*
X-3224117Y-8009686D01*
X-3217866Y-8009686D01*
X-3213698Y-8013854D01*
X-3209530Y-8009686D01*
X-3213698Y-8005518D01*
X-3217866Y-8009686D01*
X-3224117Y-8009686D01*
X-3223419Y-8004116D01*
X-3210153Y-7994930D01*
X-3198690Y-7994550D01*
X-3198977Y-8004378D01*
X-3200237Y-8009686D01*
X-3200566Y-8011074D01*
X-3197228Y-8012034D01*
X-3193054Y-8004590D01*
X-3189648Y-7987026D01*
X-3186010Y-7973961D01*
X-3172129Y-7967991D01*
X-3171489Y-7967983D01*
X-3156963Y-7961238D01*
X-3152626Y-7944606D01*
X-3159565Y-7922062D01*
X-3164728Y-7907568D01*
X-3162536Y-7901317D01*
X-3158922Y-7901317D01*
X-3155739Y-7912545D01*
X-3147009Y-7930494D01*
X-3146650Y-7931118D01*
X-3138477Y-7942886D01*
X-3135096Y-7942998D01*
X-3138279Y-7931771D01*
X-3147009Y-7913822D01*
X-3147368Y-7913198D01*
X-3155541Y-7901429D01*
X-3158922Y-7901317D01*
X-3162536Y-7901317D01*
X-3159687Y-7893191D01*
X-3155058Y-7885533D01*
X-3159244Y-7876475D01*
X-3162404Y-7873325D01*
X-3162481Y-7861145D01*
X-3160602Y-7857154D01*
X-3163605Y-7857424D01*
X-3170467Y-7858057D01*
X-3182294Y-7849087D01*
X-3185451Y-7845330D01*
X-3191492Y-7840004D01*
X-3190161Y-7847836D01*
X-3189229Y-7853289D01*
X-3193357Y-7856265D01*
X-3206692Y-7853806D01*
X-3232455Y-7845752D01*
X-3255719Y-7838315D01*
X-3280091Y-7832180D01*
X-3293817Y-7832643D01*
X-3299870Y-7840100D01*
X-3301226Y-7854951D01*
X-3301256Y-7857557D01*
X-3304853Y-7874354D01*
X-3315814Y-7878811D01*
X-3322425Y-7878960D01*
X-3353380Y-7888038D01*
X-3391949Y-7910834D01*
X-3438435Y-7947553D01*
X-3493138Y-7998397D01*
X-3504155Y-8009220D01*
X-3537103Y-8041369D01*
X-3566948Y-8070191D01*
X-3590776Y-8092883D01*
X-3605675Y-8106643D01*
X-3612363Y-8112746D01*
X-3633224Y-8132761D01*
X-3659577Y-8158876D01*
X-3687304Y-8187037D01*
X-3744107Y-8245498D01*
X-3776404Y-8245498D01*
X-3771829Y-8240479D01*
X-3737189Y-8203480D01*
X-3700402Y-8165012D01*
X-3663377Y-8127047D01*
X-3628020Y-8091560D01*
X-3596240Y-8060524D01*
X-3569943Y-8035912D01*
X-3551036Y-8019698D01*
X-3541429Y-8013854D01*
X-3540795Y-8013826D01*
X-3534636Y-8007316D01*
X-3534611Y-8006992D01*
X-3527541Y-7998232D01*
X-3511712Y-7986677D01*
X-3503497Y-7981197D01*
X-3480518Y-7963663D01*
X-3456865Y-7943429D01*
X-3448460Y-7935853D01*
X-3419158Y-7910341D01*
X-3391128Y-7886959D01*
X-3380337Y-7878158D01*
X-3355557Y-7857457D01*
X-3335976Y-7840499D01*
X-3324392Y-7830794D01*
X-3293585Y-7811177D01*
X-3265867Y-7801916D01*
X-3244801Y-7804421D01*
X-3235029Y-7808226D01*
X-3220530Y-7804783D01*
X-3212985Y-7802917D01*
X-3197338Y-7810896D01*
X-3177686Y-7828383D01*
X-3156368Y-7852431D01*
X-3135720Y-7880094D01*
X-3118078Y-7908425D01*
X-3105780Y-7934478D01*
X-3103891Y-7942998D01*
X-3103534Y-7944606D01*
X-3101161Y-7955306D01*
X-3099871Y-7964564D01*
X-3092825Y-7976342D01*
X-3087238Y-7985721D01*
X-3084489Y-8004343D01*
X-3081937Y-8021831D01*
X-3074069Y-8037601D01*
X-3070612Y-8044432D01*
X-3066235Y-8067756D01*
X-3063061Y-8106882D01*
X-3062048Y-8134727D01*
X-3061048Y-8162225D01*
X-3060679Y-8178620D01*
X-3059970Y-8219611D01*
X-3060248Y-8248066D01*
X-3061942Y-8267109D01*
X-3065480Y-8279863D01*
X-3071292Y-8289452D01*
X-3079804Y-8299001D01*
X-3082983Y-8302437D01*
X-3095917Y-8318446D01*
X-3101161Y-8328578D01*
X-3102272Y-8331637D01*
X-3111920Y-8344558D01*
X-3128253Y-8361759D01*
X-3153302Y-8385899D01*
X-3181191Y-8412504D01*
X-3200372Y-8430266D01*
X-3212742Y-8440868D01*
X-3220196Y-8445995D01*
X-3224632Y-8447330D01*
X-3233931Y-8452120D01*
X-3247834Y-8465016D01*
X-3262565Y-8478450D01*
X-3268472Y-8483064D01*
X-3286281Y-8496976D01*
X-3313730Y-8516466D01*
X-3339505Y-8534264D01*
X-3340337Y-8534859D01*
X-3377533Y-8561451D01*
X-3411328Y-8586526D01*
X-3437355Y-8605303D01*
X-3470682Y-8627169D01*
X-3499124Y-8643685D01*
X-3513924Y-8652116D01*
X-3525444Y-8659900D01*
X-3546422Y-8674075D01*
X-3575203Y-8697333D01*
X-3589283Y-8708925D01*
X-3622033Y-8730518D01*
X-3653893Y-8746091D01*
X-3677145Y-8755862D01*
X-3700606Y-8771117D01*
X-3709025Y-8787317D01*
X-3703381Y-8805639D01*
X-3696471Y-8823147D01*
X-3693022Y-8847348D01*
X-3693020Y-8847753D01*
X-3690528Y-8865223D01*
X-3684686Y-8872469D01*
X-3683696Y-8872672D01*
X-3678476Y-8882065D01*
X-3676349Y-8901154D01*
X-3676317Y-8903704D01*
X-3673651Y-8923905D01*
X-3668013Y-8934990D01*
X-3662417Y-8944104D01*
X-3659435Y-8962574D01*
X-3659432Y-8962758D01*
X-3656878Y-8982118D01*
X-3650538Y-9011049D01*
X-3641765Y-9043359D01*
X-3633156Y-9075754D01*
X-3631479Y-9083650D01*
X-3627643Y-9101711D01*
X-3625025Y-9114037D01*
X-3620396Y-9145476D01*
X-3618630Y-9160064D01*
X-3618344Y-9162427D01*
X-3615255Y-9176736D01*
X-3614178Y-9181727D01*
X-3612213Y-9185072D01*
X-3609765Y-9189240D01*
X-3608462Y-9189767D01*
X-3602955Y-9200433D01*
X-3598352Y-9220500D01*
X-3593602Y-9251315D01*
X-3587932Y-9285021D01*
X-3583304Y-9307155D01*
X-3579066Y-9320680D01*
X-3574567Y-9328557D01*
X-3572969Y-9331091D01*
X-3567164Y-9348557D01*
X-3563872Y-9368465D01*
X-3563186Y-9372616D01*
X-3562550Y-9378287D01*
X-3557742Y-9403899D01*
X-3551444Y-9422396D01*
X-3549980Y-9425650D01*
X-3544988Y-9446662D01*
X-3542972Y-9472666D01*
X-3542849Y-9479149D01*
X-3540311Y-9504026D01*
X-3535528Y-9521147D01*
X-3535111Y-9522013D01*
X-3530777Y-9538326D01*
X-3526463Y-9565349D01*
X-3523045Y-9597707D01*
X-3521066Y-9622115D01*
X-3520667Y-9626884D01*
X-3519273Y-9643556D01*
X-3518576Y-9651892D01*
X-3515741Y-9685818D01*
X-3511313Y-9735047D01*
X-3507606Y-9771425D01*
X-3504443Y-9796576D01*
X-3501651Y-9812126D01*
X-3499053Y-9819697D01*
X-3498039Y-9822121D01*
X-3494550Y-9839804D01*
X-3490728Y-9870820D01*
X-3486738Y-9912641D01*
X-3482744Y-9962743D01*
X-3478911Y-10018599D01*
X-3475405Y-10077682D01*
X-3472391Y-10137467D01*
X-3470034Y-10195429D01*
X-3468498Y-10249039D01*
X-3467949Y-10295774D01*
X-3467948Y-10439491D01*
X-3405427Y-10535787D01*
X-3398677Y-10546231D01*
X-3376782Y-10580800D01*
X-3359076Y-10609819D01*
X-3347227Y-10630503D01*
X-3342907Y-10640067D01*
X-3342745Y-10641728D01*
X-3335543Y-10648052D01*
X-3330751Y-10650356D01*
X-3322906Y-10662640D01*
X-3320726Y-10668191D01*
X-3305009Y-10698215D01*
X-3284999Y-10726709D01*
X-3275894Y-10734504D01*
X-3264901Y-10731766D01*
X-3252253Y-10724168D01*
X-3233763Y-10726583D01*
X-3218336Y-10743037D01*
X-3212471Y-10751676D01*
X-3195913Y-10771866D01*
X-3172624Y-10797876D01*
X-3145662Y-10826207D01*
X-3126072Y-10846860D01*
X-3104710Y-10871346D01*
X-3090579Y-10890042D01*
X-3086037Y-10900027D01*
X-3086132Y-10900795D01*
X-3083061Y-10914506D01*
X-3074262Y-10937899D01*
X-3061438Y-10966381D01*
X-3051680Y-10986982D01*
X-3039975Y-11015062D01*
X-3035646Y-11033790D01*
X-3038158Y-11046499D01*
X-3046976Y-11056519D01*
X-3053628Y-11063707D01*
X-3059480Y-11077705D01*
X-3059499Y-11078298D01*
X-3063878Y-11093184D01*
X-3073614Y-11113140D01*
X-3076905Y-11118952D01*
X-3082991Y-11133626D01*
X-3080131Y-11145694D01*
X-3067362Y-11162781D01*
X-3066546Y-11163790D01*
X-3048424Y-11188627D01*
X-3033045Y-11213385D01*
X-3032440Y-11214474D01*
X-3018346Y-11231870D01*
X-3003869Y-11238555D01*
X-2986407Y-11240642D01*
X-2963616Y-11246695D01*
X-2941196Y-11254020D01*
X-2914264Y-11262172D01*
X-2906960Y-11265044D01*
X-2884811Y-11282602D01*
X-2867528Y-11308066D01*
X-2864239Y-11319805D01*
X-2860024Y-11334853D01*
X-2859982Y-11335355D01*
X-2853758Y-11348903D01*
X-2838875Y-11371052D01*
X-2817954Y-11398497D01*
X-2793617Y-11427936D01*
X-2768486Y-11456063D01*
X-2745182Y-11479575D01*
X-2728915Y-11490741D01*
X-2697288Y-11498331D01*
X-2684041Y-11499065D01*
X-2669860Y-11505157D01*
X-2664118Y-11520405D01*
X-2664493Y-11548347D01*
X-2665749Y-11558219D01*
X-2671601Y-11583385D01*
X-2680366Y-11610658D01*
X-2690304Y-11635469D01*
X-2699677Y-11653245D01*
X-2706745Y-11659418D01*
X-2713625Y-11657414D01*
X-2730183Y-11651483D01*
X-2733473Y-11650213D01*
X-2741909Y-11647983D01*
X-2740993Y-11653401D01*
X-2730838Y-11669621D01*
X-2716003Y-11692354D01*
X-2691234Y-11729563D01*
X-2672944Y-11755557D01*
X-2659604Y-11772335D01*
X-2649684Y-11781899D01*
X-2641654Y-11786250D01*
X-2632910Y-11791009D01*
X-2626005Y-11802767D01*
X-2622868Y-11820323D01*
X-2615262Y-11833677D01*
X-2607410Y-11847464D01*
X-2596678Y-11856782D01*
X-2582697Y-11868921D01*
X-2577870Y-11872181D01*
X-2557902Y-11892660D01*
X-2542030Y-11918749D01*
X-2538049Y-11927139D01*
X-2523610Y-11951751D01*
X-2509602Y-11969045D01*
X-2498202Y-11981169D01*
X-2492628Y-11991335D01*
X-2491872Y-11994040D01*
X-2483843Y-12008998D01*
X-2474762Y-12023503D01*
X-2468661Y-12033248D01*
X-2448350Y-12063874D01*
X-2424931Y-12097959D01*
X-2400427Y-12132586D01*
X-2376861Y-12164839D01*
X-2356254Y-12191800D01*
X-2340629Y-12210553D01*
X-2331075Y-12223320D01*
X-2325906Y-12236192D01*
X-2325845Y-12236978D01*
X-2319243Y-12249384D01*
X-2305066Y-12265249D01*
X-2303592Y-12266662D01*
X-2289866Y-12283016D01*
X-2284226Y-12295806D01*
X-2282150Y-12302803D01*
X-2272319Y-12320902D01*
X-2257134Y-12343226D01*
X-2247953Y-12355866D01*
X-2228581Y-12384054D01*
X-2213465Y-12407903D01*
X-2206423Y-12419876D01*
X-2183289Y-12458656D01*
X-2164015Y-12489683D01*
X-2145186Y-12518347D01*
X-2127189Y-12544507D01*
X-2123385Y-12550036D01*
X-2120996Y-12553481D01*
X-2102599Y-12581464D01*
X-2088136Y-12605880D01*
X-2080558Y-12621783D01*
X-2076415Y-12631277D01*
X-2063523Y-12653232D01*
X-2046513Y-12677495D01*
X-2042073Y-12683491D01*
X-2023105Y-12711379D01*
X-2001241Y-12746037D01*
X-1980374Y-12781355D01*
X-1972537Y-12794946D01*
X-1947615Y-12836477D01*
X-1919707Y-12881202D01*
X-1893508Y-12921541D01*
X-1866591Y-12963094D01*
X-1838713Y-13010459D01*
X-1821327Y-13046531D01*
X-1814615Y-13070910D01*
X-1818762Y-13083198D01*
X-1824240Y-13086236D01*
X-1837183Y-13090392D01*
X-1838818Y-13090566D01*
X-1840354Y-13095406D01*
X-1832885Y-13103883D01*
X-1820946Y-13111941D01*
X-1809070Y-13115528D01*
X-1791892Y-13121270D01*
X-1779723Y-13135827D01*
X-1778700Y-13152934D01*
X-1782469Y-13158788D01*
X-1796777Y-13165545D01*
X-1803331Y-13166018D01*
X-1805349Y-13170694D01*
X-1797039Y-13184072D01*
X-1787242Y-13200068D01*
X-1785464Y-13211966D01*
X-1795866Y-13215561D01*
X-1797349Y-13215413D01*
X-1812099Y-13205863D01*
X-1834196Y-13181469D01*
X-1863578Y-13142306D01*
X-1900181Y-13088452D01*
X-1906096Y-13079577D01*
X-1926779Y-13050256D01*
X-1945528Y-13025993D01*
X-1958889Y-13011327D01*
X-1968054Y-13001896D01*
X-1988874Y-12976151D01*
X-2017053Y-12937805D01*
X-2051843Y-12887888D01*
X-2092496Y-12827428D01*
X-2106060Y-12807440D01*
X-2126695Y-12778364D01*
X-2143821Y-12755653D01*
X-2161100Y-12733600D01*
X-2189688Y-12695581D01*
X-2217624Y-12656797D01*
X-2243337Y-12619592D01*
X-2265262Y-12586308D01*
X-2281828Y-12559287D01*
X-2289565Y-12544507D01*
X-2275890Y-12544507D01*
X-2271722Y-12548676D01*
X-2267554Y-12544507D01*
X-2271722Y-12540339D01*
X-2275890Y-12544507D01*
X-2289565Y-12544507D01*
X-2291467Y-12540873D01*
X-2292611Y-12533409D01*
X-2290676Y-12532533D01*
X-2284226Y-12522081D01*
X-2285526Y-12518602D01*
X-2295429Y-12517846D01*
X-2303136Y-12516535D01*
X-2302793Y-12502066D01*
X-2302420Y-12488902D01*
X-2308262Y-12481987D01*
X-2312556Y-12480568D01*
X-2317570Y-12469483D01*
X-2318511Y-12463731D01*
X-2325906Y-12456979D01*
X-2328008Y-12456703D01*
X-2334242Y-12448464D01*
X-2337795Y-12438666D01*
X-2348301Y-12419409D01*
X-2362658Y-12396278D01*
X-2377707Y-12374334D01*
X-2390290Y-12358641D01*
X-2391599Y-12357157D01*
X-2402477Y-12340962D01*
X-2414178Y-12319045D01*
X-2416729Y-12313907D01*
X-2427106Y-12297056D01*
X-2434834Y-12290257D01*
X-2436396Y-12289737D01*
X-2445182Y-12279755D01*
X-2455674Y-12261081D01*
X-2458397Y-12255619D01*
X-2468945Y-12238714D01*
X-2476905Y-12231905D01*
X-2480295Y-12230501D01*
X-2484292Y-12219401D01*
X-2485232Y-12213649D01*
X-2492628Y-12206897D01*
X-2494839Y-12206584D01*
X-2500964Y-12198197D01*
X-2501146Y-12196853D01*
X-2508034Y-12184055D01*
X-2521804Y-12167022D01*
X-2524406Y-12164134D01*
X-2537367Y-12146700D01*
X-2542644Y-12134041D01*
X-2543282Y-12130117D01*
X-2551406Y-12123536D01*
X-2552809Y-12123235D01*
X-2562060Y-12113838D01*
X-2571935Y-12095371D01*
X-2573157Y-12092629D01*
X-2583331Y-12076258D01*
X-2595264Y-12063414D01*
X-2605187Y-12057476D01*
X-2609333Y-12061825D01*
X-2608512Y-12065474D01*
X-2601996Y-12080071D01*
X-2592663Y-12096630D01*
X-2584991Y-12106864D01*
X-2578863Y-12115090D01*
X-2569627Y-12131872D01*
X-2560960Y-12148507D01*
X-2548957Y-12169189D01*
X-2544900Y-12175545D01*
X-2532037Y-12195632D01*
X-2514163Y-12223502D01*
X-2493843Y-12255154D01*
X-2481377Y-12274971D01*
X-2465671Y-12301450D01*
X-2455666Y-12320365D01*
X-2453117Y-12328550D01*
X-2459228Y-12326011D01*
X-2469507Y-12313442D01*
X-2473619Y-12307598D01*
X-2489934Y-12287183D01*
X-2509402Y-12265249D01*
X-2521134Y-12251132D01*
X-2541454Y-12221258D01*
X-2558651Y-12190083D01*
X-2570571Y-12165883D01*
X-2588440Y-12133147D01*
X-2609320Y-12099359D01*
X-2635143Y-12061597D01*
X-2663039Y-12023503D01*
X-2634341Y-12023503D01*
X-2634002Y-12025788D01*
X-2625513Y-12031839D01*
X-2622498Y-12031185D01*
X-2621837Y-12023503D01*
X-2623548Y-12021009D01*
X-2630665Y-12015167D01*
X-2631497Y-12015384D01*
X-2634341Y-12023503D01*
X-2663039Y-12023503D01*
X-2667847Y-12016937D01*
X-2709366Y-11962456D01*
X-2719782Y-11948902D01*
X-2750616Y-11908232D01*
X-2779817Y-11868986D01*
X-2788698Y-11856782D01*
X-2742710Y-11856782D01*
X-2742468Y-11858774D01*
X-2734374Y-11865118D01*
X-2732381Y-11864876D01*
X-2726038Y-11856782D01*
X-2726280Y-11854789D01*
X-2734374Y-11848446D01*
X-2736366Y-11848688D01*
X-2742710Y-11856782D01*
X-2788698Y-11856782D01*
X-2804503Y-11835062D01*
X-2821790Y-11810362D01*
X-2823063Y-11808470D01*
X-2839879Y-11783819D01*
X-2852934Y-11765284D01*
X-2859495Y-11756749D01*
X-2860031Y-11756198D01*
X-2867995Y-11745525D01*
X-2879779Y-11727789D01*
X-2880886Y-11726061D01*
X-2893653Y-11707011D01*
X-2903005Y-11694445D01*
X-2904145Y-11693052D01*
X-2914082Y-11678725D01*
X-2926645Y-11658520D01*
X-2929250Y-11654297D01*
X-2933672Y-11648464D01*
X-2892759Y-11648464D01*
X-2892570Y-11649616D01*
X-2886087Y-11662204D01*
X-2872139Y-11683522D01*
X-2853145Y-11710361D01*
X-2831524Y-11739514D01*
X-2809694Y-11767772D01*
X-2790074Y-11791927D01*
X-2775080Y-11808773D01*
X-2767133Y-11815102D01*
X-2763573Y-11816508D01*
X-2759382Y-11827606D01*
X-2758441Y-11833358D01*
X-2751046Y-11840110D01*
X-2750740Y-11840108D01*
X-2745489Y-11838786D01*
X-2744720Y-11833677D01*
X-2749495Y-11822841D01*
X-2760877Y-11804336D01*
X-2779928Y-11776220D01*
X-2807710Y-11736554D01*
X-2839660Y-11692416D01*
X-2863655Y-11662030D01*
X-2880164Y-11644928D01*
X-2889695Y-11640582D01*
X-2892759Y-11648464D01*
X-2933672Y-11648464D01*
X-2942507Y-11636811D01*
X-2953243Y-11628203D01*
X-2997817Y-11614855D01*
X-3035499Y-11601448D01*
X-3065103Y-11587773D01*
X-3090991Y-11572050D01*
X-3107716Y-11560498D01*
X-3125808Y-11547500D01*
X-3134505Y-11540548D01*
X-3134778Y-11540264D01*
X-3145343Y-11533347D01*
X-3163681Y-11523749D01*
X-3188605Y-11510089D01*
X-3213698Y-11494024D01*
X-3223909Y-11487436D01*
X-3248117Y-11473655D01*
X-3278109Y-11457879D01*
X-3309805Y-11442116D01*
X-3339128Y-11428373D01*
X-3362000Y-11418655D01*
X-3374345Y-11414970D01*
X-3383709Y-11412135D01*
X-3403914Y-11403246D01*
X-3429589Y-11390407D01*
X-3452201Y-11379081D01*
X-3469618Y-11371548D01*
X-3476284Y-11370359D01*
X-3478635Y-11370604D01*
X-3491458Y-11365226D01*
X-3511712Y-11354252D01*
X-3521850Y-11348688D01*
X-3549992Y-11335750D01*
X-3573716Y-11327903D01*
X-3600292Y-11322176D01*
X-3609020Y-11352450D01*
X-3613313Y-11367343D01*
X-3617873Y-11383161D01*
X-3626127Y-11411071D01*
X-3630034Y-11424280D01*
X-3644480Y-11470767D01*
X-3658324Y-11513092D01*
X-3660438Y-11519171D01*
X-3666236Y-11535843D01*
X-3670564Y-11548290D01*
X-3673785Y-11556683D01*
X-3680198Y-11573395D01*
X-3686225Y-11585443D01*
X-3690208Y-11593651D01*
X-3693022Y-11612043D01*
X-3694699Y-11624284D01*
X-3696569Y-11627540D01*
X-3701358Y-11635876D01*
X-3703018Y-11638149D01*
X-3706358Y-11642724D01*
X-3709694Y-11659709D01*
X-3709704Y-11659805D01*
X-3710960Y-11672167D01*
X-3716328Y-11686309D01*
X-3718002Y-11688786D01*
X-3723245Y-11700054D01*
X-3725448Y-11704788D01*
X-3733709Y-11727573D01*
X-3738920Y-11742239D01*
X-3751717Y-11773615D01*
X-3766040Y-11804858D01*
X-3773119Y-11819270D01*
X-3781308Y-11835942D01*
X-3787623Y-11848799D01*
X-3776370Y-11869286D01*
X-3768260Y-11884050D01*
X-3752198Y-11913968D01*
X-3749638Y-11919302D01*
X-3741635Y-11935975D01*
X-3734486Y-11950868D01*
X-3723223Y-11974332D01*
X-3713625Y-11994327D01*
X-3706623Y-12008915D01*
X-3705724Y-12010981D01*
X-3701916Y-12019683D01*
X-3692513Y-12041169D01*
X-3679644Y-12070368D01*
X-3678302Y-12073426D01*
X-3667497Y-12099820D01*
X-3659317Y-12122468D01*
X-3655964Y-12132515D01*
X-3647255Y-12157531D01*
X-3643837Y-12167154D01*
X-3635456Y-12190751D01*
X-3622135Y-12227737D01*
X-3619198Y-12236073D01*
X-3610011Y-12262153D01*
X-3588192Y-12329480D01*
X-3565876Y-12405662D01*
X-3541921Y-12494491D01*
X-3541263Y-12497102D01*
X-3535769Y-12523532D01*
X-3529732Y-12558696D01*
X-3524345Y-12595728D01*
X-3520560Y-12629033D01*
X-3519552Y-12657379D01*
X-3522396Y-12681008D01*
X-3529375Y-12706134D01*
X-3531542Y-12712456D01*
X-3556332Y-12765702D01*
X-3593879Y-12824153D01*
X-3642483Y-12885414D01*
X-3700441Y-12947087D01*
X-3728701Y-12974898D01*
X-3710861Y-12999027D01*
X-3708558Y-13002182D01*
X-3697515Y-13018718D01*
X-3693022Y-13027999D01*
X-3692590Y-13031101D01*
X-3683257Y-13047609D01*
X-3664970Y-13067453D01*
X-3642019Y-13086451D01*
X-3618693Y-13100425D01*
X-3595517Y-13113684D01*
X-3565628Y-13135173D01*
X-3537417Y-13159258D01*
X-3536021Y-13160584D01*
X-3507376Y-13192365D01*
X-3493750Y-13219470D01*
X-3494742Y-13243461D01*
X-3509950Y-13265899D01*
X-3513384Y-13269175D01*
X-3521108Y-13274604D01*
X-3531702Y-13278156D01*
X-3547922Y-13280059D01*
X-3572526Y-13280541D01*
X-3608271Y-13279831D01*
X-3657915Y-13278157D01*
X-3719059Y-13275555D01*
X-3801812Y-13270567D01*
X-3873159Y-13264386D01*
X-3931785Y-13257156D01*
X-3976378Y-13249021D01*
X-4005624Y-13240124D01*
X-4013193Y-13236184D01*
X-4037271Y-13219478D01*
X-4065805Y-13195643D01*
X-4094125Y-13168461D01*
X-4107702Y-13153943D01*
X-4134765Y-13122806D01*
X-4161883Y-13089254D01*
X-4186838Y-13056268D01*
X-4207410Y-13026830D01*
X-4221380Y-13003921D01*
X-4226530Y-12990525D01*
X-4226778Y-12988500D01*
X-4234866Y-12982151D01*
X-4237485Y-12980193D01*
X-4241586Y-12966373D01*
X-4243202Y-12943667D01*
X-4243338Y-12929247D01*
X-4245255Y-12913313D01*
X-4251359Y-12907940D01*
X-4264042Y-12909167D01*
X-4278483Y-12909710D01*
X-4284882Y-12901653D01*
X-4288738Y-12896291D01*
X-4305059Y-12884555D01*
X-4331318Y-12869490D01*
X-4364406Y-12852998D01*
X-4383470Y-12843941D01*
X-4424672Y-12823556D01*
X-4463424Y-12803444D01*
X-4493346Y-12786879D01*
X-4525063Y-12769421D01*
X-4565249Y-12749081D01*
X-4603280Y-12731355D01*
X-4663798Y-12704793D01*
X-4690583Y-12720515D01*
X-4690813Y-12720650D01*
X-4728839Y-12742822D01*
X-4770416Y-12766822D01*
X-4812548Y-12790949D01*
X-4852243Y-12813502D01*
X-4886506Y-12832779D01*
X-4912343Y-12847081D01*
X-4926760Y-12854705D01*
X-4952757Y-12867024D01*
X-4988457Y-12883390D01*
X-5023136Y-12898778D01*
X-5053275Y-12911660D01*
X-5075358Y-12920509D01*
X-5085867Y-12923799D01*
X-5092211Y-12924918D01*
X-5108182Y-12931162D01*
X-5123510Y-12938368D01*
X-5145581Y-12947834D01*
X-5164901Y-12955691D01*
X-5187262Y-12964811D01*
X-5202674Y-12970963D01*
X-5245882Y-12987097D01*
X-5291112Y-13002729D01*
X-5332554Y-13015897D01*
X-5364403Y-13024641D01*
X-5378595Y-13028104D01*
X-5404940Y-13035238D01*
X-5422756Y-13040990D01*
X-5436770Y-13045758D01*
X-5460268Y-13051895D01*
X-5487284Y-13057465D01*
X-5566236Y-13073514D01*
X-5637171Y-13087587D01*
X-5698022Y-13099283D01*
X-5746723Y-13108203D01*
X-5781207Y-13113948D01*
X-5827994Y-13120958D01*
X-5878388Y-13128308D01*
X-5917362Y-13133631D01*
X-5947807Y-13137262D01*
X-5972611Y-13139538D01*
X-5994664Y-13140794D01*
X-6016855Y-13141367D01*
X-6045621Y-13142412D01*
X-6074150Y-13144719D01*
X-6092556Y-13147699D01*
X-6097554Y-13148573D01*
X-6119721Y-13149574D01*
X-6153163Y-13149176D01*
X-6194124Y-13147583D01*
X-6238848Y-13144997D01*
X-6283580Y-13141622D01*
X-6324565Y-13137662D01*
X-6358046Y-13133319D01*
X-6402615Y-13126330D01*
X-6427399Y-13160031D01*
X-6436405Y-13172561D01*
X-6445565Y-13188431D01*
X-6446187Y-13199456D01*
X-6439525Y-13210899D01*
X-6426751Y-13228562D01*
X-6405682Y-13261345D01*
X-6395618Y-13286079D01*
X-6396328Y-13305667D01*
X-6407580Y-13323011D01*
X-6429142Y-13341013D01*
X-6464377Y-13366537D01*
X-6597948Y-13362242D01*
X-6612936Y-13361746D01*
X-6673463Y-13359258D01*
X-6720412Y-13356087D01*
X-6756329Y-13351698D01*
X-6783762Y-13345555D01*
X-6805256Y-13337124D01*
X-6823361Y-13325868D01*
X-6840622Y-13311254D01*
X-6843770Y-13308094D01*
X-6859211Y-13284843D01*
X-6870038Y-13255968D01*
X-6875279Y-13226461D01*
X-6873962Y-13201312D01*
X-6865114Y-13185514D01*
X-6860249Y-13181320D01*
X-6853973Y-13166412D01*
X-6861236Y-13151459D01*
X-6879764Y-13138278D01*
X-6907281Y-13128685D01*
X-6941512Y-13124498D01*
X-6942193Y-13124480D01*
X-6962079Y-13121526D01*
X-6973264Y-13115528D01*
X-6979131Y-13110839D01*
X-6995438Y-13107192D01*
X-7006185Y-13105299D01*
X-7030359Y-13099025D01*
X-7063789Y-13089418D01*
X-7102977Y-13077577D01*
X-7144423Y-13064600D01*
X-7184631Y-13051583D01*
X-7220100Y-13039626D01*
X-7247332Y-13029826D01*
X-7262830Y-13023280D01*
X-7271947Y-13019441D01*
X-7292423Y-13015495D01*
X-7300831Y-13014626D01*
X-7315460Y-13008726D01*
X-7322301Y-13004911D01*
X-7342393Y-12995862D01*
X-7371744Y-12983664D01*
X-7406740Y-12969858D01*
X-7409393Y-12968834D01*
X-7451280Y-12951877D01*
X-7487467Y-12935052D01*
X-7520899Y-12916404D01*
X-7554523Y-12893977D01*
X-7591283Y-12865815D01*
X-7634127Y-12829964D01*
X-7685998Y-12784467D01*
X-7725291Y-12748866D01*
X-7821658Y-12654250D01*
X-7903283Y-12561993D01*
X-7971189Y-12470766D01*
X-8026400Y-12379241D01*
X-8069939Y-12286089D01*
X-8071500Y-12282054D01*
X-8077824Y-12260781D01*
X-8082715Y-12233677D01*
X-8083465Y-12226565D01*
X-6238987Y-12226565D01*
X-6235806Y-12241889D01*
X-6226810Y-12248577D01*
X-6222556Y-12247736D01*
X-6209876Y-12238563D01*
X-6200297Y-12224772D01*
X-6199221Y-12213273D01*
X-6200869Y-12209430D01*
X-6195444Y-12210074D01*
X-6190311Y-12218719D01*
X-6195375Y-12236109D01*
X-6203425Y-12248827D01*
X-6211157Y-12252348D01*
X-6213835Y-12251480D01*
X-6223062Y-12256984D01*
X-6224638Y-12260381D01*
X-6221554Y-12264469D01*
X-6207723Y-12263618D01*
X-6192646Y-12266171D01*
X-6187158Y-12271501D01*
X-6186740Y-12279707D01*
X-6182288Y-12296948D01*
X-6180876Y-12300865D01*
X-6173955Y-12310668D01*
X-6164071Y-12306436D01*
X-6148390Y-12300370D01*
X-6133532Y-12306274D01*
X-6127154Y-12322448D01*
X-6125136Y-12331934D01*
X-6114649Y-12343288D01*
X-6108258Y-12344606D01*
X-6102145Y-12340064D01*
X-6101887Y-12338481D01*
X-6092844Y-12326781D01*
X-6074512Y-12312026D01*
X-6051848Y-12297467D01*
X-6029813Y-12286349D01*
X-6013366Y-12281921D01*
X-6005983Y-12281457D01*
X-5996180Y-12275061D01*
X-5993776Y-12257265D01*
X-5993775Y-12256824D01*
X-5990906Y-12240009D01*
X-5987756Y-12236073D01*
X-5985440Y-12236073D01*
X-5981272Y-12240241D01*
X-5977104Y-12236073D01*
X-5981272Y-12231905D01*
X-5985440Y-12236073D01*
X-5987756Y-12236073D01*
X-5980005Y-12226388D01*
X-5957351Y-12211261D01*
X-5949266Y-12206721D01*
X-5921400Y-12196025D01*
X-5898987Y-12198233D01*
X-5877781Y-12213461D01*
X-5872778Y-12217858D01*
X-5864396Y-12218593D01*
X-5855287Y-12205591D01*
X-5849107Y-12184728D01*
X-5849252Y-12167806D01*
X-5816466Y-12167806D01*
X-5815293Y-12170662D01*
X-5803441Y-12179150D01*
X-5785444Y-12173764D01*
X-5778497Y-12167154D01*
X-5781966Y-12156954D01*
X-5786608Y-12153869D01*
X-5800709Y-12152625D01*
X-5813143Y-12158052D01*
X-5816466Y-12167806D01*
X-5849252Y-12167806D01*
X-5849361Y-12154984D01*
X-5851208Y-12134312D01*
X-5846445Y-12123002D01*
X-5832259Y-12115594D01*
X-5817381Y-12106353D01*
X-5810383Y-12093929D01*
X-5808800Y-12087519D01*
X-5798804Y-12082876D01*
X-5776306Y-12083041D01*
X-5761287Y-12082844D01*
X-5739788Y-12076371D01*
X-5728829Y-12063991D01*
X-5731457Y-12048080D01*
X-5732819Y-12041856D01*
X-5727180Y-12027862D01*
X-5726005Y-12026255D01*
X-5723268Y-12019683D01*
X-5713498Y-12019683D01*
X-5711930Y-12026311D01*
X-5697846Y-12029755D01*
X-5685816Y-12027633D01*
X-5682194Y-12019683D01*
X-5684701Y-12015685D01*
X-5697846Y-12009610D01*
X-5702843Y-12010442D01*
X-5713498Y-12019683D01*
X-5723268Y-12019683D01*
X-5718719Y-12008757D01*
X-5715710Y-11994548D01*
X-5708740Y-11994548D01*
X-5704986Y-11994474D01*
X-5704891Y-11994327D01*
X-5693678Y-11994327D01*
X-5689510Y-11998495D01*
X-5685342Y-11994327D01*
X-5689510Y-11990159D01*
X-5693678Y-11994327D01*
X-5704891Y-11994327D01*
X-5698382Y-11984266D01*
X-5697788Y-11982685D01*
X-5696039Y-11974332D01*
X-5703048Y-11979600D01*
X-5707805Y-11985729D01*
X-5708740Y-11994548D01*
X-5715710Y-11994548D01*
X-5713686Y-11984988D01*
X-5713095Y-11980661D01*
X-5709018Y-11961475D01*
X-5702014Y-11961475D01*
X-5701933Y-11962640D01*
X-5697107Y-11964476D01*
X-5688714Y-11955527D01*
X-5686686Y-11950868D01*
X-5692390Y-11951851D01*
X-5696093Y-11954424D01*
X-5702014Y-11961475D01*
X-5709018Y-11961475D01*
X-5708384Y-11958494D01*
X-5702789Y-11944836D01*
X-5698740Y-11936032D01*
X-5698724Y-11935975D01*
X-5685342Y-11935975D01*
X-5681174Y-11940143D01*
X-5677006Y-11935975D01*
X-5681174Y-11931806D01*
X-5685342Y-11935975D01*
X-5698724Y-11935975D01*
X-5694245Y-11919554D01*
X-5694198Y-11919302D01*
X-5685342Y-11919302D01*
X-5681174Y-11923470D01*
X-5677006Y-11919302D01*
X-5681174Y-11915134D01*
X-5685342Y-11919302D01*
X-5694198Y-11919302D01*
X-5690933Y-11901821D01*
X-5689854Y-11888618D01*
X-5692059Y-11885729D01*
X-5697389Y-11886351D01*
X-5711446Y-11881203D01*
X-5721928Y-11869286D01*
X-5718686Y-11869286D01*
X-5714518Y-11873454D01*
X-5710350Y-11869286D01*
X-5714518Y-11865118D01*
X-5718686Y-11869286D01*
X-5721928Y-11869286D01*
X-5723903Y-11867040D01*
X-5725651Y-11843285D01*
X-5723080Y-11835942D01*
X-5710350Y-11835942D01*
X-5706182Y-11840110D01*
X-5702014Y-11835942D01*
X-5706182Y-11831774D01*
X-5710350Y-11835942D01*
X-5723080Y-11835942D01*
X-5717244Y-11819270D01*
X-5710350Y-11819270D01*
X-5706182Y-11823438D01*
X-5702014Y-11819270D01*
X-5693678Y-11819270D01*
X-5689510Y-11823438D01*
X-5685342Y-11819270D01*
X-5689510Y-11815102D01*
X-5693678Y-11819270D01*
X-5702014Y-11819270D01*
X-5706182Y-11815102D01*
X-5710350Y-11819270D01*
X-5717244Y-11819270D01*
X-5715253Y-11813581D01*
X-5712494Y-11808107D01*
X-5708497Y-11796139D01*
X-5713915Y-11795184D01*
X-5719131Y-11795413D01*
X-5724244Y-11786284D01*
X-5723417Y-11780216D01*
X-5717297Y-11773421D01*
X-5716358Y-11773362D01*
X-5711638Y-11767169D01*
X-5711565Y-11764942D01*
X-5707378Y-11750461D01*
X-5698868Y-11729290D01*
X-5697534Y-11726225D01*
X-5689726Y-11700054D01*
X-5693556Y-11685684D01*
X-5709005Y-11683202D01*
X-5716116Y-11683462D01*
X-5734562Y-11678144D01*
X-5741469Y-11674860D01*
X-5740322Y-11680436D01*
X-5738592Y-11684796D01*
X-5743202Y-11690060D01*
X-5745636Y-11689717D01*
X-5752030Y-11681232D01*
X-5752481Y-11678515D01*
X-5759587Y-11677075D01*
X-5762095Y-11674288D01*
X-5760349Y-11669220D01*
X-5727022Y-11669220D01*
X-5722854Y-11673388D01*
X-5718686Y-11669220D01*
X-5710350Y-11669220D01*
X-5706182Y-11673388D01*
X-5702014Y-11669220D01*
X-5703678Y-11667556D01*
X-5690655Y-11667556D01*
X-5689954Y-11669220D01*
X-5684621Y-11681884D01*
X-5670462Y-11688389D01*
X-5653908Y-11680301D01*
X-5653535Y-11679923D01*
X-5645348Y-11668095D01*
X-5644345Y-11659805D01*
X-5651245Y-11660419D01*
X-5654024Y-11661749D01*
X-5667468Y-11661665D01*
X-5678210Y-11654980D01*
X-5678426Y-11653040D01*
X-5668670Y-11653040D01*
X-5668589Y-11654206D01*
X-5663763Y-11656041D01*
X-5655370Y-11647092D01*
X-5653341Y-11642434D01*
X-5659046Y-11643416D01*
X-5662749Y-11645989D01*
X-5668670Y-11653040D01*
X-5678426Y-11653040D01*
X-5679276Y-11645423D01*
X-5675129Y-11636243D01*
X-5640883Y-11636243D01*
X-5640833Y-11639323D01*
X-5639935Y-11642434D01*
X-5638356Y-11647900D01*
X-5631513Y-11640620D01*
X-5630419Y-11638149D01*
X-5633800Y-11628483D01*
X-5637204Y-11627882D01*
X-5640883Y-11636243D01*
X-5675129Y-11636243D01*
X-5673103Y-11631758D01*
X-5672783Y-11627540D01*
X-5660334Y-11627540D01*
X-5656166Y-11631708D01*
X-5651998Y-11627540D01*
X-5656166Y-11623372D01*
X-5660334Y-11627540D01*
X-5672783Y-11627540D01*
X-5672283Y-11620933D01*
X-5677874Y-11619740D01*
X-5679942Y-11621454D01*
X-5681174Y-11631708D01*
X-5680170Y-11634426D01*
X-5680911Y-11635876D01*
X-5685090Y-11644056D01*
X-5689562Y-11650909D01*
X-5689670Y-11652548D01*
X-5690655Y-11667556D01*
X-5703678Y-11667556D01*
X-5706182Y-11665052D01*
X-5710350Y-11669220D01*
X-5718686Y-11669220D01*
X-5722854Y-11665052D01*
X-5727022Y-11669220D01*
X-5760349Y-11669220D01*
X-5757503Y-11660960D01*
X-5752536Y-11652548D01*
X-5710350Y-11652548D01*
X-5706182Y-11656716D01*
X-5702014Y-11652548D01*
X-5706182Y-11648380D01*
X-5710350Y-11652548D01*
X-5752536Y-11652548D01*
X-5749180Y-11646864D01*
X-5741118Y-11640109D01*
X-5738982Y-11639484D01*
X-5739234Y-11635876D01*
X-5702014Y-11635876D01*
X-5697846Y-11640044D01*
X-5693678Y-11635876D01*
X-5697846Y-11631708D01*
X-5702014Y-11635876D01*
X-5739234Y-11635876D01*
X-5739526Y-11631708D01*
X-5740829Y-11628479D01*
X-5735850Y-11623372D01*
X-5733431Y-11623052D01*
X-5727022Y-11615036D01*
X-5727982Y-11611664D01*
X-5738188Y-11606700D01*
X-5746528Y-11611165D01*
X-5757474Y-11625573D01*
X-5765072Y-11642862D01*
X-5765218Y-11655610D01*
X-5765436Y-11658971D01*
X-5775608Y-11662652D01*
X-5782517Y-11663348D01*
X-5800928Y-11666467D01*
X-5804298Y-11666149D01*
X-5816155Y-11656606D01*
X-5828762Y-11637960D01*
X-5829523Y-11636534D01*
X-5843773Y-11614247D01*
X-5854925Y-11607173D01*
X-5864228Y-11614487D01*
X-5864089Y-11618899D01*
X-5855765Y-11632860D01*
X-5839712Y-11650757D01*
X-5830398Y-11660542D01*
X-5816040Y-11679604D01*
X-5811998Y-11689518D01*
X-5810803Y-11692450D01*
X-5810383Y-11693479D01*
X-5808858Y-11700882D01*
X-5800759Y-11701769D01*
X-5796117Y-11699743D01*
X-5797055Y-11705400D01*
X-5802120Y-11710901D01*
X-5803979Y-11712920D01*
X-5820189Y-11724192D01*
X-5820652Y-11724439D01*
X-5832237Y-11729199D01*
X-5831737Y-11724236D01*
X-5830696Y-11719255D01*
X-5839559Y-11715069D01*
X-5845955Y-11713948D01*
X-5847147Y-11710901D01*
X-5818719Y-11710901D01*
X-5814551Y-11715069D01*
X-5810383Y-11710901D01*
X-5814551Y-11706733D01*
X-5818719Y-11710901D01*
X-5847147Y-11710901D01*
X-5848435Y-11707606D01*
X-5847678Y-11703477D01*
X-5848103Y-11703057D01*
X-5835391Y-11703057D01*
X-5835310Y-11704222D01*
X-5830485Y-11706058D01*
X-5822091Y-11697109D01*
X-5820063Y-11692450D01*
X-5825767Y-11693432D01*
X-5829470Y-11696006D01*
X-5835391Y-11703057D01*
X-5848103Y-11703057D01*
X-5855632Y-11695612D01*
X-5862099Y-11689938D01*
X-5862568Y-11673931D01*
X-5850019Y-11673931D01*
X-5847895Y-11681724D01*
X-5846183Y-11684192D01*
X-5838575Y-11690060D01*
X-5837435Y-11689518D01*
X-5839559Y-11681724D01*
X-5841272Y-11679257D01*
X-5848879Y-11673388D01*
X-5850019Y-11673931D01*
X-5862568Y-11673931D01*
X-5862607Y-11672595D01*
X-5861143Y-11660519D01*
X-5867250Y-11659966D01*
X-5876830Y-11661590D01*
X-5894060Y-11656547D01*
X-5911149Y-11651730D01*
X-5934710Y-11652391D01*
X-5943233Y-11654956D01*
X-5958017Y-11666654D01*
X-5968808Y-11690182D01*
X-5971716Y-11698271D01*
X-5979654Y-11714422D01*
X-5985739Y-11719052D01*
X-5991795Y-11719630D01*
X-6003252Y-11729265D01*
X-6004104Y-11730322D01*
X-6009749Y-11738884D01*
X-6003862Y-11736811D01*
X-6001626Y-11735605D01*
X-5996401Y-11737186D01*
X-5998514Y-11751883D01*
X-6000250Y-11766656D01*
X-5993788Y-11773421D01*
X-5988706Y-11775690D01*
X-5989217Y-11787911D01*
X-5991247Y-11793860D01*
X-5989501Y-11795971D01*
X-5978828Y-11785827D01*
X-5968616Y-11769882D01*
X-5965461Y-11740620D01*
X-5958388Y-11740620D01*
X-5956264Y-11748413D01*
X-5954551Y-11750881D01*
X-5946944Y-11756749D01*
X-5945804Y-11756206D01*
X-5947928Y-11748413D01*
X-5949641Y-11745945D01*
X-5957248Y-11740077D01*
X-5958388Y-11740620D01*
X-5965461Y-11740620D01*
X-5965402Y-11740077D01*
X-5967924Y-11710901D01*
X-5951674Y-11730580D01*
X-5947601Y-11736181D01*
X-5939797Y-11751046D01*
X-5938062Y-11756206D01*
X-5935100Y-11765014D01*
X-5934829Y-11773349D01*
X-5940306Y-11771318D01*
X-5940648Y-11771048D01*
X-5950205Y-11773294D01*
X-5965374Y-11783988D01*
X-5967092Y-11785506D01*
X-5978591Y-11799295D01*
X-5975667Y-11807654D01*
X-5973563Y-11809231D01*
X-5969168Y-11815947D01*
X-5965916Y-11820916D01*
X-5963223Y-11834014D01*
X-5967422Y-11840748D01*
X-5972010Y-11841421D01*
X-5987414Y-11844162D01*
X-5990509Y-11844681D01*
X-5997658Y-11842724D01*
X-5995242Y-11836162D01*
X-5983830Y-11836162D01*
X-5980076Y-11836089D01*
X-5973472Y-11825881D01*
X-5972879Y-11824300D01*
X-5971130Y-11815947D01*
X-5978139Y-11821215D01*
X-5982895Y-11827344D01*
X-5983830Y-11836162D01*
X-5995242Y-11836162D01*
X-5993295Y-11830875D01*
X-5989222Y-11816336D01*
X-5996844Y-11797470D01*
X-6008991Y-11780129D01*
X-6018349Y-11797615D01*
X-6023153Y-11810949D01*
X-6018765Y-11831810D01*
X-6015638Y-11838543D01*
X-6016149Y-11844278D01*
X-6016589Y-11849215D01*
X-6030976Y-11858156D01*
X-6045386Y-11866741D01*
X-6052129Y-11875284D01*
X-6052599Y-11877554D01*
X-6059889Y-11877978D01*
X-6063591Y-11876858D01*
X-6073563Y-11882752D01*
X-6074439Y-11889590D01*
X-6065560Y-11900110D01*
X-6058408Y-11905022D01*
X-6058327Y-11912101D01*
X-6070641Y-11924022D01*
X-6081737Y-11934208D01*
X-6084092Y-11941791D01*
X-6074878Y-11948992D01*
X-6066302Y-11957484D01*
X-6066786Y-11968468D01*
X-6079713Y-11973359D01*
X-6083546Y-11971843D01*
X-6077137Y-11965151D01*
X-6075540Y-11964106D01*
X-6069568Y-11958319D01*
X-6079221Y-11956942D01*
X-6086973Y-11958469D01*
X-6093937Y-11967235D01*
X-6094982Y-11973131D01*
X-6100409Y-11967675D01*
X-6104654Y-11963585D01*
X-6117876Y-11964569D01*
X-6125064Y-11967408D01*
X-6143599Y-11967625D01*
X-6152135Y-11967493D01*
X-6163421Y-11977416D01*
X-6165058Y-11984505D01*
X-6160498Y-11985991D01*
X-6156566Y-11985556D01*
X-6157842Y-11995262D01*
X-6159767Y-12003470D01*
X-6154358Y-12004020D01*
X-6149957Y-12004749D01*
X-6152548Y-12012020D01*
X-6154925Y-12018691D01*
X-6162664Y-12031046D01*
X-6168734Y-12033289D01*
X-6178673Y-12025689D01*
X-6189305Y-12029429D01*
X-6193842Y-12045733D01*
X-6192489Y-12059727D01*
X-6188979Y-12063100D01*
X-6187761Y-12062280D01*
X-6178069Y-12065297D01*
X-6166245Y-12076602D01*
X-6156998Y-12090758D01*
X-6155679Y-12098528D01*
X-6155034Y-12102325D01*
X-6156182Y-12106912D01*
X-6153594Y-12120436D01*
X-6151951Y-12122936D01*
X-6155623Y-12121742D01*
X-6161947Y-12120815D01*
X-6173107Y-12129257D01*
X-6181034Y-12136971D01*
X-6188894Y-12133135D01*
X-6190615Y-12128798D01*
X-6185998Y-12123536D01*
X-6180611Y-12119397D01*
X-6177756Y-12104780D01*
X-6178156Y-12095684D01*
X-6178859Y-12094192D01*
X-6167053Y-12094192D01*
X-6166055Y-12104085D01*
X-6163548Y-12105389D01*
X-6160498Y-12098528D01*
X-6161099Y-12094115D01*
X-6166055Y-12092970D01*
X-6167053Y-12094192D01*
X-6178859Y-12094192D01*
X-6180187Y-12091373D01*
X-6186207Y-12102696D01*
X-6190016Y-12110361D01*
X-6192556Y-12111761D01*
X-6191206Y-12097807D01*
X-6190426Y-12089225D01*
X-6194341Y-12078921D01*
X-6203205Y-12078045D01*
X-6203235Y-12077688D01*
X-6203371Y-12078029D01*
X-6209815Y-12077393D01*
X-6224278Y-12081071D01*
X-6233868Y-12091925D01*
X-6234429Y-12096303D01*
X-6230545Y-12108769D01*
X-6220752Y-12109431D01*
X-6210972Y-12096979D01*
X-6203371Y-12078029D01*
X-6203205Y-12078045D01*
X-6201665Y-12096444D01*
X-6200558Y-12107996D01*
X-6198298Y-12119368D01*
X-6197346Y-12124159D01*
X-6192628Y-12136040D01*
X-6190146Y-12142292D01*
X-6188648Y-12146252D01*
X-6187413Y-12164318D01*
X-6190083Y-12169384D01*
X-6194115Y-12177036D01*
X-6206316Y-12178885D01*
X-6212393Y-12177519D01*
X-6216666Y-12181600D01*
X-6218377Y-12188268D01*
X-6229140Y-12200056D01*
X-6236010Y-12209719D01*
X-6238987Y-12226565D01*
X-8083465Y-12226565D01*
X-8086475Y-12198032D01*
X-8088267Y-12169384D01*
X-6243858Y-12169384D01*
X-6239690Y-12173552D01*
X-6235522Y-12169384D01*
X-6202178Y-12169384D01*
X-6198010Y-12173552D01*
X-6193842Y-12169384D01*
X-6198010Y-12165216D01*
X-6202178Y-12169384D01*
X-6235522Y-12169384D01*
X-6239690Y-12165216D01*
X-6243858Y-12169384D01*
X-8088267Y-12169384D01*
X-8089408Y-12151136D01*
X-8090005Y-12136040D01*
X-6252195Y-12136040D01*
X-6248026Y-12140208D01*
X-6243858Y-12136040D01*
X-6248026Y-12131872D01*
X-6252195Y-12136040D01*
X-8090005Y-12136040D01*
X-8090664Y-12119368D01*
X-6243858Y-12119368D01*
X-6239690Y-12123536D01*
X-6235522Y-12119368D01*
X-6239690Y-12115200D01*
X-6243858Y-12119368D01*
X-8090664Y-12119368D01*
X-8091815Y-12090279D01*
X-8091948Y-12086101D01*
X-8092662Y-12002795D01*
X-6182727Y-12002795D01*
X-6181479Y-12008475D01*
X-6171613Y-12015167D01*
X-6167211Y-12014908D01*
X-6160498Y-12012020D01*
X-6162045Y-12009139D01*
X-6171613Y-11999648D01*
X-6179921Y-11995016D01*
X-6182727Y-12002795D01*
X-8092662Y-12002795D01*
X-8092709Y-11997285D01*
X-8089274Y-11920140D01*
X-8081775Y-11855814D01*
X-8070344Y-11805455D01*
X-8055110Y-11770211D01*
X-8023220Y-11724264D01*
X-7990117Y-11687446D01*
X-7959313Y-11664650D01*
X-7931912Y-11656889D01*
X-7925404Y-11657980D01*
X-7914893Y-11662870D01*
X-7900037Y-11672844D01*
X-7879258Y-11689153D01*
X-7850979Y-11713045D01*
X-7813624Y-11745769D01*
X-7765615Y-11788573D01*
X-7758551Y-11794693D01*
X-7729196Y-11817364D01*
X-7694908Y-11840777D01*
X-7659326Y-11862761D01*
X-7626090Y-11881149D01*
X-7598838Y-11893773D01*
X-7581210Y-11898462D01*
X-7580648Y-11898507D01*
X-7568865Y-11902171D01*
X-7549713Y-11909919D01*
X-7527835Y-11918837D01*
X-7465114Y-11936151D01*
X-7405955Y-11938485D01*
X-7347244Y-11925693D01*
X-7285867Y-11897631D01*
X-7273581Y-11891036D01*
X-7250853Y-11879142D01*
X-7223346Y-11864929D01*
X-7202668Y-11854116D01*
X-7184904Y-11844278D01*
X-6027121Y-11844278D01*
X-6022953Y-11848446D01*
X-6018785Y-11844278D01*
X-6022953Y-11840110D01*
X-6027121Y-11844278D01*
X-7184904Y-11844278D01*
X-7177062Y-11839935D01*
X-7151194Y-11824400D01*
X-7122435Y-11805798D01*
X-7088159Y-11782417D01*
X-7045738Y-11752543D01*
X-6992543Y-11714464D01*
X-6951969Y-11685563D01*
X-6896587Y-11647162D01*
X-6849694Y-11615994D01*
X-6812458Y-11592804D01*
X-6786052Y-11578342D01*
X-6783688Y-11577524D01*
X-5835391Y-11577524D01*
X-5834451Y-11583276D01*
X-5827055Y-11590028D01*
X-5823220Y-11588617D01*
X-5819425Y-11579263D01*
X-5734082Y-11579263D01*
X-5728614Y-11581564D01*
X-5724155Y-11582723D01*
X-5723650Y-11591316D01*
X-5725672Y-11596410D01*
X-5718558Y-11594116D01*
X-5711689Y-11591590D01*
X-5712307Y-11599775D01*
X-5712917Y-11601856D01*
X-5709262Y-11610591D01*
X-5698571Y-11612074D01*
X-5696880Y-11610868D01*
X-5660334Y-11610868D01*
X-5656166Y-11615036D01*
X-5651998Y-11610868D01*
X-5656166Y-11606700D01*
X-5660334Y-11610868D01*
X-5696880Y-11610868D01*
X-5688308Y-11604756D01*
X-5687085Y-11602080D01*
X-5689344Y-11594196D01*
X-5677006Y-11594196D01*
X-5672838Y-11598364D01*
X-5668670Y-11594196D01*
X-5672838Y-11590028D01*
X-5677006Y-11594196D01*
X-5689344Y-11594196D01*
X-5690267Y-11590973D01*
X-5703695Y-11585860D01*
X-5708782Y-11580994D01*
X-5713017Y-11564872D01*
X-5714620Y-11543357D01*
X-5713212Y-11522623D01*
X-5708415Y-11508843D01*
X-5703376Y-11504555D01*
X-5691445Y-11503879D01*
X-5687445Y-11505399D01*
X-5688229Y-11502499D01*
X-5677006Y-11502499D01*
X-5672838Y-11506667D01*
X-5668670Y-11502499D01*
X-5672838Y-11498331D01*
X-5677006Y-11502499D01*
X-5688229Y-11502499D01*
X-5689234Y-11498778D01*
X-5689894Y-11497766D01*
X-5697538Y-11494163D01*
X-5660334Y-11494163D01*
X-5656166Y-11498331D01*
X-5651998Y-11494163D01*
X-5656166Y-11489995D01*
X-5660334Y-11494163D01*
X-5697538Y-11494163D01*
X-5697901Y-11493992D01*
X-5710350Y-11503742D01*
X-5712144Y-11505721D01*
X-5723743Y-11523780D01*
X-5730606Y-11543191D01*
X-5731476Y-11558723D01*
X-5725097Y-11565147D01*
X-5720101Y-11566670D01*
X-5727022Y-11573356D01*
X-5732004Y-11577524D01*
X-5734082Y-11579263D01*
X-5819425Y-11579263D01*
X-5818719Y-11577524D01*
X-5819659Y-11571771D01*
X-5827055Y-11565019D01*
X-5830890Y-11566430D01*
X-5835391Y-11577524D01*
X-6783688Y-11577524D01*
X-6771645Y-11573356D01*
X-6768896Y-11573111D01*
X-6759305Y-11567097D01*
X-6758255Y-11566107D01*
X-6745956Y-11558727D01*
X-6721882Y-11545759D01*
X-6688494Y-11528425D01*
X-6648254Y-11507948D01*
X-6603621Y-11485551D01*
X-6557058Y-11462457D01*
X-6511024Y-11439888D01*
X-6467981Y-11419067D01*
X-6430389Y-11401218D01*
X-6400710Y-11387562D01*
X-6396568Y-11385794D01*
X-5718686Y-11385794D01*
X-5714518Y-11389962D01*
X-5710350Y-11385794D01*
X-5712237Y-11383907D01*
X-5695503Y-11383907D01*
X-5694338Y-11385794D01*
X-5689787Y-11393167D01*
X-5677643Y-11405892D01*
X-5663026Y-11418088D01*
X-5649888Y-11425759D01*
X-5645800Y-11427745D01*
X-5640518Y-11434389D01*
X-5637872Y-11447680D01*
X-5637406Y-11470945D01*
X-5638204Y-11494163D01*
X-5638490Y-11502499D01*
X-5638662Y-11507509D01*
X-5639636Y-11524828D01*
X-5642571Y-11556191D01*
X-5646306Y-11578936D01*
X-5650269Y-11589037D01*
X-5653474Y-11592658D01*
X-5652725Y-11594196D01*
X-5648885Y-11602080D01*
X-5648665Y-11602532D01*
X-5644023Y-11606097D01*
X-5631365Y-11610868D01*
X-5626486Y-11612707D01*
X-5614317Y-11606428D01*
X-5612259Y-11603875D01*
X-5603073Y-11601857D01*
X-5601910Y-11602021D01*
X-5597768Y-11593708D01*
X-5595208Y-11574901D01*
X-5594917Y-11570180D01*
X-5592870Y-11552348D01*
X-5583528Y-11552348D01*
X-5582530Y-11562241D01*
X-5580023Y-11563545D01*
X-5576973Y-11556683D01*
X-5577575Y-11552270D01*
X-5582530Y-11551126D01*
X-5583528Y-11552348D01*
X-5592870Y-11552348D01*
X-5590975Y-11535843D01*
X-5585309Y-11535843D01*
X-5581141Y-11540011D01*
X-5576973Y-11535843D01*
X-5581141Y-11531675D01*
X-5585309Y-11535843D01*
X-5590975Y-11535843D01*
X-5590374Y-11530609D01*
X-5586893Y-11519171D01*
X-5576973Y-11519171D01*
X-5572805Y-11523339D01*
X-5568637Y-11519171D01*
X-5572805Y-11515003D01*
X-5576973Y-11519171D01*
X-5586893Y-11519171D01*
X-5583033Y-11506487D01*
X-5573046Y-11498331D01*
X-5567719Y-11495482D01*
X-5559088Y-11482346D01*
X-5553359Y-11465601D01*
X-5553899Y-11453192D01*
X-5553980Y-11452285D01*
X-5548263Y-11442463D01*
X-5535293Y-11426802D01*
X-5530913Y-11421874D01*
X-5522650Y-11411071D01*
X-5523999Y-11409410D01*
X-5529719Y-11410340D01*
X-5538528Y-11401890D01*
X-5542280Y-11395849D01*
X-5551394Y-11393777D01*
X-5557648Y-11393792D01*
X-5567583Y-11383885D01*
X-5571692Y-11377950D01*
X-5493612Y-11377950D01*
X-5493531Y-11379115D01*
X-5488706Y-11380951D01*
X-5480312Y-11372002D01*
X-5478284Y-11367343D01*
X-5483988Y-11368326D01*
X-5487691Y-11370899D01*
X-5493612Y-11377950D01*
X-5571692Y-11377950D01*
X-5573476Y-11375374D01*
X-5580725Y-11375686D01*
X-5593429Y-11387878D01*
X-5608111Y-11401082D01*
X-5618978Y-11406634D01*
X-5623479Y-11404888D01*
X-5626864Y-11393776D01*
X-5623583Y-11378171D01*
X-5614383Y-11364869D01*
X-5606714Y-11355182D01*
X-5607729Y-11352450D01*
X-5476940Y-11352450D01*
X-5472772Y-11356618D01*
X-5468604Y-11352450D01*
X-5472772Y-11348282D01*
X-5476940Y-11352450D01*
X-5607729Y-11352450D01*
X-5611235Y-11343008D01*
X-5616759Y-11337106D01*
X-5627243Y-11332666D01*
X-5640437Y-11338801D01*
X-5646370Y-11344114D01*
X-5660334Y-11356618D01*
X-5664758Y-11360786D01*
X-5666891Y-11362795D01*
X-5683353Y-11376258D01*
X-5693567Y-11381626D01*
X-5695503Y-11383907D01*
X-5712237Y-11383907D01*
X-5714518Y-11381626D01*
X-5718686Y-11385794D01*
X-6396568Y-11385794D01*
X-6381404Y-11379322D01*
X-6363596Y-11372550D01*
X-6332126Y-11360786D01*
X-5677006Y-11360786D01*
X-5672838Y-11364954D01*
X-5668670Y-11360786D01*
X-5672838Y-11356618D01*
X-5677006Y-11360786D01*
X-6332126Y-11360786D01*
X-6331134Y-11360415D01*
X-6298043Y-11348230D01*
X-6286789Y-11344114D01*
X-5677006Y-11344114D01*
X-5672838Y-11348282D01*
X-5668670Y-11344114D01*
X-5672838Y-11339946D01*
X-5677006Y-11344114D01*
X-6286789Y-11344114D01*
X-6273883Y-11339394D01*
X-6247891Y-11329834D01*
X-6235424Y-11325200D01*
X-5665222Y-11325200D01*
X-5661343Y-11335154D01*
X-5656875Y-11335816D01*
X-5648965Y-11327394D01*
X-5648101Y-11318996D01*
X-5654623Y-11315063D01*
X-5664146Y-11322697D01*
X-5665222Y-11325200D01*
X-6235424Y-11325200D01*
X-6231354Y-11323687D01*
X-6211984Y-11316674D01*
X-6173952Y-11303507D01*
X-6146142Y-11294097D01*
X-5635325Y-11294097D01*
X-5631157Y-11298265D01*
X-5626989Y-11294097D01*
X-5631157Y-11289929D01*
X-5635325Y-11294097D01*
X-6146142Y-11294097D01*
X-6121506Y-11285761D01*
X-5326891Y-11285761D01*
X-5325390Y-11294097D01*
X-5324444Y-11299355D01*
X-5314387Y-11306601D01*
X-5308193Y-11305816D01*
X-5302239Y-11297460D01*
X-5306943Y-11278107D01*
X-5307097Y-11277710D01*
X-5315692Y-11265842D01*
X-5323491Y-11268986D01*
X-5326891Y-11285761D01*
X-6121506Y-11285761D01*
X-6120569Y-11285444D01*
X-6052129Y-11262584D01*
X-6029562Y-11254851D01*
X-5999749Y-11243807D01*
X-5978771Y-11234968D01*
X-5970158Y-11229748D01*
X-5965942Y-11226161D01*
X-5951288Y-11223241D01*
X-5941580Y-11222238D01*
X-5935329Y-11220191D01*
X-5875597Y-11220191D01*
X-5868735Y-11223241D01*
X-5864322Y-11222639D01*
X-5863178Y-11217683D01*
X-5864400Y-11216686D01*
X-5874293Y-11217683D01*
X-5875597Y-11220191D01*
X-5935329Y-11220191D01*
X-5920723Y-11215408D01*
X-5904314Y-11208504D01*
X-5881239Y-11201500D01*
X-5861882Y-11196738D01*
X-5849979Y-11193702D01*
X-5849975Y-11193701D01*
X-5836193Y-11190938D01*
X-5835152Y-11190534D01*
X-5824963Y-11181549D01*
X-5808320Y-11163309D01*
X-5788260Y-11139101D01*
X-5767109Y-11113137D01*
X-3563254Y-11113137D01*
X-3562525Y-11127725D01*
X-3562490Y-11127806D01*
X-3553876Y-11134578D01*
X-3533327Y-11146879D01*
X-3503898Y-11163127D01*
X-3468642Y-11181737D01*
X-3430611Y-11201126D01*
X-3396976Y-11217683D01*
X-3392858Y-11219710D01*
X-3358438Y-11235906D01*
X-3330403Y-11248129D01*
X-3321599Y-11251832D01*
X-3298836Y-11261732D01*
X-3272050Y-11273630D01*
X-3257151Y-11280311D01*
X-3220653Y-11296651D01*
X-3218843Y-11297460D01*
X-3186368Y-11311973D01*
X-3169721Y-11318996D01*
X-3167253Y-11320037D01*
X-3144289Y-11328376D01*
X-3130591Y-11331610D01*
X-3120296Y-11329586D01*
X-3113929Y-11319805D01*
X-3122093Y-11306525D01*
X-3128437Y-11299000D01*
X-3134505Y-11280244D01*
X-3134520Y-11279386D01*
X-3140594Y-11258433D01*
X-3155658Y-11232660D01*
X-3176762Y-11205241D01*
X-3200954Y-11179346D01*
X-3225286Y-11158149D01*
X-3246806Y-11144823D01*
X-3262565Y-11142538D01*
X-3278383Y-11142180D01*
X-3294301Y-11131314D01*
X-3301226Y-11114465D01*
X-3302201Y-11104593D01*
X-3308881Y-11083498D01*
X-3311471Y-11078518D01*
X-3326189Y-11047495D01*
X-3339740Y-11015038D01*
X-3349978Y-10986571D01*
X-3354759Y-10967518D01*
X-3355085Y-10965502D01*
X-3362280Y-10947998D01*
X-3375759Y-10926061D01*
X-3391981Y-10904471D01*
X-3407405Y-10888011D01*
X-3418490Y-10881462D01*
X-3422419Y-10880509D01*
X-3438305Y-10873054D01*
X-3459612Y-10860622D01*
X-3469864Y-10854372D01*
X-3489148Y-10843914D01*
X-3500223Y-10839782D01*
X-3505710Y-10843478D01*
X-3512559Y-10859691D01*
X-3514553Y-10868347D01*
X-3519538Y-10889985D01*
X-3527007Y-10935646D01*
X-3531814Y-10966239D01*
X-3538146Y-10999560D01*
X-3546604Y-11037046D01*
X-3558440Y-11084623D01*
X-3559846Y-11090564D01*
X-3563254Y-11113137D01*
X-5767109Y-11113137D01*
X-5764070Y-11109406D01*
X-5737812Y-11078360D01*
X-5715952Y-11053656D01*
X-5708900Y-11045690D01*
X-5687129Y-11018932D01*
X-5659668Y-10983024D01*
X-5627810Y-10939851D01*
X-5592847Y-10891296D01*
X-5568746Y-10857183D01*
X-5123596Y-10857183D01*
X-5120899Y-10878414D01*
X-5113926Y-10893286D01*
X-5098888Y-10903243D01*
X-5074725Y-10900811D01*
X-5074278Y-10900686D01*
X-5063467Y-10890876D01*
X-5060137Y-10868347D01*
X-5061221Y-10850778D01*
X-5067511Y-10841731D01*
X-5083061Y-10839909D01*
X-5089332Y-10840057D01*
X-5113485Y-10844817D01*
X-5123596Y-10857183D01*
X-5568746Y-10857183D01*
X-5556073Y-10839245D01*
X-5518782Y-10785582D01*
X-5482267Y-10732193D01*
X-5447822Y-10680961D01*
X-5416738Y-10633772D01*
X-5390311Y-10592510D01*
X-5369833Y-10559061D01*
X-5356598Y-10535308D01*
X-5351899Y-10523137D01*
X-5351637Y-10521036D01*
X-5343563Y-10514675D01*
X-5341575Y-10514439D01*
X-5335227Y-10506501D01*
X-5331640Y-10496979D01*
X-5321104Y-10477429D01*
X-5306051Y-10452717D01*
X-5292072Y-10429875D01*
X-5281084Y-10409794D01*
X-5276875Y-10399065D01*
X-5276794Y-10397774D01*
X-5270316Y-10388244D01*
X-5264727Y-10381877D01*
X-5253710Y-10364177D01*
X-5240446Y-10339617D01*
X-5228822Y-10316751D01*
X-5205603Y-10271003D01*
X-5188394Y-10236944D01*
X-5176081Y-10212338D01*
X-5167551Y-10194951D01*
X-5161690Y-10182549D01*
X-5157386Y-10172896D01*
X-5149176Y-10156793D01*
X-5136313Y-10137468D01*
X-5129785Y-10128164D01*
X-5129303Y-10122880D01*
X-5129875Y-10122515D01*
X-5125769Y-10114891D01*
X-5113623Y-10100498D01*
X-5110745Y-10097263D01*
X-5099251Y-10080489D01*
X-5096449Y-10068818D01*
X-5096089Y-10057539D01*
X-5089277Y-10039452D01*
X-5083478Y-10023492D01*
X-5084851Y-10006006D01*
X-5095418Y-9985774D01*
X-5116512Y-9960314D01*
X-5149463Y-9927139D01*
X-5156247Y-9920605D01*
X-5203394Y-9875010D01*
X-5240359Y-9838829D01*
X-5268892Y-9810289D01*
X-5290741Y-9787613D01*
X-5307657Y-9769029D01*
X-5321389Y-9752761D01*
X-5328446Y-9744068D01*
X-5350197Y-9717412D01*
X-5369103Y-9694408D01*
X-5371261Y-9691775D01*
X-5391372Y-9665811D01*
X-5406649Y-9644576D01*
X-4843399Y-9644576D01*
X-4843262Y-9646039D01*
X-4837831Y-9646096D01*
X-4825664Y-9633136D01*
X-4821007Y-9627096D01*
X-4818937Y-9622779D01*
X-4828811Y-9629988D01*
X-4837702Y-9637618D01*
X-4843399Y-9644576D01*
X-5406649Y-9644576D01*
X-5410381Y-9639388D01*
X-5415194Y-9632421D01*
X-5419329Y-9626716D01*
X-5066692Y-9626716D01*
X-5065694Y-9636609D01*
X-5063187Y-9637913D01*
X-5060137Y-9631052D01*
X-5060738Y-9626639D01*
X-5065694Y-9625494D01*
X-5066692Y-9626716D01*
X-5419329Y-9626716D01*
X-5427814Y-9615010D01*
X-5431793Y-9610211D01*
X-5135161Y-9610211D01*
X-5130993Y-9614379D01*
X-5126825Y-9610211D01*
X-5130993Y-9606043D01*
X-5135161Y-9610211D01*
X-5431793Y-9610211D01*
X-5435248Y-9606043D01*
X-5435511Y-9605787D01*
X-5441877Y-9595580D01*
X-5452946Y-9574829D01*
X-5466490Y-9547691D01*
X-5471488Y-9536915D01*
X-5485657Y-9493507D01*
X-5185178Y-9493507D01*
X-5181010Y-9497675D01*
X-5176842Y-9493507D01*
X-5181010Y-9489338D01*
X-5185178Y-9493507D01*
X-5485657Y-9493507D01*
X-5491767Y-9474788D01*
X-5497683Y-9413903D01*
X-5488886Y-9357216D01*
X-5485835Y-9346332D01*
X-5479519Y-9316942D01*
X-5476903Y-9293441D01*
X-5475081Y-9273682D01*
X-5470560Y-9258804D01*
X-5468334Y-9259295D01*
X-5466519Y-9271501D01*
X-5465856Y-9292931D01*
X-5466263Y-9319403D01*
X-5467657Y-9346731D01*
X-5469958Y-9370732D01*
X-5473082Y-9387222D01*
X-5475087Y-9399503D01*
X-5469084Y-9405978D01*
X-5465258Y-9404901D01*
X-5465232Y-9396354D01*
X-5467274Y-9391539D01*
X-5461151Y-9392928D01*
X-5455591Y-9398952D01*
X-5460525Y-9410456D01*
X-5461664Y-9411932D01*
X-5462254Y-9418574D01*
X-5452608Y-9419175D01*
X-5436901Y-9414828D01*
X-5419307Y-9406626D01*
X-5404000Y-9395661D01*
X-5402785Y-9394539D01*
X-5401319Y-9393474D01*
X-5393579Y-9393474D01*
X-5389411Y-9397642D01*
X-5385243Y-9393474D01*
X-5389411Y-9389306D01*
X-5393579Y-9393474D01*
X-5401319Y-9393474D01*
X-5390053Y-9385292D01*
X-5384282Y-9385769D01*
X-5383974Y-9388300D01*
X-5383395Y-9393474D01*
X-5382198Y-9404171D01*
X-5380111Y-9410288D01*
X-5368686Y-9422552D01*
X-5363016Y-9427196D01*
X-5360664Y-9437743D01*
X-5366457Y-9457153D01*
X-5370691Y-9468981D01*
X-5373151Y-9484130D01*
X-5364916Y-9488552D01*
X-5343596Y-9485178D01*
X-5343505Y-9485158D01*
X-5320892Y-9475639D01*
X-5311538Y-9461457D01*
X-5317145Y-9445188D01*
X-5321089Y-9438223D01*
X-5317443Y-9422370D01*
X-5310782Y-9415477D01*
X-5304861Y-9420148D01*
X-5304717Y-9420489D01*
X-5296650Y-9434031D01*
X-5283448Y-9452173D01*
X-5282827Y-9452960D01*
X-5269616Y-9466472D01*
X-5254898Y-9471027D01*
X-5231364Y-9468985D01*
X-5215420Y-9467192D01*
X-5196575Y-9469153D01*
X-5183822Y-9478639D01*
X-5178090Y-9485551D01*
X-5172362Y-9493507D01*
X-5166580Y-9501537D01*
X-5161874Y-9511440D01*
X-5165828Y-9511833D01*
X-5169735Y-9510837D01*
X-5174063Y-9518515D01*
X-5173255Y-9523509D01*
X-5167116Y-9525992D01*
X-5163080Y-9526218D01*
X-5159511Y-9536779D01*
X-5158238Y-9544550D01*
X-5154501Y-9540997D01*
X-5154349Y-9540626D01*
X-5148300Y-9535813D01*
X-5137869Y-9545165D01*
X-5130488Y-9552692D01*
X-5130993Y-9547691D01*
X-5131150Y-9543458D01*
X-5123542Y-9551003D01*
X-5116332Y-9562799D01*
X-5115080Y-9573927D01*
X-5116033Y-9576482D01*
X-5110153Y-9581035D01*
X-5107099Y-9581508D01*
X-5105194Y-9588091D01*
X-5105330Y-9589622D01*
X-5096442Y-9592378D01*
X-5077216Y-9591913D01*
X-5071107Y-9591463D01*
X-5050503Y-9592565D01*
X-5039492Y-9597392D01*
X-5030560Y-9601839D01*
X-5012534Y-9600690D01*
X-5006382Y-9599272D01*
X-4995974Y-9599248D01*
X-4997596Y-9606912D01*
X-4999001Y-9610211D01*
X-5000668Y-9614124D01*
X-4993512Y-9608635D01*
X-4991337Y-9606790D01*
X-4981049Y-9604768D01*
X-4968566Y-9616294D01*
X-4960775Y-9624125D01*
X-4949798Y-9631052D01*
X-4945513Y-9633756D01*
X-4932357Y-9637057D01*
X-4926760Y-9631981D01*
X-4927957Y-9628273D01*
X-4920905Y-9628273D01*
X-4918877Y-9632973D01*
X-4914256Y-9639388D01*
X-4912845Y-9638339D01*
X-4907606Y-9628273D01*
X-4906894Y-9623023D01*
X-4914256Y-9617158D01*
X-4918902Y-9618485D01*
X-4920905Y-9628273D01*
X-4927957Y-9628273D01*
X-4928282Y-9627265D01*
X-4937180Y-9614824D01*
X-4938083Y-9613845D01*
X-4943197Y-9607062D01*
X-4935763Y-9610356D01*
X-4928147Y-9612900D01*
X-4928716Y-9604632D01*
X-4929723Y-9598037D01*
X-4922592Y-9592150D01*
X-4917494Y-9593893D01*
X-4916467Y-9604632D01*
X-4917892Y-9611563D01*
X-4911445Y-9611051D01*
X-4905977Y-9609599D01*
X-4897005Y-9617049D01*
X-4891670Y-9622501D01*
X-4889475Y-9623023D01*
X-4873757Y-9626760D01*
X-4849252Y-9625406D01*
X-4823802Y-9618340D01*
X-4814397Y-9616170D01*
X-4802127Y-9622055D01*
X-4801543Y-9622779D01*
X-4799121Y-9625783D01*
X-4784212Y-9633924D01*
X-4779738Y-9634883D01*
X-4762122Y-9642198D01*
X-4756505Y-9644294D01*
X-4751575Y-9637796D01*
X-4749968Y-9632194D01*
X-4743366Y-9639388D01*
X-4738679Y-9644937D01*
X-4735158Y-9642861D01*
X-4734391Y-9639540D01*
X-4724610Y-9633386D01*
X-4724172Y-9633364D01*
X-4708599Y-9631425D01*
X-4686463Y-9627598D01*
X-4676002Y-9625846D01*
X-4664420Y-9626305D01*
X-4664972Y-9632905D01*
X-4664808Y-9636549D01*
X-4655186Y-9630235D01*
X-4642440Y-9621280D01*
X-4622493Y-9611458D01*
X-4613097Y-9608521D01*
X-4610863Y-9609492D01*
X-4622002Y-9618527D01*
X-4630239Y-9627033D01*
X-4627763Y-9631052D01*
X-4623850Y-9631723D01*
X-4621909Y-9638443D01*
X-4623244Y-9641978D01*
X-4618203Y-9652874D01*
X-4603096Y-9662269D01*
X-4582911Y-9668439D01*
X-4562636Y-9669664D01*
X-4547258Y-9664221D01*
X-4539862Y-9655011D01*
X-4543915Y-9642815D01*
X-4549460Y-9630350D01*
X-4547335Y-9626884D01*
X-4543301Y-9626884D01*
X-4539132Y-9631052D01*
X-4534964Y-9626884D01*
X-4539018Y-9622830D01*
X-4525775Y-9622830D01*
X-4525293Y-9626884D01*
X-4524971Y-9629593D01*
X-4523139Y-9633995D01*
X-4514848Y-9639301D01*
X-4510499Y-9640005D01*
X-4499834Y-9649096D01*
X-4494137Y-9655945D01*
X-4494942Y-9649183D01*
X-4496773Y-9644781D01*
X-4505065Y-9639474D01*
X-4509413Y-9638771D01*
X-4520079Y-9629680D01*
X-4525775Y-9622830D01*
X-4539018Y-9622830D01*
X-4539132Y-9622716D01*
X-4543301Y-9626884D01*
X-4547335Y-9626884D01*
X-4543208Y-9620153D01*
X-4525787Y-9618710D01*
X-4515842Y-9620728D01*
X-4492472Y-9627401D01*
X-4482208Y-9635276D01*
X-4482327Y-9646066D01*
X-4483668Y-9650387D01*
X-4482469Y-9653499D01*
X-4480930Y-9651892D01*
X-4451604Y-9651892D01*
X-4447551Y-9655945D01*
X-4447436Y-9656060D01*
X-4443268Y-9651892D01*
X-4447436Y-9647724D01*
X-4451604Y-9651892D01*
X-4480930Y-9651892D01*
X-4472947Y-9643556D01*
X-4434932Y-9643556D01*
X-4430764Y-9647724D01*
X-4426596Y-9643556D01*
X-4430764Y-9639388D01*
X-4434932Y-9643556D01*
X-4472947Y-9643556D01*
X-4464447Y-9634833D01*
X-4463923Y-9637208D01*
X-4465218Y-9642807D01*
X-4457027Y-9642884D01*
X-4454079Y-9641486D01*
X-4446757Y-9629057D01*
X-4447503Y-9626884D01*
X-4434932Y-9626884D01*
X-4430764Y-9631052D01*
X-4426596Y-9626884D01*
X-4430764Y-9622716D01*
X-4434932Y-9626884D01*
X-4447503Y-9626884D01*
X-4453345Y-9609858D01*
X-4453392Y-9604420D01*
X-4442510Y-9599942D01*
X-4433490Y-9600871D01*
X-4431744Y-9607629D01*
X-4433057Y-9611842D01*
X-4425672Y-9612679D01*
X-4421852Y-9609629D01*
X-4415840Y-9594154D01*
X-4413195Y-9571951D01*
X-4414402Y-9549654D01*
X-4419942Y-9533900D01*
X-4423447Y-9522929D01*
X-4422119Y-9503580D01*
X-4421495Y-9486048D01*
X-4433878Y-9471008D01*
X-4435739Y-9469700D01*
X-4445034Y-9461631D01*
X-4442511Y-9455014D01*
X-4426852Y-9444968D01*
X-4410534Y-9431086D01*
X-4397298Y-9405427D01*
X-4397170Y-9404845D01*
X-4392488Y-9388126D01*
X-4385491Y-9385273D01*
X-4370622Y-9393880D01*
X-4368882Y-9395000D01*
X-4356975Y-9401059D01*
X-4355205Y-9398506D01*
X-4356791Y-9394522D01*
X-4352063Y-9389306D01*
X-4348068Y-9387967D01*
X-4343235Y-9377016D01*
X-4343105Y-9375718D01*
X-4334734Y-9363539D01*
X-4317309Y-9351319D01*
X-4312762Y-9349067D01*
X-4299507Y-9344319D01*
X-4297005Y-9347007D01*
X-4295815Y-9354274D01*
X-4284696Y-9362548D01*
X-4269383Y-9367570D01*
X-4256502Y-9366199D01*
X-4253794Y-9365111D01*
X-4254245Y-9370269D01*
X-4265207Y-9377711D01*
X-4284709Y-9383853D01*
X-4290343Y-9385254D01*
X-4306524Y-9395120D01*
X-4308600Y-9408435D01*
X-4295518Y-9421529D01*
X-4288000Y-9424388D01*
X-4271026Y-9423482D01*
X-4258604Y-9415034D01*
X-4256760Y-9402069D01*
X-4256619Y-9391925D01*
X-4249716Y-9374428D01*
X-4245657Y-9368465D01*
X-4209858Y-9368465D01*
X-4205690Y-9372634D01*
X-4201522Y-9368465D01*
X-4205690Y-9364297D01*
X-4209858Y-9368465D01*
X-4245657Y-9368465D01*
X-4238976Y-9358652D01*
X-4228453Y-9351793D01*
X-4227046Y-9351562D01*
X-4224916Y-9344130D01*
X-4223073Y-9342003D01*
X-4212896Y-9348298D01*
X-4204545Y-9354001D01*
X-4203215Y-9351793D01*
X-4204206Y-9349129D01*
X-4200657Y-9337615D01*
X-4190316Y-9328932D01*
X-4179761Y-9329370D01*
X-4177716Y-9330017D01*
X-4183083Y-9321712D01*
X-4187199Y-9314665D01*
X-4186379Y-9302373D01*
X-4174626Y-9284598D01*
X-4171002Y-9279862D01*
X-4163643Y-9268405D01*
X-4165302Y-9266656D01*
X-4171380Y-9268042D01*
X-4183761Y-9261409D01*
X-4187930Y-9253131D01*
X-4178307Y-9251475D01*
X-4170654Y-9252613D01*
X-4154019Y-9258543D01*
X-4149473Y-9260256D01*
X-4139001Y-9255929D01*
X-4136661Y-9253179D01*
X-4126497Y-9251761D01*
X-4122934Y-9252717D01*
X-4113281Y-9246440D01*
X-4111178Y-9241635D01*
X-4116873Y-9242628D01*
X-4123008Y-9243426D01*
X-4126497Y-9232094D01*
X-4124049Y-9210774D01*
X-4116872Y-9196336D01*
X-4106867Y-9194889D01*
X-4105911Y-9195380D01*
X-4105282Y-9192314D01*
X-4110459Y-9185072D01*
X-4093153Y-9185072D01*
X-4088985Y-9189240D01*
X-4084817Y-9185072D01*
X-4088985Y-9180904D01*
X-4093153Y-9185072D01*
X-4110459Y-9185072D01*
X-4113904Y-9180253D01*
X-4115615Y-9178153D01*
X-4116677Y-9176736D01*
X-4109825Y-9176736D01*
X-4105657Y-9180904D01*
X-4101489Y-9176736D01*
X-4105657Y-9172568D01*
X-4109825Y-9176736D01*
X-4116677Y-9176736D01*
X-4123719Y-9167338D01*
X-4123007Y-9166243D01*
X-4116499Y-9167911D01*
X-4102740Y-9162075D01*
X-4100390Y-9160198D01*
X-4093533Y-9156174D01*
X-4096947Y-9164232D01*
X-4097708Y-9165712D01*
X-4096006Y-9167236D01*
X-4088034Y-9160064D01*
X-4076481Y-9160064D01*
X-4072313Y-9164232D01*
X-4068145Y-9160064D01*
X-4072313Y-9155896D01*
X-4076481Y-9160064D01*
X-4088034Y-9160064D01*
X-4085718Y-9157980D01*
X-4067954Y-9144966D01*
X-4049064Y-9139096D01*
X-4044762Y-9139010D01*
X-4036511Y-9136995D01*
X-4043136Y-9130888D01*
X-4045450Y-9129352D01*
X-4049918Y-9124003D01*
X-4038968Y-9122551D01*
X-4035848Y-9122473D01*
X-4027720Y-9120503D01*
X-4034800Y-9114215D01*
X-4036397Y-9113171D01*
X-4042369Y-9107384D01*
X-4032716Y-9106007D01*
X-4023869Y-9104719D01*
X-4022006Y-9101711D01*
X-4009792Y-9101711D01*
X-4005624Y-9105879D01*
X-4001456Y-9101711D01*
X-4005624Y-9097543D01*
X-4009792Y-9101711D01*
X-4022006Y-9101711D01*
X-4018823Y-9096571D01*
X-4025746Y-9086157D01*
X-4016654Y-9086157D01*
X-4009792Y-9089207D01*
X-4005379Y-9088606D01*
X-4004235Y-9083650D01*
X-4005457Y-9082652D01*
X-4015350Y-9083650D01*
X-4016654Y-9086157D01*
X-4025746Y-9086157D01*
X-4028548Y-9081943D01*
X-4033025Y-9076318D01*
X-4030632Y-9074024D01*
X-4028088Y-9074442D01*
X-4022296Y-9068367D01*
X-4022485Y-9066261D01*
X-4027758Y-9061851D01*
X-4031090Y-9061089D01*
X-4038082Y-9050998D01*
X-4039537Y-9043646D01*
X-4032621Y-9044526D01*
X-4027761Y-9045835D01*
X-4033737Y-9036623D01*
X-4039084Y-9027662D01*
X-4036559Y-9022519D01*
X-4032242Y-9020187D01*
X-4030089Y-9007931D01*
X-4029112Y-8998439D01*
X-4018945Y-8983604D01*
X-4010904Y-8975301D01*
X-4014160Y-8966585D01*
X-4033704Y-8960209D01*
X-4049099Y-8956280D01*
X-4065515Y-8945823D01*
X-4066086Y-8930559D01*
X-4051118Y-8909605D01*
X-4044516Y-8902010D01*
X-4038628Y-8887745D01*
X-4043867Y-8870028D01*
X-4047733Y-8859350D01*
X-4048882Y-8839056D01*
X-4042559Y-8811041D01*
X-4038558Y-8798861D01*
X-4031041Y-8782166D01*
X-4025403Y-8777261D01*
X-4020314Y-8775627D01*
X-4013668Y-8763181D01*
X-4013455Y-8747215D01*
X-4023947Y-8735217D01*
X-4041485Y-8734916D01*
X-4046102Y-8735799D01*
X-4047199Y-8730586D01*
X-4045034Y-8722891D01*
X-4046773Y-8708101D01*
X-4052501Y-8695876D01*
X-4059833Y-8693259D01*
X-4063385Y-8694210D01*
X-4073025Y-8687924D01*
X-4075128Y-8683118D01*
X-4069433Y-8684112D01*
X-4065588Y-8685449D01*
X-4059625Y-8680405D01*
X-4061893Y-8669111D01*
X-4061915Y-8669074D01*
X-4058414Y-8661129D01*
X-4057459Y-8659900D01*
X-4043136Y-8659900D01*
X-4038968Y-8664068D01*
X-4034800Y-8659900D01*
X-4038968Y-8655732D01*
X-4043136Y-8659900D01*
X-4057459Y-8659900D01*
X-4047304Y-8646838D01*
X-4045636Y-8644903D01*
X-4038863Y-8635085D01*
X-4042469Y-8634826D01*
X-4050150Y-8637542D01*
X-4049516Y-8629312D01*
X-4048508Y-8622853D01*
X-4054873Y-8616830D01*
X-4061889Y-8624248D01*
X-4062820Y-8634891D01*
X-4063648Y-8644346D01*
X-4063537Y-8647528D01*
X-4065043Y-8663331D01*
X-4069514Y-8667389D01*
X-4071195Y-8666029D01*
X-4072313Y-8655732D01*
X-4071408Y-8653692D01*
X-4075227Y-8644003D01*
X-4079057Y-8635886D01*
X-4079030Y-8634891D01*
X-4076481Y-8634891D01*
X-4072313Y-8639060D01*
X-4068145Y-8634891D01*
X-4072313Y-8630723D01*
X-4076481Y-8634891D01*
X-4079030Y-8634891D01*
X-4078578Y-8618515D01*
X-4073687Y-8605516D01*
X-4065107Y-8603245D01*
X-4060950Y-8604375D01*
X-4065988Y-8596128D01*
X-4070787Y-8587702D01*
X-4070156Y-8577161D01*
X-4068712Y-8574397D01*
X-4076102Y-8573760D01*
X-4081893Y-8573908D01*
X-4088606Y-8566814D01*
X-4088857Y-8564342D01*
X-4094611Y-8551462D01*
X-4094866Y-8551211D01*
X-4099281Y-8550308D01*
X-4098026Y-8559206D01*
X-4092587Y-8572832D01*
X-4084451Y-8586118D01*
X-4079285Y-8592798D01*
X-4076898Y-8597410D01*
X-4085584Y-8591199D01*
X-4093999Y-8585915D01*
X-4102698Y-8584695D01*
X-4104244Y-8584934D01*
X-4105919Y-8575849D01*
X-4105469Y-8557550D01*
X-4103308Y-8535035D01*
X-4103280Y-8534859D01*
X-4101489Y-8534859D01*
X-4097321Y-8539027D01*
X-4093153Y-8534859D01*
X-4097321Y-8530691D01*
X-4101489Y-8534859D01*
X-4103280Y-8534859D01*
X-4100743Y-8518932D01*
X-4097321Y-8522355D01*
X-4093153Y-8518187D01*
X-4097321Y-8514018D01*
X-4100460Y-8517158D01*
X-4099846Y-8513301D01*
X-4095497Y-8497346D01*
X-4094398Y-8493670D01*
X-3968112Y-8493670D01*
X-3968031Y-8494836D01*
X-3963205Y-8496671D01*
X-3954812Y-8487722D01*
X-3952783Y-8483064D01*
X-3958488Y-8484046D01*
X-3962191Y-8486619D01*
X-3968112Y-8493670D01*
X-4094398Y-8493670D01*
X-4090577Y-8480888D01*
X-4089431Y-8464002D01*
X-4090466Y-8458418D01*
X-4092515Y-8444754D01*
X-4094039Y-8442327D01*
X-4103573Y-8444270D01*
X-4108220Y-8445315D01*
X-4102162Y-8435956D01*
X-4096678Y-8427078D01*
X-4099489Y-8423935D01*
X-4108645Y-8421552D01*
X-4121789Y-8409818D01*
X-4130254Y-8399747D01*
X-4131579Y-8401896D01*
X-4126408Y-8418154D01*
X-4117885Y-8443162D01*
X-4134904Y-8422322D01*
X-4137110Y-8419695D01*
X-4146869Y-8410581D01*
X-4149631Y-8412878D01*
X-4150179Y-8418154D01*
X-4150252Y-8418852D01*
X-4160536Y-8426525D01*
X-4167239Y-8426106D01*
X-4173297Y-8418154D01*
X-4159841Y-8418154D01*
X-4155673Y-8422322D01*
X-4151505Y-8418154D01*
X-4155673Y-8413986D01*
X-4159841Y-8418154D01*
X-4173297Y-8418154D01*
X-4173735Y-8417579D01*
X-4173115Y-8413048D01*
X-4167662Y-8410136D01*
X-4164218Y-8410485D01*
X-4157042Y-8402043D01*
X-4156381Y-8399787D01*
X-4159860Y-8385739D01*
X-4171851Y-8376249D01*
X-4185772Y-8377044D01*
X-4190730Y-8379258D01*
X-4189970Y-8373846D01*
X-4190895Y-8367833D01*
X-4203272Y-8357840D01*
X-4224566Y-8347163D01*
X-4250512Y-8337358D01*
X-4276843Y-8329983D01*
X-4299293Y-8326594D01*
X-4313595Y-8328746D01*
X-4316013Y-8329673D01*
X-4332598Y-8332407D01*
X-4359839Y-8334820D01*
X-4393248Y-8336477D01*
X-4402385Y-8336791D01*
X-4438210Y-8338324D01*
X-4469071Y-8340083D01*
X-4489116Y-8341745D01*
X-4503233Y-8342240D01*
X-4523911Y-8338748D01*
X-4537509Y-8331535D01*
X-4539230Y-8322447D01*
X-4538144Y-8315351D01*
X-4547284Y-8307291D01*
X-4564834Y-8302861D01*
X-4585959Y-8303048D01*
X-4605821Y-8308841D01*
X-4608354Y-8309785D01*
X-4618872Y-8313705D01*
X-4641681Y-8317562D01*
X-4662285Y-8317030D01*
X-4673833Y-8311811D01*
X-4679085Y-8309785D01*
X-4668342Y-8309785D01*
X-4664174Y-8313953D01*
X-4660005Y-8309785D01*
X-4664174Y-8305617D01*
X-4668342Y-8309785D01*
X-4679085Y-8309785D01*
X-4691524Y-8315632D01*
X-4698881Y-8320489D01*
X-4699190Y-8316949D01*
X-4698269Y-8314873D01*
X-4701977Y-8303485D01*
X-4716308Y-8293037D01*
X-4736319Y-8286204D01*
X-4757065Y-8285658D01*
X-4774282Y-8290801D01*
X-4783674Y-8297823D01*
X-4784743Y-8299847D01*
X-4793711Y-8301246D01*
X-4794114Y-8301016D01*
X-4806140Y-8299646D01*
X-4822435Y-8302302D01*
X-4836034Y-8307251D01*
X-4839969Y-8312758D01*
X-4841816Y-8316252D01*
X-4854615Y-8318880D01*
X-4873134Y-8320911D01*
X-4897583Y-8325510D01*
X-4919242Y-8330362D01*
X-4943432Y-8335340D01*
X-4955515Y-8338157D01*
X-4978720Y-8346909D01*
X-4993561Y-8357150D01*
X-4996044Y-8366514D01*
X-4994671Y-8369698D01*
X-4999744Y-8369398D01*
X-5003538Y-8367740D01*
X-5017253Y-8367770D01*
X-5028598Y-8373303D01*
X-5030421Y-8381515D01*
X-5029631Y-8385003D01*
X-5037513Y-8388977D01*
X-5048922Y-8393096D01*
X-5064305Y-8405650D01*
X-5069815Y-8411269D01*
X-5085903Y-8420759D01*
X-5102366Y-8417790D01*
X-5121340Y-8401440D01*
X-5144963Y-8370785D01*
X-5148295Y-8366074D01*
X-5166126Y-8342677D01*
X-5180446Y-8326737D01*
X-5188414Y-8321480D01*
X-5192727Y-8321219D01*
X-5202990Y-8312581D01*
X-5204380Y-8310780D01*
X-5206849Y-8313811D01*
X-5204991Y-8330625D01*
X-5203510Y-8338197D01*
X-5195401Y-8363658D01*
X-5180941Y-8388385D01*
X-5156961Y-8418154D01*
X-5152636Y-8423241D01*
X-5140183Y-8439634D01*
X-5135172Y-8449258D01*
X-5135949Y-8451114D01*
X-5145124Y-8462918D01*
X-5162450Y-8482142D01*
X-5185178Y-8505682D01*
X-5194994Y-8515420D01*
X-5215573Y-8534775D01*
X-5229850Y-8546662D01*
X-5235194Y-8548811D01*
X-5231060Y-8540310D01*
X-5218741Y-8526721D01*
X-5215274Y-8523618D01*
X-5208779Y-8517308D01*
X-5204769Y-8510741D01*
X-5204060Y-8502449D01*
X-5207471Y-8490967D01*
X-5215819Y-8474828D01*
X-5229922Y-8452566D01*
X-5250597Y-8422713D01*
X-5278662Y-8383804D01*
X-5314936Y-8334372D01*
X-5360235Y-8272950D01*
X-5363613Y-8268371D01*
X-5400337Y-8218710D01*
X-5441619Y-8163049D01*
X-5482651Y-8107867D01*
X-5518621Y-8059642D01*
X-5556315Y-8009111D01*
X-5595674Y-7955957D01*
X-5628913Y-7910452D01*
X-5658246Y-7869497D01*
X-5685890Y-7829991D01*
X-5714060Y-7788837D01*
X-5744970Y-7742932D01*
X-5753398Y-7730351D01*
X-5777736Y-7694082D01*
X-5798901Y-7662629D01*
X-5814862Y-7639005D01*
X-5823589Y-7626227D01*
X-5825086Y-7624061D01*
X-5835391Y-7608994D01*
X-5853369Y-7582608D01*
X-5877754Y-7546766D01*
X-5907276Y-7503334D01*
X-5940668Y-7454175D01*
X-5976663Y-7401153D01*
X-5987738Y-7384835D01*
X-6023528Y-7332126D01*
X-6056622Y-7283414D01*
X-6085690Y-7240660D01*
X-6109397Y-7205824D01*
X-6126411Y-7180865D01*
X-6135399Y-7167743D01*
X-6138106Y-7163808D01*
X-6151582Y-7144016D01*
X-6171399Y-7114747D01*
X-6195344Y-7079275D01*
X-6221203Y-7040871D01*
X-6234269Y-7021479D01*
X-6266887Y-6973272D01*
X-6303641Y-6919162D01*
X-6340930Y-6864446D01*
X-6375152Y-6814423D01*
X-6389927Y-6792714D01*
X-6421645Y-6744403D01*
X-6443640Y-6707794D01*
X-6456446Y-6681961D01*
X-6460596Y-6665976D01*
X-6463488Y-6646421D01*
X-6472717Y-6624807D01*
X-6474324Y-6622451D01*
X-6486880Y-6601481D01*
X-6501846Y-6573457D01*
X-6517130Y-6542708D01*
X-6530638Y-6513564D01*
X-6540278Y-6490357D01*
X-6543957Y-6477417D01*
X-6541199Y-6465914D01*
X-6529329Y-6460521D01*
X-6510029Y-6467094D01*
X-6485418Y-6485346D01*
X-6472664Y-6497433D01*
X-6457979Y-6513350D01*
X-6452260Y-6522605D01*
X-6452207Y-6523219D01*
X-6446270Y-6534733D01*
X-6433504Y-6551169D01*
X-6417272Y-6571829D01*
X-6402180Y-6594997D01*
X-6391756Y-6611620D01*
X-6374270Y-6636919D01*
X-6354248Y-6664169D01*
X-6353464Y-6665204D01*
X-6336013Y-6689350D01*
X-6323606Y-6708559D01*
X-6318883Y-6718755D01*
X-6317170Y-6723105D01*
X-6306555Y-6737292D01*
X-6289452Y-6755509D01*
X-6279895Y-6765352D01*
X-6255502Y-6793423D01*
X-6233762Y-6821797D01*
X-6220604Y-6839717D01*
X-6196011Y-6870874D01*
X-6171466Y-6899841D01*
X-6162048Y-6910808D01*
X-6134898Y-6944876D01*
X-6101754Y-6988993D01*
X-6064660Y-7040350D01*
X-6025661Y-7096138D01*
X-5986802Y-7153548D01*
X-5983881Y-7157919D01*
X-5965004Y-7185285D01*
X-5948671Y-7207606D01*
X-5938137Y-7220406D01*
X-5930685Y-7228386D01*
X-5913312Y-7249358D01*
X-5894623Y-7274056D01*
X-5877592Y-7298325D01*
X-5865193Y-7318014D01*
X-5860399Y-7328970D01*
X-5859940Y-7332127D01*
X-5852063Y-7338633D01*
X-5850092Y-7338850D01*
X-5843727Y-7346261D01*
X-5839004Y-7357209D01*
X-5827325Y-7373353D01*
X-5815445Y-7387681D01*
X-5784205Y-7427069D01*
X-5754101Y-7467084D01*
X-5730107Y-7501186D01*
X-5725267Y-7508293D01*
X-5704378Y-7536801D01*
X-5684122Y-7561913D01*
X-5678286Y-7568963D01*
X-5665452Y-7587543D01*
X-5660334Y-7600131D01*
X-5659940Y-7602418D01*
X-5651608Y-7616184D01*
X-5635854Y-7632779D01*
X-5630783Y-7637709D01*
X-5612541Y-7658668D01*
X-5590419Y-7687228D01*
X-5568120Y-7718690D01*
X-5560192Y-7730196D01*
X-5537111Y-7761486D01*
X-5515273Y-7788334D01*
X-5498521Y-7805921D01*
X-5494637Y-7809466D01*
X-5474636Y-7831438D01*
X-5460349Y-7852681D01*
X-5448822Y-7872823D01*
X-5434594Y-7892981D01*
X-5431580Y-7896848D01*
X-5416883Y-7919220D01*
X-5396868Y-7953369D01*
X-5372987Y-7996756D01*
X-5346692Y-8046839D01*
X-5340635Y-8057808D01*
X-5319957Y-8089619D01*
X-5297885Y-8117964D01*
X-5286733Y-8131107D01*
X-5273641Y-8148374D01*
X-5268538Y-8157924D01*
X-5268466Y-8158580D01*
X-5262257Y-8169624D01*
X-5249091Y-8185605D01*
X-5241495Y-8194895D01*
X-5224902Y-8219755D01*
X-5209494Y-8247632D01*
X-5200850Y-8264172D01*
X-5189909Y-8281885D01*
X-5183094Y-8288815D01*
X-5180239Y-8290263D01*
X-5176842Y-8301449D01*
X-5175901Y-8307201D01*
X-5168506Y-8313953D01*
X-5166185Y-8314306D01*
X-5160170Y-8322845D01*
X-5159693Y-8325358D01*
X-5152474Y-8339822D01*
X-5139329Y-8359060D01*
X-5134998Y-8364962D01*
X-5123218Y-8383927D01*
X-5118489Y-8396570D01*
X-5113166Y-8402940D01*
X-5095565Y-8404119D01*
X-5083425Y-8399757D01*
X-5063569Y-8379548D01*
X-5044628Y-8343770D01*
X-5027028Y-8293113D01*
X-5025313Y-8287327D01*
X-5017048Y-8261901D01*
X-5009890Y-8243096D01*
X-5005670Y-8232099D01*
X-4997631Y-8207637D01*
X-4989054Y-8178646D01*
X-4982441Y-8157332D01*
X-4980126Y-8151400D01*
X-4901751Y-8151400D01*
X-4897583Y-8155568D01*
X-4893415Y-8151400D01*
X-4897583Y-8147231D01*
X-4901751Y-8151400D01*
X-4980126Y-8151400D01*
X-4974172Y-8136141D01*
X-4967893Y-8126053D01*
X-4963644Y-8120772D01*
X-4960104Y-8104946D01*
X-4959505Y-8098617D01*
X-4934831Y-8098617D01*
X-4934503Y-8105377D01*
X-4930036Y-8125710D01*
X-4926551Y-8132233D01*
X-4917532Y-8138895D01*
X-4910752Y-8133366D01*
X-4912397Y-8119016D01*
X-4917491Y-8109719D01*
X-4776710Y-8109719D01*
X-4772542Y-8113887D01*
X-4768374Y-8109719D01*
X-4772542Y-8105551D01*
X-4776710Y-8109719D01*
X-4917491Y-8109719D01*
X-4922327Y-8100892D01*
X-4927055Y-8094861D01*
X-4933264Y-8090145D01*
X-4934831Y-8098617D01*
X-4959505Y-8098617D01*
X-4959195Y-8095344D01*
X-4952740Y-8074178D01*
X-4949873Y-8068039D01*
X-4868407Y-8068039D01*
X-4864239Y-8072207D01*
X-4860071Y-8068039D01*
X-4860997Y-8067113D01*
X-4848956Y-8067113D01*
X-4848544Y-8068039D01*
X-4846705Y-8072168D01*
X-4836064Y-8078369D01*
X-4826089Y-8077070D01*
X-4823002Y-8068093D01*
X-4823319Y-8052602D01*
X-4827676Y-8042444D01*
X-4831036Y-8041476D01*
X-4833185Y-8048663D01*
X-4833109Y-8053375D01*
X-4839926Y-8058082D01*
X-4843526Y-8058324D01*
X-4848956Y-8067113D01*
X-4860997Y-8067113D01*
X-4864239Y-8063871D01*
X-4868407Y-8068039D01*
X-4949873Y-8068039D01*
X-4944807Y-8057191D01*
X-4935191Y-8034695D01*
X-4932359Y-8027815D01*
X-4912489Y-8027815D01*
X-4910486Y-8039425D01*
X-4895337Y-8051970D01*
X-4884745Y-8058603D01*
X-4878592Y-8060830D01*
X-4883400Y-8053565D01*
X-4888972Y-8044354D01*
X-4885348Y-8034861D01*
X-4882372Y-8032058D01*
X-4882063Y-8020326D01*
X-4883736Y-8015688D01*
X-4875947Y-8018691D01*
X-4875864Y-8018744D01*
X-4855228Y-8026370D01*
X-4836945Y-8019430D01*
X-4831210Y-8016284D01*
X-4820968Y-8016835D01*
X-4819743Y-8019220D01*
X-4826629Y-8022190D01*
X-4827383Y-8022203D01*
X-4831989Y-8025888D01*
X-4823730Y-8037569D01*
X-4808787Y-8047643D01*
X-4789004Y-8051515D01*
X-4770475Y-8048701D01*
X-4758162Y-8040037D01*
X-4757025Y-8026355D01*
X-4759742Y-8020948D01*
X-4767081Y-8015105D01*
X-4767198Y-8015120D01*
X-4783633Y-8015380D01*
X-4796577Y-8012844D01*
X-4799441Y-8008798D01*
X-4798276Y-8004500D01*
X-4804304Y-7992962D01*
X-4813415Y-7986717D01*
X-4826727Y-7991766D01*
X-4831100Y-7995047D01*
X-4834945Y-7996612D01*
X-4827790Y-7986762D01*
X-4821110Y-7974268D01*
X-4825634Y-7960987D01*
X-4829647Y-7954317D01*
X-4829294Y-7944176D01*
X-4828577Y-7943700D01*
X-4821513Y-7948556D01*
X-4812865Y-7964252D01*
X-4801869Y-7981989D01*
X-4787301Y-7988439D01*
X-4768334Y-7987495D01*
X-4755172Y-7991141D01*
X-4754624Y-8001109D01*
X-4754942Y-8010757D01*
X-4746585Y-8026117D01*
X-4740108Y-8034151D01*
X-4740687Y-8038990D01*
X-4742510Y-8040255D01*
X-4735786Y-8046555D01*
X-4733780Y-8047756D01*
X-4716301Y-8051406D01*
X-4705698Y-8041517D01*
X-4704926Y-8020576D01*
X-4705128Y-8019537D01*
X-4706155Y-8004524D01*
X-4702434Y-8000888D01*
X-4700185Y-8001664D01*
X-4692437Y-7996329D01*
X-4687853Y-7983780D01*
X-4689647Y-7971422D01*
X-4689962Y-7970736D01*
X-4684466Y-7965842D01*
X-4667743Y-7963838D01*
X-4662413Y-7963814D01*
X-4648019Y-7961936D01*
X-4643745Y-7953515D01*
X-4646055Y-7933626D01*
X-4647577Y-7921280D01*
X-4645157Y-7902922D01*
X-4633315Y-7889127D01*
X-4622095Y-7876957D01*
X-4620640Y-7865561D01*
X-4631239Y-7861528D01*
X-4651378Y-7867823D01*
X-4666208Y-7874909D01*
X-4672818Y-7874816D01*
X-4672383Y-7865708D01*
X-4670967Y-7857962D01*
X-4668979Y-7845049D01*
X-4667060Y-7843180D01*
X-4653261Y-7840039D01*
X-4630666Y-7838797D01*
X-4617747Y-7838685D01*
X-4601369Y-7836839D01*
X-4595706Y-7830791D01*
X-4596745Y-7818092D01*
X-4597313Y-7803489D01*
X-4592740Y-7792592D01*
X-4588701Y-7787830D01*
X-4584981Y-7772397D01*
X-4588658Y-7761471D01*
X-4602506Y-7761580D01*
X-4609123Y-7762747D01*
X-4623846Y-7758677D01*
X-4627261Y-7746114D01*
X-4617341Y-7729444D01*
X-4607317Y-7715548D01*
X-4601653Y-7697084D01*
X-4600260Y-7687401D01*
X-4594209Y-7680412D01*
X-4589360Y-7679375D01*
X-4581757Y-7669156D01*
X-4582021Y-7653837D01*
X-4590779Y-7640676D01*
X-4593797Y-7638001D01*
X-4602205Y-7619253D01*
X-4601399Y-7595456D01*
X-4591320Y-7573925D01*
X-4587592Y-7568051D01*
X-4587120Y-7558789D01*
X-4592094Y-7558765D01*
X-4602896Y-7567616D01*
X-4610009Y-7575922D01*
X-4625570Y-7593569D01*
X-4631288Y-7601937D01*
X-4631894Y-7611269D01*
X-4630749Y-7616070D01*
X-4630795Y-7616163D01*
X-4636763Y-7628355D01*
X-4639896Y-7632443D01*
X-4640049Y-7638058D01*
X-4626362Y-7637458D01*
X-4617519Y-7636548D01*
X-4609472Y-7639264D01*
X-4607238Y-7650581D01*
X-4608947Y-7674470D01*
X-4612223Y-7681077D01*
X-4624128Y-7686132D01*
X-4637187Y-7684336D01*
X-4643333Y-7675457D01*
X-4645427Y-7669021D01*
X-4657889Y-7658349D01*
X-4674769Y-7652709D01*
X-4688114Y-7655623D01*
X-4693074Y-7658250D01*
X-4708237Y-7657503D01*
X-4716362Y-7656122D01*
X-4713957Y-7664407D01*
X-4712093Y-7667650D01*
X-4711995Y-7671231D01*
X-4722526Y-7663740D01*
X-4732270Y-7657374D01*
X-4731795Y-7661940D01*
X-4730988Y-7663384D01*
X-4731997Y-7669592D01*
X-4746558Y-7668800D01*
X-4756814Y-7667269D01*
X-4763219Y-7669639D01*
X-4757831Y-7680849D01*
X-4754241Y-7687782D01*
X-4753550Y-7702298D01*
X-4763008Y-7722308D01*
X-4766944Y-7729315D01*
X-4773059Y-7746972D01*
X-4768669Y-7759249D01*
X-4763905Y-7767156D01*
X-4768176Y-7776154D01*
X-4771908Y-7777563D01*
X-4774833Y-7771686D01*
X-4774710Y-7767685D01*
X-4782610Y-7757985D01*
X-4788691Y-7760335D01*
X-4798750Y-7773123D01*
X-4808398Y-7791514D01*
X-4814668Y-7809613D01*
X-4814593Y-7821525D01*
X-4814069Y-7822122D01*
X-4802440Y-7825194D01*
X-4782213Y-7825231D01*
X-4757339Y-7827271D01*
X-4748723Y-7833240D01*
X-4738023Y-7840653D01*
X-4737233Y-7841563D01*
X-4736252Y-7842965D01*
X-4730394Y-7851338D01*
X-4734028Y-7851574D01*
X-4741099Y-7849001D01*
X-4741669Y-7856393D01*
X-4739212Y-7861254D01*
X-4728083Y-7869015D01*
X-4726107Y-7869230D01*
X-4710022Y-7871099D01*
X-4707871Y-7871668D01*
X-4701686Y-7880969D01*
X-4702340Y-7883984D01*
X-4710022Y-7884645D01*
X-4713719Y-7883499D01*
X-4718486Y-7890405D01*
X-4719848Y-7896792D01*
X-4725813Y-7889954D01*
X-4730120Y-7885099D01*
X-4736823Y-7885786D01*
X-4738230Y-7887915D01*
X-4738327Y-7883171D01*
X-4738105Y-7881842D01*
X-4742869Y-7868958D01*
X-4754974Y-7859351D01*
X-4767297Y-7858971D01*
X-4770075Y-7860186D01*
X-4778082Y-7856623D01*
X-4784061Y-7850749D01*
X-4799980Y-7843396D01*
X-4818566Y-7844532D01*
X-4839490Y-7859979D01*
X-4859482Y-7888508D01*
X-4876914Y-7928321D01*
X-4881691Y-7943356D01*
X-4885850Y-7967917D01*
X-4880715Y-7978927D01*
X-4866323Y-7976216D01*
X-4864752Y-7975539D01*
X-4866653Y-7978697D01*
X-4878956Y-7989017D01*
X-4879832Y-7989710D01*
X-4897988Y-8006615D01*
X-4910054Y-8022128D01*
X-4912489Y-8027815D01*
X-4932359Y-8027815D01*
X-4920556Y-7999135D01*
X-4893469Y-7934662D01*
X-4887453Y-7920374D01*
X-4874232Y-7888069D01*
X-4857983Y-7847133D01*
X-4856250Y-7842965D01*
X-4760038Y-7842965D01*
X-4755870Y-7847133D01*
X-4751702Y-7842965D01*
X-4755870Y-7838797D01*
X-4760038Y-7842965D01*
X-4856250Y-7842965D01*
X-4853249Y-7835747D01*
X-4800244Y-7835747D01*
X-4793383Y-7838797D01*
X-4788969Y-7838195D01*
X-4787825Y-7833240D01*
X-4789047Y-7832242D01*
X-4798940Y-7833240D01*
X-4800244Y-7835747D01*
X-4853249Y-7835747D01*
X-4851271Y-7830991D01*
X-4842426Y-7811818D01*
X-4838885Y-7802900D01*
X-4835063Y-7781578D01*
X-4833173Y-7771763D01*
X-4822357Y-7755269D01*
X-4815752Y-7748413D01*
X-4813691Y-7740685D01*
X-4814206Y-7739552D01*
X-4812476Y-7727334D01*
X-4805611Y-7707644D01*
X-4803756Y-7702970D01*
X-4798053Y-7683060D01*
X-4798134Y-7671131D01*
X-4798504Y-7666297D01*
X-4789264Y-7658437D01*
X-4782774Y-7653993D01*
X-4780236Y-7642899D01*
X-4735030Y-7642899D01*
X-4730862Y-7647067D01*
X-4726694Y-7642899D01*
X-4730862Y-7638731D01*
X-4735030Y-7642899D01*
X-4780236Y-7642899D01*
X-4780045Y-7642065D01*
X-4780311Y-7633511D01*
X-4779999Y-7632944D01*
X-4677586Y-7632944D01*
X-4673628Y-7641764D01*
X-4667606Y-7642899D01*
X-4667399Y-7642938D01*
X-4654541Y-7632886D01*
X-4647022Y-7625900D01*
X-4642183Y-7616163D01*
X-4649315Y-7606380D01*
X-4650183Y-7605578D01*
X-4661550Y-7599170D01*
X-4672360Y-7606438D01*
X-4677230Y-7614623D01*
X-4677586Y-7632944D01*
X-4779999Y-7632944D01*
X-4772188Y-7618728D01*
X-4765601Y-7609955D01*
X-4760038Y-7592986D01*
X-4758749Y-7586545D01*
X-4751702Y-7584547D01*
X-4746691Y-7584317D01*
X-4743366Y-7573243D01*
X-4743333Y-7572230D01*
X-4737483Y-7554246D01*
X-4724610Y-7534290D01*
X-4713598Y-7521214D01*
X-4693555Y-7498066D01*
X-4559050Y-7498066D01*
X-4558126Y-7509427D01*
X-4553502Y-7519574D01*
X-4542590Y-7527937D01*
X-4531623Y-7529249D01*
X-4526628Y-7521248D01*
X-4527127Y-7517431D01*
X-4532056Y-7516339D01*
X-4537964Y-7516556D01*
X-4549062Y-7507309D01*
X-4554220Y-7501042D01*
X-4559050Y-7498066D01*
X-4693555Y-7498066D01*
X-4686241Y-7489619D01*
X-4680902Y-7483646D01*
X-4616067Y-7483646D01*
X-4615938Y-7486491D01*
X-4605126Y-7488024D01*
X-4596932Y-7486689D01*
X-4600090Y-7482988D01*
X-4604911Y-7481656D01*
X-4616067Y-7483646D01*
X-4680902Y-7483646D01*
X-4659322Y-7459506D01*
X-4543301Y-7459506D01*
X-4541882Y-7465331D01*
X-4531058Y-7472010D01*
X-4524895Y-7470260D01*
X-4523614Y-7459506D01*
X-4468276Y-7459506D01*
X-4464108Y-7463674D01*
X-4459940Y-7459506D01*
X-4464108Y-7455338D01*
X-4468276Y-7459506D01*
X-4523614Y-7459506D01*
X-4526743Y-7453636D01*
X-4535856Y-7447002D01*
X-4539273Y-7448406D01*
X-4543301Y-7459506D01*
X-4659322Y-7459506D01*
X-4658473Y-7458556D01*
X-4633088Y-7431075D01*
X-4612881Y-7410224D01*
X-4600648Y-7399053D01*
X-4593659Y-7395666D01*
X-4572292Y-7390720D01*
X-4543858Y-7387524D01*
X-4513069Y-7386211D01*
X-4484638Y-7386914D01*
X-4463277Y-7389766D01*
X-4453700Y-7394901D01*
X-4449675Y-7400325D01*
X-4435190Y-7405321D01*
X-4410866Y-7410838D01*
X-4380569Y-7428576D01*
X-4351340Y-7455069D01*
X-4347936Y-7459506D01*
X-4327080Y-7486689D01*
G37*
%TO.C,PMIC_INT*%
D12*
X-13400000Y3875000D02*
X-13400000Y2475000D01*
X-13400000Y2475000D02*
X-12000000Y2475000D01*
X-12000000Y3875000D02*
X-13400000Y3875000D01*
X-12000000Y2475000D02*
X-12000000Y3875000D01*
%TO.C,TP16*%
X-1335000Y6415000D02*
X-1335000Y5015000D01*
X-1335000Y5015000D02*
X65000Y5015000D01*
X65000Y6415000D02*
X-1335000Y6415000D01*
X65000Y5015000D02*
X65000Y6415000D01*
%TD*%
%LPC*%
D16*
%TO.C,SW5*%
X-7666342Y12072089D03*
X-10875658Y9285911D03*
%TD*%
D17*
%TO.C,U2*%
X7431999Y-6331001D03*
X7431999Y-7130999D03*
%TD*%
D18*
%TO.C,J7*%
X2880000Y9937500D03*
X-2900000Y9937500D03*
%TD*%
D16*
%TO.C,SW4*%
X10875658Y9285911D03*
X7666342Y12072089D03*
%TD*%
%TO.C,SW6*%
X7666342Y-12072089D03*
X10875658Y-9285911D03*
%TD*%
%TO.C,SW7*%
X-10875658Y-9285911D03*
X-7666342Y-12072089D03*
%TD*%
D19*
%TO.C,TP15*%
X-3556000Y4699000D03*
%TD*%
%TO.C,1V8*%
X-2540000Y13335000D03*
%TD*%
%TO.C,VBUS_IN*%
X1270000Y9525000D03*
%TD*%
D20*
%TO.C,U9*%
X680000Y2390000D03*
X680000Y1590000D03*
X680000Y790000D03*
X680000Y-10000D03*
X680000Y-810000D03*
X680000Y-1610000D03*
X680000Y-2410000D03*
X-1720000Y-2410000D03*
X-1720000Y-1610000D03*
X-1720000Y-810000D03*
X-1720000Y-10000D03*
X-1720000Y790000D03*
X-1720000Y1590000D03*
X-1720000Y2390000D03*
%TD*%
D21*
%TO.C,SW2*%
X-6557000Y-3708400D03*
X-8382000Y-3708400D03*
%TD*%
D19*
%TO.C,LRA_EN*%
X-12065000Y5715000D03*
%TD*%
%TO.C,BATT*%
X-5080000Y13335000D03*
%TD*%
%TO.C,VBUS_OUT*%
X-1270000Y9525000D03*
%TD*%
D21*
%TO.C,SW3*%
X13142357Y-5181600D03*
X11317357Y-5181600D03*
%TD*%
D19*
%TO.C,GND*%
X5080000Y9525000D03*
%TD*%
D22*
%TO.C,R3*%
X2641600Y1720000D03*
X2641600Y3360000D03*
%TD*%
D19*
%TO.C,VSYS*%
X0Y13335000D03*
%TD*%
D23*
%TO.C,C2*%
X-4724400Y0D03*
X-3164400Y0D03*
%TD*%
D24*
%TO.C,J3*%
X8890000Y6318000D03*
X6890000Y6318000D03*
X4890000Y6318000D03*
X8890000Y4318000D03*
X6890000Y4318000D03*
X4890000Y4318000D03*
%TD*%
D19*
%TO.C,LRA_PWM*%
X-13335000Y-5715000D03*
%TD*%
%TO.C,3V0*%
X2540000Y13335000D03*
%TD*%
%TO.C,SCL*%
X-6985000Y1270000D03*
%TD*%
%TO.C,SDA*%
X-6985000Y-1270000D03*
%TD*%
%TO.C,QSPI_CS*%
X5080000Y-12700000D03*
%TD*%
D25*
%TO.C,C4*%
X-3182400Y1270000D03*
X-4742400Y1270000D03*
%TD*%
D26*
%TO.C,C3*%
X-3098800Y-1879600D03*
X-3098800Y-3439600D03*
%TD*%
D19*
%TO.C,QSPI_CLK*%
X1905000Y-12700000D03*
%TD*%
%TO.C,PMIC_INT*%
X-12700000Y3175000D03*
%TD*%
D27*
%TO.C,C1*%
X-4368800Y-3421600D03*
X-4368800Y-1861600D03*
%TD*%
D19*
%TO.C,TP16*%
X-635000Y5715000D03*
%TD*%
%LPD*%
M02*
