M48
; DRILL file KiCad 10.0.1 date 2026-06-05T16:41:55
; FORMAT={-:-/ absolute / inch / decimal}
; #@! TF.CreationDate,2026-06-05T16:41:55-04:00
; #@! TF.GenerationSoftware,Kicad,Pcbnew,10.0.1
; #@! TF.FileFunction,Plated,1,4,PTH
FMAT,2
INCH
; #@! TA.AperFunction,Plated,PTH,ViaDrill
T1C0.0098
%
G90
G05
T1
X-0.6378Y-0.088
X-0.6019Y-0.0486
X-0.5699Y0.0848
X-0.5694Y0.0344
X-0.536Y-0.1438
X-0.531Y-0.0139
X-0.528Y0.262
X-0.506Y-0.318
X-0.5Y-0.062
X-0.491Y0.0537
X-0.4907Y-0.0046
X-0.49Y-0.098
X-0.46Y0.18
X-0.454Y-0.294
X-0.4469Y0.3031
X-0.444Y-0.1438
X-0.44Y0.045
X-0.395Y-0.2246
X-0.3898Y-0.1535
X-0.388Y-0.186
X-0.371Y0.081
X-0.3641Y-0.0563
X-0.3453Y0.0452
X-0.3445Y0.1497
X-0.3426Y0.019
X-0.3418Y0.3937
X-0.3418Y-0.3885
X-0.34Y0.26
X-0.3307Y-0.1597
X-0.3185Y0.0058
X-0.314Y0.148
X-0.312Y0.313
X-0.31Y-0.188
X-0.3Y-0.21
X-0.298Y0.234
X-0.288Y-0.364
X-0.28Y0.52
X-0.274Y-0.546
X-0.2677Y0.3602
X-0.265Y-0.3779
X-0.2643Y0.0118
X-0.258Y0.198
X-0.2545Y0.1485
X-0.2477Y0.1097
X-0.2468Y-0.2075
X-0.2362Y-0.0571
X-0.2297Y-0.0995
X-0.2283Y-0.1772
X-0.2197Y-0.2205
X-0.216Y0.2274
X-0.2087Y-0.3386
X-0.1784Y-0.1027
X-0.1784Y-0.1641
X-0.176Y0.148
X-0.146Y0.262
X-0.146Y-0.3377
X-0.1395Y-0.1009
X-0.1339Y-0.0374
X-0.132Y0.134
X-0.1297Y-0.0607
X-0.1283Y0.226
X-0.12Y-0.366
X-0.12Y-0.6
X-0.1125Y-0.4062
X-0.11Y0.0839
X-0.1071Y-0.0687
X-0.094Y0.3
X-0.0848Y0.1591
X-0.082Y0.22
X-0.0711Y0.2553
X-0.0571Y-0.128
X-0.0502Y0.2683
X-0.05Y-0.6
X-0.0496Y0.1343
X-0.0293Y0.297
X-0.0252Y0.0157
X-0.0236Y-0.43
X-0.0236Y-0.48
X-0.022Y0.055
X-0.0195Y0.1516
X-0.018Y0.11
X-0.016Y-0.378
X-0.0094Y0.2707
X-0.008Y-0.252
X-0.0078Y-0.0652
X0.01Y0.286
X0.0256Y0.0315
X0.03Y0.24
X0.03Y-0.6
X0.0345Y-0.189
X0.0367Y-0.292
X0.0512Y-0.3562
X0.0546Y0.234
X0.061Y-0.044
X0.061Y0.128
X0.061Y0.0
X0.061Y-0.0866
X0.0635Y0.0884
X0.0645Y-0.2595
X0.072Y0.26
X0.076Y-0.374
X0.08Y-0.2949
X0.0866Y-0.2478
X0.092Y0.238
X0.1Y-0.6
X0.1038Y0.0428
X0.104Y0.002
X0.104Y-0.044
X0.104Y-0.128
X0.1043Y0.2165
X0.1043Y0.1732
X0.1043Y-0.1732
X0.1089Y-0.0896
X0.1122Y0.3347
X0.114Y-0.3863
X0.1142Y-0.2947
X0.1378Y0.3189
X0.1405Y-0.2541
X0.146Y0.128
X0.146Y-0.206
X0.1474Y0.043
X0.1476Y0.1732
X0.1476Y-0.1299
X0.1476Y-0.1732
X0.15Y-0.6
X0.1535Y-0.4094
X0.185Y-0.1713
X0.186Y-0.128
X0.189Y0.2503
X0.189Y0.0383
X0.196Y-0.2745
X0.2047Y-0.3091
X0.2283Y0.2503
X0.234Y0.131
X0.2343Y0.0217
X0.2343Y-0.0217
X0.2343Y-0.0866
X0.2343Y-0.1732
X0.235Y-0.13
X0.26Y-0.48
X0.26Y-0.53
X0.2707Y0.5335
X0.2713Y0.2487
X0.2717Y-0.4328
X0.2717Y-0.4564
X0.276Y-0.1297
X0.2776Y-0.1732
X0.28Y0.13
X0.32Y-0.06
X0.32Y-0.088
X0.3239Y-0.1261
X0.3354Y-0.3312
X0.3418Y-0.3937
X0.3523Y0.4115
X0.3593Y-0.2032
X0.362Y0.086
X0.3642Y0.1299
X0.3642Y-0.0866
X0.3642Y-0.1299
X0.3642Y-0.1732
X0.396Y0.274
X0.406Y0.1299
X0.406Y-0.088
X0.4075Y0.1732
X0.4291Y-0.1518
X0.438Y0.24
X0.4449Y0.2992
X0.4488Y-0.0551
X0.4508Y-0.0866
X0.4724Y0.3435
X0.482Y0.272
X0.486Y-0.27
X0.506Y-0.326
X0.508Y0.304
X0.508Y0.256
X0.51Y0.23
X0.518Y-0.286
X0.526Y-0.24
X0.532Y0.268
X0.548Y0.232
X0.5709Y0.3346
M30
