%TF.GenerationSoftware,KiCad,Pcbnew,10.0.1*%
%TF.CreationDate,2026-06-05T16:41:55-04:00*%
%TF.ProjectId,Smart_Watch,536d6172-745f-4576-9174-63682e6b6963,rev?*%
%TF.SameCoordinates,Original*%
%TF.FileFunction,Paste,Top*%
%TF.FilePolarity,Positive*%
%FSLAX46Y46*%
G04 Gerber Fmt 4.6, Leading zero omitted, Abs format (unit mm)*
G04 Created by KiCad (PCBNEW 10.0.1) date 2026-06-05 16:41:55*
%MOMM*%
%LPD*%
G01*
G04 APERTURE LIST*
G04 Aperture macros list*
%AMRoundRect*
0 Rectangle with rounded corners*
0 $1 Rounding radius*
0 $2 $3 $4 $5 $6 $7 $8 $9 X,Y pos of 4 corners*
0 Add a 4 corners polygon primitive as box body*
4,1,4,$2,$3,$4,$5,$6,$7,$8,$9,$2,$3,0*
0 Add four circle primitives for the rounded corners*
1,1,$1+$1,$2,$3*
1,1,$1+$1,$4,$5*
1,1,$1+$1,$6,$7*
1,1,$1+$1,$8,$9*
0 Add four rect primitives between the rounded corners*
20,1,$1+$1,$2,$3,$4,$5,0*
20,1,$1+$1,$4,$5,$6,$7,0*
20,1,$1+$1,$6,$7,$8,$9,0*
20,1,$1+$1,$8,$9,$2,$3,0*%
G04 Aperture macros list end*
%ADD10C,0.000000*%
%ADD11C,0.010000*%
%ADD12RoundRect,0.225000X0.225000X0.250000X-0.225000X0.250000X-0.225000X-0.250000X0.225000X-0.250000X0*%
%ADD13RoundRect,0.225000X-0.250000X0.225000X-0.250000X-0.225000X0.250000X-0.225000X0.250000X0.225000X0*%
%ADD14R,0.280000X0.950000*%
%ADD15R,0.950000X0.280000*%
%ADD16RoundRect,0.225000X-0.225000X-0.250000X0.225000X-0.250000X0.225000X0.250000X-0.225000X0.250000X0*%
%ADD17RoundRect,0.187500X-0.325507X0.660952X-0.608682X0.415113X0.325507X-0.660952X0.608682X-0.415113X0*%
%ADD18RoundRect,0.150000X-0.378409X0.664686X-0.604949X0.468014X0.378409X-0.664686X0.604949X-0.468014X0*%
%ADD19RoundRect,0.225000X0.173428X0.448523X-0.468435X-0.108713X-0.173428X-0.448523X0.468435X0.108713X0*%
%ADD20RoundRect,0.140000X-0.170000X0.140000X-0.170000X-0.140000X0.170000X-0.140000X0.170000X0.140000X0*%
%ADD21RoundRect,0.150000X0.350000X0.350000X-0.350000X0.350000X-0.350000X-0.350000X0.350000X-0.350000X0*%
%ADD22R,0.850000X0.600000*%
%ADD23R,0.800000X0.700000*%
%ADD24RoundRect,0.218750X0.218750X0.381250X-0.218750X0.381250X-0.218750X-0.381250X0.218750X-0.381250X0*%
%ADD25RoundRect,0.200000X0.200000X0.275000X-0.200000X0.275000X-0.200000X-0.275000X0.200000X-0.275000X0*%
%ADD26R,0.228600X0.685800*%
%ADD27R,0.228600X0.609600*%
%ADD28R,0.600000X0.600000*%
%ADD29RoundRect,0.200000X-0.200000X-0.275000X0.200000X-0.275000X0.200000X0.275000X-0.200000X0.275000X0*%
%ADD30R,0.254000X0.660400*%
%ADD31R,0.660400X0.254000*%
%ADD32R,3.606800X3.606800*%
%ADD33RoundRect,0.218750X-0.218750X-0.381250X0.218750X-0.381250X0.218750X0.381250X-0.218750X0.381250X0*%
%ADD34RoundRect,0.162500X0.650000X0.162500X-0.650000X0.162500X-0.650000X-0.162500X0.650000X-0.162500X0*%
%ADD35R,0.600000X1.150000*%
%ADD36R,0.300000X1.150000*%
%ADD37R,2.180000X2.000000*%
%ADD38RoundRect,0.187500X0.608682X0.415113X0.325507X0.660952X-0.608682X-0.415113X-0.325507X-0.660952X0*%
%ADD39RoundRect,0.150000X0.604949X0.468014X0.378409X0.664686X-0.604949X-0.468014X-0.378409X-0.664686X0*%
%ADD40RoundRect,0.225000X0.468435X-0.108713X-0.173428X0.448523X-0.468435X0.108713X0.173428X-0.448523X0*%
%ADD41RoundRect,0.200000X-0.275000X0.200000X-0.275000X-0.200000X0.275000X-0.200000X0.275000X0.200000X0*%
%ADD42RoundRect,0.034500X-0.080500X-0.200500X0.080500X-0.200500X0.080500X0.200500X-0.080500X0.200500X0*%
%ADD43R,0.965200X0.508000*%
%ADD44RoundRect,0.250000X-0.250000X0.650000X-0.250000X-0.650000X0.250000X-0.650000X0.250000X0.650000X0*%
%ADD45RoundRect,0.187500X0.325507X-0.660952X0.608682X-0.415113X-0.325507X0.660952X-0.608682X0.415113X0*%
%ADD46RoundRect,0.150000X0.378409X-0.664686X0.604949X-0.468014X-0.378409X0.664686X-0.604949X0.468014X0*%
%ADD47RoundRect,0.225000X-0.173428X-0.448523X0.468435X0.108713X0.173428X0.448523X-0.468435X-0.108713X0*%
%ADD48R,0.381000X0.203200*%
%ADD49R,0.203200X0.381000*%
%ADD50RoundRect,0.187500X-0.608682X-0.415113X-0.325507X-0.660952X0.608682X0.415113X0.325507X0.660952X0*%
%ADD51RoundRect,0.150000X-0.604949X-0.468014X-0.378409X-0.664686X0.604949X0.468014X0.378409X0.664686X0*%
%ADD52RoundRect,0.225000X-0.468435X0.108713X0.173428X-0.448523X0.468435X-0.108713X-0.173428X0.448523X0*%
G04 APERTURE END LIST*
D10*
%TO.C,U6*%
G36*
X-5815000Y1497000D02*
G01*
X-7418400Y1497000D01*
X-7418400Y3100400D01*
X-5815000Y3100400D01*
X-5815000Y1497000D01*
G37*
G36*
X-5815000Y-306400D02*
G01*
X-7418400Y-306400D01*
X-7418400Y1297000D01*
X-5815000Y1297000D01*
X-5815000Y-306400D01*
G37*
G36*
X-4011600Y1497000D02*
G01*
X-5615000Y1497000D01*
X-5615000Y3100400D01*
X-4011600Y3100400D01*
X-4011600Y1497000D01*
G37*
G36*
X-4011600Y-306400D02*
G01*
X-5615000Y-306400D01*
X-5615000Y1297000D01*
X-4011600Y1297000D01*
X-4011600Y-306400D01*
G37*
D11*
%TO.C,A1*%
X-9744500Y-2457000D02*
X-10080500Y-2457000D01*
X-10080500Y-2143000D01*
X-9744500Y-2143000D01*
X-9744500Y-2457000D01*
G36*
X-9744500Y-2457000D02*
G01*
X-10080500Y-2457000D01*
X-10080500Y-2143000D01*
X-9744500Y-2143000D01*
X-9744500Y-2457000D01*
G37*
X-9744500Y-2957000D02*
X-10080500Y-2957000D01*
X-10080500Y-2643000D01*
X-9744500Y-2643000D01*
X-9744500Y-2957000D01*
G36*
X-9744500Y-2957000D02*
G01*
X-10080500Y-2957000D01*
X-10080500Y-2643000D01*
X-9744500Y-2643000D01*
X-9744500Y-2957000D01*
G37*
X-9744500Y-3457000D02*
X-10080500Y-3457000D01*
X-10080500Y-3143000D01*
X-9744500Y-3143000D01*
X-9744500Y-3457000D01*
G36*
X-9744500Y-3457000D02*
G01*
X-10080500Y-3457000D01*
X-10080500Y-3143000D01*
X-9744500Y-3143000D01*
X-9744500Y-3457000D01*
G37*
X-9243000Y-2205500D02*
X-9557000Y-2205500D01*
X-9557000Y-1869500D01*
X-9243000Y-1869500D01*
X-9243000Y-2205500D01*
G36*
X-9243000Y-2205500D02*
G01*
X-9557000Y-2205500D01*
X-9557000Y-1869500D01*
X-9243000Y-1869500D01*
X-9243000Y-2205500D01*
G37*
X-9243000Y-3730500D02*
X-9557000Y-3730500D01*
X-9557000Y-3394500D01*
X-9243000Y-3394500D01*
X-9243000Y-3730500D01*
G36*
X-9243000Y-3730500D02*
G01*
X-9557000Y-3730500D01*
X-9557000Y-3394500D01*
X-9243000Y-3394500D01*
X-9243000Y-3730500D01*
G37*
X-8743000Y-2205500D02*
X-9057000Y-2205500D01*
X-9057000Y-1869500D01*
X-8743000Y-1869500D01*
X-8743000Y-2205500D01*
G36*
X-8743000Y-2205500D02*
G01*
X-9057000Y-2205500D01*
X-9057000Y-1869500D01*
X-8743000Y-1869500D01*
X-8743000Y-2205500D01*
G37*
X-8743000Y-3730500D02*
X-9057000Y-3730500D01*
X-9057000Y-3394500D01*
X-8743000Y-3394500D01*
X-8743000Y-3730500D01*
G36*
X-8743000Y-3730500D02*
G01*
X-9057000Y-3730500D01*
X-9057000Y-3394500D01*
X-8743000Y-3394500D01*
X-8743000Y-3730500D01*
G37*
X-8219500Y-2457000D02*
X-8555500Y-2457000D01*
X-8555500Y-2143000D01*
X-8219500Y-2143000D01*
X-8219500Y-2457000D01*
G36*
X-8219500Y-2457000D02*
G01*
X-8555500Y-2457000D01*
X-8555500Y-2143000D01*
X-8219500Y-2143000D01*
X-8219500Y-2457000D01*
G37*
X-8219500Y-2957000D02*
X-8555500Y-2957000D01*
X-8555500Y-2643000D01*
X-8219500Y-2643000D01*
X-8219500Y-2957000D01*
G36*
X-8219500Y-2957000D02*
G01*
X-8555500Y-2957000D01*
X-8555500Y-2643000D01*
X-8219500Y-2643000D01*
X-8219500Y-2957000D01*
G37*
X-8219500Y-3457000D02*
X-8555500Y-3457000D01*
X-8555500Y-3143000D01*
X-8219500Y-3143000D01*
X-8219500Y-3457000D01*
G36*
X-8219500Y-3457000D02*
G01*
X-8555500Y-3457000D01*
X-8555500Y-3143000D01*
X-8219500Y-3143000D01*
X-8219500Y-3457000D01*
G37*
%TD*%
D12*
%TO.C,C4*%
X-2130000Y-850000D03*
X-570000Y-850000D03*
%TD*%
%TO.C,C1*%
X-670000Y-3800000D03*
X-2230000Y-3800000D03*
%TD*%
D13*
%TO.C,C22*%
X-3500000Y-4080000D03*
X-3500000Y-2520000D03*
%TD*%
D14*
%TO.C,U12*%
X-13487400Y1598000D03*
D15*
X-12512401Y1373002D03*
X-12512401Y873001D03*
X-12512401Y373001D03*
X-12512401Y-127000D03*
D14*
X-13487400Y-351998D03*
D15*
X-14462399Y-127000D03*
X-14462399Y373001D03*
X-14462399Y873001D03*
X-14462399Y1373002D03*
%TD*%
D16*
%TO.C,C20*%
X-2032000Y2800000D03*
X-472000Y2800000D03*
%TD*%
D17*
%TO.C,SW5*%
X-8973947Y12206455D03*
X-10824024Y10600305D03*
D18*
X-9898986Y11403380D03*
D19*
X-9780354Y14088697D03*
X-12574347Y11663083D03*
%TD*%
D13*
%TO.C,C6*%
X-5588000Y-10243600D03*
X-5588000Y-11803600D03*
%TD*%
%TO.C,C8*%
X-10033000Y-5704400D03*
X-10033000Y-7264400D03*
%TD*%
D20*
%TO.C,R9*%
X-16200000Y-1235200D03*
X-16200000Y-2235200D03*
%TD*%
D21*
%TO.C,J2*%
X730000Y-15240000D03*
X-1270000Y-15240000D03*
%TD*%
D22*
%TO.C,J4*%
X-14138200Y4426600D03*
X-14138200Y5626600D03*
D23*
X-10363200Y3276600D03*
X-10363200Y6776600D03*
%TD*%
D24*
%TO.C,L3*%
X-2620500Y6604000D03*
X-4745500Y6604000D03*
%TD*%
D13*
%TO.C,C25*%
X8150000Y7530000D03*
X8150000Y5970000D03*
%TD*%
D25*
%TO.C,R13*%
X-9536000Y863600D03*
X-11176000Y863600D03*
%TD*%
D26*
%TO.C,U8*%
X-647598Y5422900D03*
D27*
X-247599Y5384800D03*
X152400Y5384800D03*
X152400Y6172200D03*
X-247599Y6172200D03*
X-647598Y6172200D03*
%TD*%
D28*
%TO.C,U3*%
X1550000Y-4400000D03*
X1550000Y-3300000D03*
X1550000Y-2200000D03*
X1550000Y-1100000D03*
X1550000Y0D03*
X1550000Y1100000D03*
X1550000Y2200000D03*
X1550000Y3300000D03*
X1550000Y4400000D03*
X2650000Y-4400000D03*
X2650000Y-3300000D03*
X2650000Y-2200000D03*
X2650000Y-1100000D03*
X2650000Y0D03*
X2650000Y1100000D03*
X2650000Y2200000D03*
X2650000Y3300000D03*
X2650000Y4400000D03*
X3750000Y-4400000D03*
X3750000Y-3300000D03*
X3750000Y-1100000D03*
X3750000Y0D03*
X3750000Y1100000D03*
X3750000Y3300000D03*
X3750000Y4400000D03*
X4850000Y-4400000D03*
X4850000Y-3300000D03*
X4850000Y-2200000D03*
X4850000Y2200000D03*
X4850000Y3300000D03*
X4850000Y4400000D03*
X5950000Y-4400000D03*
X5950000Y-3300000D03*
X5950000Y-2200000D03*
X5950000Y-550000D03*
X5950000Y550000D03*
X5950000Y2200000D03*
X5950000Y3300000D03*
X5950000Y4400000D03*
X7050000Y-4400000D03*
X7050000Y-3300000D03*
X7050000Y-2200000D03*
X7050000Y-550000D03*
X7050000Y550000D03*
X7050000Y2200000D03*
X7050000Y3300000D03*
X7050000Y4400000D03*
X8150000Y-4400000D03*
X8150000Y-3300000D03*
X8150000Y-2200000D03*
X8150000Y-550000D03*
X8150000Y550000D03*
X8150000Y2200000D03*
X8150000Y3300000D03*
X8150000Y4400000D03*
X9250000Y-4400000D03*
X9250000Y-3300000D03*
X9250000Y-2200000D03*
X9250000Y2200000D03*
X9250000Y3300000D03*
X9250000Y4400000D03*
X10350000Y-4400000D03*
X10350000Y-3300000D03*
X10350000Y-2200000D03*
X10350000Y-550000D03*
X10350000Y550000D03*
X10350000Y2200000D03*
X10350000Y3300000D03*
X10350000Y4400000D03*
X11450000Y-4400000D03*
X11450000Y-3300000D03*
X11450000Y-2200000D03*
X11450000Y0D03*
X11450000Y2200000D03*
X11450000Y3300000D03*
X11450000Y4400000D03*
X12950000Y-4400000D03*
X12950000Y4400000D03*
X14450000Y-4400000D03*
X14450000Y-3300000D03*
X14450000Y3300000D03*
X14450000Y4400000D03*
%TD*%
D12*
%TO.C,C17*%
X-6553200Y5029200D03*
X-8113200Y5029200D03*
%TD*%
%TO.C,C14*%
X-12809000Y-5130800D03*
X-14369000Y-5130800D03*
%TD*%
D29*
%TO.C,R1*%
X-8330000Y-8600000D03*
X-9970000Y-8600000D03*
%TD*%
D30*
%TO.C,U6*%
X-3965001Y3771900D03*
X-4465000Y3771900D03*
X-4964999Y3771900D03*
X-5465000Y3771900D03*
X-5965000Y3771900D03*
X-6465001Y3771900D03*
X-6965000Y3771900D03*
X-7464999Y3771900D03*
D31*
X-8089900Y3146999D03*
X-8089900Y2647000D03*
X-8089900Y2147001D03*
X-8089900Y1647000D03*
X-8089900Y1147000D03*
X-8089900Y646999D03*
X-8089900Y147000D03*
X-8089900Y-352999D03*
D30*
X-7464999Y-977900D03*
X-6965000Y-977900D03*
X-6465001Y-977900D03*
X-5965000Y-977900D03*
X-5465000Y-977900D03*
X-4964999Y-977900D03*
X-4465000Y-977900D03*
X-3965001Y-977900D03*
D31*
X-3340100Y-352999D03*
X-3340100Y147000D03*
X-3340100Y646999D03*
X-3340100Y1147000D03*
X-3340100Y1647000D03*
X-3340100Y2147001D03*
X-3340100Y2647000D03*
X-3340100Y3146999D03*
D32*
X-5715000Y1397000D03*
%TD*%
D33*
%TO.C,L4*%
X-8636000Y6604000D03*
X-6511000Y6604000D03*
%TD*%
D13*
%TO.C,C10*%
X-4800000Y-2520000D03*
X-4800000Y-4080000D03*
%TD*%
%TO.C,C9*%
X-8700000Y-5220000D03*
X-8700000Y-6780000D03*
%TD*%
D34*
%TO.C,U5*%
X5365500Y-13462000D03*
X5365500Y-12192000D03*
X5365500Y-10922000D03*
X5365500Y-9652000D03*
X-1809500Y-9652000D03*
X-1809500Y-10922000D03*
X-1809500Y-12192000D03*
X-1809500Y-13462000D03*
%TD*%
D13*
%TO.C,C11*%
X-6100000Y-2520000D03*
X-6100000Y-4080000D03*
%TD*%
D35*
%TO.C,J7*%
X3200000Y11125000D03*
X2400000Y11125000D03*
D36*
X1250000Y11125000D03*
X250000Y11125000D03*
X-250000Y11125000D03*
X-1250000Y11125000D03*
D35*
X-3200000Y11125000D03*
X-2400000Y11125000D03*
D36*
X-1750000Y11125000D03*
X-750000Y11125000D03*
X750000Y11125000D03*
X1750000Y11125000D03*
D37*
X5110000Y11700000D03*
X-5110000Y11700000D03*
X5110000Y15630000D03*
X-5110000Y15630000D03*
%TD*%
D12*
%TO.C,C15*%
X-9423400Y2057400D03*
X-10983400Y2057400D03*
%TD*%
D38*
%TO.C,SW4*%
X10824024Y10600305D03*
X8973947Y12206456D03*
D39*
X9898986Y11403380D03*
D40*
X12574347Y11663083D03*
X9780354Y14088697D03*
%TD*%
D16*
%TO.C,C16*%
X-5207000Y4953000D03*
X-3647000Y4953000D03*
%TD*%
D41*
%TO.C,R11*%
X-11557000Y-4945800D03*
X-11557000Y-6585800D03*
%TD*%
D42*
%TO.C,X608*%
X-600000Y-5880000D03*
X-200000Y-5880000D03*
X200000Y-5880000D03*
X600000Y-5880000D03*
X1000000Y-5880000D03*
X1400000Y-5880000D03*
X1800000Y-5880000D03*
X2200000Y-5880000D03*
X2600000Y-5880000D03*
X3000000Y-5880000D03*
X3400000Y-5880000D03*
X3800000Y-5880000D03*
X-600000Y-8070000D03*
X-200000Y-8070000D03*
X200000Y-8070000D03*
X600000Y-8070000D03*
X1000000Y-8070000D03*
X1400000Y-8070000D03*
X1800000Y-8070000D03*
X2200000Y-8070000D03*
X2600000Y-8070000D03*
X3000000Y-8070000D03*
X3400000Y-8070000D03*
X3800000Y-8070000D03*
%TD*%
D12*
%TO.C,C24*%
X6130000Y8200000D03*
X4570000Y8200000D03*
%TD*%
%TO.C,C26*%
X-3639600Y-13157200D03*
X-5199600Y-13157200D03*
%TD*%
D43*
%TO.C,U7*%
X-13614400Y-1752600D03*
X-13614400Y-2702601D03*
X-13614400Y-3652602D03*
X-11277600Y-3652602D03*
X-11277600Y-2702601D03*
X-11277600Y-1752600D03*
%TD*%
D16*
%TO.C,C18*%
X-2118800Y1600000D03*
X-558800Y1600000D03*
%TD*%
D44*
%TO.C,X1*%
X5800000Y6450000D03*
X3300000Y6450000D03*
%TD*%
D16*
%TO.C,C19*%
X-2050000Y4000000D03*
X-490000Y4000000D03*
%TD*%
%TO.C,C23*%
X-11143200Y-482600D03*
X-9583200Y-482600D03*
%TD*%
D45*
%TO.C,SW6*%
X8973947Y-12206456D03*
X10824024Y-10600305D03*
D46*
X9898986Y-11403380D03*
D47*
X9780354Y-14088697D03*
X12574347Y-11663083D03*
%TD*%
D25*
%TO.C,R2*%
X7470000Y-6500000D03*
X5830000Y-6500000D03*
%TD*%
D12*
%TO.C,C21*%
X-3639600Y-14427200D03*
X-5199600Y-14427200D03*
%TD*%
D41*
%TO.C,R12*%
X-7400000Y-2380000D03*
X-7400000Y-4020000D03*
%TD*%
D48*
%TO.C,U10*%
X-6786499Y-6298499D03*
X-6786499Y-6798500D03*
X-6786499Y-7298500D03*
X-6786499Y-7798501D03*
D49*
X-6079998Y-8001000D03*
X-5579999Y-8001000D03*
X-5080000Y-8001000D03*
D48*
X-4373499Y-7798501D03*
X-4373499Y-7298500D03*
X-4373499Y-6798500D03*
X-4373499Y-6298499D03*
D49*
X-5080000Y-6096000D03*
X-5579999Y-6096000D03*
X-6079998Y-6096000D03*
%TD*%
D50*
%TO.C,SW7*%
X-10824024Y-10600305D03*
X-8973947Y-12206456D03*
D51*
X-9898986Y-11403380D03*
D52*
X-12574347Y-11663083D03*
X-9780354Y-14088697D03*
%TD*%
D29*
%TO.C,R3*%
X5880000Y-7850000D03*
X7520000Y-7850000D03*
%TD*%
D12*
%TO.C,C2*%
X-670000Y-2550000D03*
X-2230000Y-2550000D03*
%TD*%
%TO.C,C3*%
X-640000Y400000D03*
X-2200000Y400000D03*
%TD*%
M02*
