%TF.GenerationSoftware,KiCad,Pcbnew,10.0.1*%
%TF.CreationDate,2026-05-06T10:39:13-04:00*%
%TF.ProjectId,Smart_Watch,536d6172-745f-4576-9174-63682e6b6963,rev?*%
%TF.SameCoordinates,Original*%
%TF.FileFunction,Copper,L2,Inr*%
%TF.FilePolarity,Positive*%
%FSLAX46Y46*%
G04 Gerber Fmt 4.6, Leading zero omitted, Abs format (unit mm)*
G04 Created by KiCad (PCBNEW 10.0.1) date 2026-05-06 10:39:13*
%MOMM*%
%LPD*%
G01*
G04 APERTURE LIST*
%TA.AperFunction,ComponentPad*%
%ADD10C,0.500000*%
%TD*%
%TA.AperFunction,ViaPad*%
%ADD11C,0.500000*%
%TD*%
%TA.AperFunction,Conductor*%
%ADD12C,0.200000*%
%TD*%
G04 APERTURE END LIST*
D10*
%TO.N,GND*%
%TO.C,U2*%
X7431999Y-6331001D03*
X7431999Y-7130999D03*
%TD*%
D11*
%TO.N,GND*%
X-7112000Y13208000D03*
X13360400Y-6096000D03*
X5950000Y550000D03*
X2641600Y-3251200D03*
X-13487400Y-351998D03*
X3810000Y-15240000D03*
X-50800Y-3022600D03*
X-4531500Y-4169000D03*
X-558800Y1397000D03*
X6875000Y13550000D03*
X2540000Y-15240000D03*
X11450000Y-3300000D03*
X-6800000Y9150000D03*
X-14986000Y-2235200D03*
X-3683000Y-10767447D03*
X12954000Y5842000D03*
X-3048000Y-15240000D03*
X6850000Y9150000D03*
X-4826000Y-14986000D03*
X13157200Y-7264400D03*
X11300000Y7600000D03*
X-11350000Y7700000D03*
X5950000Y-550000D03*
X-5928500Y-4368800D03*
X13512800Y6807200D03*
X12242800Y6908800D03*
X13919200Y5892800D03*
X-11176000Y1143000D03*
X12000000Y8725000D03*
X12903200Y7721600D03*
X-3258400Y5740400D03*
X12903200Y6502400D03*
X12852400Y-8280400D03*
X-7925000Y7950000D03*
X12344400Y-6858000D03*
X-6292000Y2786800D03*
%TO.N,+1V8*%
X-9423400Y2057400D03*
X9303600Y-5249667D03*
X4800000Y972400D03*
X-2153756Y4041603D03*
X-8750976Y3802556D03*
X-9956800Y-4927600D03*
X1550000Y2330000D03*
%TO.N,/Architecture/MCU/BMI_INT*%
X3708400Y3251200D03*
X-2895600Y-6959600D03*
X-1259188Y3410369D03*
%TO.N,/Architecture/MCU/SCL*%
X2641600Y-1117600D03*
X4013200Y6350000D03*
X2030916Y-7490601D03*
X-8382000Y-7467600D03*
X7213600Y-8026400D03*
X-8379115Y-1831444D03*
X-8733101Y512499D03*
X4443600Y-743207D03*
X-4769351Y-6852151D03*
%TO.N,/Architecture/MCU/SDA*%
X2580484Y5496910D03*
X-9248000Y-1430100D03*
X-5442910Y-5784000D03*
X-6400800Y-9448800D03*
X1930400Y-9499600D03*
X8686800Y-5689600D03*
X10250000Y-8350000D03*
X-8771800Y1147000D03*
X1550000Y-2200000D03*
%TO.N,PGND2*%
X-6465001Y3771900D03*
X-457200Y2794000D03*
%TO.N,+3V0*%
X-2858000Y-10317447D03*
X-3352800Y3403600D03*
X-13614400Y-3652602D03*
X-13411200Y6654800D03*
X-3708400Y6654800D03*
X-8636000Y6604000D03*
X-12852400Y-8077200D03*
%TO.N,/Architecture/MCU/BTN_2*%
X-8680986Y9999380D03*
X2641600Y50800D03*
X2837000Y7314870D03*
%TO.N,VSYS*%
X-6553200Y5029200D03*
X-14986000Y-1235200D03*
X-5892800Y-1930400D03*
X-2794000Y2131101D03*
%TO.N,+BATT*%
X-5928500Y-2641600D03*
X-7569200Y5943600D03*
X-11684000Y4572000D03*
%TO.N,/Architecture/MCU/OPT_INT*%
X10312400Y1500000D03*
X9670200Y-6070600D03*
X4850000Y2200000D03*
%TO.N,/Architecture/MCU/VBUS_OUT*%
X-3562307Y-2676012D03*
X-5485274Y5776615D03*
X2650000Y4400000D03*
%TO.N,/Architecture/MCU/USBC_D+*%
X3750000Y4400000D03*
X3365272Y6307200D03*
X-762000Y7213600D03*
X254000Y7264400D03*
%TO.N,/Architecture/MCU/USBC_D-*%
X762000Y6096000D03*
X-238108Y6876249D03*
%TO.N,/Architecture/MCU/VBUS_IN*%
X-2387600Y7620000D03*
X-2082800Y5588000D03*
X2336800Y6045200D03*
X-4876800Y-2641600D03*
%TO.N,/Architecture/MCU/CC1*%
X-3937998Y-825600D03*
X-108800Y-787400D03*
X1387003Y5943600D03*
%TO.N,/Architecture/MCU/USB_RST*%
X9250000Y-2200000D03*
X1828800Y6604000D03*
X10058400Y6959600D03*
X-1275000Y6814870D03*
%TO.N,/Architecture/MCU/CC2*%
X-1920000Y-2950000D03*
X-1805016Y6483642D03*
%TO.N,PGND1*%
X-4470400Y3759200D03*
X-520113Y3824684D03*
%TO.N,/Architecture/MCU/PMIC_INT*%
X9250000Y-4400000D03*
X-6959600Y-5334000D03*
X-7975600Y3759200D03*
%TO.N,/Architecture/Power/PMIC_SW*%
X-8089900Y147000D03*
X-8382000Y-3860800D03*
%TO.N,/Architecture/MCU/LRA_EN*%
X10312400Y3251200D03*
X-14475659Y2152937D03*
%TO.N,/Architecture/MCU/LRA_PWM*%
X9194800Y2184400D03*
X-14462399Y873001D03*
%TO.N,/Architecture/Peripherals/MOTOR-*%
X-12463232Y-117001D03*
X-1270000Y-15240000D03*
%TO.N,/Architecture/Peripherals/MOTOR+*%
X-12471400Y1363003D03*
X762000Y-15240000D03*
%TO.N,/Architecture/MCU/LPS_INT*%
X875490Y-4831622D03*
X-10827600Y-4346743D03*
X1550000Y0D03*
%TO.N,/Architecture/MCU/QSPI_CS*%
X6604000Y-13462000D03*
X5994400Y-4419600D03*
%TO.N,/Architecture/MCU/QSPI_IO1*%
X6604000Y-12192000D03*
X5969000Y-3302000D03*
%TO.N,/Architecture/MCU/QSPI_IO2*%
X4826000Y-4445000D03*
X3657600Y-10711600D03*
%TO.N,/Architecture/MCU/QSPI_IO0*%
X4724400Y-3251200D03*
X-406400Y-9601200D03*
X2895600Y-9811600D03*
%TO.N,/Architecture/MCU/QSPI_CLK*%
X6901600Y-10992489D03*
X7010400Y-4419600D03*
X-407629Y-11000526D03*
%TO.N,/Architecture/MCU/QSPI_IO3*%
X-406400Y-12192000D03*
X7010400Y-3302000D03*
X6901600Y-11592492D03*
%TO.N,/Architecture/MCU/BTN_3*%
X8680986Y-9999380D03*
X1524000Y3251200D03*
X1299767Y-9048273D03*
%TO.N,/Architecture/MCU/CTP_INT*%
X2641600Y-7416800D03*
X2641600Y-4470400D03*
%TO.N,/Architecture/MCU/DISPLAY_CLK*%
X2946400Y-2200000D03*
X2200001Y-6294416D03*
%TO.N,/Architecture/MCU/DISPLAY_DATA*%
X3759200Y-4419600D03*
X1638999Y-6590601D03*
%TO.N,/Architecture/MCU/DISPLAY_DC*%
X3750000Y-3300000D03*
X3568998Y-6454860D03*
%TO.N,/Architecture/MCU/MAX_INT*%
X5950000Y-2200000D03*
%TO.N,/Architecture/MCU/CTP_RST*%
X5943600Y3327000D03*
X932600Y-7416800D03*
X4978400Y-6908800D03*
%TO.N,/Architecture/MCU/BTN_4*%
X-8680986Y-9867447D03*
X8519929Y-8412313D03*
X7112000Y3302000D03*
%TO.N,/Architecture/MCU/BTN_1*%
X8227554Y-3202446D03*
X8680986Y9999380D03*
%TO.N,/Architecture/MCU/DISPLAY_LIGHT_IO*%
X8128000Y-2235200D03*
X-12700000Y-1574800D03*
%TO.N,/Architecture/MCU/SWDIO*%
X9250000Y-3300000D03*
%TO.N,/Architecture/MCU/SWO*%
X9250000Y3300000D03*
%TO.N,/Architecture/MCU/SWCLK*%
X10972800Y-1422400D03*
X11125200Y6096000D03*
X5890000Y6260000D03*
%TO.N,/Architecture/MCU/MCU_RST*%
X4927600Y6299200D03*
X10312400Y-2235200D03*
X8128000Y-1524000D03*
%TO.N,/Architecture/MCU/DISPLAY_RST*%
X10900000Y-3855049D03*
X10363200Y4368800D03*
X3708400Y-5232400D03*
%TO.N,/Architecture/MCU/LEDK1*%
X-1930400Y-3657600D03*
X-914400Y-6756400D03*
X-12446000Y-2489200D03*
%TO.N,/Architecture/MCU/LEDK2*%
X-11277600Y-3652602D03*
X-203200Y-6400800D03*
X-10820400Y-5638800D03*
%TD*%
%TO.N,+1V8*%
D12*
X-8331632Y4221900D02*
X-8750976Y3802556D01*
X-2334053Y4221900D02*
X-8331632Y4221900D01*
X-2153756Y4041603D02*
X-2334053Y4221900D01*
%TO.N,/Architecture/MCU/BMI_INT*%
X3258400Y3701200D02*
X3708400Y3251200D01*
X958000Y3701200D02*
X3258400Y3701200D01*
X609600Y3352800D02*
X958000Y3701200D01*
X-1259188Y3410369D02*
X-1201619Y3352800D01*
X-1201619Y3352800D02*
X609600Y3352800D01*
%TO.N,/Architecture/MCU/SCL*%
X6957782Y-8282218D02*
X2032000Y-8282218D01*
X-2995382Y-8282218D02*
X2032000Y-8282218D01*
X2030916Y-7490601D02*
X2030916Y-8281134D01*
X7213600Y-8026400D02*
X6957782Y-8282218D01*
X-4425449Y-6852151D02*
X-2995382Y-8282218D01*
X-4769351Y-6852151D02*
X-4425449Y-6852151D01*
X2030916Y-8281134D02*
X2032000Y-8282218D01*
X-5740400Y-7467600D02*
X-8382000Y-7467600D01*
X-5124951Y-6852151D02*
X-5740400Y-7467600D01*
X-4769351Y-6852151D02*
X-5124951Y-6852151D01*
%TO.N,/Architecture/MCU/SDA*%
X9550000Y-8436803D02*
X9550000Y-10050000D01*
X3293597Y-10050000D02*
X3345600Y-9997997D01*
X9550000Y-10050000D02*
X9130986Y-10050000D01*
X2445600Y-9625203D02*
X2445600Y-9649600D01*
X3345600Y-9997997D02*
X3345600Y-9625203D01*
X2080400Y-9649600D02*
X1930400Y-9499600D01*
X8494589Y-10449380D02*
X8230986Y-10185777D01*
X-8990983Y-1022583D02*
X-4377412Y-1022583D01*
X10250000Y-8350000D02*
X9636803Y-8350000D01*
X9130986Y-10185777D02*
X8867383Y-10449380D01*
X9636803Y-8350000D02*
X9550000Y-8436803D01*
X-9248000Y-1279600D02*
X-8990983Y-1022583D01*
X2709203Y-9361600D02*
X2445600Y-9625203D01*
X9130986Y-10050000D02*
X9130986Y-10185777D01*
X-220003Y-9151200D02*
X-6103200Y-9151200D01*
X-4377412Y-1022583D02*
X-3723595Y-1676400D01*
X2445600Y-9649600D02*
X2080400Y-9649600D01*
X8867383Y-10449380D02*
X8494589Y-10449380D01*
X1930400Y-9499600D02*
X128397Y-9499600D01*
X3345600Y-9625203D02*
X3081997Y-9361600D01*
X-6103200Y-9151200D02*
X-6400800Y-9448800D01*
X-3723595Y-1676400D02*
X1026400Y-1676400D01*
X1026400Y-1676400D02*
X1550000Y-2200000D01*
X8230986Y-10050000D02*
X3293597Y-10050000D01*
X3081997Y-9361600D02*
X2709203Y-9361600D01*
X8230986Y-10185777D02*
X8230986Y-10050000D01*
X128397Y-9499600D02*
X-220003Y-9151200D01*
X-9248000Y-1430100D02*
X-9248000Y-1279600D01*
%TO.N,PGND2*%
X-616800Y2953600D02*
X-457200Y2794000D01*
X-5646701Y2953600D02*
X-616800Y2953600D01*
X-6465001Y3771900D02*
X-5646701Y2953600D01*
%TO.N,+3V0*%
X-8636000Y6604000D02*
X-3759200Y6604000D01*
X-10932553Y-10317447D02*
X-2858000Y-10317447D01*
X-12852400Y-8077200D02*
X-12852400Y-8397600D01*
X-3759200Y6604000D02*
X-3708400Y6654800D01*
X-12852400Y-8397600D02*
X-10932553Y-10317447D01*
%TO.N,/Architecture/MCU/BTN_2*%
X-6969206Y8287600D02*
X-6860406Y8178800D01*
X-7358800Y8677194D02*
X-7358800Y8551203D01*
X-7095197Y8287600D02*
X-6969206Y8287600D01*
X-6860406Y8178800D02*
X1973070Y8178800D01*
X-8680986Y9999380D02*
X-7358800Y8677194D01*
X1973070Y8178800D02*
X2837000Y7314870D01*
X-7358800Y8551203D02*
X-7095197Y8287600D01*
%TO.N,VSYS*%
X-14986000Y-1235200D02*
X-14451000Y-1235200D01*
X-8565512Y-2281444D02*
X-6243844Y-2281444D01*
X-14451000Y-1235200D02*
X-13647000Y-2039200D01*
X-8807756Y-2039200D02*
X-8565512Y-2281444D01*
X-13647000Y-2039200D02*
X-8807756Y-2039200D01*
X-6243844Y-2281444D02*
X-5892800Y-1930400D01*
%TO.N,+BATT*%
X-7569200Y5943600D02*
X-7620000Y5892800D01*
X-7620000Y5892800D02*
X-10363200Y5892800D01*
X-10363200Y5892800D02*
X-11684000Y4572000D01*
%TO.N,/Architecture/MCU/OPT_INT*%
X5284400Y2634400D02*
X9381197Y2634400D01*
X4850000Y2200000D02*
X5284400Y2634400D01*
X9381197Y2634400D02*
X10312400Y1703197D01*
X10312400Y1703197D02*
X10312400Y1500000D01*
%TO.N,/Architecture/MCU/VBUS_OUT*%
X2528100Y4521900D02*
X-4230559Y4521900D01*
X-4230559Y4521900D02*
X-5485274Y5776615D01*
X2650000Y4400000D02*
X2528100Y4521900D01*
%TO.N,/Architecture/MCU/USBC_D+*%
X192151Y7326249D02*
X254000Y7264400D01*
X-762000Y7213600D02*
X-649351Y7326249D01*
X-649351Y7326249D02*
X192151Y7326249D01*
%TO.N,/Architecture/MCU/VBUS_IN*%
X-2082800Y5588000D02*
X-1988400Y5493600D01*
X-1988400Y5493600D02*
X1785200Y5493600D01*
X1785200Y5493600D02*
X2336800Y6045200D01*
%TO.N,/Architecture/MCU/CC1*%
X-3937998Y-825600D02*
X-147000Y-825600D01*
X-147000Y-825600D02*
X-108800Y-787400D01*
%TO.N,/Architecture/MCU/USB_RST*%
X10058400Y6959600D02*
X9906000Y6807200D01*
X2032000Y6807200D02*
X1828800Y6604000D01*
X128284Y6604000D02*
X1828800Y6604000D01*
X-49467Y6426249D02*
X128284Y6604000D01*
X-886379Y6426249D02*
X-49467Y6426249D01*
X-1275000Y6814870D02*
X-886379Y6426249D01*
X9906000Y6807200D02*
X2032000Y6807200D01*
%TO.N,PGND1*%
X-2340153Y3591603D02*
X-1714351Y3591603D01*
X-1445585Y3860369D02*
X-555798Y3860369D01*
X-4470400Y3759200D02*
X-4376000Y3853600D01*
X-555798Y3860369D02*
X-520113Y3824684D01*
X-1714351Y3591603D02*
X-1445585Y3860369D01*
X-2602150Y3853600D02*
X-2340153Y3591603D01*
X-4376000Y3853600D02*
X-2602150Y3853600D01*
%TO.N,/Architecture/MCU/PMIC_INT*%
X7967600Y-5682400D02*
X9250000Y-4400000D01*
X-6959600Y-5334000D02*
X3173603Y-5334000D01*
X3522003Y-5682400D02*
X7967600Y-5682400D01*
X3173603Y-5334000D02*
X3522003Y-5682400D01*
%TO.N,/Architecture/MCU/LRA_EN*%
X-5498896Y2581101D02*
X-1057101Y2581101D01*
X3860203Y1880000D02*
X5757203Y3777000D01*
X9786600Y3777000D02*
X10312400Y3251200D01*
X-14475659Y2152937D02*
X-14121196Y2507400D01*
X-6110797Y1969200D02*
X-5498896Y2581101D01*
X-1057101Y2581101D02*
X-356000Y1880000D01*
X-356000Y1880000D02*
X3860203Y1880000D01*
X-6648997Y2507400D02*
X-6110797Y1969200D01*
X5757203Y3777000D02*
X9786600Y3777000D01*
X-14121196Y2507400D02*
X-6648997Y2507400D01*
%TO.N,/Architecture/MCU/LRA_PWM*%
X-14282398Y693000D02*
X-10006597Y693000D01*
X4941203Y1750000D02*
X8760400Y1750000D01*
X4105603Y914400D02*
X4941203Y1750000D01*
X-712597Y914400D02*
X4105603Y914400D01*
X-1467397Y1669200D02*
X-712597Y914400D01*
X8760400Y1750000D02*
X9194800Y2184400D01*
X-10006597Y693000D02*
X-9030397Y1669200D01*
X-9030397Y1669200D02*
X-1467397Y1669200D01*
X-14462399Y873001D02*
X-14282398Y693000D01*
%TO.N,/Architecture/MCU/LPS_INT*%
X-5418097Y-3918800D02*
X-4505275Y-4831622D01*
X-4505275Y-4831622D02*
X875490Y-4831622D01*
X-6542840Y-4346743D02*
X-6114897Y-3918800D01*
X-10827600Y-4346743D02*
X-6542840Y-4346743D01*
X-6114897Y-3918800D02*
X-5418097Y-3918800D01*
%TO.N,/Architecture/MCU/QSPI_IO0*%
X-58000Y-9949600D02*
X2757600Y-9949600D01*
X2757600Y-9949600D02*
X2895600Y-9811600D01*
X-406400Y-9601200D02*
X-58000Y-9949600D01*
%TO.N,/Architecture/MCU/QSPI_CLK*%
X6866410Y-10957299D02*
X6771901Y-10957299D01*
X6901600Y-10992489D02*
X6866410Y-10957299D01*
X6567600Y-11161600D02*
X-246555Y-11161600D01*
X6771901Y-10957299D02*
X6567600Y-11161600D01*
X-246555Y-11161600D02*
X-407629Y-11000526D01*
%TO.N,/Architecture/MCU/QSPI_IO3*%
X6901600Y-11592492D02*
X6840708Y-11531600D01*
X6840708Y-11531600D02*
X254000Y-11531600D01*
X254000Y-11531600D02*
X-406400Y-12192000D01*
%TO.N,/Architecture/MCU/BTN_3*%
X7673206Y-8991600D02*
X1356440Y-8991600D01*
X1356440Y-8991600D02*
X1299767Y-9048273D01*
X8680986Y-9999380D02*
X7673206Y-8991600D01*
%TO.N,/Architecture/MCU/CTP_RST*%
X4978400Y-6908800D02*
X4521200Y-6908800D01*
X4470400Y-6959600D02*
X1906397Y-6959600D01*
X1825396Y-7040601D02*
X1581573Y-7040601D01*
X4521200Y-6908800D02*
X4470400Y-6959600D01*
X1906397Y-6959600D02*
X1825396Y-7040601D01*
X1205374Y-7416800D02*
X932600Y-7416800D01*
X1581573Y-7040601D02*
X1205374Y-7416800D01*
%TO.N,/Architecture/MCU/BTN_4*%
X-8680986Y-9215132D02*
X-8064127Y-8598273D01*
X-8680986Y-9867447D02*
X-8680986Y-9215132D01*
X-8064127Y-8598273D02*
X8333969Y-8598273D01*
X8333969Y-8598273D02*
X8519929Y-8412313D01*
%TO.N,/Architecture/MCU/DISPLAY_LIGHT_IO*%
X1251800Y-337400D02*
X1582000Y-667600D01*
X-12700000Y-1574800D02*
X-11462600Y-337400D01*
X7642800Y-1750000D02*
X8128000Y-2235200D01*
X1582000Y-667600D02*
X3731596Y-667600D01*
X-11462600Y-337400D02*
X1251800Y-337400D01*
X3731596Y-667600D02*
X4813996Y-1750000D01*
X4813996Y-1750000D02*
X7642800Y-1750000D01*
%TO.N,/Architecture/MCU/SWCLK*%
X6730000Y6236000D02*
X6870000Y6096000D01*
X5914000Y6236000D02*
X6730000Y6236000D01*
X6870000Y6096000D02*
X11125200Y6096000D01*
X5890000Y6260000D02*
X5914000Y6236000D01*
%TO.N,/Architecture/MCU/MCU_RST*%
X9601200Y-1524000D02*
X10312400Y-2235200D01*
X8128000Y-1524000D02*
X9601200Y-1524000D01*
%TO.N,/Architecture/MCU/DISPLAY_RST*%
X10900000Y-3855049D02*
X10899998Y-3855049D01*
X10894949Y-3850000D02*
X9163603Y-3850000D01*
X9163603Y-3850000D02*
X7781203Y-5232400D01*
X7781203Y-5232400D02*
X3708400Y-5232400D01*
X10899998Y-3855049D02*
X10894949Y-3850000D01*
%TO.N,/Architecture/MCU/LEDK1*%
X-11732598Y-3202602D02*
X-12446000Y-2489200D01*
X-2385398Y-3202602D02*
X-11732598Y-3202602D01*
X-1930400Y-3657600D02*
X-2385398Y-3202602D01*
%TO.N,/Architecture/MCU/LEDK2*%
X-309584Y-6294416D02*
X-10164784Y-6294416D01*
X-10164784Y-6294416D02*
X-10820400Y-5638800D01*
X-203200Y-6400800D02*
X-309584Y-6294416D01*
%TD*%
%TA.AperFunction,Conductor*%
%TO.N,GND*%
G36*
X-1145185Y2310916D02*
G01*
X-1124543Y2294282D01*
X-575435Y1745175D01*
X-575432Y1745171D01*
X-568364Y1738103D01*
X-497897Y1667636D01*
X-471978Y1656900D01*
X-405827Y1629499D01*
X-405826Y1629499D01*
X-291738Y1629499D01*
X-291730Y1629500D01*
X3910029Y1629500D01*
X3910031Y1629500D01*
X4002100Y1667636D01*
X4327051Y1992589D01*
X4388374Y2026073D01*
X4458065Y2021089D01*
X4508732Y1985777D01*
X4516307Y1976972D01*
X4529520Y1954087D01*
X4575881Y1907726D01*
X4578912Y1904203D01*
X4591475Y1876434D01*
X4606078Y1849691D01*
X4605736Y1844913D01*
X4607712Y1840545D01*
X4603267Y1810395D01*
X4601094Y1779999D01*
X4598100Y1775342D01*
X4597523Y1771422D01*
X4590158Y1762984D01*
X4572593Y1735652D01*
X4038161Y1201219D01*
X3976838Y1167734D01*
X3950480Y1164900D01*
X-557474Y1164900D01*
X-624513Y1184585D01*
X-645155Y1201219D01*
X-1325500Y1881564D01*
X-1417568Y1919700D01*
X-1417569Y1919700D01*
X-2274417Y1919700D01*
X-2341456Y1939385D01*
X-2387211Y1992189D01*
X-2398396Y2045975D01*
X-2398118Y2061141D01*
X-2393500Y2078374D01*
X-2393500Y2183828D01*
X-2395715Y2192095D01*
X-2395407Y2208876D01*
X-2387614Y2233723D01*
X-2383601Y2259452D01*
X-2377326Y2266523D01*
X-2374496Y2275543D01*
X-2354507Y2292232D01*
X-2337220Y2311708D01*
X-2328011Y2314353D01*
X-2320862Y2320321D01*
X-2296702Y2323344D01*
X-2271428Y2330601D01*
X-1212224Y2330601D01*
X-1145185Y2310916D01*
G37*
%TD.AperFunction*%
%TA.AperFunction,Conductor*%
G36*
X399974Y16169480D02*
G01*
X436612Y16167681D01*
X1186871Y16130822D01*
X1192867Y16130379D01*
X1976914Y16053158D01*
X1982926Y16052416D01*
X2762229Y15936818D01*
X2768214Y15935778D01*
X3540872Y15782087D01*
X3546776Y15780762D01*
X4263731Y15601174D01*
X4310991Y15589336D01*
X4316854Y15587714D01*
X5070755Y15359021D01*
X5076519Y15357116D01*
X5818252Y15091719D01*
X5823915Y15089535D01*
X6551768Y14788049D01*
X6557311Y14785593D01*
X7269498Y14448752D01*
X7274932Y14446016D01*
X7555742Y14295920D01*
X7969694Y14074659D01*
X7974984Y14071663D01*
X8650730Y13666636D01*
X8655824Y13663410D01*
X9000230Y13433286D01*
X9310872Y13225722D01*
X9315848Y13222218D01*
X9948625Y12752917D01*
X9953423Y12749172D01*
X10562392Y12249404D01*
X10567000Y12245429D01*
X11150721Y11716376D01*
X11155129Y11712179D01*
X11712178Y11155130D01*
X11716375Y11150722D01*
X12245428Y10567001D01*
X12249403Y10562393D01*
X12749171Y9953424D01*
X12752916Y9948626D01*
X13222217Y9315849D01*
X13225721Y9310873D01*
X13647276Y8679970D01*
X13663394Y8655849D01*
X13666642Y8650720D01*
X13777587Y8465619D01*
X14071658Y7974991D01*
X14074658Y7969695D01*
X14446014Y7274935D01*
X14448751Y7269499D01*
X14785587Y6557322D01*
X14788053Y6551758D01*
X15089531Y5823924D01*
X15091721Y5818245D01*
X15253618Y5365774D01*
X15257670Y5296022D01*
X15223367Y5235153D01*
X15161601Y5202492D01*
X15136867Y5200000D01*
X14950000Y5200000D01*
X14950000Y3124000D01*
X14930315Y3056961D01*
X14877511Y3011206D01*
X14826000Y3000000D01*
X14274000Y3000000D01*
X14206961Y3019685D01*
X14161206Y3072489D01*
X14150000Y3124000D01*
X14150000Y4100000D01*
X11750000Y4100000D01*
X11750000Y-4100000D01*
X14150000Y-4100000D01*
X14150000Y-3124000D01*
X14169685Y-3056961D01*
X14222489Y-3011206D01*
X14274000Y-3000000D01*
X14826000Y-3000000D01*
X14893039Y-3019685D01*
X14938794Y-3072489D01*
X14950000Y-3124000D01*
X14950000Y-5200000D01*
X15136867Y-5200000D01*
X15203906Y-5219685D01*
X15249661Y-5272489D01*
X15259605Y-5341647D01*
X15253618Y-5365774D01*
X15091721Y-5818244D01*
X15089531Y-5823923D01*
X14788053Y-6551757D01*
X14785587Y-6557321D01*
X14448751Y-7269498D01*
X14446014Y-7274934D01*
X14074658Y-7969694D01*
X14071658Y-7974990D01*
X13666650Y-8650706D01*
X13663394Y-8655848D01*
X13225721Y-9310872D01*
X13222217Y-9315848D01*
X12752916Y-9948625D01*
X12749171Y-9953423D01*
X12249403Y-10562392D01*
X12245428Y-10567000D01*
X11716375Y-11150721D01*
X11712178Y-11155129D01*
X11155129Y-11712178D01*
X11150721Y-11716375D01*
X10567000Y-12245428D01*
X10562392Y-12249403D01*
X9953423Y-12749171D01*
X9948625Y-12752916D01*
X9315848Y-13222217D01*
X9310872Y-13225721D01*
X8655848Y-13663394D01*
X8650706Y-13666650D01*
X7974990Y-14071658D01*
X7969694Y-14074658D01*
X7274934Y-14446014D01*
X7269498Y-14448751D01*
X6557321Y-14785587D01*
X6551757Y-14788053D01*
X5823923Y-15089531D01*
X5818244Y-15091721D01*
X5076527Y-15357112D01*
X5070748Y-15359022D01*
X4316856Y-15587712D01*
X4310991Y-15589335D01*
X3546793Y-15780757D01*
X3540854Y-15782090D01*
X2768220Y-15935776D01*
X2762224Y-15936817D01*
X1982940Y-16052413D01*
X1976899Y-16053158D01*
X1192905Y-16130375D01*
X1186836Y-16130823D01*
X399975Y-16169480D01*
X393890Y-16169629D01*
X-393890Y-16169629D01*
X-399975Y-16169480D01*
X-1186837Y-16130823D01*
X-1192906Y-16130375D01*
X-1976900Y-16053158D01*
X-1982941Y-16052413D01*
X-2762225Y-15936817D01*
X-2768221Y-15935776D01*
X-3540855Y-15782090D01*
X-3546794Y-15780757D01*
X-4310992Y-15589335D01*
X-4316857Y-15587712D01*
X-5070749Y-15359022D01*
X-5076528Y-15357112D01*
X-5247612Y-15295897D01*
X-5551195Y-15187273D01*
X-1670500Y-15187273D01*
X-1670500Y-15292727D01*
X-1643207Y-15394587D01*
X-1590480Y-15485913D01*
X-1515913Y-15560480D01*
X-1424587Y-15613207D01*
X-1322727Y-15640500D01*
X-1322725Y-15640500D01*
X-1217275Y-15640500D01*
X-1217273Y-15640500D01*
X-1115413Y-15613207D01*
X-1024087Y-15560480D01*
X-949520Y-15485913D01*
X-896793Y-15394587D01*
X-869500Y-15292727D01*
X-869500Y-15187273D01*
X361500Y-15187273D01*
X361500Y-15292727D01*
X388793Y-15394587D01*
X441520Y-15485913D01*
X516087Y-15560480D01*
X607413Y-15613207D01*
X709273Y-15640500D01*
X709275Y-15640500D01*
X814725Y-15640500D01*
X814727Y-15640500D01*
X916587Y-15613207D01*
X1007913Y-15560480D01*
X1082480Y-15485913D01*
X1135207Y-15394587D01*
X1162500Y-15292727D01*
X1162500Y-15187273D01*
X1135207Y-15085413D01*
X1082480Y-14994087D01*
X1007913Y-14919520D01*
X916587Y-14866793D01*
X814727Y-14839500D01*
X709273Y-14839500D01*
X607413Y-14866793D01*
X607410Y-14866794D01*
X516085Y-14919521D01*
X441521Y-14994085D01*
X388794Y-15085410D01*
X388793Y-15085413D01*
X361500Y-15187273D01*
X-869500Y-15187273D01*
X-896793Y-15085413D01*
X-949520Y-14994087D01*
X-1024087Y-14919520D01*
X-1115413Y-14866793D01*
X-1217273Y-14839500D01*
X-1322727Y-14839500D01*
X-1424587Y-14866793D01*
X-1424590Y-14866794D01*
X-1515915Y-14919521D01*
X-1590479Y-14994085D01*
X-1643206Y-15085410D01*
X-1643207Y-15085413D01*
X-1670500Y-15187273D01*
X-5551195Y-15187273D01*
X-5818245Y-15091721D01*
X-5823924Y-15089531D01*
X-6551758Y-14788053D01*
X-6557322Y-14785587D01*
X-7269499Y-14448751D01*
X-7274935Y-14446014D01*
X-7969695Y-14074658D01*
X-7974991Y-14071658D01*
X-8292546Y-13881323D01*
X-8650720Y-13666642D01*
X-8655836Y-13663402D01*
X-9036168Y-13409273D01*
X6203500Y-13409273D01*
X6203500Y-13514727D01*
X6230793Y-13616587D01*
X6283520Y-13707913D01*
X6358087Y-13782480D01*
X6449413Y-13835207D01*
X6551273Y-13862500D01*
X6551275Y-13862500D01*
X6656725Y-13862500D01*
X6656727Y-13862500D01*
X6758587Y-13835207D01*
X6849913Y-13782480D01*
X6924480Y-13707913D01*
X6977207Y-13616587D01*
X7004500Y-13514727D01*
X7004500Y-13409273D01*
X6977207Y-13307413D01*
X6924480Y-13216087D01*
X6849913Y-13141520D01*
X6758587Y-13088793D01*
X6656727Y-13061500D01*
X6551273Y-13061500D01*
X6449413Y-13088793D01*
X6449410Y-13088794D01*
X6358085Y-13141521D01*
X6283521Y-13216085D01*
X6230794Y-13307410D01*
X6230793Y-13307413D01*
X6203500Y-13409273D01*
X-9036168Y-13409273D01*
X-9310873Y-13225721D01*
X-9315849Y-13222217D01*
X-9948626Y-12752916D01*
X-9953424Y-12749171D01*
X-10562393Y-12249403D01*
X-10567001Y-12245428D01*
X-10749441Y-12080074D01*
X-10841846Y-11996323D01*
X-8241842Y-11996323D01*
X-8241842Y-12147854D01*
X-8202623Y-12294225D01*
X-8177027Y-12338558D01*
X-8126857Y-12425454D01*
X-8019707Y-12532604D01*
X-7888477Y-12608370D01*
X-7742108Y-12647589D01*
X-7742106Y-12647589D01*
X-7590578Y-12647589D01*
X-7590576Y-12647589D01*
X-7444207Y-12608370D01*
X-7312977Y-12532604D01*
X-7205827Y-12425454D01*
X-7130061Y-12294224D01*
X-7090842Y-12147855D01*
X-7090842Y-11996323D01*
X-7130061Y-11849954D01*
X-7205827Y-11718724D01*
X-7312977Y-11611574D01*
X-7379200Y-11573340D01*
X-7444206Y-11535808D01*
X-7535804Y-11511265D01*
X-7590576Y-11496589D01*
X-7742108Y-11496589D01*
X-7888479Y-11535808D01*
X-8019707Y-11611574D01*
X-8019710Y-11611576D01*
X-8126855Y-11718721D01*
X-8126857Y-11718724D01*
X-8202623Y-11849952D01*
X-8241842Y-11996323D01*
X-10841846Y-11996323D01*
X-11150722Y-11716375D01*
X-11155130Y-11712178D01*
X-11712179Y-11155129D01*
X-11716376Y-11150721D01*
X-12245429Y-10567000D01*
X-12249404Y-10562392D01*
X-12749172Y-9953423D01*
X-12752917Y-9948625D01*
X-13104784Y-9474189D01*
X-13222221Y-9315844D01*
X-13225722Y-9310872D01*
X-13663410Y-8655824D01*
X-13666636Y-8650730D01*
X-14071663Y-7974984D01*
X-14074659Y-7969694D01*
X-14080253Y-7959229D01*
X-14446016Y-7274932D01*
X-14448752Y-7269498D01*
X-14785593Y-6557311D01*
X-14788054Y-6551757D01*
X-14790757Y-6545232D01*
X-15089535Y-5823915D01*
X-15091722Y-5818244D01*
X-15103329Y-5785806D01*
X-15357116Y-5076519D01*
X-15359023Y-5070748D01*
X-15362706Y-5058608D01*
X-15587714Y-4316854D01*
X-15589336Y-4310991D01*
X-15593588Y-4294016D01*
X-15767461Y-3599875D01*
X-14014900Y-3599875D01*
X-14014900Y-3705329D01*
X-13988910Y-3802324D01*
X-13987607Y-3807188D01*
X-13987606Y-3807191D01*
X-13984720Y-3812189D01*
X-13934880Y-3898515D01*
X-13860313Y-3973082D01*
X-13768987Y-4025809D01*
X-13667127Y-4053102D01*
X-13667125Y-4053102D01*
X-13561675Y-4053102D01*
X-13561673Y-4053102D01*
X-13459813Y-4025809D01*
X-13368487Y-3973082D01*
X-13293920Y-3898515D01*
X-13241193Y-3807189D01*
X-13213900Y-3705329D01*
X-13213900Y-3599875D01*
X-13241193Y-3498015D01*
X-13293920Y-3406689D01*
X-13368487Y-3332122D01*
X-13459813Y-3279395D01*
X-13561673Y-3252102D01*
X-13667127Y-3252102D01*
X-13768987Y-3279395D01*
X-13768990Y-3279396D01*
X-13860315Y-3332123D01*
X-13934879Y-3406687D01*
X-13987606Y-3498012D01*
X-13987607Y-3498015D01*
X-14014900Y-3599875D01*
X-15767461Y-3599875D01*
X-15780762Y-3546776D01*
X-15782091Y-3540854D01*
X-15784845Y-3527011D01*
X-15935778Y-2768214D01*
X-15936818Y-2762224D01*
X-15940839Y-2735114D01*
X-16052416Y-1982926D01*
X-16053159Y-1976899D01*
X-16130379Y-1192867D01*
X-16130823Y-1186842D01*
X-16130823Y-1186836D01*
X-16131037Y-1182473D01*
X-15386500Y-1182473D01*
X-15386500Y-1287927D01*
X-15359207Y-1389787D01*
X-15306480Y-1481113D01*
X-15231913Y-1555680D01*
X-15140587Y-1608407D01*
X-15038727Y-1635700D01*
X-15038725Y-1635700D01*
X-14933275Y-1635700D01*
X-14933273Y-1635700D01*
X-14831413Y-1608407D01*
X-14740087Y-1555680D01*
X-14706426Y-1522019D01*
X-14679499Y-1507315D01*
X-14653680Y-1490723D01*
X-14647480Y-1489831D01*
X-14645103Y-1488534D01*
X-14618745Y-1485700D01*
X-14606123Y-1485700D01*
X-14539084Y-1505385D01*
X-14518442Y-1522019D01*
X-13866435Y-2174025D01*
X-13866432Y-2174029D01*
X-13859364Y-2181097D01*
X-13788897Y-2251564D01*
X-13788892Y-2251566D01*
X-13779048Y-2255644D01*
X-13779047Y-2255644D01*
X-13696827Y-2289701D01*
X-13696826Y-2289701D01*
X-13582738Y-2289701D01*
X-13582730Y-2289700D01*
X-12968572Y-2289700D01*
X-12901533Y-2309385D01*
X-12855778Y-2362189D01*
X-12845633Y-2429884D01*
X-12846500Y-2436470D01*
X-12846500Y-2436473D01*
X-12846500Y-2541927D01*
X-12819207Y-2643787D01*
X-12766480Y-2735113D01*
X-12691913Y-2809680D01*
X-12600587Y-2862407D01*
X-12498727Y-2889700D01*
X-12451123Y-2889700D01*
X-12384084Y-2909385D01*
X-12363442Y-2926019D01*
X-12149061Y-3140399D01*
X-11944963Y-3344497D01*
X-11944962Y-3344499D01*
X-11874495Y-3414966D01*
X-11864647Y-3419045D01*
X-11782426Y-3453103D01*
X-11782425Y-3453103D01*
X-11775845Y-3454412D01*
X-11713932Y-3486794D01*
X-11679356Y-3547508D01*
X-11677092Y-3592213D01*
X-11678100Y-3599870D01*
X-11678100Y-3599875D01*
X-11678100Y-3705329D01*
X-11652110Y-3802324D01*
X-11650807Y-3807188D01*
X-11650806Y-3807191D01*
X-11647920Y-3812189D01*
X-11598080Y-3898515D01*
X-11523513Y-3973082D01*
X-11432187Y-4025809D01*
X-11330327Y-4053102D01*
X-11330325Y-4053102D01*
X-11325147Y-4053102D01*
X-11258108Y-4072787D01*
X-11212353Y-4125591D01*
X-11202409Y-4194749D01*
X-11205371Y-4209186D01*
X-11228100Y-4294016D01*
X-11228100Y-4399470D01*
X-11201772Y-4497726D01*
X-11200807Y-4501329D01*
X-11200806Y-4501332D01*
X-11188224Y-4523125D01*
X-11148080Y-4592656D01*
X-11073513Y-4667223D01*
X-10982187Y-4719950D01*
X-10880327Y-4747243D01*
X-10880325Y-4747243D01*
X-10774875Y-4747243D01*
X-10774873Y-4747243D01*
X-10673013Y-4719950D01*
X-10581687Y-4667223D01*
X-10548026Y-4633562D01*
X-10521099Y-4618858D01*
X-10495280Y-4602266D01*
X-10489080Y-4601374D01*
X-10486703Y-4600077D01*
X-10460345Y-4597243D01*
X-10442780Y-4597243D01*
X-10375741Y-4616928D01*
X-10329986Y-4669732D01*
X-10320042Y-4738890D01*
X-10328217Y-4768692D01*
X-10330007Y-4773013D01*
X-10357300Y-4874873D01*
X-10357300Y-4980327D01*
X-10331523Y-5076527D01*
X-10330007Y-5082186D01*
X-10330006Y-5082189D01*
X-10329250Y-5083499D01*
X-10277280Y-5173513D01*
X-10202713Y-5248080D01*
X-10111387Y-5300807D01*
X-10009527Y-5328100D01*
X-10009525Y-5328100D01*
X-9904075Y-5328100D01*
X-9904073Y-5328100D01*
X-9802213Y-5300807D01*
X-9710887Y-5248080D01*
X-9636320Y-5173513D01*
X-9583593Y-5082187D01*
X-9556300Y-4980327D01*
X-9556300Y-4874873D01*
X-9583593Y-4773013D01*
X-9583597Y-4773006D01*
X-9585383Y-4768692D01*
X-9592849Y-4699222D01*
X-9561572Y-4636744D01*
X-9501482Y-4601094D01*
X-9470820Y-4597243D01*
X-6493014Y-4597243D01*
X-6493012Y-4597243D01*
X-6400943Y-4559107D01*
X-6047456Y-4205618D01*
X-5986133Y-4172134D01*
X-5959775Y-4169300D01*
X-5573220Y-4169300D01*
X-5506181Y-4188985D01*
X-5485539Y-4205619D01*
X-4819339Y-4871819D01*
X-4785854Y-4933142D01*
X-4790838Y-5002834D01*
X-4832710Y-5058767D01*
X-4898174Y-5083184D01*
X-4907020Y-5083500D01*
X-6592345Y-5083500D01*
X-6659384Y-5063815D01*
X-6680026Y-5047181D01*
X-6713686Y-5013521D01*
X-6713687Y-5013520D01*
X-6805013Y-4960793D01*
X-6906873Y-4933500D01*
X-7012327Y-4933500D01*
X-7114187Y-4960793D01*
X-7114190Y-4960794D01*
X-7205515Y-5013521D01*
X-7280079Y-5088085D01*
X-7332806Y-5179410D01*
X-7332807Y-5179413D01*
X-7360100Y-5281273D01*
X-7360100Y-5386727D01*
X-7332807Y-5488587D01*
X-7280080Y-5579913D01*
X-7205513Y-5654480D01*
X-7114187Y-5707207D01*
X-7012327Y-5734500D01*
X-7012325Y-5734500D01*
X-6906875Y-5734500D01*
X-6906873Y-5734500D01*
X-6805013Y-5707207D01*
X-6713687Y-5654480D01*
X-6680026Y-5620819D01*
X-6618703Y-5587334D01*
X-6592345Y-5584500D01*
X-5965482Y-5584500D01*
X-5898443Y-5604185D01*
X-5852688Y-5656989D01*
X-5841835Y-5699149D01*
X-5840288Y-5719617D01*
X-5843410Y-5731273D01*
X-5843410Y-5836727D01*
X-5826721Y-5899013D01*
X-5825847Y-5910565D01*
X-5830816Y-5933860D01*
X-5831382Y-5957673D01*
X-5837970Y-5967405D01*
X-5840420Y-5978898D01*
X-5857193Y-5995808D01*
X-5870545Y-6015536D01*
X-5881350Y-6020162D01*
X-5889624Y-6028505D01*
X-5912878Y-6033662D01*
X-5934774Y-6043039D01*
X-5949494Y-6043916D01*
X-10009661Y-6043916D01*
X-10076700Y-6024231D01*
X-10097342Y-6007597D01*
X-10383581Y-5721358D01*
X-10417066Y-5660035D01*
X-10419900Y-5633677D01*
X-10419900Y-5586075D01*
X-10419900Y-5586073D01*
X-10447193Y-5484213D01*
X-10499920Y-5392887D01*
X-10574487Y-5318320D01*
X-10665813Y-5265593D01*
X-10767673Y-5238300D01*
X-10873127Y-5238300D01*
X-10974987Y-5265593D01*
X-10974990Y-5265594D01*
X-11066315Y-5318321D01*
X-11140879Y-5392885D01*
X-11193606Y-5484210D01*
X-11193607Y-5484213D01*
X-11220900Y-5586073D01*
X-11220900Y-5691527D01*
X-11193607Y-5793387D01*
X-11140880Y-5884713D01*
X-11066313Y-5959280D01*
X-10974987Y-6012007D01*
X-10873127Y-6039300D01*
X-10825523Y-6039300D01*
X-10758484Y-6058985D01*
X-10737842Y-6075619D01*
X-10306681Y-6506780D01*
X-10214612Y-6544916D01*
X-10114956Y-6544916D01*
X-5471339Y-6544916D01*
X-5404300Y-6564601D01*
X-5358545Y-6617405D01*
X-5348601Y-6686563D01*
X-5377626Y-6750119D01*
X-5383658Y-6756597D01*
X-5807842Y-7180781D01*
X-5869165Y-7214266D01*
X-5895523Y-7217100D01*
X-8014745Y-7217100D01*
X-8081784Y-7197415D01*
X-8102426Y-7180781D01*
X-8136086Y-7147121D01*
X-8136087Y-7147120D01*
X-8202941Y-7108522D01*
X-8227411Y-7094394D01*
X-8227412Y-7094393D01*
X-8227413Y-7094393D01*
X-8329273Y-7067100D01*
X-8434727Y-7067100D01*
X-8536587Y-7094393D01*
X-8536590Y-7094394D01*
X-8627915Y-7147121D01*
X-8702479Y-7221685D01*
X-8755206Y-7313010D01*
X-8755207Y-7313013D01*
X-8782500Y-7414873D01*
X-8782500Y-7520327D01*
X-8768818Y-7571387D01*
X-8755207Y-7622186D01*
X-8755206Y-7622189D01*
X-8751179Y-7629164D01*
X-8702480Y-7713513D01*
X-8627913Y-7788080D01*
X-8536587Y-7840807D01*
X-8434727Y-7868100D01*
X-8434725Y-7868100D01*
X-8329275Y-7868100D01*
X-8329273Y-7868100D01*
X-8227413Y-7840807D01*
X-8136087Y-7788080D01*
X-8102426Y-7754419D01*
X-8041103Y-7720934D01*
X-8014745Y-7718100D01*
X-5690574Y-7718100D01*
X-5690572Y-7718100D01*
X-5598503Y-7679964D01*
X-5130665Y-7212125D01*
X-5069344Y-7178642D01*
X-4999653Y-7183626D01*
X-4980990Y-7192419D01*
X-4923938Y-7225358D01*
X-4822078Y-7252651D01*
X-4822076Y-7252651D01*
X-4716626Y-7252651D01*
X-4716624Y-7252651D01*
X-4614764Y-7225358D01*
X-4565131Y-7196702D01*
X-4497234Y-7180230D01*
X-4431207Y-7203082D01*
X-4415452Y-7216409D01*
X-3495769Y-8136092D01*
X-3462284Y-8197415D01*
X-3467268Y-8267107D01*
X-3509140Y-8323040D01*
X-3574604Y-8347457D01*
X-3583450Y-8347773D01*
X-8113957Y-8347773D01*
X-8206025Y-8385909D01*
X-8893350Y-9073234D01*
X-8931486Y-9165302D01*
X-8931486Y-9500192D01*
X-8951171Y-9567231D01*
X-8967805Y-9587873D01*
X-9001465Y-9621532D01*
X-9054192Y-9712857D01*
X-9054193Y-9712860D01*
X-9081486Y-9814720D01*
X-9081486Y-9920176D01*
X-9080619Y-9926763D01*
X-9091385Y-9995798D01*
X-9137766Y-10048054D01*
X-9203558Y-10066947D01*
X-10625089Y-10066947D01*
X-10692128Y-10047262D01*
X-10737883Y-9994458D01*
X-10747827Y-9925300D01*
X-10718802Y-9861744D01*
X-10660024Y-9823970D01*
X-10657215Y-9823181D01*
X-10653523Y-9822192D01*
X-10522293Y-9746426D01*
X-10415143Y-9639276D01*
X-10339377Y-9508046D01*
X-10300158Y-9361677D01*
X-10300158Y-9210145D01*
X-10339377Y-9063776D01*
X-10415143Y-8932546D01*
X-10522293Y-8825396D01*
X-10591363Y-8785518D01*
X-10653522Y-8749630D01*
X-10752144Y-8723205D01*
X-10799892Y-8710411D01*
X-10951424Y-8710411D01*
X-11097795Y-8749630D01*
X-11229023Y-8825396D01*
X-11229026Y-8825398D01*
X-11336171Y-8932543D01*
X-11336173Y-8932546D01*
X-11411939Y-9063776D01*
X-11435329Y-9151068D01*
X-11445113Y-9187584D01*
X-11481478Y-9247244D01*
X-11544325Y-9277773D01*
X-11613701Y-9269478D01*
X-11652569Y-9243171D01*
X-12479540Y-8416200D01*
X-12513025Y-8354877D01*
X-12508041Y-8285185D01*
X-12499251Y-8266528D01*
X-12479193Y-8231787D01*
X-12451900Y-8129927D01*
X-12451900Y-8024473D01*
X-12479193Y-7922613D01*
X-12531920Y-7831287D01*
X-12606487Y-7756720D01*
X-12689279Y-7708920D01*
X-12697811Y-7703994D01*
X-12697812Y-7703993D01*
X-12697813Y-7703993D01*
X-12799673Y-7676700D01*
X-12905127Y-7676700D01*
X-13006987Y-7703993D01*
X-13006990Y-7703994D01*
X-13098315Y-7756721D01*
X-13172879Y-7831285D01*
X-13225606Y-7922610D01*
X-13225607Y-7922613D01*
X-13252900Y-8024473D01*
X-13252900Y-8129927D01*
X-13225607Y-8231787D01*
X-13187798Y-8297275D01*
X-13172879Y-8323114D01*
X-13139219Y-8356774D01*
X-13105734Y-8418097D01*
X-13102900Y-8444455D01*
X-13102900Y-8447429D01*
X-13095605Y-8465040D01*
X-13064764Y-8539497D01*
X-11144918Y-10459342D01*
X-11144917Y-10459344D01*
X-11074450Y-10529811D01*
X-11036313Y-10545607D01*
X-10982380Y-10567948D01*
X-10982379Y-10567948D01*
X-10868291Y-10567948D01*
X-10868283Y-10567947D01*
X-3225255Y-10567947D01*
X-3158216Y-10587632D01*
X-3137574Y-10604266D01*
X-3103913Y-10637927D01*
X-3012587Y-10690654D01*
X-2910727Y-10717947D01*
X-2910725Y-10717947D01*
X-2805275Y-10717947D01*
X-2805273Y-10717947D01*
X-2703413Y-10690654D01*
X-2612087Y-10637927D01*
X-2537520Y-10563360D01*
X-2484793Y-10472034D01*
X-2457500Y-10370174D01*
X-2457500Y-10264720D01*
X-2484793Y-10162860D01*
X-2537520Y-10071534D01*
X-2612087Y-9996967D01*
X-2678941Y-9958369D01*
X-2703411Y-9944241D01*
X-2703412Y-9944240D01*
X-2703413Y-9944240D01*
X-2805273Y-9916947D01*
X-2910727Y-9916947D01*
X-3012587Y-9944240D01*
X-3012590Y-9944241D01*
X-3103915Y-9996968D01*
X-3137574Y-10030628D01*
X-3198897Y-10064113D01*
X-3225255Y-10066947D01*
X-6218469Y-10066947D01*
X-6285508Y-10047262D01*
X-6331263Y-9994458D01*
X-6341207Y-9925300D01*
X-6312182Y-9861744D01*
X-6253404Y-9823970D01*
X-6250607Y-9823184D01*
X-6246213Y-9822007D01*
X-6154887Y-9769280D01*
X-6080320Y-9694713D01*
X-6027593Y-9603387D01*
X-6000300Y-9501527D01*
X-6000300Y-9501525D01*
X-5998197Y-9493677D01*
X-5994700Y-9494614D01*
X-5973328Y-9445905D01*
X-5915120Y-9407258D01*
X-5878413Y-9401700D01*
X-928972Y-9401700D01*
X-861933Y-9421385D01*
X-816178Y-9474189D01*
X-806033Y-9541884D01*
X-806900Y-9548470D01*
X-806900Y-9548473D01*
X-806900Y-9653927D01*
X-780228Y-9753467D01*
X-779607Y-9755786D01*
X-779606Y-9755789D01*
X-771818Y-9769278D01*
X-726880Y-9847113D01*
X-652313Y-9921680D01*
X-560987Y-9974407D01*
X-459127Y-10001700D01*
X-411523Y-10001700D01*
X-344484Y-10021385D01*
X-323842Y-10038019D01*
X-199897Y-10161964D01*
X-107828Y-10200100D01*
X-8172Y-10200100D01*
X2707772Y-10200100D01*
X2781763Y-10200100D01*
X2813855Y-10204325D01*
X2824819Y-10207262D01*
X2842873Y-10212100D01*
X2842875Y-10212100D01*
X2948324Y-10212100D01*
X2948327Y-10212100D01*
X2999930Y-10198273D01*
X3069777Y-10199936D01*
X3092252Y-10209659D01*
X3107428Y-10218092D01*
X3151700Y-10262364D01*
X3243769Y-10300500D01*
X3255725Y-10300500D01*
X3279373Y-10313641D01*
X3290804Y-10325243D01*
X3305238Y-10332792D01*
X3314821Y-10349618D01*
X3328411Y-10363411D01*
X3331755Y-10379351D01*
X3339816Y-10393505D01*
X3338781Y-10412840D01*
X3342757Y-10431792D01*
X3336952Y-10447009D01*
X3336082Y-10463275D01*
X3326530Y-10484029D01*
X3284393Y-10557012D01*
X3284393Y-10557013D01*
X3257100Y-10658873D01*
X3257100Y-10764329D01*
X3257967Y-10770916D01*
X3247201Y-10839951D01*
X3200820Y-10892207D01*
X3135028Y-10911100D01*
X74790Y-10911100D01*
X7751Y-10891415D01*
X-32597Y-10849100D01*
X-39064Y-10837899D01*
X-87149Y-10754613D01*
X-161716Y-10680046D01*
X-253042Y-10627319D01*
X-354902Y-10600026D01*
X-460356Y-10600026D01*
X-562216Y-10627319D01*
X-562219Y-10627320D01*
X-653544Y-10680047D01*
X-728108Y-10754611D01*
X-780835Y-10845936D01*
X-780836Y-10845939D01*
X-808129Y-10947799D01*
X-808129Y-11053253D01*
X-780836Y-11155113D01*
X-728109Y-11246439D01*
X-653542Y-11321006D01*
X-562216Y-11373733D01*
X-460356Y-11401026D01*
X-460354Y-11401026D01*
X-347783Y-11401026D01*
X-327754Y-11402654D01*
X-313591Y-11404972D01*
X-296383Y-11412100D01*
X-270041Y-11412100D01*
X-260094Y-11413728D01*
X-237321Y-11424668D01*
X-213084Y-11431785D01*
X-206365Y-11439539D01*
X-197115Y-11443983D01*
X-183872Y-11465498D01*
X-167329Y-11484589D01*
X-165869Y-11494744D01*
X-160489Y-11503484D01*
X-160981Y-11528744D01*
X-157385Y-11553747D01*
X-161648Y-11563080D01*
X-161847Y-11573340D01*
X-175915Y-11594321D01*
X-186410Y-11617303D01*
X-192442Y-11623781D01*
X-323842Y-11755181D01*
X-385165Y-11788666D01*
X-411523Y-11791500D01*
X-459127Y-11791500D01*
X-560987Y-11818793D01*
X-560990Y-11818794D01*
X-652315Y-11871521D01*
X-726879Y-11946085D01*
X-779606Y-12037410D01*
X-779607Y-12037413D01*
X-806900Y-12139273D01*
X-806900Y-12244727D01*
X-779607Y-12346587D01*
X-726880Y-12437913D01*
X-652313Y-12512480D01*
X-560987Y-12565207D01*
X-459127Y-12592500D01*
X-459125Y-12592500D01*
X-353675Y-12592500D01*
X-353673Y-12592500D01*
X-251813Y-12565207D01*
X-160487Y-12512480D01*
X-85920Y-12437913D01*
X-33193Y-12346587D01*
X-5900Y-12244727D01*
X-5900Y-12197122D01*
X13785Y-12130083D01*
X30419Y-12109441D01*
X321441Y-11818419D01*
X382764Y-11784934D01*
X409122Y-11782100D01*
X6163424Y-11782100D01*
X6230463Y-11801785D01*
X6276218Y-11854589D01*
X6286162Y-11923747D01*
X6270811Y-11968100D01*
X6230794Y-12037410D01*
X6230793Y-12037413D01*
X6203500Y-12139273D01*
X6203500Y-12244727D01*
X6230793Y-12346587D01*
X6283520Y-12437913D01*
X6358087Y-12512480D01*
X6449413Y-12565207D01*
X6551273Y-12592500D01*
X6551275Y-12592500D01*
X6656725Y-12592500D01*
X6656727Y-12592500D01*
X6758587Y-12565207D01*
X6849913Y-12512480D01*
X6924480Y-12437913D01*
X6961365Y-12374026D01*
X7011928Y-12325814D01*
X7080535Y-12312590D01*
X7145400Y-12338558D01*
X7176136Y-12374028D01*
X7205827Y-12425454D01*
X7312977Y-12532604D01*
X7444207Y-12608370D01*
X7590576Y-12647589D01*
X7590578Y-12647589D01*
X7742106Y-12647589D01*
X7742108Y-12647589D01*
X7888477Y-12608370D01*
X8019707Y-12532604D01*
X8126857Y-12425454D01*
X8202623Y-12294224D01*
X8241842Y-12147855D01*
X8241842Y-11996323D01*
X8202623Y-11849954D01*
X8126857Y-11718724D01*
X8019707Y-11611574D01*
X7953484Y-11573340D01*
X7888478Y-11535808D01*
X7796880Y-11511265D01*
X7742108Y-11496589D01*
X7590576Y-11496589D01*
X7444207Y-11535808D01*
X7444205Y-11535808D01*
X7436356Y-11537912D01*
X7435887Y-11536162D01*
X7376497Y-11542543D01*
X7314020Y-11511265D01*
X7287777Y-11476298D01*
X7282045Y-11464918D01*
X7274807Y-11437905D01*
X7224876Y-11351422D01*
X7223290Y-11348273D01*
X7217613Y-11317253D01*
X7210174Y-11286590D01*
X7211299Y-11282755D01*
X7210712Y-11279544D01*
X7216063Y-11266531D01*
X7226645Y-11230494D01*
X7274807Y-11147076D01*
X7302100Y-11045216D01*
X7302100Y-10939762D01*
X7274807Y-10837902D01*
X7222080Y-10746576D01*
X7147513Y-10672009D01*
X7056187Y-10619282D01*
X6954327Y-10591989D01*
X6848873Y-10591989D01*
X6747013Y-10619282D01*
X6747010Y-10619283D01*
X6655685Y-10672010D01*
X6581121Y-10746574D01*
X6524750Y-10844212D01*
X6505044Y-10869893D01*
X6500156Y-10874781D01*
X6438833Y-10908266D01*
X6412475Y-10911100D01*
X4180172Y-10911100D01*
X4113133Y-10891415D01*
X4067378Y-10838611D01*
X4057233Y-10770916D01*
X4058100Y-10764329D01*
X4058100Y-10658875D01*
X4058100Y-10658873D01*
X4030807Y-10557013D01*
X3990095Y-10486498D01*
X3973623Y-10418600D01*
X3996475Y-10352573D01*
X4051396Y-10309383D01*
X4097483Y-10300500D01*
X7940085Y-10300500D01*
X8007124Y-10320185D01*
X8027765Y-10336817D01*
X8275160Y-10584211D01*
X8275167Y-10584219D01*
X8282225Y-10591277D01*
X8352692Y-10661744D01*
X8444761Y-10699880D01*
X8444763Y-10699880D01*
X8917209Y-10699880D01*
X8917211Y-10699880D01*
X9009280Y-10661744D01*
X9272881Y-10398141D01*
X9272883Y-10398141D01*
X9334207Y-10336817D01*
X9395531Y-10303333D01*
X9395535Y-10303333D01*
X9421887Y-10300500D01*
X9599826Y-10300500D01*
X9599828Y-10300500D01*
X9691897Y-10262364D01*
X9762364Y-10191897D01*
X9800500Y-10099828D01*
X9800500Y-8765708D01*
X9820185Y-8698669D01*
X9872989Y-8652914D01*
X9942147Y-8642970D01*
X9999989Y-8667334D01*
X10004081Y-8670474D01*
X10004087Y-8670480D01*
X10095413Y-8723207D01*
X10197273Y-8750500D01*
X10197275Y-8750500D01*
X10305473Y-8750500D01*
X10372512Y-8770185D01*
X10418267Y-8822989D01*
X10428211Y-8892147D01*
X10412860Y-8936500D01*
X10339378Y-9063772D01*
X10339378Y-9063773D01*
X10339378Y-9063774D01*
X10339377Y-9063776D01*
X10300158Y-9210145D01*
X10300158Y-9361677D01*
X10308406Y-9392458D01*
X10339377Y-9508047D01*
X10364496Y-9551554D01*
X10415143Y-9639276D01*
X10522293Y-9746426D01*
X10635939Y-9812040D01*
X10653202Y-9822007D01*
X10653523Y-9822192D01*
X10799892Y-9861411D01*
X10799894Y-9861411D01*
X10951422Y-9861411D01*
X10951424Y-9861411D01*
X11097793Y-9822192D01*
X11229023Y-9746426D01*
X11336173Y-9639276D01*
X11411939Y-9508046D01*
X11451158Y-9361677D01*
X11451158Y-9210145D01*
X11411939Y-9063776D01*
X11336173Y-8932546D01*
X11229023Y-8825396D01*
X11159953Y-8785518D01*
X11097794Y-8749630D01*
X10999172Y-8723205D01*
X10951424Y-8710411D01*
X10799892Y-8710411D01*
X10739451Y-8726606D01*
X10669601Y-8724943D01*
X10611739Y-8685780D01*
X10584235Y-8621551D01*
X10595822Y-8552649D01*
X10599957Y-8544857D01*
X10623207Y-8504587D01*
X10650500Y-8402727D01*
X10650500Y-8297273D01*
X10623207Y-8195413D01*
X10570480Y-8104087D01*
X10495913Y-8029520D01*
X10404587Y-7976793D01*
X10302727Y-7949500D01*
X10197273Y-7949500D01*
X10095413Y-7976793D01*
X10095410Y-7976794D01*
X10004085Y-8029521D01*
X9970426Y-8063181D01*
X9909103Y-8096666D01*
X9882745Y-8099500D01*
X9586973Y-8099500D01*
X9494905Y-8137636D01*
X9337636Y-8294905D01*
X9299500Y-8386973D01*
X9299500Y-9675500D01*
X9296949Y-9684185D01*
X9298238Y-9693147D01*
X9287259Y-9717187D01*
X9279815Y-9742539D01*
X9272974Y-9748466D01*
X9269213Y-9756703D01*
X9246978Y-9770992D01*
X9227011Y-9788294D01*
X9216496Y-9790581D01*
X9210435Y-9794477D01*
X9175500Y-9799500D01*
X9097938Y-9799500D01*
X9030899Y-9779815D01*
X9007832Y-9758594D01*
X9007213Y-9759214D01*
X8926900Y-9678901D01*
X8926899Y-9678900D01*
X8835573Y-9626173D01*
X8733713Y-9598880D01*
X8733712Y-9598880D01*
X8686109Y-9598880D01*
X8619070Y-9579195D01*
X8598428Y-9562561D01*
X8096321Y-9060454D01*
X8062836Y-8999131D01*
X8067820Y-8929439D01*
X8109692Y-8873506D01*
X8175156Y-8849089D01*
X8184002Y-8848773D01*
X8383795Y-8848773D01*
X8383797Y-8848773D01*
X8447825Y-8822251D01*
X8495277Y-8812813D01*
X8572654Y-8812813D01*
X8572656Y-8812813D01*
X8674516Y-8785520D01*
X8765842Y-8732793D01*
X8840409Y-8658226D01*
X8893136Y-8566900D01*
X8920429Y-8465040D01*
X8920429Y-8359586D01*
X8893136Y-8257726D01*
X8840409Y-8166400D01*
X8765842Y-8091833D01*
X8674516Y-8039106D01*
X8572656Y-8011813D01*
X8467202Y-8011813D01*
X8365342Y-8039106D01*
X8365339Y-8039107D01*
X8274014Y-8091834D01*
X8199450Y-8166398D01*
X8146723Y-8257723D01*
X8143613Y-8265233D01*
X8141933Y-8264537D01*
X8110860Y-8315523D01*
X8048014Y-8346055D01*
X8027446Y-8347773D01*
X7703301Y-8347773D01*
X7636262Y-8328088D01*
X7590507Y-8275284D01*
X7580563Y-8206126D01*
X7585263Y-8188988D01*
X7584703Y-8188838D01*
X7586807Y-8180987D01*
X7614100Y-8079127D01*
X7614100Y-7973673D01*
X7586807Y-7871813D01*
X7534080Y-7780487D01*
X7459513Y-7705920D01*
X7368187Y-7653193D01*
X7266327Y-7625900D01*
X7160873Y-7625900D01*
X7059013Y-7653193D01*
X7059010Y-7653194D01*
X6967685Y-7705921D01*
X6893121Y-7780485D01*
X6840394Y-7871810D01*
X6840393Y-7871812D01*
X6840393Y-7871813D01*
X6822172Y-7939813D01*
X6785810Y-7999471D01*
X6722963Y-8030001D01*
X6702399Y-8031718D01*
X2835982Y-8031718D01*
X2768943Y-8012033D01*
X2723188Y-7959229D01*
X2713244Y-7890071D01*
X2742269Y-7826515D01*
X2789848Y-7795937D01*
X2788680Y-7793116D01*
X2796178Y-7790009D01*
X2796187Y-7790007D01*
X2887513Y-7737280D01*
X2962080Y-7662713D01*
X3014807Y-7571387D01*
X3042100Y-7469527D01*
X3042100Y-7364073D01*
X3042099Y-7364071D01*
X3041039Y-7356017D01*
X3042914Y-7355770D01*
X3044333Y-7296337D01*
X3083499Y-7238477D01*
X3147729Y-7210976D01*
X3162443Y-7210100D01*
X4520226Y-7210100D01*
X4520228Y-7210100D01*
X4580210Y-7185254D01*
X4649677Y-7177786D01*
X4712156Y-7209061D01*
X4715334Y-7212127D01*
X4732487Y-7229280D01*
X4823813Y-7282007D01*
X4925673Y-7309300D01*
X4925675Y-7309300D01*
X5031125Y-7309300D01*
X5031127Y-7309300D01*
X5132987Y-7282007D01*
X5224313Y-7229280D01*
X5298880Y-7154713D01*
X5351607Y-7063387D01*
X5378900Y-6961527D01*
X5378900Y-6856073D01*
X5351607Y-6754213D01*
X5298880Y-6662887D01*
X5224313Y-6588320D01*
X5132987Y-6535593D01*
X5031127Y-6508300D01*
X4925673Y-6508300D01*
X4823813Y-6535593D01*
X4823810Y-6535594D01*
X4732485Y-6588321D01*
X4698826Y-6621981D01*
X4637503Y-6655466D01*
X4611145Y-6658300D01*
X4471370Y-6658300D01*
X4417245Y-6680720D01*
X4379303Y-6696436D01*
X4379302Y-6696436D01*
X4371518Y-6699661D01*
X4363340Y-6701287D01*
X4359000Y-6704077D01*
X4324065Y-6709100D01*
X4077103Y-6709100D01*
X4010064Y-6689415D01*
X3964309Y-6636611D01*
X3954365Y-6567453D01*
X3957328Y-6553008D01*
X3965341Y-6523100D01*
X3969498Y-6507587D01*
X3969498Y-6402133D01*
X3942205Y-6300273D01*
X3889478Y-6208947D01*
X3825112Y-6144581D01*
X3791627Y-6083258D01*
X3796611Y-6013566D01*
X3838483Y-5957633D01*
X3903947Y-5933216D01*
X3912793Y-5932900D01*
X8017426Y-5932900D01*
X8017428Y-5932900D01*
X8109497Y-5894764D01*
X8143134Y-5861126D01*
X8204454Y-5827642D01*
X8274146Y-5832626D01*
X8330080Y-5874496D01*
X8338194Y-5886798D01*
X8366320Y-5935513D01*
X8440887Y-6010080D01*
X8532213Y-6062807D01*
X8634073Y-6090100D01*
X8634075Y-6090100D01*
X8739525Y-6090100D01*
X8739527Y-6090100D01*
X8841387Y-6062807D01*
X8932713Y-6010080D01*
X9007280Y-5935513D01*
X9060007Y-5844187D01*
X9060009Y-5844177D01*
X9061653Y-5840211D01*
X9063944Y-5837367D01*
X9064071Y-5837148D01*
X9064105Y-5837167D01*
X9105492Y-5785806D01*
X9171786Y-5763739D01*
X9239486Y-5781016D01*
X9287098Y-5832151D01*
X9299506Y-5900911D01*
X9295991Y-5919751D01*
X9269700Y-6017873D01*
X9269700Y-6123327D01*
X9296993Y-6225187D01*
X9349720Y-6316513D01*
X9424287Y-6391080D01*
X9515613Y-6443807D01*
X9617473Y-6471100D01*
X9617475Y-6471100D01*
X9722925Y-6471100D01*
X9722927Y-6471100D01*
X9824787Y-6443807D01*
X9916113Y-6391080D01*
X9990680Y-6316513D01*
X10043407Y-6225187D01*
X10070700Y-6123327D01*
X10070700Y-6017873D01*
X10043407Y-5916013D01*
X9990680Y-5824687D01*
X9916113Y-5750120D01*
X9841782Y-5707205D01*
X9824789Y-5697394D01*
X9824788Y-5697393D01*
X9824787Y-5697393D01*
X9722927Y-5670100D01*
X9722926Y-5670100D01*
X9722922Y-5670099D01*
X9721403Y-5669899D01*
X9720217Y-5669374D01*
X9715077Y-5667997D01*
X9715291Y-5667195D01*
X9657508Y-5641628D01*
X9619041Y-5583301D01*
X9618215Y-5513436D01*
X9630206Y-5484969D01*
X9676807Y-5404254D01*
X9704100Y-5302394D01*
X9704100Y-5196940D01*
X9676807Y-5095080D01*
X9624080Y-5003754D01*
X9549513Y-4929187D01*
X9523162Y-4913973D01*
X9474949Y-4863405D01*
X9461728Y-4794798D01*
X9487697Y-4729934D01*
X9497469Y-4718923D01*
X9570480Y-4645913D01*
X9623207Y-4554587D01*
X9650500Y-4452727D01*
X9650500Y-4347273D01*
X9626202Y-4256590D01*
X9627865Y-4186744D01*
X9667027Y-4128881D01*
X9731256Y-4101377D01*
X9745977Y-4100500D01*
X10527695Y-4100500D01*
X10594734Y-4120185D01*
X10615375Y-4136818D01*
X10647858Y-4169300D01*
X10654087Y-4175529D01*
X10745413Y-4228256D01*
X10847273Y-4255549D01*
X10847275Y-4255549D01*
X10952725Y-4255549D01*
X10952727Y-4255549D01*
X11054587Y-4228256D01*
X11145913Y-4175529D01*
X11220480Y-4100962D01*
X11273207Y-4009636D01*
X11300500Y-3907776D01*
X11300500Y-3802322D01*
X11273207Y-3700462D01*
X11220480Y-3609136D01*
X11145913Y-3534569D01*
X11054587Y-3481842D01*
X10952727Y-3454549D01*
X10847273Y-3454549D01*
X10745413Y-3481842D01*
X10745410Y-3481843D01*
X10654085Y-3534570D01*
X10625475Y-3563181D01*
X10564152Y-3596666D01*
X10537794Y-3599500D01*
X9745977Y-3599500D01*
X9678938Y-3579815D01*
X9633183Y-3527011D01*
X9623239Y-3457853D01*
X9626199Y-3443420D01*
X9650500Y-3352727D01*
X9650500Y-3247273D01*
X9623207Y-3145413D01*
X9570480Y-3054087D01*
X9495913Y-2979520D01*
X9404587Y-2926793D01*
X9302727Y-2899500D01*
X9197273Y-2899500D01*
X9095413Y-2926793D01*
X9095410Y-2926794D01*
X9004085Y-2979521D01*
X8929521Y-3054085D01*
X8876794Y-3145410D01*
X8876792Y-3145415D01*
X8873465Y-3157829D01*
X8873464Y-3157836D01*
X8849500Y-3247273D01*
X8849500Y-3352727D01*
X8876395Y-3453103D01*
X8876793Y-3454586D01*
X8876794Y-3454589D01*
X8879252Y-3458846D01*
X8929011Y-3545032D01*
X8929521Y-3545914D01*
X8933793Y-3550186D01*
X8967278Y-3611509D01*
X8962294Y-3681201D01*
X8933793Y-3725548D01*
X7713761Y-4945581D01*
X7652438Y-4979066D01*
X7626080Y-4981900D01*
X7300242Y-4981900D01*
X7233203Y-4962215D01*
X7187448Y-4909411D01*
X7177504Y-4840253D01*
X7206529Y-4776697D01*
X7238237Y-4750515D01*
X7256313Y-4740080D01*
X7330880Y-4665513D01*
X7383607Y-4574187D01*
X7410900Y-4472327D01*
X7410900Y-4366873D01*
X7383607Y-4265013D01*
X7330880Y-4173687D01*
X7256313Y-4099120D01*
X7164987Y-4046393D01*
X7063127Y-4019100D01*
X6957673Y-4019100D01*
X6855813Y-4046393D01*
X6855810Y-4046394D01*
X6764485Y-4099121D01*
X6689921Y-4173685D01*
X6637194Y-4265010D01*
X6637193Y-4265011D01*
X6630388Y-4290410D01*
X6623582Y-4315813D01*
X6622175Y-4321063D01*
X6585810Y-4380723D01*
X6522963Y-4411252D01*
X6453587Y-4402957D01*
X6399709Y-4358472D01*
X6382625Y-4321063D01*
X6381498Y-4316856D01*
X6367607Y-4265013D01*
X6314880Y-4173687D01*
X6240313Y-4099120D01*
X6148987Y-4046393D01*
X6047127Y-4019100D01*
X5941673Y-4019100D01*
X5839813Y-4046393D01*
X5839810Y-4046394D01*
X5748485Y-4099121D01*
X5673921Y-4173685D01*
X5621194Y-4265010D01*
X5621194Y-4265011D01*
X5621193Y-4265013D01*
X5593900Y-4366873D01*
X5593900Y-4472327D01*
X5621193Y-4574187D01*
X5673920Y-4665513D01*
X5748487Y-4740080D01*
X5766560Y-4750514D01*
X5814774Y-4801081D01*
X5827996Y-4869688D01*
X5802028Y-4934553D01*
X5745113Y-4975080D01*
X5704558Y-4981900D01*
X5154855Y-4981900D01*
X5087816Y-4962215D01*
X5042061Y-4909411D01*
X5032117Y-4840253D01*
X5061142Y-4776697D01*
X5067174Y-4770219D01*
X5098503Y-4738890D01*
X5146480Y-4690913D01*
X5199207Y-4599587D01*
X5226500Y-4497727D01*
X5226500Y-4392273D01*
X5199207Y-4290413D01*
X5146480Y-4199087D01*
X5071913Y-4124520D01*
X4980587Y-4071793D01*
X4878727Y-4044500D01*
X4773273Y-4044500D01*
X4671413Y-4071793D01*
X4671410Y-4071794D01*
X4580085Y-4124521D01*
X4505521Y-4199085D01*
X4452794Y-4290410D01*
X4452793Y-4290413D01*
X4425500Y-4392273D01*
X4425500Y-4497727D01*
X4452793Y-4599587D01*
X4500193Y-4681687D01*
X4505521Y-4690914D01*
X4584826Y-4770219D01*
X4618311Y-4831542D01*
X4613327Y-4901234D01*
X4571455Y-4957167D01*
X4505991Y-4981584D01*
X4497145Y-4981900D01*
X4075655Y-4981900D01*
X4046214Y-4973255D01*
X4016228Y-4966732D01*
X4011212Y-4962977D01*
X4008616Y-4962215D01*
X3987974Y-4945581D01*
X3978232Y-4935839D01*
X3944747Y-4874516D01*
X3949731Y-4804824D01*
X3991603Y-4748891D01*
X4003901Y-4740779D01*
X4005113Y-4740080D01*
X4079680Y-4665513D01*
X4132407Y-4574187D01*
X4159700Y-4472327D01*
X4159700Y-4366873D01*
X4132407Y-4265013D01*
X4079680Y-4173687D01*
X4005113Y-4099120D01*
X3913787Y-4046393D01*
X3811927Y-4019100D01*
X3706473Y-4019100D01*
X3604613Y-4046393D01*
X3604610Y-4046394D01*
X3513285Y-4099121D01*
X3438721Y-4173685D01*
X3385994Y-4265010D01*
X3385994Y-4265011D01*
X3385993Y-4265013D01*
X3358700Y-4366873D01*
X3358700Y-4472327D01*
X3385993Y-4574187D01*
X3415323Y-4624989D01*
X3438721Y-4665514D01*
X3489367Y-4716160D01*
X3522852Y-4777483D01*
X3517868Y-4847175D01*
X3493896Y-4886746D01*
X3480734Y-4901385D01*
X3462487Y-4911920D01*
X3387920Y-4986487D01*
X3358671Y-5037146D01*
X3349986Y-5046807D01*
X3330861Y-5058608D01*
X3314594Y-5074119D01*
X3301699Y-5076603D01*
X3290526Y-5083499D01*
X3268054Y-5083087D01*
X3245986Y-5087340D01*
X3233587Y-5085520D01*
X3223431Y-5083500D01*
X2840424Y-5083500D01*
X2773385Y-5063815D01*
X2727630Y-5011011D01*
X2717686Y-4941853D01*
X2746711Y-4878297D01*
X2789158Y-4847688D01*
X2789148Y-4847671D01*
X2789320Y-4847571D01*
X2792971Y-4844939D01*
X2796180Y-4843608D01*
X2796187Y-4843607D01*
X2887513Y-4790880D01*
X2962080Y-4716313D01*
X3014807Y-4624987D01*
X3042100Y-4523127D01*
X3042100Y-4417673D01*
X3014807Y-4315813D01*
X2962080Y-4224487D01*
X2887513Y-4149920D01*
X2802715Y-4100962D01*
X2796189Y-4097194D01*
X2796188Y-4097193D01*
X2796187Y-4097193D01*
X2694327Y-4069900D01*
X2588873Y-4069900D01*
X2487013Y-4097193D01*
X2487010Y-4097194D01*
X2395685Y-4149921D01*
X2321121Y-4224485D01*
X2268394Y-4315810D01*
X2268393Y-4315813D01*
X2241100Y-4417673D01*
X2241100Y-4523127D01*
X2268393Y-4624987D01*
X2321120Y-4716313D01*
X2395687Y-4790880D01*
X2487013Y-4843607D01*
X2487016Y-4843608D01*
X2490229Y-4844939D01*
X2492525Y-4846789D01*
X2494052Y-4847671D01*
X2493914Y-4847909D01*
X2544632Y-4888780D01*
X2566697Y-4955074D01*
X2549418Y-5022773D01*
X2498281Y-5070384D01*
X2442776Y-5083500D01*
X1384227Y-5083500D01*
X1317188Y-5063815D01*
X1271433Y-5011011D01*
X1261489Y-4941853D01*
X1264448Y-4927422D01*
X1275990Y-4884349D01*
X1275990Y-4778895D01*
X1248697Y-4677035D01*
X1195970Y-4585709D01*
X1121403Y-4511142D01*
X1030077Y-4458415D01*
X928217Y-4431122D01*
X822763Y-4431122D01*
X720903Y-4458415D01*
X720900Y-4458416D01*
X629575Y-4511143D01*
X595916Y-4544803D01*
X534593Y-4578288D01*
X508235Y-4581122D01*
X-4350152Y-4581122D01*
X-4417191Y-4561437D01*
X-4437833Y-4544803D01*
X-5276200Y-3706436D01*
X-5278877Y-3705327D01*
X-5311867Y-3691662D01*
X-5366269Y-3647822D01*
X-5388334Y-3581528D01*
X-5371055Y-3513828D01*
X-5319917Y-3466218D01*
X-5264413Y-3453102D01*
X-2540521Y-3453102D01*
X-2511081Y-3461746D01*
X-2481094Y-3468270D01*
X-2476079Y-3472024D01*
X-2473482Y-3472787D01*
X-2452840Y-3489421D01*
X-2367219Y-3575042D01*
X-2333734Y-3636365D01*
X-2330900Y-3662723D01*
X-2330900Y-3710327D01*
X-2303607Y-3812187D01*
X-2250880Y-3903513D01*
X-2176313Y-3978080D01*
X-2084987Y-4030807D01*
X-1983127Y-4058100D01*
X-1983125Y-4058100D01*
X-1877675Y-4058100D01*
X-1877673Y-4058100D01*
X-1775813Y-4030807D01*
X-1684487Y-3978080D01*
X-1609920Y-3903513D01*
X-1557193Y-3812187D01*
X-1529900Y-3710327D01*
X-1529900Y-3604873D01*
X-1557193Y-3503013D01*
X-1609920Y-3411687D01*
X-1624926Y-3396681D01*
X-1625934Y-3394836D01*
X-1627746Y-3393768D01*
X-1642606Y-3364302D01*
X-1658411Y-3335358D01*
X-1658262Y-3333260D01*
X-1659208Y-3331383D01*
X-1655781Y-3298575D01*
X-1653427Y-3265666D01*
X-1652098Y-3263323D01*
X-1651948Y-3261891D01*
X-1647467Y-3255162D01*
X-1642990Y-3247273D01*
X3349500Y-3247273D01*
X3349500Y-3352727D01*
X3376396Y-3453103D01*
X3376793Y-3454586D01*
X3376794Y-3454589D01*
X3379252Y-3458846D01*
X3429520Y-3545913D01*
X3504087Y-3620480D01*
X3595413Y-3673207D01*
X3697273Y-3700500D01*
X3697275Y-3700500D01*
X3802725Y-3700500D01*
X3802727Y-3700500D01*
X3904587Y-3673207D01*
X3995913Y-3620480D01*
X4070480Y-3545913D01*
X4123207Y-3454587D01*
X4126925Y-3440708D01*
X4163287Y-3381049D01*
X4226133Y-3350518D01*
X4295509Y-3358810D01*
X4349388Y-3403294D01*
X4354082Y-3410792D01*
X4403920Y-3497113D01*
X4478487Y-3571680D01*
X4569813Y-3624407D01*
X4671673Y-3651700D01*
X4671675Y-3651700D01*
X4777125Y-3651700D01*
X4777127Y-3651700D01*
X4878987Y-3624407D01*
X4970313Y-3571680D01*
X5044880Y-3497113D01*
X5097607Y-3405787D01*
X5124900Y-3303927D01*
X5124900Y-3249273D01*
X5568500Y-3249273D01*
X5568500Y-3354727D01*
X5595258Y-3454588D01*
X5595793Y-3456586D01*
X5595794Y-3456589D01*
X5605146Y-3472787D01*
X5648520Y-3547913D01*
X5723087Y-3622480D01*
X5814413Y-3675207D01*
X5916273Y-3702500D01*
X5916275Y-3702500D01*
X6021725Y-3702500D01*
X6021727Y-3702500D01*
X6123587Y-3675207D01*
X6214913Y-3622480D01*
X6289480Y-3547913D01*
X6342207Y-3456587D01*
X6369500Y-3354727D01*
X6369500Y-3249273D01*
X6609900Y-3249273D01*
X6609900Y-3354727D01*
X6636658Y-3454589D01*
X6637193Y-3456586D01*
X6637194Y-3456589D01*
X6646546Y-3472787D01*
X6689920Y-3547913D01*
X6764487Y-3622480D01*
X6855813Y-3675207D01*
X6957673Y-3702500D01*
X6957675Y-3702500D01*
X7063125Y-3702500D01*
X7063127Y-3702500D01*
X7164987Y-3675207D01*
X7256313Y-3622480D01*
X7330880Y-3547913D01*
X7383607Y-3456587D01*
X7410900Y-3354727D01*
X7410900Y-3249273D01*
X7383607Y-3147413D01*
X7330880Y-3056087D01*
X7256313Y-2981520D01*
X7171264Y-2932417D01*
X7164989Y-2928794D01*
X7164988Y-2928793D01*
X7164987Y-2928793D01*
X7063127Y-2901500D01*
X6957673Y-2901500D01*
X6855813Y-2928793D01*
X6855810Y-2928794D01*
X6764485Y-2981521D01*
X6689921Y-3056085D01*
X6637194Y-3147410D01*
X6637193Y-3147413D01*
X6622920Y-3200683D01*
X6609900Y-3249273D01*
X6369500Y-3249273D01*
X6342207Y-3147413D01*
X6289480Y-3056087D01*
X6214913Y-2981520D01*
X6129864Y-2932417D01*
X6123589Y-2928794D01*
X6123588Y-2928793D01*
X6123587Y-2928793D01*
X6021727Y-2901500D01*
X5916273Y-2901500D01*
X5814413Y-2928793D01*
X5814410Y-2928794D01*
X5723085Y-2981521D01*
X5648521Y-3056085D01*
X5595794Y-3147410D01*
X5595793Y-3147413D01*
X5568500Y-3249273D01*
X5124900Y-3249273D01*
X5124900Y-3198473D01*
X5097607Y-3096613D01*
X5044880Y-3005287D01*
X4970313Y-2930720D01*
X4885870Y-2881967D01*
X4878989Y-2877994D01*
X4878988Y-2877993D01*
X4878987Y-2877993D01*
X4777127Y-2850700D01*
X4671673Y-2850700D01*
X4569813Y-2877993D01*
X4569810Y-2877994D01*
X4478485Y-2930721D01*
X4403921Y-3005285D01*
X4351194Y-3096610D01*
X4351192Y-3096615D01*
X4347473Y-3110495D01*
X4311107Y-3170155D01*
X4248259Y-3200683D01*
X4178884Y-3192386D01*
X4125007Y-3147900D01*
X4120312Y-3140399D01*
X4099636Y-3104587D01*
X4070480Y-3054087D01*
X3995913Y-2979520D01*
X3904587Y-2926793D01*
X3802727Y-2899500D01*
X3697273Y-2899500D01*
X3595413Y-2926793D01*
X3595410Y-2926794D01*
X3504085Y-2979521D01*
X3429521Y-3054085D01*
X3376794Y-3145410D01*
X3376793Y-3145413D01*
X3349500Y-3247273D01*
X-1642990Y-3247273D01*
X-1634030Y-3231484D01*
X-1629762Y-3226154D01*
X-1599520Y-3195913D01*
X-1546793Y-3104587D01*
X-1519500Y-3002727D01*
X-1519500Y-2897273D01*
X-1546793Y-2795413D01*
X-1599520Y-2704087D01*
X-1674087Y-2629520D01*
X-1765413Y-2576793D01*
X-1867273Y-2549500D01*
X-1972727Y-2549500D01*
X-2074587Y-2576793D01*
X-2074590Y-2576794D01*
X-2165915Y-2629521D01*
X-2240479Y-2704085D01*
X-2293206Y-2795410D01*
X-2293207Y-2795411D01*
X-2299393Y-2818499D01*
X-2305585Y-2841611D01*
X-2310565Y-2860196D01*
X-2346930Y-2919856D01*
X-2409777Y-2950385D01*
X-2430340Y-2952102D01*
X-3060057Y-2952102D01*
X-3127096Y-2932417D01*
X-3172851Y-2879613D01*
X-3182795Y-2810455D01*
X-3179832Y-2796009D01*
X-3161807Y-2728739D01*
X-3161807Y-2623285D01*
X-3189100Y-2521425D01*
X-3241827Y-2430099D01*
X-3316394Y-2355532D01*
X-3407720Y-2302805D01*
X-3509580Y-2275512D01*
X-3615034Y-2275512D01*
X-3716894Y-2302805D01*
X-3716897Y-2302806D01*
X-3808222Y-2355533D01*
X-3882786Y-2430097D01*
X-3935513Y-2521422D01*
X-3935514Y-2521425D01*
X-3962807Y-2623285D01*
X-3962807Y-2728739D01*
X-3944782Y-2796009D01*
X-3946445Y-2865859D01*
X-3985608Y-2923721D01*
X-4049836Y-2951225D01*
X-4064557Y-2952102D01*
X-4383771Y-2952102D01*
X-4450810Y-2932417D01*
X-4496565Y-2879613D01*
X-4506509Y-2810455D01*
X-4503550Y-2796023D01*
X-4476300Y-2694327D01*
X-4476300Y-2588873D01*
X-4503593Y-2487013D01*
X-4556320Y-2395687D01*
X-4630887Y-2321120D01*
X-4697741Y-2282522D01*
X-4722211Y-2268394D01*
X-4722212Y-2268393D01*
X-4722213Y-2268393D01*
X-4824073Y-2241100D01*
X-4929527Y-2241100D01*
X-5031387Y-2268393D01*
X-5031390Y-2268394D01*
X-5122715Y-2321121D01*
X-5197279Y-2395685D01*
X-5250006Y-2487010D01*
X-5250007Y-2487013D01*
X-5277300Y-2588873D01*
X-5277300Y-2694327D01*
X-5250055Y-2796011D01*
X-5250650Y-2821003D01*
X-5247091Y-2845749D01*
X-5251467Y-2855329D01*
X-5251717Y-2865858D01*
X-5265730Y-2886562D01*
X-5276116Y-2909305D01*
X-5284976Y-2914998D01*
X-5290879Y-2923721D01*
X-5313863Y-2933562D01*
X-5334894Y-2947079D01*
X-5350750Y-2949358D01*
X-5355108Y-2951225D01*
X-5369829Y-2952102D01*
X-5435471Y-2952102D01*
X-5502510Y-2932417D01*
X-5548265Y-2879613D01*
X-5558209Y-2810455D01*
X-5555250Y-2796023D01*
X-5528000Y-2694327D01*
X-5528000Y-2588873D01*
X-5555293Y-2487013D01*
X-5608020Y-2395687D01*
X-5612176Y-2391531D01*
X-5645661Y-2330208D01*
X-5640677Y-2260516D01*
X-5612176Y-2216169D01*
X-5601130Y-2205123D01*
X-5572320Y-2176313D01*
X-5519593Y-2084987D01*
X-5492300Y-1983127D01*
X-5492300Y-1877673D01*
X-5519593Y-1775813D01*
X-5572320Y-1684487D01*
X-5646887Y-1609920D01*
X-5738213Y-1557193D01*
X-5840073Y-1529900D01*
X-5945527Y-1529900D01*
X-6047387Y-1557193D01*
X-6047390Y-1557194D01*
X-6138715Y-1609921D01*
X-6213279Y-1684485D01*
X-6266006Y-1775810D01*
X-6266007Y-1775813D01*
X-6293300Y-1877673D01*
X-6293300Y-1906944D01*
X-6312985Y-1973983D01*
X-6365789Y-2019738D01*
X-6417300Y-2030944D01*
X-7856543Y-2030944D01*
X-7923582Y-2011259D01*
X-7969337Y-1958455D01*
X-7979482Y-1890760D01*
X-7978615Y-1884173D01*
X-7978615Y-1778719D01*
X-7978615Y-1778717D01*
X-8005908Y-1676857D01*
X-8058635Y-1585531D01*
X-8133202Y-1510964D01*
X-8144453Y-1504468D01*
X-8192667Y-1453903D01*
X-8205890Y-1385296D01*
X-8179922Y-1320431D01*
X-8123007Y-1279903D01*
X-8082451Y-1273083D01*
X-4532535Y-1273083D01*
X-4465496Y-1292768D01*
X-4444854Y-1309402D01*
X-3943030Y-1811225D01*
X-3943027Y-1811229D01*
X-3935959Y-1818297D01*
X-3865492Y-1888764D01*
X-3773423Y-1926900D01*
X871277Y-1926900D01*
X900717Y-1935544D01*
X930704Y-1942068D01*
X935719Y-1945822D01*
X938316Y-1946585D01*
X958958Y-1963219D01*
X1113181Y-2117442D01*
X1146666Y-2178765D01*
X1149500Y-2205123D01*
X1149500Y-2252727D01*
X1164682Y-2309385D01*
X1176793Y-2354586D01*
X1176794Y-2354589D01*
X1177339Y-2355533D01*
X1229520Y-2445913D01*
X1304087Y-2520480D01*
X1395413Y-2573207D01*
X1497273Y-2600500D01*
X1497275Y-2600500D01*
X1602725Y-2600500D01*
X1602727Y-2600500D01*
X1704587Y-2573207D01*
X1795913Y-2520480D01*
X1870480Y-2445913D01*
X1923207Y-2354587D01*
X1950500Y-2252727D01*
X1950500Y-2147273D01*
X2545900Y-2147273D01*
X2545900Y-2252727D01*
X2561082Y-2309385D01*
X2573193Y-2354586D01*
X2573194Y-2354589D01*
X2573739Y-2355533D01*
X2625920Y-2445913D01*
X2700487Y-2520480D01*
X2791813Y-2573207D01*
X2893673Y-2600500D01*
X2893675Y-2600500D01*
X2999125Y-2600500D01*
X2999127Y-2600500D01*
X3100987Y-2573207D01*
X3192313Y-2520480D01*
X3266880Y-2445913D01*
X3319607Y-2354587D01*
X3346900Y-2252727D01*
X3346900Y-2147273D01*
X3319607Y-2045413D01*
X3266880Y-1954087D01*
X3192313Y-1879520D01*
X3100987Y-1826793D01*
X2999127Y-1799500D01*
X2893673Y-1799500D01*
X2791813Y-1826793D01*
X2791810Y-1826794D01*
X2700485Y-1879521D01*
X2625921Y-1954085D01*
X2573194Y-2045410D01*
X2573193Y-2045413D01*
X2545900Y-2147273D01*
X1950500Y-2147273D01*
X1923207Y-2045413D01*
X1870480Y-1954087D01*
X1795913Y-1879520D01*
X1704587Y-1826793D01*
X1602727Y-1799500D01*
X1602726Y-1799500D01*
X1555123Y-1799500D01*
X1488084Y-1779815D01*
X1467442Y-1763181D01*
X1168297Y-1464036D01*
X1076229Y-1425900D01*
X1076228Y-1425900D01*
X-3568473Y-1425900D01*
X-3635512Y-1406215D01*
X-3656154Y-1389581D01*
X-3709553Y-1336182D01*
X-3743038Y-1274859D01*
X-3738054Y-1205167D01*
X-3697354Y-1150122D01*
X-3692093Y-1146084D01*
X-3692085Y-1146080D01*
X-3658424Y-1112419D01*
X-3597101Y-1078934D01*
X-3570743Y-1076100D01*
X-437855Y-1076100D01*
X-370816Y-1095785D01*
X-361463Y-1103321D01*
X-361163Y-1102931D01*
X-354717Y-1107877D01*
X-354715Y-1107878D01*
X-354713Y-1107880D01*
X-263387Y-1160607D01*
X-161527Y-1187900D01*
X-56073Y-1187900D01*
X45787Y-1160607D01*
X137113Y-1107880D01*
X211680Y-1033313D01*
X264407Y-941987D01*
X291700Y-840127D01*
X291700Y-734673D01*
X291700Y-734670D01*
X290833Y-728084D01*
X301599Y-659049D01*
X347980Y-606793D01*
X413772Y-587900D01*
X1096677Y-587900D01*
X1163716Y-607585D01*
X1184358Y-624219D01*
X1369636Y-809497D01*
X1440103Y-879964D01*
X1532172Y-918100D01*
X2119028Y-918100D01*
X2186067Y-937785D01*
X2231822Y-990589D01*
X2241967Y-1058284D01*
X2241100Y-1064870D01*
X2241100Y-1064873D01*
X2241100Y-1170327D01*
X2263471Y-1253815D01*
X2268393Y-1272186D01*
X2268394Y-1272189D01*
X2270313Y-1275513D01*
X2321120Y-1363513D01*
X2395687Y-1438080D01*
X2487013Y-1490807D01*
X2588873Y-1518100D01*
X2588875Y-1518100D01*
X2694325Y-1518100D01*
X2694327Y-1518100D01*
X2796187Y-1490807D01*
X2887513Y-1438080D01*
X2962080Y-1363513D01*
X3014807Y-1272187D01*
X3042100Y-1170327D01*
X3042100Y-1064873D01*
X3042100Y-1064870D01*
X3041233Y-1058284D01*
X3051999Y-989249D01*
X3098380Y-936993D01*
X3164172Y-918100D01*
X3576473Y-918100D01*
X3643512Y-937785D01*
X3664154Y-954419D01*
X4129946Y-1420210D01*
X4601631Y-1891895D01*
X4601632Y-1891897D01*
X4672099Y-1962364D01*
X4681947Y-1966443D01*
X4764168Y-2000501D01*
X4764169Y-2000501D01*
X4878258Y-2000501D01*
X4878266Y-2000500D01*
X5427428Y-2000500D01*
X5494467Y-2020185D01*
X5540222Y-2072989D01*
X5550367Y-2140684D01*
X5549500Y-2147270D01*
X5549500Y-2147273D01*
X5549500Y-2252727D01*
X5564682Y-2309385D01*
X5576793Y-2354586D01*
X5576794Y-2354589D01*
X5577339Y-2355533D01*
X5629520Y-2445913D01*
X5704087Y-2520480D01*
X5795413Y-2573207D01*
X5897273Y-2600500D01*
X5897275Y-2600500D01*
X6002725Y-2600500D01*
X6002727Y-2600500D01*
X6104587Y-2573207D01*
X6195913Y-2520480D01*
X6270480Y-2445913D01*
X6323207Y-2354587D01*
X6350500Y-2252727D01*
X6350500Y-2147273D01*
X6350500Y-2147270D01*
X6349633Y-2140684D01*
X6360399Y-2071649D01*
X6406780Y-2019393D01*
X6472572Y-2000500D01*
X7487677Y-2000500D01*
X7517117Y-2009144D01*
X7547104Y-2015668D01*
X7552119Y-2019422D01*
X7554716Y-2020185D01*
X7575358Y-2036819D01*
X7691181Y-2152642D01*
X7724666Y-2213965D01*
X7727500Y-2240322D01*
X7727500Y-2287927D01*
X7754793Y-2389787D01*
X7807520Y-2481113D01*
X7882087Y-2555680D01*
X7973413Y-2608407D01*
X8013495Y-2619146D01*
X8073155Y-2655510D01*
X8103685Y-2718357D01*
X8095391Y-2787732D01*
X8050906Y-2841611D01*
X8043408Y-2846304D01*
X7988523Y-2877993D01*
X7981638Y-2881968D01*
X7907075Y-2956531D01*
X7854348Y-3047856D01*
X7854347Y-3047859D01*
X7827054Y-3149719D01*
X7827054Y-3255173D01*
X7854347Y-3357033D01*
X7907074Y-3448359D01*
X7981641Y-3522926D01*
X8072967Y-3575653D01*
X8174827Y-3602946D01*
X8174829Y-3602946D01*
X8280279Y-3602946D01*
X8280281Y-3602946D01*
X8382141Y-3575653D01*
X8473467Y-3522926D01*
X8548034Y-3448359D01*
X8600761Y-3357033D01*
X8628054Y-3255173D01*
X8628054Y-3149719D01*
X8600761Y-3047859D01*
X8548034Y-2956533D01*
X8473467Y-2881966D01*
X8382143Y-2829240D01*
X8382142Y-2829239D01*
X8351403Y-2821003D01*
X8342055Y-2818498D01*
X8282397Y-2782134D01*
X8251868Y-2719287D01*
X8260163Y-2649911D01*
X8304648Y-2596033D01*
X8312117Y-2591357D01*
X8373913Y-2555680D01*
X8448480Y-2481113D01*
X8501207Y-2389787D01*
X8528500Y-2287927D01*
X8528500Y-2182473D01*
X8501207Y-2080613D01*
X8448480Y-1989287D01*
X8445374Y-1986181D01*
X8443590Y-1982913D01*
X8443531Y-1982837D01*
X8443543Y-1982827D01*
X8411889Y-1924858D01*
X8416873Y-1855166D01*
X8458745Y-1799233D01*
X8524209Y-1774816D01*
X8533055Y-1774500D01*
X8818431Y-1774500D01*
X8885470Y-1794185D01*
X8931225Y-1846989D01*
X8941169Y-1916147D01*
X8925818Y-1960497D01*
X8909197Y-1989287D01*
X8876794Y-2045410D01*
X8876793Y-2045413D01*
X8849500Y-2147273D01*
X8849500Y-2252727D01*
X8864682Y-2309385D01*
X8876793Y-2354586D01*
X8876794Y-2354589D01*
X8877339Y-2355533D01*
X8929520Y-2445913D01*
X9004087Y-2520480D01*
X9095413Y-2573207D01*
X9197273Y-2600500D01*
X9197275Y-2600500D01*
X9302725Y-2600500D01*
X9302727Y-2600500D01*
X9404587Y-2573207D01*
X9495913Y-2520480D01*
X9570480Y-2445913D01*
X9623207Y-2354587D01*
X9650500Y-2252727D01*
X9650500Y-2226922D01*
X9656738Y-2205676D01*
X9658318Y-2183588D01*
X9666390Y-2172804D01*
X9670185Y-2159883D01*
X9686918Y-2145383D01*
X9700190Y-2127655D01*
X9712810Y-2122947D01*
X9722989Y-2114128D01*
X9744906Y-2110976D01*
X9765654Y-2103238D01*
X9778814Y-2106100D01*
X9792147Y-2104184D01*
X9812290Y-2113383D01*
X9833927Y-2118090D01*
X9851652Y-2131358D01*
X9855703Y-2133209D01*
X9862181Y-2139241D01*
X9875581Y-2152641D01*
X9909066Y-2213964D01*
X9911900Y-2240322D01*
X9911900Y-2287927D01*
X9939193Y-2389787D01*
X9991920Y-2481113D01*
X10066487Y-2555680D01*
X10157813Y-2608407D01*
X10259673Y-2635700D01*
X10259675Y-2635700D01*
X10365125Y-2635700D01*
X10365127Y-2635700D01*
X10466987Y-2608407D01*
X10558313Y-2555680D01*
X10632880Y-2481113D01*
X10685607Y-2389787D01*
X10712900Y-2287927D01*
X10712900Y-2182473D01*
X10685607Y-2080613D01*
X10632880Y-1989287D01*
X10558313Y-1914720D01*
X10505404Y-1884173D01*
X10466989Y-1861994D01*
X10466988Y-1861993D01*
X10466987Y-1861993D01*
X10365127Y-1834700D01*
X10365126Y-1834700D01*
X10317522Y-1834700D01*
X10250483Y-1815015D01*
X10229841Y-1798381D01*
X9988654Y-1557194D01*
X9801134Y-1369673D01*
X10572300Y-1369673D01*
X10572300Y-1475127D01*
X10594290Y-1557193D01*
X10599593Y-1576986D01*
X10599594Y-1576989D01*
X10604525Y-1585529D01*
X10652320Y-1668313D01*
X10726887Y-1742880D01*
X10818213Y-1795607D01*
X10920073Y-1822900D01*
X10920075Y-1822900D01*
X11025525Y-1822900D01*
X11025527Y-1822900D01*
X11127387Y-1795607D01*
X11218713Y-1742880D01*
X11293280Y-1668313D01*
X11346007Y-1576987D01*
X11373300Y-1475127D01*
X11373300Y-1369673D01*
X11346007Y-1267813D01*
X11293280Y-1176487D01*
X11218713Y-1101920D01*
X11127387Y-1049193D01*
X11025527Y-1021900D01*
X10920073Y-1021900D01*
X10818213Y-1049193D01*
X10818210Y-1049194D01*
X10726885Y-1101921D01*
X10652321Y-1176485D01*
X10599594Y-1267810D01*
X10599593Y-1267813D01*
X10572300Y-1369673D01*
X9801134Y-1369673D01*
X9743097Y-1311636D01*
X9737704Y-1309402D01*
X9651029Y-1273500D01*
X9651028Y-1273500D01*
X8495255Y-1273500D01*
X8428216Y-1253815D01*
X8407574Y-1237181D01*
X8373914Y-1203521D01*
X8373913Y-1203520D01*
X8282587Y-1150793D01*
X8180727Y-1123500D01*
X8075273Y-1123500D01*
X7973413Y-1150793D01*
X7973410Y-1150794D01*
X7882085Y-1203521D01*
X7807521Y-1278085D01*
X7754794Y-1369410D01*
X7754793Y-1369411D01*
X7744563Y-1407594D01*
X7708198Y-1467254D01*
X7645351Y-1497783D01*
X7624788Y-1499500D01*
X4969118Y-1499500D01*
X4902079Y-1479815D01*
X4881437Y-1463181D01*
X4672045Y-1253789D01*
X4638560Y-1192466D01*
X4643544Y-1122774D01*
X4684244Y-1067729D01*
X4689505Y-1063691D01*
X4689513Y-1063687D01*
X4764080Y-989120D01*
X4816807Y-897794D01*
X4844100Y-795934D01*
X4844100Y-690480D01*
X4816807Y-588620D01*
X4764080Y-497294D01*
X4689513Y-422727D01*
X4598187Y-370000D01*
X4496327Y-342707D01*
X4390873Y-342707D01*
X4289013Y-370000D01*
X4289010Y-370001D01*
X4197685Y-422728D01*
X4123121Y-497292D01*
X4119075Y-502566D01*
X4062647Y-543769D01*
X3992901Y-547924D01*
X3933018Y-514761D01*
X3873493Y-455236D01*
X3781425Y-417100D01*
X3781424Y-417100D01*
X3039455Y-417100D01*
X2972416Y-397415D01*
X2926661Y-344611D01*
X2916717Y-275453D01*
X2945742Y-211897D01*
X2951774Y-205419D01*
X2962080Y-195113D01*
X3014807Y-103787D01*
X3042100Y-1927D01*
X3042100Y103527D01*
X3014807Y205387D01*
X2962080Y296713D01*
X2887513Y371280D01*
X2796187Y424007D01*
X2792971Y425339D01*
X2790674Y427190D01*
X2789148Y428071D01*
X2789285Y428310D01*
X2738568Y469180D01*
X2716503Y535474D01*
X2733782Y603173D01*
X2784919Y650784D01*
X2840424Y663900D01*
X4155429Y663900D01*
X4155431Y663900D01*
X4247500Y702036D01*
X4289417Y743953D01*
X4350740Y777439D01*
X4420431Y772455D01*
X4475475Y731759D01*
X4479519Y726489D01*
X4479520Y726487D01*
X4554087Y651920D01*
X4645413Y599193D01*
X4747273Y571900D01*
X4747275Y571900D01*
X4852725Y571900D01*
X4852727Y571900D01*
X4954587Y599193D01*
X5045913Y651920D01*
X5120480Y726487D01*
X5173207Y817813D01*
X5200500Y919673D01*
X5200500Y1025127D01*
X5173207Y1126987D01*
X5120480Y1218313D01*
X5050974Y1287819D01*
X5017489Y1349142D01*
X5022473Y1418834D01*
X5064345Y1474767D01*
X5129809Y1499184D01*
X5138655Y1499500D01*
X8810226Y1499500D01*
X8810228Y1499500D01*
X8902297Y1537636D01*
X9112242Y1747581D01*
X9173565Y1781066D01*
X9199923Y1783900D01*
X9247525Y1783900D01*
X9247527Y1783900D01*
X9349387Y1811193D01*
X9440713Y1863920D01*
X9515280Y1938487D01*
X9515286Y1938499D01*
X9519317Y1943751D01*
X9575741Y1984959D01*
X9645486Y1989121D01*
X9705381Y1955955D01*
X9902846Y1758490D01*
X9936331Y1697167D01*
X9934940Y1638717D01*
X9911900Y1552729D01*
X9911900Y1552727D01*
X9911900Y1447273D01*
X9939193Y1345413D01*
X9991920Y1254087D01*
X10066487Y1179520D01*
X10157813Y1126793D01*
X10259673Y1099500D01*
X10259675Y1099500D01*
X10365125Y1099500D01*
X10365127Y1099500D01*
X10466987Y1126793D01*
X10558313Y1179520D01*
X10632880Y1254087D01*
X10685607Y1345413D01*
X10712900Y1447273D01*
X10712900Y1552727D01*
X10685607Y1654587D01*
X10632880Y1745913D01*
X10558313Y1820480D01*
X10551303Y1824528D01*
X10525628Y1844229D01*
X10524764Y1845093D01*
X10524764Y1845094D01*
X10454297Y1915561D01*
X10454295Y1915562D01*
X9992200Y2377657D01*
X9530806Y2839052D01*
X9497321Y2900375D01*
X9502305Y2970067D01*
X9530805Y3014413D01*
X9570480Y3054087D01*
X9623207Y3145413D01*
X9650500Y3247273D01*
X9650500Y3259477D01*
X9656738Y3280723D01*
X9658318Y3302811D01*
X9666390Y3313595D01*
X9670185Y3326516D01*
X9686918Y3341016D01*
X9700190Y3358744D01*
X9712810Y3363452D01*
X9722989Y3372271D01*
X9744906Y3375423D01*
X9765654Y3383161D01*
X9778814Y3380299D01*
X9792147Y3382215D01*
X9812290Y3373016D01*
X9833927Y3368309D01*
X9851652Y3355041D01*
X9855703Y3353190D01*
X9862181Y3347158D01*
X9875581Y3333758D01*
X9909066Y3272435D01*
X9911900Y3246077D01*
X9911900Y3198473D01*
X9939193Y3096613D01*
X9991920Y3005287D01*
X10066487Y2930720D01*
X10157813Y2877993D01*
X10259673Y2850700D01*
X10259675Y2850700D01*
X10365125Y2850700D01*
X10365127Y2850700D01*
X10466987Y2877993D01*
X10558313Y2930720D01*
X10632880Y3005287D01*
X10685607Y3096613D01*
X10712900Y3198473D01*
X10712900Y3303927D01*
X10685607Y3405787D01*
X10632880Y3497113D01*
X10558313Y3571680D01*
X10479274Y3617313D01*
X10466989Y3624406D01*
X10466988Y3624407D01*
X10466987Y3624407D01*
X10365127Y3651700D01*
X10365126Y3651700D01*
X10317523Y3651700D01*
X10288082Y3660345D01*
X10258096Y3666868D01*
X10253080Y3670623D01*
X10250484Y3671385D01*
X10229842Y3688019D01*
X10144688Y3773173D01*
X10111203Y3834496D01*
X10116187Y3904188D01*
X10158059Y3960121D01*
X10223523Y3984538D01*
X10264458Y3980630D01*
X10310473Y3968300D01*
X10310475Y3968300D01*
X10415925Y3968300D01*
X10415927Y3968300D01*
X10517787Y3995593D01*
X10609113Y4048320D01*
X10683680Y4122887D01*
X10736407Y4214213D01*
X10763700Y4316073D01*
X10763700Y4421527D01*
X10736407Y4523387D01*
X10683680Y4614713D01*
X10609113Y4689280D01*
X10517787Y4742007D01*
X10415927Y4769300D01*
X10310473Y4769300D01*
X10208613Y4742007D01*
X10208610Y4742006D01*
X10117285Y4689279D01*
X10042721Y4614715D01*
X9989994Y4523390D01*
X9989993Y4523387D01*
X9962700Y4421527D01*
X9962700Y4316073D01*
X9989993Y4214213D01*
X9996434Y4203056D01*
X9997296Y4201564D01*
X10013767Y4133663D01*
X9990915Y4067637D01*
X9935993Y4024447D01*
X9866439Y4017806D01*
X9842458Y4025003D01*
X9836431Y4027499D01*
X9836429Y4027500D01*
X9836428Y4027500D01*
X5807031Y4027500D01*
X5707375Y4027500D01*
X5707373Y4027500D01*
X5615305Y3989364D01*
X5615304Y3989363D01*
X3792761Y2166819D01*
X3731438Y2133334D01*
X3705080Y2130500D01*
X2072572Y2130500D01*
X2005533Y2150185D01*
X1959778Y2202989D01*
X1949633Y2270684D01*
X1950500Y2277271D01*
X1950500Y2382725D01*
X1950500Y2382727D01*
X1923207Y2484587D01*
X1870480Y2575913D01*
X1795913Y2650480D01*
X1726214Y2690721D01*
X1678001Y2741287D01*
X1664779Y2809894D01*
X1690747Y2874758D01*
X1726214Y2905491D01*
X1769913Y2930720D01*
X1844480Y3005287D01*
X1897207Y3096613D01*
X1924500Y3198473D01*
X1924500Y3303927D01*
X1924500Y3303930D01*
X1923633Y3310516D01*
X1934399Y3379551D01*
X1980780Y3431807D01*
X2046572Y3450700D01*
X3103277Y3450700D01*
X3132717Y3442056D01*
X3162704Y3435532D01*
X3167719Y3431778D01*
X3170316Y3431015D01*
X3190958Y3414381D01*
X3271581Y3333758D01*
X3305066Y3272435D01*
X3307900Y3246077D01*
X3307900Y3198473D01*
X3335193Y3096613D01*
X3387920Y3005287D01*
X3462487Y2930720D01*
X3553813Y2877993D01*
X3655673Y2850700D01*
X3655675Y2850700D01*
X3761125Y2850700D01*
X3761127Y2850700D01*
X3862987Y2877993D01*
X3954313Y2930720D01*
X4028880Y3005287D01*
X4081607Y3096613D01*
X4108900Y3198473D01*
X4108900Y3303927D01*
X4081607Y3405787D01*
X4028880Y3497113D01*
X3954313Y3571680D01*
X3875274Y3617313D01*
X3862989Y3624406D01*
X3862988Y3624407D01*
X3862987Y3624407D01*
X3761127Y3651700D01*
X3761126Y3651700D01*
X3713523Y3651700D01*
X3684082Y3660345D01*
X3654096Y3666868D01*
X3649080Y3670623D01*
X3646484Y3671385D01*
X3625842Y3688019D01*
X3501435Y3812426D01*
X3467950Y3873749D01*
X3472934Y3943441D01*
X3514806Y3999374D01*
X3580270Y4023791D01*
X3621202Y4019883D01*
X3697273Y3999500D01*
X3697276Y3999500D01*
X3802725Y3999500D01*
X3802727Y3999500D01*
X3904587Y4026793D01*
X3995913Y4079520D01*
X4070480Y4154087D01*
X4123207Y4245413D01*
X4150500Y4347273D01*
X4150500Y4452727D01*
X4123207Y4554587D01*
X4070480Y4645913D01*
X3995913Y4720480D01*
X3904587Y4773207D01*
X3802727Y4800500D01*
X3697273Y4800500D01*
X3595413Y4773207D01*
X3595410Y4773206D01*
X3504085Y4720479D01*
X3429521Y4645915D01*
X3376794Y4554590D01*
X3376793Y4554587D01*
X3349500Y4452727D01*
X3349500Y4347273D01*
X3376793Y4245413D01*
X3429520Y4154087D01*
X3429523Y4154084D01*
X3434074Y4148153D01*
X3459269Y4082984D01*
X3445231Y4014539D01*
X3396418Y3964549D01*
X3328327Y3948885D01*
X3311516Y3951047D01*
X3308232Y3951700D01*
X3308228Y3951700D01*
X3066630Y3951700D01*
X2999591Y3971385D01*
X2953836Y4024189D01*
X2943892Y4093347D01*
X2966491Y4147006D01*
X2966416Y4147049D01*
X2966760Y4147647D01*
X2968250Y4151182D01*
X2970471Y4154079D01*
X2970480Y4154087D01*
X3023207Y4245413D01*
X3050500Y4347273D01*
X3050500Y4452727D01*
X3023207Y4554587D01*
X2970480Y4645913D01*
X2895913Y4720480D01*
X2804587Y4773207D01*
X2702727Y4800500D01*
X2597273Y4800500D01*
X2508169Y4776625D01*
X2476076Y4772400D01*
X-4075436Y4772400D01*
X-4142475Y4792085D01*
X-4163117Y4808719D01*
X-5048455Y5694057D01*
X-5081940Y5755380D01*
X-5084774Y5781738D01*
X-5084774Y5829340D01*
X-5084774Y5829342D01*
X-5112067Y5931202D01*
X-5164794Y6022528D01*
X-5239361Y6097095D01*
X-5282695Y6122114D01*
X-5330910Y6172680D01*
X-5344132Y6241287D01*
X-5318164Y6306152D01*
X-5261250Y6346680D01*
X-5220694Y6353500D01*
X-4020758Y6353500D01*
X-3958758Y6336887D01*
X-3954315Y6334322D01*
X-3954313Y6334320D01*
X-3862987Y6281593D01*
X-3761127Y6254300D01*
X-3761125Y6254300D01*
X-3655675Y6254300D01*
X-3655673Y6254300D01*
X-3553813Y6281593D01*
X-3462487Y6334320D01*
X-3387920Y6408887D01*
X-3335193Y6500213D01*
X-3307900Y6602073D01*
X-3307900Y6707527D01*
X-3335193Y6809387D01*
X-3387920Y6900713D01*
X-3462487Y6975280D01*
X-3537324Y7018487D01*
X-3553811Y7028006D01*
X-3553812Y7028007D01*
X-3553813Y7028007D01*
X-3655673Y7055300D01*
X-3761127Y7055300D01*
X-3862987Y7028007D01*
X-3862990Y7028006D01*
X-3954315Y6975279D01*
X-4034627Y6894966D01*
X-4036108Y6896447D01*
X-4083540Y6861811D01*
X-4125490Y6854500D01*
X-8268745Y6854500D01*
X-8335784Y6874185D01*
X-8356426Y6890819D01*
X-8390086Y6924479D01*
X-8390087Y6924480D01*
X-8457121Y6963182D01*
X-8481411Y6977206D01*
X-8481412Y6977207D01*
X-8481413Y6977207D01*
X-8583273Y7004500D01*
X-8688727Y7004500D01*
X-8790587Y6977207D01*
X-8790590Y6977206D01*
X-8881915Y6924479D01*
X-8956479Y6849915D01*
X-9009206Y6758590D01*
X-9009207Y6758587D01*
X-9036500Y6656727D01*
X-9036500Y6551273D01*
X-9012522Y6461787D01*
X-9009207Y6449414D01*
X-9009206Y6449411D01*
X-8998528Y6430916D01*
X-8960864Y6365680D01*
X-8956479Y6358086D01*
X-8953374Y6354981D01*
X-8951591Y6351714D01*
X-8951531Y6351637D01*
X-8951544Y6351628D01*
X-8919889Y6293658D01*
X-8924873Y6223966D01*
X-8966745Y6168033D01*
X-9032209Y6143616D01*
X-9041055Y6143300D01*
X-10413030Y6143300D01*
X-10505098Y6105164D01*
X-10505099Y6105163D01*
X-11601442Y5008819D01*
X-11662765Y4975334D01*
X-11689123Y4972500D01*
X-11736727Y4972500D01*
X-11838587Y4945207D01*
X-11838590Y4945206D01*
X-11929915Y4892479D01*
X-12004479Y4817915D01*
X-12057206Y4726590D01*
X-12057207Y4726587D01*
X-12084500Y4624727D01*
X-12084500Y4519273D01*
X-12057207Y4417413D01*
X-12004480Y4326087D01*
X-11929913Y4251520D01*
X-11838587Y4198793D01*
X-11736727Y4171500D01*
X-11736725Y4171500D01*
X-11631275Y4171500D01*
X-11631273Y4171500D01*
X-11529413Y4198793D01*
X-11438087Y4251520D01*
X-11363520Y4326087D01*
X-11310793Y4417413D01*
X-11283500Y4519273D01*
X-11283500Y4566877D01*
X-11263815Y4633916D01*
X-11247181Y4654558D01*
X-10295758Y5605981D01*
X-10234435Y5639466D01*
X-10208077Y5642300D01*
X-7881558Y5642300D01*
X-7819558Y5625687D01*
X-7815115Y5623122D01*
X-7815113Y5623120D01*
X-7723787Y5570393D01*
X-7621927Y5543100D01*
X-7621925Y5543100D01*
X-7516475Y5543100D01*
X-7516473Y5543100D01*
X-7414613Y5570393D01*
X-7323287Y5623120D01*
X-7248720Y5697687D01*
X-7195993Y5789013D01*
X-7168700Y5890873D01*
X-7168700Y5996327D01*
X-7195993Y6098187D01*
X-7236012Y6167501D01*
X-7252484Y6235400D01*
X-7229632Y6301427D01*
X-7174710Y6344618D01*
X-7128624Y6353500D01*
X-5749854Y6353500D01*
X-5682815Y6333815D01*
X-5637060Y6281011D01*
X-5627116Y6211853D01*
X-5656141Y6148297D01*
X-5687854Y6122113D01*
X-5731189Y6097094D01*
X-5805753Y6022530D01*
X-5858480Y5931205D01*
X-5858481Y5931202D01*
X-5885774Y5829342D01*
X-5885774Y5723888D01*
X-5858481Y5622028D01*
X-5805754Y5530702D01*
X-5731187Y5456135D01*
X-5639861Y5403408D01*
X-5538001Y5376115D01*
X-5490397Y5376115D01*
X-5423358Y5356430D01*
X-5402716Y5339796D01*
X-4747001Y4684081D01*
X-4713516Y4622758D01*
X-4718500Y4553066D01*
X-4760372Y4497133D01*
X-4825836Y4472716D01*
X-4834682Y4472400D01*
X-6253832Y4472400D01*
X-6320871Y4492085D01*
X-6366626Y4544889D01*
X-6376570Y4614047D01*
X-6347545Y4677603D01*
X-6315838Y4703784D01*
X-6307287Y4708720D01*
X-6232720Y4783287D01*
X-6179993Y4874613D01*
X-6152700Y4976473D01*
X-6152700Y5081927D01*
X-6179993Y5183787D01*
X-6232720Y5275113D01*
X-6307287Y5349680D01*
X-6398613Y5402407D01*
X-6500473Y5429700D01*
X-6605927Y5429700D01*
X-6707787Y5402407D01*
X-6707790Y5402406D01*
X-6799115Y5349679D01*
X-6873679Y5275115D01*
X-6926406Y5183790D01*
X-6926407Y5183787D01*
X-6953700Y5081927D01*
X-6953700Y4976473D01*
X-6926407Y4874613D01*
X-6873680Y4783287D01*
X-6799113Y4708720D01*
X-6790565Y4703785D01*
X-6742352Y4653219D01*
X-6729130Y4584612D01*
X-6755098Y4519748D01*
X-6812012Y4479220D01*
X-6852568Y4472400D01*
X-8381462Y4472400D01*
X-8473530Y4434264D01*
X-8473531Y4434263D01*
X-8668418Y4239375D01*
X-8729741Y4205890D01*
X-8756099Y4203056D01*
X-8803703Y4203056D01*
X-8905563Y4175763D01*
X-8905566Y4175762D01*
X-8996891Y4123035D01*
X-9071455Y4048471D01*
X-9124182Y3957146D01*
X-9124183Y3957143D01*
X-9151476Y3855283D01*
X-9151476Y3749829D01*
X-9125182Y3651700D01*
X-9124183Y3647970D01*
X-9124182Y3647967D01*
X-9110579Y3624406D01*
X-9071456Y3556643D01*
X-8996889Y3482076D01*
X-8905563Y3429349D01*
X-8803703Y3402056D01*
X-8803701Y3402056D01*
X-8698251Y3402056D01*
X-8698249Y3402056D01*
X-8596389Y3429349D01*
X-8505063Y3482076D01*
X-8472647Y3514492D01*
X-8411324Y3547977D01*
X-8341632Y3542993D01*
X-8297285Y3514492D01*
X-8296080Y3513287D01*
X-8221513Y3438720D01*
X-8130187Y3385993D01*
X-8028327Y3358700D01*
X-8028325Y3358700D01*
X-7922875Y3358700D01*
X-7922873Y3358700D01*
X-7821013Y3385993D01*
X-7729687Y3438720D01*
X-7655120Y3513287D01*
X-7602393Y3604613D01*
X-7575100Y3706473D01*
X-7575100Y3811927D01*
X-7576006Y3815309D01*
X-7575936Y3818271D01*
X-7576161Y3819983D01*
X-7575894Y3820019D01*
X-7574343Y3885157D01*
X-7535180Y3943019D01*
X-7470951Y3970523D01*
X-7456231Y3971400D01*
X-6987573Y3971400D01*
X-6920534Y3951715D01*
X-6874779Y3898911D01*
X-6864634Y3831216D01*
X-6865501Y3824630D01*
X-6865501Y3824627D01*
X-6865501Y3719173D01*
X-6838208Y3617313D01*
X-6785481Y3525987D01*
X-6710914Y3451420D01*
X-6619588Y3398693D01*
X-6517728Y3371400D01*
X-6470124Y3371400D01*
X-6403085Y3351715D01*
X-6382443Y3335081D01*
X-5828492Y2781130D01*
X-5795007Y2719807D01*
X-5799991Y2650115D01*
X-5828492Y2605768D01*
X-6023117Y2411142D01*
X-6084440Y2377657D01*
X-6154131Y2382641D01*
X-6198479Y2411142D01*
X-6313480Y2526143D01*
X-6507100Y2719764D01*
X-6558938Y2741236D01*
X-6599168Y2757900D01*
X-6599169Y2757900D01*
X-14071369Y2757900D01*
X-14171024Y2757900D01*
X-14171026Y2757900D01*
X-14263094Y2719764D01*
X-14263095Y2719763D01*
X-14393101Y2589756D01*
X-14454424Y2556271D01*
X-14480782Y2553437D01*
X-14528386Y2553437D01*
X-14630246Y2526144D01*
X-14630249Y2526143D01*
X-14721574Y2473416D01*
X-14796138Y2398852D01*
X-14848865Y2307527D01*
X-14848866Y2307524D01*
X-14876159Y2205664D01*
X-14876159Y2100210D01*
X-14848866Y1998350D01*
X-14796139Y1907024D01*
X-14721572Y1832457D01*
X-14630246Y1779730D01*
X-14528386Y1752437D01*
X-14528384Y1752437D01*
X-14422934Y1752437D01*
X-14422932Y1752437D01*
X-14321072Y1779730D01*
X-14229746Y1832457D01*
X-14155179Y1907024D01*
X-14102452Y1998350D01*
X-14075159Y2100210D01*
X-14075159Y2132900D01*
X-14055474Y2199939D01*
X-14002670Y2245694D01*
X-13951159Y2256900D01*
X-9945972Y2256900D01*
X-9878933Y2237215D01*
X-9833178Y2184411D01*
X-9823033Y2116716D01*
X-9823900Y2110130D01*
X-9823900Y2110127D01*
X-9823900Y2004673D01*
X-9796607Y1902813D01*
X-9743880Y1811487D01*
X-9669313Y1736920D01*
X-9585866Y1688742D01*
X-9537650Y1638175D01*
X-9524428Y1569568D01*
X-9550396Y1504703D01*
X-9560185Y1493674D01*
X-10074039Y979819D01*
X-10135362Y946334D01*
X-10161720Y943500D01*
X-12036369Y943500D01*
X-12103408Y963185D01*
X-12149163Y1015989D01*
X-12159107Y1085147D01*
X-12143759Y1129495D01*
X-12098193Y1208416D01*
X-12070900Y1310276D01*
X-12070900Y1415730D01*
X-12098193Y1517590D01*
X-12150920Y1608916D01*
X-12225487Y1683483D01*
X-12292341Y1722081D01*
X-12316811Y1736209D01*
X-12316812Y1736210D01*
X-12316813Y1736210D01*
X-12418673Y1763503D01*
X-12524127Y1763503D01*
X-12625987Y1736210D01*
X-12625990Y1736209D01*
X-12717315Y1683482D01*
X-12791879Y1608918D01*
X-12844606Y1517593D01*
X-12844607Y1517590D01*
X-12871900Y1415730D01*
X-12871900Y1310276D01*
X-12844607Y1208416D01*
X-12799043Y1129497D01*
X-12782571Y1061601D01*
X-12805423Y995574D01*
X-12860344Y952383D01*
X-12906431Y943500D01*
X-13971512Y943500D01*
X-14038551Y963185D01*
X-14084306Y1015989D01*
X-14085843Y1020181D01*
X-14086083Y1020081D01*
X-14089191Y1027583D01*
X-14089192Y1027588D01*
X-14141919Y1118914D01*
X-14216486Y1193481D01*
X-14307812Y1246208D01*
X-14409672Y1273501D01*
X-14515126Y1273501D01*
X-14616986Y1246208D01*
X-14616989Y1246207D01*
X-14708314Y1193480D01*
X-14782878Y1118916D01*
X-14835605Y1027591D01*
X-14835606Y1027588D01*
X-14862899Y925728D01*
X-14862899Y820274D01*
X-14835606Y718414D01*
X-14782879Y627088D01*
X-14708312Y552521D01*
X-14616986Y499794D01*
X-14515126Y472501D01*
X-14515124Y472501D01*
X-14429319Y472501D01*
X-14381865Y463061D01*
X-14353471Y451300D01*
X-14332226Y442500D01*
X-14332225Y442500D01*
X-12757922Y442500D01*
X-12690883Y422815D01*
X-12645128Y370011D01*
X-12635184Y300853D01*
X-12664209Y237297D01*
X-12695921Y211114D01*
X-12709146Y203479D01*
X-12783711Y128914D01*
X-12836438Y37589D01*
X-12836439Y37586D01*
X-12863732Y-64274D01*
X-12863732Y-169728D01*
X-12843318Y-245913D01*
X-12836439Y-271587D01*
X-12836438Y-271590D01*
X-12822310Y-296060D01*
X-12783712Y-362914D01*
X-12709145Y-437481D01*
X-12617819Y-490208D01*
X-12515959Y-517501D01*
X-12515957Y-517501D01*
X-12410507Y-517501D01*
X-12410505Y-517501D01*
X-12308645Y-490208D01*
X-12308639Y-490204D01*
X-12305918Y-489078D01*
X-12303431Y-488810D01*
X-12300794Y-488104D01*
X-12300684Y-488515D01*
X-12236449Y-481606D01*
X-12173969Y-512879D01*
X-12138314Y-572966D01*
X-12140805Y-642792D01*
X-12170780Y-691318D01*
X-12617442Y-1137981D01*
X-12678765Y-1171466D01*
X-12705123Y-1174300D01*
X-12752727Y-1174300D01*
X-12854587Y-1201593D01*
X-12854590Y-1201594D01*
X-12945915Y-1254321D01*
X-13020479Y-1328885D01*
X-13073206Y-1420210D01*
X-13073207Y-1420213D01*
X-13100500Y-1522073D01*
X-13100500Y-1627527D01*
X-13099140Y-1632606D01*
X-13100800Y-1702453D01*
X-13139961Y-1760316D01*
X-13204188Y-1787823D01*
X-13218913Y-1788700D01*
X-13491878Y-1788700D01*
X-13558917Y-1769015D01*
X-13579559Y-1752381D01*
X-13942151Y-1389789D01*
X-14309103Y-1022836D01*
X-14311363Y-1021900D01*
X-14401171Y-984700D01*
X-14401172Y-984700D01*
X-14618745Y-984700D01*
X-14685784Y-965015D01*
X-14706426Y-948381D01*
X-14740086Y-914721D01*
X-14740087Y-914720D01*
X-14831413Y-861993D01*
X-14933273Y-834700D01*
X-15038727Y-834700D01*
X-15140587Y-861993D01*
X-15140590Y-861994D01*
X-15231915Y-914721D01*
X-15306479Y-989285D01*
X-15359206Y-1080610D01*
X-15359207Y-1080613D01*
X-15386500Y-1182473D01*
X-16131037Y-1182473D01*
X-16169480Y-399973D01*
X-16169629Y-393889D01*
X-16169629Y393890D01*
X-16169480Y399974D01*
X-16167391Y442502D01*
X-16130822Y1186875D01*
X-16130380Y1192865D01*
X-16053157Y1976920D01*
X-16052414Y1982941D01*
X-16052114Y1984959D01*
X-15936817Y2762237D01*
X-15935777Y2768221D01*
X-15927669Y2808981D01*
X-15782086Y3540881D01*
X-15780764Y3546768D01*
X-15589333Y4311004D01*
X-15587713Y4316857D01*
X-15578486Y4347274D01*
X-15359017Y5070768D01*
X-15357113Y5076527D01*
X-15091714Y5818267D01*
X-15089541Y5823903D01*
X-14788043Y6551784D01*
X-14785600Y6557297D01*
X-14714546Y6707527D01*
X-13811700Y6707527D01*
X-13811700Y6602073D01*
X-13784407Y6500213D01*
X-13731680Y6408887D01*
X-13657113Y6334320D01*
X-13565787Y6281593D01*
X-13463927Y6254300D01*
X-13463925Y6254300D01*
X-13358475Y6254300D01*
X-13358473Y6254300D01*
X-13256613Y6281593D01*
X-13165287Y6334320D01*
X-13090720Y6408887D01*
X-13037993Y6500213D01*
X-13010700Y6602073D01*
X-13010700Y6707527D01*
X-13037993Y6809387D01*
X-13090720Y6900713D01*
X-13165287Y6975280D01*
X-13240124Y7018487D01*
X-13256611Y7028006D01*
X-13256612Y7028007D01*
X-13256613Y7028007D01*
X-13358473Y7055300D01*
X-13463927Y7055300D01*
X-13565787Y7028007D01*
X-13565790Y7028006D01*
X-13657115Y6975279D01*
X-13731679Y6900715D01*
X-13784406Y6809390D01*
X-13784407Y6809387D01*
X-13811700Y6707527D01*
X-14714546Y6707527D01*
X-14448744Y7269517D01*
X-14446025Y7274917D01*
X-14074646Y7969720D01*
X-14071673Y7974968D01*
X-13666625Y8650750D01*
X-13663422Y8655807D01*
X-13225706Y9310897D01*
X-13222217Y9315849D01*
X-13188229Y9361677D01*
X-11451158Y9361677D01*
X-11451158Y9210146D01*
X-11411939Y9063775D01*
X-11374056Y8998161D01*
X-11336173Y8932546D01*
X-11229023Y8825396D01*
X-11097793Y8749630D01*
X-10951424Y8710411D01*
X-10951422Y8710411D01*
X-10799894Y8710411D01*
X-10799892Y8710411D01*
X-10653523Y8749630D01*
X-10522293Y8825396D01*
X-10415143Y8932546D01*
X-10339377Y9063776D01*
X-10300158Y9210145D01*
X-10300158Y9361677D01*
X-10339377Y9508046D01*
X-10415143Y9639276D01*
X-10522293Y9746426D01*
X-10587908Y9784309D01*
X-10653522Y9822192D01*
X-10737876Y9844794D01*
X-10799892Y9861411D01*
X-10951424Y9861411D01*
X-11097795Y9822192D01*
X-11229023Y9746426D01*
X-11229026Y9746424D01*
X-11336171Y9639279D01*
X-11336173Y9639276D01*
X-11411939Y9508048D01*
X-11451158Y9361677D01*
X-13188229Y9361677D01*
X-13127420Y9443668D01*
X-13127418Y9443671D01*
X-12752906Y9948642D01*
X-12749185Y9953409D01*
X-12668185Y10052107D01*
X-9081486Y10052107D01*
X-9081486Y9946653D01*
X-9054193Y9844793D01*
X-9001466Y9753467D01*
X-8926899Y9678900D01*
X-8835573Y9626173D01*
X-8733713Y9598880D01*
X-8686109Y9598880D01*
X-8619070Y9579195D01*
X-8598428Y9562561D01*
X-7645619Y8609752D01*
X-7612134Y8548429D01*
X-7609300Y8522071D01*
X-7609300Y8501374D01*
X-7571164Y8409306D01*
X-7314632Y8152775D01*
X-7314629Y8152771D01*
X-7307561Y8145703D01*
X-7237094Y8075236D01*
X-7145025Y8037100D01*
X-7124329Y8037100D01*
X-7057290Y8017415D01*
X-7036648Y8000781D01*
X-7002303Y7966436D01*
X-6910234Y7928300D01*
X-2881219Y7928300D01*
X-2814180Y7908615D01*
X-2768425Y7855811D01*
X-2758481Y7786653D01*
X-2761441Y7772222D01*
X-2788100Y7672727D01*
X-2788100Y7567273D01*
X-2760807Y7465413D01*
X-2708080Y7374087D01*
X-2633513Y7299520D01*
X-2542187Y7246793D01*
X-2440327Y7219500D01*
X-2440325Y7219500D01*
X-2334875Y7219500D01*
X-2334873Y7219500D01*
X-2233013Y7246793D01*
X-2141687Y7299520D01*
X-2067120Y7374087D01*
X-2014393Y7465413D01*
X-1987100Y7567273D01*
X-1987100Y7672727D01*
X-2013756Y7772210D01*
X-2012093Y7842056D01*
X-1972931Y7899919D01*
X-1908702Y7927423D01*
X-1893981Y7928300D01*
X1817947Y7928300D01*
X1884986Y7908615D01*
X1905628Y7891981D01*
X2400181Y7397429D01*
X2411063Y7377500D01*
X2425775Y7360195D01*
X2429130Y7344413D01*
X2433666Y7336106D01*
X2435399Y7326238D01*
X2436500Y7318033D01*
X2436500Y7262143D01*
X2451520Y7206084D01*
X2452580Y7198190D01*
X2448442Y7171220D01*
X2447793Y7143944D01*
X2443221Y7137190D01*
X2441985Y7129128D01*
X2423924Y7108678D01*
X2408631Y7086081D01*
X2401132Y7082871D01*
X2395735Y7076758D01*
X2369488Y7069320D01*
X2344403Y7058577D01*
X2329681Y7057700D01*
X1982170Y7057700D01*
X1940647Y7040500D01*
X1890103Y7019564D01*
X1890102Y7019564D01*
X1878820Y7014890D01*
X1877264Y7018645D01*
X1832168Y7004520D01*
X1829944Y7004500D01*
X1776073Y7004500D01*
X1674213Y6977207D01*
X1674210Y6977206D01*
X1582885Y6924479D01*
X1549226Y6890819D01*
X1487903Y6857334D01*
X1461545Y6854500D01*
X694576Y6854500D01*
X627537Y6874185D01*
X581782Y6926989D01*
X571838Y6996147D01*
X587189Y7040500D01*
X595734Y7055300D01*
X627207Y7109813D01*
X654500Y7211673D01*
X654500Y7317127D01*
X627207Y7418987D01*
X574480Y7510313D01*
X499913Y7584880D01*
X408587Y7637607D01*
X306727Y7664900D01*
X201273Y7664900D01*
X99413Y7637607D01*
X99410Y7637606D01*
X50528Y7609384D01*
X22777Y7593362D01*
X-39221Y7576749D01*
X-558466Y7576749D01*
X-599507Y7584912D01*
X-599562Y7584703D01*
X-602749Y7585557D01*
X-605917Y7586187D01*
X-607411Y7586806D01*
X-607413Y7586807D01*
X-709273Y7614100D01*
X-814727Y7614100D01*
X-916587Y7586807D01*
X-916590Y7586806D01*
X-1007915Y7534079D01*
X-1082479Y7459515D01*
X-1135206Y7368190D01*
X-1135207Y7368188D01*
X-1137374Y7360100D01*
X-1151529Y7307276D01*
X-1187892Y7247617D01*
X-1250738Y7217087D01*
X-1271302Y7215370D01*
X-1327727Y7215370D01*
X-1429587Y7188077D01*
X-1429590Y7188076D01*
X-1520915Y7135349D01*
X-1595479Y7060785D01*
X-1648206Y6969460D01*
X-1651316Y6961950D01*
X-1654289Y6963182D01*
X-1682781Y6916410D01*
X-1745621Y6885864D01*
X-1766215Y6884142D01*
X-1857743Y6884142D01*
X-1959603Y6856849D01*
X-1959606Y6856848D01*
X-2050931Y6804121D01*
X-2125495Y6729557D01*
X-2178222Y6638232D01*
X-2178223Y6638229D01*
X-2205516Y6536369D01*
X-2205516Y6430915D01*
X-2178223Y6329055D01*
X-2127809Y6241735D01*
X-2125495Y6237728D01*
X-2082924Y6195157D01*
X-2049439Y6133834D01*
X-2054423Y6064142D01*
X-2096295Y6008209D01*
X-2138511Y5987701D01*
X-2237389Y5961207D01*
X-2237390Y5961206D01*
X-2328715Y5908479D01*
X-2403279Y5833915D01*
X-2456006Y5742590D01*
X-2456007Y5742587D01*
X-2483300Y5640727D01*
X-2483300Y5535273D01*
X-2456007Y5433413D01*
X-2403280Y5342087D01*
X-2328713Y5267520D01*
X-2237387Y5214793D01*
X-2135527Y5187500D01*
X-2135525Y5187500D01*
X-2030075Y5187500D01*
X-2030073Y5187500D01*
X-1928213Y5214793D01*
X-1907959Y5226488D01*
X-1845958Y5243100D01*
X1835026Y5243100D01*
X1835028Y5243100D01*
X1927097Y5281236D01*
X2012818Y5366958D01*
X2074137Y5400440D01*
X2143829Y5395456D01*
X2199763Y5353585D01*
X2207880Y5341279D01*
X2260004Y5250997D01*
X2334571Y5176430D01*
X2425897Y5123703D01*
X2527757Y5096410D01*
X2527759Y5096410D01*
X2633209Y5096410D01*
X2633211Y5096410D01*
X2735071Y5123703D01*
X2826397Y5176430D01*
X2900964Y5250997D01*
X2953691Y5342323D01*
X2980984Y5444183D01*
X2980984Y5549637D01*
X2953691Y5651497D01*
X2900964Y5742823D01*
X2826397Y5817390D01*
X2791006Y5837823D01*
X2742793Y5888389D01*
X2729571Y5956996D01*
X2733235Y5977303D01*
X2734672Y5982666D01*
X2737300Y5992473D01*
X2737300Y6097927D01*
X2710007Y6199787D01*
X2657280Y6291113D01*
X2603374Y6345019D01*
X2592761Y6364456D01*
X2578261Y6381189D01*
X2576344Y6394521D01*
X2569889Y6406342D01*
X2571468Y6428429D01*
X2568317Y6450347D01*
X2573912Y6462599D01*
X2574873Y6476034D01*
X2588143Y6493761D01*
X2597342Y6513903D01*
X2608673Y6521186D01*
X2616745Y6531967D01*
X2637490Y6539705D01*
X2656120Y6551677D01*
X2678038Y6554829D01*
X2682209Y6556384D01*
X2691055Y6556700D01*
X2855897Y6556700D01*
X2922936Y6537015D01*
X2968691Y6484211D01*
X2978635Y6415053D01*
X2975672Y6400608D01*
X2964772Y6359929D01*
X2964772Y6359927D01*
X2964772Y6254473D01*
X2989239Y6163162D01*
X2992065Y6152614D01*
X2992066Y6152611D01*
X2994310Y6148725D01*
X3044792Y6061287D01*
X3119359Y5986720D01*
X3210685Y5933993D01*
X3312545Y5906700D01*
X3312547Y5906700D01*
X3417997Y5906700D01*
X3417999Y5906700D01*
X3519859Y5933993D01*
X3611185Y5986720D01*
X3628176Y6003712D01*
X3689496Y6037197D01*
X3759188Y6032214D01*
X3777851Y6023421D01*
X3858613Y5976793D01*
X3960473Y5949500D01*
X3960475Y5949500D01*
X4065925Y5949500D01*
X4065927Y5949500D01*
X4167787Y5976793D01*
X4259113Y6029520D01*
X4333680Y6104087D01*
X4348349Y6129496D01*
X4398915Y6177709D01*
X4467522Y6190933D01*
X4532386Y6164965D01*
X4563121Y6129495D01*
X4607120Y6053287D01*
X4681687Y5978720D01*
X4773013Y5925993D01*
X4874873Y5898700D01*
X4874875Y5898700D01*
X4980325Y5898700D01*
X4980327Y5898700D01*
X5082187Y5925993D01*
X5173513Y5978720D01*
X5248080Y6053287D01*
X5291474Y6128449D01*
X5342040Y6176663D01*
X5410647Y6189886D01*
X5475512Y6163918D01*
X5512249Y6112326D01*
X5513684Y6112920D01*
X5516794Y6105411D01*
X5517559Y6104086D01*
X5569520Y6014087D01*
X5644087Y5939520D01*
X5735413Y5886793D01*
X5837273Y5859500D01*
X5837275Y5859500D01*
X5942725Y5859500D01*
X5942727Y5859500D01*
X6044587Y5886793D01*
X6135913Y5939520D01*
X6145574Y5949181D01*
X6206897Y5982666D01*
X6233255Y5985500D01*
X6574877Y5985500D01*
X6641916Y5965815D01*
X6662558Y5949181D01*
X6728103Y5883636D01*
X6820172Y5845500D01*
X10757945Y5845500D01*
X10824984Y5825815D01*
X10845626Y5809181D01*
X10879287Y5775520D01*
X10970613Y5722793D01*
X11072473Y5695500D01*
X11072475Y5695500D01*
X11177925Y5695500D01*
X11177927Y5695500D01*
X11279787Y5722793D01*
X11371113Y5775520D01*
X11445680Y5850087D01*
X11498407Y5941413D01*
X11525700Y6043273D01*
X11525700Y6148727D01*
X11498407Y6250587D01*
X11445680Y6341913D01*
X11371113Y6416480D01*
X11292639Y6461787D01*
X11279789Y6469206D01*
X11279788Y6469207D01*
X11279787Y6469207D01*
X11177927Y6496500D01*
X11072473Y6496500D01*
X10970613Y6469207D01*
X10970610Y6469206D01*
X10879285Y6416479D01*
X10845626Y6382819D01*
X10784303Y6349334D01*
X10757945Y6346500D01*
X10257224Y6346500D01*
X10190185Y6366185D01*
X10144430Y6418989D01*
X10134486Y6488147D01*
X10163511Y6551703D01*
X10205958Y6582312D01*
X10205948Y6582329D01*
X10206120Y6582429D01*
X10209771Y6585061D01*
X10212980Y6586392D01*
X10212987Y6586393D01*
X10304313Y6639120D01*
X10378880Y6713687D01*
X10431607Y6805013D01*
X10458900Y6906873D01*
X10458900Y7012327D01*
X10431607Y7114187D01*
X10378880Y7205513D01*
X10304313Y7280080D01*
X10212987Y7332807D01*
X10111127Y7360100D01*
X10005673Y7360100D01*
X9903813Y7332807D01*
X9903810Y7332806D01*
X9812485Y7280079D01*
X9737921Y7205515D01*
X9688376Y7119700D01*
X9637809Y7071484D01*
X9580989Y7057700D01*
X3344319Y7057700D01*
X3277280Y7077385D01*
X3231525Y7130189D01*
X3221581Y7199347D01*
X3224540Y7213777D01*
X3237500Y7262143D01*
X3237500Y7367597D01*
X3210207Y7469457D01*
X3157480Y7560783D01*
X3082913Y7635350D01*
X2991587Y7688077D01*
X2889727Y7715370D01*
X2889726Y7715370D01*
X2842122Y7715370D01*
X2775083Y7735055D01*
X2754441Y7751689D01*
X2114967Y8391164D01*
X2022899Y8429300D01*
X2022898Y8429300D01*
X-6705283Y8429300D01*
X-6772322Y8448985D01*
X-6792964Y8465619D01*
X-6827309Y8499964D01*
X-6919377Y8538100D01*
X-6919378Y8538100D01*
X-6940074Y8538100D01*
X-6969512Y8546745D01*
X-6999502Y8553268D01*
X-7004518Y8557023D01*
X-7007113Y8557785D01*
X-7027756Y8574420D01*
X-7071982Y8618647D01*
X-7105467Y8679970D01*
X-7108300Y8706327D01*
X-7108300Y8727021D01*
X-7108301Y8727024D01*
X-7146436Y8819091D01*
X-7216903Y8889558D01*
X-7689022Y9361677D01*
X10300158Y9361677D01*
X10300158Y9210146D01*
X10339377Y9063775D01*
X10377260Y8998161D01*
X10415143Y8932546D01*
X10522293Y8825396D01*
X10653523Y8749630D01*
X10799892Y8710411D01*
X10799894Y8710411D01*
X10951422Y8710411D01*
X10951424Y8710411D01*
X11097793Y8749630D01*
X11229023Y8825396D01*
X11336173Y8932546D01*
X11411939Y9063776D01*
X11451158Y9210145D01*
X11451158Y9361677D01*
X11411939Y9508046D01*
X11336173Y9639276D01*
X11229023Y9746426D01*
X11163408Y9784309D01*
X11097794Y9822192D01*
X11013440Y9844794D01*
X10951424Y9861411D01*
X10799892Y9861411D01*
X10653521Y9822192D01*
X10522293Y9746426D01*
X10522290Y9746424D01*
X10415145Y9639279D01*
X10415143Y9639276D01*
X10339377Y9508048D01*
X10300158Y9361677D01*
X-7689022Y9361677D01*
X-8244167Y9916822D01*
X-8255420Y9937429D01*
X-8269280Y9953425D01*
X-8271425Y9963285D01*
X-8275463Y9969568D01*
X-8276355Y9975769D01*
X-8277652Y9978145D01*
X-8279659Y9996809D01*
X-3350500Y9996809D01*
X-3350500Y9878191D01*
X-3319799Y9763614D01*
X-3260489Y9660887D01*
X-3176613Y9577011D01*
X-3073886Y9517701D01*
X-2959309Y9487000D01*
X-2959306Y9487000D01*
X-2840694Y9487000D01*
X-2840691Y9487000D01*
X-2726114Y9517701D01*
X-2623387Y9577011D01*
X-2539511Y9660887D01*
X-2480201Y9763614D01*
X-2449500Y9878191D01*
X-2449500Y9996809D01*
X2429500Y9996809D01*
X2429500Y9878191D01*
X2460201Y9763614D01*
X2519511Y9660887D01*
X2603387Y9577011D01*
X2706114Y9517701D01*
X2820691Y9487000D01*
X2820694Y9487000D01*
X2939306Y9487000D01*
X2939309Y9487000D01*
X3053886Y9517701D01*
X3156613Y9577011D01*
X3240489Y9660887D01*
X3299799Y9763614D01*
X3330500Y9878191D01*
X3330500Y9996809D01*
X3315683Y10052107D01*
X8280486Y10052107D01*
X8280486Y9946653D01*
X8307779Y9844793D01*
X8360506Y9753467D01*
X8435073Y9678900D01*
X8526399Y9626173D01*
X8628259Y9598880D01*
X8628261Y9598880D01*
X8733711Y9598880D01*
X8733713Y9598880D01*
X8835573Y9626173D01*
X8926899Y9678900D01*
X9001466Y9753467D01*
X9054193Y9844793D01*
X9081486Y9946653D01*
X9081486Y10052107D01*
X9054193Y10153967D01*
X9001466Y10245293D01*
X8926899Y10319860D01*
X8835573Y10372587D01*
X8733713Y10399880D01*
X8628259Y10399880D01*
X8526399Y10372587D01*
X8526396Y10372586D01*
X8435071Y10319859D01*
X8360507Y10245295D01*
X8307780Y10153970D01*
X8307779Y10153967D01*
X8280486Y10052107D01*
X3315683Y10052107D01*
X3299799Y10111386D01*
X3240489Y10214113D01*
X3156613Y10297989D01*
X3053886Y10357299D01*
X2939309Y10388000D01*
X2820691Y10388000D01*
X2706114Y10357299D01*
X2706112Y10357299D01*
X2706112Y10357298D01*
X2603387Y10297989D01*
X2603384Y10297987D01*
X2519513Y10214116D01*
X2519511Y10214113D01*
X2460201Y10111386D01*
X2429500Y9996809D01*
X-2449500Y9996809D01*
X-2480201Y10111386D01*
X-2539511Y10214113D01*
X-2623387Y10297989D01*
X-2726114Y10357299D01*
X-2840691Y10388000D01*
X-2959309Y10388000D01*
X-3073886Y10357299D01*
X-3073888Y10357299D01*
X-3073888Y10357298D01*
X-3176613Y10297989D01*
X-3176616Y10297987D01*
X-3260487Y10214116D01*
X-3260489Y10214113D01*
X-3319799Y10111386D01*
X-3350500Y9996809D01*
X-8279659Y9996809D01*
X-8280486Y10004503D01*
X-8280486Y10052105D01*
X-8280486Y10052107D01*
X-8307779Y10153967D01*
X-8360506Y10245293D01*
X-8435073Y10319860D01*
X-8526399Y10372587D01*
X-8628259Y10399880D01*
X-8733713Y10399880D01*
X-8835573Y10372587D01*
X-8835576Y10372586D01*
X-8926901Y10319859D01*
X-9001465Y10245295D01*
X-9054192Y10153970D01*
X-9054193Y10153967D01*
X-9081486Y10052107D01*
X-12668185Y10052107D01*
X-12249392Y10562407D01*
X-12245442Y10566987D01*
X-11716358Y11150742D01*
X-11712199Y11155110D01*
X-11155110Y11712199D01*
X-11150742Y11716358D01*
X-10674658Y12147855D01*
X-8241842Y12147855D01*
X-8241842Y11996324D01*
X-8202623Y11849953D01*
X-8164740Y11784339D01*
X-8126857Y11718724D01*
X-8019707Y11611574D01*
X-7888477Y11535808D01*
X-7742108Y11496589D01*
X-7742106Y11496589D01*
X-7590578Y11496589D01*
X-7590576Y11496589D01*
X-7444207Y11535808D01*
X-7312977Y11611574D01*
X-7205827Y11718724D01*
X-7130061Y11849954D01*
X-7090842Y11996323D01*
X-7090842Y12147855D01*
X7090842Y12147855D01*
X7090842Y11996324D01*
X7130061Y11849953D01*
X7167944Y11784339D01*
X7205827Y11718724D01*
X7312977Y11611574D01*
X7444207Y11535808D01*
X7590576Y11496589D01*
X7590578Y11496589D01*
X7742106Y11496589D01*
X7742108Y11496589D01*
X7888477Y11535808D01*
X8019707Y11611574D01*
X8126857Y11718724D01*
X8202623Y11849954D01*
X8241842Y11996323D01*
X8241842Y12147855D01*
X8202623Y12294224D01*
X8126857Y12425454D01*
X8019707Y12532604D01*
X7954092Y12570487D01*
X7888478Y12608370D01*
X7815292Y12627980D01*
X7742108Y12647589D01*
X7590576Y12647589D01*
X7444205Y12608370D01*
X7312977Y12532604D01*
X7312974Y12532602D01*
X7205829Y12425457D01*
X7205827Y12425454D01*
X7130061Y12294226D01*
X7090842Y12147855D01*
X-7090842Y12147855D01*
X-7130061Y12294224D01*
X-7205827Y12425454D01*
X-7312977Y12532604D01*
X-7378592Y12570487D01*
X-7444206Y12608370D01*
X-7517392Y12627980D01*
X-7590576Y12647589D01*
X-7742108Y12647589D01*
X-7888479Y12608370D01*
X-8019707Y12532604D01*
X-8019710Y12532602D01*
X-8126855Y12425457D01*
X-8126857Y12425454D01*
X-8202623Y12294226D01*
X-8241842Y12147855D01*
X-10674658Y12147855D01*
X-10566987Y12245442D01*
X-10562421Y12249381D01*
X-9953409Y12749185D01*
X-9948642Y12752906D01*
X-9315826Y13222235D01*
X-9310897Y13225706D01*
X-8655807Y13663422D01*
X-8650750Y13666625D01*
X-7974968Y14071673D01*
X-7969720Y14074646D01*
X-7274917Y14446025D01*
X-7269517Y14448744D01*
X-6557297Y14785600D01*
X-6551784Y14788043D01*
X-5823903Y15089541D01*
X-5818267Y15091714D01*
X-5076508Y15357120D01*
X-5070768Y15359017D01*
X-4316845Y15587717D01*
X-4311004Y15589333D01*
X-3546768Y15780764D01*
X-3540881Y15782086D01*
X-2768208Y15935780D01*
X-2762237Y15936817D01*
X-1982922Y16052417D01*
X-1976920Y16053157D01*
X-1192865Y16130380D01*
X-1186875Y16130822D01*
X-434794Y16167770D01*
X-399974Y16169480D01*
X-393890Y16169629D01*
X393890Y16169629D01*
X399974Y16169480D01*
G37*
%TD.AperFunction*%
%TD*%
M02*
