M48
; DRILL file KiCad 10.0.1 date 2026-05-06T10:39:13
; FORMAT={-:-/ absolute / inch / decimal}
; #@! TF.CreationDate,2026-05-06T10:39:13-04:00
; #@! TF.GenerationSoftware,Kicad,Pcbnew,10.0.1
; #@! TF.FileFunction,Plated,1,4,PTH
FMAT,2
INCH
; #@! TA.AperFunction,Plated,PTH,ViaDrill
T1C0.0098
; #@! TA.AperFunction,Plated,PTH,ComponentDrill
T2C0.0098
%
G90
G05
T1
X-0.59Y-0.0486
X-0.59Y-0.088
X-0.5699Y0.0848
X-0.5694Y0.0344
X-0.536Y-0.1438
X-0.531Y-0.0139
X-0.528Y0.262
X-0.506Y-0.318
X-0.5Y-0.062
X-0.491Y0.0537
X-0.4907Y-0.0046
X-0.49Y-0.098
X-0.46Y0.18
X-0.4469Y0.3031
X-0.444Y-0.1438
X-0.44Y0.045
X-0.4263Y-0.1711
X-0.426Y-0.222
X-0.392Y-0.194
X-0.371Y0.081
X-0.3641Y-0.0563
X-0.3453Y0.0452
X-0.3445Y0.1497
X-0.3438Y0.0202
X-0.3418Y0.3937
X-0.3418Y-0.3885
X-0.34Y0.26
X-0.33Y-0.152
X-0.33Y-0.294
X-0.3299Y-0.0721
X-0.3185Y0.0058
X-0.314Y0.148
X-0.312Y0.313
X-0.298Y0.234
X-0.28Y0.52
X-0.274Y-0.21
X-0.2677Y0.3602
X-0.258Y0.198
X-0.2545Y0.1485
X-0.252Y-0.372
X-0.2477Y0.1097
X-0.2334Y-0.104
X-0.2334Y-0.172
X-0.232Y-0.076
X-0.216Y0.2274
X-0.2143Y-0.2277
X-0.192Y-0.104
X-0.19Y-0.59
X-0.1878Y-0.2698
X-0.1784Y-0.1641
X-0.176Y0.148
X-0.155Y-0.0325
X-0.146Y0.262
X-0.145Y-0.4239
X-0.1402Y-0.1054
X-0.132Y0.134
X-0.1283Y0.226
X-0.12Y-0.6
X-0.114Y-0.274
X-0.1125Y-0.4062
X-0.11Y0.0839
X-0.094Y0.3
X-0.0848Y0.1591
X-0.082Y0.22
X-0.076Y-0.144
X-0.0756Y-0.1161
X-0.0711Y0.2553
X-0.0502Y0.2683
X-0.05Y-0.6
X-0.0496Y0.1343
X-0.036Y-0.266
X-0.03Y0.284
X-0.022Y0.055
X-0.0205Y0.1506
X-0.018Y0.11
X-0.016Y-0.4331
X-0.016Y-0.378
X-0.016Y-0.48
X-0.0094Y0.2707
X-0.008Y-0.252
X-0.0043Y-0.031
X-0.002Y-0.119
X0.01Y0.286
X0.03Y0.24
X0.03Y-0.6
X0.0345Y-0.1902
X0.0367Y-0.292
X0.0512Y-0.3562
X0.0546Y0.234
X0.06Y0.128
X0.061Y0.0917
X0.061Y0.0
X0.061Y-0.0866
X0.0645Y-0.2595
X0.072Y0.26
X0.076Y-0.374
X0.08Y-0.2949
X0.0866Y-0.2478
X0.092Y0.238
X0.1Y-0.6
X0.1016Y0.2164
X0.104Y0.002
X0.104Y-0.044
X0.104Y-0.128
X0.104Y-0.176
X0.104Y-0.292
X0.1043Y0.1732
X0.1117Y0.288
X0.114Y-0.3863
X0.116Y-0.0866
X0.1325Y0.2483
X0.1405Y-0.2541
X0.144Y-0.4217
X0.146Y0.128
X0.146Y-0.206
X0.1476Y0.1732
X0.1476Y-0.1299
X0.148Y-0.174
X0.15Y-0.6
X0.158Y0.25
X0.1749Y-0.0293
X0.186Y-0.128
X0.189Y0.0383
X0.19Y-0.175
X0.1909Y0.0866
X0.194Y0.248
X0.196Y-0.272
X0.2319Y0.2465
X0.234Y0.131
X0.2343Y0.0217
X0.2343Y-0.0217
X0.2343Y-0.0866
X0.235Y-0.13
X0.236Y-0.174
X0.26Y-0.48
X0.26Y-0.53
X0.2697Y0.3602
X0.2707Y0.5335
X0.2717Y-0.4328
X0.2717Y-0.4564
X0.276Y-0.13
X0.276Y-0.174
X0.28Y0.13
X0.284Y-0.316
X0.32Y-0.06
X0.32Y-0.088
X0.3239Y-0.1261
X0.3354Y-0.3312
X0.3418Y0.3937
X0.3418Y-0.3937
X0.342Y-0.224
X0.362Y0.086
X0.3642Y0.1299
X0.3642Y-0.0866
X0.3642Y-0.1299
X0.3642Y-0.1732
X0.3663Y-0.2067
X0.3807Y-0.239
X0.396Y0.274
X0.4035Y-0.3287
X0.406Y0.128
X0.406Y0.0591
X0.406Y-0.088
X0.408Y0.172
X0.4291Y-0.1518
X0.432Y-0.056
X0.438Y0.24
X0.4449Y0.2992
X0.4508Y-0.1299
X0.4724Y0.3435
X0.482Y0.272
X0.486Y-0.27
X0.506Y-0.326
X0.508Y0.304
X0.508Y0.256
X0.51Y0.23
X0.518Y-0.286
X0.526Y-0.24
X0.532Y0.268
X0.548Y0.232
T2
X0.2926Y-0.2493
X0.2926Y-0.2807
M30
