%TF.GenerationSoftware,KiCad,Pcbnew,10.0.1*%
%TF.CreationDate,2026-05-25T18:55:02-04:00*%
%TF.ProjectId,Smart_Watch,536d6172-745f-4576-9174-63682e6b6963,rev?*%
%TF.SameCoordinates,Original*%
%TF.FileFunction,Copper,L2,Inr*%
%TF.FilePolarity,Positive*%
%FSLAX46Y46*%
G04 Gerber Fmt 4.6, Leading zero omitted, Abs format (unit mm)*
G04 Created by KiCad (PCBNEW 10.0.1) date 2026-05-25 18:55:02*
%MOMM*%
%LPD*%
G01*
G04 APERTURE LIST*
%TA.AperFunction,ComponentPad*%
%ADD10C,0.500000*%
%TD*%
%TA.AperFunction,ViaPad*%
%ADD11C,0.500000*%
%TD*%
%TA.AperFunction,Conductor*%
%ADD12C,0.200000*%
%TD*%
G04 APERTURE END LIST*
D10*
%TO.N,GND*%
%TO.C,U2*%
X7431999Y-6331001D03*
X7431999Y-7130999D03*
%TD*%
D11*
%TO.N,PGND2*%
X-6465001Y3771900D03*
X-457200Y2794000D03*
%TO.N,GND*%
X-5638800Y-7975600D03*
X-7112000Y13208000D03*
X13360400Y-6096000D03*
X5950000Y550000D03*
X2641600Y-3251200D03*
X-9900000Y-3900000D03*
X-13487400Y-351998D03*
X-3606800Y-5784000D03*
X3810000Y-15240000D03*
X-50800Y-3022600D03*
X-5835856Y-6813344D03*
X-4531500Y-4169000D03*
X11450000Y-2200000D03*
X-558800Y1397000D03*
X6875000Y13550000D03*
X2540000Y-15240000D03*
X-6800000Y9150000D03*
X-14986000Y-2235200D03*
X-4978400Y-7924800D03*
X12954000Y5842000D03*
X-3048000Y-15240000D03*
X6850000Y9150000D03*
X-6959600Y-13868400D03*
X-5588000Y254000D03*
X13157200Y-7264400D03*
X11300000Y7600000D03*
X-11350000Y7700000D03*
X5950000Y-550000D03*
X-5928500Y-4368800D03*
X13512800Y6807200D03*
X12242800Y6908800D03*
X13919200Y5892800D03*
X-11176000Y1143000D03*
X12000000Y8725000D03*
X12903200Y7721600D03*
X-3258400Y5740400D03*
X12903200Y6502400D03*
X12852400Y-8280400D03*
X-7925000Y7950000D03*
X12344400Y-6858000D03*
X-6292000Y2786800D03*
%TO.N,+1V8*%
X6880000Y7257200D03*
X-9423400Y2057400D03*
X-7315938Y-9246338D03*
X9303600Y-5249667D03*
X4800000Y972400D03*
X-2153756Y4041603D03*
X-8750976Y3802556D03*
X-10033000Y-5704400D03*
X1550000Y3250000D03*
X1642795Y2213603D03*
X-3708400Y-8578000D03*
%TO.N,/Architecture/MCU/SDA*%
X2580484Y5496910D03*
X-9248000Y-1430100D03*
X1930400Y-9499600D03*
X8686800Y-5689600D03*
X-7557199Y-5372799D03*
X10250000Y-8350000D03*
X-8771800Y1147000D03*
X1502796Y-2247203D03*
X-6732004Y-9598800D03*
%TO.N,/Architecture/MCU/SCL*%
X-9855200Y-4724400D03*
X2641600Y-1117600D03*
X-7721600Y-7467600D03*
X4013200Y6350000D03*
X2030916Y-7490601D03*
X7213600Y-8026400D03*
X-8733101Y512499D03*
X4443600Y-743207D03*
%TO.N,/Architecture/MCU/LPS_INT*%
X-7874000Y-4775200D03*
X875490Y-4831622D03*
X1550000Y0D03*
%TO.N,+3V0*%
X-2858000Y-10317447D03*
X-3352800Y3403600D03*
X-13614400Y-3652602D03*
X-13411200Y6654800D03*
X-3708400Y6654800D03*
X-8636000Y6604000D03*
X-12852400Y-8077200D03*
%TO.N,/Architecture/MCU/BTN_2*%
X-8680986Y9999380D03*
X2641600Y50800D03*
X2837000Y7314870D03*
%TO.N,VSYS*%
X-6553200Y5029200D03*
X-14986000Y-1235200D03*
X-5892800Y-1930400D03*
X-2794000Y2131101D03*
%TO.N,/Architecture/Peripherals/MOTOR+*%
X-12471400Y1363003D03*
X762000Y-15240000D03*
%TO.N,/Architecture/Peripherals/MOTOR-*%
X-12463232Y-117001D03*
X-1270000Y-15240000D03*
%TO.N,+BATT*%
X-5834800Y-2527593D03*
X-7569200Y5943600D03*
X-11684000Y4572000D03*
%TO.N,/Architecture/MCU/OPT_INT*%
X10312400Y1500000D03*
X9670200Y-6070600D03*
X4850000Y2200000D03*
%TO.N,/Architecture/MCU/VBUS_OUT*%
X-3562307Y-2676012D03*
X-5485274Y5776615D03*
X2650000Y4400000D03*
%TO.N,/Architecture/MCU/USBC_D+*%
X3750000Y4400000D03*
X3365272Y6307200D03*
X-762000Y7213600D03*
X254000Y7264400D03*
%TO.N,/Architecture/MCU/USBC_D-*%
X762000Y6096000D03*
X-238108Y6876249D03*
%TO.N,/Architecture/MCU/VBUS_IN*%
X-2387600Y7620000D03*
X-2082800Y5588000D03*
X2336800Y6045200D03*
X-4876800Y-2641600D03*
%TO.N,/Architecture/MCU/BTN_3*%
X8680986Y-9999380D03*
X1548788Y-1116373D03*
X1299767Y-9048273D03*
%TO.N,/Architecture/MCU/CTP_INT*%
X2641600Y-7416800D03*
X2641600Y-4470400D03*
%TO.N,/Architecture/MCU/DISPLAY_CLK*%
X2946400Y-2200000D03*
X2200001Y-6294416D03*
%TO.N,/Architecture/MCU/DISPLAY_DATA*%
X3759200Y-4419600D03*
X1638999Y-6590601D03*
%TO.N,/Architecture/MCU/DISPLAY_DC*%
X3750000Y-3300000D03*
X3568998Y-6454860D03*
%TO.N,/Architecture/MCU/BMI_INT*%
X3708400Y3251200D03*
X-3048000Y-9296400D03*
X-1259188Y3410369D03*
%TO.N,/Architecture/MCU/QSPI_IO2*%
X4826000Y-4445000D03*
X3657600Y-10711600D03*
%TO.N,/Architecture/MCU/QSPI_IO0*%
X4724400Y-3251200D03*
X-406400Y-9601200D03*
X2895600Y-9811600D03*
%TO.N,/Architecture/MCU/QSPI_CS*%
X6604000Y-13462000D03*
X5994400Y-4419600D03*
%TO.N,/Architecture/MCU/QSPI_IO1*%
X6604000Y-12192000D03*
X5969000Y-3302000D03*
%TO.N,/Architecture/MCU/MAX_INT*%
X5950000Y-2200000D03*
%TO.N,/Architecture/MCU/CTP_RST*%
X5943600Y3327000D03*
X932600Y-7416800D03*
X4978400Y-6908800D03*
%TO.N,/Architecture/MCU/QSPI_CLK*%
X6901600Y-10992489D03*
X7010400Y-4419600D03*
X-407629Y-11000526D03*
%TO.N,/Architecture/MCU/QSPI_IO3*%
X-406400Y-12192000D03*
X7010400Y-3302000D03*
X6901600Y-11592492D03*
%TO.N,/Architecture/MCU/BTN_4*%
X-8680986Y-9867447D03*
X8519929Y-8412313D03*
X7112000Y3302000D03*
%TO.N,/Architecture/MCU/BTN_1*%
X8227554Y-3202446D03*
X8680986Y9999380D03*
%TO.N,/Architecture/MCU/DISPLAY_LIGHT_IO*%
X8128000Y-2235200D03*
X-12700000Y-1574800D03*
%TO.N,/Architecture/MCU/PMIC_INT*%
X9250000Y-4400000D03*
X-6705600Y-4876800D03*
X-7975600Y3759200D03*
%TO.N,/Architecture/MCU/SWDIO*%
X9250000Y-3300000D03*
%TO.N,/Architecture/MCU/USB_RST*%
X9250000Y-2200000D03*
X1828800Y6604000D03*
X10058400Y6959600D03*
X-1275000Y6814870D03*
%TO.N,/Architecture/MCU/LRA_PWM*%
X9194800Y2184400D03*
X-14462399Y873001D03*
%TO.N,/Architecture/MCU/SWO*%
X9250000Y3300000D03*
%TO.N,/Architecture/MCU/SWCLK*%
X10972800Y-1422400D03*
X11125200Y6096000D03*
X5890000Y6260000D03*
%TO.N,/Architecture/MCU/MCU_RST*%
X4927600Y6299200D03*
X10312400Y-2235200D03*
X8128000Y-1524000D03*
%TO.N,/Architecture/MCU/LRA_EN*%
X10312400Y3251200D03*
X-14475659Y2152937D03*
%TO.N,/Architecture/MCU/DISPLAY_RST*%
X10900000Y-3855049D03*
X10363200Y4368800D03*
X3708400Y-5232400D03*
%TO.N,unconnected-(U3-VSS-PadK2)*%
X11450000Y-3300000D03*
%TO.N,PGND1*%
X-4470400Y3759200D03*
X-520113Y3824684D03*
%TO.N,/Architecture/Power/PMIC_SW*%
X-8089900Y147000D03*
X-8178141Y-3734182D03*
%TO.N,/Architecture/MCU/CC2*%
X-1920000Y-2950000D03*
X-1805016Y6483642D03*
%TO.N,/Architecture/MCU/CC1*%
X-3937998Y-825600D03*
X-108800Y-805696D03*
X1387003Y5943600D03*
%TO.N,/Architecture/MCU/LEDK1*%
X-1930400Y-3657600D03*
X-914400Y-6756400D03*
X-12446000Y-2489200D03*
%TO.N,/Architecture/MCU/LEDK2*%
X-11277600Y-3652602D03*
X-203200Y-6400800D03*
X-11531600Y-7467600D03*
%TD*%
%TO.N,PGND2*%
D12*
X-616800Y2953600D02*
X-457200Y2794000D01*
X-5646701Y2953600D02*
X-616800Y2953600D01*
X-6465001Y3771900D02*
X-5646701Y2953600D01*
%TO.N,+1V8*%
X-8331632Y4221900D02*
X-8750976Y3802556D01*
X-2334053Y4221900D02*
X-8331632Y4221900D01*
X-2153756Y4041603D02*
X-2334053Y4221900D01*
X-7204128Y-9246338D02*
X-7106590Y-9148800D01*
X-4279200Y-9148800D02*
X-3708400Y-8578000D01*
X-7315938Y-9246338D02*
X-7204128Y-9246338D01*
X-7106590Y-9148800D02*
X-4279200Y-9148800D01*
%TO.N,/Architecture/MCU/SDA*%
X-592797Y-9151200D02*
X766297Y-9151200D01*
X8494589Y-10449380D02*
X8867383Y-10449380D01*
X-4377412Y-1022583D02*
X-8990983Y-1022583D01*
X1930400Y-9499600D02*
X2130000Y-9300000D01*
X-3723595Y-1676400D02*
X-4377412Y-1022583D01*
X-6584404Y-9746400D02*
X-1187997Y-9746400D01*
X1114697Y-9499600D02*
X1930400Y-9499600D01*
X-6732004Y-9598800D02*
X-6584404Y-9746400D01*
X-9248000Y-1279600D02*
X-9248000Y-1430100D01*
X10200658Y-9116105D02*
X10200658Y-8399342D01*
X10200658Y-8399342D02*
X10250000Y-8350000D01*
X-1187997Y-9746400D02*
X-592797Y-9151200D01*
X766297Y-9151200D02*
X1114697Y-9499600D01*
X1026400Y-1676400D02*
X-3723595Y-1676400D01*
X2130000Y-9300000D02*
X7345209Y-9300000D01*
X1502796Y-2247203D02*
X1509112Y-2240887D01*
X1509112Y-2240887D02*
X1509112Y-2159112D01*
X7345209Y-9300000D02*
X8494589Y-10449380D01*
X1509112Y-2159112D02*
X1026400Y-1676400D01*
X8867383Y-10449380D02*
X10200658Y-9116105D01*
X-8990983Y-1022583D02*
X-9248000Y-1279600D01*
%TO.N,/Architecture/MCU/SCL*%
X6957782Y-8282218D02*
X2032000Y-8282218D01*
X2030916Y-7490601D02*
X2030916Y-8281134D01*
X7213600Y-8026400D02*
X6957782Y-8282218D01*
X-3505200Y-7772400D02*
X-2184400Y-7772400D01*
X-5124951Y-6852151D02*
X-4425449Y-6852151D01*
X-2184400Y-7772400D02*
X-1674582Y-8282218D01*
X2030916Y-8281134D02*
X2032000Y-8282218D01*
X-1674582Y-8282218D02*
X2032000Y-8282218D01*
X-5740400Y-7467600D02*
X-7721600Y-7467600D01*
X-5740400Y-7467600D02*
X-5124951Y-6852151D01*
X-4425449Y-6852151D02*
X-3505200Y-7772400D01*
%TO.N,/Architecture/MCU/LPS_INT*%
X-1392775Y-4831622D02*
X875490Y-4831622D01*
X-8111795Y-4504400D02*
X-7264995Y-3657600D01*
X-8111795Y-4537405D02*
X-8111795Y-4504400D01*
X-7874000Y-4775200D02*
X-8111795Y-4537405D01*
X-7264995Y-3657600D02*
X-2566797Y-3657600D01*
X-2566797Y-3657600D02*
X-1392775Y-4831622D01*
%TO.N,+3V0*%
X-8636000Y6604000D02*
X-3759200Y6604000D01*
X-10932553Y-10317447D02*
X-2858000Y-10317447D01*
X-12852400Y-8077200D02*
X-12852400Y-8397600D01*
X-3759200Y6604000D02*
X-3708400Y6654800D01*
X-12852400Y-8397600D02*
X-10932553Y-10317447D01*
%TO.N,/Architecture/MCU/BTN_2*%
X-6969206Y8287600D02*
X-6860406Y8178800D01*
X-7358800Y8677194D02*
X-7358800Y8551203D01*
X-7095197Y8287600D02*
X-6969206Y8287600D01*
X-6860406Y8178800D02*
X1973070Y8178800D01*
X-8680986Y9999380D02*
X-7358800Y8677194D01*
X1973070Y8178800D02*
X2837000Y7314870D01*
X-7358800Y8551203D02*
X-7095197Y8287600D01*
%TO.N,VSYS*%
X-14986000Y-1235200D02*
X-14451000Y-1235200D01*
X-8565512Y-2281444D02*
X-6243844Y-2281444D01*
X-14451000Y-1235200D02*
X-13647000Y-2039200D01*
X-8807756Y-2039200D02*
X-8565512Y-2281444D01*
X-13647000Y-2039200D02*
X-8807756Y-2039200D01*
X-6243844Y-2281444D02*
X-5892800Y-1930400D01*
%TO.N,+BATT*%
X-7569200Y5943600D02*
X-7620000Y5892800D01*
X-7620000Y5892800D02*
X-10363200Y5892800D01*
X-10363200Y5892800D02*
X-11684000Y4572000D01*
%TO.N,/Architecture/MCU/OPT_INT*%
X5284400Y2634400D02*
X9381197Y2634400D01*
X4850000Y2200000D02*
X5284400Y2634400D01*
X9381197Y2634400D02*
X10312400Y1703197D01*
X10312400Y1703197D02*
X10312400Y1500000D01*
%TO.N,/Architecture/MCU/VBUS_OUT*%
X2528100Y4521900D02*
X-4230559Y4521900D01*
X-4230559Y4521900D02*
X-5485274Y5776615D01*
X2650000Y4400000D02*
X2528100Y4521900D01*
%TO.N,/Architecture/MCU/USBC_D+*%
X192151Y7326249D02*
X254000Y7264400D01*
X-762000Y7213600D02*
X-649351Y7326249D01*
X-649351Y7326249D02*
X192151Y7326249D01*
%TO.N,/Architecture/MCU/VBUS_IN*%
X-2082800Y5588000D02*
X-1988400Y5493600D01*
X-1988400Y5493600D02*
X1785200Y5493600D01*
X1785200Y5493600D02*
X2336800Y6045200D01*
%TO.N,/Architecture/MCU/BTN_3*%
X7673206Y-8991600D02*
X1356440Y-8991600D01*
X1356440Y-8991600D02*
X1299767Y-9048273D01*
X8680986Y-9999380D02*
X7673206Y-8991600D01*
%TO.N,/Architecture/MCU/BMI_INT*%
X3258400Y3701200D02*
X3708400Y3251200D01*
X958000Y3701200D02*
X3258400Y3701200D01*
X609600Y3352800D02*
X958000Y3701200D01*
X-1259188Y3410369D02*
X-1201619Y3352800D01*
X-1201619Y3352800D02*
X609600Y3352800D01*
%TO.N,/Architecture/MCU/QSPI_IO0*%
X-58000Y-9949600D02*
X2757600Y-9949600D01*
X2757600Y-9949600D02*
X2895600Y-9811600D01*
X-406400Y-9601200D02*
X-58000Y-9949600D01*
%TO.N,/Architecture/MCU/CTP_RST*%
X4978400Y-6908800D02*
X4521200Y-6908800D01*
X4470400Y-6959600D02*
X1906397Y-6959600D01*
X1825396Y-7040601D02*
X1581573Y-7040601D01*
X4521200Y-6908800D02*
X4470400Y-6959600D01*
X1906397Y-6959600D02*
X1825396Y-7040601D01*
X1205374Y-7416800D02*
X932600Y-7416800D01*
X1581573Y-7040601D02*
X1205374Y-7416800D01*
%TO.N,/Architecture/MCU/QSPI_CLK*%
X6866410Y-10957299D02*
X6771901Y-10957299D01*
X6901600Y-10992489D02*
X6866410Y-10957299D01*
X6567600Y-11161600D02*
X-246555Y-11161600D01*
X6771901Y-10957299D02*
X6567600Y-11161600D01*
X-246555Y-11161600D02*
X-407629Y-11000526D01*
%TO.N,/Architecture/MCU/QSPI_IO3*%
X6901600Y-11592492D02*
X6840708Y-11531600D01*
X6840708Y-11531600D02*
X254000Y-11531600D01*
X254000Y-11531600D02*
X-406400Y-12192000D01*
%TO.N,/Architecture/MCU/BTN_4*%
X8499442Y-8432800D02*
X8519929Y-8412313D01*
X7443597Y-8432800D02*
X8499442Y-8432800D01*
X-5164797Y-8374800D02*
X-4792003Y-8374800D01*
X-5452403Y-8425600D02*
X-5283200Y-8256397D01*
X-5283200Y-8256397D02*
X-5164797Y-8374800D01*
X7399997Y-8476400D02*
X7443597Y-8432800D01*
X-5825197Y-8425600D02*
X-5452403Y-8425600D01*
X7082046Y-8582218D02*
X7187864Y-8476400D01*
X-4545203Y-8128000D02*
X-2253064Y-8128000D01*
X7187864Y-8476400D02*
X7399997Y-8476400D01*
X-4792003Y-8374800D02*
X-4545203Y-8128000D01*
X-7593854Y-8128000D02*
X-6088800Y-8128000D01*
X-8680986Y-9867447D02*
X-8680986Y-9215132D01*
X-6088800Y-8128000D02*
X-6088800Y-8161997D01*
X-2253064Y-8128000D02*
X-1798846Y-8582218D01*
X-1798846Y-8582218D02*
X7082046Y-8582218D01*
X-6088800Y-8161997D02*
X-5825197Y-8425600D01*
X-8680986Y-9215132D02*
X-7593854Y-8128000D01*
%TO.N,/Architecture/MCU/DISPLAY_LIGHT_IO*%
X1251800Y-337400D02*
X1582000Y-667600D01*
X-12700000Y-1574800D02*
X-11462600Y-337400D01*
X7642800Y-1750000D02*
X8128000Y-2235200D01*
X1582000Y-667600D02*
X3731596Y-667600D01*
X-11462600Y-337400D02*
X1251800Y-337400D01*
X3731596Y-667600D02*
X4813996Y-1750000D01*
X4813996Y-1750000D02*
X7642800Y-1750000D01*
%TO.N,/Architecture/MCU/PMIC_INT*%
X3173603Y-5334000D02*
X3522003Y-5682400D01*
X-6146800Y-5334000D02*
X-6604000Y-4876800D01*
X-6146800Y-5334000D02*
X3173603Y-5334000D01*
X7967600Y-5682400D02*
X9250000Y-4400000D01*
X-6604000Y-4876800D02*
X-6705600Y-4876800D01*
X3522003Y-5682400D02*
X7967600Y-5682400D01*
%TO.N,/Architecture/MCU/USB_RST*%
X10058400Y6959600D02*
X9906000Y6807200D01*
X2032000Y6807200D02*
X1828800Y6604000D01*
X128284Y6604000D02*
X1828800Y6604000D01*
X-49467Y6426249D02*
X128284Y6604000D01*
X-886379Y6426249D02*
X-49467Y6426249D01*
X-1275000Y6814870D02*
X-886379Y6426249D01*
X9906000Y6807200D02*
X2032000Y6807200D01*
%TO.N,/Architecture/MCU/LRA_PWM*%
X-14282398Y693000D02*
X-10006597Y693000D01*
X4941203Y1750000D02*
X8760400Y1750000D01*
X4105603Y914400D02*
X4941203Y1750000D01*
X-712597Y914400D02*
X4105603Y914400D01*
X-1467397Y1669200D02*
X-712597Y914400D01*
X8760400Y1750000D02*
X9194800Y2184400D01*
X-10006597Y693000D02*
X-9030397Y1669200D01*
X-9030397Y1669200D02*
X-1467397Y1669200D01*
X-14462399Y873001D02*
X-14282398Y693000D01*
%TO.N,/Architecture/MCU/SWCLK*%
X6730000Y6236000D02*
X6870000Y6096000D01*
X5914000Y6236000D02*
X6730000Y6236000D01*
X6870000Y6096000D02*
X11125200Y6096000D01*
X5890000Y6260000D02*
X5914000Y6236000D01*
%TO.N,/Architecture/MCU/MCU_RST*%
X9601200Y-1524000D02*
X10312400Y-2235200D01*
X8128000Y-1524000D02*
X9601200Y-1524000D01*
%TO.N,/Architecture/MCU/LRA_EN*%
X-14121196Y2507400D02*
X-6648997Y2507400D01*
X3530203Y1550000D02*
X5757203Y3777000D01*
X5757203Y3777000D02*
X9786600Y3777000D01*
X-26000Y1550000D02*
X3530203Y1550000D01*
X-6110797Y1969200D02*
X-5498896Y2581101D01*
X-1057101Y2581101D02*
X-26000Y1550000D01*
X-6648997Y2507400D02*
X-6110797Y1969200D01*
X9786600Y3777000D02*
X10312400Y3251200D01*
X-14475659Y2152937D02*
X-14121196Y2507400D01*
X-5498896Y2581101D02*
X-1057101Y2581101D01*
%TO.N,/Architecture/MCU/DISPLAY_RST*%
X10900000Y-3855049D02*
X10899998Y-3855049D01*
X10894949Y-3850000D02*
X9163603Y-3850000D01*
X9163603Y-3850000D02*
X7781203Y-5232400D01*
X7781203Y-5232400D02*
X3708400Y-5232400D01*
X10899998Y-3855049D02*
X10894949Y-3850000D01*
%TO.N,PGND1*%
X-2340153Y3591603D02*
X-1714351Y3591603D01*
X-1445585Y3860369D02*
X-555798Y3860369D01*
X-4470400Y3759200D02*
X-4376000Y3853600D01*
X-555798Y3860369D02*
X-520113Y3824684D01*
X-1714351Y3591603D02*
X-1445585Y3860369D01*
X-2602150Y3853600D02*
X-2340153Y3591603D01*
X-4376000Y3853600D02*
X-2602150Y3853600D01*
%TO.N,/Architecture/MCU/CC1*%
X-115904Y-812800D02*
X-134200Y-812800D01*
X-134200Y-812800D02*
X-147000Y-825600D01*
X-147000Y-825600D02*
X-3937998Y-825600D01*
X-108800Y-805696D02*
X-115904Y-812800D01*
%TO.N,/Architecture/MCU/LEDK1*%
X-11732598Y-3202602D02*
X-12446000Y-2489200D01*
X-2385398Y-3202602D02*
X-11732598Y-3202602D01*
X-1930400Y-3657600D02*
X-2385398Y-3202602D01*
%TO.N,/Architecture/MCU/LEDK2*%
X-11337968Y-7467600D02*
X-10164784Y-6294416D01*
X-11531600Y-7467600D02*
X-11337968Y-7467600D01*
X-10164784Y-6294416D02*
X-309584Y-6294416D01*
X-309584Y-6294416D02*
X-203200Y-6400800D01*
%TD*%
%TA.AperFunction,Conductor*%
%TO.N,GND*%
G36*
X399974Y16169480D02*
G01*
X436612Y16167681D01*
X1186871Y16130822D01*
X1192867Y16130379D01*
X1976914Y16053158D01*
X1982926Y16052416D01*
X2762229Y15936818D01*
X2768214Y15935778D01*
X3540872Y15782087D01*
X3546776Y15780762D01*
X4263731Y15601174D01*
X4310991Y15589336D01*
X4316854Y15587714D01*
X5070755Y15359021D01*
X5076519Y15357116D01*
X5818252Y15091719D01*
X5823915Y15089535D01*
X6551768Y14788049D01*
X6557311Y14785593D01*
X7269498Y14448752D01*
X7274932Y14446016D01*
X7555742Y14295920D01*
X7969694Y14074659D01*
X7974984Y14071663D01*
X8650730Y13666636D01*
X8655824Y13663410D01*
X9000230Y13433286D01*
X9310872Y13225722D01*
X9315848Y13222218D01*
X9948625Y12752917D01*
X9953423Y12749172D01*
X10562392Y12249404D01*
X10567000Y12245429D01*
X11150721Y11716376D01*
X11155129Y11712179D01*
X11712178Y11155130D01*
X11716375Y11150722D01*
X12245428Y10567001D01*
X12249403Y10562393D01*
X12749171Y9953424D01*
X12752916Y9948626D01*
X13222217Y9315849D01*
X13225721Y9310873D01*
X13647276Y8679970D01*
X13663394Y8655849D01*
X13666642Y8650720D01*
X13777587Y8465619D01*
X14071658Y7974991D01*
X14074658Y7969695D01*
X14446014Y7274935D01*
X14448751Y7269499D01*
X14785587Y6557322D01*
X14788053Y6551758D01*
X15089531Y5823924D01*
X15091721Y5818245D01*
X15208896Y5490764D01*
X15212948Y5421012D01*
X15178645Y5360143D01*
X15116879Y5327482D01*
X15092145Y5324990D01*
X14949890Y5324990D01*
X14949890Y3123999D01*
X14930205Y3056960D01*
X14877401Y3011205D01*
X14825892Y2999999D01*
X14274010Y2999992D01*
X14206970Y3019676D01*
X14161214Y3072479D01*
X14150008Y3123987D01*
X14150000Y4099970D01*
X11750010Y4100011D01*
X11750009Y4100010D01*
X11750001Y-2804157D01*
X11730316Y-2871197D01*
X11677512Y-2916951D01*
X11608354Y-2926895D01*
X11593914Y-2923933D01*
X11502727Y-2899500D01*
X11397273Y-2899500D01*
X11295413Y-2926793D01*
X11295410Y-2926794D01*
X11204085Y-2979521D01*
X11129521Y-3054085D01*
X11076794Y-3145410D01*
X11076793Y-3145413D01*
X11049500Y-3247273D01*
X11049500Y-3330549D01*
X11029815Y-3397588D01*
X10977011Y-3443343D01*
X10925500Y-3454549D01*
X10847273Y-3454549D01*
X10745413Y-3481842D01*
X10745410Y-3481843D01*
X10654085Y-3534570D01*
X10625475Y-3563181D01*
X10564152Y-3596666D01*
X10537794Y-3599500D01*
X9745977Y-3599500D01*
X9678938Y-3579815D01*
X9633183Y-3527011D01*
X9623239Y-3457853D01*
X9626199Y-3443420D01*
X9650500Y-3352727D01*
X9650500Y-3247273D01*
X9623207Y-3145413D01*
X9570480Y-3054087D01*
X9495913Y-2979520D01*
X9404587Y-2926793D01*
X9302727Y-2899500D01*
X9197273Y-2899500D01*
X9095413Y-2926793D01*
X9095410Y-2926794D01*
X9004085Y-2979521D01*
X8929521Y-3054085D01*
X8876794Y-3145410D01*
X8876792Y-3145415D01*
X8873465Y-3157829D01*
X8873464Y-3157836D01*
X8849500Y-3247273D01*
X8849500Y-3352727D01*
X8876395Y-3453103D01*
X8876793Y-3454586D01*
X8876794Y-3454589D01*
X8886843Y-3471995D01*
X8926599Y-3540854D01*
X8929521Y-3545914D01*
X8933793Y-3550186D01*
X8967278Y-3611509D01*
X8962294Y-3681201D01*
X8933793Y-3725548D01*
X7713761Y-4945581D01*
X7652438Y-4979066D01*
X7626080Y-4981900D01*
X7300242Y-4981900D01*
X7233203Y-4962215D01*
X7187448Y-4909411D01*
X7177504Y-4840253D01*
X7206529Y-4776697D01*
X7238237Y-4750515D01*
X7256313Y-4740080D01*
X7330880Y-4665513D01*
X7383607Y-4574187D01*
X7410900Y-4472327D01*
X7410900Y-4366873D01*
X7383607Y-4265013D01*
X7330880Y-4173687D01*
X7256313Y-4099120D01*
X7164987Y-4046393D01*
X7063127Y-4019100D01*
X6957673Y-4019100D01*
X6855813Y-4046393D01*
X6855810Y-4046394D01*
X6764485Y-4099121D01*
X6689921Y-4173685D01*
X6637194Y-4265010D01*
X6637193Y-4265011D01*
X6630388Y-4290410D01*
X6623582Y-4315813D01*
X6622175Y-4321063D01*
X6585810Y-4380723D01*
X6522963Y-4411252D01*
X6453587Y-4402957D01*
X6399709Y-4358472D01*
X6382625Y-4321063D01*
X6381498Y-4316856D01*
X6367607Y-4265013D01*
X6314880Y-4173687D01*
X6240313Y-4099120D01*
X6148987Y-4046393D01*
X6047127Y-4019100D01*
X5941673Y-4019100D01*
X5839813Y-4046393D01*
X5839810Y-4046394D01*
X5748485Y-4099121D01*
X5673921Y-4173685D01*
X5621194Y-4265010D01*
X5621194Y-4265011D01*
X5621193Y-4265013D01*
X5593900Y-4366873D01*
X5593900Y-4472327D01*
X5621193Y-4574187D01*
X5673920Y-4665513D01*
X5748487Y-4740080D01*
X5766560Y-4750514D01*
X5814774Y-4801081D01*
X5827996Y-4869688D01*
X5802028Y-4934553D01*
X5745113Y-4975080D01*
X5704558Y-4981900D01*
X5154855Y-4981900D01*
X5087816Y-4962215D01*
X5042061Y-4909411D01*
X5032117Y-4840253D01*
X5061142Y-4776697D01*
X5067174Y-4770219D01*
X5097318Y-4740075D01*
X5146480Y-4690913D01*
X5199207Y-4599587D01*
X5226500Y-4497727D01*
X5226500Y-4392273D01*
X5199207Y-4290413D01*
X5146480Y-4199087D01*
X5071913Y-4124520D01*
X4980587Y-4071793D01*
X4878727Y-4044500D01*
X4773273Y-4044500D01*
X4671413Y-4071793D01*
X4671410Y-4071794D01*
X4580085Y-4124521D01*
X4505521Y-4199085D01*
X4452794Y-4290410D01*
X4452793Y-4290413D01*
X4425500Y-4392273D01*
X4425500Y-4497727D01*
X4452793Y-4599587D01*
X4498816Y-4679302D01*
X4505521Y-4690914D01*
X4584826Y-4770219D01*
X4618311Y-4831542D01*
X4613327Y-4901234D01*
X4571455Y-4957167D01*
X4505991Y-4981584D01*
X4497145Y-4981900D01*
X4075655Y-4981900D01*
X4046214Y-4973255D01*
X4016228Y-4966732D01*
X4011212Y-4962977D01*
X4008616Y-4962215D01*
X3987974Y-4945581D01*
X3978232Y-4935839D01*
X3944747Y-4874516D01*
X3949731Y-4804824D01*
X3991603Y-4748891D01*
X4003901Y-4740779D01*
X4005113Y-4740080D01*
X4079680Y-4665513D01*
X4132407Y-4574187D01*
X4159700Y-4472327D01*
X4159700Y-4366873D01*
X4132407Y-4265013D01*
X4079680Y-4173687D01*
X4005113Y-4099120D01*
X3913787Y-4046393D01*
X3811927Y-4019100D01*
X3706473Y-4019100D01*
X3604613Y-4046393D01*
X3604610Y-4046394D01*
X3513285Y-4099121D01*
X3438721Y-4173685D01*
X3385994Y-4265010D01*
X3385994Y-4265011D01*
X3385993Y-4265013D01*
X3358700Y-4366873D01*
X3358700Y-4472327D01*
X3385993Y-4574187D01*
X3415323Y-4624989D01*
X3438721Y-4665514D01*
X3489367Y-4716160D01*
X3522852Y-4777483D01*
X3517868Y-4847175D01*
X3493896Y-4886746D01*
X3480734Y-4901385D01*
X3462487Y-4911920D01*
X3387920Y-4986487D01*
X3358671Y-5037146D01*
X3349986Y-5046807D01*
X3330861Y-5058608D01*
X3314594Y-5074119D01*
X3301699Y-5076603D01*
X3290526Y-5083499D01*
X3268054Y-5083087D01*
X3245986Y-5087340D01*
X3233587Y-5085520D01*
X3223431Y-5083500D01*
X2840424Y-5083500D01*
X2773385Y-5063815D01*
X2727630Y-5011011D01*
X2717686Y-4941853D01*
X2746711Y-4878297D01*
X2789158Y-4847688D01*
X2789148Y-4847671D01*
X2789320Y-4847571D01*
X2792971Y-4844939D01*
X2796180Y-4843608D01*
X2796187Y-4843607D01*
X2887513Y-4790880D01*
X2962080Y-4716313D01*
X3014807Y-4624987D01*
X3042100Y-4523127D01*
X3042100Y-4417673D01*
X3014807Y-4315813D01*
X2962080Y-4224487D01*
X2887513Y-4149920D01*
X2801049Y-4100000D01*
X2796189Y-4097194D01*
X2796188Y-4097193D01*
X2796187Y-4097193D01*
X2694327Y-4069900D01*
X2588873Y-4069900D01*
X2487013Y-4097193D01*
X2487010Y-4097194D01*
X2395685Y-4149921D01*
X2321121Y-4224485D01*
X2268394Y-4315810D01*
X2268393Y-4315813D01*
X2241100Y-4417673D01*
X2241100Y-4523127D01*
X2268393Y-4624987D01*
X2321120Y-4716313D01*
X2395687Y-4790880D01*
X2487013Y-4843607D01*
X2487016Y-4843608D01*
X2490229Y-4844939D01*
X2492525Y-4846789D01*
X2494052Y-4847671D01*
X2493914Y-4847909D01*
X2544632Y-4888780D01*
X2566697Y-4955074D01*
X2549418Y-5022773D01*
X2498281Y-5070384D01*
X2442776Y-5083500D01*
X1384227Y-5083500D01*
X1317188Y-5063815D01*
X1271433Y-5011011D01*
X1261489Y-4941853D01*
X1264448Y-4927422D01*
X1275990Y-4884349D01*
X1275990Y-4778895D01*
X1248697Y-4677035D01*
X1195970Y-4585709D01*
X1121403Y-4511142D01*
X1030077Y-4458415D01*
X928217Y-4431122D01*
X822763Y-4431122D01*
X720903Y-4458415D01*
X720900Y-4458416D01*
X629575Y-4511143D01*
X595916Y-4544803D01*
X534593Y-4578288D01*
X508235Y-4581122D01*
X-1237653Y-4581122D01*
X-1304692Y-4561437D01*
X-1325334Y-4544803D01*
X-1701955Y-4168181D01*
X-1735440Y-4106858D01*
X-1730456Y-4037166D01*
X-1689751Y-3982117D01*
X-1684499Y-3978086D01*
X-1684487Y-3978080D01*
X-1609920Y-3903513D01*
X-1557193Y-3812187D01*
X-1529900Y-3710327D01*
X-1529900Y-3604873D01*
X-1557193Y-3503013D01*
X-1609920Y-3411687D01*
X-1624926Y-3396681D01*
X-1625934Y-3394836D01*
X-1627746Y-3393768D01*
X-1642606Y-3364302D01*
X-1658411Y-3335358D01*
X-1658262Y-3333260D01*
X-1659208Y-3331383D01*
X-1655781Y-3298575D01*
X-1653427Y-3265666D01*
X-1652098Y-3263323D01*
X-1651948Y-3261891D01*
X-1647467Y-3255162D01*
X-1642990Y-3247273D01*
X3349500Y-3247273D01*
X3349500Y-3352727D01*
X3376396Y-3453103D01*
X3376793Y-3454586D01*
X3376794Y-3454589D01*
X3386843Y-3471995D01*
X3429520Y-3545913D01*
X3504087Y-3620480D01*
X3595413Y-3673207D01*
X3697273Y-3700500D01*
X3697275Y-3700500D01*
X3802725Y-3700500D01*
X3802727Y-3700500D01*
X3904587Y-3673207D01*
X3995913Y-3620480D01*
X4070480Y-3545913D01*
X4123207Y-3454587D01*
X4126925Y-3440708D01*
X4163287Y-3381049D01*
X4226133Y-3350518D01*
X4295509Y-3358810D01*
X4349388Y-3403294D01*
X4354082Y-3410792D01*
X4403920Y-3497113D01*
X4478487Y-3571680D01*
X4569813Y-3624407D01*
X4671673Y-3651700D01*
X4671675Y-3651700D01*
X4777125Y-3651700D01*
X4777127Y-3651700D01*
X4878987Y-3624407D01*
X4970313Y-3571680D01*
X5044880Y-3497113D01*
X5097607Y-3405787D01*
X5124900Y-3303927D01*
X5124900Y-3249273D01*
X5568500Y-3249273D01*
X5568500Y-3354727D01*
X5595793Y-3456587D01*
X5648520Y-3547913D01*
X5723087Y-3622480D01*
X5814413Y-3675207D01*
X5916273Y-3702500D01*
X5916275Y-3702500D01*
X6021725Y-3702500D01*
X6021727Y-3702500D01*
X6123587Y-3675207D01*
X6214913Y-3622480D01*
X6289480Y-3547913D01*
X6342207Y-3456587D01*
X6369500Y-3354727D01*
X6369500Y-3249273D01*
X6609900Y-3249273D01*
X6609900Y-3354727D01*
X6637193Y-3456587D01*
X6689920Y-3547913D01*
X6764487Y-3622480D01*
X6855813Y-3675207D01*
X6957673Y-3702500D01*
X6957675Y-3702500D01*
X7063125Y-3702500D01*
X7063127Y-3702500D01*
X7164987Y-3675207D01*
X7256313Y-3622480D01*
X7330880Y-3547913D01*
X7383607Y-3456587D01*
X7410900Y-3354727D01*
X7410900Y-3249273D01*
X7383607Y-3147413D01*
X7330880Y-3056087D01*
X7256313Y-2981520D01*
X7171264Y-2932417D01*
X7164989Y-2928794D01*
X7164988Y-2928793D01*
X7164987Y-2928793D01*
X7063127Y-2901500D01*
X6957673Y-2901500D01*
X6855813Y-2928793D01*
X6855810Y-2928794D01*
X6764485Y-2981521D01*
X6689921Y-3056085D01*
X6637194Y-3147410D01*
X6637193Y-3147413D01*
X6622920Y-3200683D01*
X6609900Y-3249273D01*
X6369500Y-3249273D01*
X6342207Y-3147413D01*
X6289480Y-3056087D01*
X6214913Y-2981520D01*
X6129864Y-2932417D01*
X6123589Y-2928794D01*
X6123588Y-2928793D01*
X6123587Y-2928793D01*
X6021727Y-2901500D01*
X5916273Y-2901500D01*
X5814413Y-2928793D01*
X5814410Y-2928794D01*
X5723085Y-2981521D01*
X5648521Y-3056085D01*
X5595794Y-3147410D01*
X5595793Y-3147413D01*
X5568500Y-3249273D01*
X5124900Y-3249273D01*
X5124900Y-3198473D01*
X5097607Y-3096613D01*
X5044880Y-3005287D01*
X4970313Y-2930720D01*
X4885870Y-2881967D01*
X4878989Y-2877994D01*
X4878988Y-2877993D01*
X4878987Y-2877993D01*
X4777127Y-2850700D01*
X4671673Y-2850700D01*
X4569813Y-2877993D01*
X4569810Y-2877994D01*
X4478485Y-2930721D01*
X4403921Y-3005285D01*
X4351194Y-3096610D01*
X4351192Y-3096615D01*
X4347473Y-3110495D01*
X4311107Y-3170155D01*
X4248259Y-3200683D01*
X4178884Y-3192386D01*
X4125007Y-3147900D01*
X4120312Y-3140399D01*
X4099636Y-3104587D01*
X4070480Y-3054087D01*
X3995913Y-2979520D01*
X3904587Y-2926793D01*
X3802727Y-2899500D01*
X3697273Y-2899500D01*
X3595413Y-2926793D01*
X3595410Y-2926794D01*
X3504085Y-2979521D01*
X3429521Y-3054085D01*
X3376794Y-3145410D01*
X3376793Y-3145413D01*
X3349500Y-3247273D01*
X-1642990Y-3247273D01*
X-1634030Y-3231484D01*
X-1629762Y-3226154D01*
X-1599520Y-3195913D01*
X-1546793Y-3104587D01*
X-1519500Y-3002727D01*
X-1519500Y-2897273D01*
X-1546793Y-2795413D01*
X-1599520Y-2704087D01*
X-1674087Y-2629520D01*
X-1765413Y-2576793D01*
X-1867273Y-2549500D01*
X-1972727Y-2549500D01*
X-2074587Y-2576793D01*
X-2074590Y-2576794D01*
X-2165915Y-2629521D01*
X-2240479Y-2704085D01*
X-2293206Y-2795410D01*
X-2293207Y-2795411D01*
X-2299393Y-2818499D01*
X-2305585Y-2841611D01*
X-2310565Y-2860196D01*
X-2346930Y-2919856D01*
X-2409777Y-2950385D01*
X-2430340Y-2952102D01*
X-3060057Y-2952102D01*
X-3127096Y-2932417D01*
X-3172851Y-2879613D01*
X-3182795Y-2810455D01*
X-3179832Y-2796009D01*
X-3161807Y-2728739D01*
X-3161807Y-2623285D01*
X-3189100Y-2521425D01*
X-3241827Y-2430099D01*
X-3316394Y-2355532D01*
X-3407720Y-2302805D01*
X-3509580Y-2275512D01*
X-3615034Y-2275512D01*
X-3716894Y-2302805D01*
X-3716897Y-2302806D01*
X-3808222Y-2355533D01*
X-3882786Y-2430097D01*
X-3935513Y-2521422D01*
X-3935514Y-2521425D01*
X-3962807Y-2623285D01*
X-3962807Y-2728739D01*
X-3944782Y-2796009D01*
X-3946445Y-2865859D01*
X-3985608Y-2923721D01*
X-4049836Y-2951225D01*
X-4064557Y-2952102D01*
X-4383771Y-2952102D01*
X-4450810Y-2932417D01*
X-4496565Y-2879613D01*
X-4506509Y-2810455D01*
X-4503550Y-2796023D01*
X-4476300Y-2694327D01*
X-4476300Y-2588873D01*
X-4503593Y-2487013D01*
X-4556320Y-2395687D01*
X-4630887Y-2321120D01*
X-4699199Y-2281680D01*
X-4722211Y-2268394D01*
X-4722212Y-2268393D01*
X-4722213Y-2268393D01*
X-4824073Y-2241100D01*
X-4929527Y-2241100D01*
X-5031387Y-2268393D01*
X-5031390Y-2268394D01*
X-5122715Y-2321121D01*
X-5197279Y-2395685D01*
X-5223979Y-2441930D01*
X-5274547Y-2490145D01*
X-5343154Y-2503366D01*
X-5408019Y-2477397D01*
X-5440807Y-2438225D01*
X-5447469Y-2425718D01*
X-5461593Y-2373006D01*
X-5514320Y-2281680D01*
X-5535451Y-2260549D01*
X-5544139Y-2244238D01*
X-5547622Y-2227392D01*
X-5555863Y-2212299D01*
X-5554547Y-2193890D01*
X-5558283Y-2175815D01*
X-5552106Y-2159763D01*
X-5550879Y-2142607D01*
X-5542088Y-2123949D01*
X-5519593Y-2084987D01*
X-5492300Y-1983127D01*
X-5492300Y-1877673D01*
X-5519593Y-1775813D01*
X-5572320Y-1684487D01*
X-5646887Y-1609920D01*
X-5738213Y-1557193D01*
X-5840073Y-1529900D01*
X-5945527Y-1529900D01*
X-6047387Y-1557193D01*
X-6047390Y-1557194D01*
X-6138715Y-1609921D01*
X-6213279Y-1684485D01*
X-6266006Y-1775810D01*
X-6266007Y-1775813D01*
X-6293300Y-1877673D01*
X-6293300Y-1906944D01*
X-6312985Y-1973983D01*
X-6365789Y-2019738D01*
X-6417300Y-2030944D01*
X-8410390Y-2030944D01*
X-8477429Y-2011259D01*
X-8498066Y-1994629D01*
X-8665859Y-1826836D01*
X-8686479Y-1818295D01*
X-8757927Y-1788700D01*
X-8757928Y-1788700D01*
X-8777806Y-1788700D01*
X-8844845Y-1769015D01*
X-8890600Y-1716211D01*
X-8900544Y-1647053D01*
X-8885195Y-1602702D01*
X-8874793Y-1584687D01*
X-8847500Y-1482827D01*
X-8847500Y-1397083D01*
X-8827815Y-1330044D01*
X-8775011Y-1284289D01*
X-8723500Y-1273083D01*
X-4532535Y-1273083D01*
X-4465496Y-1292768D01*
X-4444854Y-1309402D01*
X-3943030Y-1811225D01*
X-3943027Y-1811229D01*
X-3935959Y-1818297D01*
X-3865492Y-1888764D01*
X-3773423Y-1926900D01*
X871277Y-1926900D01*
X900720Y-1935545D01*
X930703Y-1942068D01*
X935718Y-1945822D01*
X938316Y-1946585D01*
X958953Y-1963214D01*
X1070253Y-2074513D01*
X1103737Y-2135834D01*
X1102537Y-2186307D01*
X1103357Y-2186415D01*
X1102353Y-2194037D01*
X1102348Y-2194279D01*
X1102296Y-2194470D01*
X1102296Y-2194476D01*
X1102296Y-2299930D01*
X1129589Y-2401790D01*
X1182316Y-2493116D01*
X1256883Y-2567683D01*
X1348209Y-2620410D01*
X1450069Y-2647703D01*
X1450071Y-2647703D01*
X1555521Y-2647703D01*
X1555523Y-2647703D01*
X1657383Y-2620410D01*
X1748709Y-2567683D01*
X1823276Y-2493116D01*
X1876003Y-2401790D01*
X1903296Y-2299930D01*
X1903296Y-2194476D01*
X1890648Y-2147273D01*
X2545900Y-2147273D01*
X2545900Y-2252727D01*
X2561082Y-2309385D01*
X2573193Y-2354586D01*
X2573194Y-2354589D01*
X2573739Y-2355533D01*
X2625920Y-2445913D01*
X2700487Y-2520480D01*
X2791813Y-2573207D01*
X2893673Y-2600500D01*
X2893675Y-2600500D01*
X2999125Y-2600500D01*
X2999127Y-2600500D01*
X3100987Y-2573207D01*
X3192313Y-2520480D01*
X3266880Y-2445913D01*
X3319607Y-2354587D01*
X3346900Y-2252727D01*
X3346900Y-2147273D01*
X3319607Y-2045413D01*
X3266880Y-1954087D01*
X3192313Y-1879520D01*
X3114682Y-1834700D01*
X3100989Y-1826794D01*
X3100988Y-1826793D01*
X3100987Y-1826793D01*
X2999127Y-1799500D01*
X2893673Y-1799500D01*
X2791813Y-1826793D01*
X2791810Y-1826794D01*
X2700485Y-1879521D01*
X2625921Y-1954085D01*
X2573194Y-2045410D01*
X2573193Y-2045413D01*
X2545900Y-2147273D01*
X1890648Y-2147273D01*
X1876003Y-2092616D01*
X1823276Y-2001290D01*
X1748709Y-1926723D01*
X1676139Y-1884825D01*
X1657385Y-1873997D01*
X1657384Y-1873996D01*
X1603133Y-1859460D01*
X1581385Y-1853632D01*
X1567498Y-1845614D01*
X1554053Y-1842690D01*
X1525799Y-1821539D01*
X1432814Y-1728554D01*
X1399329Y-1667231D01*
X1404313Y-1597539D01*
X1446185Y-1541606D01*
X1511649Y-1517189D01*
X1520495Y-1516873D01*
X1601513Y-1516873D01*
X1601515Y-1516873D01*
X1703375Y-1489580D01*
X1794701Y-1436853D01*
X1869268Y-1362286D01*
X1921995Y-1270960D01*
X1949288Y-1169100D01*
X1949288Y-1063646D01*
X1949287Y-1063643D01*
X1948582Y-1058288D01*
X1951217Y-1041384D01*
X1948783Y-1024453D01*
X1956488Y-1007580D01*
X1959346Y-989253D01*
X1970701Y-976458D01*
X1977808Y-960897D01*
X1993413Y-950868D01*
X2005725Y-936996D01*
X2022491Y-932180D01*
X2036586Y-923123D01*
X2071521Y-918100D01*
X2119028Y-918100D01*
X2186067Y-937785D01*
X2231822Y-990589D01*
X2241967Y-1058284D01*
X2241100Y-1064870D01*
X2241100Y-1064873D01*
X2241100Y-1170327D01*
X2267756Y-1269807D01*
X2268393Y-1272186D01*
X2268394Y-1272189D01*
X2270313Y-1275513D01*
X2321120Y-1363513D01*
X2395687Y-1438080D01*
X2487013Y-1490807D01*
X2588873Y-1518100D01*
X2588875Y-1518100D01*
X2694325Y-1518100D01*
X2694327Y-1518100D01*
X2796187Y-1490807D01*
X2887513Y-1438080D01*
X2962080Y-1363513D01*
X3014807Y-1272187D01*
X3042100Y-1170327D01*
X3042100Y-1064873D01*
X3042100Y-1064870D01*
X3041233Y-1058284D01*
X3051999Y-989249D01*
X3098380Y-936993D01*
X3164172Y-918100D01*
X3576473Y-918100D01*
X3643512Y-937785D01*
X3664154Y-954419D01*
X4594561Y-1884825D01*
X4594564Y-1884829D01*
X4594565Y-1884829D01*
X4601631Y-1891895D01*
X4601632Y-1891897D01*
X4634593Y-1924858D01*
X4672099Y-1962364D01*
X4699064Y-1973534D01*
X4764165Y-2000500D01*
X4764166Y-2000500D01*
X4764168Y-2000501D01*
X4764169Y-2000501D01*
X4878258Y-2000501D01*
X4878266Y-2000500D01*
X5427428Y-2000500D01*
X5494467Y-2020185D01*
X5540222Y-2072989D01*
X5550367Y-2140684D01*
X5549500Y-2147270D01*
X5549500Y-2147273D01*
X5549500Y-2252727D01*
X5564682Y-2309385D01*
X5576793Y-2354586D01*
X5576794Y-2354589D01*
X5577339Y-2355533D01*
X5629520Y-2445913D01*
X5704087Y-2520480D01*
X5795413Y-2573207D01*
X5897273Y-2600500D01*
X5897275Y-2600500D01*
X6002725Y-2600500D01*
X6002727Y-2600500D01*
X6104587Y-2573207D01*
X6195913Y-2520480D01*
X6270480Y-2445913D01*
X6323207Y-2354587D01*
X6350500Y-2252727D01*
X6350500Y-2147273D01*
X6350500Y-2147270D01*
X6349633Y-2140684D01*
X6360399Y-2071649D01*
X6406780Y-2019393D01*
X6472572Y-2000500D01*
X7487677Y-2000500D01*
X7517117Y-2009144D01*
X7547104Y-2015668D01*
X7552119Y-2019422D01*
X7554716Y-2020185D01*
X7575358Y-2036819D01*
X7691181Y-2152642D01*
X7724666Y-2213965D01*
X7727500Y-2240322D01*
X7727500Y-2287927D01*
X7754793Y-2389787D01*
X7807520Y-2481113D01*
X7882087Y-2555680D01*
X7973413Y-2608407D01*
X8013495Y-2619146D01*
X8073155Y-2655510D01*
X8103685Y-2718357D01*
X8095391Y-2787732D01*
X8050906Y-2841611D01*
X8043408Y-2846304D01*
X7988523Y-2877993D01*
X7981638Y-2881968D01*
X7907075Y-2956531D01*
X7854348Y-3047856D01*
X7854347Y-3047859D01*
X7827054Y-3149719D01*
X7827054Y-3255173D01*
X7854347Y-3357033D01*
X7907074Y-3448359D01*
X7981641Y-3522926D01*
X8072967Y-3575653D01*
X8174827Y-3602946D01*
X8174829Y-3602946D01*
X8280279Y-3602946D01*
X8280281Y-3602946D01*
X8382141Y-3575653D01*
X8473467Y-3522926D01*
X8548034Y-3448359D01*
X8600761Y-3357033D01*
X8628054Y-3255173D01*
X8628054Y-3149719D01*
X8600761Y-3047859D01*
X8548034Y-2956533D01*
X8473467Y-2881966D01*
X8382143Y-2829240D01*
X8382142Y-2829239D01*
X8364914Y-2824623D01*
X8342055Y-2818498D01*
X8282397Y-2782134D01*
X8251868Y-2719287D01*
X8260163Y-2649911D01*
X8304648Y-2596033D01*
X8312117Y-2591357D01*
X8373913Y-2555680D01*
X8448480Y-2481113D01*
X8501207Y-2389787D01*
X8528500Y-2287927D01*
X8528500Y-2182473D01*
X8501207Y-2080613D01*
X8448480Y-1989287D01*
X8445374Y-1986181D01*
X8443590Y-1982913D01*
X8443531Y-1982837D01*
X8443543Y-1982827D01*
X8411889Y-1924858D01*
X8416873Y-1855166D01*
X8458745Y-1799233D01*
X8524209Y-1774816D01*
X8533055Y-1774500D01*
X8818431Y-1774500D01*
X8885470Y-1794185D01*
X8931225Y-1846989D01*
X8941169Y-1916147D01*
X8925818Y-1960497D01*
X8909197Y-1989287D01*
X8876794Y-2045410D01*
X8876793Y-2045413D01*
X8849500Y-2147273D01*
X8849500Y-2252727D01*
X8864682Y-2309385D01*
X8876793Y-2354586D01*
X8876794Y-2354589D01*
X8877339Y-2355533D01*
X8929520Y-2445913D01*
X9004087Y-2520480D01*
X9095413Y-2573207D01*
X9197273Y-2600500D01*
X9197275Y-2600500D01*
X9302725Y-2600500D01*
X9302727Y-2600500D01*
X9404587Y-2573207D01*
X9495913Y-2520480D01*
X9570480Y-2445913D01*
X9623207Y-2354587D01*
X9650500Y-2252727D01*
X9650500Y-2226922D01*
X9656738Y-2205676D01*
X9658318Y-2183588D01*
X9666390Y-2172804D01*
X9670185Y-2159883D01*
X9686918Y-2145383D01*
X9700190Y-2127655D01*
X9712810Y-2122947D01*
X9722989Y-2114128D01*
X9744906Y-2110976D01*
X9765654Y-2103238D01*
X9778814Y-2106100D01*
X9792147Y-2104184D01*
X9812290Y-2113383D01*
X9833927Y-2118090D01*
X9851652Y-2131358D01*
X9855703Y-2133209D01*
X9862181Y-2139241D01*
X9875581Y-2152641D01*
X9909066Y-2213964D01*
X9911900Y-2240322D01*
X9911900Y-2287927D01*
X9939193Y-2389787D01*
X9991920Y-2481113D01*
X10066487Y-2555680D01*
X10157813Y-2608407D01*
X10259673Y-2635700D01*
X10259675Y-2635700D01*
X10365125Y-2635700D01*
X10365127Y-2635700D01*
X10466987Y-2608407D01*
X10558313Y-2555680D01*
X10632880Y-2481113D01*
X10685607Y-2389787D01*
X10712900Y-2287927D01*
X10712900Y-2182473D01*
X10685607Y-2080613D01*
X10632880Y-1989287D01*
X10558313Y-1914720D01*
X10497483Y-1879600D01*
X10466989Y-1861994D01*
X10466988Y-1861993D01*
X10466987Y-1861993D01*
X10365127Y-1834700D01*
X10365126Y-1834700D01*
X10317522Y-1834700D01*
X10250483Y-1815015D01*
X10229841Y-1798381D01*
X9988654Y-1557194D01*
X9801134Y-1369673D01*
X10572300Y-1369673D01*
X10572300Y-1475127D01*
X10594290Y-1557193D01*
X10599593Y-1576986D01*
X10599594Y-1576989D01*
X10611459Y-1597539D01*
X10652320Y-1668313D01*
X10726887Y-1742880D01*
X10818213Y-1795607D01*
X10920073Y-1822900D01*
X10920075Y-1822900D01*
X11025525Y-1822900D01*
X11025527Y-1822900D01*
X11127387Y-1795607D01*
X11218713Y-1742880D01*
X11293280Y-1668313D01*
X11346007Y-1576987D01*
X11373300Y-1475127D01*
X11373300Y-1369673D01*
X11346007Y-1267813D01*
X11293280Y-1176487D01*
X11218713Y-1101920D01*
X11133356Y-1052639D01*
X11127389Y-1049194D01*
X11127388Y-1049193D01*
X11127387Y-1049193D01*
X11025527Y-1021900D01*
X10920073Y-1021900D01*
X10818213Y-1049193D01*
X10818210Y-1049194D01*
X10726885Y-1101921D01*
X10652321Y-1176485D01*
X10599594Y-1267810D01*
X10599593Y-1267813D01*
X10572300Y-1369673D01*
X9801134Y-1369673D01*
X9743097Y-1311636D01*
X9737704Y-1309402D01*
X9651029Y-1273500D01*
X9651028Y-1273500D01*
X8495255Y-1273500D01*
X8428216Y-1253815D01*
X8407574Y-1237181D01*
X8373914Y-1203521D01*
X8373913Y-1203520D01*
X8282587Y-1150793D01*
X8180727Y-1123500D01*
X8075273Y-1123500D01*
X7973413Y-1150793D01*
X7973410Y-1150794D01*
X7882085Y-1203521D01*
X7807521Y-1278085D01*
X7754794Y-1369410D01*
X7754793Y-1369411D01*
X7744563Y-1407594D01*
X7708198Y-1467254D01*
X7645351Y-1497783D01*
X7624788Y-1499500D01*
X4969118Y-1499500D01*
X4902079Y-1479815D01*
X4881437Y-1463181D01*
X4672045Y-1253789D01*
X4638560Y-1192466D01*
X4643544Y-1122774D01*
X4684244Y-1067729D01*
X4689505Y-1063691D01*
X4689513Y-1063687D01*
X4764080Y-989120D01*
X4816807Y-897794D01*
X4844100Y-795934D01*
X4844100Y-690480D01*
X4816807Y-588620D01*
X4764080Y-497294D01*
X4689513Y-422727D01*
X4598187Y-370000D01*
X4496327Y-342707D01*
X4390873Y-342707D01*
X4289013Y-370000D01*
X4289010Y-370001D01*
X4197685Y-422728D01*
X4123121Y-497292D01*
X4119075Y-502566D01*
X4062647Y-543769D01*
X3992901Y-547924D01*
X3933018Y-514761D01*
X3873493Y-455236D01*
X3781425Y-417100D01*
X3781424Y-417100D01*
X3039455Y-417100D01*
X2972416Y-397415D01*
X2926661Y-344611D01*
X2916717Y-275453D01*
X2945742Y-211897D01*
X2951774Y-205419D01*
X2962080Y-195113D01*
X3014807Y-103787D01*
X3042100Y-1927D01*
X3042100Y103527D01*
X3014807Y205387D01*
X2962080Y296713D01*
X2887513Y371280D01*
X2796187Y424007D01*
X2792971Y425339D01*
X2790674Y427190D01*
X2789148Y428071D01*
X2789285Y428310D01*
X2738568Y469180D01*
X2716503Y535474D01*
X2733782Y603173D01*
X2784919Y650784D01*
X2840424Y663900D01*
X4155429Y663900D01*
X4155431Y663900D01*
X4247500Y702036D01*
X4289417Y743953D01*
X4350740Y777439D01*
X4420431Y772455D01*
X4475475Y731759D01*
X4479519Y726489D01*
X4479520Y726487D01*
X4554087Y651920D01*
X4645413Y599193D01*
X4747273Y571900D01*
X4747275Y571900D01*
X4852725Y571900D01*
X4852727Y571900D01*
X4954587Y599193D01*
X5045913Y651920D01*
X5120480Y726487D01*
X5173207Y817813D01*
X5200500Y919673D01*
X5200500Y1025127D01*
X5173207Y1126987D01*
X5120480Y1218313D01*
X5050974Y1287819D01*
X5017489Y1349142D01*
X5022473Y1418834D01*
X5064345Y1474767D01*
X5129809Y1499184D01*
X5138655Y1499500D01*
X8810226Y1499500D01*
X8810228Y1499500D01*
X8902297Y1537636D01*
X9112242Y1747581D01*
X9173565Y1781066D01*
X9199923Y1783900D01*
X9247525Y1783900D01*
X9247527Y1783900D01*
X9349387Y1811193D01*
X9440713Y1863920D01*
X9515280Y1938487D01*
X9515286Y1938499D01*
X9519317Y1943751D01*
X9575741Y1984959D01*
X9645486Y1989121D01*
X9705381Y1955955D01*
X9902846Y1758490D01*
X9936331Y1697167D01*
X9934940Y1638717D01*
X9911900Y1552729D01*
X9911900Y1552727D01*
X9911900Y1447273D01*
X9939193Y1345413D01*
X9991920Y1254087D01*
X10066487Y1179520D01*
X10157813Y1126793D01*
X10259673Y1099500D01*
X10259675Y1099500D01*
X10365125Y1099500D01*
X10365127Y1099500D01*
X10466987Y1126793D01*
X10558313Y1179520D01*
X10632880Y1254087D01*
X10685607Y1345413D01*
X10712900Y1447273D01*
X10712900Y1552727D01*
X10685607Y1654587D01*
X10632880Y1745913D01*
X10558313Y1820480D01*
X10551303Y1824528D01*
X10525628Y1844229D01*
X10524764Y1845093D01*
X10524764Y1845094D01*
X10454297Y1915561D01*
X10454295Y1915562D01*
X9992200Y2377657D01*
X9530806Y2839052D01*
X9497321Y2900375D01*
X9502305Y2970067D01*
X9530805Y3014413D01*
X9570480Y3054087D01*
X9623207Y3145413D01*
X9650500Y3247273D01*
X9650500Y3259477D01*
X9656738Y3280723D01*
X9658318Y3302811D01*
X9666390Y3313595D01*
X9670185Y3326516D01*
X9686918Y3341016D01*
X9700190Y3358744D01*
X9712810Y3363452D01*
X9722989Y3372271D01*
X9744906Y3375423D01*
X9765654Y3383161D01*
X9778814Y3380299D01*
X9792147Y3382215D01*
X9812290Y3373016D01*
X9833927Y3368309D01*
X9851652Y3355041D01*
X9855703Y3353190D01*
X9862181Y3347158D01*
X9875581Y3333758D01*
X9909066Y3272435D01*
X9911900Y3246077D01*
X9911900Y3198473D01*
X9939193Y3096613D01*
X9991920Y3005287D01*
X10066487Y2930720D01*
X10157813Y2877993D01*
X10259673Y2850700D01*
X10259675Y2850700D01*
X10365125Y2850700D01*
X10365127Y2850700D01*
X10466987Y2877993D01*
X10558313Y2930720D01*
X10632880Y3005287D01*
X10685607Y3096613D01*
X10712900Y3198473D01*
X10712900Y3303927D01*
X10685607Y3405787D01*
X10632880Y3497113D01*
X10558313Y3571680D01*
X10479274Y3617313D01*
X10466989Y3624406D01*
X10466988Y3624407D01*
X10466987Y3624407D01*
X10365127Y3651700D01*
X10365126Y3651700D01*
X10317523Y3651700D01*
X10288082Y3660345D01*
X10258096Y3666868D01*
X10253080Y3670623D01*
X10250484Y3671385D01*
X10229842Y3688019D01*
X10144688Y3773173D01*
X10111203Y3834496D01*
X10116187Y3904188D01*
X10158059Y3960121D01*
X10223523Y3984538D01*
X10264458Y3980630D01*
X10310473Y3968300D01*
X10310475Y3968300D01*
X10415925Y3968300D01*
X10415927Y3968300D01*
X10517787Y3995593D01*
X10609113Y4048320D01*
X10683680Y4122887D01*
X10736407Y4214213D01*
X10763700Y4316073D01*
X10763700Y4421527D01*
X10736407Y4523387D01*
X10683680Y4614713D01*
X10609113Y4689280D01*
X10517787Y4742007D01*
X10415927Y4769300D01*
X10310473Y4769300D01*
X10208613Y4742007D01*
X10208610Y4742006D01*
X10117285Y4689279D01*
X10042721Y4614715D01*
X9989994Y4523390D01*
X9989993Y4523387D01*
X9962700Y4421527D01*
X9962700Y4316073D01*
X9989993Y4214213D01*
X9996434Y4203056D01*
X9997296Y4201564D01*
X10013767Y4133663D01*
X9990915Y4067637D01*
X9935993Y4024447D01*
X9866439Y4017806D01*
X9842458Y4025003D01*
X9836431Y4027499D01*
X9836429Y4027500D01*
X9836428Y4027500D01*
X9836426Y4027500D01*
X5827866Y4027500D01*
X5807033Y4027500D01*
X5807031Y4027501D01*
X5707376Y4027501D01*
X5683988Y4017813D01*
X5667282Y4010894D01*
X5667280Y4010893D01*
X5615305Y3989364D01*
X5615304Y3989363D01*
X3462761Y1836819D01*
X3401438Y1803334D01*
X3375080Y1800500D01*
X2081521Y1800500D01*
X2014482Y1820185D01*
X1968727Y1872989D01*
X1958783Y1942147D01*
X1974131Y1986495D01*
X2016002Y2059016D01*
X2043295Y2160876D01*
X2043295Y2266330D01*
X2016002Y2368190D01*
X1963275Y2459516D01*
X1888708Y2534083D01*
X1797382Y2586810D01*
X1695522Y2614103D01*
X1590068Y2614103D01*
X1548500Y2602965D01*
X1488208Y2586810D01*
X1488205Y2586809D01*
X1396880Y2534082D01*
X1322316Y2459518D01*
X1269589Y2368193D01*
X1269588Y2368190D01*
X1242295Y2266330D01*
X1242295Y2160876D01*
X1269588Y2059016D01*
X1311457Y1986497D01*
X1327929Y1918601D01*
X1305077Y1852574D01*
X1250156Y1809383D01*
X1204069Y1800500D01*
X129123Y1800500D01*
X62084Y1820185D01*
X41442Y1836819D01*
X-341038Y2219299D01*
X-374523Y2280622D01*
X-369539Y2350314D01*
X-327667Y2406247D01*
X-309555Y2416560D01*
X-309652Y2416729D01*
X-302613Y2420793D01*
X-211287Y2473520D01*
X-136720Y2548087D01*
X-83993Y2639413D01*
X-56700Y2741273D01*
X-56700Y2846727D01*
X-83356Y2946210D01*
X-81693Y3016056D01*
X-42531Y3073919D01*
X21698Y3101423D01*
X36419Y3102300D01*
X659426Y3102300D01*
X659428Y3102300D01*
X751497Y3140436D01*
X937819Y3326758D01*
X999142Y3360243D01*
X1068834Y3355259D01*
X1124767Y3313387D01*
X1149184Y3247923D01*
X1149500Y3239077D01*
X1149500Y3197273D01*
X1176793Y3095413D01*
X1229520Y3004087D01*
X1304087Y2929520D01*
X1395413Y2876793D01*
X1497273Y2849500D01*
X1497275Y2849500D01*
X1521116Y2849500D01*
X1602727Y2849500D01*
X1704587Y2876793D01*
X1795913Y2929520D01*
X1870480Y3004087D01*
X1923207Y3095413D01*
X1950500Y3197273D01*
X1950500Y3302727D01*
X1950500Y3302730D01*
X1949475Y3310516D01*
X1960241Y3379551D01*
X2006622Y3431806D01*
X2072414Y3450700D01*
X3103277Y3450700D01*
X3132717Y3442056D01*
X3162704Y3435532D01*
X3167719Y3431778D01*
X3170316Y3431015D01*
X3190958Y3414381D01*
X3271581Y3333758D01*
X3305066Y3272435D01*
X3307900Y3246077D01*
X3307900Y3198473D01*
X3335193Y3096613D01*
X3387920Y3005287D01*
X3462487Y2930720D01*
X3553813Y2877993D01*
X3655673Y2850700D01*
X3655675Y2850700D01*
X3761125Y2850700D01*
X3761127Y2850700D01*
X3862987Y2877993D01*
X3954313Y2930720D01*
X4028880Y3005287D01*
X4081607Y3096613D01*
X4108900Y3198473D01*
X4108900Y3303927D01*
X4081607Y3405787D01*
X4028880Y3497113D01*
X3954313Y3571680D01*
X3875274Y3617313D01*
X3862989Y3624406D01*
X3862988Y3624407D01*
X3862987Y3624407D01*
X3761127Y3651700D01*
X3761126Y3651700D01*
X3713523Y3651700D01*
X3684082Y3660345D01*
X3654096Y3666868D01*
X3649080Y3670623D01*
X3646484Y3671385D01*
X3625842Y3688019D01*
X3501435Y3812426D01*
X3467950Y3873749D01*
X3472934Y3943441D01*
X3514806Y3999374D01*
X3580270Y4023791D01*
X3621202Y4019883D01*
X3697273Y3999500D01*
X3697276Y3999500D01*
X3802725Y3999500D01*
X3802727Y3999500D01*
X3904587Y4026793D01*
X3995913Y4079520D01*
X4070480Y4154087D01*
X4123207Y4245413D01*
X4150500Y4347273D01*
X4150500Y4452727D01*
X4123207Y4554587D01*
X4070480Y4645913D01*
X3995913Y4720480D01*
X3904587Y4773207D01*
X3802727Y4800500D01*
X3697273Y4800500D01*
X3595413Y4773207D01*
X3595410Y4773206D01*
X3504085Y4720479D01*
X3429521Y4645915D01*
X3376794Y4554590D01*
X3376793Y4554587D01*
X3349500Y4452727D01*
X3349500Y4347273D01*
X3376793Y4245413D01*
X3429520Y4154087D01*
X3429523Y4154084D01*
X3434074Y4148153D01*
X3459269Y4082984D01*
X3445231Y4014539D01*
X3396418Y3964549D01*
X3328327Y3948885D01*
X3311516Y3951047D01*
X3308232Y3951700D01*
X3308228Y3951700D01*
X3066630Y3951700D01*
X2999591Y3971385D01*
X2953836Y4024189D01*
X2943892Y4093347D01*
X2966491Y4147006D01*
X2966416Y4147049D01*
X2966760Y4147647D01*
X2968250Y4151182D01*
X2970471Y4154079D01*
X2970480Y4154087D01*
X3023207Y4245413D01*
X3050500Y4347273D01*
X3050500Y4452727D01*
X3023207Y4554587D01*
X2970480Y4645913D01*
X2895913Y4720480D01*
X2804587Y4773207D01*
X2702727Y4800500D01*
X2597273Y4800500D01*
X2508169Y4776625D01*
X2476076Y4772400D01*
X-4075436Y4772400D01*
X-4142475Y4792085D01*
X-4163117Y4808719D01*
X-5048455Y5694057D01*
X-5081940Y5755380D01*
X-5084774Y5781738D01*
X-5084774Y5829340D01*
X-5084774Y5829342D01*
X-5112067Y5931202D01*
X-5164794Y6022528D01*
X-5239361Y6097095D01*
X-5282695Y6122114D01*
X-5330910Y6172680D01*
X-5344132Y6241287D01*
X-5318164Y6306152D01*
X-5261250Y6346680D01*
X-5220694Y6353500D01*
X-4020758Y6353500D01*
X-3958758Y6336887D01*
X-3954315Y6334322D01*
X-3954313Y6334320D01*
X-3862987Y6281593D01*
X-3761127Y6254300D01*
X-3761125Y6254300D01*
X-3655675Y6254300D01*
X-3655673Y6254300D01*
X-3553813Y6281593D01*
X-3462487Y6334320D01*
X-3387920Y6408887D01*
X-3335193Y6500213D01*
X-3307900Y6602073D01*
X-3307900Y6707527D01*
X-3335193Y6809387D01*
X-3387920Y6900713D01*
X-3462487Y6975280D01*
X-3537324Y7018487D01*
X-3553811Y7028006D01*
X-3553812Y7028007D01*
X-3553813Y7028007D01*
X-3655673Y7055300D01*
X-3761127Y7055300D01*
X-3862987Y7028007D01*
X-3862990Y7028006D01*
X-3954315Y6975279D01*
X-4034627Y6894966D01*
X-4036108Y6896447D01*
X-4083540Y6861811D01*
X-4125490Y6854500D01*
X-8268745Y6854500D01*
X-8335784Y6874185D01*
X-8356426Y6890819D01*
X-8390086Y6924479D01*
X-8390087Y6924480D01*
X-8457121Y6963182D01*
X-8481411Y6977206D01*
X-8481412Y6977207D01*
X-8481413Y6977207D01*
X-8583273Y7004500D01*
X-8688727Y7004500D01*
X-8790587Y6977207D01*
X-8790590Y6977206D01*
X-8881915Y6924479D01*
X-8956479Y6849915D01*
X-9009206Y6758590D01*
X-9009207Y6758587D01*
X-9036500Y6656727D01*
X-9036500Y6551273D01*
X-9012522Y6461787D01*
X-9009207Y6449414D01*
X-9009206Y6449411D01*
X-8998528Y6430916D01*
X-8960864Y6365680D01*
X-8956479Y6358086D01*
X-8953374Y6354981D01*
X-8951591Y6351714D01*
X-8951531Y6351637D01*
X-8951544Y6351628D01*
X-8919889Y6293658D01*
X-8924873Y6223966D01*
X-8966745Y6168033D01*
X-9032209Y6143616D01*
X-9041055Y6143300D01*
X-10413030Y6143300D01*
X-10505098Y6105164D01*
X-10505099Y6105163D01*
X-11601442Y5008819D01*
X-11662765Y4975334D01*
X-11689123Y4972500D01*
X-11736727Y4972500D01*
X-11838587Y4945207D01*
X-11838590Y4945206D01*
X-11929915Y4892479D01*
X-12004479Y4817915D01*
X-12057206Y4726590D01*
X-12057207Y4726587D01*
X-12084500Y4624727D01*
X-12084500Y4519273D01*
X-12057207Y4417413D01*
X-12004480Y4326087D01*
X-11929913Y4251520D01*
X-11838587Y4198793D01*
X-11736727Y4171500D01*
X-11736725Y4171500D01*
X-11631275Y4171500D01*
X-11631273Y4171500D01*
X-11529413Y4198793D01*
X-11438087Y4251520D01*
X-11363520Y4326087D01*
X-11310793Y4417413D01*
X-11283500Y4519273D01*
X-11283500Y4566877D01*
X-11263815Y4633916D01*
X-11247181Y4654558D01*
X-10295758Y5605981D01*
X-10234435Y5639466D01*
X-10208077Y5642300D01*
X-7881558Y5642300D01*
X-7819558Y5625687D01*
X-7815115Y5623122D01*
X-7815113Y5623120D01*
X-7723787Y5570393D01*
X-7621927Y5543100D01*
X-7621925Y5543100D01*
X-7516475Y5543100D01*
X-7516473Y5543100D01*
X-7414613Y5570393D01*
X-7323287Y5623120D01*
X-7248720Y5697687D01*
X-7195993Y5789013D01*
X-7168700Y5890873D01*
X-7168700Y5996327D01*
X-7195993Y6098187D01*
X-7236012Y6167501D01*
X-7252484Y6235400D01*
X-7229632Y6301427D01*
X-7174710Y6344618D01*
X-7128624Y6353500D01*
X-5749854Y6353500D01*
X-5682815Y6333815D01*
X-5637060Y6281011D01*
X-5627116Y6211853D01*
X-5656141Y6148297D01*
X-5687854Y6122113D01*
X-5731189Y6097094D01*
X-5805753Y6022530D01*
X-5858480Y5931205D01*
X-5858481Y5931202D01*
X-5885774Y5829342D01*
X-5885774Y5723888D01*
X-5858481Y5622028D01*
X-5805754Y5530702D01*
X-5731187Y5456135D01*
X-5639861Y5403408D01*
X-5538001Y5376115D01*
X-5490397Y5376115D01*
X-5423358Y5356430D01*
X-5402716Y5339796D01*
X-4747001Y4684081D01*
X-4713516Y4622758D01*
X-4718500Y4553066D01*
X-4760372Y4497133D01*
X-4825836Y4472716D01*
X-4834682Y4472400D01*
X-6253832Y4472400D01*
X-6320871Y4492085D01*
X-6366626Y4544889D01*
X-6376570Y4614047D01*
X-6347545Y4677603D01*
X-6315838Y4703784D01*
X-6307287Y4708720D01*
X-6232720Y4783287D01*
X-6179993Y4874613D01*
X-6152700Y4976473D01*
X-6152700Y5081927D01*
X-6179993Y5183787D01*
X-6232720Y5275113D01*
X-6307287Y5349680D01*
X-6398613Y5402407D01*
X-6500473Y5429700D01*
X-6605927Y5429700D01*
X-6707787Y5402407D01*
X-6707790Y5402406D01*
X-6799115Y5349679D01*
X-6873679Y5275115D01*
X-6926406Y5183790D01*
X-6926407Y5183787D01*
X-6953700Y5081927D01*
X-6953700Y4976473D01*
X-6926407Y4874613D01*
X-6873680Y4783287D01*
X-6799113Y4708720D01*
X-6790565Y4703785D01*
X-6742352Y4653219D01*
X-6729130Y4584612D01*
X-6755098Y4519748D01*
X-6812012Y4479220D01*
X-6852568Y4472400D01*
X-8381462Y4472400D01*
X-8473530Y4434264D01*
X-8473531Y4434263D01*
X-8668418Y4239375D01*
X-8729741Y4205890D01*
X-8756099Y4203056D01*
X-8803703Y4203056D01*
X-8905563Y4175763D01*
X-8905566Y4175762D01*
X-8996891Y4123035D01*
X-9071455Y4048471D01*
X-9124182Y3957146D01*
X-9124183Y3957143D01*
X-9151476Y3855283D01*
X-9151476Y3749829D01*
X-9125182Y3651700D01*
X-9124183Y3647970D01*
X-9124182Y3647967D01*
X-9110579Y3624406D01*
X-9071456Y3556643D01*
X-8996889Y3482076D01*
X-8905563Y3429349D01*
X-8803703Y3402056D01*
X-8803701Y3402056D01*
X-8698251Y3402056D01*
X-8698249Y3402056D01*
X-8596389Y3429349D01*
X-8505063Y3482076D01*
X-8472647Y3514492D01*
X-8411324Y3547977D01*
X-8341632Y3542993D01*
X-8297285Y3514492D01*
X-8296080Y3513287D01*
X-8221513Y3438720D01*
X-8130187Y3385993D01*
X-8028327Y3358700D01*
X-8028325Y3358700D01*
X-7922875Y3358700D01*
X-7922873Y3358700D01*
X-7821013Y3385993D01*
X-7729687Y3438720D01*
X-7655120Y3513287D01*
X-7602393Y3604613D01*
X-7575100Y3706473D01*
X-7575100Y3811927D01*
X-7576006Y3815309D01*
X-7575936Y3818271D01*
X-7576161Y3819983D01*
X-7575894Y3820019D01*
X-7574343Y3885157D01*
X-7535180Y3943019D01*
X-7470951Y3970523D01*
X-7456231Y3971400D01*
X-6987573Y3971400D01*
X-6920534Y3951715D01*
X-6874779Y3898911D01*
X-6864634Y3831216D01*
X-6865501Y3824630D01*
X-6865501Y3824627D01*
X-6865501Y3719173D01*
X-6838208Y3617313D01*
X-6785481Y3525987D01*
X-6710914Y3451420D01*
X-6619588Y3398693D01*
X-6517728Y3371400D01*
X-6470124Y3371400D01*
X-6403085Y3351715D01*
X-6382443Y3335081D01*
X-5828492Y2781130D01*
X-5795007Y2719807D01*
X-5799991Y2650115D01*
X-5828492Y2605768D01*
X-6023117Y2411142D01*
X-6084440Y2377657D01*
X-6154131Y2382641D01*
X-6198479Y2411142D01*
X-6313480Y2526143D01*
X-6507100Y2719764D01*
X-6558938Y2741236D01*
X-6599168Y2757900D01*
X-6599169Y2757900D01*
X-14071369Y2757900D01*
X-14171024Y2757900D01*
X-14171026Y2757900D01*
X-14263094Y2719764D01*
X-14263095Y2719763D01*
X-14393101Y2589756D01*
X-14454424Y2556271D01*
X-14480782Y2553437D01*
X-14528386Y2553437D01*
X-14630246Y2526144D01*
X-14630249Y2526143D01*
X-14721574Y2473416D01*
X-14796138Y2398852D01*
X-14848865Y2307527D01*
X-14848866Y2307524D01*
X-14876159Y2205664D01*
X-14876159Y2100210D01*
X-14848866Y1998350D01*
X-14796139Y1907024D01*
X-14721572Y1832457D01*
X-14630246Y1779730D01*
X-14528386Y1752437D01*
X-14528384Y1752437D01*
X-14422934Y1752437D01*
X-14422932Y1752437D01*
X-14321072Y1779730D01*
X-14229746Y1832457D01*
X-14155179Y1907024D01*
X-14102452Y1998350D01*
X-14075159Y2100210D01*
X-14075159Y2132900D01*
X-14055474Y2199939D01*
X-14002670Y2245694D01*
X-13951159Y2256900D01*
X-9945972Y2256900D01*
X-9878933Y2237215D01*
X-9833178Y2184411D01*
X-9823033Y2116716D01*
X-9823900Y2110130D01*
X-9823900Y2110127D01*
X-9823900Y2004673D01*
X-9796979Y1904204D01*
X-9796607Y1902814D01*
X-9796606Y1902811D01*
X-9784339Y1881564D01*
X-9743880Y1811487D01*
X-9669313Y1736920D01*
X-9585866Y1688742D01*
X-9537650Y1638175D01*
X-9524428Y1569568D01*
X-9550396Y1504703D01*
X-9560185Y1493674D01*
X-10074039Y979819D01*
X-10135362Y946334D01*
X-10161720Y943500D01*
X-12036369Y943500D01*
X-12103408Y963185D01*
X-12149163Y1015989D01*
X-12159107Y1085147D01*
X-12143759Y1129495D01*
X-12098193Y1208416D01*
X-12070900Y1310276D01*
X-12070900Y1415730D01*
X-12098193Y1517590D01*
X-12150920Y1608916D01*
X-12225487Y1683483D01*
X-12292341Y1722081D01*
X-12316811Y1736209D01*
X-12316812Y1736210D01*
X-12316813Y1736210D01*
X-12418673Y1763503D01*
X-12524127Y1763503D01*
X-12625987Y1736210D01*
X-12625990Y1736209D01*
X-12717315Y1683482D01*
X-12791879Y1608918D01*
X-12844606Y1517593D01*
X-12844607Y1517590D01*
X-12871900Y1415730D01*
X-12871900Y1310276D01*
X-12844607Y1208416D01*
X-12799043Y1129497D01*
X-12782571Y1061601D01*
X-12805423Y995574D01*
X-12860344Y952383D01*
X-12906431Y943500D01*
X-13971512Y943500D01*
X-14038551Y963185D01*
X-14084306Y1015989D01*
X-14085843Y1020181D01*
X-14086083Y1020081D01*
X-14089191Y1027583D01*
X-14089192Y1027588D01*
X-14141919Y1118914D01*
X-14216486Y1193481D01*
X-14307812Y1246208D01*
X-14409672Y1273501D01*
X-14515126Y1273501D01*
X-14616986Y1246208D01*
X-14616989Y1246207D01*
X-14708314Y1193480D01*
X-14782878Y1118916D01*
X-14835605Y1027591D01*
X-14835606Y1027588D01*
X-14862899Y925728D01*
X-14862899Y820274D01*
X-14835606Y718414D01*
X-14782879Y627088D01*
X-14708312Y552521D01*
X-14616986Y499794D01*
X-14515126Y472501D01*
X-14515124Y472501D01*
X-14429319Y472501D01*
X-14381865Y463061D01*
X-14353471Y451300D01*
X-14332226Y442500D01*
X-14332225Y442500D01*
X-12757922Y442500D01*
X-12690883Y422815D01*
X-12645128Y370011D01*
X-12635184Y300853D01*
X-12664209Y237297D01*
X-12695921Y211114D01*
X-12709146Y203479D01*
X-12783711Y128914D01*
X-12836438Y37589D01*
X-12836439Y37586D01*
X-12863732Y-64274D01*
X-12863732Y-169728D01*
X-12843318Y-245913D01*
X-12836439Y-271587D01*
X-12836438Y-271590D01*
X-12822310Y-296060D01*
X-12783712Y-362914D01*
X-12709145Y-437481D01*
X-12617819Y-490208D01*
X-12515959Y-517501D01*
X-12515957Y-517501D01*
X-12410507Y-517501D01*
X-12410505Y-517501D01*
X-12308645Y-490208D01*
X-12308639Y-490204D01*
X-12305918Y-489078D01*
X-12303431Y-488810D01*
X-12300794Y-488104D01*
X-12300684Y-488515D01*
X-12236449Y-481606D01*
X-12173969Y-512879D01*
X-12138314Y-572966D01*
X-12140805Y-642792D01*
X-12170780Y-691318D01*
X-12617442Y-1137981D01*
X-12678765Y-1171466D01*
X-12705123Y-1174300D01*
X-12752727Y-1174300D01*
X-12854587Y-1201593D01*
X-12854590Y-1201594D01*
X-12945915Y-1254321D01*
X-13020479Y-1328885D01*
X-13073206Y-1420210D01*
X-13073207Y-1420213D01*
X-13100500Y-1522073D01*
X-13100500Y-1627527D01*
X-13099140Y-1632606D01*
X-13100800Y-1702453D01*
X-13139961Y-1760316D01*
X-13204188Y-1787823D01*
X-13218913Y-1788700D01*
X-13491878Y-1788700D01*
X-13558917Y-1769015D01*
X-13579559Y-1752381D01*
X-13934421Y-1397519D01*
X-14309103Y-1022836D01*
X-14345934Y-1007580D01*
X-14401171Y-984700D01*
X-14401172Y-984700D01*
X-14618745Y-984700D01*
X-14685784Y-965015D01*
X-14706426Y-948381D01*
X-14740086Y-914721D01*
X-14740087Y-914720D01*
X-14831413Y-861993D01*
X-14933273Y-834700D01*
X-15038727Y-834700D01*
X-15140587Y-861993D01*
X-15140590Y-861994D01*
X-15231915Y-914721D01*
X-15306479Y-989285D01*
X-15359206Y-1080610D01*
X-15359207Y-1080613D01*
X-15386500Y-1182473D01*
X-15386500Y-1287927D01*
X-15359207Y-1389787D01*
X-15306480Y-1481113D01*
X-15231913Y-1555680D01*
X-15140587Y-1608407D01*
X-15038727Y-1635700D01*
X-15038725Y-1635700D01*
X-14933275Y-1635700D01*
X-14933273Y-1635700D01*
X-14831413Y-1608407D01*
X-14740087Y-1555680D01*
X-14706426Y-1522019D01*
X-14679499Y-1507315D01*
X-14653680Y-1490723D01*
X-14647480Y-1489831D01*
X-14645103Y-1488534D01*
X-14618745Y-1485700D01*
X-14606123Y-1485700D01*
X-14539084Y-1505385D01*
X-14518442Y-1522019D01*
X-13866435Y-2174025D01*
X-13866432Y-2174029D01*
X-13859364Y-2181097D01*
X-13788897Y-2251564D01*
X-13788892Y-2251566D01*
X-13779048Y-2255644D01*
X-13779047Y-2255644D01*
X-13696827Y-2289701D01*
X-13696826Y-2289701D01*
X-13582738Y-2289701D01*
X-13582730Y-2289700D01*
X-12968572Y-2289700D01*
X-12901533Y-2309385D01*
X-12855778Y-2362189D01*
X-12845633Y-2429884D01*
X-12846500Y-2436470D01*
X-12846500Y-2436473D01*
X-12846500Y-2541927D01*
X-12819207Y-2643787D01*
X-12766480Y-2735113D01*
X-12691913Y-2809680D01*
X-12600587Y-2862407D01*
X-12498727Y-2889700D01*
X-12451123Y-2889700D01*
X-12384084Y-2909385D01*
X-12363442Y-2926019D01*
X-12149061Y-3140399D01*
X-11944963Y-3344497D01*
X-11944962Y-3344499D01*
X-11874495Y-3414966D01*
X-11864647Y-3419045D01*
X-11782426Y-3453103D01*
X-11782425Y-3453103D01*
X-11775845Y-3454412D01*
X-11713932Y-3486794D01*
X-11679356Y-3547508D01*
X-11677092Y-3592213D01*
X-11678100Y-3599870D01*
X-11678100Y-3599875D01*
X-11678100Y-3705329D01*
X-11655259Y-3790571D01*
X-11650807Y-3807188D01*
X-11650806Y-3807191D01*
X-11636678Y-3831661D01*
X-11598080Y-3898515D01*
X-11523513Y-3973082D01*
X-11432187Y-4025809D01*
X-11330327Y-4053102D01*
X-11330325Y-4053102D01*
X-11224875Y-4053102D01*
X-11224873Y-4053102D01*
X-11123013Y-4025809D01*
X-11031687Y-3973082D01*
X-10957120Y-3898515D01*
X-10904393Y-3807189D01*
X-10877100Y-3705329D01*
X-10877100Y-3599875D01*
X-10877100Y-3599872D01*
X-10877967Y-3593286D01*
X-10867201Y-3524251D01*
X-10820820Y-3471995D01*
X-10755028Y-3453102D01*
X-8679054Y-3453102D01*
X-8612015Y-3472787D01*
X-8566260Y-3525591D01*
X-8556316Y-3594749D01*
X-8559279Y-3609191D01*
X-8578641Y-3681455D01*
X-8578641Y-3786909D01*
X-8567998Y-3826627D01*
X-8551348Y-3888768D01*
X-8551347Y-3888771D01*
X-8540375Y-3907775D01*
X-8498621Y-3980095D01*
X-8424054Y-4054662D01*
X-8332728Y-4107389D01*
X-8332232Y-4107522D01*
X-8331861Y-4107747D01*
X-8325221Y-4110498D01*
X-8325650Y-4111533D01*
X-8272570Y-4143881D01*
X-8242036Y-4206725D01*
X-8250325Y-4276102D01*
X-8276635Y-4314978D01*
X-8324159Y-4362502D01*
X-8362295Y-4454570D01*
X-8362295Y-4587234D01*
X-8357178Y-4599587D01*
X-8324159Y-4679302D01*
X-8324158Y-4679303D01*
X-8310821Y-4692640D01*
X-8277334Y-4753962D01*
X-8274500Y-4780323D01*
X-8274500Y-4827927D01*
X-8247207Y-4929787D01*
X-8194480Y-5021113D01*
X-8119913Y-5095680D01*
X-8028587Y-5148407D01*
X-8028583Y-5148408D01*
X-8023852Y-5150368D01*
X-7969446Y-5194206D01*
X-7947378Y-5260499D01*
X-7951523Y-5297021D01*
X-7956713Y-5316393D01*
X-7957699Y-5320072D01*
X-7957699Y-5425526D01*
X-7930406Y-5527386D01*
X-7877679Y-5618712D01*
X-7803112Y-5693279D01*
X-7711786Y-5746006D01*
X-7609926Y-5773299D01*
X-7609924Y-5773299D01*
X-7504474Y-5773299D01*
X-7504472Y-5773299D01*
X-7402612Y-5746006D01*
X-7311286Y-5693279D01*
X-7236719Y-5618712D01*
X-7183992Y-5527386D01*
X-7156699Y-5425526D01*
X-7156699Y-5320072D01*
X-7156972Y-5319053D01*
X-7156951Y-5318161D01*
X-7157760Y-5312016D01*
X-7156802Y-5311889D01*
X-7155313Y-5249206D01*
X-7116153Y-5191341D01*
X-7051926Y-5163834D01*
X-6983024Y-5175417D01*
X-6958425Y-5192932D01*
X-6957963Y-5192331D01*
X-6951517Y-5197277D01*
X-6951515Y-5197278D01*
X-6951513Y-5197280D01*
X-6860187Y-5250007D01*
X-6758327Y-5277300D01*
X-6758325Y-5277300D01*
X-6652875Y-5277300D01*
X-6652873Y-5277300D01*
X-6647015Y-5275730D01*
X-6577166Y-5277391D01*
X-6527238Y-5307823D01*
X-6359164Y-5475897D01*
X-6288697Y-5546364D01*
X-6196628Y-5584500D01*
X3018480Y-5584500D01*
X3085519Y-5604185D01*
X3106161Y-5620819D01*
X3309639Y-5824297D01*
X3380106Y-5894764D01*
X3380111Y-5894766D01*
X3380250Y-5894859D01*
X3380499Y-5895157D01*
X3388742Y-5903400D01*
X3388004Y-5904137D01*
X3425057Y-5948470D01*
X3433767Y-6017794D01*
X3403615Y-6080823D01*
X3373365Y-6105350D01*
X3323083Y-6134381D01*
X3248519Y-6208945D01*
X3195792Y-6300270D01*
X3195791Y-6300273D01*
X3168498Y-6402133D01*
X3168498Y-6507588D01*
X3180668Y-6553008D01*
X3179005Y-6622858D01*
X3139841Y-6680720D01*
X3075613Y-6708223D01*
X3060893Y-6709100D01*
X2637815Y-6709100D01*
X2570776Y-6689415D01*
X2525021Y-6636611D01*
X2515077Y-6567453D01*
X2530428Y-6523100D01*
X2539384Y-6507588D01*
X2573208Y-6449003D01*
X2600501Y-6347143D01*
X2600501Y-6241689D01*
X2573208Y-6139829D01*
X2520481Y-6048503D01*
X2445914Y-5973936D01*
X2354588Y-5921209D01*
X2252728Y-5893916D01*
X2147274Y-5893916D01*
X2045414Y-5921209D01*
X2045411Y-5921210D01*
X1954086Y-5973937D01*
X1879521Y-6048502D01*
X1831135Y-6132308D01*
X1780568Y-6180523D01*
X1711961Y-6193745D01*
X1691854Y-6190118D01*
X1691727Y-6190101D01*
X1691726Y-6190101D01*
X1586272Y-6190101D01*
X1484412Y-6217394D01*
X1484409Y-6217395D01*
X1393084Y-6270122D01*
X1318520Y-6344686D01*
X1265793Y-6436011D01*
X1265792Y-6436014D01*
X1238499Y-6537874D01*
X1238499Y-6643328D01*
X1265792Y-6745188D01*
X1312263Y-6825678D01*
X1318828Y-6852741D01*
X1328559Y-6878829D01*
X1326951Y-6886220D01*
X1328735Y-6893574D01*
X1319626Y-6919892D01*
X1313707Y-6947102D01*
X1307200Y-6955792D01*
X1305883Y-6959601D01*
X1292556Y-6975356D01*
X1241406Y-7026506D01*
X1180083Y-7059991D01*
X1110391Y-7055007D01*
X1091732Y-7046216D01*
X1087193Y-7043596D01*
X1087189Y-7043594D01*
X1087187Y-7043593D01*
X985327Y-7016300D01*
X879873Y-7016300D01*
X778013Y-7043593D01*
X778010Y-7043594D01*
X686685Y-7096321D01*
X612121Y-7170885D01*
X559394Y-7262210D01*
X559393Y-7262213D01*
X532100Y-7364073D01*
X532100Y-7469527D01*
X559393Y-7571387D01*
X612120Y-7662713D01*
X686687Y-7737280D01*
X778013Y-7790007D01*
X778018Y-7790008D01*
X785520Y-7793116D01*
X784168Y-7796379D01*
X830011Y-7824352D01*
X860511Y-7887213D01*
X852183Y-7956585D01*
X807672Y-8010441D01*
X741110Y-8031684D01*
X738218Y-8031718D01*
X-1519460Y-8031718D01*
X-1586499Y-8012033D01*
X-1607141Y-7995399D01*
X-1809424Y-7793116D01*
X-2042503Y-7560036D01*
X-2059603Y-7552953D01*
X-2134571Y-7521900D01*
X-2134572Y-7521900D01*
X-3350078Y-7521900D01*
X-3417117Y-7502215D01*
X-3437759Y-7485581D01*
X-4166742Y-6756597D01*
X-4200227Y-6695274D01*
X-4195243Y-6625582D01*
X-4153371Y-6569649D01*
X-4087907Y-6545232D01*
X-4079061Y-6544916D01*
X-1433961Y-6544916D01*
X-1366922Y-6564601D01*
X-1321167Y-6617405D01*
X-1311223Y-6686563D01*
X-1314186Y-6701007D01*
X-1314900Y-6703668D01*
X-1314900Y-6703673D01*
X-1314900Y-6809127D01*
X-1287607Y-6910987D01*
X-1234880Y-7002313D01*
X-1160313Y-7076880D01*
X-1068987Y-7129607D01*
X-967127Y-7156900D01*
X-967125Y-7156900D01*
X-861675Y-7156900D01*
X-861673Y-7156900D01*
X-759813Y-7129607D01*
X-668487Y-7076880D01*
X-593920Y-7002313D01*
X-541193Y-6910987D01*
X-526429Y-6855886D01*
X-490065Y-6796228D01*
X-427219Y-6765698D01*
X-365843Y-6772667D01*
X-365638Y-6771903D01*
X-360538Y-6773269D01*
X-359196Y-6773422D01*
X-357797Y-6774001D01*
X-357787Y-6774007D01*
X-255927Y-6801300D01*
X-255925Y-6801300D01*
X-150475Y-6801300D01*
X-150473Y-6801300D01*
X-48613Y-6774007D01*
X42713Y-6721280D01*
X117280Y-6646713D01*
X170007Y-6555387D01*
X197300Y-6453527D01*
X197300Y-6348073D01*
X170007Y-6246213D01*
X117280Y-6154887D01*
X42713Y-6080320D01*
X-48613Y-6027593D01*
X-150473Y-6000300D01*
X-255927Y-6000300D01*
X-357787Y-6027593D01*
X-357788Y-6027593D01*
X-357790Y-6027594D01*
X-365301Y-6030705D01*
X-365769Y-6029576D01*
X-419286Y-6043916D01*
X-9551788Y-6043916D01*
X-9618827Y-6024231D01*
X-9664582Y-5971427D01*
X-9674526Y-5902269D01*
X-9662240Y-5866772D01*
X-9662904Y-5866497D01*
X-9659798Y-5858995D01*
X-9659793Y-5858987D01*
X-9632500Y-5757127D01*
X-9632500Y-5651673D01*
X-9659793Y-5549813D01*
X-9712520Y-5458487D01*
X-9787087Y-5383920D01*
X-9839135Y-5353870D01*
X-9887350Y-5303304D01*
X-9900572Y-5234697D01*
X-9874604Y-5169832D01*
X-9817690Y-5129304D01*
X-9809227Y-5126709D01*
X-9802476Y-5124900D01*
X-9802473Y-5124900D01*
X-9700613Y-5097607D01*
X-9609287Y-5044880D01*
X-9534720Y-4970313D01*
X-9481993Y-4878987D01*
X-9454700Y-4777127D01*
X-9454700Y-4671673D01*
X-9481993Y-4569813D01*
X-9534720Y-4478487D01*
X-9609287Y-4403920D01*
X-9700613Y-4351193D01*
X-9802473Y-4323900D01*
X-9907927Y-4323900D01*
X-10009787Y-4351193D01*
X-10009790Y-4351194D01*
X-10101115Y-4403921D01*
X-10175679Y-4478485D01*
X-10228406Y-4569810D01*
X-10228407Y-4569813D01*
X-10255700Y-4671673D01*
X-10255700Y-4777127D01*
X-10230327Y-4871819D01*
X-10228407Y-4878986D01*
X-10228406Y-4878989D01*
X-10222753Y-4888780D01*
X-10175680Y-4970313D01*
X-10101113Y-5044880D01*
X-10049066Y-5074929D01*
X-10000852Y-5125495D01*
X-9987628Y-5194102D01*
X-10013596Y-5258967D01*
X-10070510Y-5299495D01*
X-10078973Y-5302090D01*
X-10187589Y-5331193D01*
X-10187590Y-5331194D01*
X-10278915Y-5383921D01*
X-10353479Y-5458485D01*
X-10406206Y-5549810D01*
X-10406207Y-5549813D01*
X-10433500Y-5651673D01*
X-10433500Y-5757127D01*
X-10406207Y-5858987D01*
X-10362025Y-5935513D01*
X-10353479Y-5950314D01*
X-10351892Y-5951901D01*
X-10350980Y-5953571D01*
X-10348531Y-5956763D01*
X-10349029Y-5957144D01*
X-10347554Y-5959846D01*
X-10340306Y-5965272D01*
X-10331072Y-5990031D01*
X-10318407Y-6013224D01*
X-10319053Y-6022253D01*
X-10315889Y-6030736D01*
X-10321506Y-6056556D01*
X-10323391Y-6082916D01*
X-10329210Y-6091969D01*
X-10330741Y-6099009D01*
X-10351892Y-6127263D01*
X-10377149Y-6152520D01*
X-11280656Y-7056025D01*
X-11341979Y-7089510D01*
X-11400428Y-7088119D01*
X-11478873Y-7067100D01*
X-11584327Y-7067100D01*
X-11686187Y-7094393D01*
X-11686190Y-7094394D01*
X-11777515Y-7147121D01*
X-11852079Y-7221685D01*
X-11904806Y-7313010D01*
X-11904807Y-7313013D01*
X-11932100Y-7414873D01*
X-11932100Y-7520327D01*
X-11918418Y-7571387D01*
X-11904807Y-7622186D01*
X-11904806Y-7622189D01*
X-11900779Y-7629164D01*
X-11852080Y-7713513D01*
X-11777513Y-7788080D01*
X-11686187Y-7840807D01*
X-11584327Y-7868100D01*
X-11584325Y-7868100D01*
X-11478875Y-7868100D01*
X-11478873Y-7868100D01*
X-11377013Y-7840807D01*
X-11285687Y-7788080D01*
X-11211120Y-7713513D01*
X-11194010Y-7683875D01*
X-11174308Y-7658199D01*
X-10097343Y-6581235D01*
X-10036020Y-6547750D01*
X-10009662Y-6544916D01*
X-5471339Y-6544916D01*
X-5404300Y-6564601D01*
X-5358545Y-6617405D01*
X-5348601Y-6686563D01*
X-5377626Y-6750119D01*
X-5383658Y-6756597D01*
X-5807842Y-7180781D01*
X-5869165Y-7214266D01*
X-5895523Y-7217100D01*
X-7354345Y-7217100D01*
X-7421384Y-7197415D01*
X-7442026Y-7180781D01*
X-7475686Y-7147121D01*
X-7475687Y-7147120D01*
X-7552710Y-7102651D01*
X-7567011Y-7094394D01*
X-7567012Y-7094393D01*
X-7567013Y-7094393D01*
X-7668873Y-7067100D01*
X-7774327Y-7067100D01*
X-7876187Y-7094393D01*
X-7876190Y-7094394D01*
X-7967515Y-7147121D01*
X-8042079Y-7221685D01*
X-8094806Y-7313010D01*
X-8094807Y-7313013D01*
X-8122100Y-7414873D01*
X-8122100Y-7520327D01*
X-8108418Y-7571387D01*
X-8094807Y-7622186D01*
X-8094806Y-7622189D01*
X-8090779Y-7629164D01*
X-8042080Y-7713513D01*
X-7967513Y-7788080D01*
X-7879663Y-7838800D01*
X-7831448Y-7889366D01*
X-7818225Y-7957973D01*
X-7844193Y-8022838D01*
X-7853983Y-8033867D01*
X-8840325Y-9020208D01*
X-8840324Y-9020209D01*
X-8893350Y-9073235D01*
X-8931486Y-9165302D01*
X-8931486Y-9500192D01*
X-8951171Y-9567231D01*
X-8967805Y-9587873D01*
X-9001465Y-9621532D01*
X-9054192Y-9712857D01*
X-9054193Y-9712860D01*
X-9081486Y-9814720D01*
X-9081486Y-9920176D01*
X-9080619Y-9926763D01*
X-9091385Y-9995798D01*
X-9137766Y-10048054D01*
X-9203558Y-10066947D01*
X-10625089Y-10066947D01*
X-10692128Y-10047262D01*
X-10737883Y-9994458D01*
X-10747827Y-9925300D01*
X-10718802Y-9861744D01*
X-10660024Y-9823970D01*
X-10657215Y-9823181D01*
X-10653523Y-9822192D01*
X-10522293Y-9746426D01*
X-10415143Y-9639276D01*
X-10339377Y-9508046D01*
X-10300158Y-9361677D01*
X-10300158Y-9210145D01*
X-10339377Y-9063776D01*
X-10415143Y-8932546D01*
X-10522293Y-8825396D01*
X-10628692Y-8763966D01*
X-10653522Y-8749630D01*
X-10726708Y-8730020D01*
X-10799892Y-8710411D01*
X-10951424Y-8710411D01*
X-11097795Y-8749630D01*
X-11229023Y-8825396D01*
X-11229026Y-8825398D01*
X-11336171Y-8932543D01*
X-11336173Y-8932546D01*
X-11404265Y-9050485D01*
X-11411939Y-9063776D01*
X-11420737Y-9096612D01*
X-11445113Y-9187584D01*
X-11481478Y-9247244D01*
X-11544325Y-9277773D01*
X-11613701Y-9269478D01*
X-11652569Y-9243171D01*
X-12479540Y-8416200D01*
X-12513025Y-8354877D01*
X-12508041Y-8285185D01*
X-12499251Y-8266528D01*
X-12479193Y-8231787D01*
X-12451900Y-8129927D01*
X-12451900Y-8024473D01*
X-12479193Y-7922613D01*
X-12531920Y-7831287D01*
X-12606487Y-7756720D01*
X-12681324Y-7713513D01*
X-12697811Y-7703994D01*
X-12697812Y-7703993D01*
X-12697813Y-7703993D01*
X-12799673Y-7676700D01*
X-12905127Y-7676700D01*
X-13006987Y-7703993D01*
X-13006990Y-7703994D01*
X-13098315Y-7756721D01*
X-13172879Y-7831285D01*
X-13225606Y-7922610D01*
X-13225607Y-7922613D01*
X-13252900Y-8024473D01*
X-13252900Y-8129927D01*
X-13225607Y-8231787D01*
X-13187798Y-8297275D01*
X-13172879Y-8323114D01*
X-13139219Y-8356774D01*
X-13105734Y-8418097D01*
X-13102900Y-8444455D01*
X-13102900Y-8447429D01*
X-13095605Y-8465040D01*
X-13064764Y-8539497D01*
X-11144918Y-10459342D01*
X-11144917Y-10459344D01*
X-11074450Y-10529811D01*
X-11036313Y-10545607D01*
X-10982380Y-10567948D01*
X-10982379Y-10567948D01*
X-10868291Y-10567948D01*
X-10868283Y-10567947D01*
X-3225255Y-10567947D01*
X-3158216Y-10587632D01*
X-3137574Y-10604266D01*
X-3103913Y-10637927D01*
X-3012587Y-10690654D01*
X-2910727Y-10717947D01*
X-2910725Y-10717947D01*
X-2805275Y-10717947D01*
X-2805273Y-10717947D01*
X-2703413Y-10690654D01*
X-2612087Y-10637927D01*
X-2537520Y-10563360D01*
X-2484793Y-10472034D01*
X-2457500Y-10370174D01*
X-2457500Y-10264720D01*
X-2484793Y-10162860D01*
X-2484794Y-10162858D01*
X-2486897Y-10155009D01*
X-2484036Y-10154242D01*
X-2489986Y-10098881D01*
X-2458710Y-10036402D01*
X-2398620Y-10000751D01*
X-2367957Y-9996900D01*
X-1138171Y-9996900D01*
X-1138169Y-9996900D01*
X-1046100Y-9958764D01*
X-916979Y-9829642D01*
X-855661Y-9796160D01*
X-785969Y-9801144D01*
X-730927Y-9841839D01*
X-726881Y-9847112D01*
X-726880Y-9847113D01*
X-652313Y-9921680D01*
X-560987Y-9974407D01*
X-459127Y-10001700D01*
X-411523Y-10001700D01*
X-344484Y-10021385D01*
X-323842Y-10038019D01*
X-199897Y-10161964D01*
X-107828Y-10200100D01*
X-8172Y-10200100D01*
X2707772Y-10200100D01*
X2781763Y-10200100D01*
X2813855Y-10204325D01*
X2824819Y-10207262D01*
X2842873Y-10212100D01*
X2842875Y-10212100D01*
X2948325Y-10212100D01*
X2948327Y-10212100D01*
X3050187Y-10184807D01*
X3141513Y-10132080D01*
X3216080Y-10057513D01*
X3268807Y-9966187D01*
X3296100Y-9864327D01*
X3296100Y-9758873D01*
X3282091Y-9706590D01*
X3283754Y-9636744D01*
X3322916Y-9578881D01*
X3387144Y-9551377D01*
X3401866Y-9550500D01*
X7190086Y-9550500D01*
X7257125Y-9570185D01*
X7277767Y-9586819D01*
X7789830Y-10098881D01*
X8282224Y-10591275D01*
X8282225Y-10591277D01*
X8352692Y-10661744D01*
X8377474Y-10672009D01*
X8444761Y-10699881D01*
X8444762Y-10699881D01*
X8558851Y-10699881D01*
X8558859Y-10699880D01*
X8917209Y-10699880D01*
X8917211Y-10699880D01*
X9009280Y-10661744D01*
X10160543Y-9510478D01*
X10221864Y-9476995D01*
X10291555Y-9481979D01*
X10347489Y-9523850D01*
X10355609Y-9536161D01*
X10362873Y-9548742D01*
X10415143Y-9639276D01*
X10522293Y-9746426D01*
X10653523Y-9822192D01*
X10799892Y-9861411D01*
X10799894Y-9861411D01*
X10951422Y-9861411D01*
X10951424Y-9861411D01*
X11097793Y-9822192D01*
X11229023Y-9746426D01*
X11336173Y-9639276D01*
X11411939Y-9508046D01*
X11451158Y-9361677D01*
X11451158Y-9210145D01*
X11411939Y-9063776D01*
X11336173Y-8932546D01*
X11229023Y-8825396D01*
X11122624Y-8763966D01*
X11097794Y-8749630D01*
X11024608Y-8730020D01*
X10951424Y-8710411D01*
X10799892Y-8710411D01*
X10741351Y-8726097D01*
X10739451Y-8726606D01*
X10669601Y-8724943D01*
X10611739Y-8685780D01*
X10584235Y-8621551D01*
X10595822Y-8552649D01*
X10599957Y-8544857D01*
X10623207Y-8504587D01*
X10650500Y-8402727D01*
X10650500Y-8297273D01*
X10623207Y-8195413D01*
X10570480Y-8104087D01*
X10495913Y-8029520D01*
X10420714Y-7986104D01*
X10404589Y-7976794D01*
X10404588Y-7976793D01*
X10404587Y-7976793D01*
X10302727Y-7949500D01*
X10197273Y-7949500D01*
X10095413Y-7976793D01*
X10095410Y-7976794D01*
X10004085Y-8029521D01*
X9929521Y-8104085D01*
X9876794Y-8195410D01*
X9876793Y-8195413D01*
X9849500Y-8297273D01*
X9849500Y-8402727D01*
X9876793Y-8504587D01*
X9929520Y-8595913D01*
X9929523Y-8595916D01*
X9933545Y-8602882D01*
X9950158Y-8664883D01*
X9950158Y-8960981D01*
X9930473Y-9028020D01*
X9913839Y-9048662D01*
X9191567Y-9770933D01*
X9130244Y-9804418D01*
X9060552Y-9799434D01*
X9005509Y-9758737D01*
X9001468Y-9753470D01*
X9001466Y-9753467D01*
X8926899Y-9678900D01*
X8835573Y-9626173D01*
X8733713Y-9598880D01*
X8733712Y-9598880D01*
X8686109Y-9598880D01*
X8619070Y-9579195D01*
X8598428Y-9562561D01*
X7930848Y-8894981D01*
X7920235Y-8875544D01*
X7905735Y-8858811D01*
X7903818Y-8845479D01*
X7897363Y-8833658D01*
X7898942Y-8811571D01*
X7895791Y-8789653D01*
X7901386Y-8777401D01*
X7902347Y-8763966D01*
X7915617Y-8746239D01*
X7924816Y-8726097D01*
X7936147Y-8718814D01*
X7944219Y-8708033D01*
X7964964Y-8700295D01*
X7983594Y-8688323D01*
X8005512Y-8685171D01*
X8009683Y-8683616D01*
X8018529Y-8683300D01*
X8173161Y-8683300D01*
X8240200Y-8702985D01*
X8260842Y-8719619D01*
X8274016Y-8732793D01*
X8365342Y-8785520D01*
X8467202Y-8812813D01*
X8467204Y-8812813D01*
X8572654Y-8812813D01*
X8572656Y-8812813D01*
X8674516Y-8785520D01*
X8765842Y-8732793D01*
X8840409Y-8658226D01*
X8893136Y-8566900D01*
X8920429Y-8465040D01*
X8920429Y-8359586D01*
X8893136Y-8257726D01*
X8840409Y-8166400D01*
X8765842Y-8091833D01*
X8698988Y-8053235D01*
X8674518Y-8039107D01*
X8674517Y-8039106D01*
X8674516Y-8039106D01*
X8572656Y-8011813D01*
X8467202Y-8011813D01*
X8365342Y-8039106D01*
X8365339Y-8039107D01*
X8274014Y-8091834D01*
X8219868Y-8145981D01*
X8158545Y-8179466D01*
X8132187Y-8182300D01*
X7738100Y-8182300D01*
X7671061Y-8162615D01*
X7625306Y-8109811D01*
X7614100Y-8058300D01*
X7614100Y-7973675D01*
X7614100Y-7973673D01*
X7586807Y-7871813D01*
X7534080Y-7780487D01*
X7459513Y-7705920D01*
X7368187Y-7653193D01*
X7266327Y-7625900D01*
X7160873Y-7625900D01*
X7059013Y-7653193D01*
X7059010Y-7653194D01*
X6967685Y-7705921D01*
X6893121Y-7780485D01*
X6840394Y-7871810D01*
X6840393Y-7871812D01*
X6840393Y-7871813D01*
X6822172Y-7939813D01*
X6785810Y-7999471D01*
X6722963Y-8030001D01*
X6702399Y-8031718D01*
X2835982Y-8031718D01*
X2768943Y-8012033D01*
X2723188Y-7959229D01*
X2713244Y-7890071D01*
X2742269Y-7826515D01*
X2789848Y-7795937D01*
X2788680Y-7793116D01*
X2796178Y-7790009D01*
X2796187Y-7790007D01*
X2887513Y-7737280D01*
X2962080Y-7662713D01*
X3014807Y-7571387D01*
X3042100Y-7469527D01*
X3042100Y-7364073D01*
X3042099Y-7364071D01*
X3041039Y-7356017D01*
X3042914Y-7355770D01*
X3044333Y-7296337D01*
X3083499Y-7238477D01*
X3147729Y-7210976D01*
X3162443Y-7210100D01*
X4520226Y-7210100D01*
X4520228Y-7210100D01*
X4580210Y-7185254D01*
X4649677Y-7177786D01*
X4712156Y-7209061D01*
X4715342Y-7212135D01*
X4732487Y-7229280D01*
X4823813Y-7282007D01*
X4925673Y-7309300D01*
X4925675Y-7309300D01*
X5031125Y-7309300D01*
X5031127Y-7309300D01*
X5132987Y-7282007D01*
X5224313Y-7229280D01*
X5298880Y-7154713D01*
X5351607Y-7063387D01*
X5378900Y-6961527D01*
X5378900Y-6856073D01*
X5351607Y-6754213D01*
X5298880Y-6662887D01*
X5224313Y-6588320D01*
X5132987Y-6535593D01*
X5031127Y-6508300D01*
X4925673Y-6508300D01*
X4823813Y-6535593D01*
X4823810Y-6535594D01*
X4732485Y-6588321D01*
X4698826Y-6621981D01*
X4637503Y-6655466D01*
X4611145Y-6658300D01*
X4471370Y-6658300D01*
X4417245Y-6680720D01*
X4379303Y-6696436D01*
X4379302Y-6696436D01*
X4371518Y-6699661D01*
X4363340Y-6701287D01*
X4359000Y-6704077D01*
X4324065Y-6709100D01*
X4077103Y-6709100D01*
X4010064Y-6689415D01*
X3964309Y-6636611D01*
X3954365Y-6567453D01*
X3957328Y-6553008D01*
X3965341Y-6523100D01*
X3969498Y-6507587D01*
X3969498Y-6402133D01*
X3942205Y-6300273D01*
X3889478Y-6208947D01*
X3825112Y-6144581D01*
X3791627Y-6083258D01*
X3796611Y-6013566D01*
X3838483Y-5957633D01*
X3903947Y-5933216D01*
X3912793Y-5932900D01*
X8017426Y-5932900D01*
X8017428Y-5932900D01*
X8109497Y-5894764D01*
X8143134Y-5861126D01*
X8204454Y-5827642D01*
X8274146Y-5832626D01*
X8330080Y-5874496D01*
X8338194Y-5886798D01*
X8366320Y-5935513D01*
X8440887Y-6010080D01*
X8532213Y-6062807D01*
X8634073Y-6090100D01*
X8634075Y-6090100D01*
X8739525Y-6090100D01*
X8739527Y-6090100D01*
X8841387Y-6062807D01*
X8932713Y-6010080D01*
X9007280Y-5935513D01*
X9060007Y-5844187D01*
X9060009Y-5844177D01*
X9061653Y-5840211D01*
X9063944Y-5837367D01*
X9064071Y-5837148D01*
X9064105Y-5837167D01*
X9105492Y-5785806D01*
X9171786Y-5763739D01*
X9239486Y-5781016D01*
X9287098Y-5832151D01*
X9299506Y-5900911D01*
X9295991Y-5919751D01*
X9269700Y-6017873D01*
X9269700Y-6123327D01*
X9296993Y-6225187D01*
X9349720Y-6316513D01*
X9424287Y-6391080D01*
X9515613Y-6443807D01*
X9617473Y-6471100D01*
X9617475Y-6471100D01*
X9722925Y-6471100D01*
X9722927Y-6471100D01*
X9824787Y-6443807D01*
X9916113Y-6391080D01*
X9990680Y-6316513D01*
X10043407Y-6225187D01*
X10070700Y-6123327D01*
X10070700Y-6017873D01*
X10043407Y-5916013D01*
X9990680Y-5824687D01*
X9916113Y-5750120D01*
X9824787Y-5697393D01*
X9722927Y-5670100D01*
X9722926Y-5670100D01*
X9722922Y-5670099D01*
X9721403Y-5669899D01*
X9720217Y-5669374D01*
X9715077Y-5667997D01*
X9715291Y-5667195D01*
X9657508Y-5641628D01*
X9619041Y-5583301D01*
X9618215Y-5513436D01*
X9630206Y-5484969D01*
X9676807Y-5404254D01*
X9704100Y-5302394D01*
X9704100Y-5196940D01*
X9676807Y-5095080D01*
X9624080Y-5003754D01*
X9549513Y-4929187D01*
X9523162Y-4913973D01*
X9474949Y-4863405D01*
X9461728Y-4794798D01*
X9487697Y-4729934D01*
X9497469Y-4718923D01*
X9570480Y-4645913D01*
X9623207Y-4554587D01*
X9650500Y-4452727D01*
X9650500Y-4347273D01*
X9626202Y-4256590D01*
X9627865Y-4186744D01*
X9667027Y-4128881D01*
X9731256Y-4101377D01*
X9745977Y-4100500D01*
X10527695Y-4100500D01*
X10594734Y-4120185D01*
X10615375Y-4136818D01*
X10646739Y-4168181D01*
X10654087Y-4175529D01*
X10745413Y-4228256D01*
X10847273Y-4255549D01*
X10847275Y-4255549D01*
X10952725Y-4255549D01*
X10952727Y-4255549D01*
X11054587Y-4228256D01*
X11145913Y-4175529D01*
X11220480Y-4100962D01*
X11273207Y-4009636D01*
X11300500Y-3907776D01*
X11300500Y-3824500D01*
X11300527Y-3824405D01*
X11300500Y-3824310D01*
X11310462Y-3790571D01*
X11320185Y-3757461D01*
X11320258Y-3757397D01*
X11320287Y-3757301D01*
X11347018Y-3734209D01*
X11372989Y-3711706D01*
X11373110Y-3711670D01*
X11373161Y-3711627D01*
X11373537Y-3711545D01*
X11407041Y-3701735D01*
X11415725Y-3700500D01*
X11502727Y-3700500D01*
X11601140Y-3674130D01*
X11608541Y-3673078D01*
X11636008Y-3677070D01*
X11663756Y-3677731D01*
X11670101Y-3682025D01*
X11677684Y-3683128D01*
X11698631Y-3701334D01*
X11721619Y-3716893D01*
X11724635Y-3723936D01*
X11730418Y-3728963D01*
X11738197Y-3755607D01*
X11749123Y-3781122D01*
X11750000Y-3795843D01*
X11750000Y-4100000D01*
X14150000Y-4100020D01*
X14150000Y-4100019D01*
X14150000Y-3124954D01*
X14169685Y-3057915D01*
X14222489Y-3012160D01*
X14273532Y-3000955D01*
X14825215Y-2998878D01*
X14892327Y-3018310D01*
X14938281Y-3070941D01*
X14949681Y-3122885D01*
X14949540Y-5225019D01*
X14949540Y-5225020D01*
X15127915Y-5225014D01*
X15194952Y-5244697D01*
X15240709Y-5297499D01*
X15250654Y-5366657D01*
X15244667Y-5390788D01*
X15091721Y-5818244D01*
X15089531Y-5823923D01*
X14788053Y-6551757D01*
X14785587Y-6557321D01*
X14448751Y-7269498D01*
X14446014Y-7274934D01*
X14074658Y-7969694D01*
X14071658Y-7974990D01*
X13666650Y-8650706D01*
X13663394Y-8655848D01*
X13225721Y-9310872D01*
X13222217Y-9315848D01*
X12752916Y-9948625D01*
X12749171Y-9953423D01*
X12249403Y-10562392D01*
X12245428Y-10567000D01*
X11716375Y-11150721D01*
X11712178Y-11155129D01*
X11155129Y-11712178D01*
X11150721Y-11716375D01*
X10567000Y-12245428D01*
X10562392Y-12249403D01*
X9953423Y-12749171D01*
X9948625Y-12752916D01*
X9315848Y-13222217D01*
X9310872Y-13225721D01*
X8655848Y-13663394D01*
X8650706Y-13666650D01*
X7974990Y-14071658D01*
X7969694Y-14074658D01*
X7274934Y-14446014D01*
X7269498Y-14448751D01*
X6557321Y-14785587D01*
X6551757Y-14788053D01*
X5823923Y-15089531D01*
X5818244Y-15091721D01*
X5076527Y-15357112D01*
X5070748Y-15359022D01*
X4316856Y-15587712D01*
X4310991Y-15589335D01*
X3546793Y-15780757D01*
X3540854Y-15782090D01*
X2768220Y-15935776D01*
X2762224Y-15936817D01*
X1982940Y-16052413D01*
X1976899Y-16053158D01*
X1192905Y-16130375D01*
X1186836Y-16130823D01*
X399975Y-16169480D01*
X393890Y-16169629D01*
X-393890Y-16169629D01*
X-399975Y-16169480D01*
X-1186837Y-16130823D01*
X-1192906Y-16130375D01*
X-1976900Y-16053158D01*
X-1982941Y-16052413D01*
X-2762225Y-15936817D01*
X-2768221Y-15935776D01*
X-3540855Y-15782090D01*
X-3546794Y-15780757D01*
X-4310992Y-15589335D01*
X-4316857Y-15587712D01*
X-5070749Y-15359022D01*
X-5076528Y-15357112D01*
X-5247612Y-15295897D01*
X-5551195Y-15187273D01*
X-1670500Y-15187273D01*
X-1670500Y-15292727D01*
X-1643207Y-15394587D01*
X-1590480Y-15485913D01*
X-1515913Y-15560480D01*
X-1424587Y-15613207D01*
X-1322727Y-15640500D01*
X-1322725Y-15640500D01*
X-1217275Y-15640500D01*
X-1217273Y-15640500D01*
X-1115413Y-15613207D01*
X-1024087Y-15560480D01*
X-949520Y-15485913D01*
X-896793Y-15394587D01*
X-869500Y-15292727D01*
X-869500Y-15187273D01*
X361500Y-15187273D01*
X361500Y-15292727D01*
X388793Y-15394587D01*
X441520Y-15485913D01*
X516087Y-15560480D01*
X607413Y-15613207D01*
X709273Y-15640500D01*
X709275Y-15640500D01*
X814725Y-15640500D01*
X814727Y-15640500D01*
X916587Y-15613207D01*
X1007913Y-15560480D01*
X1082480Y-15485913D01*
X1135207Y-15394587D01*
X1162500Y-15292727D01*
X1162500Y-15187273D01*
X1135207Y-15085413D01*
X1082480Y-14994087D01*
X1007913Y-14919520D01*
X916587Y-14866793D01*
X814727Y-14839500D01*
X709273Y-14839500D01*
X607413Y-14866793D01*
X607410Y-14866794D01*
X516085Y-14919521D01*
X441521Y-14994085D01*
X388794Y-15085410D01*
X388793Y-15085413D01*
X361500Y-15187273D01*
X-869500Y-15187273D01*
X-896793Y-15085413D01*
X-949520Y-14994087D01*
X-1024087Y-14919520D01*
X-1115413Y-14866793D01*
X-1217273Y-14839500D01*
X-1322727Y-14839500D01*
X-1424587Y-14866793D01*
X-1424590Y-14866794D01*
X-1515915Y-14919521D01*
X-1590479Y-14994085D01*
X-1643206Y-15085410D01*
X-1643207Y-15085413D01*
X-1670500Y-15187273D01*
X-5551195Y-15187273D01*
X-5818245Y-15091721D01*
X-5823924Y-15089531D01*
X-6551758Y-14788053D01*
X-6557322Y-14785587D01*
X-7269499Y-14448751D01*
X-7274935Y-14446014D01*
X-7969695Y-14074658D01*
X-7974991Y-14071658D01*
X-8292546Y-13881323D01*
X-8650720Y-13666642D01*
X-8655836Y-13663402D01*
X-9036168Y-13409273D01*
X6203500Y-13409273D01*
X6203500Y-13514727D01*
X6230793Y-13616587D01*
X6283520Y-13707913D01*
X6358087Y-13782480D01*
X6449413Y-13835207D01*
X6551273Y-13862500D01*
X6551275Y-13862500D01*
X6656725Y-13862500D01*
X6656727Y-13862500D01*
X6758587Y-13835207D01*
X6849913Y-13782480D01*
X6924480Y-13707913D01*
X6977207Y-13616587D01*
X7004500Y-13514727D01*
X7004500Y-13409273D01*
X6977207Y-13307413D01*
X6924480Y-13216087D01*
X6849913Y-13141520D01*
X6758587Y-13088793D01*
X6656727Y-13061500D01*
X6551273Y-13061500D01*
X6449413Y-13088793D01*
X6449410Y-13088794D01*
X6358085Y-13141521D01*
X6283521Y-13216085D01*
X6230794Y-13307410D01*
X6230793Y-13307413D01*
X6203500Y-13409273D01*
X-9036168Y-13409273D01*
X-9310873Y-13225721D01*
X-9315849Y-13222217D01*
X-9948626Y-12752916D01*
X-9953424Y-12749171D01*
X-10562393Y-12249403D01*
X-10567001Y-12245428D01*
X-10749441Y-12080074D01*
X-10841846Y-11996323D01*
X-8241842Y-11996323D01*
X-8241842Y-12147854D01*
X-8202623Y-12294225D01*
X-8177027Y-12338558D01*
X-8126857Y-12425454D01*
X-8019707Y-12532604D01*
X-7888477Y-12608370D01*
X-7742108Y-12647589D01*
X-7742106Y-12647589D01*
X-7590578Y-12647589D01*
X-7590576Y-12647589D01*
X-7444207Y-12608370D01*
X-7312977Y-12532604D01*
X-7205827Y-12425454D01*
X-7130061Y-12294224D01*
X-7090842Y-12147855D01*
X-7090842Y-11996323D01*
X-7130061Y-11849954D01*
X-7205827Y-11718724D01*
X-7312977Y-11611574D01*
X-7379200Y-11573340D01*
X-7444206Y-11535808D01*
X-7535804Y-11511265D01*
X-7590576Y-11496589D01*
X-7742108Y-11496589D01*
X-7888479Y-11535808D01*
X-8019707Y-11611574D01*
X-8019710Y-11611576D01*
X-8126855Y-11718721D01*
X-8126857Y-11718724D01*
X-8202623Y-11849952D01*
X-8241842Y-11996323D01*
X-10841846Y-11996323D01*
X-11150722Y-11716375D01*
X-11155130Y-11712178D01*
X-11712179Y-11155129D01*
X-11716376Y-11150721D01*
X-11832185Y-11022945D01*
X-11900293Y-10947799D01*
X-808129Y-10947799D01*
X-808129Y-11053253D01*
X-780836Y-11155113D01*
X-728109Y-11246439D01*
X-653542Y-11321006D01*
X-562216Y-11373733D01*
X-460356Y-11401026D01*
X-460354Y-11401026D01*
X-347783Y-11401026D01*
X-327754Y-11402654D01*
X-313591Y-11404972D01*
X-296383Y-11412100D01*
X-270041Y-11412100D01*
X-260094Y-11413728D01*
X-237321Y-11424668D01*
X-213084Y-11431785D01*
X-206365Y-11439539D01*
X-197115Y-11443983D01*
X-183872Y-11465498D01*
X-167329Y-11484589D01*
X-165869Y-11494744D01*
X-160489Y-11503484D01*
X-160981Y-11528744D01*
X-157385Y-11553747D01*
X-161648Y-11563080D01*
X-161847Y-11573340D01*
X-175915Y-11594321D01*
X-186410Y-11617303D01*
X-192442Y-11623781D01*
X-323842Y-11755181D01*
X-385165Y-11788666D01*
X-411523Y-11791500D01*
X-459127Y-11791500D01*
X-560987Y-11818793D01*
X-560990Y-11818794D01*
X-652315Y-11871521D01*
X-726879Y-11946085D01*
X-779606Y-12037410D01*
X-779607Y-12037413D01*
X-806900Y-12139273D01*
X-806900Y-12244727D01*
X-779607Y-12346587D01*
X-726880Y-12437913D01*
X-652313Y-12512480D01*
X-560987Y-12565207D01*
X-459127Y-12592500D01*
X-459125Y-12592500D01*
X-353675Y-12592500D01*
X-353673Y-12592500D01*
X-251813Y-12565207D01*
X-160487Y-12512480D01*
X-85920Y-12437913D01*
X-33193Y-12346587D01*
X-5900Y-12244727D01*
X-5900Y-12197122D01*
X13785Y-12130083D01*
X30419Y-12109441D01*
X321441Y-11818419D01*
X382764Y-11784934D01*
X409122Y-11782100D01*
X6163424Y-11782100D01*
X6230463Y-11801785D01*
X6276218Y-11854589D01*
X6286162Y-11923747D01*
X6270811Y-11968100D01*
X6230794Y-12037410D01*
X6230793Y-12037413D01*
X6203500Y-12139273D01*
X6203500Y-12244727D01*
X6230793Y-12346587D01*
X6283520Y-12437913D01*
X6358087Y-12512480D01*
X6449413Y-12565207D01*
X6551273Y-12592500D01*
X6551275Y-12592500D01*
X6656725Y-12592500D01*
X6656727Y-12592500D01*
X6758587Y-12565207D01*
X6849913Y-12512480D01*
X6924480Y-12437913D01*
X6961365Y-12374026D01*
X7011928Y-12325814D01*
X7080535Y-12312590D01*
X7145400Y-12338558D01*
X7176136Y-12374028D01*
X7205827Y-12425454D01*
X7312977Y-12532604D01*
X7444207Y-12608370D01*
X7590576Y-12647589D01*
X7590578Y-12647589D01*
X7742106Y-12647589D01*
X7742108Y-12647589D01*
X7888477Y-12608370D01*
X8019707Y-12532604D01*
X8126857Y-12425454D01*
X8202623Y-12294224D01*
X8241842Y-12147855D01*
X8241842Y-11996323D01*
X8202623Y-11849954D01*
X8126857Y-11718724D01*
X8019707Y-11611574D01*
X7953484Y-11573340D01*
X7888478Y-11535808D01*
X7796880Y-11511265D01*
X7742108Y-11496589D01*
X7590576Y-11496589D01*
X7444207Y-11535808D01*
X7444205Y-11535808D01*
X7436356Y-11537912D01*
X7435887Y-11536162D01*
X7376497Y-11542543D01*
X7314020Y-11511265D01*
X7287777Y-11476298D01*
X7282045Y-11464918D01*
X7274807Y-11437905D01*
X7224876Y-11351422D01*
X7223290Y-11348273D01*
X7217613Y-11317253D01*
X7210174Y-11286590D01*
X7211299Y-11282755D01*
X7210712Y-11279544D01*
X7216063Y-11266531D01*
X7226645Y-11230494D01*
X7274807Y-11147076D01*
X7302100Y-11045216D01*
X7302100Y-10939762D01*
X7274807Y-10837902D01*
X7222080Y-10746576D01*
X7147513Y-10672009D01*
X7056187Y-10619282D01*
X6954327Y-10591989D01*
X6848873Y-10591989D01*
X6747013Y-10619282D01*
X6747010Y-10619283D01*
X6655685Y-10672010D01*
X6581121Y-10746574D01*
X6524750Y-10844212D01*
X6505044Y-10869893D01*
X6500156Y-10874781D01*
X6438833Y-10908266D01*
X6412475Y-10911100D01*
X4180172Y-10911100D01*
X4113133Y-10891415D01*
X4067378Y-10838611D01*
X4057233Y-10770916D01*
X4058100Y-10764329D01*
X4058100Y-10658875D01*
X4058100Y-10658873D01*
X4030807Y-10557013D01*
X3978080Y-10465687D01*
X3903513Y-10391120D01*
X3812187Y-10338393D01*
X3710327Y-10311100D01*
X3604873Y-10311100D01*
X3503013Y-10338393D01*
X3503010Y-10338394D01*
X3411685Y-10391121D01*
X3337121Y-10465685D01*
X3284394Y-10557010D01*
X3284393Y-10557013D01*
X3257100Y-10658873D01*
X3257100Y-10764329D01*
X3257967Y-10770916D01*
X3247201Y-10839951D01*
X3200820Y-10892207D01*
X3135028Y-10911100D01*
X74790Y-10911100D01*
X7751Y-10891415D01*
X-32597Y-10849100D01*
X-39064Y-10837899D01*
X-87149Y-10754613D01*
X-161716Y-10680046D01*
X-253042Y-10627319D01*
X-354902Y-10600026D01*
X-460356Y-10600026D01*
X-562216Y-10627319D01*
X-562219Y-10627320D01*
X-653544Y-10680047D01*
X-728108Y-10754611D01*
X-780835Y-10845936D01*
X-780836Y-10845939D01*
X-808129Y-10947799D01*
X-11900293Y-10947799D01*
X-12245429Y-10567000D01*
X-12249404Y-10562392D01*
X-12749172Y-9953423D01*
X-12752917Y-9948625D01*
X-13113245Y-9462780D01*
X-13222221Y-9315844D01*
X-13225722Y-9310872D01*
X-13233612Y-9299064D01*
X-13663410Y-8655824D01*
X-13666636Y-8650730D01*
X-14071663Y-7974984D01*
X-14074659Y-7969694D01*
X-14080253Y-7959229D01*
X-14446016Y-7274932D01*
X-14448752Y-7269498D01*
X-14785593Y-6557311D01*
X-14788054Y-6551757D01*
X-14789714Y-6547750D01*
X-15089535Y-5823915D01*
X-15091722Y-5818244D01*
X-15103329Y-5785806D01*
X-15357116Y-5076519D01*
X-15359023Y-5070748D01*
X-15359456Y-5069322D01*
X-15587714Y-4316854D01*
X-15589336Y-4310991D01*
X-15594084Y-4292036D01*
X-15767461Y-3599875D01*
X-14014900Y-3599875D01*
X-14014900Y-3705329D01*
X-13992059Y-3790571D01*
X-13987607Y-3807188D01*
X-13987606Y-3807191D01*
X-13973478Y-3831661D01*
X-13934880Y-3898515D01*
X-13860313Y-3973082D01*
X-13768987Y-4025809D01*
X-13667127Y-4053102D01*
X-13667125Y-4053102D01*
X-13561675Y-4053102D01*
X-13561673Y-4053102D01*
X-13459813Y-4025809D01*
X-13368487Y-3973082D01*
X-13293920Y-3898515D01*
X-13241193Y-3807189D01*
X-13213900Y-3705329D01*
X-13213900Y-3599875D01*
X-13241193Y-3498015D01*
X-13293920Y-3406689D01*
X-13368487Y-3332122D01*
X-13459813Y-3279395D01*
X-13561673Y-3252102D01*
X-13667127Y-3252102D01*
X-13768987Y-3279395D01*
X-13768990Y-3279396D01*
X-13860315Y-3332123D01*
X-13934879Y-3406687D01*
X-13987606Y-3498012D01*
X-13987607Y-3498015D01*
X-14014900Y-3599875D01*
X-15767461Y-3599875D01*
X-15780762Y-3546776D01*
X-15782091Y-3540854D01*
X-15784845Y-3527011D01*
X-15935778Y-2768214D01*
X-15936818Y-2762224D01*
X-15940839Y-2735114D01*
X-16052416Y-1982926D01*
X-16053159Y-1976899D01*
X-16130379Y-1192867D01*
X-16130822Y-1186871D01*
X-16169480Y-399973D01*
X-16169629Y-393889D01*
X-16169629Y393890D01*
X-16169480Y399974D01*
X-16167391Y442502D01*
X-16130822Y1186875D01*
X-16130380Y1192865D01*
X-16053157Y1976920D01*
X-16052414Y1982941D01*
X-16052114Y1984959D01*
X-15936817Y2762237D01*
X-15935777Y2768221D01*
X-15921688Y2839052D01*
X-15782086Y3540881D01*
X-15780764Y3546768D01*
X-15589333Y4311004D01*
X-15587713Y4316857D01*
X-15578486Y4347274D01*
X-15359017Y5070768D01*
X-15357120Y5076508D01*
X-15091714Y5818267D01*
X-15089541Y5823903D01*
X-14788043Y6551784D01*
X-14785600Y6557297D01*
X-14714546Y6707527D01*
X-13811700Y6707527D01*
X-13811700Y6602073D01*
X-13784407Y6500213D01*
X-13731680Y6408887D01*
X-13657113Y6334320D01*
X-13565787Y6281593D01*
X-13463927Y6254300D01*
X-13463925Y6254300D01*
X-13358475Y6254300D01*
X-13358473Y6254300D01*
X-13256613Y6281593D01*
X-13165287Y6334320D01*
X-13090720Y6408887D01*
X-13037993Y6500213D01*
X-13010700Y6602073D01*
X-13010700Y6707527D01*
X-13037993Y6809387D01*
X-13090720Y6900713D01*
X-13165287Y6975280D01*
X-13240124Y7018487D01*
X-13256611Y7028006D01*
X-13256612Y7028007D01*
X-13256613Y7028007D01*
X-13358473Y7055300D01*
X-13463927Y7055300D01*
X-13565787Y7028007D01*
X-13565790Y7028006D01*
X-13657115Y6975279D01*
X-13731679Y6900715D01*
X-13784406Y6809390D01*
X-13784407Y6809387D01*
X-13811700Y6707527D01*
X-14714546Y6707527D01*
X-14448744Y7269517D01*
X-14446025Y7274917D01*
X-14074646Y7969720D01*
X-14071673Y7974968D01*
X-13666625Y8650750D01*
X-13663422Y8655807D01*
X-13225706Y9310897D01*
X-13222217Y9315849D01*
X-13188229Y9361677D01*
X-11451158Y9361677D01*
X-11451158Y9210146D01*
X-11411939Y9063775D01*
X-11374056Y8998161D01*
X-11336173Y8932546D01*
X-11229023Y8825396D01*
X-11097793Y8749630D01*
X-10951424Y8710411D01*
X-10951422Y8710411D01*
X-10799894Y8710411D01*
X-10799892Y8710411D01*
X-10653523Y8749630D01*
X-10522293Y8825396D01*
X-10415143Y8932546D01*
X-10339377Y9063776D01*
X-10300158Y9210145D01*
X-10300158Y9361677D01*
X-10339377Y9508046D01*
X-10415143Y9639276D01*
X-10522293Y9746426D01*
X-10587908Y9784309D01*
X-10653522Y9822192D01*
X-10737876Y9844794D01*
X-10799892Y9861411D01*
X-10951424Y9861411D01*
X-11097795Y9822192D01*
X-11229023Y9746426D01*
X-11229026Y9746424D01*
X-11336171Y9639279D01*
X-11336173Y9639276D01*
X-11411939Y9508048D01*
X-11451158Y9361677D01*
X-13188229Y9361677D01*
X-13127420Y9443668D01*
X-13127418Y9443671D01*
X-12752906Y9948642D01*
X-12749185Y9953409D01*
X-12668185Y10052107D01*
X-9081486Y10052107D01*
X-9081486Y9946653D01*
X-9054193Y9844793D01*
X-9001466Y9753467D01*
X-8926899Y9678900D01*
X-8835573Y9626173D01*
X-8733713Y9598880D01*
X-8686109Y9598880D01*
X-8619070Y9579195D01*
X-8598428Y9562561D01*
X-7645619Y8609752D01*
X-7612134Y8548429D01*
X-7609300Y8522071D01*
X-7609300Y8501374D01*
X-7571164Y8409306D01*
X-7314632Y8152775D01*
X-7314629Y8152771D01*
X-7307561Y8145703D01*
X-7237094Y8075236D01*
X-7145025Y8037100D01*
X-7124329Y8037100D01*
X-7057290Y8017415D01*
X-7036648Y8000781D01*
X-7002303Y7966436D01*
X-6910234Y7928300D01*
X-2881219Y7928300D01*
X-2814180Y7908615D01*
X-2768425Y7855811D01*
X-2758481Y7786653D01*
X-2761441Y7772222D01*
X-2788100Y7672727D01*
X-2788100Y7567273D01*
X-2760807Y7465413D01*
X-2708080Y7374087D01*
X-2633513Y7299520D01*
X-2542187Y7246793D01*
X-2440327Y7219500D01*
X-2440325Y7219500D01*
X-2334875Y7219500D01*
X-2334873Y7219500D01*
X-2233013Y7246793D01*
X-2141687Y7299520D01*
X-2067120Y7374087D01*
X-2014393Y7465413D01*
X-1987100Y7567273D01*
X-1987100Y7672727D01*
X-2013756Y7772210D01*
X-2012093Y7842056D01*
X-1972931Y7899919D01*
X-1908702Y7927423D01*
X-1893981Y7928300D01*
X1817947Y7928300D01*
X1884986Y7908615D01*
X1905628Y7891981D01*
X2400181Y7397429D01*
X2411063Y7377500D01*
X2425775Y7360195D01*
X2429130Y7344413D01*
X2433666Y7336106D01*
X2435399Y7326238D01*
X2436500Y7318033D01*
X2436500Y7262143D01*
X2451520Y7206084D01*
X2452580Y7198190D01*
X2448442Y7171220D01*
X2447793Y7143944D01*
X2443221Y7137190D01*
X2441985Y7129128D01*
X2423924Y7108678D01*
X2408631Y7086081D01*
X2401132Y7082871D01*
X2395735Y7076758D01*
X2369488Y7069320D01*
X2344403Y7058577D01*
X2329681Y7057700D01*
X1982170Y7057700D01*
X1940647Y7040500D01*
X1890103Y7019564D01*
X1890102Y7019564D01*
X1878820Y7014890D01*
X1877264Y7018645D01*
X1832168Y7004520D01*
X1829944Y7004500D01*
X1776073Y7004500D01*
X1674213Y6977207D01*
X1674210Y6977206D01*
X1582885Y6924479D01*
X1549226Y6890819D01*
X1487903Y6857334D01*
X1461545Y6854500D01*
X694576Y6854500D01*
X627537Y6874185D01*
X581782Y6926989D01*
X571838Y6996147D01*
X587189Y7040500D01*
X595734Y7055300D01*
X627207Y7109813D01*
X654500Y7211673D01*
X654500Y7317127D01*
X627207Y7418987D01*
X574480Y7510313D01*
X499913Y7584880D01*
X408587Y7637607D01*
X306727Y7664900D01*
X201273Y7664900D01*
X99413Y7637607D01*
X99410Y7637606D01*
X50528Y7609384D01*
X22777Y7593362D01*
X-39221Y7576749D01*
X-558466Y7576749D01*
X-599507Y7584912D01*
X-599562Y7584703D01*
X-602749Y7585557D01*
X-605917Y7586187D01*
X-607411Y7586806D01*
X-607413Y7586807D01*
X-709273Y7614100D01*
X-814727Y7614100D01*
X-916587Y7586807D01*
X-916590Y7586806D01*
X-1007915Y7534079D01*
X-1082479Y7459515D01*
X-1135206Y7368190D01*
X-1135207Y7368188D01*
X-1137374Y7360100D01*
X-1151529Y7307276D01*
X-1187892Y7247617D01*
X-1250738Y7217087D01*
X-1271302Y7215370D01*
X-1327727Y7215370D01*
X-1429587Y7188077D01*
X-1429590Y7188076D01*
X-1520915Y7135349D01*
X-1595479Y7060785D01*
X-1648206Y6969460D01*
X-1651316Y6961950D01*
X-1654289Y6963182D01*
X-1682781Y6916410D01*
X-1745621Y6885864D01*
X-1766215Y6884142D01*
X-1857743Y6884142D01*
X-1959603Y6856849D01*
X-1959606Y6856848D01*
X-2050931Y6804121D01*
X-2125495Y6729557D01*
X-2178222Y6638232D01*
X-2178223Y6638229D01*
X-2205516Y6536369D01*
X-2205516Y6430915D01*
X-2178223Y6329055D01*
X-2127809Y6241735D01*
X-2125495Y6237728D01*
X-2082924Y6195157D01*
X-2049439Y6133834D01*
X-2054423Y6064142D01*
X-2096295Y6008209D01*
X-2138511Y5987701D01*
X-2237389Y5961207D01*
X-2237390Y5961206D01*
X-2328715Y5908479D01*
X-2403279Y5833915D01*
X-2456006Y5742590D01*
X-2456007Y5742587D01*
X-2483300Y5640727D01*
X-2483300Y5535273D01*
X-2456007Y5433413D01*
X-2403280Y5342087D01*
X-2328713Y5267520D01*
X-2237387Y5214793D01*
X-2135527Y5187500D01*
X-2135525Y5187500D01*
X-2030075Y5187500D01*
X-2030073Y5187500D01*
X-1928213Y5214793D01*
X-1907959Y5226488D01*
X-1845958Y5243100D01*
X1835026Y5243100D01*
X1835028Y5243100D01*
X1927097Y5281236D01*
X2012818Y5366958D01*
X2074137Y5400440D01*
X2143829Y5395456D01*
X2199763Y5353585D01*
X2207880Y5341279D01*
X2260004Y5250997D01*
X2334571Y5176430D01*
X2425897Y5123703D01*
X2527757Y5096410D01*
X2527759Y5096410D01*
X2633209Y5096410D01*
X2633211Y5096410D01*
X2735071Y5123703D01*
X2826397Y5176430D01*
X2900964Y5250997D01*
X2953691Y5342323D01*
X2980984Y5444183D01*
X2980984Y5549637D01*
X2953691Y5651497D01*
X2900964Y5742823D01*
X2826397Y5817390D01*
X2791006Y5837823D01*
X2742793Y5888389D01*
X2729571Y5956996D01*
X2733235Y5977303D01*
X2734672Y5982666D01*
X2737300Y5992473D01*
X2737300Y6097927D01*
X2710007Y6199787D01*
X2657280Y6291113D01*
X2603374Y6345019D01*
X2592761Y6364456D01*
X2578261Y6381189D01*
X2576344Y6394521D01*
X2569889Y6406342D01*
X2571468Y6428429D01*
X2568317Y6450347D01*
X2573912Y6462599D01*
X2574873Y6476034D01*
X2588143Y6493761D01*
X2597342Y6513903D01*
X2608673Y6521186D01*
X2616745Y6531967D01*
X2637490Y6539705D01*
X2656120Y6551677D01*
X2678038Y6554829D01*
X2682209Y6556384D01*
X2691055Y6556700D01*
X2855897Y6556700D01*
X2922936Y6537015D01*
X2968691Y6484211D01*
X2978635Y6415053D01*
X2975672Y6400608D01*
X2964772Y6359929D01*
X2964772Y6359927D01*
X2964772Y6254473D01*
X2989239Y6163162D01*
X2992065Y6152614D01*
X2992066Y6152611D01*
X2994310Y6148725D01*
X3044792Y6061287D01*
X3119359Y5986720D01*
X3210685Y5933993D01*
X3312545Y5906700D01*
X3312547Y5906700D01*
X3417997Y5906700D01*
X3417999Y5906700D01*
X3519859Y5933993D01*
X3611185Y5986720D01*
X3628176Y6003712D01*
X3689496Y6037197D01*
X3759188Y6032214D01*
X3777851Y6023421D01*
X3858613Y5976793D01*
X3960473Y5949500D01*
X3960475Y5949500D01*
X4065925Y5949500D01*
X4065927Y5949500D01*
X4167787Y5976793D01*
X4259113Y6029520D01*
X4333680Y6104087D01*
X4348349Y6129496D01*
X4398915Y6177709D01*
X4467522Y6190933D01*
X4532386Y6164965D01*
X4563121Y6129495D01*
X4607120Y6053287D01*
X4681687Y5978720D01*
X4773013Y5925993D01*
X4874873Y5898700D01*
X4874875Y5898700D01*
X4980325Y5898700D01*
X4980327Y5898700D01*
X5082187Y5925993D01*
X5173513Y5978720D01*
X5248080Y6053287D01*
X5291474Y6128449D01*
X5342040Y6176663D01*
X5410647Y6189886D01*
X5475512Y6163918D01*
X5512249Y6112326D01*
X5513684Y6112920D01*
X5516794Y6105411D01*
X5517559Y6104086D01*
X5569520Y6014087D01*
X5644087Y5939520D01*
X5735413Y5886793D01*
X5837273Y5859500D01*
X5837275Y5859500D01*
X5942725Y5859500D01*
X5942727Y5859500D01*
X6044587Y5886793D01*
X6135913Y5939520D01*
X6145574Y5949181D01*
X6206897Y5982666D01*
X6233255Y5985500D01*
X6574877Y5985500D01*
X6641916Y5965815D01*
X6662558Y5949181D01*
X6728103Y5883636D01*
X6820172Y5845500D01*
X10757945Y5845500D01*
X10824984Y5825815D01*
X10845626Y5809181D01*
X10879287Y5775520D01*
X10970613Y5722793D01*
X11072473Y5695500D01*
X11072475Y5695500D01*
X11177925Y5695500D01*
X11177927Y5695500D01*
X11279787Y5722793D01*
X11371113Y5775520D01*
X11445680Y5850087D01*
X11498407Y5941413D01*
X11525700Y6043273D01*
X11525700Y6148727D01*
X11498407Y6250587D01*
X11445680Y6341913D01*
X11371113Y6416480D01*
X11292639Y6461787D01*
X11279789Y6469206D01*
X11279788Y6469207D01*
X11279787Y6469207D01*
X11177927Y6496500D01*
X11072473Y6496500D01*
X10970613Y6469207D01*
X10970610Y6469206D01*
X10879285Y6416479D01*
X10845626Y6382819D01*
X10784303Y6349334D01*
X10757945Y6346500D01*
X10257224Y6346500D01*
X10190185Y6366185D01*
X10144430Y6418989D01*
X10134486Y6488147D01*
X10163511Y6551703D01*
X10205958Y6582312D01*
X10205948Y6582329D01*
X10206120Y6582429D01*
X10209771Y6585061D01*
X10212980Y6586392D01*
X10212987Y6586393D01*
X10304313Y6639120D01*
X10378880Y6713687D01*
X10431607Y6805013D01*
X10458900Y6906873D01*
X10458900Y7012327D01*
X10431607Y7114187D01*
X10378880Y7205513D01*
X10304313Y7280080D01*
X10212987Y7332807D01*
X10111127Y7360100D01*
X10005673Y7360100D01*
X9903813Y7332807D01*
X9903810Y7332806D01*
X9812485Y7280079D01*
X9737921Y7205515D01*
X9688376Y7119700D01*
X9637809Y7071484D01*
X9580989Y7057700D01*
X7402572Y7057700D01*
X7335533Y7077385D01*
X7289778Y7130189D01*
X7279633Y7197884D01*
X7280500Y7204471D01*
X7280500Y7309925D01*
X7280500Y7309927D01*
X7253207Y7411787D01*
X7200480Y7503113D01*
X7125913Y7577680D01*
X7034587Y7630407D01*
X6932727Y7657700D01*
X6827273Y7657700D01*
X6725413Y7630407D01*
X6725410Y7630406D01*
X6634085Y7577679D01*
X6559521Y7503115D01*
X6506794Y7411790D01*
X6506793Y7411787D01*
X6479500Y7309927D01*
X6479500Y7204471D01*
X6480367Y7197884D01*
X6469601Y7128849D01*
X6423220Y7076593D01*
X6357428Y7057700D01*
X3344319Y7057700D01*
X3277280Y7077385D01*
X3231525Y7130189D01*
X3221581Y7199347D01*
X3224540Y7213777D01*
X3237500Y7262143D01*
X3237500Y7367597D01*
X3210207Y7469457D01*
X3157480Y7560783D01*
X3082913Y7635350D01*
X2991587Y7688077D01*
X2889727Y7715370D01*
X2889726Y7715370D01*
X2842122Y7715370D01*
X2775083Y7735055D01*
X2754441Y7751689D01*
X2114967Y8391164D01*
X2022899Y8429300D01*
X2022898Y8429300D01*
X-6705283Y8429300D01*
X-6772322Y8448985D01*
X-6792964Y8465619D01*
X-6827309Y8499964D01*
X-6919377Y8538100D01*
X-6919378Y8538100D01*
X-6940074Y8538100D01*
X-6969512Y8546745D01*
X-6999502Y8553268D01*
X-7004518Y8557023D01*
X-7007113Y8557785D01*
X-7027756Y8574420D01*
X-7071982Y8618647D01*
X-7105467Y8679970D01*
X-7108300Y8706327D01*
X-7108300Y8727021D01*
X-7108301Y8727024D01*
X-7146436Y8819091D01*
X-7216903Y8889558D01*
X-7689022Y9361677D01*
X10300158Y9361677D01*
X10300158Y9210146D01*
X10339377Y9063775D01*
X10377260Y8998161D01*
X10415143Y8932546D01*
X10522293Y8825396D01*
X10653523Y8749630D01*
X10799892Y8710411D01*
X10799894Y8710411D01*
X10951422Y8710411D01*
X10951424Y8710411D01*
X11097793Y8749630D01*
X11229023Y8825396D01*
X11336173Y8932546D01*
X11411939Y9063776D01*
X11451158Y9210145D01*
X11451158Y9361677D01*
X11411939Y9508046D01*
X11336173Y9639276D01*
X11229023Y9746426D01*
X11163408Y9784309D01*
X11097794Y9822192D01*
X11013440Y9844794D01*
X10951424Y9861411D01*
X10799892Y9861411D01*
X10653521Y9822192D01*
X10522293Y9746426D01*
X10522290Y9746424D01*
X10415145Y9639279D01*
X10415143Y9639276D01*
X10339377Y9508048D01*
X10300158Y9361677D01*
X-7689022Y9361677D01*
X-8244167Y9916822D01*
X-8255420Y9937429D01*
X-8269280Y9953425D01*
X-8271425Y9963285D01*
X-8275463Y9969568D01*
X-8276355Y9975769D01*
X-8277652Y9978145D01*
X-8279659Y9996809D01*
X-3350500Y9996809D01*
X-3350500Y9878191D01*
X-3319799Y9763614D01*
X-3260489Y9660887D01*
X-3176613Y9577011D01*
X-3073886Y9517701D01*
X-2959309Y9487000D01*
X-2959306Y9487000D01*
X-2840694Y9487000D01*
X-2840691Y9487000D01*
X-2726114Y9517701D01*
X-2623387Y9577011D01*
X-2539511Y9660887D01*
X-2480201Y9763614D01*
X-2449500Y9878191D01*
X-2449500Y9996809D01*
X2429500Y9996809D01*
X2429500Y9878191D01*
X2460201Y9763614D01*
X2519511Y9660887D01*
X2603387Y9577011D01*
X2706114Y9517701D01*
X2820691Y9487000D01*
X2820694Y9487000D01*
X2939306Y9487000D01*
X2939309Y9487000D01*
X3053886Y9517701D01*
X3156613Y9577011D01*
X3240489Y9660887D01*
X3299799Y9763614D01*
X3330500Y9878191D01*
X3330500Y9996809D01*
X3315683Y10052107D01*
X8280486Y10052107D01*
X8280486Y9946653D01*
X8307779Y9844793D01*
X8360506Y9753467D01*
X8435073Y9678900D01*
X8526399Y9626173D01*
X8628259Y9598880D01*
X8628261Y9598880D01*
X8733711Y9598880D01*
X8733713Y9598880D01*
X8835573Y9626173D01*
X8926899Y9678900D01*
X9001466Y9753467D01*
X9054193Y9844793D01*
X9081486Y9946653D01*
X9081486Y10052107D01*
X9054193Y10153967D01*
X9001466Y10245293D01*
X8926899Y10319860D01*
X8835573Y10372587D01*
X8733713Y10399880D01*
X8628259Y10399880D01*
X8526399Y10372587D01*
X8526396Y10372586D01*
X8435071Y10319859D01*
X8360507Y10245295D01*
X8307780Y10153970D01*
X8307779Y10153967D01*
X8280486Y10052107D01*
X3315683Y10052107D01*
X3299799Y10111386D01*
X3240489Y10214113D01*
X3156613Y10297989D01*
X3053886Y10357299D01*
X2939309Y10388000D01*
X2820691Y10388000D01*
X2706114Y10357299D01*
X2706112Y10357299D01*
X2706112Y10357298D01*
X2603387Y10297989D01*
X2603384Y10297987D01*
X2519513Y10214116D01*
X2519511Y10214113D01*
X2460201Y10111386D01*
X2429500Y9996809D01*
X-2449500Y9996809D01*
X-2480201Y10111386D01*
X-2539511Y10214113D01*
X-2623387Y10297989D01*
X-2726114Y10357299D01*
X-2840691Y10388000D01*
X-2959309Y10388000D01*
X-3073886Y10357299D01*
X-3073888Y10357299D01*
X-3073888Y10357298D01*
X-3176613Y10297989D01*
X-3176616Y10297987D01*
X-3260487Y10214116D01*
X-3260489Y10214113D01*
X-3319799Y10111386D01*
X-3350500Y9996809D01*
X-8279659Y9996809D01*
X-8280486Y10004503D01*
X-8280486Y10052105D01*
X-8280486Y10052107D01*
X-8307779Y10153967D01*
X-8360506Y10245293D01*
X-8435073Y10319860D01*
X-8526399Y10372587D01*
X-8628259Y10399880D01*
X-8733713Y10399880D01*
X-8835573Y10372587D01*
X-8835576Y10372586D01*
X-8926901Y10319859D01*
X-9001465Y10245295D01*
X-9054192Y10153970D01*
X-9054193Y10153967D01*
X-9081486Y10052107D01*
X-12668185Y10052107D01*
X-12249392Y10562407D01*
X-12245442Y10566987D01*
X-11716358Y11150742D01*
X-11712199Y11155110D01*
X-11155110Y11712199D01*
X-11150742Y11716358D01*
X-10674658Y12147855D01*
X-8241842Y12147855D01*
X-8241842Y11996324D01*
X-8202623Y11849953D01*
X-8164740Y11784339D01*
X-8126857Y11718724D01*
X-8019707Y11611574D01*
X-7888477Y11535808D01*
X-7742108Y11496589D01*
X-7742106Y11496589D01*
X-7590578Y11496589D01*
X-7590576Y11496589D01*
X-7444207Y11535808D01*
X-7312977Y11611574D01*
X-7205827Y11718724D01*
X-7130061Y11849954D01*
X-7090842Y11996323D01*
X-7090842Y12147855D01*
X7090842Y12147855D01*
X7090842Y11996324D01*
X7130061Y11849953D01*
X7167944Y11784339D01*
X7205827Y11718724D01*
X7312977Y11611574D01*
X7444207Y11535808D01*
X7590576Y11496589D01*
X7590578Y11496589D01*
X7742106Y11496589D01*
X7742108Y11496589D01*
X7888477Y11535808D01*
X8019707Y11611574D01*
X8126857Y11718724D01*
X8202623Y11849954D01*
X8241842Y11996323D01*
X8241842Y12147855D01*
X8202623Y12294224D01*
X8126857Y12425454D01*
X8019707Y12532604D01*
X7954092Y12570487D01*
X7888478Y12608370D01*
X7815292Y12627980D01*
X7742108Y12647589D01*
X7590576Y12647589D01*
X7444205Y12608370D01*
X7312977Y12532604D01*
X7312974Y12532602D01*
X7205829Y12425457D01*
X7205827Y12425454D01*
X7130061Y12294226D01*
X7090842Y12147855D01*
X-7090842Y12147855D01*
X-7130061Y12294224D01*
X-7205827Y12425454D01*
X-7312977Y12532604D01*
X-7378592Y12570487D01*
X-7444206Y12608370D01*
X-7517392Y12627980D01*
X-7590576Y12647589D01*
X-7742108Y12647589D01*
X-7888479Y12608370D01*
X-8019707Y12532604D01*
X-8019710Y12532602D01*
X-8126855Y12425457D01*
X-8126857Y12425454D01*
X-8202623Y12294226D01*
X-8241842Y12147855D01*
X-10674658Y12147855D01*
X-10566987Y12245442D01*
X-10562421Y12249381D01*
X-9953409Y12749185D01*
X-9948642Y12752906D01*
X-9315826Y13222235D01*
X-9310897Y13225706D01*
X-8655807Y13663422D01*
X-8650750Y13666625D01*
X-7974968Y14071673D01*
X-7969720Y14074646D01*
X-7274917Y14446025D01*
X-7269517Y14448744D01*
X-6557297Y14785600D01*
X-6551784Y14788043D01*
X-5823903Y15089541D01*
X-5818267Y15091714D01*
X-5076508Y15357120D01*
X-5070768Y15359017D01*
X-4316845Y15587717D01*
X-4311004Y15589333D01*
X-3546768Y15780764D01*
X-3540881Y15782086D01*
X-2768208Y15935780D01*
X-2762237Y15936817D01*
X-1982922Y16052417D01*
X-1976920Y16053157D01*
X-1192865Y16130380D01*
X-1186875Y16130822D01*
X-434794Y16167770D01*
X-399974Y16169480D01*
X-393890Y16169629D01*
X393890Y16169629D01*
X399974Y16169480D01*
G37*
%TD.AperFunction*%
%TA.AperFunction,Conductor*%
G36*
X-4513533Y-7122336D02*
G01*
X-4492891Y-7138970D01*
X-4146280Y-7485581D01*
X-3966041Y-7665819D01*
X-3932556Y-7727142D01*
X-3937540Y-7796833D01*
X-3979411Y-7852767D01*
X-4044876Y-7877184D01*
X-4053722Y-7877500D01*
X-4595033Y-7877500D01*
X-4687101Y-7915636D01*
X-4687102Y-7915637D01*
X-4859445Y-8087981D01*
X-4886373Y-8102684D01*
X-4912191Y-8119277D01*
X-4918392Y-8120168D01*
X-4920768Y-8121466D01*
X-4947126Y-8124300D01*
X-5009674Y-8124300D01*
X-5076713Y-8104615D01*
X-5097355Y-8087981D01*
X-5141303Y-8044033D01*
X-5233371Y-8005897D01*
X-5233372Y-8005897D01*
X-5333028Y-8005897D01*
X-5333030Y-8005897D01*
X-5425098Y-8044033D01*
X-5425099Y-8044034D01*
X-5519845Y-8138781D01*
X-5546773Y-8153484D01*
X-5572591Y-8170077D01*
X-5578792Y-8170968D01*
X-5581168Y-8172266D01*
X-5607526Y-8175100D01*
X-5670074Y-8175100D01*
X-5737113Y-8155415D01*
X-5757755Y-8138781D01*
X-5834957Y-8061579D01*
X-5861836Y-8021352D01*
X-5876436Y-7986103D01*
X-5932758Y-7929781D01*
X-5966243Y-7868458D01*
X-5961259Y-7798766D01*
X-5919387Y-7742833D01*
X-5853923Y-7718416D01*
X-5845077Y-7718100D01*
X-5690574Y-7718100D01*
X-5690572Y-7718100D01*
X-5598503Y-7679964D01*
X-5057509Y-7138970D01*
X-4996186Y-7105485D01*
X-4969828Y-7102651D01*
X-4580572Y-7102651D01*
X-4513533Y-7122336D01*
G37*
%TD.AperFunction*%
%TA.AperFunction,Conductor*%
G36*
X-2654881Y-3927785D02*
G01*
X-2634239Y-3944419D01*
X-2142416Y-4436242D01*
X-1706838Y-4871819D01*
X-1673353Y-4933142D01*
X-1678337Y-5002833D01*
X-1720209Y-5058767D01*
X-1785673Y-5083184D01*
X-1794519Y-5083500D01*
X-5991677Y-5083500D01*
X-6058716Y-5063815D01*
X-6079358Y-5047181D01*
X-6282571Y-4843968D01*
X-6314664Y-4788381D01*
X-6332393Y-4722213D01*
X-6385120Y-4630887D01*
X-6459687Y-4556320D01*
X-6551013Y-4503593D01*
X-6652873Y-4476300D01*
X-6758327Y-4476300D01*
X-6860187Y-4503593D01*
X-6860190Y-4503594D01*
X-6951515Y-4556321D01*
X-7026079Y-4630885D01*
X-7078806Y-4722210D01*
X-7078807Y-4722213D01*
X-7106100Y-4824073D01*
X-7106100Y-4929527D01*
X-7106031Y-4929786D01*
X-7105825Y-4930552D01*
X-7105847Y-4931450D01*
X-7105039Y-4937583D01*
X-7105996Y-4937708D01*
X-7107490Y-5000401D01*
X-7146654Y-5058263D01*
X-7210883Y-5085765D01*
X-7279785Y-5074177D01*
X-7288811Y-5069322D01*
X-7302240Y-5061365D01*
X-7311286Y-5052319D01*
X-7402612Y-4999592D01*
X-7409702Y-4997692D01*
X-7423111Y-4989747D01*
X-7441155Y-4970389D01*
X-7461757Y-4953788D01*
X-7464605Y-4945233D01*
X-7470752Y-4938638D01*
X-7475466Y-4912601D01*
X-7483822Y-4887494D01*
X-7482353Y-4874553D01*
X-7483198Y-4869886D01*
X-7481303Y-4865302D01*
X-7479677Y-4850978D01*
X-7473500Y-4827927D01*
X-7473500Y-4722473D01*
X-7500793Y-4620613D01*
X-7553520Y-4529287D01*
X-7580290Y-4502517D01*
X-7613775Y-4441194D01*
X-7608791Y-4371502D01*
X-7580290Y-4327155D01*
X-7407221Y-4154087D01*
X-7197553Y-3944419D01*
X-7136230Y-3910934D01*
X-7109872Y-3908100D01*
X-2721920Y-3908100D01*
X-2654881Y-3927785D01*
G37*
%TD.AperFunction*%
%TA.AperFunction,Conductor*%
G36*
X-1555481Y1399015D02*
G01*
X-1534839Y1382381D01*
X-854494Y702036D01*
X-762425Y663900D01*
X-762423Y663900D01*
X2442776Y663900D01*
X2509815Y644215D01*
X2555570Y591411D01*
X2565514Y522253D01*
X2536489Y458697D01*
X2494041Y428089D01*
X2494052Y428071D01*
X2493879Y427972D01*
X2490229Y425339D01*
X2487012Y424007D01*
X2395685Y371279D01*
X2321121Y296715D01*
X2268394Y205390D01*
X2268393Y205387D01*
X2241100Y103527D01*
X2241100Y-1927D01*
X2268393Y-103787D01*
X2306463Y-169727D01*
X2321121Y-195114D01*
X2331426Y-205419D01*
X2364911Y-266742D01*
X2359927Y-336434D01*
X2318055Y-392367D01*
X2252591Y-416784D01*
X2243745Y-417100D01*
X1986419Y-417100D01*
X1919380Y-397415D01*
X1873625Y-344611D01*
X1863681Y-275453D01*
X1879032Y-231100D01*
X1893859Y-205419D01*
X1923207Y-154587D01*
X1950500Y-52727D01*
X1950500Y52727D01*
X1923207Y154587D01*
X1870480Y245913D01*
X1795913Y320480D01*
X1710123Y370011D01*
X1704589Y373206D01*
X1704588Y373207D01*
X1704587Y373207D01*
X1602727Y400500D01*
X1497273Y400500D01*
X1395413Y373207D01*
X1395410Y373206D01*
X1304085Y320479D01*
X1229521Y245915D01*
X1176794Y154590D01*
X1176793Y154587D01*
X1149500Y52727D01*
X1149500Y37100D01*
X1129815Y-29939D01*
X1077011Y-75694D01*
X1025500Y-86900D01*
X-7576345Y-86900D01*
X-7643384Y-67215D01*
X-7689139Y-14411D01*
X-7699083Y54747D01*
X-7696120Y69192D01*
X-7689495Y93920D01*
X-7689400Y94273D01*
X-7689400Y199727D01*
X-7716693Y301587D01*
X-7769420Y392913D01*
X-7843987Y467480D01*
X-7935313Y520207D01*
X-8037173Y547500D01*
X-8142627Y547500D01*
X-8142632Y547500D01*
X-8195672Y533288D01*
X-8265522Y534952D01*
X-8323383Y574115D01*
X-8337477Y595280D01*
X-8343944Y607560D01*
X-8359894Y667086D01*
X-8412621Y758412D01*
X-8435380Y781171D01*
X-8444131Y797787D01*
X-8447478Y814368D01*
X-8455583Y829212D01*
X-8454247Y847905D01*
X-8457954Y866276D01*
X-8451806Y882033D01*
X-8450599Y898904D01*
X-8441804Y917570D01*
X-8398593Y992413D01*
X-8371300Y1094273D01*
X-8371300Y1199727D01*
X-8388149Y1262609D01*
X-8386486Y1332456D01*
X-8347324Y1390319D01*
X-8283095Y1417823D01*
X-8268374Y1418700D01*
X-1622520Y1418700D01*
X-1555481Y1399015D01*
G37*
%TD.AperFunction*%
%TA.AperFunction,Conductor*%
G36*
X-1145185Y2310916D02*
G01*
X-1124543Y2294282D01*
X-206842Y1376581D01*
X-173357Y1315258D01*
X-178341Y1245566D01*
X-220213Y1189633D01*
X-285677Y1165216D01*
X-294523Y1164900D01*
X-557474Y1164900D01*
X-624513Y1184585D01*
X-645155Y1201219D01*
X-1325500Y1881564D01*
X-1417568Y1919700D01*
X-1417569Y1919700D01*
X-2274417Y1919700D01*
X-2341456Y1939385D01*
X-2387211Y1992189D01*
X-2398396Y2045975D01*
X-2398118Y2061141D01*
X-2393500Y2078374D01*
X-2393500Y2183828D01*
X-2395715Y2192095D01*
X-2395407Y2208876D01*
X-2387614Y2233723D01*
X-2383601Y2259452D01*
X-2377326Y2266523D01*
X-2374496Y2275543D01*
X-2354507Y2292232D01*
X-2337220Y2311708D01*
X-2328011Y2314353D01*
X-2320862Y2320321D01*
X-2296702Y2323344D01*
X-2271428Y2330601D01*
X-1212224Y2330601D01*
X-1145185Y2310916D01*
G37*
%TD.AperFunction*%
%TD*%
M02*
