%TF.GenerationSoftware,KiCad,Pcbnew,10.0.1*%
%TF.CreationDate,2026-06-05T16:41:55-04:00*%
%TF.ProjectId,Smart_Watch,536d6172-745f-4576-9174-63682e6b6963,rev?*%
%TF.SameCoordinates,Original*%
%TF.FileFunction,Copper,L4,Bot*%
%TF.FilePolarity,Positive*%
%FSLAX46Y46*%
G04 Gerber Fmt 4.6, Leading zero omitted, Abs format (unit mm)*
G04 Created by KiCad (PCBNEW 10.0.1) date 2026-06-05 16:41:55*
%MOMM*%
%LPD*%
G01*
G04 APERTURE LIST*
G04 Aperture macros list*
%AMRoundRect*
0 Rectangle with rounded corners*
0 $1 Rounding radius*
0 $2 $3 $4 $5 $6 $7 $8 $9 X,Y pos of 4 corners*
0 Add a 4 corners polygon primitive as box body*
4,1,4,$2,$3,$4,$5,$6,$7,$8,$9,$2,$3,0*
0 Add four circle primitives for the rounded corners*
1,1,$1+$1,$2,$3*
1,1,$1+$1,$4,$5*
1,1,$1+$1,$6,$7*
1,1,$1+$1,$8,$9*
0 Add four rect primitives between the rounded corners*
20,1,$1+$1,$2,$3,$4,$5,0*
20,1,$1+$1,$4,$5,$6,$7,0*
20,1,$1+$1,$6,$7,$8,$9,0*
20,1,$1+$1,$8,$9,$2,$3,0*%
G04 Aperture macros list end*
%TA.AperFunction,EtchedComponent*%
%ADD10C,0.000000*%
%TD*%
%TA.AperFunction,SMDPad,CuDef*%
%ADD11R,1.000000X1.000000*%
%TD*%
%TA.AperFunction,SMDPad,CuDef*%
%ADD12R,0.750000X0.350000*%
%TD*%
%TA.AperFunction,SMDPad,CuDef*%
%ADD13RoundRect,0.250000X0.262500X0.450000X-0.262500X0.450000X-0.262500X-0.450000X0.262500X-0.450000X0*%
%TD*%
%TA.AperFunction,SMDPad,CuDef*%
%ADD14C,0.500000*%
%TD*%
%TA.AperFunction,SMDPad,CuDef*%
%ADD15RoundRect,0.150000X0.350000X0.350000X-0.350000X0.350000X-0.350000X-0.350000X0.350000X-0.350000X0*%
%TD*%
%TA.AperFunction,ViaPad*%
%ADD16C,0.500000*%
%TD*%
%TA.AperFunction,Conductor*%
%ADD17C,0.200000*%
%TD*%
G04 APERTURE END LIST*
D10*
%TA.AperFunction,EtchedComponent*%
%TO.C,NT3*%
G36*
X2050000Y-4450000D02*
G01*
X1550000Y-4450000D01*
X1550000Y-3450000D01*
X2050000Y-3450000D01*
X2050000Y-4450000D01*
G37*
%TD.AperFunction*%
%TD*%
D11*
%TO.P,PGND1,1,1_1*%
%TO.N,PGND1*%
X-3556000Y4699000D03*
%TD*%
%TO.P,+1V8,1,1_1*%
%TO.N,+1V8*%
X-2540000Y13335000D03*
%TD*%
%TO.P,VBUS_IN1,1,1_1*%
%TO.N,/Architecture/MCU/VBUS_IN*%
X1270000Y9525000D03*
%TD*%
D12*
%TO.P,U9,1*%
%TO.N,N/C*%
X680000Y2390000D03*
%TO.P,U9,2,SCL_2*%
%TO.N,/Architecture/MCU/SCL*%
X680000Y1590000D03*
%TO.P,U9,3,SDA_3*%
%TO.N,/Architecture/MCU/SDA*%
X680000Y790000D03*
%TO.P,U9,4,PGND_4*%
%TO.N,PGND3*%
X680000Y-10000D03*
%TO.P,U9,5*%
%TO.N,N/C*%
X680000Y-810000D03*
%TO.P,U9,6*%
X680000Y-1610000D03*
%TO.P,U9,7*%
X680000Y-2410000D03*
%TO.P,U9,8*%
X-1720000Y-2410000D03*
%TO.P,U9,9,VLED+_9*%
%TO.N,+1V8*%
X-1720000Y-1610000D03*
%TO.P,U9,10,VLED+__1_10*%
%TO.N,unconnected-(U9-VLED+__1-Pad10)*%
X-1720000Y-810000D03*
%TO.P,U9,11,VDD_11*%
%TO.N,+1V8*%
X-1720000Y-10000D03*
%TO.P,U9,12,GND_12*%
%TO.N,GND*%
X-1720000Y790000D03*
%TO.P,U9,13,~{INT}_13*%
%TO.N,/Architecture/MCU/MAX_INT*%
X-1720000Y1590000D03*
%TO.P,U9,14*%
%TO.N,N/C*%
X-1720000Y2390000D03*
%TD*%
D13*
%TO.P,SW2,1,1_1*%
%TO.N,GND*%
X-6502400Y-3505200D03*
%TO.P,SW2,2,2_2*%
%TO.N,/Architecture/Power/PMIC_SW*%
X-8327400Y-3505200D03*
%TD*%
D11*
%TO.P,LRA_EN1,1,1_1*%
%TO.N,/Architecture/MCU/LRA_EN*%
X-12065000Y5715000D03*
%TD*%
%TO.P,+BATT1,1,1_1*%
%TO.N,+BATT*%
X-5080000Y13335000D03*
%TD*%
D14*
%TO.P,NT3,1,1_1*%
%TO.N,GND*%
X1800000Y-4450000D03*
%TO.P,NT3,2,2_2*%
%TO.N,PGND3*%
X1800000Y-3450000D03*
%TD*%
D11*
%TO.P,VBUS_OUT1,1,1_1*%
%TO.N,/Architecture/MCU/VBUS_OUT*%
X-1270000Y9525000D03*
%TD*%
D13*
%TO.P,SW3,1,1_1*%
%TO.N,GND*%
X13142357Y-5181600D03*
%TO.P,SW3,2,2_2*%
%TO.N,/Architecture/MCU/MCU_RST*%
X11317357Y-5181600D03*
%TD*%
D11*
%TO.P,GND1,1,1_1*%
%TO.N,GND*%
X5080000Y9525000D03*
%TD*%
%TO.P,VSYS1,1,1_1*%
%TO.N,VSYS*%
X0Y13335000D03*
%TD*%
D15*
%TO.P,J3,1,Pin_1_1*%
%TO.N,/Architecture/MCU/SWDIO*%
X8890000Y6318000D03*
%TO.P,J3,2,Pin_2_2*%
%TO.N,/Architecture/MCU/SWCLK*%
X6890000Y6318000D03*
%TO.P,J3,3,Pin_3_3*%
%TO.N,/Architecture/MCU/MCU_RST*%
X4890000Y6318000D03*
%TO.P,J3,4,Pin_4_4*%
%TO.N,/Architecture/MCU/SWO*%
X8890000Y4318000D03*
%TO.P,J3,5,Pin_5_5*%
%TO.N,+1V8*%
X6890000Y4318000D03*
%TO.P,J3,6,Pin_6_6*%
%TO.N,GND*%
X4890000Y4318000D03*
%TD*%
D11*
%TO.P,LRA_PWM1,1,1_1*%
%TO.N,/Architecture/MCU/LRA_PWM*%
X-13335000Y-5715000D03*
%TD*%
%TO.P,+3V0,1,1_1*%
%TO.N,+3V0*%
X2540000Y13335000D03*
%TD*%
%TO.P,SCL1,1,1_1*%
%TO.N,/Architecture/MCU/SCL*%
X-6985000Y1270000D03*
%TD*%
%TO.P,SDA1,1,1_1*%
%TO.N,/Architecture/MCU/SDA*%
X-6985000Y-1270000D03*
%TD*%
%TO.P,QSPI_CS1,1,1_1*%
%TO.N,/Architecture/MCU/QSPI_CS*%
X5080000Y-12700000D03*
%TD*%
%TO.P,QSPI_CLK1,1,1_1*%
%TO.N,/Architecture/MCU/QSPI_CLK*%
X1905000Y-12700000D03*
%TD*%
%TO.P,PMIC_INT1,1,1_1*%
%TO.N,/Architecture/MCU/PMIC_INT*%
X-12700000Y3175000D03*
%TD*%
%TO.P,PGND2,1,1_1*%
%TO.N,PGND2*%
X-635000Y5715000D03*
%TD*%
D16*
%TO.N,/Architecture/MCU/LPS_INT*%
X875490Y-4800000D03*
%TO.N,/Architecture/MCU/LEDK1*%
X-1450000Y-3250000D03*
%TO.N,/Architecture/MCU/MAX_INT*%
X5200000Y-7850000D03*
%TO.N,/Architecture/MCU/SDA*%
X650000Y800000D03*
%TO.N,/Architecture/MCU/CLK1*%
X3743199Y1093199D03*
X5800000Y6357200D03*
%TO.N,/Architecture/MCU/CLK2*%
X2637601Y1087601D03*
X2650000Y5500000D03*
%TO.N,/Architecture/MCU/CC1*%
X-198781Y-1657180D03*
%TO.N,+1V8*%
X-640000Y400000D03*
X-2720645Y-1744617D03*
%TO.N,/Architecture/MCU/VBUS_OUT*%
X-3544487Y-2563080D03*
%TO.N,/Architecture/MCU/CC2*%
X-3294177Y-1540596D03*
%TO.N,/Architecture/MCU/SDA*%
X1550000Y-2200000D03*
%TO.N,PGND2*%
X-6465001Y3771900D03*
X-457200Y2794000D03*
%TO.N,GND*%
X-7112000Y13208000D03*
X13360400Y-6096000D03*
X5950000Y550000D03*
X2641600Y-3251200D03*
X-9900000Y-3900000D03*
X-13487400Y-351998D03*
X3810000Y-15240000D03*
X-5300000Y-8600000D03*
X-4531500Y-4169000D03*
X11450000Y-2200000D03*
X-558800Y1397000D03*
X6875000Y13550000D03*
X2540000Y-15240000D03*
X-6800000Y9150000D03*
X-16200000Y-2235200D03*
X12954000Y5842000D03*
X-3048000Y-15240000D03*
X14500000Y8500000D03*
X-6959600Y-13868400D03*
X-6712800Y300000D03*
X13157200Y-7264400D03*
X11300000Y7600000D03*
X-11350000Y7700000D03*
X5950000Y-550000D03*
X-5800000Y-4500000D03*
X13512800Y6807200D03*
X12242800Y6908800D03*
X13919200Y5892800D03*
X-11176000Y1143000D03*
X12000000Y8725000D03*
X12903200Y7721600D03*
X-3258400Y5740400D03*
X12903200Y6502400D03*
X12852400Y-8280400D03*
X-7925000Y7950000D03*
X12344400Y-6858000D03*
X-6292000Y2786800D03*
%TO.N,+1V8*%
X-9423400Y2057400D03*
X-7315938Y-9246338D03*
X9125034Y-5161363D03*
X4800000Y972400D03*
X-2153756Y4041603D03*
X-8750976Y3802556D03*
X-10033000Y-5704400D03*
X1550000Y3250000D03*
X1611649Y2244749D03*
X-3708400Y-8578000D03*
%TO.N,+3V0*%
X-2858000Y-10317447D03*
X-3352800Y3403600D03*
X-13614400Y-3652602D03*
X-13411200Y6654800D03*
X-3708400Y6654800D03*
X-8636000Y6604000D03*
X-12852400Y-8077200D03*
%TO.N,/Architecture/MCU/BTN_2*%
X-8680986Y9999380D03*
X2641600Y50800D03*
X2849999Y8502457D03*
%TO.N,VSYS*%
X-6553200Y5029200D03*
X-15288798Y-1235200D03*
X-6000000Y-1450000D03*
X-2794000Y2131101D03*
%TO.N,/Architecture/Peripherals/MOTOR+*%
X-12471400Y1363003D03*
X762000Y-15240000D03*
%TO.N,/Architecture/Peripherals/MOTOR-*%
X-12463232Y-117001D03*
X-1270000Y-15240000D03*
%TO.N,+BATT*%
X-5834800Y-2527593D03*
X-7569200Y5943600D03*
X-11684000Y4572000D03*
%TO.N,/Architecture/MCU/SCL*%
X-9855200Y-4724400D03*
X2641600Y-1117600D03*
X2030916Y-7490601D03*
X-5579999Y-5600000D03*
X-8702020Y481417D03*
%TO.N,/Architecture/MCU/SDA*%
X-9248000Y-1430100D03*
X1930400Y-9499600D03*
X-8771800Y1147000D03*
X-7620000Y-5334000D03*
X-6732004Y-9598800D03*
%TO.N,/Architecture/MCU/VBUS_OUT*%
X-5485274Y5776615D03*
X2650000Y4400000D03*
%TO.N,/Architecture/MCU/USBC_D+*%
X3750000Y4400000D03*
X3500000Y8100000D03*
X-744329Y7544329D03*
X254000Y7264400D03*
%TO.N,/Architecture/MCU/USBC_D-*%
X762000Y6096000D03*
X-238108Y6876249D03*
%TO.N,/Architecture/MCU/VBUS_IN*%
X-2387600Y7620000D03*
X-2082800Y5588000D03*
X2336800Y6045200D03*
X-4531500Y-2609000D03*
%TO.N,/Architecture/MCU/BTN_3*%
X8680986Y-9999380D03*
X1548788Y-1116373D03*
X1299767Y-9048273D03*
%TO.N,/Architecture/MCU/LPS_INT*%
X-7874000Y-4775200D03*
X1550000Y0D03*
%TO.N,/Architecture/MCU/CTP_INT*%
X2899873Y-7485376D03*
X2650000Y-4400000D03*
%TO.N,/Architecture/MCU/DISPLAY_CLK*%
X2765317Y-2275859D03*
X2200001Y-6294416D03*
%TO.N,/Architecture/MCU/DISPLAY_DATA*%
X3750000Y-4400000D03*
X1638999Y-6590601D03*
%TO.N,/Architecture/MCU/DISPLAY_DC*%
X3750000Y-3300000D03*
X3568998Y-6454860D03*
%TO.N,/Architecture/MCU/BMI_INT*%
X3708400Y3251200D03*
X-3048000Y-9296400D03*
X-1259188Y3410369D03*
%TO.N,/Architecture/MCU/QSPI_IO2*%
X4700000Y-4350000D03*
X3900000Y-10400000D03*
%TO.N,/Architecture/MCU/QSPI_IO0*%
X4724400Y-3251200D03*
X-406400Y-9601200D03*
X2895600Y-9811600D03*
%TO.N,/Architecture/MCU/QSPI_CS*%
X6604000Y-13462000D03*
X5950000Y-4400000D03*
%TO.N,/Architecture/MCU/QSPI_IO1*%
X6604000Y-12192000D03*
X5969000Y-3302000D03*
%TO.N,/Architecture/MCU/MAX_INT*%
X5950000Y-2200000D03*
%TO.N,/Architecture/MCU/CTP_RST*%
X5943600Y3327000D03*
X932600Y-7416800D03*
X4978400Y-6973000D03*
%TO.N,/Architecture/MCU/QSPI_CLK*%
X6901600Y-10992489D03*
X7050000Y-4400000D03*
X-600000Y-10922000D03*
%TO.N,/Architecture/MCU/QSPI_IO3*%
X-600000Y-12192000D03*
X7010400Y-3293467D03*
X6901600Y-11592492D03*
%TO.N,/Architecture/MCU/BTN_4*%
X-8680986Y-9867447D03*
X8519929Y-8412313D03*
X7112000Y3302000D03*
%TO.N,/Architecture/MCU/BTN_1*%
X8227554Y-3202446D03*
X8947803Y10452197D03*
%TO.N,/Architecture/MCU/DISPLAY_LIGHT_IO*%
X8128000Y-2235200D03*
X-12700000Y-1574800D03*
%TO.N,/Architecture/MCU/PMIC_INT*%
X9250000Y-4400000D03*
X-6269800Y-5269800D03*
X-7975600Y3759200D03*
%TO.N,/Architecture/MCU/SWDIO*%
X9250000Y-3300000D03*
%TO.N,/Architecture/MCU/USB_RST*%
X9250000Y-2200000D03*
X1828800Y6604000D03*
X10058400Y6959600D03*
X-1275000Y6814870D03*
%TO.N,/Architecture/MCU/LRA_PWM*%
X9194800Y2184400D03*
X-14462399Y873001D03*
%TO.N,/Architecture/MCU/SWO*%
X9250000Y3300000D03*
%TO.N,/Architecture/MCU/SWCLK*%
X11400000Y-1400000D03*
X11125200Y6096000D03*
X6890000Y6318000D03*
%TO.N,/Architecture/MCU/MCU_RST*%
X4800000Y6357200D03*
X10312400Y-2235200D03*
X8128000Y-1524000D03*
%TO.N,/Architecture/MCU/LRA_EN*%
X10312400Y3300000D03*
X-14475659Y2152937D03*
%TO.N,/Architecture/MCU/DISPLAY_RST*%
X10900000Y-3855049D03*
X10350000Y4400000D03*
X3708400Y-5232400D03*
%TO.N,PGND1*%
X-4470400Y3759200D03*
X-494795Y3850000D03*
%TO.N,/Architecture/Power/PMIC_SW*%
X-8089900Y147000D03*
X-8400000Y-4057391D03*
%TO.N,/Architecture/MCU/CC2*%
X-1805016Y6483642D03*
%TO.N,/Architecture/MCU/CC1*%
X-3400000Y-950000D03*
X1387003Y5943600D03*
%TO.N,/Architecture/MCU/LEDK1*%
X-12446000Y-2489200D03*
%TO.N,/Architecture/MCU/LEDK2*%
X-11277600Y-3652602D03*
X-203200Y-6400800D03*
X-11531600Y-7467600D03*
%TD*%
%TO.N,/Architecture/MCU/MAX_INT*%
D17*
X-1328800Y1981200D02*
X-1720000Y1590000D01*
X1238800Y1981200D02*
X-1328800Y1981200D01*
X1500000Y1720000D02*
X1238800Y1981200D01*
X2662399Y1537601D02*
X2480000Y1720000D01*
X3087601Y1273998D02*
X2823998Y1537601D01*
X3087601Y1112399D02*
X3087601Y1273998D01*
X2823998Y1537601D02*
X2662399Y1537601D01*
X5950000Y-1750000D02*
X3087601Y1112399D01*
X2480000Y1720000D02*
X1500000Y1720000D01*
X5950000Y-2200000D02*
X5950000Y-1750000D01*
%TO.N,/Architecture/MCU/USBC_D+*%
X2215718Y7264400D02*
X254000Y7264400D01*
X2387000Y7435682D02*
X2215718Y7264400D01*
X2650603Y7764870D02*
X2387000Y7501267D01*
X2387000Y7501267D02*
X2387000Y7435682D01*
X3051318Y8100000D02*
X2716188Y7764870D01*
X3500000Y8100000D02*
X3051318Y8100000D01*
X2716188Y7764870D02*
X2650603Y7764870D01*
%TO.N,+1V8*%
X-1720000Y-1610000D02*
X-2586028Y-1610000D01*
X-2586028Y-1610000D02*
X-2720645Y-1744617D01*
X-2720645Y-350521D02*
X-2380124Y-10000D01*
X-2720645Y-1744617D02*
X-2720645Y-350521D01*
%TO.N,/Architecture/MCU/SWCLK*%
X6890000Y6318000D02*
X6832000Y6260000D01*
%TO.N,PGND2*%
X-1542550Y2794000D02*
X-2603756Y3855206D01*
X-1116756Y5715000D02*
X-635000Y5715000D01*
X-457200Y2794000D02*
X-1542550Y2794000D01*
X-2603756Y3855206D02*
X-2603756Y4228000D01*
X-2603756Y4228000D02*
X-1116756Y5715000D01*
%TO.N,+1V8*%
X-6050000Y9825000D02*
X-6050000Y6503532D01*
X-300000Y4300000D02*
X-2100800Y4300000D01*
X9063671Y-5009738D02*
X7460400Y-3406467D01*
X7460400Y-3406467D02*
X7460400Y-1424003D01*
X9125034Y-5161363D02*
X9063671Y-5100000D01*
X-9423400Y2217200D02*
X-9303800Y2336800D01*
X5872400Y-100000D02*
X4800000Y972400D01*
X4673600Y1143600D02*
X6400800Y2870800D01*
X-2133600Y4267200D02*
X-2133600Y4061759D01*
X1611649Y2244749D02*
X1600000Y2256398D01*
X-9423400Y2057400D02*
X-9423400Y2217200D01*
X-9303800Y2336800D02*
X-4726924Y2336800D01*
X6136397Y-100000D02*
X5872400Y-100000D01*
X-10033000Y-6529276D02*
X-7315938Y-9246338D01*
X1600000Y2256398D02*
X1600000Y2400000D01*
X-10033000Y-5704400D02*
X-10033000Y-6529276D01*
X4800000Y972400D02*
X4673600Y1098800D01*
X9063671Y-5100000D02*
X9063671Y-5009738D01*
X-2380124Y-10000D02*
X-4726924Y2336800D01*
X-2100800Y4300000D02*
X-2133600Y4267200D01*
X-2133600Y4061759D02*
X-2153756Y4041603D01*
X-1720000Y-10000D02*
X-2380124Y-10000D01*
X7460400Y-1424003D02*
X6136397Y-100000D01*
X4673600Y1098800D02*
X4673600Y1143600D01*
X1600000Y2400000D02*
X-300000Y4300000D01*
X6400800Y3844800D02*
X6890000Y4334000D01*
X-6050000Y6503532D02*
X-8750976Y3802556D01*
X6400800Y2870800D02*
X6400800Y3844800D01*
X-2540000Y13335000D02*
X-6050000Y9825000D01*
%TO.N,+3V0*%
X-2716403Y6654800D02*
X-3708400Y6654800D01*
X2540000Y13335000D02*
X-570000Y10225000D01*
X-570000Y10225000D02*
X-570000Y8801203D01*
X-570000Y8801203D02*
X-2716403Y6654800D01*
%TO.N,VSYS*%
X-3655101Y2131101D02*
X-6553200Y5029200D01*
X-2794000Y2131101D02*
X-3655101Y2131101D01*
X-5750000Y6148286D02*
X-6553200Y5345086D01*
X-6553200Y5345086D02*
X-6553200Y5029200D01*
X-415000Y13335000D02*
X-5750000Y8000000D01*
X0Y13335000D02*
X-415000Y13335000D01*
X-5750000Y8000000D02*
X-5750000Y6148286D01*
%TO.N,/Architecture/Peripherals/MOTOR+*%
X-12013232Y904835D02*
X-12013232Y563232D01*
X-9094500Y-2355500D02*
X-9094500Y-5905500D01*
X-9094500Y-5905500D02*
X240000Y-15240000D01*
X-12013232Y563232D02*
X-9094500Y-2355500D01*
X-12471400Y1363003D02*
X-12013232Y904835D01*
X240000Y-15240000D02*
X762000Y-15240000D01*
%TO.N,/Architecture/Peripherals/MOTOR-*%
X-11882999Y-117001D02*
X-12463232Y-117001D01*
X-9394500Y-2605500D02*
X-11882999Y-117001D01*
X-9394500Y-6048700D02*
X-9394500Y-2605500D01*
X-1270000Y-15240000D02*
X-1270000Y-14173200D01*
X-1270000Y-14173200D02*
X-9394500Y-6048700D01*
%TO.N,+BATT*%
X-6350000Y7162800D02*
X-7569200Y5943600D01*
X-6350000Y12065000D02*
X-6350000Y7162800D01*
X-5080000Y13335000D02*
X-6350000Y12065000D01*
%TO.N,/Architecture/MCU/SCL*%
X-8702020Y543580D02*
X-7975600Y1270000D01*
X-7975600Y1270000D02*
X-6985000Y1270000D01*
X2190000Y230000D02*
X830000Y1590000D01*
X2641600Y-1117600D02*
X2190000Y-666000D01*
X2190000Y-666000D02*
X2190000Y230000D01*
X-8702020Y481417D02*
X-8702020Y543580D01*
%TO.N,/Architecture/MCU/SDA*%
X-9087900Y-1270000D02*
X-9248000Y-1430100D01*
X-9238400Y824800D02*
X-8916200Y1147000D01*
X-8916200Y1147000D02*
X-8771800Y1147000D01*
X-6985000Y-1270000D02*
X-9087900Y-1270000D01*
X-9238400Y-1420500D02*
X-9238400Y824800D01*
X-9248000Y-1430100D02*
X-9238400Y-1420500D01*
%TO.N,/Architecture/MCU/VBUS_OUT*%
X-1270000Y9525000D02*
X-1736889Y9525000D01*
X-1736889Y9525000D02*
X-5485274Y5776615D01*
%TO.N,/Architecture/MCU/USBC_D-*%
X-238108Y6876249D02*
X-18249Y6876249D01*
X-18249Y6876249D02*
X762000Y6096000D01*
%TO.N,/Architecture/MCU/VBUS_IN*%
X599945Y9525000D02*
X-2255016Y6670039D01*
X1270000Y9525000D02*
X599945Y9525000D01*
X-2255016Y5760216D02*
X-2082800Y5588000D01*
X-2255016Y6670039D02*
X-2255016Y5760216D01*
%TO.N,/Architecture/MCU/DISPLAY_DATA*%
X3438420Y-4419600D02*
X1638999Y-6219021D01*
X3730400Y-4419600D02*
X3438420Y-4419600D01*
X1638999Y-6219021D02*
X1638999Y-6590601D01*
X3750000Y-4400000D02*
X3730400Y-4419600D01*
%TO.N,/Architecture/MCU/QSPI_CS*%
X5842000Y-12700000D02*
X6604000Y-13462000D01*
X5080000Y-12700000D02*
X5842000Y-12700000D01*
%TO.N,/Architecture/MCU/QSPI_CLK*%
X-600000Y-10922000D02*
X127000Y-10922000D01*
X127000Y-10922000D02*
X1905000Y-12700000D01*
%TO.N,/Architecture/MCU/PMIC_INT*%
X-12700000Y3175000D02*
X-8559800Y3175000D01*
X-8559800Y3175000D02*
X-7975600Y3759200D01*
%TO.N,/Architecture/MCU/SWDIO*%
X9250000Y-3300000D02*
X9862400Y-2687600D01*
X9862400Y5345600D02*
X8890000Y6318000D01*
X9862400Y-2687600D02*
X9862400Y5345600D01*
%TO.N,/Architecture/MCU/LRA_PWM*%
X-14462399Y873001D02*
X-14462399Y-4587601D01*
X-14462399Y-4587601D02*
X-13335000Y-5715000D01*
%TO.N,/Architecture/MCU/SWO*%
X9250000Y3300000D02*
X9250000Y3958000D01*
%TO.N,/Architecture/MCU/MCU_RST*%
X10261600Y-2387600D02*
X10261600Y-5029200D01*
X10312400Y-2235200D02*
X10312400Y-2336800D01*
X10261600Y-5029200D02*
X10414000Y-5181600D01*
X10414000Y-5181600D02*
X11317357Y-5181600D01*
X10312400Y-2336800D02*
X10261600Y-2387600D01*
%TO.N,/Architecture/MCU/LRA_EN*%
X-14475659Y3304341D02*
X-12065000Y5715000D01*
X-14475659Y2152937D02*
X-14475659Y3304341D01*
%TO.N,PGND1*%
X-4470400Y3784600D02*
X-3556000Y4699000D01*
X-4470400Y3759200D02*
X-4470400Y3784600D01*
%TO.N,PGND3*%
X880000Y-10000D02*
X1436800Y-566800D01*
X2050000Y-950264D02*
X2050000Y-3200000D01*
X2000000Y-900000D02*
X2000000Y-900264D01*
X1436800Y-566800D02*
X1666800Y-566800D01*
X1666800Y-566800D02*
X2000000Y-900000D01*
X2000000Y-900264D02*
X2050000Y-950264D01*
X2050000Y-3200000D02*
X1800000Y-3450000D01*
%TO.N,+1V8*%
X-1570000Y-1610000D02*
X-1720000Y-1610000D01*
X-640000Y-680000D02*
X-1570000Y-1610000D01*
X-640000Y400000D02*
X-640000Y-680000D01*
%TD*%
%TA.AperFunction,Conductor*%
%TO.N,GND*%
G36*
X-4171313Y6633805D02*
G01*
X-4115379Y6591933D01*
X-4094872Y6549719D01*
X-4088376Y6525476D01*
X-4081607Y6500212D01*
X-4081606Y6500211D01*
X-4028880Y6408887D01*
X-3954313Y6334320D01*
X-3862987Y6281593D01*
X-3761127Y6254300D01*
X-3761125Y6254300D01*
X-3655675Y6254300D01*
X-3655673Y6254300D01*
X-3553813Y6281593D01*
X-3462487Y6334320D01*
X-3428826Y6367981D01*
X-3367503Y6401466D01*
X-3341145Y6404300D01*
X-2666577Y6404300D01*
X-2666575Y6404300D01*
X-2666574Y6404301D01*
X-2654596Y6406683D01*
X-2653762Y6402487D01*
X-2607540Y6407471D01*
X-2545051Y6376217D01*
X-2509378Y6316140D01*
X-2505516Y6285434D01*
X-2505516Y5710387D01*
X-2492739Y5679542D01*
X-2483300Y5632089D01*
X-2483300Y5535273D01*
X-2456007Y5433413D01*
X-2403280Y5342087D01*
X-2328713Y5267520D01*
X-2237387Y5214793D01*
X-2234932Y5214136D01*
X-2233095Y5213016D01*
X-2229880Y5211684D01*
X-2230088Y5211183D01*
X-2175271Y5177775D01*
X-2144739Y5114929D01*
X-2153030Y5045553D01*
X-2179340Y5006679D01*
X-2693819Y4492199D01*
X-2755142Y4458714D01*
X-2824833Y4463698D01*
X-2880767Y4505569D01*
X-2905184Y4571034D01*
X-2905500Y4579880D01*
X-2905500Y5213823D01*
X-2914232Y5257718D01*
X-2914233Y5257719D01*
X-2914233Y5257722D01*
X-2947496Y5307504D01*
X-2947497Y5307505D01*
X-2997276Y5340766D01*
X-2997283Y5340769D01*
X-3041178Y5349500D01*
X-3041180Y5349500D01*
X-4070820Y5349500D01*
X-4070822Y5349500D01*
X-4114718Y5340769D01*
X-4114725Y5340766D01*
X-4164504Y5307505D01*
X-4164505Y5307504D01*
X-4197766Y5257725D01*
X-4197769Y5257718D01*
X-4206500Y5213823D01*
X-4206500Y4454123D01*
X-4215145Y4424683D01*
X-4221668Y4394696D01*
X-4225423Y4389681D01*
X-4226185Y4387084D01*
X-4242819Y4366442D01*
X-4413242Y4196019D01*
X-4474565Y4162534D01*
X-4500923Y4159700D01*
X-4523127Y4159700D01*
X-4624987Y4132407D01*
X-4624990Y4132406D01*
X-4716315Y4079679D01*
X-4790879Y4005115D01*
X-4847671Y3906748D01*
X-4849251Y3907660D01*
X-4886706Y3861184D01*
X-4953001Y3839123D01*
X-5020700Y3856405D01*
X-5045102Y3875363D01*
X-6116381Y4946642D01*
X-6149866Y5007965D01*
X-6152700Y5034323D01*
X-6152700Y5081925D01*
X-6152700Y5081927D01*
X-6179993Y5183787D01*
X-6198394Y5215659D01*
X-6214867Y5283555D01*
X-6192016Y5349582D01*
X-6178693Y5365333D01*
X-5995855Y5548172D01*
X-5934534Y5581655D01*
X-5864843Y5576671D01*
X-5809801Y5535976D01*
X-5805755Y5530703D01*
X-5805754Y5530702D01*
X-5731187Y5456135D01*
X-5639861Y5403408D01*
X-5538001Y5376115D01*
X-5537999Y5376115D01*
X-5432549Y5376115D01*
X-5432547Y5376115D01*
X-5330687Y5403408D01*
X-5239361Y5456135D01*
X-5164794Y5530702D01*
X-5112067Y5622028D01*
X-5084774Y5723888D01*
X-5084774Y5771494D01*
X-5065089Y5838533D01*
X-5048460Y5859171D01*
X-4302325Y6605306D01*
X-4241004Y6638789D01*
X-4171313Y6633805D01*
G37*
%TD.AperFunction*%
%TA.AperFunction,Conductor*%
G36*
X415718Y17869599D02*
G01*
X1234857Y17831728D01*
X1240568Y17831332D01*
X2057072Y17755672D01*
X2062733Y17755015D01*
X2874881Y17641726D01*
X2880526Y17640805D01*
X3376061Y17548173D01*
X3686585Y17490126D01*
X3692188Y17488944D01*
X4490426Y17301200D01*
X4495910Y17299775D01*
X5284621Y17075367D01*
X5290094Y17073673D01*
X6067609Y16813077D01*
X6072946Y16811150D01*
X6682704Y16574929D01*
X6837621Y16514913D01*
X6842913Y16512720D01*
X7593041Y16181506D01*
X7598175Y16179097D01*
X8161991Y15898349D01*
X8332242Y15813574D01*
X8337309Y15810903D01*
X8641007Y15641745D01*
X9053679Y15411888D01*
X9058594Y15409000D01*
X9755810Y14977303D01*
X9760567Y14974203D01*
X10437097Y14510769D01*
X10441737Y14507430D01*
X11096111Y14013270D01*
X11100596Y14009717D01*
X11317675Y13829457D01*
X11731445Y13485866D01*
X11735766Y13482106D01*
X12341754Y12929676D01*
X12345897Y12925720D01*
X12925719Y12345898D01*
X12929675Y12341755D01*
X13482105Y11735767D01*
X13485865Y11731446D01*
X14009712Y11100602D01*
X14013269Y11096112D01*
X14507429Y10441738D01*
X14510774Y10437090D01*
X14966004Y9772535D01*
X14974188Y9760589D01*
X14977308Y9755800D01*
X15057570Y9626173D01*
X15408992Y9058607D01*
X15411894Y9053668D01*
X15810902Y8337310D01*
X15813573Y8332243D01*
X16076192Y7804834D01*
X16159461Y7637607D01*
X16179083Y7598202D01*
X16181513Y7593023D01*
X16218034Y7510313D01*
X16512719Y6842914D01*
X16514912Y6837622D01*
X16811140Y6072972D01*
X16813085Y6067584D01*
X17073672Y5290094D01*
X17075366Y5284622D01*
X17299766Y4495941D01*
X17301206Y4490397D01*
X17488942Y3692191D01*
X17490125Y3686586D01*
X17640803Y2880531D01*
X17641725Y2874877D01*
X17755012Y2062748D01*
X17755672Y2057058D01*
X17831330Y1240570D01*
X17831727Y1234856D01*
X17869599Y415719D01*
X17869731Y409992D01*
X17869731Y-409991D01*
X17869599Y-415718D01*
X17831727Y-1234855D01*
X17831330Y-1240569D01*
X17755672Y-2057057D01*
X17755012Y-2062747D01*
X17641725Y-2874876D01*
X17640803Y-2880530D01*
X17490125Y-3686585D01*
X17488942Y-3692190D01*
X17301206Y-4490396D01*
X17299766Y-4495940D01*
X17075366Y-5284621D01*
X17073672Y-5290093D01*
X16813085Y-6067583D01*
X16811140Y-6072971D01*
X16514912Y-6837621D01*
X16512719Y-6842913D01*
X16181517Y-7593015D01*
X16179083Y-7598201D01*
X15813573Y-8332242D01*
X15810902Y-8337309D01*
X15411894Y-9053667D01*
X15408992Y-9058606D01*
X14977315Y-9755789D01*
X14974188Y-9760588D01*
X14510775Y-10437087D01*
X14507429Y-10441737D01*
X14013269Y-11096111D01*
X14009712Y-11100601D01*
X13485865Y-11731445D01*
X13482105Y-11735766D01*
X12929675Y-12341754D01*
X12925719Y-12345897D01*
X12345897Y-12925719D01*
X12341754Y-12929675D01*
X11735766Y-13482105D01*
X11731445Y-13485865D01*
X11100601Y-14009712D01*
X11096111Y-14013269D01*
X10441737Y-14507429D01*
X10437087Y-14510775D01*
X9760588Y-14974188D01*
X9755789Y-14977315D01*
X9058606Y-15408992D01*
X9053667Y-15411894D01*
X8337309Y-15810902D01*
X8332242Y-15813573D01*
X7598201Y-16179083D01*
X7593015Y-16181517D01*
X6842913Y-16512719D01*
X6837621Y-16514912D01*
X6072971Y-16811140D01*
X6067583Y-16813085D01*
X5290093Y-17073672D01*
X5284621Y-17075366D01*
X4495940Y-17299766D01*
X4490396Y-17301206D01*
X3692190Y-17488942D01*
X3686585Y-17490125D01*
X2880530Y-17640803D01*
X2874876Y-17641725D01*
X2062747Y-17755012D01*
X2057057Y-17755672D01*
X1240569Y-17831330D01*
X1234855Y-17831727D01*
X415718Y-17869599D01*
X409991Y-17869731D01*
X-409991Y-17869731D01*
X-415718Y-17869599D01*
X-1234856Y-17831727D01*
X-1240570Y-17831330D01*
X-2057058Y-17755672D01*
X-2062748Y-17755012D01*
X-2874877Y-17641725D01*
X-2880531Y-17640803D01*
X-3686586Y-17490125D01*
X-3692191Y-17488942D01*
X-4490397Y-17301206D01*
X-4495941Y-17299766D01*
X-5284622Y-17075366D01*
X-5290094Y-17073672D01*
X-6067584Y-16813085D01*
X-6072972Y-16811140D01*
X-6837622Y-16514912D01*
X-6842914Y-16512719D01*
X-7593016Y-16181517D01*
X-7598202Y-16179083D01*
X-8332243Y-15813573D01*
X-8337310Y-15810902D01*
X-9053668Y-15411894D01*
X-9058607Y-15408992D01*
X-9412041Y-15190155D01*
X-9755800Y-14977308D01*
X-9760578Y-14974195D01*
X-10437090Y-14510774D01*
X-10441738Y-14507429D01*
X-10670388Y-14334761D01*
X-11096112Y-14013269D01*
X-11100602Y-14009712D01*
X-11729364Y-13487594D01*
X-11731445Y-13485866D01*
X-11731446Y-13485865D01*
X-11735767Y-13482105D01*
X-11825478Y-13400323D01*
X-9459842Y-13400323D01*
X-9459842Y-13551854D01*
X-9420623Y-13698225D01*
X-9382740Y-13763839D01*
X-9344857Y-13829454D01*
X-9237707Y-13936604D01*
X-9106477Y-14012370D01*
X-8960108Y-14051589D01*
X-8960106Y-14051589D01*
X-8808578Y-14051589D01*
X-8808576Y-14051589D01*
X-8662207Y-14012370D01*
X-8530977Y-13936604D01*
X-8423827Y-13829454D01*
X-8348061Y-13698224D01*
X-8308842Y-13551855D01*
X-8308842Y-13400323D01*
X-8348061Y-13253954D01*
X-8423827Y-13122724D01*
X-8530977Y-13015574D01*
X-8596592Y-12977691D01*
X-8662206Y-12939808D01*
X-8735392Y-12920198D01*
X-8808576Y-12900589D01*
X-8960108Y-12900589D01*
X-9106479Y-12939808D01*
X-9237707Y-13015574D01*
X-9237710Y-13015576D01*
X-9344855Y-13122721D01*
X-9344857Y-13122724D01*
X-9420623Y-13253952D01*
X-9459842Y-13400323D01*
X-11825478Y-13400323D01*
X-12341755Y-12929675D01*
X-12345898Y-12925719D01*
X-12925720Y-12345897D01*
X-12929676Y-12341754D01*
X-13482106Y-11735766D01*
X-13485866Y-11731445D01*
X-13798886Y-11354490D01*
X-14009717Y-11100596D01*
X-14013270Y-11096111D01*
X-14028014Y-11076587D01*
X-14377233Y-10614145D01*
X-12669158Y-10614145D01*
X-12669158Y-10765677D01*
X-12659827Y-10800500D01*
X-12629939Y-10912047D01*
X-12613937Y-10939762D01*
X-12554173Y-11043276D01*
X-12447023Y-11150426D01*
X-12315793Y-11226192D01*
X-12169424Y-11265411D01*
X-12169422Y-11265411D01*
X-12017894Y-11265411D01*
X-12017892Y-11265411D01*
X-11871523Y-11226192D01*
X-11740293Y-11150426D01*
X-11633143Y-11043276D01*
X-11557377Y-10912046D01*
X-11518158Y-10765677D01*
X-11518158Y-10614145D01*
X-11557377Y-10467776D01*
X-11633143Y-10336546D01*
X-11740293Y-10229396D01*
X-11812119Y-10187927D01*
X-11871522Y-10153630D01*
X-11951957Y-10132078D01*
X-12017892Y-10114411D01*
X-12169424Y-10114411D01*
X-12315795Y-10153630D01*
X-12447023Y-10229396D01*
X-12447026Y-10229398D01*
X-12554171Y-10336543D01*
X-12554173Y-10336546D01*
X-12629939Y-10467774D01*
X-12655551Y-10563361D01*
X-12669158Y-10614145D01*
X-14377233Y-10614145D01*
X-14507437Y-10441727D01*
X-14510776Y-10437087D01*
X-14536264Y-10399879D01*
X-14937107Y-9814720D01*
X-9081486Y-9814720D01*
X-9081486Y-9920174D01*
X-9059641Y-10001699D01*
X-9054193Y-10022033D01*
X-9054192Y-10022036D01*
X-9051445Y-10026794D01*
X-9001466Y-10113360D01*
X-8926899Y-10187927D01*
X-8835573Y-10240654D01*
X-8733713Y-10267947D01*
X-8733711Y-10267947D01*
X-8628261Y-10267947D01*
X-8628259Y-10267947D01*
X-8526399Y-10240654D01*
X-8435073Y-10187927D01*
X-8360506Y-10113360D01*
X-8307779Y-10022034D01*
X-8280486Y-9920174D01*
X-8280486Y-9814720D01*
X-8307779Y-9712860D01*
X-8360506Y-9621534D01*
X-8435073Y-9546967D01*
X-8526399Y-9494240D01*
X-8628259Y-9466947D01*
X-8733713Y-9466947D01*
X-8835573Y-9494240D01*
X-8835576Y-9494241D01*
X-8926901Y-9546968D01*
X-9001465Y-9621532D01*
X-9054192Y-9712857D01*
X-9054193Y-9712860D01*
X-9081486Y-9814720D01*
X-14937107Y-9814720D01*
X-14974203Y-9760567D01*
X-14977303Y-9755810D01*
X-15409000Y-9058594D01*
X-15411895Y-9053667D01*
X-15413667Y-9050486D01*
X-15683022Y-8566900D01*
X-15810903Y-8337309D01*
X-15813574Y-8332242D01*
X-15931252Y-8095913D01*
X-15966825Y-8024473D01*
X-13252900Y-8024473D01*
X-13252900Y-8129927D01*
X-13225607Y-8231787D01*
X-13172880Y-8323113D01*
X-13098313Y-8397680D01*
X-13006987Y-8450407D01*
X-12905127Y-8477700D01*
X-12905125Y-8477700D01*
X-12799675Y-8477700D01*
X-12799673Y-8477700D01*
X-12697813Y-8450407D01*
X-12606487Y-8397680D01*
X-12531920Y-8323113D01*
X-12479193Y-8231787D01*
X-12451900Y-8129927D01*
X-12451900Y-8024473D01*
X-12479193Y-7922613D01*
X-12531920Y-7831287D01*
X-12606487Y-7756720D01*
X-12681324Y-7713513D01*
X-12697811Y-7703994D01*
X-12697812Y-7703993D01*
X-12697813Y-7703993D01*
X-12799673Y-7676700D01*
X-12905127Y-7676700D01*
X-13006987Y-7703993D01*
X-13006990Y-7703994D01*
X-13098315Y-7756721D01*
X-13172879Y-7831285D01*
X-13225606Y-7922610D01*
X-13225607Y-7922613D01*
X-13252900Y-8024473D01*
X-15966825Y-8024473D01*
X-16179097Y-7598175D01*
X-16181506Y-7593041D01*
X-16260175Y-7414873D01*
X-11932100Y-7414873D01*
X-11932100Y-7520327D01*
X-11904807Y-7622187D01*
X-11852080Y-7713513D01*
X-11777513Y-7788080D01*
X-11686187Y-7840807D01*
X-11584327Y-7868100D01*
X-11584325Y-7868100D01*
X-11478875Y-7868100D01*
X-11478873Y-7868100D01*
X-11377013Y-7840807D01*
X-11285687Y-7788080D01*
X-11211120Y-7713513D01*
X-11158393Y-7622187D01*
X-11131100Y-7520327D01*
X-11131100Y-7414873D01*
X-11158393Y-7313013D01*
X-11211120Y-7221687D01*
X-11285687Y-7147120D01*
X-11352541Y-7108522D01*
X-11377011Y-7094394D01*
X-11377012Y-7094393D01*
X-11377013Y-7094393D01*
X-11478873Y-7067100D01*
X-11584327Y-7067100D01*
X-11686187Y-7094393D01*
X-11686190Y-7094394D01*
X-11777515Y-7147121D01*
X-11852079Y-7221685D01*
X-11904806Y-7313010D01*
X-11904807Y-7313013D01*
X-11932100Y-7414873D01*
X-16260175Y-7414873D01*
X-16512720Y-6842913D01*
X-16514913Y-6837621D01*
X-16617622Y-6572500D01*
X-16811150Y-6072946D01*
X-16813077Y-6067609D01*
X-17073673Y-5290093D01*
X-17075367Y-5284621D01*
X-17091820Y-5226794D01*
X-17299775Y-4495910D01*
X-17301200Y-4490426D01*
X-17488944Y-3692188D01*
X-17490126Y-3686585D01*
X-17523293Y-3509158D01*
X-17640805Y-2880526D01*
X-17641726Y-2874876D01*
X-17643465Y-2862406D01*
X-17755015Y-2062733D01*
X-17755673Y-2057057D01*
X-17758145Y-2030385D01*
X-17831332Y-1240568D01*
X-17831728Y-1234855D01*
X-17833098Y-1205223D01*
X-17834150Y-1182473D01*
X-15689298Y-1182473D01*
X-15689298Y-1287927D01*
X-15662005Y-1389787D01*
X-15609278Y-1481113D01*
X-15534711Y-1555680D01*
X-15443385Y-1608407D01*
X-15341525Y-1635700D01*
X-15341523Y-1635700D01*
X-15236073Y-1635700D01*
X-15236071Y-1635700D01*
X-15134211Y-1608407D01*
X-15042885Y-1555680D01*
X-14968318Y-1481113D01*
X-14944285Y-1439485D01*
X-14893719Y-1391272D01*
X-14825112Y-1378048D01*
X-14760248Y-1404016D01*
X-14719719Y-1460930D01*
X-14712899Y-1501487D01*
X-14712899Y-4637430D01*
X-14674763Y-4729498D01*
X-14021819Y-5382442D01*
X-13988334Y-5443765D01*
X-13985500Y-5470123D01*
X-13985500Y-6229820D01*
X-13985500Y-6229822D01*
X-13985501Y-6229822D01*
X-13976769Y-6273717D01*
X-13976766Y-6273724D01*
X-13943505Y-6323503D01*
X-13943504Y-6323504D01*
X-13893722Y-6356767D01*
X-13893719Y-6356767D01*
X-13893718Y-6356768D01*
X-13849823Y-6365500D01*
X-13849820Y-6365500D01*
X-12820178Y-6365500D01*
X-12776283Y-6356768D01*
X-12776283Y-6356767D01*
X-12776278Y-6356767D01*
X-12726496Y-6323504D01*
X-12693233Y-6273722D01*
X-12684500Y-6229820D01*
X-12684500Y-5200180D01*
X-12684500Y-5200177D01*
X-12693232Y-5156282D01*
X-12693233Y-5156281D01*
X-12693233Y-5156278D01*
X-12726496Y-5106496D01*
X-12754837Y-5087559D01*
X-12776276Y-5073234D01*
X-12776283Y-5073231D01*
X-12820178Y-5064500D01*
X-12820180Y-5064500D01*
X-13579877Y-5064500D01*
X-13646916Y-5044815D01*
X-13667558Y-5028181D01*
X-14175580Y-4520159D01*
X-14209065Y-4458836D01*
X-14211899Y-4432478D01*
X-14211899Y-3881477D01*
X-14192214Y-3814438D01*
X-14139410Y-3768683D01*
X-14070252Y-3758739D01*
X-14006696Y-3787764D01*
X-13980514Y-3819474D01*
X-13934880Y-3898515D01*
X-13860313Y-3973082D01*
X-13768987Y-4025809D01*
X-13667127Y-4053102D01*
X-13667125Y-4053102D01*
X-13561675Y-4053102D01*
X-13561673Y-4053102D01*
X-13459813Y-4025809D01*
X-13368487Y-3973082D01*
X-13293920Y-3898515D01*
X-13241193Y-3807189D01*
X-13213900Y-3705329D01*
X-13213900Y-3599875D01*
X-11678100Y-3599875D01*
X-11678100Y-3705329D01*
X-11650807Y-3807189D01*
X-11598080Y-3898515D01*
X-11523513Y-3973082D01*
X-11432187Y-4025809D01*
X-11330327Y-4053102D01*
X-11330325Y-4053102D01*
X-11224875Y-4053102D01*
X-11224873Y-4053102D01*
X-11123013Y-4025809D01*
X-11031687Y-3973082D01*
X-10957120Y-3898515D01*
X-10904393Y-3807189D01*
X-10877100Y-3705329D01*
X-10877100Y-3599875D01*
X-10904393Y-3498015D01*
X-10957120Y-3406689D01*
X-11031687Y-3332122D01*
X-11123013Y-3279395D01*
X-11224873Y-3252102D01*
X-11330327Y-3252102D01*
X-11432187Y-3279395D01*
X-11432190Y-3279396D01*
X-11523515Y-3332123D01*
X-11598079Y-3406687D01*
X-11650806Y-3498012D01*
X-11650807Y-3498015D01*
X-11678100Y-3599875D01*
X-13213900Y-3599875D01*
X-13241193Y-3498015D01*
X-13293920Y-3406689D01*
X-13368487Y-3332122D01*
X-13459813Y-3279395D01*
X-13561673Y-3252102D01*
X-13667127Y-3252102D01*
X-13768987Y-3279395D01*
X-13768990Y-3279396D01*
X-13860315Y-3332123D01*
X-13934878Y-3406686D01*
X-13934880Y-3406688D01*
X-13934880Y-3406689D01*
X-13980514Y-3485728D01*
X-14031079Y-3533942D01*
X-14099687Y-3547164D01*
X-14164551Y-3521196D01*
X-14205079Y-3464282D01*
X-14211899Y-3423726D01*
X-14211899Y-1522073D01*
X-13100500Y-1522073D01*
X-13100500Y-1627527D01*
X-13073207Y-1729387D01*
X-13020480Y-1820713D01*
X-12945913Y-1895280D01*
X-12854587Y-1948007D01*
X-12759673Y-1973438D01*
X-12700015Y-2009801D01*
X-12669485Y-2072648D01*
X-12677779Y-2142023D01*
X-12704086Y-2180893D01*
X-12766480Y-2243287D01*
X-12819206Y-2334610D01*
X-12819207Y-2334613D01*
X-12846500Y-2436473D01*
X-12846500Y-2541927D01*
X-12819207Y-2643787D01*
X-12766480Y-2735113D01*
X-12691913Y-2809680D01*
X-12600587Y-2862407D01*
X-12498727Y-2889700D01*
X-12498725Y-2889700D01*
X-12393275Y-2889700D01*
X-12393273Y-2889700D01*
X-12291413Y-2862407D01*
X-12200087Y-2809680D01*
X-12125520Y-2735113D01*
X-12072793Y-2643787D01*
X-12045500Y-2541927D01*
X-12045500Y-2436473D01*
X-12072793Y-2334613D01*
X-12125520Y-2243287D01*
X-12200087Y-2168720D01*
X-12282275Y-2121269D01*
X-12291411Y-2115994D01*
X-12291412Y-2115993D01*
X-12291413Y-2115993D01*
X-12386328Y-2090560D01*
X-12445987Y-2054197D01*
X-12476516Y-1991351D01*
X-12468222Y-1921975D01*
X-12441919Y-1883111D01*
X-12379520Y-1820713D01*
X-12326793Y-1729387D01*
X-12299500Y-1627527D01*
X-12299500Y-1522073D01*
X-12326793Y-1420213D01*
X-12379520Y-1328887D01*
X-12454087Y-1254320D01*
X-12528013Y-1211639D01*
X-12545411Y-1201594D01*
X-12545412Y-1201593D01*
X-12545413Y-1201593D01*
X-12647273Y-1174300D01*
X-12752727Y-1174300D01*
X-12854587Y-1201593D01*
X-12854590Y-1201594D01*
X-12945915Y-1254321D01*
X-13020479Y-1328885D01*
X-13073206Y-1420210D01*
X-13073207Y-1420213D01*
X-13100500Y-1522073D01*
X-14211899Y-1522073D01*
X-14211899Y505746D01*
X-14192214Y572785D01*
X-14175580Y593427D01*
X-14168827Y600180D01*
X-14141919Y627088D01*
X-14089192Y718414D01*
X-14061899Y820274D01*
X-14061899Y925728D01*
X-14089192Y1027588D01*
X-14141919Y1118914D01*
X-14216486Y1193481D01*
X-14307812Y1246208D01*
X-14409672Y1273501D01*
X-14515126Y1273501D01*
X-14616986Y1246208D01*
X-14616989Y1246207D01*
X-14708314Y1193480D01*
X-14782878Y1118916D01*
X-14835605Y1027591D01*
X-14835606Y1027588D01*
X-14862899Y925728D01*
X-14862899Y820274D01*
X-14835606Y718414D01*
X-14793748Y645913D01*
X-14782878Y627087D01*
X-14749218Y593427D01*
X-14715733Y532104D01*
X-14712899Y505746D01*
X-14712899Y-968912D01*
X-14732584Y-1035951D01*
X-14785388Y-1081706D01*
X-14854546Y-1091650D01*
X-14918102Y-1062625D01*
X-14944284Y-1030915D01*
X-14968318Y-989287D01*
X-15042885Y-914720D01*
X-15134211Y-861993D01*
X-15236071Y-834700D01*
X-15341525Y-834700D01*
X-15443385Y-861993D01*
X-15443388Y-861994D01*
X-15534713Y-914721D01*
X-15609277Y-989285D01*
X-15662004Y-1080610D01*
X-15662005Y-1080613D01*
X-15689298Y-1182473D01*
X-17834150Y-1182473D01*
X-17869599Y-415718D01*
X-17869731Y-409991D01*
X-17869731Y409992D01*
X-17869599Y415719D01*
X-17867286Y465751D01*
X-17831728Y1234861D01*
X-17831331Y1240570D01*
X-17830809Y1246207D01*
X-17755671Y2057078D01*
X-17755013Y2062748D01*
X-17735077Y2205664D01*
X-14876159Y2205664D01*
X-14876159Y2100210D01*
X-14850817Y2005634D01*
X-14848866Y1998351D01*
X-14848865Y1998348D01*
X-14844152Y1990185D01*
X-14796139Y1907024D01*
X-14721572Y1832457D01*
X-14630246Y1779730D01*
X-14528386Y1752437D01*
X-14528384Y1752437D01*
X-14422934Y1752437D01*
X-14422932Y1752437D01*
X-14321072Y1779730D01*
X-14229746Y1832457D01*
X-14155179Y1907024D01*
X-14102452Y1998350D01*
X-14075159Y2100210D01*
X-14075159Y2205664D01*
X-14102452Y2307524D01*
X-14155179Y2398850D01*
X-14188840Y2432511D01*
X-14222325Y2493834D01*
X-14225159Y2520192D01*
X-14225159Y2660178D01*
X-13350501Y2660178D01*
X-13341769Y2616283D01*
X-13341766Y2616276D01*
X-13308505Y2566497D01*
X-13308504Y2566496D01*
X-13258722Y2533233D01*
X-13258719Y2533233D01*
X-13258718Y2533232D01*
X-13214823Y2524500D01*
X-13214820Y2524500D01*
X-12185178Y2524500D01*
X-12141283Y2533232D01*
X-12141283Y2533233D01*
X-12141278Y2533233D01*
X-12091496Y2566496D01*
X-12058233Y2616278D01*
X-12055720Y2628912D01*
X-12049500Y2660178D01*
X-12049500Y2800500D01*
X-12029815Y2867539D01*
X-11977011Y2913294D01*
X-11925500Y2924500D01*
X-8509974Y2924500D01*
X-8509972Y2924500D01*
X-8417903Y2962636D01*
X-8058159Y3322382D01*
X-7996836Y3355866D01*
X-7970478Y3358700D01*
X-7922875Y3358700D01*
X-7922873Y3358700D01*
X-7821013Y3385993D01*
X-7729687Y3438720D01*
X-7655120Y3513287D01*
X-7602393Y3604613D01*
X-7575100Y3706473D01*
X-7575100Y3811927D01*
X-7602393Y3913787D01*
X-7655120Y4005113D01*
X-7729687Y4079680D01*
X-7821013Y4132407D01*
X-7823408Y4133399D01*
X-7825118Y4134777D01*
X-7828052Y4136471D01*
X-7827788Y4136929D01*
X-7877810Y4177242D01*
X-7899873Y4243536D01*
X-7882592Y4311235D01*
X-7863637Y4335636D01*
X-7162434Y5036839D01*
X-7101113Y5070322D01*
X-7031421Y5065338D01*
X-6975488Y5023466D01*
X-6954980Y4981250D01*
X-6926407Y4874612D01*
X-6926406Y4874611D01*
X-6873680Y4783287D01*
X-6799113Y4708720D01*
X-6707787Y4655993D01*
X-6605927Y4628700D01*
X-6558323Y4628700D01*
X-6491284Y4609015D01*
X-6470642Y4592381D01*
X-6245532Y4367271D01*
X-6212047Y4305948D01*
X-6217031Y4236256D01*
X-6258903Y4180323D01*
X-6324367Y4155906D01*
X-6365306Y4159815D01*
X-6412274Y4172400D01*
X-6517728Y4172400D01*
X-6619588Y4145107D01*
X-6619591Y4145106D01*
X-6710916Y4092379D01*
X-6785480Y4017815D01*
X-6838207Y3926490D01*
X-6838208Y3926487D01*
X-6865501Y3824627D01*
X-6865501Y3719173D01*
X-6839056Y3620480D01*
X-6838208Y3617314D01*
X-6838207Y3617311D01*
X-6834294Y3610533D01*
X-6785481Y3525987D01*
X-6710914Y3451420D01*
X-6619588Y3398693D01*
X-6517728Y3371400D01*
X-6517726Y3371400D01*
X-6412276Y3371400D01*
X-6412274Y3371400D01*
X-6310414Y3398693D01*
X-6219088Y3451420D01*
X-6144521Y3525987D01*
X-6091794Y3617313D01*
X-6064501Y3719173D01*
X-6064501Y3824627D01*
X-6077087Y3871599D01*
X-6075424Y3941445D01*
X-6036262Y3999307D01*
X-5972034Y4026812D01*
X-5903131Y4015226D01*
X-5869631Y3991370D01*
X-5193775Y3315514D01*
X-4677241Y2798981D01*
X-4643756Y2737658D01*
X-4648740Y2667966D01*
X-4690612Y2612033D01*
X-4756076Y2587616D01*
X-4764922Y2587300D01*
X-9353630Y2587300D01*
X-9445698Y2549164D01*
X-9445699Y2549163D01*
X-9516165Y2478696D01*
X-9516167Y2478694D01*
X-9537104Y2457758D01*
X-9571145Y2435012D01*
X-9570948Y2434671D01*
X-9576149Y2431669D01*
X-9577324Y2430883D01*
X-9577979Y2430612D01*
X-9669316Y2377878D01*
X-9743879Y2303315D01*
X-9796606Y2211990D01*
X-9796607Y2211987D01*
X-9823900Y2110127D01*
X-9823900Y2004673D01*
X-9806165Y1938487D01*
X-9796607Y1902814D01*
X-9796606Y1902811D01*
X-9788786Y1889266D01*
X-9743880Y1811487D01*
X-9669313Y1736920D01*
X-9577987Y1684193D01*
X-9476127Y1656900D01*
X-9476125Y1656900D01*
X-9370675Y1656900D01*
X-9370673Y1656900D01*
X-9268813Y1684193D01*
X-9177487Y1736920D01*
X-9102920Y1811487D01*
X-9050193Y1902813D01*
X-9025655Y1994395D01*
X-8989290Y2054054D01*
X-8926443Y2084583D01*
X-8905880Y2086300D01*
X-7685070Y2086300D01*
X-7618031Y2066615D01*
X-7572276Y2013811D01*
X-7562332Y1944653D01*
X-7587627Y1889266D01*
X-7586719Y1888659D01*
X-7590462Y1883059D01*
X-7591357Y1881097D01*
X-7592826Y1879520D01*
X-7626766Y1828725D01*
X-7626769Y1828718D01*
X-7635500Y1784823D01*
X-7635500Y1644500D01*
X-7655185Y1577461D01*
X-7707989Y1531706D01*
X-7759500Y1520500D01*
X-8025430Y1520500D01*
X-8089939Y1493779D01*
X-8117497Y1482364D01*
X-8247608Y1352255D01*
X-8308929Y1318771D01*
X-8378621Y1323755D01*
X-8434554Y1365627D01*
X-8442667Y1377925D01*
X-8451320Y1392913D01*
X-8525887Y1467480D01*
X-8617213Y1520207D01*
X-8719073Y1547500D01*
X-8824527Y1547500D01*
X-8926387Y1520207D01*
X-8926390Y1520206D01*
X-9017715Y1467479D01*
X-9092278Y1392916D01*
X-9145008Y1301587D01*
X-9145008Y1301586D01*
X-9147072Y1293882D01*
X-9179165Y1238297D01*
X-9397730Y1019734D01*
X-9397739Y1019722D01*
X-9450764Y966697D01*
X-9488900Y874630D01*
X-9488900Y-1053244D01*
X-9508585Y-1120283D01*
X-9513008Y-1126712D01*
X-9518578Y-1134284D01*
X-9568480Y-1184187D01*
X-9616679Y-1267669D01*
X-9620749Y-1273204D01*
X-9643305Y-1290388D01*
X-9663823Y-1309952D01*
X-9670730Y-1311282D01*
X-9676326Y-1315547D01*
X-9704594Y-1317809D01*
X-9732430Y-1323174D01*
X-9738960Y-1320559D01*
X-9745973Y-1321121D01*
X-9770976Y-1307741D01*
X-9797294Y-1297205D01*
X-9807357Y-1288274D01*
X-9807577Y-1288156D01*
X-9807663Y-1288002D01*
X-9808322Y-1287417D01*
X-11726413Y630674D01*
X-11759898Y691997D01*
X-11762732Y718355D01*
X-11762732Y954662D01*
X-11762733Y954665D01*
X-11800868Y1046732D01*
X-11871335Y1117199D01*
X-12034581Y1280445D01*
X-12068066Y1341768D01*
X-12070900Y1368126D01*
X-12070900Y1415728D01*
X-12070900Y1415730D01*
X-12098193Y1517590D01*
X-12150920Y1608916D01*
X-12225487Y1683483D01*
X-12307098Y1730601D01*
X-12316811Y1736209D01*
X-12316812Y1736210D01*
X-12316813Y1736210D01*
X-12418673Y1763503D01*
X-12524127Y1763503D01*
X-12625987Y1736210D01*
X-12625990Y1736209D01*
X-12717315Y1683482D01*
X-12791879Y1608918D01*
X-12844606Y1517593D01*
X-12844607Y1517590D01*
X-12871900Y1415730D01*
X-12871900Y1310276D01*
X-12844607Y1208416D01*
X-12791880Y1117090D01*
X-12717313Y1042523D01*
X-12625987Y989796D01*
X-12524127Y962503D01*
X-12476523Y962503D01*
X-12447083Y953859D01*
X-12417096Y947335D01*
X-12412081Y943581D01*
X-12409484Y942818D01*
X-12388842Y926184D01*
X-12300051Y837393D01*
X-12266566Y776070D01*
X-12263732Y749712D01*
X-12263732Y513406D01*
X-12263731Y513401D01*
X-12234515Y442865D01*
X-12227046Y373395D01*
X-12258322Y310916D01*
X-12318411Y275265D01*
X-12381167Y275638D01*
X-12410505Y283499D01*
X-12515959Y283499D01*
X-12617819Y256206D01*
X-12617822Y256205D01*
X-12709147Y203478D01*
X-12783711Y128914D01*
X-12836438Y37589D01*
X-12836439Y37586D01*
X-12863732Y-64274D01*
X-12863732Y-169728D01*
X-12836439Y-271588D01*
X-12783712Y-362914D01*
X-12709145Y-437481D01*
X-12617819Y-490208D01*
X-12515959Y-517501D01*
X-12515957Y-517501D01*
X-12410507Y-517501D01*
X-12410505Y-517501D01*
X-12308645Y-490208D01*
X-12217319Y-437481D01*
X-12183658Y-403820D01*
X-12156731Y-389116D01*
X-12130912Y-372524D01*
X-12124712Y-371632D01*
X-12122335Y-370335D01*
X-12095977Y-367501D01*
X-12038122Y-367501D01*
X-11971083Y-387186D01*
X-11950441Y-403820D01*
X-9681319Y-2672942D01*
X-9647834Y-2734265D01*
X-9645000Y-2760623D01*
X-9645000Y-4204495D01*
X-9664685Y-4271534D01*
X-9717489Y-4317289D01*
X-9786647Y-4327233D01*
X-9801091Y-4324270D01*
X-9802470Y-4323900D01*
X-9802473Y-4323900D01*
X-9907927Y-4323900D01*
X-10009787Y-4351193D01*
X-10009790Y-4351194D01*
X-10101115Y-4403921D01*
X-10175679Y-4478485D01*
X-10228406Y-4569810D01*
X-10228407Y-4569813D01*
X-10255700Y-4671673D01*
X-10255700Y-4777127D01*
X-10228407Y-4878987D01*
X-10175680Y-4970313D01*
X-10101113Y-5044880D01*
X-10049066Y-5074929D01*
X-10000852Y-5125495D01*
X-9987628Y-5194102D01*
X-10013596Y-5258967D01*
X-10070510Y-5299495D01*
X-10078973Y-5302090D01*
X-10187589Y-5331193D01*
X-10187590Y-5331194D01*
X-10278915Y-5383921D01*
X-10353479Y-5458485D01*
X-10406206Y-5549810D01*
X-10406207Y-5549813D01*
X-10433500Y-5651673D01*
X-10433500Y-5757126D01*
X-10406207Y-5858986D01*
X-10406206Y-5858989D01*
X-10353479Y-5950314D01*
X-10319819Y-5983974D01*
X-10286334Y-6045297D01*
X-10283500Y-6071655D01*
X-10283500Y-6579105D01*
X-10268675Y-6614896D01*
X-10245364Y-6671173D01*
X-8993924Y-7922613D01*
X-7752757Y-9163779D01*
X-7719272Y-9225102D01*
X-7716438Y-9251460D01*
X-7716438Y-9299065D01*
X-7701373Y-9355287D01*
X-7689145Y-9400924D01*
X-7689144Y-9400927D01*
X-7677279Y-9421478D01*
X-7636418Y-9492251D01*
X-7561851Y-9566818D01*
X-7470525Y-9619545D01*
X-7368665Y-9646838D01*
X-7368663Y-9646838D01*
X-7263215Y-9646838D01*
X-7263211Y-9646838D01*
X-7262212Y-9646570D01*
X-7261337Y-9646590D01*
X-7255155Y-9645777D01*
X-7255029Y-9646740D01*
X-7192365Y-9648229D01*
X-7134500Y-9687388D01*
X-7110340Y-9734247D01*
X-7105212Y-9753384D01*
X-7105210Y-9753389D01*
X-7103824Y-9755789D01*
X-7052484Y-9844713D01*
X-6977917Y-9919280D01*
X-6886591Y-9972007D01*
X-6784731Y-9999300D01*
X-6784729Y-9999300D01*
X-6679279Y-9999300D01*
X-6679277Y-9999300D01*
X-6577417Y-9972007D01*
X-6486091Y-9919280D01*
X-6411524Y-9844713D01*
X-6358797Y-9753387D01*
X-6347876Y-9712627D01*
X-6311514Y-9652969D01*
X-6248667Y-9622438D01*
X-6179292Y-9630732D01*
X-6140421Y-9657040D01*
X-1556819Y-14240642D01*
X-1523334Y-14301965D01*
X-1520500Y-14328323D01*
X-1520500Y-14872745D01*
X-1540185Y-14939784D01*
X-1556819Y-14960426D01*
X-1590479Y-14994085D01*
X-1643206Y-15085410D01*
X-1643207Y-15085413D01*
X-1670500Y-15187273D01*
X-1670500Y-15292727D01*
X-1643207Y-15394587D01*
X-1590480Y-15485913D01*
X-1515913Y-15560480D01*
X-1424587Y-15613207D01*
X-1322727Y-15640500D01*
X-1322725Y-15640500D01*
X-1217275Y-15640500D01*
X-1217273Y-15640500D01*
X-1115413Y-15613207D01*
X-1024087Y-15560480D01*
X-949520Y-15485913D01*
X-896793Y-15394587D01*
X-869500Y-15292727D01*
X-869500Y-15187273D01*
X-896793Y-15085413D01*
X-949520Y-14994087D01*
X-983181Y-14960426D01*
X-997885Y-14933498D01*
X-1014477Y-14907680D01*
X-1015369Y-14901479D01*
X-1016666Y-14899103D01*
X-1019500Y-14872745D01*
X-1019500Y-14634123D01*
X-999815Y-14567084D01*
X-947011Y-14521329D01*
X-877853Y-14511385D01*
X-814297Y-14540410D01*
X-807819Y-14546442D01*
X27636Y-15381897D01*
X98103Y-15452364D01*
X190172Y-15490500D01*
X394745Y-15490500D01*
X461784Y-15510185D01*
X482426Y-15526819D01*
X516087Y-15560480D01*
X607413Y-15613207D01*
X709273Y-15640500D01*
X709275Y-15640500D01*
X814725Y-15640500D01*
X814727Y-15640500D01*
X916587Y-15613207D01*
X1007913Y-15560480D01*
X1082480Y-15485913D01*
X1135207Y-15394587D01*
X1162500Y-15292727D01*
X1162500Y-15187273D01*
X1135207Y-15085413D01*
X1082480Y-14994087D01*
X1007913Y-14919520D01*
X916587Y-14866793D01*
X814727Y-14839500D01*
X709273Y-14839500D01*
X607413Y-14866793D01*
X607410Y-14866794D01*
X516085Y-14919521D01*
X482615Y-14952992D01*
X421292Y-14986477D01*
X351600Y-14981493D01*
X307253Y-14952992D01*
X-2506466Y-12139273D01*
X-1000500Y-12139273D01*
X-1000500Y-12244727D01*
X-973207Y-12346587D01*
X-920480Y-12437913D01*
X-845913Y-12512480D01*
X-754587Y-12565207D01*
X-652727Y-12592500D01*
X-652725Y-12592500D01*
X-547275Y-12592500D01*
X-547273Y-12592500D01*
X-445413Y-12565207D01*
X-354087Y-12512480D01*
X-279520Y-12437913D01*
X-226793Y-12346587D01*
X-199500Y-12244727D01*
X-199500Y-12139273D01*
X-226793Y-12037413D01*
X-279520Y-11946087D01*
X-354087Y-11871520D01*
X-445413Y-11818793D01*
X-547273Y-11791500D01*
X-652727Y-11791500D01*
X-754587Y-11818793D01*
X-754590Y-11818794D01*
X-845915Y-11871521D01*
X-920479Y-11946085D01*
X-973206Y-12037410D01*
X-973207Y-12037413D01*
X-1000500Y-12139273D01*
X-2506466Y-12139273D01*
X-3776466Y-10869273D01*
X-1000500Y-10869273D01*
X-1000500Y-10974727D01*
X-973207Y-11076587D01*
X-920480Y-11167913D01*
X-845913Y-11242480D01*
X-754587Y-11295207D01*
X-652727Y-11322500D01*
X-652725Y-11322500D01*
X-547275Y-11322500D01*
X-547273Y-11322500D01*
X-445413Y-11295207D01*
X-354087Y-11242480D01*
X-320426Y-11208819D01*
X-293499Y-11194115D01*
X-267680Y-11177523D01*
X-261480Y-11176631D01*
X-259103Y-11175334D01*
X-232745Y-11172500D01*
X-28123Y-11172500D01*
X38916Y-11192185D01*
X59558Y-11208819D01*
X1218181Y-12367441D01*
X1251666Y-12428764D01*
X1254500Y-12455122D01*
X1254500Y-13214820D01*
X1254500Y-13214822D01*
X1254499Y-13214822D01*
X1263231Y-13258717D01*
X1263232Y-13258721D01*
X1263233Y-13258722D01*
X1296496Y-13308504D01*
X1346278Y-13341767D01*
X1346281Y-13341767D01*
X1346282Y-13341768D01*
X1390177Y-13350500D01*
X1390180Y-13350500D01*
X2419822Y-13350500D01*
X2463717Y-13341768D01*
X2463717Y-13341767D01*
X2463722Y-13341767D01*
X2513504Y-13308504D01*
X2546767Y-13258722D01*
X2546768Y-13258717D01*
X2555500Y-13214822D01*
X4429499Y-13214822D01*
X4438231Y-13258717D01*
X4438232Y-13258721D01*
X4438233Y-13258722D01*
X4471496Y-13308504D01*
X4521278Y-13341767D01*
X4521281Y-13341767D01*
X4521282Y-13341768D01*
X4565177Y-13350500D01*
X4565180Y-13350500D01*
X5594822Y-13350500D01*
X5638717Y-13341768D01*
X5638717Y-13341767D01*
X5638722Y-13341767D01*
X5688504Y-13308504D01*
X5721767Y-13258722D01*
X5730379Y-13215426D01*
X5762763Y-13153518D01*
X5823478Y-13118943D01*
X5893248Y-13122682D01*
X5939677Y-13151938D01*
X6167181Y-13379441D01*
X6200666Y-13440764D01*
X6203500Y-13467122D01*
X6203500Y-13514727D01*
X6230793Y-13616587D01*
X6283520Y-13707913D01*
X6358087Y-13782480D01*
X6449413Y-13835207D01*
X6551273Y-13862500D01*
X6551275Y-13862500D01*
X6656725Y-13862500D01*
X6656727Y-13862500D01*
X6758587Y-13835207D01*
X6849913Y-13782480D01*
X6924480Y-13707913D01*
X6977207Y-13616587D01*
X7004500Y-13514727D01*
X7004500Y-13409273D01*
X7002102Y-13400323D01*
X8308842Y-13400323D01*
X8308842Y-13551854D01*
X8348061Y-13698225D01*
X8385944Y-13763839D01*
X8423827Y-13829454D01*
X8530977Y-13936604D01*
X8662207Y-14012370D01*
X8808576Y-14051589D01*
X8808578Y-14051589D01*
X8960106Y-14051589D01*
X8960108Y-14051589D01*
X9106477Y-14012370D01*
X9237707Y-13936604D01*
X9344857Y-13829454D01*
X9420623Y-13698224D01*
X9459842Y-13551855D01*
X9459842Y-13400323D01*
X9420623Y-13253954D01*
X9344857Y-13122724D01*
X9237707Y-13015574D01*
X9172092Y-12977691D01*
X9106478Y-12939808D01*
X9033292Y-12920198D01*
X8960108Y-12900589D01*
X8808576Y-12900589D01*
X8662205Y-12939808D01*
X8530977Y-13015574D01*
X8530974Y-13015576D01*
X8423829Y-13122721D01*
X8423827Y-13122724D01*
X8348061Y-13253952D01*
X8308842Y-13400323D01*
X7002102Y-13400323D01*
X6977207Y-13307413D01*
X6924480Y-13216087D01*
X6849913Y-13141520D01*
X6758587Y-13088793D01*
X6656727Y-13061500D01*
X6656726Y-13061500D01*
X6609122Y-13061500D01*
X6542083Y-13041815D01*
X6521441Y-13025181D01*
X6396849Y-12900589D01*
X5983897Y-12487636D01*
X5891829Y-12449500D01*
X5891828Y-12449500D01*
X5854500Y-12449500D01*
X5787461Y-12429815D01*
X5741706Y-12377011D01*
X5730500Y-12325500D01*
X5730500Y-12185177D01*
X5721768Y-12141282D01*
X5721767Y-12141281D01*
X5721767Y-12141278D01*
X5720427Y-12139273D01*
X6203500Y-12139273D01*
X6203500Y-12244727D01*
X6230793Y-12346587D01*
X6283520Y-12437913D01*
X6358087Y-12512480D01*
X6449413Y-12565207D01*
X6551273Y-12592500D01*
X6551275Y-12592500D01*
X6656725Y-12592500D01*
X6656727Y-12592500D01*
X6758587Y-12565207D01*
X6849913Y-12512480D01*
X6924480Y-12437913D01*
X6977207Y-12346587D01*
X7004500Y-12244727D01*
X7004500Y-12139273D01*
X6995772Y-12106699D01*
X6997435Y-12036853D01*
X7036597Y-11978991D01*
X7053548Y-11967222D01*
X7056184Y-11965699D01*
X7056187Y-11965699D01*
X7147513Y-11912972D01*
X7222080Y-11838405D01*
X7274807Y-11747079D01*
X7302100Y-11645219D01*
X7302100Y-11539765D01*
X7274807Y-11437905D01*
X7226646Y-11354488D01*
X7210174Y-11286590D01*
X7226645Y-11230494D01*
X7274807Y-11147076D01*
X7302100Y-11045216D01*
X7302100Y-10939762D01*
X7274807Y-10837902D01*
X7222080Y-10746576D01*
X7147513Y-10672009D01*
X7056187Y-10619282D01*
X7037015Y-10614145D01*
X11518158Y-10614145D01*
X11518158Y-10765677D01*
X11527489Y-10800500D01*
X11557377Y-10912047D01*
X11573379Y-10939762D01*
X11633143Y-11043276D01*
X11740293Y-11150426D01*
X11871523Y-11226192D01*
X12017892Y-11265411D01*
X12017894Y-11265411D01*
X12169422Y-11265411D01*
X12169424Y-11265411D01*
X12315793Y-11226192D01*
X12447023Y-11150426D01*
X12554173Y-11043276D01*
X12629939Y-10912046D01*
X12669158Y-10765677D01*
X12669158Y-10614145D01*
X12629939Y-10467776D01*
X12554173Y-10336546D01*
X12447023Y-10229396D01*
X12375197Y-10187927D01*
X12315794Y-10153630D01*
X12235359Y-10132078D01*
X12169424Y-10114411D01*
X12017892Y-10114411D01*
X11871521Y-10153630D01*
X11740293Y-10229396D01*
X11740290Y-10229398D01*
X11633145Y-10336543D01*
X11633143Y-10336546D01*
X11557377Y-10467774D01*
X11531765Y-10563361D01*
X11518158Y-10614145D01*
X7037015Y-10614145D01*
X6954327Y-10591989D01*
X6848873Y-10591989D01*
X6747013Y-10619282D01*
X6747010Y-10619283D01*
X6655685Y-10672010D01*
X6581121Y-10746574D01*
X6528394Y-10837899D01*
X6528393Y-10837902D01*
X6501100Y-10939762D01*
X6501100Y-11045216D01*
X6509507Y-11076589D01*
X6528393Y-11147075D01*
X6528394Y-11147078D01*
X6530327Y-11150426D01*
X6576552Y-11230490D01*
X6593025Y-11298389D01*
X6576553Y-11354488D01*
X6528393Y-11437904D01*
X6528393Y-11437905D01*
X6501100Y-11539765D01*
X6501100Y-11645220D01*
X6509827Y-11677790D01*
X6508164Y-11747640D01*
X6469000Y-11805502D01*
X6452053Y-11817269D01*
X6449413Y-11818792D01*
X6449413Y-11818793D01*
X6415443Y-11838406D01*
X6358084Y-11871522D01*
X6283521Y-11946085D01*
X6230794Y-12037410D01*
X6230793Y-12037413D01*
X6203500Y-12139273D01*
X5720427Y-12139273D01*
X5688504Y-12091496D01*
X5688503Y-12091495D01*
X5638724Y-12058234D01*
X5638717Y-12058231D01*
X5594822Y-12049500D01*
X5594820Y-12049500D01*
X4565180Y-12049500D01*
X4565178Y-12049500D01*
X4521282Y-12058231D01*
X4521275Y-12058234D01*
X4471496Y-12091495D01*
X4471495Y-12091496D01*
X4438234Y-12141275D01*
X4438231Y-12141282D01*
X4429500Y-12185177D01*
X4429500Y-12185180D01*
X4429500Y-13214820D01*
X4429500Y-13214822D01*
X4429499Y-13214822D01*
X2555500Y-13214822D01*
X2555500Y-12185177D01*
X2546768Y-12141282D01*
X2546767Y-12141281D01*
X2546767Y-12141278D01*
X2513504Y-12091496D01*
X2513503Y-12091495D01*
X2463724Y-12058234D01*
X2463717Y-12058231D01*
X2419822Y-12049500D01*
X2419820Y-12049500D01*
X1660122Y-12049500D01*
X1593083Y-12029815D01*
X1572441Y-12013181D01*
X268897Y-10709636D01*
X176829Y-10671500D01*
X176828Y-10671500D01*
X-232745Y-10671500D01*
X-299784Y-10651815D01*
X-320426Y-10635181D01*
X-354086Y-10601521D01*
X-354087Y-10601520D01*
X-445413Y-10548793D01*
X-547273Y-10521500D01*
X-652727Y-10521500D01*
X-754587Y-10548793D01*
X-754590Y-10548794D01*
X-845915Y-10601521D01*
X-920479Y-10676085D01*
X-973206Y-10767410D01*
X-973207Y-10767413D01*
X-1000500Y-10869273D01*
X-3776466Y-10869273D01*
X-4381019Y-10264720D01*
X-3258500Y-10264720D01*
X-3258500Y-10370174D01*
X-3231207Y-10472034D01*
X-3178480Y-10563360D01*
X-3103913Y-10637927D01*
X-3012587Y-10690654D01*
X-2910727Y-10717947D01*
X-2910725Y-10717947D01*
X-2805275Y-10717947D01*
X-2805273Y-10717947D01*
X-2703413Y-10690654D01*
X-2612087Y-10637927D01*
X-2537520Y-10563360D01*
X-2484793Y-10472034D01*
X-2457500Y-10370174D01*
X-2457500Y-10347273D01*
X3499500Y-10347273D01*
X3499500Y-10452727D01*
X3526793Y-10554587D01*
X3579520Y-10645913D01*
X3654087Y-10720480D01*
X3745413Y-10773207D01*
X3847273Y-10800500D01*
X3847275Y-10800500D01*
X3952725Y-10800500D01*
X3952727Y-10800500D01*
X4054587Y-10773207D01*
X4145913Y-10720480D01*
X4220480Y-10645913D01*
X4273207Y-10554587D01*
X4300500Y-10452727D01*
X4300500Y-10347273D01*
X4273207Y-10245413D01*
X4220480Y-10154087D01*
X4145913Y-10079520D01*
X4087701Y-10045911D01*
X4054589Y-10026794D01*
X4054588Y-10026793D01*
X4054587Y-10026793D01*
X3952727Y-9999500D01*
X3847273Y-9999500D01*
X3745413Y-10026793D01*
X3745410Y-10026794D01*
X3654085Y-10079521D01*
X3579521Y-10154085D01*
X3526794Y-10245410D01*
X3526793Y-10245413D01*
X3499500Y-10347273D01*
X-2457500Y-10347273D01*
X-2457500Y-10264720D01*
X-2484793Y-10162860D01*
X-2537520Y-10071534D01*
X-2612087Y-9996967D01*
X-2699230Y-9946655D01*
X-2703411Y-9944241D01*
X-2703412Y-9944240D01*
X-2703413Y-9944240D01*
X-2805273Y-9916947D01*
X-2910727Y-9916947D01*
X-3012587Y-9944240D01*
X-3012589Y-9944241D01*
X-3012590Y-9944241D01*
X-3103915Y-9996968D01*
X-3178479Y-10071532D01*
X-3231206Y-10162857D01*
X-3231207Y-10162860D01*
X-3258500Y-10264720D01*
X-4381019Y-10264720D01*
X-6120466Y-8525273D01*
X-4108900Y-8525273D01*
X-4108900Y-8630727D01*
X-4081607Y-8732585D01*
X-4081607Y-8732586D01*
X-4081606Y-8732589D01*
X-4072320Y-8748673D01*
X-4028880Y-8823913D01*
X-3954313Y-8898480D01*
X-3862987Y-8951207D01*
X-3761127Y-8978500D01*
X-3761125Y-8978500D01*
X-3655676Y-8978500D01*
X-3655673Y-8978500D01*
X-3555911Y-8951769D01*
X-3486065Y-8953432D01*
X-3428202Y-8992594D01*
X-3400698Y-9056823D01*
X-3412284Y-9125725D01*
X-3416431Y-9133538D01*
X-3421204Y-9141804D01*
X-3421207Y-9141813D01*
X-3448500Y-9243673D01*
X-3448500Y-9349127D01*
X-3421207Y-9450987D01*
X-3368480Y-9542313D01*
X-3293913Y-9616880D01*
X-3202587Y-9669607D01*
X-3100727Y-9696900D01*
X-3100725Y-9696900D01*
X-3042344Y-9696900D01*
X-2995273Y-9696900D01*
X-2893413Y-9669607D01*
X-2802087Y-9616880D01*
X-2733680Y-9548473D01*
X-806900Y-9548473D01*
X-806900Y-9653927D01*
X-780228Y-9753467D01*
X-779607Y-9755786D01*
X-779606Y-9755789D01*
X-777825Y-9758873D01*
X-726880Y-9847113D01*
X-652313Y-9921680D01*
X-560987Y-9974407D01*
X-459127Y-10001700D01*
X-459125Y-10001700D01*
X-353675Y-10001700D01*
X-353673Y-10001700D01*
X-251813Y-9974407D01*
X-160487Y-9921680D01*
X-85920Y-9847113D01*
X-33193Y-9755787D01*
X-5900Y-9653927D01*
X-5900Y-9548473D01*
X-33193Y-9446613D01*
X-85920Y-9355287D01*
X-160487Y-9280720D01*
X-251813Y-9227993D01*
X-353673Y-9200700D01*
X-459127Y-9200700D01*
X-560987Y-9227993D01*
X-560990Y-9227994D01*
X-652315Y-9280721D01*
X-726879Y-9355285D01*
X-779606Y-9446610D01*
X-779607Y-9446613D01*
X-806900Y-9548473D01*
X-2733680Y-9548473D01*
X-2727520Y-9542313D01*
X-2674793Y-9450987D01*
X-2647500Y-9349127D01*
X-2647500Y-9243673D01*
X-2674793Y-9141813D01*
X-2727520Y-9050487D01*
X-2782461Y-8995546D01*
X899267Y-8995546D01*
X899267Y-9101000D01*
X926560Y-9202860D01*
X979287Y-9294186D01*
X1053854Y-9368753D01*
X1145180Y-9421480D01*
X1247040Y-9448773D01*
X1247042Y-9448773D01*
X1352492Y-9448773D01*
X1352494Y-9448773D01*
X1374110Y-9442981D01*
X1443957Y-9444642D01*
X1501820Y-9483804D01*
X1529142Y-9546568D01*
X1529900Y-9552326D01*
X1529900Y-9552327D01*
X1557124Y-9653927D01*
X1557193Y-9654186D01*
X1557194Y-9654189D01*
X1558840Y-9657040D01*
X1609920Y-9745513D01*
X1684487Y-9820080D01*
X1775813Y-9872807D01*
X1877673Y-9900100D01*
X1877675Y-9900100D01*
X1983125Y-9900100D01*
X1983127Y-9900100D01*
X2084987Y-9872807D01*
X2176313Y-9820080D01*
X2250880Y-9745513D01*
X2263714Y-9723282D01*
X2314279Y-9675069D01*
X2382886Y-9661845D01*
X2447751Y-9687813D01*
X2488280Y-9744727D01*
X2495100Y-9785284D01*
X2495100Y-9864327D01*
X2517160Y-9946655D01*
X2522393Y-9966186D01*
X2522394Y-9966189D01*
X2525753Y-9972007D01*
X2575120Y-10057513D01*
X2649687Y-10132080D01*
X2741013Y-10184807D01*
X2842873Y-10212100D01*
X2842875Y-10212100D01*
X2948325Y-10212100D01*
X2948327Y-10212100D01*
X3050187Y-10184807D01*
X3141513Y-10132080D01*
X3216080Y-10057513D01*
X3268807Y-9966187D01*
X3274041Y-9946653D01*
X8280486Y-9946653D01*
X8280486Y-10052107D01*
X8307779Y-10153967D01*
X8360506Y-10245293D01*
X8435073Y-10319860D01*
X8526399Y-10372587D01*
X8628259Y-10399880D01*
X8628261Y-10399880D01*
X8733711Y-10399880D01*
X8733713Y-10399880D01*
X8835573Y-10372587D01*
X8926899Y-10319860D01*
X9001466Y-10245293D01*
X9054193Y-10153967D01*
X9081486Y-10052107D01*
X9081486Y-9946653D01*
X9054193Y-9844793D01*
X9001466Y-9753467D01*
X8926899Y-9678900D01*
X8852821Y-9636131D01*
X8835575Y-9626174D01*
X8835574Y-9626173D01*
X8835573Y-9626173D01*
X8733713Y-9598880D01*
X8628259Y-9598880D01*
X8526399Y-9626173D01*
X8526396Y-9626174D01*
X8435071Y-9678901D01*
X8360507Y-9753465D01*
X8307780Y-9844790D01*
X8307779Y-9844793D01*
X8280486Y-9946653D01*
X3274041Y-9946653D01*
X3296100Y-9864327D01*
X3296100Y-9758873D01*
X3268807Y-9657013D01*
X3216080Y-9565687D01*
X3141513Y-9491120D01*
X3072004Y-9450989D01*
X3050189Y-9438394D01*
X3050188Y-9438393D01*
X3050187Y-9438393D01*
X2948327Y-9411100D01*
X2842873Y-9411100D01*
X2741013Y-9438393D01*
X2741010Y-9438394D01*
X2649685Y-9491121D01*
X2575122Y-9565684D01*
X2575120Y-9565686D01*
X2575120Y-9565687D01*
X2562285Y-9587917D01*
X2511719Y-9636131D01*
X2443112Y-9649353D01*
X2378248Y-9623385D01*
X2337720Y-9566471D01*
X2330900Y-9525915D01*
X2330900Y-9446875D01*
X2330900Y-9446873D01*
X2303607Y-9345013D01*
X2250880Y-9253687D01*
X2176313Y-9179120D01*
X2084987Y-9126393D01*
X1983127Y-9099100D01*
X1877673Y-9099100D01*
X1877668Y-9099100D01*
X1856054Y-9104892D01*
X1786204Y-9103228D01*
X1728343Y-9064065D01*
X1701023Y-9001297D01*
X1700267Y-8995557D01*
X1700267Y-8995546D01*
X1672974Y-8893686D01*
X1620247Y-8802360D01*
X1545680Y-8727793D01*
X1478826Y-8689195D01*
X1454356Y-8675067D01*
X1454355Y-8675066D01*
X1454354Y-8675066D01*
X1352494Y-8647773D01*
X1247040Y-8647773D01*
X1145180Y-8675066D01*
X1145177Y-8675067D01*
X1053852Y-8727794D01*
X979288Y-8802358D01*
X926561Y-8893683D01*
X926560Y-8893686D01*
X899267Y-8995546D01*
X-2782461Y-8995546D01*
X-2802087Y-8975920D01*
X-2893413Y-8923193D01*
X-2995273Y-8895900D01*
X-3100727Y-8895900D01*
X-3200487Y-8922630D01*
X-3270337Y-8920967D01*
X-3328200Y-8881804D01*
X-3355703Y-8817575D01*
X-3344116Y-8748673D01*
X-3339980Y-8740877D01*
X-3335193Y-8732587D01*
X-3307900Y-8630727D01*
X-3307900Y-8525273D01*
X-3335193Y-8423413D01*
X-3372043Y-8359586D01*
X8119429Y-8359586D01*
X8119429Y-8465040D01*
X8146722Y-8566900D01*
X8199449Y-8658226D01*
X8274016Y-8732793D01*
X8365342Y-8785520D01*
X8467202Y-8812813D01*
X8467204Y-8812813D01*
X8572654Y-8812813D01*
X8572656Y-8812813D01*
X8674516Y-8785520D01*
X8765842Y-8732793D01*
X8840409Y-8658226D01*
X8893136Y-8566900D01*
X8920429Y-8465040D01*
X8920429Y-8359586D01*
X8893136Y-8257726D01*
X8840409Y-8166400D01*
X8765842Y-8091833D01*
X8674516Y-8039106D01*
X8572656Y-8011813D01*
X8467202Y-8011813D01*
X8365342Y-8039106D01*
X8365339Y-8039107D01*
X8274014Y-8091834D01*
X8199450Y-8166398D01*
X8146723Y-8257723D01*
X8146722Y-8257726D01*
X8119429Y-8359586D01*
X-3372043Y-8359586D01*
X-3387920Y-8332087D01*
X-3462487Y-8257520D01*
X-3553813Y-8204793D01*
X-3655673Y-8177500D01*
X-3761127Y-8177500D01*
X-3862987Y-8204793D01*
X-3862990Y-8204794D01*
X-3954315Y-8257521D01*
X-4028879Y-8332085D01*
X-4081606Y-8423410D01*
X-4081607Y-8423413D01*
X-4108900Y-8525273D01*
X-6120466Y-8525273D01*
X-7281666Y-7364073D01*
X532100Y-7364073D01*
X532100Y-7469527D01*
X559393Y-7571387D01*
X612120Y-7662713D01*
X686687Y-7737280D01*
X778013Y-7790007D01*
X879873Y-7817300D01*
X879875Y-7817300D01*
X985325Y-7817300D01*
X985327Y-7817300D01*
X1087187Y-7790007D01*
X1178513Y-7737280D01*
X1253080Y-7662713D01*
X1305807Y-7571387D01*
X1333100Y-7469527D01*
X1333100Y-7364073D01*
X1305807Y-7262213D01*
X1253080Y-7170887D01*
X1178513Y-7096320D01*
X1087187Y-7043593D01*
X985327Y-7016300D01*
X879873Y-7016300D01*
X778013Y-7043593D01*
X778010Y-7043594D01*
X686685Y-7096321D01*
X612121Y-7170885D01*
X559394Y-7262210D01*
X559393Y-7262213D01*
X532100Y-7364073D01*
X-7281666Y-7364073D01*
X-8297666Y-6348073D01*
X-603700Y-6348073D01*
X-603700Y-6453527D01*
X-576407Y-6555387D01*
X-523680Y-6646713D01*
X-449113Y-6721280D01*
X-357787Y-6774007D01*
X-255927Y-6801300D01*
X-255925Y-6801300D01*
X-150475Y-6801300D01*
X-150473Y-6801300D01*
X-48613Y-6774007D01*
X42713Y-6721280D01*
X117280Y-6646713D01*
X170007Y-6555387D01*
X174700Y-6537874D01*
X1238499Y-6537874D01*
X1238499Y-6643328D01*
X1265792Y-6745188D01*
X1318519Y-6836514D01*
X1393086Y-6911081D01*
X1484412Y-6963808D01*
X1586272Y-6991101D01*
X1586274Y-6991101D01*
X1664661Y-6991101D01*
X1731700Y-7010786D01*
X1777455Y-7063590D01*
X1787399Y-7132748D01*
X1758374Y-7196304D01*
X1752342Y-7202782D01*
X1710437Y-7244686D01*
X1657710Y-7336011D01*
X1657709Y-7336014D01*
X1630416Y-7437874D01*
X1630416Y-7543328D01*
X1657709Y-7645188D01*
X1710436Y-7736514D01*
X1785003Y-7811081D01*
X1876329Y-7863808D01*
X1978189Y-7891101D01*
X1978191Y-7891101D01*
X2083641Y-7891101D01*
X2083643Y-7891101D01*
X2185503Y-7863808D01*
X2276829Y-7811081D01*
X2351396Y-7736514D01*
X2359516Y-7722448D01*
X2410079Y-7674235D01*
X2478685Y-7661010D01*
X2543551Y-7686976D01*
X2574286Y-7722444D01*
X2579393Y-7731289D01*
X2653960Y-7805856D01*
X2745286Y-7858583D01*
X2847146Y-7885876D01*
X2847148Y-7885876D01*
X2952598Y-7885876D01*
X2952600Y-7885876D01*
X3054460Y-7858583D01*
X3145786Y-7805856D01*
X3220353Y-7731289D01*
X3273080Y-7639963D01*
X3300373Y-7538103D01*
X3300373Y-7432649D01*
X3273080Y-7330789D01*
X3220353Y-7239463D01*
X3145786Y-7164896D01*
X3054460Y-7112169D01*
X2952600Y-7084876D01*
X2847146Y-7084876D01*
X2745286Y-7112169D01*
X2745283Y-7112170D01*
X2653958Y-7164897D01*
X2579393Y-7239462D01*
X2571271Y-7253530D01*
X2520703Y-7301744D01*
X2452096Y-7314965D01*
X2387232Y-7288996D01*
X2356500Y-7253529D01*
X2351396Y-7244688D01*
X2276829Y-7170121D01*
X2185503Y-7117394D01*
X2083643Y-7090101D01*
X2005254Y-7090101D01*
X1938215Y-7070416D01*
X1892460Y-7017612D01*
X1882516Y-6948454D01*
X1893954Y-6920273D01*
X4577900Y-6920273D01*
X4577900Y-7025727D01*
X4605193Y-7127587D01*
X4657920Y-7218913D01*
X4732487Y-7293480D01*
X4823813Y-7346207D01*
X4863675Y-7356888D01*
X4923335Y-7393251D01*
X4953865Y-7456098D01*
X4945571Y-7525473D01*
X4919264Y-7564342D01*
X4879521Y-7604085D01*
X4826794Y-7695410D01*
X4826793Y-7695413D01*
X4799500Y-7797273D01*
X4799500Y-7902727D01*
X4826793Y-8004587D01*
X4879520Y-8095913D01*
X4954087Y-8170480D01*
X5045413Y-8223207D01*
X5147273Y-8250500D01*
X5147275Y-8250500D01*
X5252725Y-8250500D01*
X5252727Y-8250500D01*
X5354587Y-8223207D01*
X5445913Y-8170480D01*
X5520480Y-8095913D01*
X5573207Y-8004587D01*
X5600500Y-7902727D01*
X5600500Y-7797273D01*
X5573207Y-7695413D01*
X5520480Y-7604087D01*
X5445913Y-7529520D01*
X5354589Y-7476794D01*
X5354588Y-7476793D01*
X5338770Y-7472554D01*
X5314721Y-7466111D01*
X5255063Y-7429747D01*
X5224534Y-7366900D01*
X5232829Y-7297524D01*
X5259134Y-7258658D01*
X5298880Y-7218913D01*
X5351607Y-7127587D01*
X5378900Y-7025727D01*
X5378900Y-6920273D01*
X5351607Y-6818413D01*
X5298880Y-6727087D01*
X5224313Y-6652520D01*
X5132987Y-6599793D01*
X5031127Y-6572500D01*
X4925673Y-6572500D01*
X4823813Y-6599793D01*
X4823810Y-6599794D01*
X4732485Y-6652521D01*
X4657921Y-6727085D01*
X4605194Y-6818410D01*
X4605193Y-6818413D01*
X4577900Y-6920273D01*
X1893954Y-6920273D01*
X1904937Y-6893214D01*
X1910671Y-6885321D01*
X1959479Y-6836514D01*
X2011117Y-6747073D01*
X2014933Y-6741822D01*
X2037664Y-6724294D01*
X2058430Y-6704494D01*
X2064978Y-6703231D01*
X2070263Y-6699157D01*
X2098858Y-6696701D01*
X2127037Y-6691270D01*
X2138344Y-6693310D01*
X2139877Y-6693179D01*
X2141052Y-6693799D01*
X2147141Y-6694898D01*
X2147272Y-6694915D01*
X2147274Y-6694916D01*
X2147276Y-6694916D01*
X2252726Y-6694916D01*
X2252728Y-6694916D01*
X2354588Y-6667623D01*
X2445914Y-6614896D01*
X2520481Y-6540329D01*
X2573208Y-6449003D01*
X2585767Y-6402133D01*
X3168498Y-6402133D01*
X3168498Y-6507587D01*
X3195791Y-6609447D01*
X3248518Y-6700773D01*
X3323085Y-6775340D01*
X3414411Y-6828067D01*
X3516271Y-6855360D01*
X3516273Y-6855360D01*
X3621723Y-6855360D01*
X3621725Y-6855360D01*
X3723585Y-6828067D01*
X3814911Y-6775340D01*
X3889478Y-6700773D01*
X3942205Y-6609447D01*
X3969498Y-6507587D01*
X3969498Y-6402133D01*
X3942205Y-6300273D01*
X3889478Y-6208947D01*
X3814911Y-6134380D01*
X3723585Y-6081653D01*
X3621725Y-6054360D01*
X3516271Y-6054360D01*
X3414411Y-6081653D01*
X3414408Y-6081654D01*
X3323083Y-6134381D01*
X3248519Y-6208945D01*
X3195792Y-6300270D01*
X3195791Y-6300273D01*
X3168498Y-6402133D01*
X2585767Y-6402133D01*
X2600501Y-6347143D01*
X2600501Y-6241689D01*
X2573208Y-6139829D01*
X2520481Y-6048503D01*
X2445914Y-5973936D01*
X2445913Y-5973935D01*
X2440640Y-5969889D01*
X2399437Y-5913461D01*
X2395283Y-5843715D01*
X2428444Y-5783835D01*
X3096219Y-5116059D01*
X3157542Y-5082575D01*
X3227234Y-5087559D01*
X3283167Y-5129431D01*
X3307584Y-5194895D01*
X3307900Y-5203741D01*
X3307900Y-5285127D01*
X3335124Y-5386727D01*
X3335193Y-5386986D01*
X3335194Y-5386989D01*
X3339221Y-5393964D01*
X3387920Y-5478313D01*
X3462487Y-5552880D01*
X3553813Y-5605607D01*
X3655673Y-5632900D01*
X3655675Y-5632900D01*
X3761125Y-5632900D01*
X3761127Y-5632900D01*
X3862987Y-5605607D01*
X3954313Y-5552880D01*
X4028880Y-5478313D01*
X4081607Y-5386987D01*
X4108900Y-5285127D01*
X4108900Y-5179673D01*
X4081607Y-5077813D01*
X4028880Y-4986487D01*
X3962439Y-4920046D01*
X3928954Y-4858723D01*
X3933938Y-4789031D01*
X3975810Y-4733098D01*
X3988112Y-4724983D01*
X3995913Y-4720480D01*
X4070480Y-4645913D01*
X4123207Y-4554587D01*
X4123208Y-4554580D01*
X4124085Y-4552467D01*
X4125305Y-4550952D01*
X4127271Y-4547548D01*
X4127801Y-4547854D01*
X4167923Y-4498061D01*
X4234216Y-4475993D01*
X4301916Y-4493269D01*
X4346033Y-4537912D01*
X4379520Y-4595913D01*
X4454087Y-4670480D01*
X4545413Y-4723207D01*
X4647273Y-4750500D01*
X4647275Y-4750500D01*
X4752725Y-4750500D01*
X4752727Y-4750500D01*
X4854587Y-4723207D01*
X4945913Y-4670480D01*
X5020480Y-4595913D01*
X5073207Y-4504587D01*
X5100500Y-4402727D01*
X5100500Y-4347273D01*
X5549500Y-4347273D01*
X5549500Y-4452727D01*
X5576793Y-4554587D01*
X5629520Y-4645913D01*
X5704087Y-4720480D01*
X5795413Y-4773207D01*
X5897273Y-4800500D01*
X5897275Y-4800500D01*
X6002725Y-4800500D01*
X6002727Y-4800500D01*
X6104587Y-4773207D01*
X6195913Y-4720480D01*
X6270480Y-4645913D01*
X6323207Y-4554587D01*
X6350500Y-4452727D01*
X6350500Y-4347273D01*
X6649500Y-4347273D01*
X6649500Y-4452727D01*
X6676793Y-4554587D01*
X6729520Y-4645913D01*
X6804087Y-4720480D01*
X6895413Y-4773207D01*
X6997273Y-4800500D01*
X6997275Y-4800500D01*
X7102725Y-4800500D01*
X7102727Y-4800500D01*
X7204587Y-4773207D01*
X7295913Y-4720480D01*
X7370480Y-4645913D01*
X7423207Y-4554587D01*
X7450500Y-4452727D01*
X7450500Y-4347273D01*
X7423207Y-4245413D01*
X7370480Y-4154087D01*
X7295913Y-4079520D01*
X7209312Y-4029521D01*
X7204589Y-4026794D01*
X7204588Y-4026793D01*
X7204587Y-4026793D01*
X7102727Y-3999500D01*
X6997273Y-3999500D01*
X6895413Y-4026793D01*
X6895410Y-4026794D01*
X6804085Y-4079521D01*
X6729521Y-4154085D01*
X6676794Y-4245410D01*
X6676793Y-4245413D01*
X6649500Y-4347273D01*
X6350500Y-4347273D01*
X6323207Y-4245413D01*
X6270480Y-4154087D01*
X6195913Y-4079520D01*
X6109312Y-4029521D01*
X6104589Y-4026794D01*
X6104588Y-4026793D01*
X6104587Y-4026793D01*
X6002727Y-3999500D01*
X5897273Y-3999500D01*
X5795413Y-4026793D01*
X5795410Y-4026794D01*
X5704085Y-4079521D01*
X5629521Y-4154085D01*
X5576794Y-4245410D01*
X5576793Y-4245413D01*
X5549500Y-4347273D01*
X5100500Y-4347273D01*
X5100500Y-4297273D01*
X5073207Y-4195413D01*
X5020480Y-4104087D01*
X4945913Y-4029520D01*
X4854587Y-3976793D01*
X4752727Y-3949500D01*
X4647273Y-3949500D01*
X4545413Y-3976793D01*
X4545410Y-3976794D01*
X4454085Y-4029521D01*
X4379521Y-4104085D01*
X4326789Y-4195418D01*
X4325908Y-4197547D01*
X4324684Y-4199065D01*
X4322729Y-4202452D01*
X4322200Y-4202146D01*
X4282063Y-4251947D01*
X4215767Y-4274006D01*
X4148069Y-4256722D01*
X4103966Y-4212087D01*
X4070480Y-4154087D01*
X3995913Y-4079520D01*
X3909312Y-4029521D01*
X3904589Y-4026794D01*
X3904588Y-4026793D01*
X3904587Y-4026793D01*
X3802727Y-3999500D01*
X3697273Y-3999500D01*
X3595413Y-4026793D01*
X3595410Y-4026794D01*
X3504087Y-4079520D01*
X3447541Y-4136066D01*
X3404815Y-4163948D01*
X3391573Y-4169099D01*
X3388593Y-4169099D01*
X3343842Y-4187636D01*
X3342626Y-4188139D01*
X3342584Y-4188156D01*
X3296525Y-4207233D01*
X3296523Y-4207235D01*
X3226055Y-4277704D01*
X3226039Y-4277720D01*
X3223285Y-4280473D01*
X3161956Y-4313947D01*
X3092265Y-4308950D01*
X3036339Y-4267068D01*
X3027834Y-4252126D01*
X3027271Y-4252452D01*
X3013301Y-4228256D01*
X2970480Y-4154087D01*
X2895913Y-4079520D01*
X2809312Y-4029521D01*
X2804589Y-4026794D01*
X2804588Y-4026793D01*
X2804587Y-4026793D01*
X2702727Y-3999500D01*
X2597273Y-3999500D01*
X2495413Y-4026793D01*
X2495410Y-4026794D01*
X2404085Y-4079521D01*
X2329521Y-4154085D01*
X2276794Y-4245410D01*
X2276793Y-4245413D01*
X2249500Y-4347273D01*
X2249500Y-4452727D01*
X2276793Y-4554587D01*
X2329520Y-4645913D01*
X2404087Y-4720480D01*
X2495410Y-4773205D01*
X2502452Y-4777271D01*
X2501016Y-4779758D01*
X2544616Y-4814876D01*
X2566696Y-4881165D01*
X2549432Y-4948869D01*
X2530457Y-4973301D01*
X1479660Y-6024097D01*
X1479661Y-6024098D01*
X1426635Y-6077124D01*
X1388499Y-6169191D01*
X1388499Y-6223346D01*
X1368814Y-6290385D01*
X1352180Y-6311027D01*
X1318520Y-6344686D01*
X1265793Y-6436011D01*
X1265792Y-6436014D01*
X1238499Y-6537874D01*
X174700Y-6537874D01*
X197300Y-6453527D01*
X197300Y-6348073D01*
X170007Y-6246213D01*
X117280Y-6154887D01*
X42713Y-6080320D01*
X-24141Y-6041722D01*
X-48611Y-6027594D01*
X-48612Y-6027593D01*
X-48613Y-6027593D01*
X-150473Y-6000300D01*
X-255927Y-6000300D01*
X-357787Y-6027593D01*
X-357790Y-6027594D01*
X-449115Y-6080321D01*
X-523679Y-6154885D01*
X-576406Y-6246210D01*
X-576407Y-6246213D01*
X-603700Y-6348073D01*
X-8297666Y-6348073D01*
X-8807681Y-5838058D01*
X-8841166Y-5776735D01*
X-8844000Y-5750377D01*
X-8844000Y-4477319D01*
X-8824315Y-4410280D01*
X-8771511Y-4364525D01*
X-8702353Y-4354581D01*
X-8653687Y-4375081D01*
X-8652951Y-4373807D01*
X-8645915Y-4377869D01*
X-8645913Y-4377871D01*
X-8554587Y-4430598D01*
X-8452727Y-4457891D01*
X-8452725Y-4457891D01*
X-8365205Y-4457891D01*
X-8298166Y-4477576D01*
X-8252411Y-4530380D01*
X-8242467Y-4599538D01*
X-8245430Y-4613985D01*
X-8247206Y-4620609D01*
X-8247207Y-4620613D01*
X-8274500Y-4722473D01*
X-8274500Y-4827927D01*
X-8247207Y-4929787D01*
X-8194480Y-5021113D01*
X-8119913Y-5095680D01*
X-8073152Y-5122677D01*
X-8024938Y-5173242D01*
X-8011714Y-5241849D01*
X-8015377Y-5262153D01*
X-8020500Y-5281273D01*
X-8020500Y-5386727D01*
X-7993207Y-5488587D01*
X-7940480Y-5579913D01*
X-7865913Y-5654480D01*
X-7774587Y-5707207D01*
X-7672727Y-5734500D01*
X-7672725Y-5734500D01*
X-7567275Y-5734500D01*
X-7567273Y-5734500D01*
X-7465413Y-5707207D01*
X-7374087Y-5654480D01*
X-7299520Y-5579913D01*
X-7246793Y-5488587D01*
X-7219500Y-5386727D01*
X-7219500Y-5281273D01*
X-7236702Y-5217073D01*
X-6670300Y-5217073D01*
X-6670300Y-5322527D01*
X-6647591Y-5407277D01*
X-6643007Y-5424386D01*
X-6643006Y-5424389D01*
X-6638554Y-5432100D01*
X-6590280Y-5515713D01*
X-6515713Y-5590280D01*
X-6424387Y-5643007D01*
X-6322527Y-5670300D01*
X-6322525Y-5670300D01*
X-6217076Y-5670300D01*
X-6217073Y-5670300D01*
X-6115213Y-5643007D01*
X-6115209Y-5643004D01*
X-6111729Y-5642072D01*
X-6041879Y-5643735D01*
X-5984016Y-5682897D01*
X-5959861Y-5729752D01*
X-5953208Y-5754582D01*
X-5953205Y-5754589D01*
X-5951868Y-5756904D01*
X-5900479Y-5845913D01*
X-5825912Y-5920480D01*
X-5734586Y-5973207D01*
X-5632726Y-6000500D01*
X-5632724Y-6000500D01*
X-5527274Y-6000500D01*
X-5527272Y-6000500D01*
X-5425412Y-5973207D01*
X-5334086Y-5920480D01*
X-5259519Y-5845913D01*
X-5206792Y-5754587D01*
X-5179499Y-5652727D01*
X-5179499Y-5547273D01*
X-5206792Y-5445413D01*
X-5259519Y-5354087D01*
X-5334086Y-5279520D01*
X-5425412Y-5226793D01*
X-5527272Y-5199500D01*
X-5632726Y-5199500D01*
X-5738072Y-5227727D01*
X-5807922Y-5226064D01*
X-5865784Y-5186901D01*
X-5889940Y-5140044D01*
X-5892784Y-5129431D01*
X-5896593Y-5115213D01*
X-5949320Y-5023887D01*
X-6023887Y-4949320D01*
X-6115213Y-4896593D01*
X-6217073Y-4869300D01*
X-6322527Y-4869300D01*
X-6424387Y-4896593D01*
X-6424390Y-4896594D01*
X-6515715Y-4949321D01*
X-6590279Y-5023885D01*
X-6643006Y-5115210D01*
X-6643007Y-5115213D01*
X-6670300Y-5217073D01*
X-7236702Y-5217073D01*
X-7246793Y-5179413D01*
X-7299520Y-5088087D01*
X-7374087Y-5013520D01*
X-7420849Y-4986522D01*
X-7469064Y-4935956D01*
X-7482572Y-4870874D01*
X-7481764Y-4858767D01*
X-7473500Y-4827927D01*
X-7473500Y-4747273D01*
X474990Y-4747273D01*
X474990Y-4852727D01*
X495639Y-4929789D01*
X502283Y-4954586D01*
X502284Y-4954589D01*
X516412Y-4979059D01*
X555010Y-5045913D01*
X629577Y-5120480D01*
X720903Y-5173207D01*
X822763Y-5200500D01*
X822765Y-5200500D01*
X928215Y-5200500D01*
X928217Y-5200500D01*
X1030077Y-5173207D01*
X1121403Y-5120480D01*
X1195970Y-5045913D01*
X1248697Y-4954587D01*
X1275990Y-4852727D01*
X1275990Y-4747273D01*
X1248697Y-4645413D01*
X1195970Y-4554087D01*
X1121403Y-4479520D01*
X1039924Y-4432478D01*
X1030079Y-4426794D01*
X1030078Y-4426793D01*
X1030077Y-4426793D01*
X928217Y-4399500D01*
X822763Y-4399500D01*
X720903Y-4426793D01*
X720900Y-4426794D01*
X629575Y-4479521D01*
X555011Y-4554085D01*
X502284Y-4645410D01*
X502283Y-4645413D01*
X474990Y-4747273D01*
X-7473500Y-4747273D01*
X-7473500Y-4722473D01*
X-7500793Y-4620613D01*
X-7553520Y-4529287D01*
X-7628087Y-4454720D01*
X-7719413Y-4401993D01*
X-7719414Y-4401992D01*
X-7722671Y-4400112D01*
X-7770887Y-4349545D01*
X-7784109Y-4280938D01*
X-7758141Y-4216073D01*
X-7748358Y-4205049D01*
X-7736850Y-4193542D01*
X-7679254Y-4080504D01*
X-7679254Y-4080502D01*
X-7679253Y-4080501D01*
X-7664401Y-3986724D01*
X-7664400Y-3986719D01*
X-7664401Y-3023682D01*
X-7679254Y-2929896D01*
X-7736850Y-2816858D01*
X-7736854Y-2816854D01*
X-7736855Y-2816852D01*
X-7826553Y-2727154D01*
X-7826556Y-2727152D01*
X-7826558Y-2727150D01*
X-7914818Y-2682179D01*
X-7939599Y-2669552D01*
X-8033376Y-2654700D01*
X-8621420Y-2654700D01*
X-8700605Y-2667241D01*
X-8719145Y-2664844D01*
X-8737647Y-2667505D01*
X-8753078Y-2660458D01*
X-8769898Y-2658284D01*
X-8784198Y-2646246D01*
X-8801203Y-2638480D01*
X-8810374Y-2624210D01*
X-8823349Y-2613287D01*
X-8828871Y-2595428D01*
X-8838977Y-2579702D01*
X-8843537Y-2547993D01*
X-8843987Y-2546535D01*
X-8844000Y-2544767D01*
X-8844000Y-2474866D01*
X-6235300Y-2474866D01*
X-6235300Y-2580320D01*
X-6208007Y-2682180D01*
X-6155280Y-2773506D01*
X-6080713Y-2848073D01*
X-5989387Y-2900800D01*
X-5887527Y-2928093D01*
X-5887525Y-2928093D01*
X-5782075Y-2928093D01*
X-5782073Y-2928093D01*
X-5680213Y-2900800D01*
X-5588887Y-2848073D01*
X-5514320Y-2773506D01*
X-5461593Y-2682180D01*
X-5434300Y-2580320D01*
X-5434300Y-2556273D01*
X-4932000Y-2556273D01*
X-4932000Y-2661727D01*
X-4904707Y-2763587D01*
X-4851980Y-2854913D01*
X-4777413Y-2929480D01*
X-4686087Y-2982207D01*
X-4584227Y-3009500D01*
X-4584225Y-3009500D01*
X-4478775Y-3009500D01*
X-4478773Y-3009500D01*
X-4376913Y-2982207D01*
X-4285587Y-2929480D01*
X-4211020Y-2854913D01*
X-4158293Y-2763587D01*
X-4150861Y-2735847D01*
X-4114500Y-2676190D01*
X-4051654Y-2645659D01*
X-3982278Y-2653951D01*
X-3928399Y-2698435D01*
X-3921816Y-2710661D01*
X-3921758Y-2710628D01*
X-3917694Y-2717667D01*
X-3864967Y-2808993D01*
X-3790400Y-2883560D01*
X-3699074Y-2936287D01*
X-3597214Y-2963580D01*
X-3597212Y-2963580D01*
X-3491762Y-2963580D01*
X-3491760Y-2963580D01*
X-3389900Y-2936287D01*
X-3298574Y-2883560D01*
X-3224007Y-2808993D01*
X-3171280Y-2717667D01*
X-3143987Y-2615807D01*
X-3143987Y-2510353D01*
X-3171280Y-2408493D01*
X-3224007Y-2317167D01*
X-3298574Y-2242600D01*
X-3389900Y-2189873D01*
X-3491760Y-2162580D01*
X-3597214Y-2162580D01*
X-3699074Y-2189873D01*
X-3699077Y-2189874D01*
X-3790402Y-2242601D01*
X-3864966Y-2317165D01*
X-3917693Y-2408490D01*
X-3917694Y-2408493D01*
X-3925126Y-2436231D01*
X-3961491Y-2495892D01*
X-4024338Y-2526421D01*
X-4093713Y-2518126D01*
X-4147591Y-2473641D01*
X-4154172Y-2461418D01*
X-4154229Y-2461452D01*
X-4163200Y-2445914D01*
X-4211020Y-2363087D01*
X-4285587Y-2288520D01*
X-4376913Y-2235793D01*
X-4478773Y-2208500D01*
X-4584227Y-2208500D01*
X-4686087Y-2235793D01*
X-4686090Y-2235794D01*
X-4777415Y-2288521D01*
X-4851979Y-2363085D01*
X-4904706Y-2454410D01*
X-4904707Y-2454413D01*
X-4932000Y-2556273D01*
X-5434300Y-2556273D01*
X-5434300Y-2474866D01*
X-5461593Y-2373006D01*
X-5514320Y-2281680D01*
X-5588887Y-2207113D01*
X-5663379Y-2164105D01*
X-5680211Y-2154387D01*
X-5680212Y-2154386D01*
X-5680213Y-2154386D01*
X-5782073Y-2127093D01*
X-5887527Y-2127093D01*
X-5989387Y-2154386D01*
X-5989390Y-2154387D01*
X-6080715Y-2207114D01*
X-6155279Y-2281678D01*
X-6208006Y-2373003D01*
X-6208007Y-2373006D01*
X-6235300Y-2474866D01*
X-8844000Y-2474866D01*
X-8844000Y-2305673D01*
X-8844001Y-2305670D01*
X-8853939Y-2281678D01*
X-8882136Y-2213603D01*
X-8952603Y-2143136D01*
X-9105318Y-1990421D01*
X-9138803Y-1929098D01*
X-9133819Y-1859406D01*
X-9091947Y-1803473D01*
X-9079643Y-1795356D01*
X-9002087Y-1750580D01*
X-8927520Y-1676013D01*
X-8874793Y-1584687D01*
X-8874793Y-1584686D01*
X-8873530Y-1582499D01*
X-8822962Y-1534284D01*
X-8766143Y-1520500D01*
X-7759500Y-1520500D01*
X-7692461Y-1540185D01*
X-7646706Y-1592989D01*
X-7635500Y-1644500D01*
X-7635500Y-1784820D01*
X-7635500Y-1784822D01*
X-7635501Y-1784822D01*
X-7626769Y-1828717D01*
X-7626766Y-1828724D01*
X-7593505Y-1878503D01*
X-7593504Y-1878504D01*
X-7543722Y-1911767D01*
X-7543719Y-1911767D01*
X-7543718Y-1911768D01*
X-7499823Y-1920500D01*
X-7499820Y-1920500D01*
X-6470178Y-1920500D01*
X-6426283Y-1911768D01*
X-6426283Y-1911767D01*
X-6426278Y-1911767D01*
X-6376496Y-1878504D01*
X-6352581Y-1842712D01*
X-6298972Y-1797908D01*
X-6229647Y-1789199D01*
X-6187483Y-1804214D01*
X-6154587Y-1823207D01*
X-6052727Y-1850500D01*
X-6052725Y-1850500D01*
X-5947275Y-1850500D01*
X-5947273Y-1850500D01*
X-5845413Y-1823207D01*
X-5754087Y-1770480D01*
X-5679520Y-1695913D01*
X-5626793Y-1604587D01*
X-5599500Y-1502727D01*
X-5599500Y-1397273D01*
X-5626793Y-1295413D01*
X-5679520Y-1204087D01*
X-5754087Y-1129520D01*
X-5836903Y-1081706D01*
X-5845411Y-1076794D01*
X-5845412Y-1076793D01*
X-5845413Y-1076793D01*
X-5947273Y-1049500D01*
X-6052727Y-1049500D01*
X-6154587Y-1076793D01*
X-6162097Y-1079904D01*
X-6163346Y-1076889D01*
X-6216462Y-1089748D01*
X-6282478Y-1066862D01*
X-6325641Y-1011919D01*
X-6334500Y-965891D01*
X-6334500Y-755177D01*
X-6343232Y-711282D01*
X-6343233Y-711281D01*
X-6343233Y-711278D01*
X-6376496Y-661496D01*
X-6379212Y-659681D01*
X-6426276Y-628234D01*
X-6426283Y-628231D01*
X-6470178Y-619500D01*
X-6470180Y-619500D01*
X-7499820Y-619500D01*
X-7499822Y-619500D01*
X-7543718Y-628231D01*
X-7543725Y-628234D01*
X-7593504Y-661495D01*
X-7593505Y-661496D01*
X-7626766Y-711275D01*
X-7626769Y-711282D01*
X-7635500Y-755177D01*
X-7635500Y-895500D01*
X-7655185Y-962539D01*
X-7707989Y-1008294D01*
X-7759500Y-1019500D01*
X-8863900Y-1019500D01*
X-8930939Y-999815D01*
X-8976694Y-947011D01*
X-8987900Y-895500D01*
X-8987900Y-18209D01*
X-8968215Y48830D01*
X-8915411Y94585D01*
X-8846253Y104529D01*
X-8831828Y101571D01*
X-8754747Y80917D01*
X-8754744Y80917D01*
X-8649296Y80917D01*
X-8649293Y80917D01*
X-8617478Y89442D01*
X-8547632Y87779D01*
X-8489769Y48617D01*
X-8465614Y1766D01*
X-8464624Y-1927D01*
X-8463107Y-7587D01*
X-8410380Y-98913D01*
X-8335813Y-173480D01*
X-8244487Y-226207D01*
X-8142627Y-253500D01*
X-8142625Y-253500D01*
X-8037175Y-253500D01*
X-8037173Y-253500D01*
X-7935313Y-226207D01*
X-7843987Y-173480D01*
X-7769420Y-98913D01*
X-7716693Y-7587D01*
X-7689400Y94273D01*
X-7689400Y199727D01*
X-7716693Y301587D01*
X-7769420Y392913D01*
X-7843987Y467480D01*
X-7935313Y520207D01*
X-8037173Y547500D01*
X-8044478Y547500D01*
X-8111517Y567185D01*
X-8157272Y619989D01*
X-8167216Y689147D01*
X-8138191Y752703D01*
X-8132159Y759181D01*
X-8090839Y800500D01*
X-7908158Y983181D01*
X-7881231Y997885D01*
X-7855412Y1014477D01*
X-7849212Y1015369D01*
X-7846835Y1016666D01*
X-7820477Y1019500D01*
X-7759500Y1019500D01*
X-7692461Y999815D01*
X-7646706Y947011D01*
X-7635500Y895500D01*
X-7635500Y755180D01*
X-7635500Y755178D01*
X-7635501Y755178D01*
X-7626769Y711283D01*
X-7626766Y711276D01*
X-7599236Y670074D01*
X-7593504Y661496D01*
X-7543722Y628233D01*
X-7543719Y628233D01*
X-7543718Y628232D01*
X-7499823Y619500D01*
X-7499820Y619500D01*
X-6470178Y619500D01*
X-6426283Y628232D01*
X-6426283Y628233D01*
X-6426278Y628233D01*
X-6376496Y661496D01*
X-6343233Y711278D01*
X-6341814Y718412D01*
X-6334500Y755178D01*
X-6334500Y1784823D01*
X-6343232Y1828718D01*
X-6343233Y1828719D01*
X-6343233Y1828722D01*
X-6353630Y1844282D01*
X-6383281Y1888659D01*
X-6381081Y1890130D01*
X-6406096Y1935942D01*
X-6401112Y2005634D01*
X-6359240Y2061567D01*
X-6293776Y2085984D01*
X-6284930Y2086300D01*
X-4882047Y2086300D01*
X-4815008Y2066615D01*
X-4794366Y2049981D01*
X-2822066Y77681D01*
X-2788581Y16358D01*
X-2793565Y-53334D01*
X-2822066Y-97681D01*
X-2933008Y-208622D01*
X-2933009Y-208623D01*
X-2971145Y-300691D01*
X-2971145Y-520368D01*
X-2990830Y-587407D01*
X-3043634Y-633162D01*
X-3112792Y-643106D01*
X-3157143Y-627755D01*
X-3245413Y-576793D01*
X-3347273Y-549500D01*
X-3452727Y-549500D01*
X-3554587Y-576793D01*
X-3554590Y-576794D01*
X-3645915Y-629521D01*
X-3720479Y-704085D01*
X-3773206Y-795410D01*
X-3773207Y-795413D01*
X-3800500Y-897273D01*
X-3800500Y-1002727D01*
X-3773207Y-1104587D01*
X-3728240Y-1182473D01*
X-3720479Y-1195914D01*
X-3684519Y-1231874D01*
X-3651034Y-1293197D01*
X-3656018Y-1362889D01*
X-3664811Y-1381552D01*
X-3667383Y-1386006D01*
X-3667384Y-1386009D01*
X-3694677Y-1487869D01*
X-3694677Y-1593323D01*
X-3667384Y-1695183D01*
X-3614657Y-1786509D01*
X-3540090Y-1861076D01*
X-3448764Y-1913803D01*
X-3346904Y-1941096D01*
X-3346902Y-1941096D01*
X-3241452Y-1941096D01*
X-3241450Y-1941096D01*
X-3184585Y-1925859D01*
X-3114737Y-1927522D01*
X-3056874Y-1966685D01*
X-3045107Y-1983633D01*
X-3041125Y-1990530D01*
X-2966558Y-2065097D01*
X-2875232Y-2117824D01*
X-2773372Y-2145117D01*
X-2773370Y-2145117D01*
X-2667920Y-2145117D01*
X-2667918Y-2145117D01*
X-2566058Y-2117824D01*
X-2474732Y-2065097D01*
X-2423942Y-2014306D01*
X-2362621Y-1980822D01*
X-2292929Y-1985806D01*
X-2236996Y-2027677D01*
X-2212578Y-2093141D01*
X-2227429Y-2161414D01*
X-2233157Y-2170875D01*
X-2236767Y-2176277D01*
X-2236769Y-2176282D01*
X-2245500Y-2220177D01*
X-2245500Y-2220180D01*
X-2245500Y-2599820D01*
X-2245500Y-2599822D01*
X-2245501Y-2599822D01*
X-2236769Y-2643717D01*
X-2236766Y-2643724D01*
X-2203505Y-2693503D01*
X-2203504Y-2693504D01*
X-2153722Y-2726767D01*
X-2153719Y-2726767D01*
X-2153718Y-2726768D01*
X-2109823Y-2735500D01*
X-1801255Y-2735500D01*
X-1734216Y-2755185D01*
X-1688461Y-2807989D01*
X-1678517Y-2877147D01*
X-1707542Y-2940703D01*
X-1713574Y-2947181D01*
X-1770479Y-3004085D01*
X-1823206Y-3095410D01*
X-1823207Y-3095413D01*
X-1850500Y-3197273D01*
X-1850500Y-3302727D01*
X-1823961Y-3401771D01*
X-1823207Y-3404586D01*
X-1823206Y-3404589D01*
X-1819621Y-3410799D01*
X-1770480Y-3495913D01*
X-1695913Y-3570480D01*
X-1604587Y-3623207D01*
X-1502727Y-3650500D01*
X-1502725Y-3650500D01*
X-1397275Y-3650500D01*
X-1397273Y-3650500D01*
X-1295413Y-3623207D01*
X-1204087Y-3570480D01*
X-1129520Y-3495913D01*
X-1076793Y-3404587D01*
X-1049500Y-3302727D01*
X-1049500Y-3197273D01*
X-1076793Y-3095413D01*
X-1129520Y-3004087D01*
X-1204087Y-2929520D01*
X-1238274Y-2909782D01*
X-1286489Y-2859214D01*
X-1299710Y-2790607D01*
X-1273741Y-2725743D01*
X-1245165Y-2699295D01*
X-1236496Y-2693504D01*
X-1203233Y-2643722D01*
X-1202190Y-2638480D01*
X-1194500Y-2599822D01*
X-1194500Y-2220177D01*
X-1203232Y-2176282D01*
X-1203233Y-2176281D01*
X-1203233Y-2176278D01*
X-1236496Y-2126496D01*
X-1256543Y-2113101D01*
X-1301347Y-2059492D01*
X-1310056Y-1990167D01*
X-1279902Y-1927139D01*
X-1256544Y-1906899D01*
X-1236496Y-1893504D01*
X-1203233Y-1843722D01*
X-1201049Y-1832745D01*
X-1194500Y-1799822D01*
X-1194500Y-1640121D01*
X-1174815Y-1573082D01*
X-1158185Y-1552444D01*
X-498105Y-892364D01*
X-498103Y-892364D01*
X-427636Y-821897D01*
X-411840Y-783760D01*
X-389499Y-729827D01*
X-389499Y-630172D01*
X-389499Y-620183D01*
X-389500Y-620169D01*
X-389500Y32745D01*
X-369815Y99784D01*
X-353181Y120426D01*
X-340108Y133499D01*
X-319520Y154087D01*
X-266793Y245413D01*
X-239500Y347273D01*
X-239500Y452727D01*
X-266793Y554587D01*
X-319520Y645913D01*
X-394087Y720480D01*
X-477567Y768677D01*
X-485411Y773206D01*
X-485412Y773207D01*
X-485413Y773207D01*
X-587273Y800500D01*
X-692727Y800500D01*
X-794587Y773207D01*
X-794590Y773206D01*
X-885915Y720479D01*
X-960479Y645915D01*
X-1013206Y554590D01*
X-1013207Y554587D01*
X-1040500Y452727D01*
X-1040500Y374531D01*
X-1060185Y307492D01*
X-1112989Y261737D01*
X-1182147Y251793D01*
X-1233390Y271429D01*
X-1286276Y306766D01*
X-1286283Y306769D01*
X-1330178Y315500D01*
X-1330180Y315500D01*
X-2109820Y315500D01*
X-2109822Y315500D01*
X-2153718Y306769D01*
X-2153724Y306767D01*
X-2182354Y287637D01*
X-2249032Y266761D01*
X-2316412Y285247D01*
X-2338923Y303060D01*
X-3704783Y1668920D01*
X-3738268Y1730243D01*
X-3733284Y1799935D01*
X-3691412Y1855868D01*
X-3625948Y1880285D01*
X-3617102Y1880601D01*
X-3161255Y1880601D01*
X-3094216Y1860916D01*
X-3073574Y1844282D01*
X-3039913Y1810621D01*
X-2948587Y1757894D01*
X-2846727Y1730601D01*
X-2846725Y1730601D01*
X-2741275Y1730601D01*
X-2741273Y1730601D01*
X-2639413Y1757894D01*
X-2548087Y1810621D01*
X-2473520Y1885188D01*
X-2469203Y1892667D01*
X-2418642Y1940881D01*
X-2350035Y1954107D01*
X-2285169Y1928142D01*
X-2244638Y1871230D01*
X-2240198Y1806479D01*
X-2245500Y1779822D01*
X-2245500Y1779820D01*
X-2245500Y1400180D01*
X-2245500Y1400178D01*
X-2245501Y1400178D01*
X-2236769Y1356283D01*
X-2236766Y1356276D01*
X-2206030Y1310276D01*
X-2203504Y1306496D01*
X-2153722Y1273233D01*
X-2153719Y1273233D01*
X-2153718Y1273232D01*
X-2109823Y1264500D01*
X-2109820Y1264500D01*
X-1330178Y1264500D01*
X-1286283Y1273232D01*
X-1286283Y1273233D01*
X-1286278Y1273233D01*
X-1236496Y1306496D01*
X-1203233Y1356278D01*
X-1196757Y1388834D01*
X-1194500Y1400178D01*
X-1194500Y1606700D01*
X-1174815Y1673739D01*
X-1122011Y1719494D01*
X-1070500Y1730700D01*
X30500Y1730700D01*
X97539Y1711015D01*
X143294Y1658211D01*
X154500Y1606700D01*
X154500Y1400180D01*
X154500Y1400178D01*
X154499Y1400178D01*
X163231Y1356283D01*
X163234Y1356276D01*
X193970Y1310276D01*
X196496Y1306496D01*
X216542Y1293102D01*
X261347Y1239490D01*
X270054Y1170165D01*
X239900Y1107138D01*
X216542Y1086898D01*
X196495Y1073504D01*
X163234Y1023725D01*
X163231Y1023718D01*
X154500Y979823D01*
X154500Y979820D01*
X154500Y600180D01*
X154500Y600178D01*
X154499Y600178D01*
X163231Y556283D01*
X163234Y556276D01*
X187335Y520206D01*
X196496Y506496D01*
X216542Y493102D01*
X261347Y439490D01*
X270054Y370165D01*
X239900Y307138D01*
X216542Y286898D01*
X196495Y273504D01*
X163234Y223725D01*
X163231Y223718D01*
X154500Y179823D01*
X154500Y179820D01*
X154500Y-199820D01*
X154500Y-199822D01*
X154499Y-199822D01*
X163231Y-243717D01*
X163234Y-243724D01*
X196495Y-293503D01*
X196496Y-293504D01*
X216542Y-306898D01*
X261347Y-360510D01*
X270054Y-429835D01*
X239900Y-492862D01*
X216543Y-513101D01*
X211911Y-516195D01*
X196495Y-526496D01*
X163234Y-576275D01*
X163231Y-576282D01*
X154500Y-620176D01*
X154500Y-999822D01*
X163231Y-1043717D01*
X163234Y-1043724D01*
X196495Y-1093503D01*
X216542Y-1106898D01*
X236919Y-1131280D01*
X258566Y-1154557D01*
X259167Y-1157902D01*
X261347Y-1160510D01*
X265307Y-1192042D01*
X270933Y-1223324D01*
X269630Y-1226463D01*
X270054Y-1229835D01*
X256337Y-1258503D01*
X244159Y-1287860D01*
X240843Y-1290890D01*
X239900Y-1292862D01*
X218314Y-1311895D01*
X217413Y-1312519D01*
X196496Y-1326496D01*
X195836Y-1327482D01*
X185617Y-1334570D01*
X162590Y-1342219D01*
X141288Y-1353846D01*
X130025Y-1353038D01*
X119311Y-1356598D01*
X95800Y-1350583D01*
X71597Y-1348848D01*
X52954Y-1340062D01*
X47133Y-1336701D01*
X47132Y-1336700D01*
X-33083Y-1290388D01*
X-44192Y-1283974D01*
X-44193Y-1283973D01*
X-44194Y-1283973D01*
X-146054Y-1256680D01*
X-251508Y-1256680D01*
X-353368Y-1283973D01*
X-353371Y-1283974D01*
X-444696Y-1336701D01*
X-519260Y-1411265D01*
X-571987Y-1502590D01*
X-571988Y-1502593D01*
X-599281Y-1604453D01*
X-599281Y-1709907D01*
X-575188Y-1799822D01*
X-571988Y-1811766D01*
X-571987Y-1811769D01*
X-565692Y-1822672D01*
X-519261Y-1903093D01*
X-444694Y-1977660D01*
X-353368Y-2030387D01*
X-251508Y-2057680D01*
X-251506Y-2057680D01*
X-146056Y-2057680D01*
X-146054Y-2057680D01*
X-44194Y-2030387D01*
X-8341Y-2009687D01*
X59556Y-1993214D01*
X125584Y-2016065D01*
X168775Y-2070986D01*
X175418Y-2140539D01*
X165752Y-2164105D01*
X167906Y-2164998D01*
X163231Y-2176282D01*
X154500Y-2220177D01*
X154500Y-2220180D01*
X154500Y-2599820D01*
X154500Y-2599822D01*
X154499Y-2599822D01*
X163231Y-2643717D01*
X163234Y-2643724D01*
X196495Y-2693503D01*
X196496Y-2693504D01*
X246278Y-2726767D01*
X246281Y-2726767D01*
X246282Y-2726768D01*
X290177Y-2735500D01*
X290180Y-2735500D01*
X1069822Y-2735500D01*
X1113717Y-2726768D01*
X1113717Y-2726767D01*
X1113722Y-2726767D01*
X1163504Y-2693504D01*
X1196767Y-2643722D01*
X1196768Y-2643716D01*
X1201442Y-2632436D01*
X1203409Y-2633250D01*
X1228433Y-2585407D01*
X1289147Y-2550829D01*
X1358917Y-2554565D01*
X1379659Y-2564112D01*
X1395413Y-2573207D01*
X1497273Y-2600500D01*
X1497275Y-2600500D01*
X1602723Y-2600500D01*
X1602727Y-2600500D01*
X1643410Y-2589599D01*
X1668401Y-2590194D01*
X1693147Y-2586636D01*
X1702727Y-2591011D01*
X1713255Y-2591262D01*
X1733957Y-2605273D01*
X1756703Y-2615661D01*
X1762397Y-2624521D01*
X1771118Y-2630424D01*
X1780959Y-2653404D01*
X1794477Y-2674439D01*
X1796756Y-2690293D01*
X1798623Y-2694652D01*
X1799500Y-2709374D01*
X1799500Y-2940357D01*
X1779815Y-3007396D01*
X1727011Y-3053151D01*
X1707595Y-3060131D01*
X1693111Y-3064012D01*
X1645411Y-3076793D01*
X1645410Y-3076794D01*
X1554085Y-3129521D01*
X1479521Y-3204085D01*
X1426794Y-3295410D01*
X1426793Y-3295413D01*
X1399500Y-3397273D01*
X1399500Y-3502727D01*
X1426699Y-3604234D01*
X1426793Y-3604586D01*
X1426794Y-3604589D01*
X1437542Y-3623205D01*
X1479520Y-3695913D01*
X1554087Y-3770480D01*
X1645413Y-3823207D01*
X1747273Y-3850500D01*
X1747275Y-3850500D01*
X1852725Y-3850500D01*
X1852727Y-3850500D01*
X1954587Y-3823207D01*
X2045913Y-3770480D01*
X2120480Y-3695913D01*
X2173207Y-3604587D01*
X2200500Y-3502727D01*
X2200500Y-3455123D01*
X2211976Y-3403023D01*
X2221234Y-3383026D01*
X2262364Y-3341897D01*
X2300500Y-3249828D01*
X2300500Y-3247273D01*
X3349500Y-3247273D01*
X3349500Y-3352727D01*
X3376793Y-3454587D01*
X3429520Y-3545913D01*
X3504087Y-3620480D01*
X3595413Y-3673207D01*
X3697273Y-3700500D01*
X3697275Y-3700500D01*
X3802725Y-3700500D01*
X3802727Y-3700500D01*
X3904587Y-3673207D01*
X3995913Y-3620480D01*
X4070480Y-3545913D01*
X4123207Y-3454587D01*
X4126925Y-3440708D01*
X4163287Y-3381049D01*
X4226133Y-3350518D01*
X4295509Y-3358810D01*
X4349388Y-3403294D01*
X4354082Y-3410792D01*
X4403920Y-3497113D01*
X4478487Y-3571680D01*
X4569813Y-3624407D01*
X4671673Y-3651700D01*
X4671675Y-3651700D01*
X4777125Y-3651700D01*
X4777127Y-3651700D01*
X4878987Y-3624407D01*
X4970313Y-3571680D01*
X5044880Y-3497113D01*
X5097607Y-3405787D01*
X5124900Y-3303927D01*
X5124900Y-3249273D01*
X5568500Y-3249273D01*
X5568500Y-3354727D01*
X5595793Y-3456587D01*
X5648520Y-3547913D01*
X5723087Y-3622480D01*
X5814413Y-3675207D01*
X5916273Y-3702500D01*
X5916275Y-3702500D01*
X6021725Y-3702500D01*
X6021727Y-3702500D01*
X6123587Y-3675207D01*
X6214913Y-3622480D01*
X6289480Y-3547913D01*
X6342207Y-3456587D01*
X6369500Y-3354727D01*
X6369500Y-3249273D01*
X6342207Y-3147413D01*
X6289480Y-3056087D01*
X6214913Y-2981520D01*
X6144216Y-2940703D01*
X6123589Y-2928794D01*
X6123588Y-2928793D01*
X6123587Y-2928793D01*
X6021727Y-2901500D01*
X5916273Y-2901500D01*
X5814413Y-2928793D01*
X5814410Y-2928794D01*
X5723085Y-2981521D01*
X5648521Y-3056085D01*
X5595794Y-3147410D01*
X5595793Y-3147413D01*
X5568500Y-3249273D01*
X5124900Y-3249273D01*
X5124900Y-3198473D01*
X5097607Y-3096613D01*
X5044880Y-3005287D01*
X4970313Y-2930720D01*
X4888853Y-2883689D01*
X4878989Y-2877994D01*
X4878988Y-2877993D01*
X4878987Y-2877993D01*
X4777127Y-2850700D01*
X4671673Y-2850700D01*
X4569813Y-2877993D01*
X4569810Y-2877994D01*
X4478485Y-2930721D01*
X4403921Y-3005285D01*
X4351194Y-3096610D01*
X4351192Y-3096615D01*
X4347473Y-3110495D01*
X4311107Y-3170155D01*
X4248259Y-3200683D01*
X4178884Y-3192386D01*
X4125007Y-3147900D01*
X4120312Y-3140399D01*
X4099783Y-3104842D01*
X4070480Y-3054087D01*
X3995913Y-2979520D01*
X3911389Y-2930720D01*
X3904589Y-2926794D01*
X3904588Y-2926793D01*
X3904587Y-2926793D01*
X3802727Y-2899500D01*
X3697273Y-2899500D01*
X3595413Y-2926793D01*
X3595410Y-2926794D01*
X3504085Y-2979521D01*
X3429521Y-3054085D01*
X3376794Y-3145410D01*
X3376793Y-3145413D01*
X3349500Y-3247273D01*
X2300500Y-3247273D01*
X2300500Y-3150173D01*
X2300500Y-2676797D01*
X2320185Y-2609758D01*
X2372989Y-2564003D01*
X2442147Y-2554059D01*
X2505703Y-2583084D01*
X2512181Y-2589116D01*
X2519404Y-2596339D01*
X2610730Y-2649066D01*
X2712590Y-2676359D01*
X2712592Y-2676359D01*
X2818042Y-2676359D01*
X2818044Y-2676359D01*
X2919904Y-2649066D01*
X3011230Y-2596339D01*
X3085797Y-2521772D01*
X3138524Y-2430446D01*
X3165817Y-2328586D01*
X3165817Y-2223132D01*
X3138524Y-2121272D01*
X3085797Y-2029946D01*
X3011230Y-1955379D01*
X2939215Y-1913801D01*
X2919906Y-1902653D01*
X2919905Y-1902652D01*
X2919904Y-1902652D01*
X2818044Y-1875359D01*
X2712590Y-1875359D01*
X2610730Y-1902652D01*
X2610727Y-1902653D01*
X2519402Y-1955380D01*
X2512181Y-1962602D01*
X2450858Y-1996087D01*
X2381166Y-1991103D01*
X2325233Y-1949231D01*
X2300816Y-1883767D01*
X2300500Y-1874921D01*
X2300500Y-1597897D01*
X2320185Y-1530858D01*
X2372989Y-1485103D01*
X2442147Y-1475159D01*
X2479360Y-1488040D01*
X2479503Y-1487696D01*
X2485291Y-1490093D01*
X2486504Y-1490513D01*
X2487013Y-1490807D01*
X2588873Y-1518100D01*
X2588875Y-1518100D01*
X2694325Y-1518100D01*
X2694327Y-1518100D01*
X2796187Y-1490807D01*
X2887513Y-1438080D01*
X2962080Y-1363513D01*
X3014807Y-1272187D01*
X3042100Y-1170327D01*
X3042100Y-1064873D01*
X3014807Y-963013D01*
X2962080Y-871687D01*
X2887513Y-797120D01*
X2814871Y-755180D01*
X2796189Y-744394D01*
X2796188Y-744393D01*
X2796187Y-744393D01*
X2694327Y-717100D01*
X2694326Y-717100D01*
X2646723Y-717100D01*
X2617285Y-708455D01*
X2587295Y-701932D01*
X2582278Y-698176D01*
X2579684Y-697415D01*
X2559041Y-680781D01*
X2476818Y-598557D01*
X2443334Y-537233D01*
X2440500Y-510876D01*
X2440500Y-471543D01*
X2460185Y-404504D01*
X2512989Y-358749D01*
X2580769Y-349003D01*
X2580817Y-348639D01*
X2582113Y-348809D01*
X2582147Y-348805D01*
X2582270Y-348830D01*
X2588871Y-349699D01*
X2588873Y-349700D01*
X2588875Y-349700D01*
X2694325Y-349700D01*
X2694327Y-349700D01*
X2796187Y-322407D01*
X2887513Y-269680D01*
X2962080Y-195113D01*
X3014807Y-103787D01*
X3042100Y-1927D01*
X3042100Y103527D01*
X3014807Y205387D01*
X2962080Y296713D01*
X2887513Y371280D01*
X2805253Y418773D01*
X2796189Y424006D01*
X2796188Y424007D01*
X2725807Y442865D01*
X2699319Y449963D01*
X2639660Y486327D01*
X2637598Y490572D01*
X2617289Y465975D01*
X2616822Y465751D01*
X2616651Y465545D01*
X2612429Y463633D01*
X2584809Y450321D01*
X2582360Y449555D01*
X2487013Y424007D01*
X2470829Y414664D01*
X2457735Y410567D01*
X2435967Y410185D01*
X2414811Y405052D01*
X2401723Y409582D01*
X2387876Y409338D01*
X2369357Y420784D01*
X2348784Y427904D01*
X2333031Y441230D01*
X1516442Y1257819D01*
X1482957Y1319142D01*
X1487941Y1388834D01*
X1529813Y1444767D01*
X1595277Y1469184D01*
X1604123Y1469500D01*
X2180859Y1469500D01*
X2247898Y1449815D01*
X2293653Y1397011D01*
X2303597Y1327853D01*
X2288247Y1283504D01*
X2264394Y1242188D01*
X2237101Y1140328D01*
X2237101Y1034874D01*
X2260222Y948587D01*
X2264394Y933015D01*
X2264395Y933012D01*
X2268602Y925726D01*
X2317121Y841688D01*
X2391688Y767121D01*
X2483014Y714394D01*
X2579880Y688439D01*
X2580221Y688231D01*
X2580622Y688238D01*
X2610010Y670074D01*
X2639540Y652075D01*
X2639714Y651715D01*
X2640056Y651504D01*
X2641735Y647993D01*
X2661911Y672428D01*
X2699316Y689510D01*
X2792188Y714394D01*
X2883514Y767121D01*
X2893385Y776992D01*
X2954708Y810477D01*
X3024400Y805493D01*
X3068747Y776992D01*
X5626992Y-1781253D01*
X5660477Y-1842576D01*
X5655493Y-1912268D01*
X5633325Y-1946759D01*
X5634469Y-1947637D01*
X5629522Y-1954083D01*
X5576794Y-2045410D01*
X5576793Y-2045413D01*
X5549500Y-2147273D01*
X5549500Y-2252727D01*
X5576793Y-2354587D01*
X5629520Y-2445913D01*
X5704087Y-2520480D01*
X5795413Y-2573207D01*
X5897273Y-2600500D01*
X5897275Y-2600500D01*
X6002725Y-2600500D01*
X6002727Y-2600500D01*
X6104587Y-2573207D01*
X6195913Y-2520480D01*
X6270480Y-2445913D01*
X6323207Y-2354587D01*
X6350500Y-2252727D01*
X6350500Y-2147273D01*
X6323207Y-2045413D01*
X6270480Y-1954087D01*
X6236819Y-1920426D01*
X6203334Y-1859103D01*
X6200500Y-1832745D01*
X6200500Y-1700173D01*
X6200499Y-1700170D01*
X6198434Y-1695185D01*
X6162364Y-1608103D01*
X6091897Y-1537636D01*
X3971644Y582617D01*
X3938159Y643940D01*
X3943143Y713632D01*
X3983843Y768677D01*
X3989104Y772715D01*
X3989112Y772719D01*
X4063679Y847286D01*
X4116406Y938612D01*
X4139588Y1025129D01*
X4399500Y1025129D01*
X4399500Y1025127D01*
X4399500Y919673D01*
X4426793Y817813D01*
X4479520Y726487D01*
X4554087Y651920D01*
X4645413Y599193D01*
X4747273Y571900D01*
X4794877Y571900D01*
X4861916Y552215D01*
X4882558Y535581D01*
X5267640Y150500D01*
X5660035Y-241895D01*
X5660036Y-241897D01*
X5730503Y-312364D01*
X5750097Y-320480D01*
X5822573Y-350501D01*
X5822574Y-350501D01*
X5936662Y-350501D01*
X5936670Y-350500D01*
X5981274Y-350500D01*
X6048313Y-370185D01*
X6068955Y-386819D01*
X7173581Y-1491445D01*
X7207066Y-1552768D01*
X7209900Y-1579126D01*
X7209900Y-2770895D01*
X7190215Y-2837934D01*
X7137411Y-2883689D01*
X7069716Y-2893834D01*
X7063130Y-2892967D01*
X7063127Y-2892967D01*
X6957673Y-2892967D01*
X6855813Y-2920260D01*
X6855810Y-2920261D01*
X6764485Y-2972988D01*
X6689921Y-3047552D01*
X6637194Y-3138877D01*
X6637193Y-3138878D01*
X6612780Y-3229990D01*
X6609900Y-3240740D01*
X6609900Y-3346194D01*
X6635225Y-3440711D01*
X6637193Y-3448053D01*
X6637194Y-3448056D01*
X6642121Y-3456589D01*
X6689920Y-3539380D01*
X6764487Y-3613947D01*
X6855813Y-3666674D01*
X6957673Y-3693967D01*
X6957675Y-3693967D01*
X7063125Y-3693967D01*
X7063127Y-3693967D01*
X7164987Y-3666674D01*
X7210245Y-3640544D01*
X7278142Y-3624072D01*
X7344169Y-3646924D01*
X7359924Y-3660251D01*
X8691614Y-4991941D01*
X8725099Y-5053264D01*
X8723981Y-5100362D01*
X8725595Y-5100575D01*
X8724534Y-5108636D01*
X8724534Y-5214090D01*
X8748599Y-5303900D01*
X8751827Y-5315949D01*
X8751828Y-5315952D01*
X8760628Y-5331194D01*
X8804554Y-5407276D01*
X8879121Y-5481843D01*
X8970447Y-5534570D01*
X9072307Y-5561863D01*
X9072309Y-5561863D01*
X9177759Y-5561863D01*
X9177761Y-5561863D01*
X9279621Y-5534570D01*
X9370947Y-5481843D01*
X9445514Y-5407276D01*
X9498241Y-5315950D01*
X9525534Y-5214090D01*
X9525534Y-5108636D01*
X9498241Y-5006776D01*
X9445514Y-4915450D01*
X9445507Y-4915443D01*
X9443383Y-4912674D01*
X9442314Y-4909908D01*
X9441450Y-4908412D01*
X9441683Y-4908277D01*
X9418192Y-4847504D01*
X9432232Y-4779059D01*
X9479760Y-4729805D01*
X9495913Y-4720480D01*
X9570480Y-4645913D01*
X9623207Y-4554587D01*
X9650500Y-4452727D01*
X9650500Y-4347273D01*
X9623207Y-4245413D01*
X9570480Y-4154087D01*
X9495913Y-4079520D01*
X9409312Y-4029521D01*
X9404589Y-4026794D01*
X9404588Y-4026793D01*
X9404587Y-4026793D01*
X9302727Y-3999500D01*
X9197273Y-3999500D01*
X9095413Y-4026793D01*
X9095410Y-4026794D01*
X9004085Y-4079521D01*
X8929521Y-4154085D01*
X8875899Y-4246959D01*
X8825331Y-4295173D01*
X8756724Y-4308395D01*
X8691860Y-4282426D01*
X8680832Y-4272638D01*
X8219884Y-3811690D01*
X8186399Y-3750367D01*
X8191383Y-3680675D01*
X8233255Y-3624742D01*
X8275472Y-3604234D01*
X8280279Y-3602946D01*
X8280281Y-3602946D01*
X8382141Y-3575653D01*
X8473467Y-3522926D01*
X8548034Y-3448359D01*
X8600761Y-3357033D01*
X8628054Y-3255173D01*
X8628054Y-3149719D01*
X8600761Y-3047859D01*
X8548034Y-2956533D01*
X8473467Y-2881966D01*
X8382143Y-2829240D01*
X8382142Y-2829239D01*
X8364914Y-2824623D01*
X8342055Y-2818498D01*
X8282397Y-2782134D01*
X8251868Y-2719287D01*
X8260163Y-2649911D01*
X8304648Y-2596033D01*
X8312117Y-2591357D01*
X8373913Y-2555680D01*
X8448480Y-2481113D01*
X8501207Y-2389787D01*
X8528500Y-2287927D01*
X8528500Y-2182473D01*
X8501207Y-2080613D01*
X8448480Y-1989287D01*
X8426474Y-1967281D01*
X8392989Y-1905958D01*
X8397973Y-1836266D01*
X8426474Y-1791919D01*
X8437140Y-1781253D01*
X8448480Y-1769913D01*
X8501207Y-1678587D01*
X8528500Y-1576727D01*
X8528500Y-1471273D01*
X8501207Y-1369413D01*
X8448480Y-1278087D01*
X8373913Y-1203520D01*
X8294900Y-1157902D01*
X8282589Y-1150794D01*
X8282588Y-1150793D01*
X8282587Y-1150793D01*
X8180727Y-1123500D01*
X8075273Y-1123500D01*
X7973413Y-1150793D01*
X7973410Y-1150794D01*
X7882087Y-1203520D01*
X7825813Y-1259794D01*
X7764489Y-1293278D01*
X7694798Y-1288293D01*
X7650451Y-1259793D01*
X6278294Y112364D01*
X6186226Y150500D01*
X6186225Y150500D01*
X6027522Y150500D01*
X5960483Y170185D01*
X5939841Y186819D01*
X5236819Y889842D01*
X5203923Y948587D01*
X5200500Y962851D01*
X5200500Y1025127D01*
X5173207Y1126987D01*
X5152505Y1162844D01*
X5148309Y1180330D01*
X5149194Y1197986D01*
X5145026Y1215166D01*
X5150906Y1232158D01*
X5151807Y1250112D01*
X5162096Y1264488D01*
X5167879Y1281193D01*
X5181199Y1296941D01*
X6542695Y2658436D01*
X6542697Y2658436D01*
X6613164Y2728903D01*
X6628960Y2767040D01*
X6651301Y2820973D01*
X6651301Y2907967D01*
X6653245Y2918815D01*
X6664123Y2940614D01*
X6670986Y2963983D01*
X6679444Y2971313D01*
X6684445Y2981332D01*
X6705384Y2993790D01*
X6723790Y3009738D01*
X6734869Y3011332D01*
X6744492Y3017056D01*
X6768838Y3016216D01*
X6792948Y3019682D01*
X6803131Y3015032D01*
X6814320Y3014645D01*
X6834345Y3000777D01*
X6856504Y2990657D01*
X6862982Y2984625D01*
X6866087Y2981520D01*
X6957413Y2928793D01*
X7059273Y2901500D01*
X7059275Y2901500D01*
X7164725Y2901500D01*
X7164727Y2901500D01*
X7266587Y2928793D01*
X7357913Y2981520D01*
X7432480Y3056087D01*
X7485207Y3147413D01*
X7512500Y3249273D01*
X7512500Y3354727D01*
X7485207Y3456587D01*
X7432480Y3547913D01*
X7426363Y3554030D01*
X7392878Y3615353D01*
X7397862Y3685045D01*
X7426363Y3729392D01*
X7453751Y3756780D01*
X7492206Y3795235D01*
X7537585Y3898009D01*
X7540500Y3923135D01*
X7540499Y4712864D01*
X7538908Y4726587D01*
X7537586Y4737988D01*
X7537585Y4737990D01*
X7537585Y4737991D01*
X7492206Y4840765D01*
X7412765Y4920206D01*
X7356143Y4945207D01*
X7309992Y4965585D01*
X7284865Y4968500D01*
X6495143Y4968500D01*
X6495117Y4968498D01*
X6470012Y4965587D01*
X6470008Y4965585D01*
X6367235Y4920207D01*
X6287794Y4840766D01*
X6242415Y4737994D01*
X6242415Y4737992D01*
X6239500Y4712869D01*
X6239500Y4089124D01*
X6219815Y4022085D01*
X6203181Y4001443D01*
X6188436Y3986699D01*
X6188434Y3986697D01*
X6150301Y3894632D01*
X6150300Y3894627D01*
X6150300Y3847843D01*
X6130615Y3780804D01*
X6077811Y3735049D01*
X6008653Y3725105D01*
X5998136Y3727262D01*
X5996328Y3727500D01*
X5996327Y3727500D01*
X5890873Y3727500D01*
X5789013Y3700207D01*
X5789010Y3700206D01*
X5697685Y3647479D01*
X5623121Y3572915D01*
X5570394Y3481590D01*
X5570393Y3481587D01*
X5543100Y3379727D01*
X5543100Y3274273D01*
X5570393Y3172413D01*
X5623120Y3081087D01*
X5697687Y3006520D01*
X5789013Y2953793D01*
X5850116Y2937421D01*
X5909775Y2901058D01*
X5940305Y2838211D01*
X5932011Y2768836D01*
X5905703Y2729966D01*
X4514262Y1338524D01*
X4514261Y1338524D01*
X4514262Y1338523D01*
X4461236Y1285497D01*
X4423100Y1193430D01*
X4423100Y1129530D01*
X4418875Y1097438D01*
X4399500Y1025129D01*
X4139588Y1025129D01*
X4143699Y1040472D01*
X4143699Y1145926D01*
X4116406Y1247786D01*
X4063679Y1339112D01*
X3989112Y1413679D01*
X3897786Y1466406D01*
X3795926Y1493699D01*
X3690472Y1493699D01*
X3588612Y1466406D01*
X3588609Y1466405D01*
X3497286Y1413679D01*
X3486725Y1403118D01*
X3425400Y1369635D01*
X3355709Y1374622D01*
X3310696Y1403795D01*
X3300825Y1413819D01*
X3299965Y1415895D01*
X3229498Y1486362D01*
X3229496Y1486363D01*
X2965895Y1749965D01*
X2946748Y1757896D01*
X2873827Y1788101D01*
X2873826Y1788101D01*
X2817522Y1788101D01*
X2750483Y1807786D01*
X2729841Y1824420D01*
X2621897Y1932364D01*
X2529829Y1970500D01*
X2529828Y1970500D01*
X2114392Y1970500D01*
X2047353Y1990185D01*
X2001598Y2042989D01*
X1991654Y2112147D01*
X1994615Y2126585D01*
X2012149Y2192022D01*
X2012149Y2297476D01*
X1984856Y2399336D01*
X1932129Y2490662D01*
X1857562Y2565229D01*
X1769146Y2616276D01*
X1766238Y2617955D01*
X1766237Y2617956D01*
X1766236Y2617956D01*
X1757436Y2620314D01*
X1743549Y2628332D01*
X1730107Y2631256D01*
X1701853Y2652407D01*
X1674866Y2679394D01*
X1641381Y2740717D01*
X1646365Y2810409D01*
X1688237Y2866342D01*
X1700548Y2874463D01*
X1704580Y2876792D01*
X1704587Y2876793D01*
X1795913Y2929520D01*
X1870480Y3004087D01*
X1923207Y3095413D01*
X1950500Y3197273D01*
X1950500Y3302727D01*
X1950178Y3303927D01*
X3307900Y3303927D01*
X3307900Y3198473D01*
X3334259Y3100101D01*
X3335193Y3096614D01*
X3335194Y3096611D01*
X3349127Y3072479D01*
X3387920Y3005287D01*
X3462487Y2930720D01*
X3553813Y2877993D01*
X3655673Y2850700D01*
X3655675Y2850700D01*
X3761125Y2850700D01*
X3761127Y2850700D01*
X3862987Y2877993D01*
X3954313Y2930720D01*
X4028880Y3005287D01*
X4081607Y3096613D01*
X4108900Y3198473D01*
X4108900Y3303927D01*
X4081607Y3405787D01*
X4028880Y3497113D01*
X3954313Y3571680D01*
X3875274Y3617313D01*
X3862989Y3624406D01*
X3862988Y3624407D01*
X3862987Y3624407D01*
X3761127Y3651700D01*
X3655673Y3651700D01*
X3553813Y3624407D01*
X3553810Y3624406D01*
X3462485Y3571679D01*
X3387921Y3497115D01*
X3335194Y3405790D01*
X3335193Y3405787D01*
X3307900Y3303927D01*
X1950178Y3303927D01*
X1923207Y3404587D01*
X1870480Y3495913D01*
X1795913Y3570480D01*
X1709312Y3620479D01*
X1704589Y3623206D01*
X1704588Y3623207D01*
X1704587Y3623207D01*
X1602727Y3650500D01*
X1497273Y3650500D01*
X1395413Y3623207D01*
X1395410Y3623206D01*
X1304085Y3570479D01*
X1229522Y3495916D01*
X1229520Y3495914D01*
X1229520Y3495913D01*
X1201546Y3447460D01*
X1174461Y3400548D01*
X1123893Y3352333D01*
X1055286Y3339111D01*
X990421Y3365079D01*
X979393Y3374868D01*
X-98466Y4452727D01*
X2249500Y4452727D01*
X2249500Y4347273D01*
X2276793Y4245413D01*
X2329520Y4154087D01*
X2404087Y4079520D01*
X2495413Y4026793D01*
X2597273Y3999500D01*
X2597275Y3999500D01*
X2702725Y3999500D01*
X2702727Y3999500D01*
X2804587Y4026793D01*
X2895913Y4079520D01*
X2970480Y4154087D01*
X3023207Y4245413D01*
X3050500Y4347273D01*
X3050500Y4452727D01*
X3349500Y4452727D01*
X3349500Y4347273D01*
X3376793Y4245413D01*
X3429520Y4154087D01*
X3504087Y4079520D01*
X3595413Y4026793D01*
X3697273Y3999500D01*
X3697275Y3999500D01*
X3802725Y3999500D01*
X3802727Y3999500D01*
X3904587Y4026793D01*
X3995913Y4079520D01*
X4070480Y4154087D01*
X4123207Y4245413D01*
X4150500Y4347273D01*
X4150500Y4452727D01*
X4123207Y4554587D01*
X4070480Y4645913D01*
X3995913Y4720480D01*
X3904587Y4773207D01*
X3802727Y4800500D01*
X3697273Y4800500D01*
X3595413Y4773207D01*
X3595410Y4773206D01*
X3504085Y4720479D01*
X3429521Y4645915D01*
X3376794Y4554590D01*
X3376793Y4554587D01*
X3349500Y4452727D01*
X3050500Y4452727D01*
X3023207Y4554587D01*
X2970480Y4645913D01*
X2895913Y4720480D01*
X2804587Y4773207D01*
X2702727Y4800500D01*
X2597273Y4800500D01*
X2495413Y4773207D01*
X2495410Y4773206D01*
X2404085Y4720479D01*
X2329521Y4645915D01*
X2276794Y4554590D01*
X2276793Y4554587D01*
X2249500Y4452727D01*
X-98466Y4452727D01*
X-158103Y4512364D01*
X-250171Y4550500D01*
X-250172Y4550500D01*
X-1627634Y4550500D01*
X-1694673Y4570185D01*
X-1740428Y4622989D01*
X-1750372Y4692147D01*
X-1721347Y4755703D01*
X-1715335Y4762162D01*
X-1391887Y5085610D01*
X-1330568Y5119092D01*
X-1260877Y5114108D01*
X-1235326Y5101032D01*
X-1193725Y5073235D01*
X-1193722Y5073233D01*
X-1193718Y5073232D01*
X-1149823Y5064500D01*
X-1149820Y5064500D01*
X-120178Y5064500D01*
X-76283Y5073232D01*
X-76283Y5073233D01*
X-76278Y5073233D01*
X-26496Y5106496D01*
X6767Y5156278D01*
X11043Y5177775D01*
X15500Y5200178D01*
X15500Y6188878D01*
X21738Y6210124D01*
X23318Y6232212D01*
X31390Y6242996D01*
X35185Y6255917D01*
X51918Y6270417D01*
X65190Y6288145D01*
X77810Y6292853D01*
X87989Y6301672D01*
X109906Y6304824D01*
X130654Y6312562D01*
X143814Y6309700D01*
X157147Y6311616D01*
X177290Y6302417D01*
X198927Y6297710D01*
X216652Y6284442D01*
X220703Y6282591D01*
X227181Y6276559D01*
X325181Y6178559D01*
X358666Y6117236D01*
X361500Y6090878D01*
X361500Y6043273D01*
X383490Y5961207D01*
X388793Y5941414D01*
X388794Y5941411D01*
X399356Y5923118D01*
X441520Y5850087D01*
X516087Y5775520D01*
X607413Y5722793D01*
X709273Y5695500D01*
X709275Y5695500D01*
X814725Y5695500D01*
X814727Y5695500D01*
X916587Y5722793D01*
X916595Y5722798D01*
X924097Y5725904D01*
X924993Y5723740D01*
X981217Y5737383D01*
X1047245Y5714535D01*
X1063006Y5701204D01*
X1066523Y5697687D01*
X1141090Y5623120D01*
X1232416Y5570393D01*
X1334276Y5543100D01*
X1334278Y5543100D01*
X1439728Y5543100D01*
X1439730Y5543100D01*
X1541590Y5570393D01*
X1632916Y5623120D01*
X1707483Y5697687D01*
X1760210Y5789013D01*
X1765793Y5809852D01*
X1802154Y5869509D01*
X1864999Y5900040D01*
X1934375Y5891748D01*
X1988255Y5847265D01*
X1992953Y5839759D01*
X2002713Y5822855D01*
X2016320Y5799287D01*
X2090887Y5724720D01*
X2182213Y5671993D01*
X2182214Y5671993D01*
X2187585Y5668892D01*
X2235801Y5618325D01*
X2246878Y5560854D01*
X2249500Y5560854D01*
X2249500Y5552727D01*
X2249500Y5447273D01*
X2268567Y5376116D01*
X2276793Y5345414D01*
X2276794Y5345411D01*
X2288584Y5324990D01*
X2329520Y5254087D01*
X2404087Y5179520D01*
X2495413Y5126793D01*
X2597273Y5099500D01*
X2597275Y5099500D01*
X2702725Y5099500D01*
X2702727Y5099500D01*
X2804587Y5126793D01*
X2895913Y5179520D01*
X2970480Y5254087D01*
X3023207Y5345413D01*
X3050500Y5447273D01*
X3050500Y5552727D01*
X3023207Y5654587D01*
X2970480Y5745913D01*
X2895913Y5820480D01*
X2804587Y5873207D01*
X2804586Y5873208D01*
X2799214Y5876309D01*
X2750998Y5926876D01*
X2739922Y5984346D01*
X2737300Y5984346D01*
X2737300Y6097925D01*
X2737300Y6097927D01*
X2710007Y6199787D01*
X2657280Y6291113D01*
X2582713Y6365680D01*
X2495535Y6416012D01*
X2491389Y6418406D01*
X2491388Y6418407D01*
X2491387Y6418407D01*
X2389527Y6445700D01*
X2353300Y6445700D01*
X2349383Y6446850D01*
X2345403Y6445952D01*
X2316142Y6456611D01*
X2286261Y6465385D01*
X2283588Y6468470D01*
X2279754Y6469866D01*
X2260896Y6494658D01*
X2240506Y6518189D01*
X2239217Y6523158D01*
X2237454Y6525476D01*
X2234595Y6540978D01*
X2229687Y6559905D01*
X2229300Y6564789D01*
X2229300Y6656727D01*
X2214257Y6712869D01*
X4239500Y6712869D01*
X4239500Y5923144D01*
X4239502Y5923118D01*
X4242413Y5898013D01*
X4242415Y5898009D01*
X4287793Y5795236D01*
X4287794Y5795235D01*
X4367235Y5715794D01*
X4470009Y5670415D01*
X4495135Y5667500D01*
X5284864Y5667501D01*
X5284879Y5667503D01*
X5284882Y5667503D01*
X5309987Y5670414D01*
X5309988Y5670415D01*
X5309991Y5670415D01*
X5412765Y5715794D01*
X5492206Y5795235D01*
X5528082Y5876486D01*
X5540031Y5903548D01*
X5585117Y5956925D01*
X5651903Y5977452D01*
X5685552Y5973238D01*
X5747273Y5956700D01*
X5747276Y5956700D01*
X5852725Y5956700D01*
X5852727Y5956700D01*
X5954587Y5983993D01*
X6045913Y6036720D01*
X6045914Y6036722D01*
X6052951Y6040784D01*
X6054652Y6037837D01*
X6105078Y6057380D01*
X6173535Y6043400D01*
X6223566Y5994628D01*
X6239500Y5933828D01*
X6239500Y5923149D01*
X6239502Y5923118D01*
X6242413Y5898013D01*
X6242415Y5898009D01*
X6287793Y5795236D01*
X6287794Y5795235D01*
X6367235Y5715794D01*
X6470009Y5670415D01*
X6495135Y5667500D01*
X7284864Y5667501D01*
X7284879Y5667503D01*
X7284882Y5667503D01*
X7309987Y5670414D01*
X7309988Y5670415D01*
X7309991Y5670415D01*
X7412765Y5715794D01*
X7492206Y5795235D01*
X7537585Y5898009D01*
X7540500Y5923135D01*
X7540499Y6712864D01*
X7540498Y6712869D01*
X8239500Y6712869D01*
X8239500Y5923144D01*
X8239502Y5923118D01*
X8242413Y5898013D01*
X8242415Y5898009D01*
X8287793Y5795236D01*
X8287794Y5795235D01*
X8367235Y5715794D01*
X8470009Y5670415D01*
X8495135Y5667500D01*
X9134876Y5667501D01*
X9201915Y5647817D01*
X9222557Y5631182D01*
X9575581Y5278158D01*
X9590284Y5251231D01*
X9606877Y5225412D01*
X9607768Y5219212D01*
X9609066Y5216835D01*
X9611900Y5190477D01*
X9611900Y5019041D01*
X9592215Y4952002D01*
X9539411Y4906247D01*
X9470253Y4896303D01*
X9417827Y4916739D01*
X9412767Y4920205D01*
X9412762Y4920207D01*
X9352893Y4946642D01*
X9309992Y4965585D01*
X9284865Y4968500D01*
X8495143Y4968500D01*
X8495117Y4968498D01*
X8470012Y4965587D01*
X8470008Y4965585D01*
X8367235Y4920207D01*
X8287794Y4840766D01*
X8242415Y4737994D01*
X8242415Y4737992D01*
X8239500Y4712869D01*
X8239500Y3923144D01*
X8239502Y3923118D01*
X8242413Y3898013D01*
X8242415Y3898009D01*
X8287793Y3795236D01*
X8287794Y3795235D01*
X8367235Y3715794D01*
X8470009Y3670415D01*
X8495135Y3667500D01*
X8784945Y3667501D01*
X8851983Y3647817D01*
X8897738Y3595013D01*
X8907682Y3525854D01*
X8892332Y3481503D01*
X8876795Y3454592D01*
X8876793Y3454587D01*
X8849500Y3352727D01*
X8849500Y3247273D01*
X8876793Y3145413D01*
X8929520Y3054087D01*
X9004087Y2979520D01*
X9095413Y2926793D01*
X9197273Y2899500D01*
X9197275Y2899500D01*
X9302725Y2899500D01*
X9302727Y2899500D01*
X9404587Y2926793D01*
X9425902Y2939100D01*
X9431800Y2940531D01*
X9436389Y2944506D01*
X9465350Y2948671D01*
X9493797Y2955572D01*
X9499536Y2953586D01*
X9505547Y2954450D01*
X9532170Y2942292D01*
X9559824Y2932721D01*
X9563577Y2927949D01*
X9569103Y2925425D01*
X9584928Y2900800D01*
X9603016Y2877801D01*
X9604432Y2870451D01*
X9606877Y2866647D01*
X9611900Y2831712D01*
X9611900Y2620819D01*
X9592215Y2553780D01*
X9539411Y2508025D01*
X9470253Y2498081D01*
X9425900Y2513432D01*
X9422855Y2515190D01*
X9365876Y2548087D01*
X9349389Y2557606D01*
X9349388Y2557607D01*
X9349387Y2557607D01*
X9247527Y2584900D01*
X9142073Y2584900D01*
X9040213Y2557607D01*
X9040210Y2557606D01*
X8948885Y2504879D01*
X8874321Y2430315D01*
X8821594Y2338990D01*
X8821593Y2338987D01*
X8794300Y2237127D01*
X8794300Y2131673D01*
X8821593Y2029813D01*
X8874320Y1938487D01*
X8948887Y1863920D01*
X9040213Y1811193D01*
X9142073Y1783900D01*
X9142075Y1783900D01*
X9247525Y1783900D01*
X9247527Y1783900D01*
X9349387Y1811193D01*
X9425901Y1855369D01*
X9493799Y1871842D01*
X9559826Y1848990D01*
X9603017Y1794069D01*
X9611900Y1747982D01*
X9611900Y-1731711D01*
X9592215Y-1798750D01*
X9539411Y-1844505D01*
X9470253Y-1854449D01*
X9425900Y-1839098D01*
X9404589Y-1826794D01*
X9404588Y-1826793D01*
X9404587Y-1826793D01*
X9302727Y-1799500D01*
X9197273Y-1799500D01*
X9095413Y-1826793D01*
X9095410Y-1826794D01*
X9004085Y-1879521D01*
X8929521Y-1954085D01*
X8876794Y-2045410D01*
X8876793Y-2045413D01*
X8849500Y-2147273D01*
X8849500Y-2252727D01*
X8876793Y-2354587D01*
X8929520Y-2445913D01*
X9004087Y-2520480D01*
X9095413Y-2573207D01*
X9197273Y-2600500D01*
X9197275Y-2600500D01*
X9295877Y-2600500D01*
X9317122Y-2606738D01*
X9339211Y-2608318D01*
X9349994Y-2616390D01*
X9362916Y-2620185D01*
X9377415Y-2636918D01*
X9395144Y-2650190D01*
X9399851Y-2662810D01*
X9408671Y-2672989D01*
X9411822Y-2694906D01*
X9419561Y-2715654D01*
X9416698Y-2728814D01*
X9418615Y-2742147D01*
X9409415Y-2762290D01*
X9404709Y-2783927D01*
X9391440Y-2801652D01*
X9389590Y-2805703D01*
X9383558Y-2812181D01*
X9332558Y-2863181D01*
X9271235Y-2896666D01*
X9244877Y-2899500D01*
X9197273Y-2899500D01*
X9095413Y-2926793D01*
X9095410Y-2926794D01*
X9004085Y-2979521D01*
X8929521Y-3054085D01*
X8876794Y-3145410D01*
X8876792Y-3145415D01*
X8873465Y-3157829D01*
X8873464Y-3157836D01*
X8849500Y-3247273D01*
X8849500Y-3352727D01*
X8876793Y-3454587D01*
X8929520Y-3545913D01*
X9004087Y-3620480D01*
X9095413Y-3673207D01*
X9197273Y-3700500D01*
X9197275Y-3700500D01*
X9302725Y-3700500D01*
X9302727Y-3700500D01*
X9404587Y-3673207D01*
X9495913Y-3620480D01*
X9570480Y-3545913D01*
X9623207Y-3454587D01*
X9650500Y-3352727D01*
X9650500Y-3305123D01*
X9659144Y-3275682D01*
X9665668Y-3245696D01*
X9669422Y-3240680D01*
X9670185Y-3238084D01*
X9686819Y-3217442D01*
X9799419Y-3104842D01*
X9860742Y-3071357D01*
X9930434Y-3076341D01*
X9986367Y-3118213D01*
X10010784Y-3183677D01*
X10011100Y-3192523D01*
X10011100Y-5079029D01*
X10043098Y-5156278D01*
X10049236Y-5171097D01*
X10201636Y-5323497D01*
X10272103Y-5393964D01*
X10364172Y-5432100D01*
X10530358Y-5432100D01*
X10597397Y-5451785D01*
X10643152Y-5504589D01*
X10654358Y-5556100D01*
X10654358Y-5663118D01*
X10669211Y-5756904D01*
X10726807Y-5869942D01*
X10726809Y-5869944D01*
X10726811Y-5869947D01*
X10816509Y-5959645D01*
X10816511Y-5959646D01*
X10816515Y-5959650D01*
X10929551Y-6017245D01*
X10929555Y-6017247D01*
X11023332Y-6032099D01*
X11023338Y-6032100D01*
X11611375Y-6032099D01*
X11705161Y-6017246D01*
X11818199Y-5959650D01*
X11907907Y-5869942D01*
X11965503Y-5756904D01*
X11965503Y-5756902D01*
X11965504Y-5756901D01*
X11965504Y-5756900D01*
X11977224Y-5682897D01*
X11980357Y-5663119D01*
X11980356Y-4700082D01*
X11965503Y-4606296D01*
X11907907Y-4493258D01*
X11907903Y-4493254D01*
X11907902Y-4493252D01*
X11818204Y-4403554D01*
X11818201Y-4403552D01*
X11818199Y-4403550D01*
X11705161Y-4345954D01*
X11705160Y-4345953D01*
X11705157Y-4345952D01*
X11673743Y-4340977D01*
X11611381Y-4331100D01*
X11289703Y-4331100D01*
X11222664Y-4311415D01*
X11176909Y-4258611D01*
X11166965Y-4189453D01*
X11195990Y-4125897D01*
X11202010Y-4119431D01*
X11220480Y-4100962D01*
X11273207Y-4009636D01*
X11300500Y-3907776D01*
X11300500Y-3802322D01*
X11273207Y-3700462D01*
X11220480Y-3609136D01*
X11145913Y-3534569D01*
X11054587Y-3481842D01*
X10952727Y-3454549D01*
X10847273Y-3454549D01*
X10745413Y-3481842D01*
X10745410Y-3481843D01*
X10698100Y-3509158D01*
X10630200Y-3525631D01*
X10564173Y-3502778D01*
X10520982Y-3447857D01*
X10512100Y-3401771D01*
X10512100Y-2652290D01*
X10531785Y-2585251D01*
X10553157Y-2562018D01*
X10552566Y-2561427D01*
X10592221Y-2521772D01*
X10632880Y-2481113D01*
X10685607Y-2389787D01*
X10712900Y-2287927D01*
X10712900Y-2182473D01*
X10685607Y-2080613D01*
X10632880Y-1989287D01*
X10558313Y-1914720D01*
X10466987Y-1861993D01*
X10365127Y-1834700D01*
X10259673Y-1834700D01*
X10259670Y-1834700D01*
X10253084Y-1835567D01*
X10184049Y-1824801D01*
X10131793Y-1778420D01*
X10112900Y-1712628D01*
X10112900Y-1347273D01*
X10999500Y-1347273D01*
X10999500Y-1452727D01*
X11024619Y-1546471D01*
X11026793Y-1554586D01*
X11026794Y-1554589D01*
X11040922Y-1579059D01*
X11079520Y-1645913D01*
X11154087Y-1720480D01*
X11245413Y-1773207D01*
X11347273Y-1800500D01*
X11347275Y-1800500D01*
X11452725Y-1800500D01*
X11452727Y-1800500D01*
X11554587Y-1773207D01*
X11564001Y-1767771D01*
X11631895Y-1751297D01*
X11697923Y-1774145D01*
X11741117Y-1829064D01*
X11750002Y-1875157D01*
X11750000Y-3686585D01*
X11750000Y-4100000D01*
X14150000Y-4100020D01*
X14150000Y-4100019D01*
X14150000Y-3124954D01*
X14169685Y-3057915D01*
X14222489Y-3012160D01*
X14273532Y-3000955D01*
X14825215Y-2998878D01*
X14892327Y-3018310D01*
X14938281Y-3070941D01*
X14949681Y-3122885D01*
X14949540Y-5225019D01*
X14949540Y-5225020D01*
X15300000Y-5225010D01*
X15300000Y5324990D01*
X14949890Y5324990D01*
X14949890Y3123999D01*
X14930205Y3056960D01*
X14877401Y3011205D01*
X14825892Y2999999D01*
X14274010Y2999992D01*
X14206970Y3019676D01*
X14161214Y3072479D01*
X14150008Y3123987D01*
X14150000Y4099970D01*
X11750010Y4100011D01*
X11750009Y4100010D01*
X11750003Y-924842D01*
X11730318Y-991882D01*
X11677514Y-1037636D01*
X11608356Y-1047580D01*
X11564004Y-1032230D01*
X11554587Y-1026793D01*
X11527369Y-1019500D01*
X11452727Y-999500D01*
X11347273Y-999500D01*
X11245413Y-1026793D01*
X11245410Y-1026794D01*
X11154085Y-1079521D01*
X11079521Y-1154085D01*
X11026794Y-1245410D01*
X11026793Y-1245413D01*
X10999500Y-1347273D01*
X10112900Y-1347273D01*
X10112900Y2777429D01*
X10132585Y2844468D01*
X10185389Y2890223D01*
X10253092Y2900367D01*
X10259671Y2899501D01*
X10259673Y2899500D01*
X10259675Y2899500D01*
X10365125Y2899500D01*
X10365127Y2899500D01*
X10466987Y2926793D01*
X10558313Y2979520D01*
X10632880Y3054087D01*
X10685607Y3145413D01*
X10712900Y3247273D01*
X10712900Y3352727D01*
X10685607Y3454587D01*
X10632880Y3545913D01*
X10558313Y3620480D01*
X10466987Y3673207D01*
X10365127Y3700500D01*
X10259673Y3700500D01*
X10259670Y3700500D01*
X10253084Y3699633D01*
X10236184Y3702269D01*
X10219253Y3699834D01*
X10202377Y3707541D01*
X10184049Y3710399D01*
X10171256Y3721754D01*
X10155697Y3728859D01*
X10145667Y3744466D01*
X10131793Y3756780D01*
X10126978Y3773547D01*
X10117923Y3787637D01*
X10112900Y3822572D01*
X10112900Y3887303D01*
X10132585Y3954342D01*
X10185389Y4000097D01*
X10254547Y4010041D01*
X10268982Y4007081D01*
X10297273Y3999500D01*
X10297275Y3999500D01*
X10402725Y3999500D01*
X10402727Y3999500D01*
X10504587Y4026793D01*
X10595913Y4079520D01*
X10670480Y4154087D01*
X10723207Y4245413D01*
X10750500Y4347273D01*
X10750500Y4452727D01*
X10723207Y4554587D01*
X10670480Y4645913D01*
X10595913Y4720480D01*
X10504587Y4773207D01*
X10402727Y4800500D01*
X10297273Y4800500D01*
X10268990Y4792922D01*
X10199141Y4794587D01*
X10141279Y4833751D01*
X10113777Y4897980D01*
X10112900Y4912698D01*
X10112900Y5395427D01*
X10112899Y5395430D01*
X10109728Y5403085D01*
X10074764Y5487497D01*
X10004297Y5557964D01*
X9576818Y5985443D01*
X9562114Y6012371D01*
X9545522Y6038189D01*
X9544630Y6044390D01*
X9543333Y6046766D01*
X9540499Y6073124D01*
X9540499Y6148727D01*
X10724700Y6148727D01*
X10724700Y6043273D01*
X10746690Y5961207D01*
X10751993Y5941414D01*
X10751994Y5941411D01*
X10762556Y5923118D01*
X10804720Y5850087D01*
X10879287Y5775520D01*
X10970613Y5722793D01*
X11072473Y5695500D01*
X11072475Y5695500D01*
X11177925Y5695500D01*
X11177927Y5695500D01*
X11279787Y5722793D01*
X11371113Y5775520D01*
X11445680Y5850087D01*
X11498407Y5941413D01*
X11525700Y6043273D01*
X11525700Y6148727D01*
X11498407Y6250587D01*
X11445680Y6341913D01*
X11371113Y6416480D01*
X11279787Y6469207D01*
X11177927Y6496500D01*
X11072473Y6496500D01*
X10970613Y6469207D01*
X10970610Y6469206D01*
X10879285Y6416479D01*
X10804721Y6341915D01*
X10751994Y6250590D01*
X10751993Y6250587D01*
X10724700Y6148727D01*
X9540499Y6148727D01*
X9540499Y6611746D01*
X9560184Y6678785D01*
X9612988Y6724540D01*
X9682146Y6734484D01*
X9745702Y6705459D01*
X9752180Y6699427D01*
X9812487Y6639120D01*
X9903813Y6586393D01*
X10005673Y6559100D01*
X10005675Y6559100D01*
X10111125Y6559100D01*
X10111127Y6559100D01*
X10212987Y6586393D01*
X10304313Y6639120D01*
X10378880Y6713687D01*
X10431607Y6805013D01*
X10458900Y6906873D01*
X10458900Y7012327D01*
X10431607Y7114187D01*
X10378880Y7205513D01*
X10304313Y7280080D01*
X10212987Y7332807D01*
X10111127Y7360100D01*
X10005673Y7360100D01*
X9903813Y7332807D01*
X9903810Y7332806D01*
X9812485Y7280079D01*
X9737921Y7205515D01*
X9685194Y7114190D01*
X9685193Y7114187D01*
X9657900Y7012327D01*
X9657900Y6974433D01*
X9638215Y6907394D01*
X9585411Y6861639D01*
X9516253Y6851695D01*
X9452697Y6880720D01*
X9446219Y6886752D01*
X9412765Y6920206D01*
X9309992Y6965585D01*
X9284865Y6968500D01*
X8495143Y6968500D01*
X8495117Y6968498D01*
X8470012Y6965587D01*
X8470008Y6965585D01*
X8367235Y6920207D01*
X8287794Y6840766D01*
X8242415Y6737994D01*
X8242415Y6737992D01*
X8239500Y6712869D01*
X7540498Y6712869D01*
X7538465Y6730407D01*
X7537586Y6737988D01*
X7537585Y6737990D01*
X7537585Y6737991D01*
X7492206Y6840765D01*
X7412765Y6920206D01*
X7386419Y6931839D01*
X7309992Y6965585D01*
X7284865Y6968500D01*
X6495143Y6968500D01*
X6495117Y6968498D01*
X6470012Y6965587D01*
X6470008Y6965585D01*
X6367235Y6920207D01*
X6287794Y6840766D01*
X6238647Y6729458D01*
X6236491Y6730410D01*
X6206807Y6682148D01*
X6143837Y6651873D01*
X6074495Y6660448D01*
X6048285Y6675859D01*
X6045918Y6677675D01*
X6045913Y6677680D01*
X5954587Y6730407D01*
X5852727Y6757700D01*
X5747273Y6757700D01*
X5747271Y6757700D01*
X5654602Y6732870D01*
X5584752Y6734533D01*
X5526890Y6773697D01*
X5509076Y6802558D01*
X5506059Y6809390D01*
X5492206Y6840765D01*
X5412765Y6920206D01*
X5386419Y6931839D01*
X5309992Y6965585D01*
X5284865Y6968500D01*
X4495143Y6968500D01*
X4495117Y6968498D01*
X4470012Y6965587D01*
X4470008Y6965585D01*
X4367235Y6920207D01*
X4287794Y6840766D01*
X4242415Y6737994D01*
X4242415Y6737992D01*
X4239500Y6712869D01*
X2214257Y6712869D01*
X2202007Y6758587D01*
X2161988Y6827901D01*
X2145516Y6895800D01*
X2168368Y6961827D01*
X2223290Y7005018D01*
X2253696Y7010879D01*
X2253569Y7011518D01*
X2265542Y7013900D01*
X2265546Y7013900D01*
X2357615Y7052036D01*
X2599364Y7293785D01*
X2636301Y7382962D01*
X2640933Y7389893D01*
X2642030Y7394935D01*
X2663178Y7423186D01*
X2728684Y7488692D01*
X2768908Y7515569D01*
X2858085Y7552506D01*
X3081912Y7776333D01*
X3143235Y7809818D01*
X3212927Y7804834D01*
X3246638Y7783169D01*
X3247637Y7784469D01*
X3254083Y7779523D01*
X3254085Y7779522D01*
X3254087Y7779520D01*
X3345413Y7726793D01*
X3447273Y7699500D01*
X3447275Y7699500D01*
X3552725Y7699500D01*
X3552727Y7699500D01*
X3654587Y7726793D01*
X3745913Y7779520D01*
X3820480Y7854087D01*
X3873207Y7945413D01*
X3900500Y8047273D01*
X3900500Y8152727D01*
X3873207Y8254587D01*
X3820480Y8345913D01*
X3745913Y8420480D01*
X3654587Y8473207D01*
X3552727Y8500500D01*
X3447273Y8500500D01*
X3397125Y8487063D01*
X3327275Y8488726D01*
X3269412Y8527889D01*
X3245258Y8574743D01*
X3223206Y8657044D01*
X3170479Y8748370D01*
X3095912Y8822937D01*
X3004586Y8875664D01*
X2902726Y8902957D01*
X2797272Y8902957D01*
X2695412Y8875664D01*
X2695409Y8875663D01*
X2604084Y8822936D01*
X2529520Y8748372D01*
X2476793Y8657047D01*
X2476792Y8657044D01*
X2449499Y8555184D01*
X2449499Y8449730D01*
X2461519Y8404873D01*
X2476792Y8347871D01*
X2476793Y8347868D01*
X2529520Y8256543D01*
X2589701Y8196362D01*
X2623186Y8135039D01*
X2618202Y8065347D01*
X2576686Y8009681D01*
X2564071Y8000167D01*
X2508706Y7977234D01*
X2438239Y7906767D01*
X2438238Y7906766D01*
X2432126Y7900654D01*
X2227665Y7696195D01*
X2227661Y7696189D01*
X2174636Y7643164D01*
X2153214Y7591446D01*
X2109372Y7537043D01*
X2043078Y7514979D01*
X2038653Y7514900D01*
X621255Y7514900D01*
X554216Y7534585D01*
X533574Y7551219D01*
X499914Y7584879D01*
X499913Y7584880D01*
X408587Y7637607D01*
X306727Y7664900D01*
X201273Y7664900D01*
X99413Y7637607D01*
X99410Y7637606D01*
X8085Y7584879D01*
X-66478Y7510316D01*
X-66480Y7510314D01*
X-66480Y7510313D01*
X-92402Y7465414D01*
X-112442Y7430704D01*
X-163010Y7382489D01*
X-231617Y7369267D01*
X-296481Y7395235D01*
X-337009Y7452149D01*
X-343829Y7492705D01*
X-343829Y7597054D01*
X-343829Y7597056D01*
X-371122Y7698916D01*
X-423849Y7790242D01*
X-498416Y7864809D01*
X-498418Y7864810D01*
X-503687Y7868853D01*
X-544892Y7925279D01*
X-549049Y7995025D01*
X-515887Y8054910D01*
X428839Y8999636D01*
X490161Y9033119D01*
X559853Y9028135D01*
X615786Y8986263D01*
X621401Y8976402D01*
X621448Y8976432D01*
X660389Y8918153D01*
X661496Y8916496D01*
X711278Y8883233D01*
X711281Y8883233D01*
X711282Y8883232D01*
X755177Y8874500D01*
X755180Y8874500D01*
X1784822Y8874500D01*
X1828717Y8883232D01*
X1828717Y8883233D01*
X1828722Y8883233D01*
X1878504Y8916496D01*
X1911767Y8966278D01*
X1913787Y8976432D01*
X1920500Y9010178D01*
X1920500Y10039823D01*
X1911768Y10083718D01*
X1911767Y10083719D01*
X1911767Y10083722D01*
X1878504Y10133504D01*
X1873398Y10136916D01*
X1828724Y10166766D01*
X1828717Y10166769D01*
X1784822Y10175500D01*
X1784820Y10175500D01*
X755180Y10175500D01*
X755178Y10175500D01*
X711282Y10166769D01*
X711275Y10166766D01*
X661496Y10133505D01*
X661495Y10133504D01*
X628234Y10083725D01*
X628231Y10083718D01*
X619500Y10039823D01*
X619500Y9887095D01*
X613868Y9867916D01*
X613155Y9847938D01*
X604225Y9835077D01*
X599815Y9820056D01*
X584709Y9806968D01*
X573308Y9790545D01*
X549356Y9776334D01*
X547011Y9774301D01*
X542955Y9772535D01*
X508412Y9758226D01*
X508411Y9758225D01*
X481341Y9747012D01*
X458046Y9737363D01*
X-107819Y9171497D01*
X-169142Y9138012D01*
X-238834Y9142996D01*
X-294767Y9184868D01*
X-319184Y9250332D01*
X-319500Y9259178D01*
X-319500Y10069877D01*
X-299815Y10136916D01*
X-283181Y10157558D01*
X64185Y10504924D01*
X8547303Y10504924D01*
X8547303Y10399470D01*
X8574596Y10297610D01*
X8627323Y10206284D01*
X8701890Y10131717D01*
X8793216Y10078990D01*
X8895076Y10051697D01*
X8895078Y10051697D01*
X9000528Y10051697D01*
X9000530Y10051697D01*
X9102390Y10078990D01*
X9193716Y10131717D01*
X9268283Y10206284D01*
X9321010Y10297610D01*
X9348303Y10399470D01*
X9348303Y10504924D01*
X9321010Y10606784D01*
X9268283Y10698110D01*
X9200716Y10765677D01*
X11518158Y10765677D01*
X11518158Y10614145D01*
X11537767Y10540961D01*
X11557377Y10467775D01*
X11579693Y10429123D01*
X11633143Y10336546D01*
X11740293Y10229396D01*
X11847290Y10167621D01*
X11871519Y10153632D01*
X11871523Y10153630D01*
X12017892Y10114411D01*
X12017894Y10114411D01*
X12169422Y10114411D01*
X12169424Y10114411D01*
X12315793Y10153630D01*
X12447023Y10229396D01*
X12554173Y10336546D01*
X12629939Y10467776D01*
X12669158Y10614145D01*
X12669158Y10765677D01*
X12629939Y10912046D01*
X12554173Y11043276D01*
X12447023Y11150426D01*
X12381408Y11188309D01*
X12315794Y11226192D01*
X12199911Y11257242D01*
X12169424Y11265411D01*
X12017892Y11265411D01*
X11871521Y11226192D01*
X11740293Y11150426D01*
X11740290Y11150424D01*
X11633145Y11043279D01*
X11633143Y11043276D01*
X11557377Y10912048D01*
X11534161Y10825403D01*
X11518158Y10765677D01*
X9200716Y10765677D01*
X9193716Y10772677D01*
X9102390Y10825404D01*
X9000530Y10852697D01*
X8895076Y10852697D01*
X8793216Y10825404D01*
X8793213Y10825403D01*
X8701888Y10772676D01*
X8627324Y10698112D01*
X8574597Y10606787D01*
X8574596Y10606784D01*
X8547303Y10504924D01*
X64185Y10504924D01*
X2207442Y12648181D01*
X2234369Y12662885D01*
X2260188Y12679477D01*
X2266388Y12680369D01*
X2268765Y12681666D01*
X2295123Y12684500D01*
X2438036Y12684500D01*
X2505075Y12664815D01*
X2550830Y12612011D01*
X2560774Y12542853D01*
X2533724Y12483623D01*
X2534458Y12483059D01*
X2532010Y12479870D01*
X2531749Y12479297D01*
X2530738Y12478212D01*
X2529511Y12476613D01*
X2470201Y12373886D01*
X2439500Y12259309D01*
X2439500Y12140691D01*
X2470201Y12026114D01*
X2529511Y11923387D01*
X2613387Y11839511D01*
X2716114Y11780201D01*
X2830691Y11749500D01*
X2830694Y11749500D01*
X2949306Y11749500D01*
X2949309Y11749500D01*
X3063886Y11780201D01*
X3166613Y11839511D01*
X3250489Y11923387D01*
X3309799Y12026114D01*
X3340500Y12140691D01*
X3340500Y12259309D01*
X3309799Y12373886D01*
X3250489Y12476613D01*
X3166613Y12560489D01*
X3161222Y12565880D01*
X3127737Y12627203D01*
X3132721Y12696895D01*
X3145801Y12722452D01*
X3148502Y12726495D01*
X3148504Y12726496D01*
X3181767Y12776278D01*
X3190500Y12820180D01*
X3190500Y13551855D01*
X8308842Y13551855D01*
X8308842Y13400324D01*
X8348061Y13253953D01*
X8385944Y13188339D01*
X8423827Y13122724D01*
X8530977Y13015574D01*
X8662207Y12939808D01*
X8808576Y12900589D01*
X8808578Y12900589D01*
X8960106Y12900589D01*
X8960108Y12900589D01*
X9106477Y12939808D01*
X9237707Y13015574D01*
X9344857Y13122724D01*
X9420623Y13253954D01*
X9459842Y13400323D01*
X9459842Y13551855D01*
X9420623Y13698224D01*
X9344857Y13829454D01*
X9237707Y13936604D01*
X9168143Y13976767D01*
X9106478Y14012370D01*
X9033292Y14031980D01*
X8960108Y14051589D01*
X8808576Y14051589D01*
X8662205Y14012370D01*
X8530977Y13936604D01*
X8530974Y13936602D01*
X8423829Y13829457D01*
X8423827Y13829454D01*
X8348061Y13698226D01*
X8308842Y13551855D01*
X3190500Y13551855D01*
X3190500Y13849820D01*
X3190500Y13849823D01*
X3181768Y13893718D01*
X3181767Y13893719D01*
X3181767Y13893722D01*
X3148504Y13943504D01*
X3148503Y13943505D01*
X3098724Y13976766D01*
X3098717Y13976769D01*
X3054822Y13985500D01*
X3054820Y13985500D01*
X2025180Y13985500D01*
X2025178Y13985500D01*
X1981282Y13976769D01*
X1981275Y13976766D01*
X1931496Y13943505D01*
X1931495Y13943504D01*
X1898234Y13893725D01*
X1898231Y13893718D01*
X1889500Y13849823D01*
X1889500Y13090123D01*
X1869815Y13023084D01*
X1853181Y13002442D01*
X-782363Y10366899D01*
X-782364Y10366898D01*
X-825174Y10263544D01*
X-826313Y10264016D01*
X-852790Y10213397D01*
X-913506Y10178823D01*
X-942022Y10175500D01*
X-1784822Y10175500D01*
X-1828718Y10166769D01*
X-1828725Y10166766D01*
X-1878504Y10133505D01*
X-1878505Y10133504D01*
X-1911766Y10083725D01*
X-1911769Y10083718D01*
X-1920500Y10039823D01*
X-1920500Y9747012D01*
X-1940185Y9679973D01*
X-1956819Y9659331D01*
X-5287819Y6328331D01*
X-5349142Y6294846D01*
X-5418834Y6299830D01*
X-5474767Y6341702D01*
X-5499184Y6407166D01*
X-5499500Y6416012D01*
X-5499500Y7844878D01*
X-5479815Y7911917D01*
X-5463186Y7932554D01*
X-716871Y12678870D01*
X-655550Y12712353D01*
X-585858Y12707369D01*
X-560305Y12694291D01*
X-558722Y12693233D01*
X-558719Y12693233D01*
X-558718Y12693232D01*
X-514823Y12684500D01*
X-514820Y12684500D01*
X514822Y12684500D01*
X558717Y12693232D01*
X558717Y12693233D01*
X558722Y12693233D01*
X608504Y12726496D01*
X641767Y12776278D01*
X650500Y12820180D01*
X650500Y13849820D01*
X650500Y13849823D01*
X641768Y13893718D01*
X641767Y13893719D01*
X641767Y13893722D01*
X608504Y13943504D01*
X608503Y13943505D01*
X558724Y13976766D01*
X558717Y13976769D01*
X514822Y13985500D01*
X514820Y13985500D01*
X-514820Y13985500D01*
X-514822Y13985500D01*
X-558718Y13976769D01*
X-558725Y13976766D01*
X-608504Y13943505D01*
X-608505Y13943504D01*
X-641766Y13893725D01*
X-641769Y13893718D01*
X-650500Y13849823D01*
X-650500Y13505123D01*
X-670185Y13438084D01*
X-686819Y13417442D01*
X-2341519Y11762743D01*
X-2452743Y11651519D01*
X-5587819Y8516442D01*
X-5649142Y8482957D01*
X-5718834Y8487941D01*
X-5774767Y8529813D01*
X-5799184Y8595277D01*
X-5799500Y8604123D01*
X-5799500Y9669878D01*
X-5779815Y9736917D01*
X-5763181Y9757559D01*
X-4668043Y10852697D01*
X-3491717Y12029024D01*
X-3430396Y12062507D01*
X-3360704Y12057523D01*
X-3304771Y12015651D01*
X-3296655Y12003348D01*
X-3250489Y11923387D01*
X-3166613Y11839511D01*
X-3063886Y11780201D01*
X-2949309Y11749500D01*
X-2949306Y11749500D01*
X-2830694Y11749500D01*
X-2830691Y11749500D01*
X-2716114Y11780201D01*
X-2613387Y11839511D01*
X-2529511Y11923387D01*
X-2470201Y12026114D01*
X-2439500Y12140691D01*
X-2439500Y12259309D01*
X-2470201Y12373886D01*
X-2529511Y12476613D01*
X-2529516Y12476618D01*
X-2534458Y12483059D01*
X-2532239Y12484763D01*
X-2559202Y12534142D01*
X-2554218Y12603834D01*
X-2512346Y12659767D01*
X-2446882Y12684184D01*
X-2438036Y12684500D01*
X-2025178Y12684500D01*
X-1981283Y12693232D01*
X-1981283Y12693233D01*
X-1981278Y12693233D01*
X-1931496Y12726496D01*
X-1898233Y12776278D01*
X-1889500Y12820180D01*
X-1889500Y13849820D01*
X-1889500Y13849823D01*
X-1898232Y13893718D01*
X-1898233Y13893719D01*
X-1898233Y13893722D01*
X-1931496Y13943504D01*
X-1931497Y13943505D01*
X-1981276Y13976766D01*
X-1981283Y13976769D01*
X-2025178Y13985500D01*
X-2025180Y13985500D01*
X-3054820Y13985500D01*
X-3054822Y13985500D01*
X-3098718Y13976769D01*
X-3098725Y13976766D01*
X-3148504Y13943505D01*
X-3148505Y13943504D01*
X-3181766Y13893725D01*
X-3181769Y13893718D01*
X-3190500Y13849823D01*
X-3190500Y13090123D01*
X-3210185Y13023084D01*
X-3226819Y13002442D01*
X-5887819Y10341442D01*
X-5949142Y10307957D01*
X-6018834Y10312941D01*
X-6074767Y10354813D01*
X-6099184Y10420277D01*
X-6099500Y10429123D01*
X-6099500Y11909877D01*
X-6079815Y11976916D01*
X-6063181Y11997558D01*
X-5412558Y12648181D01*
X-5351235Y12681666D01*
X-5324877Y12684500D01*
X-4565178Y12684500D01*
X-4521283Y12693232D01*
X-4521283Y12693233D01*
X-4521278Y12693233D01*
X-4471496Y12726496D01*
X-4438233Y12776278D01*
X-4429500Y12820180D01*
X-4429500Y13849820D01*
X-4429500Y13849823D01*
X-4438232Y13893718D01*
X-4438233Y13893719D01*
X-4438233Y13893722D01*
X-4471496Y13943504D01*
X-4471497Y13943505D01*
X-4521276Y13976766D01*
X-4521283Y13976769D01*
X-4565178Y13985500D01*
X-4565180Y13985500D01*
X-5594820Y13985500D01*
X-5594822Y13985500D01*
X-5638718Y13976769D01*
X-5638725Y13976766D01*
X-5688504Y13943505D01*
X-5688505Y13943504D01*
X-5721766Y13893725D01*
X-5721769Y13893718D01*
X-5730500Y13849823D01*
X-5730500Y13090123D01*
X-5750185Y13023084D01*
X-5766819Y13002442D01*
X-6562363Y12206899D01*
X-6562364Y12206898D01*
X-6600500Y12114830D01*
X-6600500Y7317923D01*
X-6620185Y7250884D01*
X-6636819Y7230242D01*
X-7486642Y6380419D01*
X-7547965Y6346934D01*
X-7574323Y6344100D01*
X-7621927Y6344100D01*
X-7723787Y6316807D01*
X-7723790Y6316806D01*
X-7815115Y6264079D01*
X-7889679Y6189515D01*
X-7942406Y6098190D01*
X-7942407Y6098187D01*
X-7969700Y5996327D01*
X-7969700Y5890873D01*
X-7942407Y5789013D01*
X-7889680Y5697687D01*
X-7815113Y5623120D01*
X-7723787Y5570393D01*
X-7626508Y5544328D01*
X-7566849Y5507965D01*
X-7536319Y5445118D01*
X-7544613Y5375743D01*
X-7570921Y5336873D01*
X-8668418Y4239375D01*
X-8729741Y4205890D01*
X-8756099Y4203056D01*
X-8803703Y4203056D01*
X-8905563Y4175763D01*
X-8905566Y4175762D01*
X-8996891Y4123035D01*
X-9071455Y4048471D01*
X-9124182Y3957146D01*
X-9124183Y3957143D01*
X-9151476Y3855283D01*
X-9151476Y3749829D01*
X-9124596Y3649513D01*
X-9124183Y3647970D01*
X-9124181Y3647965D01*
X-9117586Y3636542D01*
X-9106483Y3617311D01*
X-9103128Y3611501D01*
X-9086654Y3543601D01*
X-9109506Y3477574D01*
X-9164427Y3434383D01*
X-9210514Y3425500D01*
X-11925500Y3425500D01*
X-11992539Y3445185D01*
X-12038294Y3497989D01*
X-12049500Y3549500D01*
X-12049500Y3689823D01*
X-12058232Y3733718D01*
X-12058233Y3733719D01*
X-12058233Y3733722D01*
X-12091496Y3783504D01*
X-12091602Y3783575D01*
X-12141276Y3816766D01*
X-12141283Y3816769D01*
X-12185178Y3825500D01*
X-12185180Y3825500D01*
X-13214820Y3825500D01*
X-13214822Y3825500D01*
X-13258133Y3816885D01*
X-13258135Y3816884D01*
X-13258722Y3816767D01*
X-13308504Y3783504D01*
X-13341767Y3733722D01*
X-13341884Y3733135D01*
X-13341885Y3733133D01*
X-13350500Y3689823D01*
X-13350500Y3689820D01*
X-13350500Y2660180D01*
X-13350500Y2660178D01*
X-13350501Y2660178D01*
X-14225159Y2660178D01*
X-14225159Y3149219D01*
X-14205474Y3216258D01*
X-14188840Y3236900D01*
X-13860781Y3564959D01*
X-12397559Y5028181D01*
X-12336236Y5061666D01*
X-12309878Y5064500D01*
X-12057255Y5064500D01*
X-11990216Y5044815D01*
X-11944461Y4992011D01*
X-11934517Y4922853D01*
X-11963542Y4859297D01*
X-11969574Y4852819D01*
X-12004479Y4817915D01*
X-12057206Y4726590D01*
X-12057207Y4726587D01*
X-12084500Y4624727D01*
X-12084500Y4519273D01*
X-12057207Y4417413D01*
X-12004480Y4326087D01*
X-11929913Y4251520D01*
X-11838587Y4198793D01*
X-11736727Y4171500D01*
X-11736725Y4171500D01*
X-11631275Y4171500D01*
X-11631273Y4171500D01*
X-11529413Y4198793D01*
X-11438087Y4251520D01*
X-11363520Y4326087D01*
X-11310793Y4417413D01*
X-11283500Y4519273D01*
X-11283500Y4624727D01*
X-11310793Y4726587D01*
X-11363520Y4817913D01*
X-11438087Y4892480D01*
X-11447104Y4897686D01*
X-11495316Y4948253D01*
X-11508537Y5016860D01*
X-11482568Y5081724D01*
X-11465132Y5097860D01*
X-11456500Y5106494D01*
X-11456496Y5106496D01*
X-11423233Y5156278D01*
X-11418957Y5177775D01*
X-11414500Y5200178D01*
X-11414500Y6229823D01*
X-11423232Y6273718D01*
X-11423233Y6273719D01*
X-11423233Y6273722D01*
X-11456496Y6323504D01*
X-11456497Y6323505D01*
X-11506276Y6356766D01*
X-11506283Y6356769D01*
X-11550178Y6365500D01*
X-11550180Y6365500D01*
X-12579820Y6365500D01*
X-12579822Y6365500D01*
X-12623718Y6356769D01*
X-12623725Y6356766D01*
X-12673504Y6323505D01*
X-12673505Y6323504D01*
X-12706766Y6273725D01*
X-12706769Y6273718D01*
X-12715500Y6229823D01*
X-12715500Y5470124D01*
X-12735185Y5403085D01*
X-12751819Y5382443D01*
X-14634998Y3499265D01*
X-14634997Y3499264D01*
X-14688023Y3446238D01*
X-14726159Y3354171D01*
X-14726159Y2520192D01*
X-14745844Y2453153D01*
X-14762478Y2432511D01*
X-14796138Y2398852D01*
X-14848865Y2307527D01*
X-14848866Y2307524D01*
X-14876159Y2205664D01*
X-17735077Y2205664D01*
X-17641725Y2874889D01*
X-17640804Y2880531D01*
X-17634679Y2913294D01*
X-17490125Y3686595D01*
X-17488943Y3692191D01*
X-17488185Y3695413D01*
X-17301197Y4490437D01*
X-17299778Y4495901D01*
X-17075364Y5284634D01*
X-17073673Y5290094D01*
X-17072629Y5293209D01*
X-16813072Y6067623D01*
X-16811140Y6072972D01*
X-16742331Y6250587D01*
X-16701249Y6356632D01*
X-16565312Y6707527D01*
X-13811700Y6707527D01*
X-13811700Y6602073D01*
X-13784407Y6500213D01*
X-13731680Y6408887D01*
X-13657113Y6334320D01*
X-13565787Y6281593D01*
X-13463927Y6254300D01*
X-13463925Y6254300D01*
X-13358475Y6254300D01*
X-13358473Y6254300D01*
X-13256613Y6281593D01*
X-13165287Y6334320D01*
X-13090720Y6408887D01*
X-13037993Y6500213D01*
X-13010700Y6602073D01*
X-13010700Y6656727D01*
X-9036500Y6656727D01*
X-9036500Y6551273D01*
X-9011135Y6456611D01*
X-9009207Y6449414D01*
X-9009206Y6449411D01*
X-8998527Y6430915D01*
X-8956480Y6358087D01*
X-8881913Y6283520D01*
X-8790587Y6230793D01*
X-8688727Y6203500D01*
X-8688725Y6203500D01*
X-8583275Y6203500D01*
X-8583273Y6203500D01*
X-8481413Y6230793D01*
X-8390087Y6283520D01*
X-8315520Y6358087D01*
X-8262793Y6449413D01*
X-8235500Y6551273D01*
X-8235500Y6656727D01*
X-8262793Y6758587D01*
X-8315520Y6849913D01*
X-8390087Y6924480D01*
X-8456941Y6963078D01*
X-8481411Y6977206D01*
X-8481412Y6977207D01*
X-8481413Y6977207D01*
X-8583273Y7004500D01*
X-8688727Y7004500D01*
X-8790587Y6977207D01*
X-8790590Y6977206D01*
X-8881915Y6924479D01*
X-8956479Y6849915D01*
X-9009206Y6758590D01*
X-9009207Y6758587D01*
X-9036500Y6656727D01*
X-13010700Y6656727D01*
X-13010700Y6707527D01*
X-13037993Y6809387D01*
X-13090720Y6900713D01*
X-13165287Y6975280D01*
X-13256613Y7028007D01*
X-13358473Y7055300D01*
X-13463927Y7055300D01*
X-13565787Y7028007D01*
X-13565790Y7028006D01*
X-13657115Y6975279D01*
X-13731679Y6900715D01*
X-13784406Y6809390D01*
X-13784407Y6809387D01*
X-13811700Y6707527D01*
X-16565312Y6707527D01*
X-16544812Y6760443D01*
X-16544810Y6760447D01*
X-16514913Y6837621D01*
X-16512720Y6842914D01*
X-16510145Y6848745D01*
X-16181499Y7593059D01*
X-16179105Y7598159D01*
X-15813570Y8332253D01*
X-15810903Y8337310D01*
X-15805021Y8347870D01*
X-15411877Y9053699D01*
X-15409012Y9058577D01*
X-14977290Y9755831D01*
X-14974216Y9760548D01*
X-14774494Y10052107D01*
X-9081486Y10052107D01*
X-9081486Y9946653D01*
X-9055035Y9847938D01*
X-9054193Y9844794D01*
X-9054192Y9844791D01*
X-9040064Y9820321D01*
X-9001466Y9753467D01*
X-8926899Y9678900D01*
X-8835573Y9626173D01*
X-8733713Y9598880D01*
X-8733711Y9598880D01*
X-8628261Y9598880D01*
X-8628259Y9598880D01*
X-8526399Y9626173D01*
X-8435073Y9678900D01*
X-8360506Y9753467D01*
X-8307779Y9844793D01*
X-8280486Y9946653D01*
X-8280486Y10052107D01*
X-8307779Y10153967D01*
X-8360506Y10245293D01*
X-8435073Y10319860D01*
X-8501927Y10358458D01*
X-8526397Y10372586D01*
X-8526398Y10372587D01*
X-8526399Y10372587D01*
X-8628259Y10399880D01*
X-8733713Y10399880D01*
X-8835573Y10372587D01*
X-8835576Y10372586D01*
X-8926901Y10319859D01*
X-9001465Y10245295D01*
X-9054192Y10153970D01*
X-9054193Y10153967D01*
X-9081486Y10052107D01*
X-14774494Y10052107D01*
X-14510755Y10437119D01*
X-14507452Y10441708D01*
X-14262803Y10765677D01*
X-12669158Y10765677D01*
X-12669158Y10614145D01*
X-12649549Y10540961D01*
X-12629939Y10467775D01*
X-12607623Y10429123D01*
X-12554173Y10336546D01*
X-12447023Y10229396D01*
X-12340026Y10167621D01*
X-12315797Y10153632D01*
X-12315793Y10153630D01*
X-12169424Y10114411D01*
X-12169422Y10114411D01*
X-12017894Y10114411D01*
X-12017892Y10114411D01*
X-11871523Y10153630D01*
X-11740293Y10229396D01*
X-11633143Y10336546D01*
X-11557377Y10467776D01*
X-11518158Y10614145D01*
X-11518158Y10765677D01*
X-11557377Y10912046D01*
X-11633143Y11043276D01*
X-11740293Y11150426D01*
X-11805908Y11188309D01*
X-11871522Y11226192D01*
X-11987405Y11257242D01*
X-12017892Y11265411D01*
X-12169424Y11265411D01*
X-12315795Y11226192D01*
X-12447023Y11150426D01*
X-12447026Y11150424D01*
X-12554171Y11043279D01*
X-12554173Y11043276D01*
X-12629939Y10912048D01*
X-12653155Y10825403D01*
X-12669158Y10765677D01*
X-14262803Y10765677D01*
X-14013250Y11096139D01*
X-14009734Y11100576D01*
X-13485849Y11731467D01*
X-13482125Y11735746D01*
X-12929656Y12341777D01*
X-12925742Y12345876D01*
X-12345876Y12925742D01*
X-12341777Y12929656D01*
X-11735746Y13482125D01*
X-11731467Y13485849D01*
X-11651979Y13551855D01*
X-9459842Y13551855D01*
X-9459842Y13400324D01*
X-9420623Y13253953D01*
X-9382740Y13188339D01*
X-9344857Y13122724D01*
X-9237707Y13015574D01*
X-9106477Y12939808D01*
X-8960108Y12900589D01*
X-8960106Y12900589D01*
X-8808578Y12900589D01*
X-8808576Y12900589D01*
X-8662207Y12939808D01*
X-8530977Y13015574D01*
X-8423827Y13122724D01*
X-8348061Y13253954D01*
X-8308842Y13400323D01*
X-8308842Y13551855D01*
X-8348061Y13698224D01*
X-8423827Y13829454D01*
X-8530977Y13936604D01*
X-8600541Y13976767D01*
X-8662206Y14012370D01*
X-8735392Y14031980D01*
X-8808576Y14051589D01*
X-8960108Y14051589D01*
X-9106479Y14012370D01*
X-9237707Y13936604D01*
X-9237710Y13936602D01*
X-9344855Y13829457D01*
X-9344857Y13829454D01*
X-9420623Y13698226D01*
X-9459842Y13551855D01*
X-11651979Y13551855D01*
X-11100576Y14009734D01*
X-11096139Y14013250D01*
X-10441708Y14507452D01*
X-10437119Y14510755D01*
X-9760548Y14974216D01*
X-9755831Y14977290D01*
X-9058577Y15409012D01*
X-9053699Y15411877D01*
X-8337301Y15810908D01*
X-8332253Y15813570D01*
X-7598159Y16179105D01*
X-7593059Y16181499D01*
X-6842906Y16512724D01*
X-6837631Y16514910D01*
X-6072933Y16811156D01*
X-6067624Y16813072D01*
X-5290083Y17073677D01*
X-5284634Y17075364D01*
X-4495901Y17299778D01*
X-4490437Y17301197D01*
X-3692181Y17488946D01*
X-3686595Y17490125D01*
X-2880520Y17640806D01*
X-2874889Y17641725D01*
X-2062729Y17755016D01*
X-2057078Y17755671D01*
X-1240566Y17831332D01*
X-1234861Y17831728D01*
X-415718Y17869599D01*
X-409991Y17869731D01*
X409991Y17869731D01*
X415718Y17869599D01*
G37*
%TD.AperFunction*%
%TD*%
M02*
