%TF.GenerationSoftware,KiCad,Pcbnew,10.0.3*%
%TF.CreationDate,2026-05-17T20:46:26-04:00*%
%TF.ProjectId,Smart_Watch,536d6172-745f-4576-9174-63682e6b6963,rev?*%
%TF.SameCoordinates,Original*%
%TF.FileFunction,Copper,L4,Bot*%
%TF.FilePolarity,Positive*%
%FSLAX46Y46*%
G04 Gerber Fmt 4.6, Leading zero omitted, Abs format (unit mm)*
G04 Created by KiCad (PCBNEW 10.0.3) date 2026-05-17 20:46:26*
%MOMM*%
%LPD*%
G01*
G04 APERTURE LIST*
G04 Aperture macros list*
%AMRoundRect*
0 Rectangle with rounded corners*
0 $1 Rounding radius*
0 $2 $3 $4 $5 $6 $7 $8 $9 X,Y pos of 4 corners*
0 Add a 4 corners polygon primitive as box body*
4,1,4,$2,$3,$4,$5,$6,$7,$8,$9,$2,$3,0*
0 Add four circle primitives for the rounded corners*
1,1,$1+$1,$2,$3*
1,1,$1+$1,$4,$5*
1,1,$1+$1,$6,$7*
1,1,$1+$1,$8,$9*
0 Add four rect primitives between the rounded corners*
20,1,$1+$1,$2,$3,$4,$5,0*
20,1,$1+$1,$4,$5,$6,$7,0*
20,1,$1+$1,$6,$7,$8,$9,0*
20,1,$1+$1,$8,$9,$2,$3,0*%
G04 Aperture macros list end*
%TA.AperFunction,EtchedComponent*%
%ADD10C,0.000000*%
%TD*%
%TA.AperFunction,ComponentPad*%
%ADD11C,0.500000*%
%TD*%
%TA.AperFunction,SMDPad,CuDef*%
%ADD12R,1.000000X1.000000*%
%TD*%
%TA.AperFunction,SMDPad,CuDef*%
%ADD13R,0.750000X0.350000*%
%TD*%
%TA.AperFunction,SMDPad,CuDef*%
%ADD14RoundRect,0.250000X0.262500X0.450000X-0.262500X0.450000X-0.262500X-0.450000X0.262500X-0.450000X0*%
%TD*%
%TA.AperFunction,SMDPad,CuDef*%
%ADD15C,0.500000*%
%TD*%
%TA.AperFunction,SMDPad,CuDef*%
%ADD16RoundRect,0.200000X0.275000X-0.200000X0.275000X0.200000X-0.275000X0.200000X-0.275000X-0.200000X0*%
%TD*%
%TA.AperFunction,SMDPad,CuDef*%
%ADD17RoundRect,0.225000X-0.225000X-0.250000X0.225000X-0.250000X0.225000X0.250000X-0.225000X0.250000X0*%
%TD*%
%TA.AperFunction,SMDPad,CuDef*%
%ADD18RoundRect,0.150000X0.350000X0.350000X-0.350000X0.350000X-0.350000X-0.350000X0.350000X-0.350000X0*%
%TD*%
%TA.AperFunction,SMDPad,CuDef*%
%ADD19RoundRect,0.225000X0.225000X0.250000X-0.225000X0.250000X-0.225000X-0.250000X0.225000X-0.250000X0*%
%TD*%
%TA.AperFunction,SMDPad,CuDef*%
%ADD20RoundRect,0.225000X-0.250000X0.225000X-0.250000X-0.225000X0.250000X-0.225000X0.250000X0.225000X0*%
%TD*%
%TA.AperFunction,SMDPad,CuDef*%
%ADD21RoundRect,0.225000X0.250000X-0.225000X0.250000X0.225000X-0.250000X0.225000X-0.250000X-0.225000X0*%
%TD*%
%TA.AperFunction,ViaPad*%
%ADD22C,0.500000*%
%TD*%
%TA.AperFunction,Conductor*%
%ADD23C,0.200000*%
%TD*%
G04 APERTURE END LIST*
D10*
%TA.AperFunction,EtchedComponent*%
%TO.C,NT3*%
G36*
X2050000Y-4450000D02*
G01*
X1550000Y-4450000D01*
X1550000Y-3450000D01*
X2050000Y-3450000D01*
X2050000Y-4450000D01*
G37*
%TD.AperFunction*%
%TD*%
D11*
%TO.P,U2,7,PAD_7*%
%TO.N,GND*%
X7431999Y-6331001D03*
X7431999Y-7130999D03*
%TD*%
D12*
%TO.P,PGND1,1,1_1*%
%TO.N,PGND1*%
X-3556000Y4699000D03*
%TD*%
%TO.P,+1V8,1,1_1*%
%TO.N,+1V8*%
X-2540000Y13335000D03*
%TD*%
%TO.P,VBUS_IN1,1,1_1*%
%TO.N,/Architecture/MCU/VBUS_IN*%
X1270000Y9525000D03*
%TD*%
D13*
%TO.P,U9,1*%
%TO.N,N/C*%
X680000Y2390000D03*
%TO.P,U9,2,SCL_2*%
%TO.N,/Architecture/MCU/SCL*%
X680000Y1590000D03*
%TO.P,U9,3,SDA_3*%
%TO.N,/Architecture/MCU/SDA*%
X680000Y790000D03*
%TO.P,U9,4,PGND_4*%
%TO.N,PGND3*%
X680000Y-10000D03*
%TO.P,U9,5*%
%TO.N,N/C*%
X680000Y-810000D03*
%TO.P,U9,6*%
X680000Y-1610000D03*
%TO.P,U9,7*%
X680000Y-2410000D03*
%TO.P,U9,8*%
X-1720000Y-2410000D03*
%TO.P,U9,9,VLED+_9*%
%TO.N,+1V8*%
X-1720000Y-1610000D03*
%TO.P,U9,10,VLED+__1_10*%
%TO.N,unconnected-(U9-VLED+__1-Pad10)*%
X-1720000Y-810000D03*
%TO.P,U9,11,VDD_11*%
%TO.N,+1V8*%
X-1720000Y-10000D03*
%TO.P,U9,12,GND_12*%
%TO.N,GND*%
X-1720000Y790000D03*
%TO.P,U9,13,~{INT}_13*%
%TO.N,/Architecture/MCU/MAX_INT*%
X-1720000Y1590000D03*
%TO.P,U9,14*%
%TO.N,N/C*%
X-1720000Y2390000D03*
%TD*%
D14*
%TO.P,SW2,1,1_1*%
%TO.N,GND*%
X-6502400Y-3505200D03*
%TO.P,SW2,2,2_2*%
%TO.N,/Architecture/Power/PMIC_SW*%
X-8327400Y-3505200D03*
%TD*%
D12*
%TO.P,LRA_EN1,1,1_1*%
%TO.N,/Architecture/MCU/LRA_EN*%
X-12065000Y5715000D03*
%TD*%
%TO.P,+BATT1,1,1_1*%
%TO.N,+BATT*%
X-5080000Y13335000D03*
%TD*%
D15*
%TO.P,NT3,1,1_1*%
%TO.N,GND*%
X1800000Y-4450000D03*
%TO.P,NT3,2,2_2*%
%TO.N,PGND3*%
X1800000Y-3450000D03*
%TD*%
D12*
%TO.P,VBUS_OUT1,1,1_1*%
%TO.N,/Architecture/MCU/VBUS_OUT*%
X-1270000Y9525000D03*
%TD*%
D14*
%TO.P,SW3,1,1_1*%
%TO.N,GND*%
X13142357Y-5181600D03*
%TO.P,SW3,2,2_2*%
%TO.N,/Architecture/MCU/MCU_RST*%
X11317357Y-5181600D03*
%TD*%
D12*
%TO.P,GND1,1,1_1*%
%TO.N,GND*%
X5080000Y9525000D03*
%TD*%
D16*
%TO.P,R3,1*%
%TO.N,/Architecture/MCU/MAX_INT*%
X2641600Y1720000D03*
%TO.P,R3,2*%
%TO.N,+1V8*%
X2641600Y3360000D03*
%TD*%
D12*
%TO.P,VSYS1,1,1_1*%
%TO.N,VSYS*%
X0Y13335000D03*
%TD*%
D17*
%TO.P,C2,1*%
%TO.N,GND*%
X-4724400Y0D03*
%TO.P,C2,2*%
%TO.N,+1V8*%
X-3164400Y0D03*
%TD*%
D18*
%TO.P,J3,1,Pin_1_1*%
%TO.N,/Architecture/MCU/SWDIO*%
X8890000Y6318000D03*
%TO.P,J3,2,Pin_2_2*%
%TO.N,/Architecture/MCU/SWCLK*%
X6890000Y6318000D03*
%TO.P,J3,3,Pin_3_3*%
%TO.N,/Architecture/MCU/MCU_RST*%
X4890000Y6318000D03*
%TO.P,J3,4,Pin_4_4*%
%TO.N,/Architecture/MCU/SWO*%
X8890000Y4318000D03*
%TO.P,J3,5,Pin_5_5*%
%TO.N,+1V8*%
X6890000Y4318000D03*
%TO.P,J3,6,Pin_6_6*%
%TO.N,GND*%
X4890000Y4318000D03*
%TD*%
D12*
%TO.P,LRA_PWM1,1,1_1*%
%TO.N,/Architecture/MCU/LRA_PWM*%
X-13335000Y-5715000D03*
%TD*%
%TO.P,+3V0,1,1_1*%
%TO.N,+3V0*%
X2540000Y13335000D03*
%TD*%
%TO.P,SCL1,1,1_1*%
%TO.N,/Architecture/MCU/SCL*%
X-6985000Y1270000D03*
%TD*%
%TO.P,SDA1,1,1_1*%
%TO.N,/Architecture/MCU/SDA*%
X-6985000Y-1270000D03*
%TD*%
%TO.P,QSPI_CS1,1,1_1*%
%TO.N,/Architecture/MCU/QSPI_CS*%
X5080000Y-12700000D03*
%TD*%
D19*
%TO.P,C4,1*%
%TO.N,+1V8*%
X-3182400Y1270000D03*
%TO.P,C4,2*%
%TO.N,GND*%
X-4742400Y1270000D03*
%TD*%
D20*
%TO.P,C3,1*%
%TO.N,+1V8*%
X-3098800Y-1879600D03*
%TO.P,C3,2*%
%TO.N,GND*%
X-3098800Y-3439600D03*
%TD*%
D12*
%TO.P,QSPI_CLK1,1,1_1*%
%TO.N,/Architecture/MCU/QSPI_CLK*%
X1905000Y-12700000D03*
%TD*%
%TO.P,PMIC_INT1,1,1_1*%
%TO.N,/Architecture/MCU/PMIC_INT*%
X-12700000Y3175000D03*
%TD*%
D21*
%TO.P,C1,1*%
%TO.N,GND*%
X-4368800Y-3421600D03*
%TO.P,C1,2*%
%TO.N,+1V8*%
X-4368800Y-1861600D03*
%TD*%
D12*
%TO.P,PGND2,1,1_1*%
%TO.N,PGND2*%
X-635000Y5715000D03*
%TD*%
D22*
%TO.N,PGND2*%
X-6465001Y3771900D03*
X-457200Y2794000D03*
%TO.N,GND*%
X-5638800Y-7975600D03*
X-7112000Y13208000D03*
X13360400Y-6096000D03*
X5950000Y550000D03*
X2641600Y-3251200D03*
X-13487400Y-351998D03*
X-3606800Y-5784000D03*
X3810000Y-15240000D03*
X-50800Y-3022600D03*
X-5835856Y-6813344D03*
X-4531500Y-4169000D03*
X-558800Y1397000D03*
X6875000Y13550000D03*
X2540000Y-15240000D03*
X11450000Y-3300000D03*
X-6800000Y9150000D03*
X-14986000Y-2235200D03*
X-4978400Y-7924800D03*
X12954000Y5842000D03*
X-3048000Y-15240000D03*
X6850000Y9150000D03*
X-6959600Y-13868400D03*
X13157200Y-7264400D03*
X11300000Y7600000D03*
X-11350000Y7700000D03*
X5950000Y-550000D03*
X-5928500Y-4368800D03*
X13512800Y6807200D03*
X12242800Y6908800D03*
X13919200Y5892800D03*
X-11176000Y1143000D03*
X12000000Y8725000D03*
X12903200Y7721600D03*
X-3258400Y5740400D03*
X12903200Y6502400D03*
X12852400Y-8280400D03*
X-7925000Y7950000D03*
X12344400Y-6858000D03*
X-6292000Y2786800D03*
%TO.N,+1V8*%
X6880000Y7257200D03*
X-9423400Y2057400D03*
X-7315938Y-9246338D03*
X9303600Y-5249667D03*
X4800000Y972400D03*
X-2153756Y4041603D03*
X-8750976Y3802556D03*
X-10033000Y-5704400D03*
X1550000Y3250000D03*
X1642795Y2213603D03*
X-3708400Y-8578000D03*
%TO.N,/Architecture/MCU/SDA*%
X2580484Y5496910D03*
X-9248000Y-1430100D03*
X1930400Y-9499600D03*
X8686800Y-5689600D03*
X-7557199Y-5372799D03*
X10250000Y-8350000D03*
X-8771800Y1147000D03*
X1502796Y-2247203D03*
X-6732004Y-9598800D03*
%TO.N,/Architecture/MCU/SCL*%
X-9855200Y-4724400D03*
X2641600Y-1117600D03*
X-7721600Y-7467600D03*
X4013200Y6350000D03*
X2030916Y-7490601D03*
X7213600Y-8026400D03*
X-8733101Y512499D03*
X4443600Y-743207D03*
%TO.N,/Architecture/MCU/LPS_INT*%
X-7874000Y-4775200D03*
X875490Y-4831622D03*
X1550000Y0D03*
%TO.N,+3V0*%
X-2858000Y-10317447D03*
X-3352800Y3403600D03*
X-13614400Y-3652602D03*
X-13411200Y6654800D03*
X-3708400Y6654800D03*
X-8636000Y6604000D03*
X-12852400Y-8077200D03*
%TO.N,/Architecture/MCU/BTN_2*%
X-8680986Y9999380D03*
X2641600Y50800D03*
X2837000Y7314870D03*
%TO.N,VSYS*%
X-6553200Y5029200D03*
X-14986000Y-1235200D03*
X-5892800Y-1930400D03*
X-2794000Y2131101D03*
%TO.N,/Architecture/Peripherals/MOTOR+*%
X-12471400Y1363003D03*
X762000Y-15240000D03*
%TO.N,/Architecture/Peripherals/MOTOR-*%
X-12463232Y-117001D03*
X-1270000Y-15240000D03*
%TO.N,+BATT*%
X-5834800Y-2527593D03*
X-7569200Y5943600D03*
X-11684000Y4572000D03*
%TO.N,/Architecture/MCU/OPT_INT*%
X10312400Y1500000D03*
X9670200Y-6070600D03*
X4850000Y2200000D03*
%TO.N,/Architecture/MCU/VBUS_OUT*%
X-3562307Y-2676012D03*
X-5485274Y5776615D03*
X2650000Y4400000D03*
%TO.N,/Architecture/MCU/USBC_D+*%
X3750000Y4400000D03*
X3365272Y6307200D03*
X-762000Y7213600D03*
X254000Y7264400D03*
%TO.N,/Architecture/MCU/USBC_D-*%
X762000Y6096000D03*
X-238108Y6876249D03*
%TO.N,/Architecture/MCU/VBUS_IN*%
X-2387600Y7620000D03*
X-2082800Y5588000D03*
X2336800Y6045200D03*
X-4876800Y-2641600D03*
%TO.N,PGND1*%
X-4470400Y3759200D03*
X-520113Y3824684D03*
%TO.N,/Architecture/MCU/PMIC_INT*%
X9250000Y-4400000D03*
X-6705600Y-4876800D03*
X-7975600Y3759200D03*
%TO.N,/Architecture/Power/PMIC_SW*%
X-8089900Y147000D03*
X-8178141Y-3734182D03*
%TO.N,/Architecture/MCU/CC2*%
X-1920000Y-2950000D03*
X-1805016Y6483642D03*
%TO.N,/Architecture/MCU/CC1*%
X-3937998Y-825600D03*
X-108800Y-805696D03*
X1387003Y5943600D03*
%TO.N,/Architecture/MCU/LRA_EN*%
X10312400Y3251200D03*
X-14475659Y2152937D03*
%TO.N,/Architecture/MCU/LRA_PWM*%
X9194800Y2184400D03*
X-14462399Y873001D03*
%TO.N,/Architecture/MCU/QSPI_CS*%
X6604000Y-13462000D03*
X5994400Y-4419600D03*
%TO.N,/Architecture/MCU/QSPI_IO1*%
X6604000Y-12192000D03*
X5969000Y-3302000D03*
%TO.N,/Architecture/MCU/QSPI_IO2*%
X4826000Y-4445000D03*
X3657600Y-10711600D03*
%TO.N,/Architecture/MCU/QSPI_IO0*%
X4724400Y-3251200D03*
X-406400Y-9601200D03*
X2895600Y-9811600D03*
%TO.N,/Architecture/MCU/QSPI_CLK*%
X6901600Y-10992489D03*
X7010400Y-4419600D03*
X-407629Y-11000526D03*
%TO.N,/Architecture/MCU/QSPI_IO3*%
X-406400Y-12192000D03*
X7010400Y-3302000D03*
X6901600Y-11592492D03*
%TO.N,/Architecture/MCU/USB_RST*%
X9250000Y-2200000D03*
X1828800Y6604000D03*
X10058400Y6959600D03*
X-1275000Y6814870D03*
%TO.N,/Architecture/MCU/BTN_3*%
X8680986Y-9999380D03*
X1548788Y-1116373D03*
X1299767Y-9048273D03*
%TO.N,/Architecture/MCU/CTP_INT*%
X2641600Y-7416800D03*
X2641600Y-4470400D03*
%TO.N,/Architecture/MCU/DISPLAY_CLK*%
X2946400Y-2200000D03*
X2200001Y-6294416D03*
%TO.N,/Architecture/MCU/DISPLAY_DATA*%
X3759200Y-4419600D03*
X1638999Y-6590601D03*
%TO.N,/Architecture/MCU/DISPLAY_DC*%
X3750000Y-3300000D03*
X3568998Y-6454860D03*
%TO.N,/Architecture/MCU/BMI_INT*%
X3708400Y3251200D03*
X-3048000Y-9296400D03*
X-1259188Y3410369D03*
%TO.N,/Architecture/MCU/MAX_INT*%
X5950000Y-2200000D03*
%TO.N,/Architecture/MCU/CTP_RST*%
X5943600Y3327000D03*
X932600Y-7416800D03*
X4978400Y-6908800D03*
%TO.N,/Architecture/MCU/BTN_4*%
X-8680986Y-9867447D03*
X8519929Y-8412313D03*
X7112000Y3302000D03*
%TO.N,/Architecture/MCU/BTN_1*%
X8227554Y-3202446D03*
X8680986Y9999380D03*
%TO.N,/Architecture/MCU/DISPLAY_LIGHT_IO*%
X8128000Y-2235200D03*
X-12700000Y-1574800D03*
%TO.N,/Architecture/MCU/SWDIO*%
X9250000Y-3300000D03*
%TO.N,/Architecture/MCU/SWO*%
X9250000Y3300000D03*
%TO.N,/Architecture/MCU/SWCLK*%
X10972800Y-1422400D03*
X11125200Y6096000D03*
X5890000Y6260000D03*
%TO.N,/Architecture/MCU/MCU_RST*%
X4927600Y6299200D03*
X10312400Y-2235200D03*
X8128000Y-1524000D03*
%TO.N,/Architecture/MCU/DISPLAY_RST*%
X10900000Y-3855049D03*
X10363200Y4368800D03*
X3708400Y-5232400D03*
%TO.N,/Architecture/MCU/LEDK1*%
X-1930400Y-3657600D03*
X-914400Y-6756400D03*
X-12446000Y-2489200D03*
%TO.N,/Architecture/MCU/LEDK2*%
X-11277600Y-3652602D03*
X-203200Y-6400800D03*
X-11531600Y-7467600D03*
%TD*%
%TO.N,PGND2*%
D23*
X-1542550Y2794000D02*
X-2603756Y3855206D01*
X-1116756Y5715000D02*
X-635000Y5715000D01*
X-457200Y2794000D02*
X-1542550Y2794000D01*
X-2603756Y3855206D02*
X-2603756Y4228000D01*
X-2603756Y4228000D02*
X-1116756Y5715000D01*
%TO.N,+1V8*%
X4800000Y1270000D02*
X6400800Y2870800D01*
X-3660124Y1270000D02*
X-3182400Y1270000D01*
X4800000Y972400D02*
X5872400Y-100000D01*
X-1720000Y-1610000D02*
X-1870000Y-1610000D01*
X-6050000Y9825000D02*
X-6050000Y6503532D01*
X6136397Y-100000D02*
X7460400Y-1424003D01*
X1611600Y2261600D02*
X1611600Y2330000D01*
X-2971600Y-1861600D02*
X-2295000Y-1185000D01*
X1642795Y2213603D02*
X1642795Y2230405D01*
X7460400Y-1424003D02*
X7460400Y-3406467D01*
X-9956800Y-7189598D02*
X-7900060Y-9246338D01*
X7590000Y6817130D02*
X7590000Y5018000D01*
X5872400Y-100000D02*
X6136397Y-100000D01*
X6880000Y7257200D02*
X7149930Y7257200D01*
X50800Y4724400D02*
X-1676400Y4724400D01*
X-4726924Y2336800D02*
X-3660124Y1270000D01*
X-3182400Y1270000D02*
X-3182400Y379400D01*
X-9423400Y2217200D02*
X-9303800Y2336800D01*
X-2295000Y-508000D02*
X-2295000Y-385000D01*
X7149930Y7257200D02*
X7590000Y6817130D01*
X4673600Y1143600D02*
X4800000Y1270000D01*
X-2438400Y-1041600D02*
X-2438400Y-651400D01*
X-1676400Y4724400D02*
X-2133600Y4267200D01*
X-9423400Y2057400D02*
X-9423400Y2217200D01*
X1611600Y2330000D02*
X2641600Y3360000D01*
X304400Y4470800D02*
X50800Y4724400D01*
X-9303800Y2336800D02*
X-4726924Y2336800D01*
X-10033000Y-5704400D02*
X-9956800Y-5780600D01*
X304400Y3715600D02*
X304400Y4470800D01*
X-2133600Y4061759D02*
X-2153756Y4041603D01*
X4800000Y972400D02*
X4673600Y1098800D01*
X-3182400Y379400D02*
X-2295000Y-508000D01*
X-1920000Y-10000D02*
X-1720000Y-10000D01*
X1550000Y2306398D02*
X1550000Y2470000D01*
X-7900060Y-9246338D02*
X-7315938Y-9246338D01*
X4673600Y1098800D02*
X4673600Y1143600D01*
X-2133600Y4267200D02*
X-2133600Y4061759D01*
X-2295000Y-385000D02*
X-1920000Y-10000D01*
X-4368800Y-1861600D02*
X-2971600Y-1861600D01*
X-9956800Y-5780600D02*
X-9956800Y-7189598D01*
X1642795Y2213603D02*
X1550000Y2306398D01*
X1550000Y2470000D02*
X304400Y3715600D01*
X6400800Y3844800D02*
X6890000Y4334000D01*
X7590000Y5018000D02*
X6890000Y4318000D01*
X-6050000Y6503532D02*
X-8750976Y3802556D01*
X6400800Y2870800D02*
X6400800Y3844800D01*
X1642795Y2230405D02*
X1611600Y2261600D01*
X-2438400Y-651400D02*
X-2295000Y-508000D01*
X-2295000Y-1185000D02*
X-2438400Y-1041600D01*
X7460400Y-3406467D02*
X9303600Y-5249667D01*
X-2540000Y13335000D02*
X-6050000Y9825000D01*
X-1870000Y-1610000D02*
X-2295000Y-1185000D01*
%TO.N,/Architecture/MCU/SDA*%
X-9087900Y-1270000D02*
X-9248000Y-1430100D01*
X1356600Y-2006600D02*
X126600Y-2006600D01*
X-558800Y-1321200D02*
X-558800Y-248800D01*
X-9238400Y824800D02*
X-8916200Y1147000D01*
X1509112Y-2240887D02*
X1509112Y-2159112D01*
X-8916200Y1147000D02*
X-8771800Y1147000D01*
X126600Y-2006600D02*
X-558800Y-1321200D01*
X-6985000Y-1270000D02*
X-9087900Y-1270000D01*
X-9238400Y-1420500D02*
X-9238400Y824800D01*
X-9248000Y-1430100D02*
X-9238400Y-1420500D01*
X-558800Y-248800D02*
X480000Y790000D01*
X1502796Y-2247203D02*
X1509112Y-2240887D01*
X480000Y790000D02*
X680000Y790000D01*
X1509112Y-2159112D02*
X1356600Y-2006600D01*
%TO.N,/Architecture/MCU/SCL*%
X2190000Y230000D02*
X830000Y1590000D01*
X-7975600Y1270000D02*
X-8733101Y512499D01*
X2641600Y-1117600D02*
X2190000Y-666000D01*
X830000Y1590000D02*
X680000Y1590000D01*
X-6985000Y1270000D02*
X-7975600Y1270000D01*
X2190000Y-666000D02*
X2190000Y230000D01*
%TO.N,+3V0*%
X-2716403Y6654800D02*
X-3708400Y6654800D01*
X2540000Y13335000D02*
X-570000Y10225000D01*
X-570000Y10225000D02*
X-570000Y8801203D01*
X-570000Y8801203D02*
X-2716403Y6654800D01*
%TO.N,VSYS*%
X-3655101Y2131101D02*
X-6553200Y5029200D01*
X-2794000Y2131101D02*
X-3655101Y2131101D01*
X-5750000Y6148286D02*
X-6553200Y5345086D01*
X-6553200Y5345086D02*
X-6553200Y5029200D01*
X-415000Y13335000D02*
X-5750000Y8000000D01*
X0Y13335000D02*
X-415000Y13335000D01*
X-5750000Y8000000D02*
X-5750000Y6148286D01*
%TO.N,/Architecture/Peripherals/MOTOR+*%
X-12013232Y904835D02*
X-12013232Y-891268D01*
X-9094500Y-3810000D02*
X-9094500Y-5434300D01*
X-12013232Y-891268D02*
X-9094500Y-3810000D01*
X-9094500Y-5434300D02*
X711200Y-15240000D01*
X711200Y-15240000D02*
X762000Y-15240000D01*
X-12471400Y1363003D02*
X-12013232Y904835D01*
%TO.N,/Architecture/Peripherals/MOTOR-*%
X-12463232Y-1175171D02*
X-12463232Y-117001D01*
X-1270000Y-15240000D02*
X-1270000Y-14173200D01*
X-1270000Y-14173200D02*
X-7213600Y-8229600D01*
X-9394500Y-6302700D02*
X-9394500Y-4243903D01*
X-7213600Y-8229600D02*
X-7595997Y-8229600D01*
X-8171600Y-7525600D02*
X-9394500Y-6302700D01*
X-7595997Y-8229600D02*
X-8171600Y-7653997D01*
X-8171600Y-7653997D02*
X-8171600Y-7525600D01*
X-9394500Y-4243903D02*
X-12463232Y-1175171D01*
%TO.N,+BATT*%
X-6350000Y7162800D02*
X-7569200Y5943600D01*
X-6350000Y12065000D02*
X-6350000Y7162800D01*
X-5080000Y13335000D02*
X-6350000Y12065000D01*
%TO.N,/Architecture/MCU/VBUS_OUT*%
X-1270000Y9525000D02*
X-1736889Y9525000D01*
X-1736889Y9525000D02*
X-5485274Y5776615D01*
%TO.N,/Architecture/MCU/USBC_D+*%
X3365272Y6307200D02*
X3172918Y6307200D01*
X2215718Y7264400D02*
X254000Y7264400D01*
X3172918Y6307200D02*
X2215718Y7264400D01*
%TO.N,/Architecture/MCU/USBC_D-*%
X-238108Y6876249D02*
X-235864Y6876249D01*
X-235864Y6876249D02*
X544385Y6096000D01*
X544385Y6096000D02*
X762000Y6096000D01*
%TO.N,/Architecture/MCU/VBUS_IN*%
X599945Y9525000D02*
X-2255016Y6670039D01*
X1270000Y9525000D02*
X599945Y9525000D01*
X-2255016Y5760216D02*
X-2082800Y5588000D01*
X-2255016Y6670039D02*
X-2255016Y5760216D01*
%TO.N,PGND1*%
X-4470400Y3784600D02*
X-3556000Y4699000D01*
X-4470400Y3759200D02*
X-4470400Y3784600D01*
%TO.N,/Architecture/MCU/PMIC_INT*%
X-12700000Y3175000D02*
X-8559800Y3175000D01*
X-8559800Y3175000D02*
X-7975600Y3759200D01*
%TO.N,/Architecture/MCU/LRA_EN*%
X-14475659Y3304341D02*
X-12065000Y5715000D01*
X-14475659Y2152937D02*
X-14475659Y3304341D01*
%TO.N,/Architecture/MCU/LRA_PWM*%
X-14462399Y873001D02*
X-14462399Y-4587601D01*
X-14462399Y-4587601D02*
X-13335000Y-5715000D01*
%TO.N,/Architecture/MCU/QSPI_CS*%
X5842000Y-12700000D02*
X6604000Y-13462000D01*
X5080000Y-12700000D02*
X5842000Y-12700000D01*
%TO.N,/Architecture/MCU/QSPI_CLK*%
X1905000Y-12700000D02*
X127000Y-10922000D01*
X127000Y-10922000D02*
X-329103Y-10922000D01*
X-329103Y-10922000D02*
X-407629Y-11000526D01*
%TO.N,/Architecture/MCU/DISPLAY_DATA*%
X3759200Y-4419600D02*
X3438420Y-4419600D01*
X1638999Y-6219021D02*
X1638999Y-6590601D01*
X3438420Y-4419600D02*
X1638999Y-6219021D01*
%TO.N,/Architecture/MCU/MAX_INT*%
X2641600Y1720000D02*
X1500000Y1720000D01*
X1500000Y1720000D02*
X1238800Y1981200D01*
X5950000Y-2200000D02*
X5950000Y-1588400D01*
X-1328800Y1981200D02*
X-1720000Y1590000D01*
X1238800Y1981200D02*
X-1328800Y1981200D01*
X5950000Y-1588400D02*
X2641600Y1720000D01*
%TO.N,/Architecture/MCU/SWDIO*%
X9250000Y-3300000D02*
X9862400Y-2687600D01*
X9862400Y-2687600D02*
X9862400Y5345600D01*
X9862400Y5345600D02*
X8890000Y6318000D01*
%TO.N,/Architecture/MCU/SWO*%
X9250000Y3300000D02*
X9250000Y3958000D01*
X9250000Y3958000D02*
X8890000Y4318000D01*
%TO.N,/Architecture/MCU/SWCLK*%
X5890000Y6260000D02*
X6832000Y6260000D01*
X6832000Y6260000D02*
X6890000Y6318000D01*
%TO.N,/Architecture/MCU/MCU_RST*%
X10261600Y-2387600D02*
X10261600Y-5029200D01*
X10312400Y-2235200D02*
X10312400Y-2336800D01*
X10261600Y-5029200D02*
X10414000Y-5181600D01*
X10414000Y-5181600D02*
X11317357Y-5181600D01*
X10312400Y-2336800D02*
X10261600Y-2387600D01*
%TO.N,PGND3*%
X1890000Y-566800D02*
X1890000Y-790264D01*
X680000Y-10000D02*
X880000Y-10000D01*
X2050000Y-950264D02*
X2050000Y-3200000D01*
X880000Y-10000D02*
X1436800Y-566800D01*
X1436800Y-566800D02*
X1890000Y-566800D01*
X1890000Y-790264D02*
X2050000Y-950264D01*
X2050000Y-3200000D02*
X1800000Y-3450000D01*
%TD*%
%TA.AperFunction,Conductor*%
%TO.N,GND*%
G36*
X-4815008Y2066615D02*
G01*
X-4794366Y2049981D01*
X-3819219Y1074834D01*
X-3785734Y1013511D01*
X-3782900Y987153D01*
X-3782900Y984364D01*
X-3772266Y911375D01*
X-3772266Y911374D01*
X-3772265Y911372D01*
X-3717228Y798790D01*
X-3632119Y713681D01*
X-3598634Y652358D01*
X-3603618Y582666D01*
X-3632119Y538319D01*
X-3699226Y471213D01*
X-3699228Y471211D01*
X-3754265Y358629D01*
X-3754266Y358627D01*
X-3754266Y358625D01*
X-3764900Y285636D01*
X-3764900Y285631D01*
X-3764900Y-285636D01*
X-3764576Y-290105D01*
X-3766241Y-290225D01*
X-3775073Y-352417D01*
X-3820737Y-405300D01*
X-3887743Y-425100D01*
X-3990725Y-425100D01*
X-4092585Y-452393D01*
X-4092588Y-452394D01*
X-4183913Y-505121D01*
X-4258477Y-579685D01*
X-4311204Y-671010D01*
X-4311205Y-671013D01*
X-4338498Y-772873D01*
X-4338498Y-878327D01*
X-4311205Y-980187D01*
X-4258478Y-1071513D01*
X-4258475Y-1071516D01*
X-4256406Y-1075099D01*
X-4239933Y-1142999D01*
X-4262785Y-1209026D01*
X-4317706Y-1252217D01*
X-4363793Y-1261100D01*
X-4654436Y-1261100D01*
X-4727425Y-1271734D01*
X-4727427Y-1271734D01*
X-4727429Y-1271735D01*
X-4840011Y-1326772D01*
X-4928628Y-1415389D01*
X-4983665Y-1527971D01*
X-4983666Y-1527973D01*
X-4983666Y-1527975D01*
X-4994300Y-1600964D01*
X-4994300Y-1600969D01*
X-4994300Y-2122233D01*
X-4989660Y-2154088D01*
X-4999476Y-2223265D01*
X-5045133Y-2276153D01*
X-5050364Y-2279348D01*
X-5122714Y-2321120D01*
X-5197279Y-2395685D01*
X-5223979Y-2441930D01*
X-5274547Y-2490145D01*
X-5343154Y-2503366D01*
X-5408019Y-2477397D01*
X-5440807Y-2438225D01*
X-5447469Y-2425718D01*
X-5461593Y-2373006D01*
X-5514320Y-2281680D01*
X-5535451Y-2260549D01*
X-5544139Y-2244238D01*
X-5547622Y-2227392D01*
X-5555863Y-2212299D01*
X-5554547Y-2193890D01*
X-5558283Y-2175815D01*
X-5552106Y-2159763D01*
X-5550879Y-2142607D01*
X-5542088Y-2123949D01*
X-5519593Y-2084987D01*
X-5492300Y-1983127D01*
X-5492300Y-1877673D01*
X-5519593Y-1775813D01*
X-5572320Y-1684487D01*
X-5646887Y-1609920D01*
X-5738213Y-1557193D01*
X-5840073Y-1529900D01*
X-5945527Y-1529900D01*
X-6047387Y-1557193D01*
X-6047390Y-1557194D01*
X-6094490Y-1584388D01*
X-6138713Y-1609920D01*
X-6138715Y-1609921D01*
X-6145751Y-1613984D01*
X-6147049Y-1611736D01*
X-6200194Y-1632277D01*
X-6268637Y-1618233D01*
X-6318623Y-1569414D01*
X-6334500Y-1508706D01*
X-6334500Y-755177D01*
X-6343232Y-711282D01*
X-6343233Y-711281D01*
X-6343233Y-711278D01*
X-6376496Y-661496D01*
X-6376497Y-661495D01*
X-6426276Y-628234D01*
X-6426283Y-628231D01*
X-6470178Y-619500D01*
X-6470180Y-619500D01*
X-7499820Y-619500D01*
X-7499822Y-619500D01*
X-7543718Y-628231D01*
X-7543725Y-628234D01*
X-7593504Y-661495D01*
X-7593505Y-661496D01*
X-7626766Y-711275D01*
X-7626769Y-711282D01*
X-7635500Y-755177D01*
X-7635500Y-895500D01*
X-7655185Y-962539D01*
X-7707989Y-1008294D01*
X-7759500Y-1019500D01*
X-8863900Y-1019500D01*
X-8930939Y-999815D01*
X-8976694Y-947011D01*
X-8987900Y-895500D01*
X-8987900Y4545D01*
X-8968215Y71584D01*
X-8915411Y117339D01*
X-8846253Y127283D01*
X-8831816Y124322D01*
X-8785828Y111999D01*
X-8785826Y111999D01*
X-8680377Y111999D01*
X-8680374Y111999D01*
X-8627331Y126212D01*
X-8557483Y124549D01*
X-8499620Y85387D01*
X-8475464Y38531D01*
X-8463107Y-7588D01*
X-8463106Y-7589D01*
X-8410380Y-98913D01*
X-8335813Y-173480D01*
X-8244487Y-226207D01*
X-8142627Y-253500D01*
X-8142625Y-253500D01*
X-8037175Y-253500D01*
X-8037173Y-253500D01*
X-7935313Y-226207D01*
X-7843987Y-173480D01*
X-7769420Y-98913D01*
X-7716693Y-7587D01*
X-7689400Y94273D01*
X-7689400Y199727D01*
X-7716693Y301587D01*
X-7769420Y392913D01*
X-7843987Y467480D01*
X-7935313Y520207D01*
X-8037173Y547500D01*
X-8044477Y547500D01*
X-8111516Y567185D01*
X-8157271Y619989D01*
X-8167215Y689147D01*
X-8138190Y752703D01*
X-8132158Y759181D01*
X-7908158Y983181D01*
X-7881231Y997885D01*
X-7855412Y1014477D01*
X-7849212Y1015369D01*
X-7846835Y1016666D01*
X-7820477Y1019500D01*
X-7759500Y1019500D01*
X-7692461Y999815D01*
X-7646706Y947011D01*
X-7635500Y895500D01*
X-7635500Y755180D01*
X-7635500Y755178D01*
X-7635501Y755178D01*
X-7626769Y711283D01*
X-7626766Y711276D01*
X-7593505Y661497D01*
X-7593504Y661496D01*
X-7543722Y628233D01*
X-7543719Y628233D01*
X-7543718Y628232D01*
X-7499823Y619500D01*
X-7499820Y619500D01*
X-6470178Y619500D01*
X-6426283Y628232D01*
X-6426283Y628233D01*
X-6426278Y628233D01*
X-6376496Y661496D01*
X-6343233Y711278D01*
X-6341814Y718412D01*
X-6334500Y755178D01*
X-6334500Y1784823D01*
X-6343232Y1828718D01*
X-6343233Y1828719D01*
X-6343233Y1828722D01*
X-6355631Y1847277D01*
X-6383281Y1888659D01*
X-6381081Y1890130D01*
X-6406096Y1935942D01*
X-6401112Y2005634D01*
X-6359240Y2061567D01*
X-6293776Y2085984D01*
X-6284930Y2086300D01*
X-4882047Y2086300D01*
X-4815008Y2066615D01*
G37*
%TD.AperFunction*%
%TA.AperFunction,Conductor*%
G36*
X-4171313Y6633805D02*
G01*
X-4115379Y6591933D01*
X-4094871Y6549717D01*
X-4081607Y6500212D01*
X-4081606Y6500211D01*
X-4028880Y6408887D01*
X-3954313Y6334320D01*
X-3862987Y6281593D01*
X-3761127Y6254300D01*
X-3761125Y6254300D01*
X-3655675Y6254300D01*
X-3655673Y6254300D01*
X-3553813Y6281593D01*
X-3462487Y6334320D01*
X-3428826Y6367981D01*
X-3367503Y6401466D01*
X-3341145Y6404300D01*
X-2666577Y6404300D01*
X-2666575Y6404300D01*
X-2666574Y6404301D01*
X-2654596Y6406683D01*
X-2653762Y6402487D01*
X-2607540Y6407471D01*
X-2545051Y6376217D01*
X-2509378Y6316140D01*
X-2505516Y6285434D01*
X-2505516Y5710387D01*
X-2492739Y5679542D01*
X-2483300Y5632089D01*
X-2483300Y5535273D01*
X-2456007Y5433413D01*
X-2403280Y5342087D01*
X-2328713Y5267520D01*
X-2237387Y5214793D01*
X-2234932Y5214136D01*
X-2233095Y5213016D01*
X-2229880Y5211684D01*
X-2230088Y5211183D01*
X-2175271Y5177775D01*
X-2144739Y5114929D01*
X-2153030Y5045553D01*
X-2179340Y5006679D01*
X-2693819Y4492199D01*
X-2755142Y4458714D01*
X-2824833Y4463698D01*
X-2880767Y4505569D01*
X-2905184Y4571034D01*
X-2905500Y4579880D01*
X-2905500Y5213823D01*
X-2914232Y5257718D01*
X-2914233Y5257719D01*
X-2914233Y5257722D01*
X-2947496Y5307504D01*
X-2991450Y5336873D01*
X-2997276Y5340766D01*
X-2997283Y5340769D01*
X-3041178Y5349500D01*
X-3041180Y5349500D01*
X-4070820Y5349500D01*
X-4070822Y5349500D01*
X-4114718Y5340769D01*
X-4114725Y5340766D01*
X-4164504Y5307505D01*
X-4164505Y5307504D01*
X-4197766Y5257725D01*
X-4197769Y5257718D01*
X-4206500Y5213823D01*
X-4206500Y4454123D01*
X-4215145Y4424683D01*
X-4221668Y4394696D01*
X-4225423Y4389681D01*
X-4226185Y4387084D01*
X-4242819Y4366442D01*
X-4413242Y4196019D01*
X-4474565Y4162534D01*
X-4500923Y4159700D01*
X-4523127Y4159700D01*
X-4624987Y4132407D01*
X-4624990Y4132406D01*
X-4716315Y4079679D01*
X-4790879Y4005115D01*
X-4847671Y3906748D01*
X-4849251Y3907660D01*
X-4886706Y3861184D01*
X-4953001Y3839123D01*
X-5020700Y3856405D01*
X-5045102Y3875363D01*
X-6116381Y4946642D01*
X-6149866Y5007965D01*
X-6152700Y5034323D01*
X-6152700Y5081925D01*
X-6152700Y5081927D01*
X-6179993Y5183787D01*
X-6198394Y5215659D01*
X-6214867Y5283555D01*
X-6192016Y5349582D01*
X-6178693Y5365333D01*
X-5995855Y5548172D01*
X-5934534Y5581655D01*
X-5864843Y5576671D01*
X-5809801Y5535976D01*
X-5805755Y5530703D01*
X-5805754Y5530702D01*
X-5731187Y5456135D01*
X-5639861Y5403408D01*
X-5538001Y5376115D01*
X-5537999Y5376115D01*
X-5432549Y5376115D01*
X-5432547Y5376115D01*
X-5330687Y5403408D01*
X-5239361Y5456135D01*
X-5164794Y5530702D01*
X-5112067Y5622028D01*
X-5084774Y5723888D01*
X-5084774Y5771494D01*
X-5065089Y5838533D01*
X-5048460Y5859171D01*
X-4302325Y6605306D01*
X-4241004Y6638789D01*
X-4171313Y6633805D01*
G37*
%TD.AperFunction*%
%TA.AperFunction,Conductor*%
G36*
X399974Y16169480D02*
G01*
X436612Y16167681D01*
X1186871Y16130822D01*
X1192867Y16130379D01*
X1976914Y16053158D01*
X1982926Y16052416D01*
X2762229Y15936818D01*
X2768214Y15935778D01*
X3540872Y15782087D01*
X3546776Y15780762D01*
X4263731Y15601174D01*
X4310991Y15589336D01*
X4316854Y15587714D01*
X5070755Y15359021D01*
X5076519Y15357116D01*
X5818252Y15091719D01*
X5823915Y15089535D01*
X6551768Y14788049D01*
X6557311Y14785593D01*
X7269498Y14448752D01*
X7274932Y14446016D01*
X7555742Y14295920D01*
X7969694Y14074659D01*
X7974984Y14071663D01*
X8650730Y13666636D01*
X8655824Y13663410D01*
X9310872Y13225722D01*
X9315848Y13222218D01*
X9948625Y12752917D01*
X9953423Y12749172D01*
X10562392Y12249404D01*
X10567000Y12245429D01*
X11150721Y11716376D01*
X11155129Y11712179D01*
X11712178Y11155130D01*
X11716375Y11150722D01*
X12245428Y10567001D01*
X12249403Y10562393D01*
X12749171Y9953424D01*
X12752916Y9948626D01*
X13222217Y9315849D01*
X13225721Y9310873D01*
X13266173Y9250332D01*
X13658736Y8662819D01*
X13663394Y8655849D01*
X13666650Y8650707D01*
X14071658Y7974991D01*
X14074658Y7969695D01*
X14446014Y7274935D01*
X14448751Y7269499D01*
X14785587Y6557322D01*
X14788053Y6551758D01*
X15089531Y5823924D01*
X15091721Y5818245D01*
X15253618Y5365774D01*
X15257670Y5296022D01*
X15223367Y5235153D01*
X15161601Y5202492D01*
X15136867Y5200000D01*
X14950000Y5200000D01*
X14950000Y3124000D01*
X14930315Y3056961D01*
X14877511Y3011206D01*
X14826000Y3000000D01*
X14274000Y3000000D01*
X14206961Y3019685D01*
X14161206Y3072489D01*
X14150000Y3124000D01*
X14150000Y4100000D01*
X11750000Y4100000D01*
X11750000Y-4100000D01*
X14150000Y-4100000D01*
X14150000Y-3124000D01*
X14169685Y-3056961D01*
X14222489Y-3011206D01*
X14274000Y-3000000D01*
X14826000Y-3000000D01*
X14893039Y-3019685D01*
X14938794Y-3072489D01*
X14950000Y-3124000D01*
X14950000Y-5200000D01*
X15136867Y-5200000D01*
X15203906Y-5219685D01*
X15249661Y-5272489D01*
X15259605Y-5341647D01*
X15253618Y-5365774D01*
X15091721Y-5818244D01*
X15089531Y-5823923D01*
X14788053Y-6551757D01*
X14785587Y-6557321D01*
X14448751Y-7269498D01*
X14446014Y-7274934D01*
X14074658Y-7969694D01*
X14071658Y-7974990D01*
X13666650Y-8650706D01*
X13663394Y-8655848D01*
X13225721Y-9310872D01*
X13222217Y-9315848D01*
X12752916Y-9948625D01*
X12749171Y-9953423D01*
X12249403Y-10562392D01*
X12245428Y-10567000D01*
X11716375Y-11150721D01*
X11712178Y-11155129D01*
X11155129Y-11712178D01*
X11150721Y-11716375D01*
X10567000Y-12245428D01*
X10562392Y-12249403D01*
X9953423Y-12749171D01*
X9948625Y-12752916D01*
X9315848Y-13222217D01*
X9310872Y-13225721D01*
X8655848Y-13663394D01*
X8650706Y-13666650D01*
X7974990Y-14071658D01*
X7969694Y-14074658D01*
X7274934Y-14446014D01*
X7269498Y-14448751D01*
X6557321Y-14785587D01*
X6551757Y-14788053D01*
X5823923Y-15089531D01*
X5818244Y-15091721D01*
X5076527Y-15357112D01*
X5070748Y-15359022D01*
X4316856Y-15587712D01*
X4310991Y-15589335D01*
X3546793Y-15780757D01*
X3540854Y-15782090D01*
X2768220Y-15935776D01*
X2762224Y-15936817D01*
X1982940Y-16052413D01*
X1976899Y-16053158D01*
X1192905Y-16130375D01*
X1186836Y-16130823D01*
X399975Y-16169480D01*
X393890Y-16169629D01*
X-393890Y-16169629D01*
X-399975Y-16169480D01*
X-1186837Y-16130823D01*
X-1192906Y-16130375D01*
X-1976900Y-16053158D01*
X-1982941Y-16052413D01*
X-2762225Y-15936817D01*
X-2768221Y-15935776D01*
X-3540855Y-15782090D01*
X-3546794Y-15780757D01*
X-4310992Y-15589335D01*
X-4316857Y-15587712D01*
X-5070749Y-15359022D01*
X-5076528Y-15357112D01*
X-5818245Y-15091721D01*
X-5823924Y-15089531D01*
X-6551758Y-14788053D01*
X-6557322Y-14785587D01*
X-7269499Y-14448751D01*
X-7274935Y-14446014D01*
X-7969695Y-14074658D01*
X-7974991Y-14071658D01*
X-8292546Y-13881323D01*
X-8650720Y-13666642D01*
X-8655836Y-13663402D01*
X-9144563Y-13336846D01*
X-9310873Y-13225721D01*
X-9315849Y-13222217D01*
X-9948626Y-12752916D01*
X-9953424Y-12749171D01*
X-10562393Y-12249403D01*
X-10567001Y-12245428D01*
X-10749441Y-12080074D01*
X-10841846Y-11996323D01*
X-8241842Y-11996323D01*
X-8241842Y-12147854D01*
X-8202623Y-12294225D01*
X-8177027Y-12338558D01*
X-8126857Y-12425454D01*
X-8019707Y-12532604D01*
X-7888477Y-12608370D01*
X-7742108Y-12647589D01*
X-7742106Y-12647589D01*
X-7590578Y-12647589D01*
X-7590576Y-12647589D01*
X-7444207Y-12608370D01*
X-7312977Y-12532604D01*
X-7205827Y-12425454D01*
X-7130061Y-12294224D01*
X-7090842Y-12147855D01*
X-7090842Y-11996323D01*
X-7130061Y-11849954D01*
X-7205827Y-11718724D01*
X-7312977Y-11611574D01*
X-7378592Y-11573691D01*
X-7444206Y-11535808D01*
X-7535804Y-11511265D01*
X-7590576Y-11496589D01*
X-7742108Y-11496589D01*
X-7888479Y-11535808D01*
X-8019707Y-11611574D01*
X-8019710Y-11611576D01*
X-8126855Y-11718721D01*
X-8126857Y-11718724D01*
X-8202623Y-11849952D01*
X-8241842Y-11996323D01*
X-10841846Y-11996323D01*
X-11150722Y-11716375D01*
X-11155130Y-11712178D01*
X-11712179Y-11155129D01*
X-11716376Y-11150721D01*
X-12245429Y-10567000D01*
X-12249404Y-10562392D01*
X-12749172Y-9953423D01*
X-12752917Y-9948625D01*
X-13054259Y-9542314D01*
X-13222221Y-9315844D01*
X-13225723Y-9310871D01*
X-13236871Y-9294187D01*
X-13293026Y-9210145D01*
X-11451158Y-9210145D01*
X-11451158Y-9361677D01*
X-11449262Y-9368753D01*
X-11411939Y-9508047D01*
X-11388597Y-9548475D01*
X-11336173Y-9639276D01*
X-11229023Y-9746426D01*
X-11097793Y-9822192D01*
X-10951424Y-9861411D01*
X-10951422Y-9861411D01*
X-10799894Y-9861411D01*
X-10799892Y-9861411D01*
X-10653523Y-9822192D01*
X-10640581Y-9814720D01*
X-9081486Y-9814720D01*
X-9081486Y-9920174D01*
X-9054193Y-10022034D01*
X-9001466Y-10113360D01*
X-8926899Y-10187927D01*
X-8835573Y-10240654D01*
X-8733713Y-10267947D01*
X-8733711Y-10267947D01*
X-8628261Y-10267947D01*
X-8628259Y-10267947D01*
X-8526399Y-10240654D01*
X-8435073Y-10187927D01*
X-8360506Y-10113360D01*
X-8307779Y-10022034D01*
X-8280486Y-9920174D01*
X-8280486Y-9814720D01*
X-8307779Y-9712860D01*
X-8360506Y-9621534D01*
X-8435073Y-9546967D01*
X-8526399Y-9494240D01*
X-8628259Y-9466947D01*
X-8733713Y-9466947D01*
X-8835573Y-9494240D01*
X-8835576Y-9494241D01*
X-8926901Y-9546968D01*
X-9001465Y-9621532D01*
X-9054192Y-9712857D01*
X-9054193Y-9712860D01*
X-9081486Y-9814720D01*
X-10640581Y-9814720D01*
X-10522293Y-9746426D01*
X-10415143Y-9639276D01*
X-10339377Y-9508046D01*
X-10300158Y-9361677D01*
X-10300158Y-9210145D01*
X-10339377Y-9063776D01*
X-10415143Y-8932546D01*
X-10522293Y-8825396D01*
X-10591363Y-8785518D01*
X-10653522Y-8749630D01*
X-10752144Y-8723205D01*
X-10799892Y-8710411D01*
X-10951424Y-8710411D01*
X-11097795Y-8749630D01*
X-11229023Y-8825396D01*
X-11229026Y-8825398D01*
X-11336171Y-8932543D01*
X-11336173Y-8932546D01*
X-11411939Y-9063774D01*
X-11432848Y-9141810D01*
X-11451158Y-9210145D01*
X-13293026Y-9210145D01*
X-13663410Y-8655824D01*
X-13666636Y-8650730D01*
X-14042000Y-8024473D01*
X-13252900Y-8024473D01*
X-13252900Y-8129927D01*
X-13225607Y-8231787D01*
X-13172880Y-8323113D01*
X-13098313Y-8397680D01*
X-13006987Y-8450407D01*
X-12905127Y-8477700D01*
X-12905125Y-8477700D01*
X-12799675Y-8477700D01*
X-12799673Y-8477700D01*
X-12697813Y-8450407D01*
X-12606487Y-8397680D01*
X-12531920Y-8323113D01*
X-12479193Y-8231787D01*
X-12451900Y-8129927D01*
X-12451900Y-8024473D01*
X-12479193Y-7922613D01*
X-12531920Y-7831287D01*
X-12606487Y-7756720D01*
X-12689279Y-7708920D01*
X-12697811Y-7703994D01*
X-12697812Y-7703993D01*
X-12697813Y-7703993D01*
X-12799673Y-7676700D01*
X-12905127Y-7676700D01*
X-13006987Y-7703993D01*
X-13006990Y-7703994D01*
X-13098315Y-7756721D01*
X-13172879Y-7831285D01*
X-13225606Y-7922610D01*
X-13225607Y-7922613D01*
X-13252900Y-8024473D01*
X-14042000Y-8024473D01*
X-14071670Y-7974971D01*
X-14074659Y-7969694D01*
X-14128962Y-7868100D01*
X-14371216Y-7414873D01*
X-11932100Y-7414873D01*
X-11932100Y-7520327D01*
X-11904807Y-7622187D01*
X-11852080Y-7713513D01*
X-11777513Y-7788080D01*
X-11686187Y-7840807D01*
X-11584327Y-7868100D01*
X-11584325Y-7868100D01*
X-11478875Y-7868100D01*
X-11478873Y-7868100D01*
X-11377013Y-7840807D01*
X-11285687Y-7788080D01*
X-11211120Y-7713513D01*
X-11158393Y-7622187D01*
X-11131100Y-7520327D01*
X-11131100Y-7414873D01*
X-11158393Y-7313013D01*
X-11211120Y-7221687D01*
X-11285687Y-7147120D01*
X-11352541Y-7108522D01*
X-11377011Y-7094394D01*
X-11377012Y-7094393D01*
X-11377013Y-7094393D01*
X-11478873Y-7067100D01*
X-11584327Y-7067100D01*
X-11686187Y-7094393D01*
X-11686190Y-7094394D01*
X-11777515Y-7147121D01*
X-11852079Y-7221685D01*
X-11904806Y-7313010D01*
X-11904807Y-7313013D01*
X-11932100Y-7414873D01*
X-14371216Y-7414873D01*
X-14446016Y-7274932D01*
X-14448752Y-7269498D01*
X-14785593Y-6557311D01*
X-14788054Y-6551757D01*
X-14788447Y-6550809D01*
X-15089535Y-5823915D01*
X-15091722Y-5818244D01*
X-15103329Y-5785806D01*
X-15357116Y-5076519D01*
X-15359023Y-5070748D01*
X-15359456Y-5069322D01*
X-15587714Y-4316854D01*
X-15589336Y-4310991D01*
X-15593298Y-4295173D01*
X-15780762Y-3546776D01*
X-15782091Y-3540854D01*
X-15783466Y-3533942D01*
X-15935778Y-2768214D01*
X-15936818Y-2762224D01*
X-15940839Y-2735114D01*
X-16052416Y-1982926D01*
X-16053159Y-1976899D01*
X-16054625Y-1962011D01*
X-16130379Y-1192867D01*
X-16130823Y-1186842D01*
X-16130823Y-1186836D01*
X-16131037Y-1182473D01*
X-15386500Y-1182473D01*
X-15386500Y-1287927D01*
X-15359207Y-1389787D01*
X-15306480Y-1481113D01*
X-15231913Y-1555680D01*
X-15140587Y-1608407D01*
X-15038727Y-1635700D01*
X-15038725Y-1635700D01*
X-14933276Y-1635700D01*
X-14933273Y-1635700D01*
X-14868989Y-1618475D01*
X-14799144Y-1620138D01*
X-14741281Y-1659300D01*
X-14713776Y-1723528D01*
X-14712899Y-1738250D01*
X-14712899Y-4637430D01*
X-14674763Y-4729498D01*
X-14021819Y-5382442D01*
X-13988334Y-5443765D01*
X-13985500Y-5470123D01*
X-13985500Y-6229820D01*
X-13985500Y-6229822D01*
X-13985501Y-6229822D01*
X-13976769Y-6273717D01*
X-13976766Y-6273724D01*
X-13948175Y-6316514D01*
X-13943504Y-6323504D01*
X-13893722Y-6356767D01*
X-13893719Y-6356767D01*
X-13893718Y-6356768D01*
X-13849823Y-6365500D01*
X-13849820Y-6365500D01*
X-12820178Y-6365500D01*
X-12776283Y-6356768D01*
X-12776283Y-6356767D01*
X-12776278Y-6356767D01*
X-12726496Y-6323504D01*
X-12693233Y-6273722D01*
X-12693232Y-6273717D01*
X-12684500Y-6229822D01*
X-12684500Y-5200177D01*
X-12693232Y-5156282D01*
X-12693233Y-5156281D01*
X-12693233Y-5156278D01*
X-12726496Y-5106496D01*
X-12743581Y-5095080D01*
X-12776276Y-5073234D01*
X-12776283Y-5073231D01*
X-12820178Y-5064500D01*
X-12820180Y-5064500D01*
X-13579877Y-5064500D01*
X-13646916Y-5044815D01*
X-13667558Y-5028181D01*
X-14175580Y-4520159D01*
X-14209065Y-4458836D01*
X-14211899Y-4432478D01*
X-14211899Y-3881477D01*
X-14192214Y-3814438D01*
X-14139410Y-3768683D01*
X-14070252Y-3758739D01*
X-14006696Y-3787764D01*
X-13980514Y-3819474D01*
X-13934880Y-3898515D01*
X-13860313Y-3973082D01*
X-13768987Y-4025809D01*
X-13667127Y-4053102D01*
X-13667125Y-4053102D01*
X-13561675Y-4053102D01*
X-13561673Y-4053102D01*
X-13459813Y-4025809D01*
X-13368487Y-3973082D01*
X-13293920Y-3898515D01*
X-13241193Y-3807189D01*
X-13213900Y-3705329D01*
X-13213900Y-3599875D01*
X-11678100Y-3599875D01*
X-11678100Y-3705329D01*
X-11652110Y-3802324D01*
X-11650807Y-3807188D01*
X-11650806Y-3807191D01*
X-11647920Y-3812189D01*
X-11598080Y-3898515D01*
X-11523513Y-3973082D01*
X-11432187Y-4025809D01*
X-11330327Y-4053102D01*
X-11330325Y-4053102D01*
X-11224875Y-4053102D01*
X-11224873Y-4053102D01*
X-11123013Y-4025809D01*
X-11031687Y-3973082D01*
X-10957120Y-3898515D01*
X-10904393Y-3807189D01*
X-10877100Y-3705329D01*
X-10877100Y-3599875D01*
X-10904393Y-3498015D01*
X-10957120Y-3406689D01*
X-11031687Y-3332122D01*
X-11123013Y-3279395D01*
X-11224873Y-3252102D01*
X-11330327Y-3252102D01*
X-11432187Y-3279395D01*
X-11432190Y-3279396D01*
X-11523515Y-3332123D01*
X-11598079Y-3406687D01*
X-11650806Y-3498012D01*
X-11650807Y-3498015D01*
X-11678100Y-3599875D01*
X-13213900Y-3599875D01*
X-13241193Y-3498015D01*
X-13293920Y-3406689D01*
X-13368487Y-3332122D01*
X-13459813Y-3279395D01*
X-13561673Y-3252102D01*
X-13667127Y-3252102D01*
X-13768987Y-3279395D01*
X-13768990Y-3279396D01*
X-13860315Y-3332123D01*
X-13934878Y-3406686D01*
X-13934880Y-3406688D01*
X-13934880Y-3406689D01*
X-13980514Y-3485728D01*
X-14031079Y-3533942D01*
X-14099687Y-3547164D01*
X-14164551Y-3521196D01*
X-14205079Y-3464282D01*
X-14211899Y-3423726D01*
X-14211899Y-1522073D01*
X-13100500Y-1522073D01*
X-13100500Y-1627527D01*
X-13073207Y-1729387D01*
X-13020480Y-1820713D01*
X-12945913Y-1895280D01*
X-12854587Y-1948007D01*
X-12759673Y-1973438D01*
X-12700015Y-2009801D01*
X-12669485Y-2072648D01*
X-12677779Y-2142023D01*
X-12704086Y-2180893D01*
X-12766480Y-2243287D01*
X-12819206Y-2334610D01*
X-12819207Y-2334613D01*
X-12846500Y-2436473D01*
X-12846500Y-2541927D01*
X-12819225Y-2643717D01*
X-12819207Y-2643786D01*
X-12819206Y-2643789D01*
X-12809632Y-2660372D01*
X-12766480Y-2735113D01*
X-12691913Y-2809680D01*
X-12600587Y-2862407D01*
X-12498727Y-2889700D01*
X-12498725Y-2889700D01*
X-12393275Y-2889700D01*
X-12393273Y-2889700D01*
X-12291413Y-2862407D01*
X-12200087Y-2809680D01*
X-12125520Y-2735113D01*
X-12072793Y-2643787D01*
X-12045500Y-2541927D01*
X-12045500Y-2436473D01*
X-12072793Y-2334613D01*
X-12125520Y-2243287D01*
X-12200087Y-2168720D01*
X-12291413Y-2115993D01*
X-12386328Y-2090560D01*
X-12390575Y-2087972D01*
X-12395541Y-2087704D01*
X-12420110Y-2069969D01*
X-12445987Y-2054197D01*
X-12448161Y-2049722D01*
X-12452194Y-2046811D01*
X-12463276Y-2018607D01*
X-12476516Y-1991351D01*
X-12475926Y-1986411D01*
X-12477745Y-1981781D01*
X-12471820Y-1952065D01*
X-12468222Y-1921975D01*
X-12464788Y-1916805D01*
X-12464081Y-1913260D01*
X-12446988Y-1890006D01*
X-12443424Y-1884642D01*
X-12442718Y-1883910D01*
X-12379520Y-1820713D01*
X-12376312Y-1815156D01*
X-12366291Y-1804781D01*
X-12341806Y-1790853D01*
X-12319059Y-1774241D01*
X-12311843Y-1773810D01*
X-12305559Y-1770236D01*
X-12277434Y-1771757D01*
X-12249314Y-1770079D01*
X-12242913Y-1773623D01*
X-12235792Y-1774009D01*
X-12214626Y-1789287D01*
X-12189419Y-1803245D01*
X-9871174Y-4121490D01*
X-9837689Y-4182813D01*
X-9842673Y-4252505D01*
X-9884545Y-4308438D01*
X-9926760Y-4328946D01*
X-9967305Y-4339810D01*
X-10009787Y-4351193D01*
X-10009788Y-4351193D01*
X-10009790Y-4351194D01*
X-10101115Y-4403921D01*
X-10175679Y-4478485D01*
X-10228406Y-4569810D01*
X-10228407Y-4569813D01*
X-10255700Y-4671673D01*
X-10255700Y-4777127D01*
X-10230845Y-4869886D01*
X-10228407Y-4878986D01*
X-10228406Y-4878989D01*
X-10214278Y-4903459D01*
X-10175680Y-4970313D01*
X-10101113Y-5044880D01*
X-10049066Y-5074929D01*
X-10000852Y-5125495D01*
X-9987628Y-5194102D01*
X-10013596Y-5258967D01*
X-10070510Y-5299495D01*
X-10078973Y-5302090D01*
X-10187589Y-5331193D01*
X-10187590Y-5331194D01*
X-10278915Y-5383921D01*
X-10353479Y-5458485D01*
X-10406206Y-5549810D01*
X-10406207Y-5549813D01*
X-10433500Y-5651673D01*
X-10433500Y-5757127D01*
X-10406207Y-5858987D01*
X-10353480Y-5950313D01*
X-10278913Y-6024880D01*
X-10278912Y-6024881D01*
X-10278910Y-6024882D01*
X-10269302Y-6030429D01*
X-10221086Y-6080995D01*
X-10207300Y-6137817D01*
X-10207300Y-7239427D01*
X-10169164Y-7331495D01*
X-8112425Y-9388233D01*
X-8112424Y-9388235D01*
X-8041957Y-9458702D01*
X-8003820Y-9474498D01*
X-7949887Y-9496839D01*
X-7949886Y-9496839D01*
X-7835798Y-9496839D01*
X-7835790Y-9496838D01*
X-7683193Y-9496838D01*
X-7616154Y-9516523D01*
X-7595512Y-9533157D01*
X-7561851Y-9566818D01*
X-7470525Y-9619545D01*
X-7368665Y-9646838D01*
X-7368663Y-9646838D01*
X-7263215Y-9646838D01*
X-7263211Y-9646838D01*
X-7262212Y-9646570D01*
X-7261337Y-9646590D01*
X-7255155Y-9645777D01*
X-7255029Y-9646740D01*
X-7192365Y-9648229D01*
X-7134500Y-9687388D01*
X-7110340Y-9734247D01*
X-7105212Y-9753384D01*
X-7105210Y-9753389D01*
X-7103824Y-9755789D01*
X-7052484Y-9844713D01*
X-6977917Y-9919280D01*
X-6886591Y-9972007D01*
X-6784731Y-9999300D01*
X-6784729Y-9999300D01*
X-6679279Y-9999300D01*
X-6679277Y-9999300D01*
X-6577417Y-9972007D01*
X-6486091Y-9919280D01*
X-6411524Y-9844713D01*
X-6358797Y-9753387D01*
X-6347876Y-9712627D01*
X-6311514Y-9652969D01*
X-6248667Y-9622438D01*
X-6179292Y-9630732D01*
X-6140421Y-9657040D01*
X-1556819Y-14240641D01*
X-1523334Y-14301964D01*
X-1520500Y-14328322D01*
X-1520500Y-14872745D01*
X-1540185Y-14939784D01*
X-1556819Y-14960426D01*
X-1590479Y-14994085D01*
X-1643206Y-15085410D01*
X-1643207Y-15085413D01*
X-1670500Y-15187273D01*
X-1670500Y-15292727D01*
X-1643207Y-15394587D01*
X-1590480Y-15485913D01*
X-1515913Y-15560480D01*
X-1424587Y-15613207D01*
X-1322727Y-15640500D01*
X-1322725Y-15640500D01*
X-1217275Y-15640500D01*
X-1217273Y-15640500D01*
X-1115413Y-15613207D01*
X-1024087Y-15560480D01*
X-949520Y-15485913D01*
X-896793Y-15394587D01*
X-869500Y-15292727D01*
X-869500Y-15187273D01*
X-896793Y-15085413D01*
X-949520Y-14994087D01*
X-983181Y-14960426D01*
X-1016666Y-14899103D01*
X-1019500Y-14872745D01*
X-1019500Y-14237468D01*
X-1019500Y-14223029D01*
X-1019499Y-14223028D01*
X-1019499Y-14162921D01*
X-999814Y-14095882D01*
X-947009Y-14050128D01*
X-895239Y-14042684D01*
X-877852Y-14040185D01*
X-877850Y-14040185D01*
X-838000Y-14058384D01*
X-814296Y-14069210D01*
X-807818Y-14075242D01*
X325181Y-15208241D01*
X358666Y-15269564D01*
X360291Y-15284686D01*
X360439Y-15284667D01*
X361500Y-15292725D01*
X361500Y-15292727D01*
X388793Y-15394587D01*
X441520Y-15485913D01*
X516087Y-15560480D01*
X607413Y-15613207D01*
X709273Y-15640500D01*
X709275Y-15640500D01*
X814725Y-15640500D01*
X814727Y-15640500D01*
X916587Y-15613207D01*
X1007913Y-15560480D01*
X1082480Y-15485913D01*
X1135207Y-15394587D01*
X1162500Y-15292727D01*
X1162500Y-15187273D01*
X1135207Y-15085413D01*
X1082480Y-14994087D01*
X1007913Y-14919520D01*
X916587Y-14866793D01*
X814727Y-14839500D01*
X716322Y-14839500D01*
X649283Y-14819815D01*
X628641Y-14803181D01*
X-1955712Y-12218827D01*
X-2035266Y-12139273D01*
X-806900Y-12139273D01*
X-806900Y-12244727D01*
X-779607Y-12346587D01*
X-726880Y-12437913D01*
X-652313Y-12512480D01*
X-560987Y-12565207D01*
X-459127Y-12592500D01*
X-459125Y-12592500D01*
X-353675Y-12592500D01*
X-353673Y-12592500D01*
X-251813Y-12565207D01*
X-160487Y-12512480D01*
X-85920Y-12437913D01*
X-33193Y-12346587D01*
X-5900Y-12244727D01*
X-5900Y-12139273D01*
X-33193Y-12037413D01*
X-85920Y-11946087D01*
X-160487Y-11871520D01*
X-251813Y-11818793D01*
X-353673Y-11791500D01*
X-459127Y-11791500D01*
X-560987Y-11818793D01*
X-560990Y-11818794D01*
X-652315Y-11871521D01*
X-726879Y-11946085D01*
X-779606Y-12037410D01*
X-779607Y-12037413D01*
X-806900Y-12139273D01*
X-2035266Y-12139273D01*
X-3226740Y-10947799D01*
X-808129Y-10947799D01*
X-808129Y-11053253D01*
X-780836Y-11155113D01*
X-728109Y-11246439D01*
X-653542Y-11321006D01*
X-562216Y-11373733D01*
X-460356Y-11401026D01*
X-460354Y-11401026D01*
X-354904Y-11401026D01*
X-354902Y-11401026D01*
X-253042Y-11373733D01*
X-161716Y-11321006D01*
X-87149Y-11246439D01*
X-87147Y-11246434D01*
X-82668Y-11241956D01*
X-21345Y-11208471D01*
X48347Y-11213455D01*
X92695Y-11241956D01*
X1218181Y-12367441D01*
X1251666Y-12428764D01*
X1254500Y-12455122D01*
X1254500Y-13214820D01*
X1254500Y-13214822D01*
X1254499Y-13214822D01*
X1263231Y-13258717D01*
X1263232Y-13258721D01*
X1263233Y-13258722D01*
X1296496Y-13308504D01*
X1346278Y-13341767D01*
X1346281Y-13341767D01*
X1346282Y-13341768D01*
X1390177Y-13350500D01*
X1390180Y-13350500D01*
X2419822Y-13350500D01*
X2463717Y-13341768D01*
X2463717Y-13341767D01*
X2463722Y-13341767D01*
X2513504Y-13308504D01*
X2546767Y-13258722D01*
X2555248Y-13216087D01*
X2555500Y-13214822D01*
X4429499Y-13214822D01*
X4438231Y-13258717D01*
X4438232Y-13258721D01*
X4438233Y-13258722D01*
X4471496Y-13308504D01*
X4521278Y-13341767D01*
X4521281Y-13341767D01*
X4521282Y-13341768D01*
X4565177Y-13350500D01*
X4565180Y-13350500D01*
X5594822Y-13350500D01*
X5638717Y-13341768D01*
X5638717Y-13341767D01*
X5638722Y-13341767D01*
X5688504Y-13308504D01*
X5721767Y-13258722D01*
X5730379Y-13215426D01*
X5762763Y-13153518D01*
X5823478Y-13118943D01*
X5893248Y-13122682D01*
X5939677Y-13151938D01*
X6167181Y-13379441D01*
X6200666Y-13440764D01*
X6203500Y-13467122D01*
X6203500Y-13514727D01*
X6230793Y-13616587D01*
X6283520Y-13707913D01*
X6358087Y-13782480D01*
X6449413Y-13835207D01*
X6551273Y-13862500D01*
X6551275Y-13862500D01*
X6656725Y-13862500D01*
X6656727Y-13862500D01*
X6758587Y-13835207D01*
X6849913Y-13782480D01*
X6924480Y-13707913D01*
X6977207Y-13616587D01*
X7004500Y-13514727D01*
X7004500Y-13409273D01*
X6977207Y-13307413D01*
X6924480Y-13216087D01*
X6849913Y-13141520D01*
X6758587Y-13088793D01*
X6656727Y-13061500D01*
X6656726Y-13061500D01*
X6609122Y-13061500D01*
X6542083Y-13041815D01*
X6521441Y-13025181D01*
X6446760Y-12950500D01*
X5983897Y-12487636D01*
X5891829Y-12449500D01*
X5891828Y-12449500D01*
X5854500Y-12449500D01*
X5787461Y-12429815D01*
X5741706Y-12377011D01*
X5730500Y-12325500D01*
X5730500Y-12185177D01*
X5721768Y-12141282D01*
X5721767Y-12141281D01*
X5721767Y-12141278D01*
X5720427Y-12139273D01*
X6203500Y-12139273D01*
X6203500Y-12244727D01*
X6230793Y-12346587D01*
X6283520Y-12437913D01*
X6358087Y-12512480D01*
X6449413Y-12565207D01*
X6551273Y-12592500D01*
X6551275Y-12592500D01*
X6656725Y-12592500D01*
X6656727Y-12592500D01*
X6758587Y-12565207D01*
X6849913Y-12512480D01*
X6924480Y-12437913D01*
X6961365Y-12374026D01*
X7011928Y-12325814D01*
X7080535Y-12312590D01*
X7145400Y-12338558D01*
X7176136Y-12374028D01*
X7205827Y-12425454D01*
X7312977Y-12532604D01*
X7444207Y-12608370D01*
X7590576Y-12647589D01*
X7590578Y-12647589D01*
X7742106Y-12647589D01*
X7742108Y-12647589D01*
X7888477Y-12608370D01*
X8019707Y-12532604D01*
X8126857Y-12425454D01*
X8202623Y-12294224D01*
X8241842Y-12147855D01*
X8241842Y-11996323D01*
X8202623Y-11849954D01*
X8126857Y-11718724D01*
X8019707Y-11611574D01*
X7954092Y-11573691D01*
X7888478Y-11535808D01*
X7796880Y-11511265D01*
X7742108Y-11496589D01*
X7590576Y-11496589D01*
X7444207Y-11535808D01*
X7444205Y-11535808D01*
X7436356Y-11537912D01*
X7435887Y-11536162D01*
X7376497Y-11542543D01*
X7314020Y-11511265D01*
X7287777Y-11476298D01*
X7282045Y-11464918D01*
X7274807Y-11437905D01*
X7224876Y-11351422D01*
X7223290Y-11348273D01*
X7217613Y-11317253D01*
X7210174Y-11286590D01*
X7211299Y-11282755D01*
X7210712Y-11279544D01*
X7216063Y-11266531D01*
X7226645Y-11230494D01*
X7274807Y-11147076D01*
X7302100Y-11045216D01*
X7302100Y-10939762D01*
X7274807Y-10837902D01*
X7222080Y-10746576D01*
X7147513Y-10672009D01*
X7056187Y-10619282D01*
X6954327Y-10591989D01*
X6848873Y-10591989D01*
X6747013Y-10619282D01*
X6747010Y-10619283D01*
X6655685Y-10672010D01*
X6581121Y-10746574D01*
X6528394Y-10837899D01*
X6528393Y-10837902D01*
X6501100Y-10939762D01*
X6501100Y-11045216D01*
X6519022Y-11112100D01*
X6528393Y-11147075D01*
X6528394Y-11147078D01*
X6533033Y-11155113D01*
X6576552Y-11230490D01*
X6593025Y-11298389D01*
X6576553Y-11354488D01*
X6528393Y-11437904D01*
X6528393Y-11437905D01*
X6501100Y-11539765D01*
X6501100Y-11645220D01*
X6509827Y-11677790D01*
X6508164Y-11747640D01*
X6469000Y-11805502D01*
X6452053Y-11817269D01*
X6449413Y-11818792D01*
X6449413Y-11818793D01*
X6395441Y-11849954D01*
X6358084Y-11871522D01*
X6283521Y-11946085D01*
X6230794Y-12037410D01*
X6230793Y-12037413D01*
X6203500Y-12139273D01*
X5720427Y-12139273D01*
X5688504Y-12091496D01*
X5671410Y-12080074D01*
X5638724Y-12058234D01*
X5638717Y-12058231D01*
X5594822Y-12049500D01*
X5594820Y-12049500D01*
X4565180Y-12049500D01*
X4565178Y-12049500D01*
X4521282Y-12058231D01*
X4521275Y-12058234D01*
X4471496Y-12091495D01*
X4471495Y-12091496D01*
X4438234Y-12141275D01*
X4438231Y-12141282D01*
X4429500Y-12185177D01*
X4429500Y-12185180D01*
X4429500Y-13214820D01*
X4429500Y-13214822D01*
X4429499Y-13214822D01*
X2555500Y-13214822D01*
X2555500Y-12185177D01*
X2546768Y-12141282D01*
X2546767Y-12141281D01*
X2546767Y-12141278D01*
X2513504Y-12091496D01*
X2496410Y-12080074D01*
X2463724Y-12058234D01*
X2463717Y-12058231D01*
X2419822Y-12049500D01*
X2419820Y-12049500D01*
X1660122Y-12049500D01*
X1593083Y-12029815D01*
X1572441Y-12013181D01*
X297688Y-10738427D01*
X268897Y-10709636D01*
X176829Y-10671500D01*
X176828Y-10671500D01*
X-143293Y-10671500D01*
X-190417Y-10658873D01*
X3257100Y-10658873D01*
X3257100Y-10764327D01*
X3284393Y-10866187D01*
X3337120Y-10957513D01*
X3411687Y-11032080D01*
X3503013Y-11084807D01*
X3604873Y-11112100D01*
X3604875Y-11112100D01*
X3710325Y-11112100D01*
X3710327Y-11112100D01*
X3812187Y-11084807D01*
X3903513Y-11032080D01*
X3978080Y-10957513D01*
X4030807Y-10866187D01*
X4058100Y-10764327D01*
X4058100Y-10658873D01*
X4030807Y-10557013D01*
X3978080Y-10465687D01*
X3903513Y-10391120D01*
X3812187Y-10338393D01*
X3710327Y-10311100D01*
X3604873Y-10311100D01*
X3503013Y-10338393D01*
X3503010Y-10338394D01*
X3411685Y-10391121D01*
X3337121Y-10465685D01*
X3284394Y-10557010D01*
X3284393Y-10557013D01*
X3257100Y-10658873D01*
X-190417Y-10658873D01*
X-205293Y-10654887D01*
X-253040Y-10627320D01*
X-253041Y-10627319D01*
X-253042Y-10627319D01*
X-354902Y-10600026D01*
X-460356Y-10600026D01*
X-562216Y-10627319D01*
X-562219Y-10627320D01*
X-653544Y-10680047D01*
X-728108Y-10754611D01*
X-780835Y-10845936D01*
X-780836Y-10845939D01*
X-808129Y-10947799D01*
X-3226740Y-10947799D01*
X-3909819Y-10264720D01*
X-3258500Y-10264720D01*
X-3258500Y-10370174D01*
X-3231207Y-10472034D01*
X-3178480Y-10563360D01*
X-3103913Y-10637927D01*
X-3012587Y-10690654D01*
X-2910727Y-10717947D01*
X-2910725Y-10717947D01*
X-2805275Y-10717947D01*
X-2805273Y-10717947D01*
X-2703413Y-10690654D01*
X-2612087Y-10637927D01*
X-2537520Y-10563360D01*
X-2484793Y-10472034D01*
X-2457500Y-10370174D01*
X-2457500Y-10264720D01*
X-2484793Y-10162860D01*
X-2537520Y-10071534D01*
X-2612087Y-9996967D01*
X-2678941Y-9958369D01*
X-2703411Y-9944241D01*
X-2703412Y-9944240D01*
X-2703413Y-9944240D01*
X-2805273Y-9916947D01*
X-2910727Y-9916947D01*
X-3012587Y-9944240D01*
X-3012589Y-9944241D01*
X-3012590Y-9944241D01*
X-3103915Y-9996968D01*
X-3178479Y-10071532D01*
X-3231206Y-10162857D01*
X-3231207Y-10162860D01*
X-3258500Y-10264720D01*
X-3909819Y-10264720D01*
X-5649266Y-8525273D01*
X-4108900Y-8525273D01*
X-4108900Y-8630727D01*
X-4081607Y-8732587D01*
X-4028880Y-8823913D01*
X-3954313Y-8898480D01*
X-3862987Y-8951207D01*
X-3761127Y-8978500D01*
X-3761125Y-8978500D01*
X-3655676Y-8978500D01*
X-3655673Y-8978500D01*
X-3555911Y-8951769D01*
X-3486065Y-8953432D01*
X-3428202Y-8992594D01*
X-3400698Y-9056823D01*
X-3412284Y-9125725D01*
X-3416431Y-9133538D01*
X-3421204Y-9141804D01*
X-3421207Y-9141813D01*
X-3448500Y-9243673D01*
X-3448500Y-9349127D01*
X-3421207Y-9450987D01*
X-3368480Y-9542313D01*
X-3293913Y-9616880D01*
X-3202587Y-9669607D01*
X-3100727Y-9696900D01*
X-3100725Y-9696900D01*
X-3042344Y-9696900D01*
X-2995273Y-9696900D01*
X-2893413Y-9669607D01*
X-2802087Y-9616880D01*
X-2733680Y-9548473D01*
X-806900Y-9548473D01*
X-806900Y-9653927D01*
X-779607Y-9755787D01*
X-726880Y-9847113D01*
X-652313Y-9921680D01*
X-560987Y-9974407D01*
X-459127Y-10001700D01*
X-459125Y-10001700D01*
X-353675Y-10001700D01*
X-353673Y-10001700D01*
X-251813Y-9974407D01*
X-160487Y-9921680D01*
X-85920Y-9847113D01*
X-33193Y-9755787D01*
X-5900Y-9653927D01*
X-5900Y-9548473D01*
X-33193Y-9446613D01*
X-85920Y-9355287D01*
X-160487Y-9280720D01*
X-251813Y-9227993D01*
X-353673Y-9200700D01*
X-459127Y-9200700D01*
X-560987Y-9227993D01*
X-560990Y-9227994D01*
X-652315Y-9280721D01*
X-726879Y-9355285D01*
X-779606Y-9446610D01*
X-779607Y-9446613D01*
X-806900Y-9548473D01*
X-2733680Y-9548473D01*
X-2727520Y-9542313D01*
X-2674793Y-9450987D01*
X-2647500Y-9349127D01*
X-2647500Y-9243673D01*
X-2674793Y-9141813D01*
X-2727520Y-9050487D01*
X-2782461Y-8995546D01*
X899267Y-8995546D01*
X899267Y-9101000D01*
X926560Y-9202860D01*
X979287Y-9294186D01*
X1053854Y-9368753D01*
X1145180Y-9421480D01*
X1247040Y-9448773D01*
X1247042Y-9448773D01*
X1352492Y-9448773D01*
X1352494Y-9448773D01*
X1374110Y-9442981D01*
X1443957Y-9444642D01*
X1501820Y-9483804D01*
X1529142Y-9546568D01*
X1529900Y-9552326D01*
X1529900Y-9552327D01*
X1557124Y-9653927D01*
X1557193Y-9654186D01*
X1557194Y-9654189D01*
X1558840Y-9657040D01*
X1609920Y-9745513D01*
X1684487Y-9820080D01*
X1775813Y-9872807D01*
X1877673Y-9900100D01*
X1877675Y-9900100D01*
X1983125Y-9900100D01*
X1983127Y-9900100D01*
X2084987Y-9872807D01*
X2176313Y-9820080D01*
X2250880Y-9745513D01*
X2263714Y-9723282D01*
X2314279Y-9675069D01*
X2382886Y-9661845D01*
X2447751Y-9687813D01*
X2488280Y-9744727D01*
X2495100Y-9785284D01*
X2495100Y-9864327D01*
X2522393Y-9966185D01*
X2522393Y-9966186D01*
X2522394Y-9966189D01*
X2525753Y-9972007D01*
X2575120Y-10057513D01*
X2649687Y-10132080D01*
X2741013Y-10184807D01*
X2842873Y-10212100D01*
X2842875Y-10212100D01*
X2948325Y-10212100D01*
X2948327Y-10212100D01*
X3050187Y-10184807D01*
X3141513Y-10132080D01*
X3216080Y-10057513D01*
X3268807Y-9966187D01*
X3274041Y-9946653D01*
X8280486Y-9946653D01*
X8280486Y-10052107D01*
X8307779Y-10153967D01*
X8360506Y-10245293D01*
X8435073Y-10319860D01*
X8526399Y-10372587D01*
X8628259Y-10399880D01*
X8628261Y-10399880D01*
X8733711Y-10399880D01*
X8733713Y-10399880D01*
X8835573Y-10372587D01*
X8926899Y-10319860D01*
X9001466Y-10245293D01*
X9054193Y-10153967D01*
X9081486Y-10052107D01*
X9081486Y-9946653D01*
X9054193Y-9844793D01*
X9001466Y-9753467D01*
X8926899Y-9678900D01*
X8852821Y-9636131D01*
X8835575Y-9626174D01*
X8835574Y-9626173D01*
X8835573Y-9626173D01*
X8733713Y-9598880D01*
X8628259Y-9598880D01*
X8526399Y-9626173D01*
X8526396Y-9626174D01*
X8435071Y-9678901D01*
X8360507Y-9753465D01*
X8307780Y-9844790D01*
X8307779Y-9844793D01*
X8280486Y-9946653D01*
X3274041Y-9946653D01*
X3296100Y-9864327D01*
X3296100Y-9758873D01*
X3268807Y-9657013D01*
X3216080Y-9565687D01*
X3141513Y-9491120D01*
X3072004Y-9450989D01*
X3050189Y-9438394D01*
X3050188Y-9438393D01*
X3050187Y-9438393D01*
X2948327Y-9411100D01*
X2842873Y-9411100D01*
X2741013Y-9438393D01*
X2741010Y-9438394D01*
X2649685Y-9491121D01*
X2575122Y-9565684D01*
X2575120Y-9565686D01*
X2575120Y-9565687D01*
X2562285Y-9587917D01*
X2511719Y-9636131D01*
X2443112Y-9649353D01*
X2378248Y-9623385D01*
X2337720Y-9566471D01*
X2330900Y-9525915D01*
X2330900Y-9446875D01*
X2330900Y-9446873D01*
X2303607Y-9345013D01*
X2250880Y-9253687D01*
X2176313Y-9179120D01*
X2084987Y-9126393D01*
X1983127Y-9099100D01*
X1877673Y-9099100D01*
X1877668Y-9099100D01*
X1856054Y-9104892D01*
X1786204Y-9103228D01*
X1728343Y-9064065D01*
X1701023Y-9001297D01*
X1700267Y-8995557D01*
X1700267Y-8995546D01*
X1672974Y-8893686D01*
X1620247Y-8802360D01*
X1545680Y-8727793D01*
X1454354Y-8675066D01*
X1352494Y-8647773D01*
X1247040Y-8647773D01*
X1145180Y-8675066D01*
X1145177Y-8675067D01*
X1053852Y-8727794D01*
X979288Y-8802358D01*
X926561Y-8893683D01*
X926560Y-8893686D01*
X899267Y-8995546D01*
X-2782461Y-8995546D01*
X-2802087Y-8975920D01*
X-2893413Y-8923193D01*
X-2995273Y-8895900D01*
X-3100727Y-8895900D01*
X-3200487Y-8922630D01*
X-3270337Y-8920967D01*
X-3328200Y-8881804D01*
X-3355703Y-8817575D01*
X-3344116Y-8748673D01*
X-3339980Y-8740877D01*
X-3335193Y-8732587D01*
X-3307900Y-8630727D01*
X-3307900Y-8525273D01*
X-3335193Y-8423413D01*
X-3387920Y-8332087D01*
X-3462487Y-8257520D01*
X-3553813Y-8204793D01*
X-3655673Y-8177500D01*
X-3761127Y-8177500D01*
X-3862987Y-8204793D01*
X-3862990Y-8204794D01*
X-3954315Y-8257521D01*
X-4028879Y-8332085D01*
X-4081606Y-8423410D01*
X-4081607Y-8423413D01*
X-4108900Y-8525273D01*
X-5649266Y-8525273D01*
X-6200866Y-7973673D01*
X6813100Y-7973673D01*
X6813100Y-8079127D01*
X6840393Y-8180987D01*
X6893120Y-8272313D01*
X6967687Y-8346880D01*
X7059013Y-8399607D01*
X7160873Y-8426900D01*
X7160875Y-8426900D01*
X7266325Y-8426900D01*
X7266327Y-8426900D01*
X7368187Y-8399607D01*
X7437506Y-8359586D01*
X8119429Y-8359586D01*
X8119429Y-8465040D01*
X8146722Y-8566900D01*
X8199449Y-8658226D01*
X8274016Y-8732793D01*
X8365342Y-8785520D01*
X8467202Y-8812813D01*
X8467204Y-8812813D01*
X8572654Y-8812813D01*
X8572656Y-8812813D01*
X8674516Y-8785520D01*
X8765842Y-8732793D01*
X8840409Y-8658226D01*
X8893136Y-8566900D01*
X8920429Y-8465040D01*
X8920429Y-8359586D01*
X8913060Y-8332085D01*
X8910156Y-8321245D01*
X8910154Y-8321240D01*
X8903732Y-8297273D01*
X9849500Y-8297273D01*
X9849500Y-8402727D01*
X9876793Y-8504587D01*
X9929520Y-8595913D01*
X10004087Y-8670480D01*
X10095413Y-8723207D01*
X10197273Y-8750500D01*
X10197275Y-8750500D01*
X10305473Y-8750500D01*
X10372512Y-8770185D01*
X10418267Y-8822989D01*
X10428211Y-8892147D01*
X10412860Y-8936500D01*
X10339378Y-9063772D01*
X10339378Y-9063773D01*
X10339378Y-9063774D01*
X10339377Y-9063776D01*
X10300158Y-9210145D01*
X10300158Y-9361677D01*
X10302054Y-9368753D01*
X10339377Y-9508047D01*
X10362719Y-9548475D01*
X10415143Y-9639276D01*
X10522293Y-9746426D01*
X10653523Y-9822192D01*
X10799892Y-9861411D01*
X10799894Y-9861411D01*
X10951422Y-9861411D01*
X10951424Y-9861411D01*
X11097793Y-9822192D01*
X11229023Y-9746426D01*
X11336173Y-9639276D01*
X11411939Y-9508046D01*
X11451158Y-9361677D01*
X11451158Y-9210145D01*
X11411939Y-9063776D01*
X11336173Y-8932546D01*
X11229023Y-8825396D01*
X11159953Y-8785518D01*
X11097794Y-8749630D01*
X10999172Y-8723205D01*
X10951424Y-8710411D01*
X10799892Y-8710411D01*
X10739451Y-8726606D01*
X10669601Y-8724943D01*
X10611739Y-8685780D01*
X10584235Y-8621551D01*
X10595822Y-8552649D01*
X10599957Y-8544857D01*
X10623207Y-8504587D01*
X10650500Y-8402727D01*
X10650500Y-8297273D01*
X10623207Y-8195413D01*
X10570480Y-8104087D01*
X10495913Y-8029520D01*
X10404587Y-7976793D01*
X10302727Y-7949500D01*
X10197273Y-7949500D01*
X10095413Y-7976793D01*
X10095410Y-7976794D01*
X10004085Y-8029521D01*
X9929521Y-8104085D01*
X9876794Y-8195410D01*
X9876793Y-8195413D01*
X9849500Y-8297273D01*
X8903732Y-8297273D01*
X8897045Y-8272315D01*
X8893136Y-8257726D01*
X8840409Y-8166400D01*
X8765842Y-8091833D01*
X8674516Y-8039106D01*
X8572656Y-8011813D01*
X8467202Y-8011813D01*
X8365342Y-8039106D01*
X8365339Y-8039107D01*
X8274014Y-8091834D01*
X8199450Y-8166398D01*
X8146723Y-8257723D01*
X8146723Y-8257724D01*
X8146722Y-8257726D01*
X8119429Y-8359586D01*
X7437506Y-8359586D01*
X7459513Y-8346880D01*
X7534080Y-8272313D01*
X7586807Y-8180987D01*
X7614100Y-8079127D01*
X7614100Y-7973673D01*
X7586807Y-7871813D01*
X7534080Y-7780487D01*
X7459513Y-7705920D01*
X7368187Y-7653193D01*
X7266327Y-7625900D01*
X7160873Y-7625900D01*
X7059013Y-7653193D01*
X7059010Y-7653194D01*
X6967685Y-7705921D01*
X6893121Y-7780485D01*
X6840394Y-7871810D01*
X6840393Y-7871813D01*
X6813100Y-7973673D01*
X-6200866Y-7973673D01*
X-6810466Y-7364073D01*
X532100Y-7364073D01*
X532100Y-7469527D01*
X559393Y-7571387D01*
X612120Y-7662713D01*
X686687Y-7737280D01*
X778013Y-7790007D01*
X879873Y-7817300D01*
X879875Y-7817300D01*
X985325Y-7817300D01*
X985327Y-7817300D01*
X1087187Y-7790007D01*
X1178513Y-7737280D01*
X1253080Y-7662713D01*
X1305807Y-7571387D01*
X1333100Y-7469527D01*
X1333100Y-7364073D01*
X1305807Y-7262213D01*
X1253080Y-7170887D01*
X1178513Y-7096320D01*
X1087187Y-7043593D01*
X985327Y-7016300D01*
X879873Y-7016300D01*
X778013Y-7043593D01*
X778010Y-7043594D01*
X686685Y-7096321D01*
X612121Y-7170885D01*
X559394Y-7262210D01*
X559393Y-7262213D01*
X532100Y-7364073D01*
X-6810466Y-7364073D01*
X-7470866Y-6703673D01*
X-1314900Y-6703673D01*
X-1314900Y-6809127D01*
X-1287607Y-6910987D01*
X-1234880Y-7002313D01*
X-1160313Y-7076880D01*
X-1068987Y-7129607D01*
X-967127Y-7156900D01*
X-967125Y-7156900D01*
X-861675Y-7156900D01*
X-861673Y-7156900D01*
X-759813Y-7129607D01*
X-668487Y-7076880D01*
X-593920Y-7002313D01*
X-541193Y-6910987D01*
X-526429Y-6855886D01*
X-490065Y-6796228D01*
X-427219Y-6765698D01*
X-365843Y-6772667D01*
X-365638Y-6771903D01*
X-360538Y-6773269D01*
X-359196Y-6773422D01*
X-357797Y-6774001D01*
X-357787Y-6774007D01*
X-255927Y-6801300D01*
X-255925Y-6801300D01*
X-150475Y-6801300D01*
X-150473Y-6801300D01*
X-48613Y-6774007D01*
X42713Y-6721280D01*
X117280Y-6646713D01*
X170007Y-6555387D01*
X174700Y-6537874D01*
X1238499Y-6537874D01*
X1238499Y-6643328D01*
X1259386Y-6721278D01*
X1265792Y-6745187D01*
X1265793Y-6745190D01*
X1274497Y-6760265D01*
X1318519Y-6836514D01*
X1393086Y-6911081D01*
X1484412Y-6963808D01*
X1586272Y-6991101D01*
X1586274Y-6991101D01*
X1664661Y-6991101D01*
X1731700Y-7010786D01*
X1777455Y-7063590D01*
X1787399Y-7132748D01*
X1758374Y-7196304D01*
X1752342Y-7202782D01*
X1710437Y-7244686D01*
X1657710Y-7336011D01*
X1657709Y-7336014D01*
X1630416Y-7437874D01*
X1630416Y-7543328D01*
X1657709Y-7645188D01*
X1710436Y-7736514D01*
X1785003Y-7811081D01*
X1876329Y-7863808D01*
X1978189Y-7891101D01*
X1978191Y-7891101D01*
X2083641Y-7891101D01*
X2083643Y-7891101D01*
X2185503Y-7863808D01*
X2276829Y-7811081D01*
X2307837Y-7780072D01*
X2317135Y-7773662D01*
X2340018Y-7766128D01*
X2361163Y-7754582D01*
X2372604Y-7755400D01*
X2383500Y-7751813D01*
X2406821Y-7757846D01*
X2430855Y-7759565D01*
X2449512Y-7768356D01*
X2487013Y-7790007D01*
X2588873Y-7817300D01*
X2588875Y-7817300D01*
X2694325Y-7817300D01*
X2694327Y-7817300D01*
X2796187Y-7790007D01*
X2887513Y-7737280D01*
X2962080Y-7662713D01*
X3014807Y-7571387D01*
X3042100Y-7469527D01*
X3042100Y-7364073D01*
X3014807Y-7262213D01*
X2962080Y-7170887D01*
X2887513Y-7096320D01*
X2796187Y-7043593D01*
X2694327Y-7016300D01*
X2588873Y-7016300D01*
X2487013Y-7043593D01*
X2487010Y-7043594D01*
X2395687Y-7096320D01*
X2372672Y-7119335D01*
X2311348Y-7152819D01*
X2241656Y-7147833D01*
X2222994Y-7139039D01*
X2188865Y-7119335D01*
X2185507Y-7117396D01*
X2185505Y-7117395D01*
X2185503Y-7117394D01*
X2083643Y-7090101D01*
X2005254Y-7090101D01*
X1938215Y-7070416D01*
X1892460Y-7017612D01*
X1882516Y-6948454D01*
X1904937Y-6893214D01*
X1910671Y-6885321D01*
X1939920Y-6856073D01*
X4577900Y-6856073D01*
X4577900Y-6961527D01*
X4605193Y-7063387D01*
X4657920Y-7154713D01*
X4732487Y-7229280D01*
X4823813Y-7282007D01*
X4925673Y-7309300D01*
X4925675Y-7309300D01*
X5031125Y-7309300D01*
X5031127Y-7309300D01*
X5132987Y-7282007D01*
X5224313Y-7229280D01*
X5298880Y-7154713D01*
X5351607Y-7063387D01*
X5378900Y-6961527D01*
X5378900Y-6856073D01*
X5351607Y-6754213D01*
X5298880Y-6662887D01*
X5224313Y-6588320D01*
X5132987Y-6535593D01*
X5031127Y-6508300D01*
X4925673Y-6508300D01*
X4823813Y-6535593D01*
X4823810Y-6535594D01*
X4732485Y-6588321D01*
X4657921Y-6662885D01*
X4605194Y-6754210D01*
X4605193Y-6754213D01*
X4577900Y-6856073D01*
X1939920Y-6856073D01*
X1959479Y-6836514D01*
X2011117Y-6747073D01*
X2014933Y-6741822D01*
X2037664Y-6724294D01*
X2058430Y-6704494D01*
X2064978Y-6703231D01*
X2070263Y-6699157D01*
X2098858Y-6696701D01*
X2127037Y-6691270D01*
X2138344Y-6693310D01*
X2139877Y-6693179D01*
X2141052Y-6693799D01*
X2147141Y-6694898D01*
X2147272Y-6694915D01*
X2147274Y-6694916D01*
X2147276Y-6694916D01*
X2252726Y-6694916D01*
X2252728Y-6694916D01*
X2354588Y-6667623D01*
X2445914Y-6614896D01*
X2520481Y-6540329D01*
X2573208Y-6449003D01*
X2585767Y-6402133D01*
X3168498Y-6402133D01*
X3168498Y-6507587D01*
X3195791Y-6609447D01*
X3248518Y-6700773D01*
X3323085Y-6775340D01*
X3414411Y-6828067D01*
X3516271Y-6855360D01*
X3516273Y-6855360D01*
X3621723Y-6855360D01*
X3621725Y-6855360D01*
X3723585Y-6828067D01*
X3814911Y-6775340D01*
X3889478Y-6700773D01*
X3942205Y-6609447D01*
X3969498Y-6507587D01*
X3969498Y-6402133D01*
X3942205Y-6300273D01*
X3889478Y-6208947D01*
X3814911Y-6134380D01*
X3723585Y-6081653D01*
X3621725Y-6054360D01*
X3516271Y-6054360D01*
X3414411Y-6081653D01*
X3414408Y-6081654D01*
X3323083Y-6134381D01*
X3248519Y-6208945D01*
X3195792Y-6300270D01*
X3195791Y-6300273D01*
X3168498Y-6402133D01*
X2585767Y-6402133D01*
X2600501Y-6347143D01*
X2600501Y-6241689D01*
X2573208Y-6139829D01*
X2520481Y-6048503D01*
X2445914Y-5973936D01*
X2445913Y-5973935D01*
X2440640Y-5969889D01*
X2399437Y-5913461D01*
X2395283Y-5843715D01*
X2428444Y-5783835D01*
X3096219Y-5116059D01*
X3157542Y-5082575D01*
X3227234Y-5087559D01*
X3283167Y-5129431D01*
X3307584Y-5194895D01*
X3307900Y-5203741D01*
X3307900Y-5285127D01*
X3334372Y-5383921D01*
X3335193Y-5386986D01*
X3335194Y-5386989D01*
X3345162Y-5404254D01*
X3387920Y-5478313D01*
X3462487Y-5552880D01*
X3553813Y-5605607D01*
X3655673Y-5632900D01*
X3655675Y-5632900D01*
X3761125Y-5632900D01*
X3761127Y-5632900D01*
X3862987Y-5605607D01*
X3954313Y-5552880D01*
X4028880Y-5478313D01*
X4081607Y-5386987D01*
X4108900Y-5285127D01*
X4108900Y-5179673D01*
X4081607Y-5077813D01*
X4028880Y-4986487D01*
X3978232Y-4935839D01*
X3944747Y-4874516D01*
X3949731Y-4804824D01*
X3991603Y-4748891D01*
X4003901Y-4740779D01*
X4005113Y-4740080D01*
X4079680Y-4665513D01*
X4132407Y-4574187D01*
X4159700Y-4472327D01*
X4159700Y-4392273D01*
X4425500Y-4392273D01*
X4425500Y-4497727D01*
X4452793Y-4599587D01*
X4505520Y-4690913D01*
X4580087Y-4765480D01*
X4671413Y-4818207D01*
X4773273Y-4845500D01*
X4773275Y-4845500D01*
X4878725Y-4845500D01*
X4878727Y-4845500D01*
X4980587Y-4818207D01*
X5071913Y-4765480D01*
X5146480Y-4690913D01*
X5199207Y-4599587D01*
X5226500Y-4497727D01*
X5226500Y-4392273D01*
X5219694Y-4366873D01*
X5593900Y-4366873D01*
X5593900Y-4472327D01*
X5621193Y-4574187D01*
X5673920Y-4665513D01*
X5748487Y-4740080D01*
X5839813Y-4792807D01*
X5941673Y-4820100D01*
X5941675Y-4820100D01*
X6047125Y-4820100D01*
X6047127Y-4820100D01*
X6148987Y-4792807D01*
X6240313Y-4740080D01*
X6314880Y-4665513D01*
X6367607Y-4574187D01*
X6382625Y-4518135D01*
X6418990Y-4458476D01*
X6481837Y-4427947D01*
X6551212Y-4436242D01*
X6605090Y-4480727D01*
X6622174Y-4518134D01*
X6637193Y-4574187D01*
X6689920Y-4665513D01*
X6764487Y-4740080D01*
X6855813Y-4792807D01*
X6957673Y-4820100D01*
X6957675Y-4820100D01*
X7063125Y-4820100D01*
X7063127Y-4820100D01*
X7164987Y-4792807D01*
X7256313Y-4740080D01*
X7330880Y-4665513D01*
X7383607Y-4574187D01*
X7410900Y-4472327D01*
X7410900Y-4366873D01*
X7383607Y-4265013D01*
X7330880Y-4173687D01*
X7256313Y-4099120D01*
X7164987Y-4046393D01*
X7063127Y-4019100D01*
X6957673Y-4019100D01*
X6855813Y-4046393D01*
X6855810Y-4046394D01*
X6764485Y-4099121D01*
X6689921Y-4173685D01*
X6637194Y-4265010D01*
X6637193Y-4265011D01*
X6633792Y-4277704D01*
X6623582Y-4315813D01*
X6622175Y-4321063D01*
X6585810Y-4380723D01*
X6522963Y-4411252D01*
X6453587Y-4402957D01*
X6399709Y-4358472D01*
X6382625Y-4321063D01*
X6381498Y-4316856D01*
X6367607Y-4265013D01*
X6314880Y-4173687D01*
X6240313Y-4099120D01*
X6148987Y-4046393D01*
X6047127Y-4019100D01*
X5941673Y-4019100D01*
X5839813Y-4046393D01*
X5839810Y-4046394D01*
X5748485Y-4099121D01*
X5673921Y-4173685D01*
X5621194Y-4265010D01*
X5621194Y-4265011D01*
X5621193Y-4265013D01*
X5593900Y-4366873D01*
X5219694Y-4366873D01*
X5199207Y-4290413D01*
X5146480Y-4199087D01*
X5071913Y-4124520D01*
X4980587Y-4071793D01*
X4878727Y-4044500D01*
X4773273Y-4044500D01*
X4671413Y-4071793D01*
X4671410Y-4071794D01*
X4580085Y-4124521D01*
X4505521Y-4199085D01*
X4452794Y-4290410D01*
X4452793Y-4290413D01*
X4425500Y-4392273D01*
X4159700Y-4392273D01*
X4159700Y-4366873D01*
X4132407Y-4265013D01*
X4079680Y-4173687D01*
X4005113Y-4099120D01*
X3913787Y-4046393D01*
X3811927Y-4019100D01*
X3706473Y-4019100D01*
X3604613Y-4046393D01*
X3604610Y-4046394D01*
X3513285Y-4099121D01*
X3479627Y-4132780D01*
X3418304Y-4166265D01*
X3391946Y-4169099D01*
X3388592Y-4169099D01*
X3361626Y-4180269D01*
X3334660Y-4191439D01*
X3296523Y-4207236D01*
X3296521Y-4207237D01*
X3226056Y-4277702D01*
X3226056Y-4277703D01*
X3226055Y-4277704D01*
X3208586Y-4295173D01*
X3192447Y-4311312D01*
X3131123Y-4344796D01*
X3061432Y-4339810D01*
X3005499Y-4297938D01*
X2997380Y-4285629D01*
X2962080Y-4224487D01*
X2887513Y-4149920D01*
X2801049Y-4100000D01*
X2796189Y-4097194D01*
X2796188Y-4097193D01*
X2796187Y-4097193D01*
X2694327Y-4069900D01*
X2588873Y-4069900D01*
X2487013Y-4097193D01*
X2487010Y-4097194D01*
X2395685Y-4149921D01*
X2321121Y-4224485D01*
X2268394Y-4315810D01*
X2268393Y-4315813D01*
X2241100Y-4417673D01*
X2241100Y-4523127D01*
X2268393Y-4624987D01*
X2321120Y-4716313D01*
X2395687Y-4790880D01*
X2456831Y-4826181D01*
X2505045Y-4876747D01*
X2518269Y-4945354D01*
X2492301Y-5010218D01*
X2482511Y-5021248D01*
X1479661Y-6024097D01*
X1479660Y-6024097D01*
X1479661Y-6024098D01*
X1426635Y-6077124D01*
X1388499Y-6169191D01*
X1388499Y-6223346D01*
X1368814Y-6290385D01*
X1352180Y-6311027D01*
X1318520Y-6344686D01*
X1265793Y-6436011D01*
X1265792Y-6436014D01*
X1238499Y-6537874D01*
X174700Y-6537874D01*
X197300Y-6453527D01*
X197300Y-6348073D01*
X170007Y-6246213D01*
X117280Y-6154887D01*
X42713Y-6080320D01*
X-29857Y-6038422D01*
X-48611Y-6027594D01*
X-48612Y-6027593D01*
X-48613Y-6027593D01*
X-150473Y-6000300D01*
X-255927Y-6000300D01*
X-357787Y-6027593D01*
X-357790Y-6027594D01*
X-449115Y-6080321D01*
X-523679Y-6154885D01*
X-576406Y-6246210D01*
X-576409Y-6246217D01*
X-591172Y-6301313D01*
X-627537Y-6360973D01*
X-690385Y-6391501D01*
X-751758Y-6384532D01*
X-751962Y-6385297D01*
X-757061Y-6383930D01*
X-758398Y-6383779D01*
X-759810Y-6383194D01*
X-759813Y-6383193D01*
X-861673Y-6355900D01*
X-967127Y-6355900D01*
X-1068987Y-6383193D01*
X-1068990Y-6383194D01*
X-1160315Y-6435921D01*
X-1234879Y-6510485D01*
X-1287606Y-6601810D01*
X-1287607Y-6601813D01*
X-1314900Y-6703673D01*
X-7470866Y-6703673D01*
X-8807681Y-5366858D01*
X-8841166Y-5305535D01*
X-8844000Y-5279177D01*
X-8844000Y-4465632D01*
X-8824315Y-4398593D01*
X-8771511Y-4352838D01*
X-8702353Y-4342894D01*
X-8700601Y-4343159D01*
X-8682953Y-4345954D01*
X-8621419Y-4355700D01*
X-8309032Y-4355699D01*
X-8241994Y-4375383D01*
X-8196239Y-4428187D01*
X-8186295Y-4497346D01*
X-8201646Y-4541699D01*
X-8247206Y-4620610D01*
X-8247207Y-4620613D01*
X-8274500Y-4722473D01*
X-8274500Y-4827927D01*
X-8247207Y-4929787D01*
X-8194480Y-5021113D01*
X-8119913Y-5095680D01*
X-8028587Y-5148407D01*
X-8028583Y-5148408D01*
X-8023852Y-5150368D01*
X-7969446Y-5194206D01*
X-7947378Y-5260499D01*
X-7951523Y-5297021D01*
X-7957187Y-5318161D01*
X-7957699Y-5320072D01*
X-7957699Y-5425526D01*
X-7930406Y-5527386D01*
X-7877679Y-5618712D01*
X-7803112Y-5693279D01*
X-7711786Y-5746006D01*
X-7609926Y-5773299D01*
X-7609924Y-5773299D01*
X-7504474Y-5773299D01*
X-7504472Y-5773299D01*
X-7402612Y-5746006D01*
X-7311286Y-5693279D01*
X-7236719Y-5618712D01*
X-7183992Y-5527386D01*
X-7156699Y-5425526D01*
X-7156699Y-5320072D01*
X-7156972Y-5319053D01*
X-7156951Y-5318161D01*
X-7157760Y-5312016D01*
X-7156802Y-5311889D01*
X-7155313Y-5249206D01*
X-7116153Y-5191341D01*
X-7051926Y-5163834D01*
X-6983024Y-5175417D01*
X-6958425Y-5192932D01*
X-6957963Y-5192331D01*
X-6951517Y-5197277D01*
X-6951515Y-5197278D01*
X-6951513Y-5197280D01*
X-6860187Y-5250007D01*
X-6758327Y-5277300D01*
X-6758325Y-5277300D01*
X-6652875Y-5277300D01*
X-6652873Y-5277300D01*
X-6551013Y-5250007D01*
X-6459687Y-5197280D01*
X-6385120Y-5122713D01*
X-6332393Y-5031387D01*
X-6305100Y-4929527D01*
X-6305100Y-4824073D01*
X-6317205Y-4778895D01*
X474990Y-4778895D01*
X474990Y-4884349D01*
X489288Y-4937708D01*
X502283Y-4986208D01*
X502284Y-4986211D01*
X504326Y-4989747D01*
X555010Y-5077535D01*
X629577Y-5152102D01*
X720903Y-5204829D01*
X822763Y-5232122D01*
X822765Y-5232122D01*
X928215Y-5232122D01*
X928217Y-5232122D01*
X1030077Y-5204829D01*
X1121403Y-5152102D01*
X1195970Y-5077535D01*
X1248697Y-4986209D01*
X1275990Y-4884349D01*
X1275990Y-4778895D01*
X1248697Y-4677035D01*
X1195970Y-4585709D01*
X1121403Y-4511142D01*
X1030077Y-4458415D01*
X928217Y-4431122D01*
X822763Y-4431122D01*
X720903Y-4458415D01*
X720900Y-4458416D01*
X629575Y-4511143D01*
X555011Y-4585707D01*
X502284Y-4677032D01*
X502283Y-4677035D01*
X474990Y-4778895D01*
X-6317205Y-4778895D01*
X-6332393Y-4722213D01*
X-6385120Y-4630887D01*
X-6459687Y-4556320D01*
X-6551013Y-4503593D01*
X-6652873Y-4476300D01*
X-6758327Y-4476300D01*
X-6860187Y-4503593D01*
X-6860190Y-4503594D01*
X-6951515Y-4556321D01*
X-7026079Y-4630885D01*
X-7078806Y-4722210D01*
X-7078807Y-4722213D01*
X-7106100Y-4824073D01*
X-7106100Y-4929527D01*
X-7106031Y-4929786D01*
X-7105825Y-4930552D01*
X-7105847Y-4931450D01*
X-7105039Y-4937583D01*
X-7105996Y-4937708D01*
X-7107490Y-5000401D01*
X-7146654Y-5058263D01*
X-7210883Y-5085765D01*
X-7279785Y-5074177D01*
X-7288811Y-5069322D01*
X-7302240Y-5061365D01*
X-7311286Y-5052319D01*
X-7402612Y-4999592D01*
X-7409702Y-4997692D01*
X-7423111Y-4989747D01*
X-7441155Y-4970389D01*
X-7461757Y-4953788D01*
X-7464605Y-4945233D01*
X-7470752Y-4938638D01*
X-7475466Y-4912601D01*
X-7483822Y-4887494D01*
X-7482353Y-4874553D01*
X-7483198Y-4869886D01*
X-7481303Y-4865302D01*
X-7479677Y-4850978D01*
X-7473500Y-4827927D01*
X-7473500Y-4722473D01*
X-7500793Y-4620613D01*
X-7553520Y-4529287D01*
X-7628087Y-4454720D01*
X-7719413Y-4401993D01*
X-7719414Y-4401992D01*
X-7722671Y-4400112D01*
X-7770887Y-4349545D01*
X-7784109Y-4280938D01*
X-7758141Y-4216073D01*
X-7748358Y-4205049D01*
X-7736850Y-4193542D01*
X-7679254Y-4080504D01*
X-7679254Y-4080502D01*
X-7679253Y-4080501D01*
X-7664401Y-3986724D01*
X-7664400Y-3986719D01*
X-7664401Y-3023682D01*
X-7679254Y-2929896D01*
X-7736850Y-2816858D01*
X-7736854Y-2816854D01*
X-7736855Y-2816852D01*
X-7826553Y-2727154D01*
X-7826556Y-2727152D01*
X-7826558Y-2727150D01*
X-7920961Y-2679049D01*
X-7939599Y-2669552D01*
X-8033376Y-2654700D01*
X-8621418Y-2654700D01*
X-8702381Y-2667523D01*
X-8715204Y-2669554D01*
X-8828242Y-2727150D01*
X-8828243Y-2727151D01*
X-8828248Y-2727154D01*
X-8917946Y-2816852D01*
X-8917949Y-2816857D01*
X-8975548Y-2929898D01*
X-8990400Y-3023675D01*
X-8990400Y-3260477D01*
X-9010085Y-3327516D01*
X-9062889Y-3373271D01*
X-9132047Y-3383215D01*
X-9195603Y-3354190D01*
X-9202081Y-3348158D01*
X-11726413Y-823826D01*
X-11759898Y-762503D01*
X-11762732Y-736145D01*
X-11762732Y954662D01*
X-11762733Y954665D01*
X-11800868Y1046732D01*
X-11871335Y1117199D01*
X-12034581Y1280445D01*
X-12068066Y1341768D01*
X-12070900Y1368126D01*
X-12070900Y1415728D01*
X-12070900Y1415730D01*
X-12098193Y1517590D01*
X-12150920Y1608916D01*
X-12225487Y1683483D01*
X-12316813Y1736210D01*
X-12418673Y1763503D01*
X-12524127Y1763503D01*
X-12625987Y1736210D01*
X-12625990Y1736209D01*
X-12717315Y1683482D01*
X-12791879Y1608918D01*
X-12844606Y1517593D01*
X-12844607Y1517590D01*
X-12871900Y1415730D01*
X-12871900Y1310276D01*
X-12852613Y1238297D01*
X-12844607Y1208417D01*
X-12844606Y1208414D01*
X-12832148Y1186837D01*
X-12791880Y1117090D01*
X-12717313Y1042523D01*
X-12625987Y989796D01*
X-12524127Y962503D01*
X-12476523Y962503D01*
X-12447083Y953859D01*
X-12417096Y947335D01*
X-12412081Y943581D01*
X-12409484Y942818D01*
X-12388842Y926184D01*
X-12300051Y837393D01*
X-12266566Y776070D01*
X-12263732Y749712D01*
X-12263732Y405571D01*
X-12283417Y338532D01*
X-12336221Y292777D01*
X-12403916Y282632D01*
X-12410502Y283499D01*
X-12410505Y283499D01*
X-12515959Y283499D01*
X-12617819Y256206D01*
X-12617822Y256205D01*
X-12709147Y203478D01*
X-12783711Y128914D01*
X-12836438Y37589D01*
X-12836439Y37586D01*
X-12863732Y-64274D01*
X-12863732Y-169728D01*
X-12836439Y-271588D01*
X-12786117Y-358749D01*
X-12783711Y-362915D01*
X-12750051Y-396575D01*
X-12716566Y-457898D01*
X-12713732Y-484256D01*
X-12713732Y-1068702D01*
X-12733417Y-1135741D01*
X-12786221Y-1181496D01*
X-12805637Y-1188476D01*
X-12854583Y-1201591D01*
X-12854590Y-1201594D01*
X-12945915Y-1254321D01*
X-13020479Y-1328885D01*
X-13073206Y-1420210D01*
X-13073207Y-1420213D01*
X-13100500Y-1522073D01*
X-14211899Y-1522073D01*
X-14211899Y505746D01*
X-14192214Y572785D01*
X-14175580Y593427D01*
X-14168827Y600180D01*
X-14141919Y627088D01*
X-14089192Y718414D01*
X-14061899Y820274D01*
X-14061899Y925728D01*
X-14089192Y1027588D01*
X-14141919Y1118914D01*
X-14216486Y1193481D01*
X-14307812Y1246208D01*
X-14409672Y1273501D01*
X-14515126Y1273501D01*
X-14616986Y1246208D01*
X-14616989Y1246207D01*
X-14708314Y1193480D01*
X-14782878Y1118916D01*
X-14835605Y1027591D01*
X-14835606Y1027588D01*
X-14862899Y925728D01*
X-14862899Y820274D01*
X-14844793Y752703D01*
X-14835606Y718415D01*
X-14835605Y718412D01*
X-14831489Y711283D01*
X-14792932Y644500D01*
X-14782878Y627087D01*
X-14749218Y593427D01*
X-14715733Y532104D01*
X-14712899Y505746D01*
X-14712899Y-732149D01*
X-14732584Y-799188D01*
X-14785388Y-844943D01*
X-14854546Y-854887D01*
X-14868990Y-851924D01*
X-14933273Y-834700D01*
X-15038727Y-834700D01*
X-15140587Y-861993D01*
X-15140590Y-861994D01*
X-15231915Y-914721D01*
X-15306479Y-989285D01*
X-15359206Y-1080610D01*
X-15359207Y-1080613D01*
X-15386500Y-1182473D01*
X-16131037Y-1182473D01*
X-16169480Y-399973D01*
X-16169629Y-393889D01*
X-16169629Y393890D01*
X-16169480Y399974D01*
X-16167398Y442364D01*
X-16130822Y1186875D01*
X-16130380Y1192865D01*
X-16053157Y1976920D01*
X-16052414Y1982941D01*
X-16051484Y1989204D01*
X-16019376Y2205664D01*
X-14876159Y2205664D01*
X-14876159Y2100210D01*
X-14850817Y2005634D01*
X-14848866Y1998351D01*
X-14848865Y1998348D01*
X-14843587Y1989206D01*
X-14796139Y1907024D01*
X-14721572Y1832457D01*
X-14630246Y1779730D01*
X-14528386Y1752437D01*
X-14528384Y1752437D01*
X-14422934Y1752437D01*
X-14422932Y1752437D01*
X-14321072Y1779730D01*
X-14229746Y1832457D01*
X-14155179Y1907024D01*
X-14102452Y1998350D01*
X-14075159Y2100210D01*
X-14075159Y2205664D01*
X-14102452Y2307524D01*
X-14155179Y2398850D01*
X-14188840Y2432511D01*
X-14222325Y2493834D01*
X-14225159Y2520192D01*
X-14225159Y2660178D01*
X-13350501Y2660178D01*
X-13341769Y2616283D01*
X-13341766Y2616276D01*
X-13308505Y2566497D01*
X-13308504Y2566496D01*
X-13258722Y2533233D01*
X-13258719Y2533233D01*
X-13258718Y2533232D01*
X-13214823Y2524500D01*
X-13214820Y2524500D01*
X-12185178Y2524500D01*
X-12141283Y2533232D01*
X-12141283Y2533233D01*
X-12141278Y2533233D01*
X-12091496Y2566496D01*
X-12058233Y2616278D01*
X-12053631Y2639413D01*
X-12049500Y2660178D01*
X-12049500Y2800500D01*
X-12029815Y2867539D01*
X-11977011Y2913294D01*
X-11925500Y2924500D01*
X-8509974Y2924500D01*
X-8509972Y2924500D01*
X-8417903Y2962636D01*
X-8058159Y3322382D01*
X-7996836Y3355866D01*
X-7970478Y3358700D01*
X-7922875Y3358700D01*
X-7922873Y3358700D01*
X-7821013Y3385993D01*
X-7729687Y3438720D01*
X-7655120Y3513287D01*
X-7602393Y3604613D01*
X-7575100Y3706473D01*
X-7575100Y3811927D01*
X-7602393Y3913787D01*
X-7655120Y4005113D01*
X-7729687Y4079680D01*
X-7821013Y4132407D01*
X-7823408Y4133399D01*
X-7825118Y4134777D01*
X-7828052Y4136471D01*
X-7827788Y4136929D01*
X-7877810Y4177242D01*
X-7899873Y4243536D01*
X-7882592Y4311235D01*
X-7863637Y4335636D01*
X-7162434Y5036839D01*
X-7101113Y5070322D01*
X-7031421Y5065338D01*
X-6975488Y5023466D01*
X-6954980Y4981250D01*
X-6926407Y4874612D01*
X-6926406Y4874611D01*
X-6873680Y4783287D01*
X-6799113Y4708720D01*
X-6707787Y4655993D01*
X-6605927Y4628700D01*
X-6558323Y4628700D01*
X-6491284Y4609015D01*
X-6470642Y4592381D01*
X-6245532Y4367271D01*
X-6212047Y4305948D01*
X-6217031Y4236256D01*
X-6258903Y4180323D01*
X-6324367Y4155906D01*
X-6365306Y4159815D01*
X-6412274Y4172400D01*
X-6517728Y4172400D01*
X-6619588Y4145107D01*
X-6619591Y4145106D01*
X-6710916Y4092379D01*
X-6785480Y4017815D01*
X-6838207Y3926490D01*
X-6838208Y3926487D01*
X-6865501Y3824627D01*
X-6865501Y3719173D01*
X-6840108Y3624406D01*
X-6838208Y3617314D01*
X-6838207Y3617311D01*
X-6831303Y3605353D01*
X-6785481Y3525987D01*
X-6710914Y3451420D01*
X-6619588Y3398693D01*
X-6517728Y3371400D01*
X-6517726Y3371400D01*
X-6412276Y3371400D01*
X-6412274Y3371400D01*
X-6310414Y3398693D01*
X-6219088Y3451420D01*
X-6144521Y3525987D01*
X-6091794Y3617313D01*
X-6064501Y3719173D01*
X-6064501Y3824627D01*
X-6077087Y3871599D01*
X-6075424Y3941445D01*
X-6036262Y3999307D01*
X-5972034Y4026812D01*
X-5903131Y4015226D01*
X-5869631Y3991370D01*
X-5193775Y3315514D01*
X-4677241Y2798981D01*
X-4643756Y2737658D01*
X-4648740Y2667966D01*
X-4690612Y2612033D01*
X-4756076Y2587616D01*
X-4764922Y2587300D01*
X-9353630Y2587300D01*
X-9445698Y2549164D01*
X-9445699Y2549163D01*
X-9516165Y2478696D01*
X-9516167Y2478694D01*
X-9537104Y2457758D01*
X-9571145Y2435012D01*
X-9570948Y2434671D01*
X-9576149Y2431669D01*
X-9577324Y2430883D01*
X-9577979Y2430612D01*
X-9669316Y2377878D01*
X-9743879Y2303315D01*
X-9796606Y2211990D01*
X-9796607Y2211987D01*
X-9823900Y2110127D01*
X-9823900Y2004673D01*
X-9797346Y1905573D01*
X-9796607Y1902814D01*
X-9796606Y1902811D01*
X-9788786Y1889266D01*
X-9743880Y1811487D01*
X-9669313Y1736920D01*
X-9577987Y1684193D01*
X-9476127Y1656900D01*
X-9476125Y1656900D01*
X-9370675Y1656900D01*
X-9370673Y1656900D01*
X-9268813Y1684193D01*
X-9177487Y1736920D01*
X-9102920Y1811487D01*
X-9050193Y1902813D01*
X-9025655Y1994395D01*
X-8989290Y2054054D01*
X-8926443Y2084583D01*
X-8905880Y2086300D01*
X-7685070Y2086300D01*
X-7618031Y2066615D01*
X-7572276Y2013811D01*
X-7562332Y1944653D01*
X-7587627Y1889266D01*
X-7586719Y1888659D01*
X-7590462Y1883059D01*
X-7591357Y1881097D01*
X-7592826Y1879520D01*
X-7626766Y1828725D01*
X-7626769Y1828718D01*
X-7635500Y1784823D01*
X-7635500Y1644500D01*
X-7655185Y1577461D01*
X-7707989Y1531706D01*
X-7759500Y1520500D01*
X-8025430Y1520500D01*
X-8117497Y1482364D01*
X-8247608Y1352255D01*
X-8308929Y1318771D01*
X-8378621Y1323755D01*
X-8434554Y1365627D01*
X-8442667Y1377925D01*
X-8451320Y1392913D01*
X-8525887Y1467480D01*
X-8617213Y1520207D01*
X-8719073Y1547500D01*
X-8824527Y1547500D01*
X-8926387Y1520207D01*
X-8926390Y1520206D01*
X-9017715Y1467479D01*
X-9092278Y1392916D01*
X-9145008Y1301587D01*
X-9145008Y1301586D01*
X-9147072Y1293882D01*
X-9179165Y1238297D01*
X-9397730Y1019734D01*
X-9397739Y1019722D01*
X-9450764Y966697D01*
X-9488900Y874630D01*
X-9488900Y-1053244D01*
X-9508585Y-1120283D01*
X-9525218Y-1140924D01*
X-9568479Y-1184185D01*
X-9621206Y-1275510D01*
X-9621207Y-1275513D01*
X-9648500Y-1377373D01*
X-9648500Y-1482827D01*
X-9623269Y-1576989D01*
X-9621207Y-1584686D01*
X-9621206Y-1584689D01*
X-9611807Y-1600969D01*
X-9568480Y-1676013D01*
X-9493913Y-1750580D01*
X-9402587Y-1803307D01*
X-9300727Y-1830600D01*
X-9300725Y-1830600D01*
X-9195275Y-1830600D01*
X-9195273Y-1830600D01*
X-9093413Y-1803307D01*
X-9002087Y-1750580D01*
X-8927520Y-1676013D01*
X-8874793Y-1584687D01*
X-8874793Y-1584686D01*
X-8873530Y-1582499D01*
X-8822962Y-1534284D01*
X-8766143Y-1520500D01*
X-7759500Y-1520500D01*
X-7692461Y-1540185D01*
X-7646706Y-1592989D01*
X-7635500Y-1644500D01*
X-7635500Y-1784820D01*
X-7635500Y-1784822D01*
X-7635501Y-1784822D01*
X-7626769Y-1828717D01*
X-7626766Y-1828724D01*
X-7594058Y-1877675D01*
X-7593504Y-1878504D01*
X-7543722Y-1911767D01*
X-7543719Y-1911767D01*
X-7543718Y-1911768D01*
X-7499823Y-1920500D01*
X-7499820Y-1920500D01*
X-6470180Y-1920500D01*
X-6432091Y-1912923D01*
X-6362500Y-1919149D01*
X-6307322Y-1962011D01*
X-6288124Y-2002445D01*
X-6266007Y-2084987D01*
X-6213298Y-2176282D01*
X-6213279Y-2176314D01*
X-6205223Y-2184370D01*
X-6171738Y-2245693D01*
X-6176722Y-2315385D01*
X-6185516Y-2334050D01*
X-6208007Y-2373005D01*
X-6208007Y-2373006D01*
X-6235300Y-2474866D01*
X-6235300Y-2580320D01*
X-6208007Y-2682180D01*
X-6155280Y-2773506D01*
X-6080713Y-2848073D01*
X-5989387Y-2900800D01*
X-5887527Y-2928093D01*
X-5887525Y-2928093D01*
X-5782075Y-2928093D01*
X-5782073Y-2928093D01*
X-5680213Y-2900800D01*
X-5588887Y-2848073D01*
X-5514320Y-2773506D01*
X-5487622Y-2727262D01*
X-5437056Y-2679049D01*
X-5368449Y-2665825D01*
X-5303585Y-2691793D01*
X-5263056Y-2748707D01*
X-5260465Y-2757158D01*
X-5253872Y-2781764D01*
X-5250007Y-2796188D01*
X-5250006Y-2796189D01*
X-5197280Y-2887513D01*
X-5122713Y-2962080D01*
X-5031387Y-3014807D01*
X-4929527Y-3042100D01*
X-4929525Y-3042100D01*
X-4824075Y-3042100D01*
X-4824073Y-3042100D01*
X-4722213Y-3014807D01*
X-4630887Y-2962080D01*
X-4556320Y-2887513D01*
X-4503593Y-2796187D01*
X-4476300Y-2694327D01*
X-4476300Y-2588873D01*
X-4476300Y-2586100D01*
X-4456615Y-2519061D01*
X-4403811Y-2473306D01*
X-4352300Y-2462100D01*
X-4081217Y-2462100D01*
X-4014178Y-2481785D01*
X-3968423Y-2534589D01*
X-3958479Y-2603747D01*
X-3961443Y-2618195D01*
X-3962807Y-2623283D01*
X-3962807Y-2623285D01*
X-3962807Y-2728739D01*
X-3935514Y-2830599D01*
X-3882787Y-2921925D01*
X-3808220Y-2996492D01*
X-3716894Y-3049219D01*
X-3615034Y-3076512D01*
X-3615032Y-3076512D01*
X-3509582Y-3076512D01*
X-3509580Y-3076512D01*
X-3407720Y-3049219D01*
X-3316394Y-2996492D01*
X-3241827Y-2921925D01*
X-3189100Y-2830599D01*
X-3161807Y-2728739D01*
X-3161807Y-2623285D01*
X-3161808Y-2623284D01*
X-3162202Y-2620287D01*
X-3161807Y-2617753D01*
X-3161807Y-2615158D01*
X-3161402Y-2615158D01*
X-3151437Y-2551252D01*
X-3105058Y-2498995D01*
X-3039263Y-2480100D01*
X-2813170Y-2480100D01*
X-2813164Y-2480100D01*
X-2740175Y-2469466D01*
X-2682682Y-2441359D01*
X-2627590Y-2414427D01*
X-2538976Y-2325813D01*
X-2538974Y-2325811D01*
X-2483934Y-2213225D01*
X-2483934Y-2213223D01*
X-2480901Y-2207020D01*
X-2433773Y-2155437D01*
X-2366239Y-2137523D01*
X-2299740Y-2158964D01*
X-2255390Y-2212953D01*
X-2245500Y-2261480D01*
X-2245500Y-2599824D01*
X-2237894Y-2638062D01*
X-2244121Y-2707654D01*
X-2252123Y-2724252D01*
X-2293207Y-2795412D01*
X-2293207Y-2795413D01*
X-2320500Y-2897273D01*
X-2320500Y-3002727D01*
X-2295343Y-3096613D01*
X-2293207Y-3104586D01*
X-2293206Y-3104589D01*
X-2240479Y-3195914D01*
X-2225475Y-3210918D01*
X-2191990Y-3272241D01*
X-2196974Y-3341933D01*
X-2225472Y-3386277D01*
X-2250879Y-3411684D01*
X-2303606Y-3503010D01*
X-2303607Y-3503013D01*
X-2330900Y-3604873D01*
X-2330900Y-3710327D01*
X-2304945Y-3807191D01*
X-2303607Y-3812186D01*
X-2303606Y-3812189D01*
X-2299398Y-3819477D01*
X-2250880Y-3903513D01*
X-2176313Y-3978080D01*
X-2084987Y-4030807D01*
X-1983127Y-4058100D01*
X-1983125Y-4058100D01*
X-1877675Y-4058100D01*
X-1877673Y-4058100D01*
X-1775813Y-4030807D01*
X-1684487Y-3978080D01*
X-1609920Y-3903513D01*
X-1557193Y-3812187D01*
X-1529900Y-3710327D01*
X-1529900Y-3604873D01*
X-1557193Y-3503013D01*
X-1609920Y-3411687D01*
X-1624926Y-3396681D01*
X-1658411Y-3335358D01*
X-1653427Y-3265666D01*
X-1624926Y-3221319D01*
X-1614525Y-3210918D01*
X-1599520Y-3195913D01*
X-1546793Y-3104587D01*
X-1519500Y-3002727D01*
X-1519500Y-2897273D01*
X-1521023Y-2891589D01*
X-1519358Y-2821741D01*
X-1480194Y-2763879D01*
X-1415965Y-2736377D01*
X-1401247Y-2735500D01*
X-1330178Y-2735500D01*
X-1286283Y-2726768D01*
X-1286283Y-2726767D01*
X-1286278Y-2726767D01*
X-1236496Y-2693504D01*
X-1203233Y-2643722D01*
X-1202107Y-2638062D01*
X-1194500Y-2599822D01*
X-1194500Y-2220177D01*
X-1203232Y-2176282D01*
X-1203233Y-2176281D01*
X-1203233Y-2176278D01*
X-1236496Y-2126496D01*
X-1256543Y-2113101D01*
X-1301347Y-2059492D01*
X-1310056Y-1990167D01*
X-1279902Y-1927139D01*
X-1256544Y-1906899D01*
X-1236496Y-1893504D01*
X-1203233Y-1843722D01*
X-1200623Y-1830600D01*
X-1194500Y-1799822D01*
X-1194500Y-1420177D01*
X-1203232Y-1376282D01*
X-1203233Y-1376281D01*
X-1203233Y-1376278D01*
X-1236496Y-1326496D01*
X-1256543Y-1313101D01*
X-1301347Y-1259492D01*
X-1310056Y-1190167D01*
X-1279902Y-1127139D01*
X-1256544Y-1106899D01*
X-1236496Y-1093504D01*
X-1203233Y-1043722D01*
X-1198415Y-1019500D01*
X-1194500Y-999822D01*
X-1194500Y-620177D01*
X-1203232Y-576282D01*
X-1203233Y-576281D01*
X-1203233Y-576278D01*
X-1236496Y-526496D01*
X-1256543Y-513101D01*
X-1301347Y-459492D01*
X-1310056Y-390167D01*
X-1279902Y-327139D01*
X-1256544Y-306899D01*
X-1236496Y-293504D01*
X-1203233Y-243722D01*
X-1199749Y-226206D01*
X-1194500Y-199822D01*
X-1194500Y179823D01*
X-1203232Y223718D01*
X-1203233Y223719D01*
X-1203233Y223722D01*
X-1236496Y273504D01*
X-1250157Y282632D01*
X-1286276Y306766D01*
X-1286283Y306769D01*
X-1330178Y315500D01*
X-1330180Y315500D01*
X-2109820Y315500D01*
X-2109822Y315500D01*
X-2153718Y306769D01*
X-2153725Y306766D01*
X-2203504Y273505D01*
X-2203505Y273504D01*
X-2236766Y223725D01*
X-2236769Y223718D01*
X-2245500Y179823D01*
X-2245500Y96123D01*
X-2251739Y74878D01*
X-2253318Y52789D01*
X-2261391Y42006D01*
X-2265185Y29084D01*
X-2281919Y14585D01*
X-2295190Y-3144D01*
X-2307811Y-7851D01*
X-2317989Y-16671D01*
X-2339907Y-19822D01*
X-2360654Y-27561D01*
X-2373815Y-24698D01*
X-2387147Y-26615D01*
X-2407291Y-17415D01*
X-2428927Y-12709D01*
X-2446653Y560D01*
X-2450703Y2410D01*
X-2457181Y8442D01*
X-2527581Y78842D01*
X-2561066Y140165D01*
X-2563900Y166523D01*
X-2563900Y285631D01*
X-2563900Y285636D01*
X-2574534Y358625D01*
X-2594748Y399974D01*
X-2629573Y471211D01*
X-2714681Y556319D01*
X-2748166Y617642D01*
X-2743182Y687334D01*
X-2714681Y731681D01*
X-2647575Y798788D01*
X-2647573Y798790D01*
X-2600295Y895500D01*
X-2592534Y911375D01*
X-2581900Y984364D01*
X-2581900Y1555636D01*
X-2592534Y1628625D01*
X-2593007Y1629592D01*
X-2601306Y1646570D01*
X-2613066Y1715443D01*
X-2585722Y1779740D01*
X-2578112Y1788183D01*
X-2566374Y1800064D01*
X-2548087Y1810621D01*
X-2473520Y1885188D01*
X-2461227Y1906482D01*
X-2450022Y1917821D01*
X-2432851Y1927332D01*
X-2418642Y1940881D01*
X-2402913Y1943914D01*
X-2388901Y1951674D01*
X-2369311Y1950392D01*
X-2350035Y1954107D01*
X-2335166Y1948155D01*
X-2319181Y1947108D01*
X-2303395Y1935438D01*
X-2285169Y1928142D01*
X-2275878Y1915096D01*
X-2262997Y1905573D01*
X-2256026Y1887221D01*
X-2244638Y1871230D01*
X-2243468Y1854159D01*
X-2238187Y1840257D01*
X-2241454Y1824794D01*
X-2240198Y1806479D01*
X-2245500Y1779822D01*
X-2245500Y1779820D01*
X-2245500Y1400180D01*
X-2245500Y1400178D01*
X-2245501Y1400178D01*
X-2236769Y1356283D01*
X-2236766Y1356276D01*
X-2206030Y1310276D01*
X-2203504Y1306496D01*
X-2153722Y1273233D01*
X-2153719Y1273233D01*
X-2153718Y1273232D01*
X-2109823Y1264500D01*
X-2109820Y1264500D01*
X-1330178Y1264500D01*
X-1286283Y1273232D01*
X-1286283Y1273233D01*
X-1286278Y1273233D01*
X-1236496Y1306496D01*
X-1203233Y1356278D01*
X-1196757Y1388834D01*
X-1194500Y1400178D01*
X-1194500Y1606700D01*
X-1174815Y1673739D01*
X-1122011Y1719494D01*
X-1070500Y1730700D01*
X30500Y1730700D01*
X97539Y1711015D01*
X143294Y1658211D01*
X154500Y1606700D01*
X154500Y1400180D01*
X154500Y1400178D01*
X154499Y1400178D01*
X163231Y1356283D01*
X163234Y1356276D01*
X193970Y1310276D01*
X196496Y1306496D01*
X216542Y1293102D01*
X261347Y1239490D01*
X270054Y1170165D01*
X239900Y1107138D01*
X216542Y1086898D01*
X196495Y1073504D01*
X163234Y1023725D01*
X163231Y1023718D01*
X154500Y979823D01*
X154500Y870123D01*
X134815Y803084D01*
X118181Y782442D01*
X-771163Y-106901D01*
X-771164Y-106902D01*
X-809300Y-198970D01*
X-809300Y-1371029D01*
X-782035Y-1436853D01*
X-771164Y-1463097D01*
X-15297Y-2218964D01*
X76772Y-2257100D01*
X77953Y-2257589D01*
X132356Y-2301430D01*
X154421Y-2367724D01*
X154500Y-2372150D01*
X154500Y-2599820D01*
X154500Y-2599822D01*
X154499Y-2599822D01*
X163231Y-2643717D01*
X163234Y-2643724D01*
X196495Y-2693503D01*
X196496Y-2693504D01*
X246278Y-2726767D01*
X246281Y-2726767D01*
X246282Y-2726768D01*
X290177Y-2735500D01*
X290180Y-2735500D01*
X1069822Y-2735500D01*
X1113717Y-2726768D01*
X1113717Y-2726767D01*
X1113722Y-2726767D01*
X1163504Y-2693504D01*
X1185643Y-2660370D01*
X1239252Y-2615566D01*
X1308577Y-2606857D01*
X1340339Y-2618167D01*
X1340699Y-2617299D01*
X1348202Y-2620406D01*
X1348209Y-2620410D01*
X1450069Y-2647703D01*
X1450071Y-2647703D01*
X1555520Y-2647703D01*
X1555523Y-2647703D01*
X1643409Y-2624154D01*
X1668401Y-2624749D01*
X1693147Y-2621191D01*
X1702727Y-2625566D01*
X1713256Y-2625817D01*
X1733960Y-2639829D01*
X1756703Y-2650216D01*
X1762396Y-2659075D01*
X1771119Y-2664979D01*
X1780960Y-2687962D01*
X1794477Y-2708994D01*
X1796756Y-2724849D01*
X1798623Y-2729208D01*
X1799500Y-2743929D01*
X1799500Y-2940357D01*
X1779815Y-3007396D01*
X1727011Y-3053151D01*
X1707595Y-3060131D01*
X1693111Y-3064012D01*
X1645411Y-3076793D01*
X1645410Y-3076794D01*
X1554085Y-3129521D01*
X1479521Y-3204085D01*
X1426794Y-3295410D01*
X1426793Y-3295413D01*
X1399500Y-3397273D01*
X1399500Y-3502727D01*
X1426699Y-3604234D01*
X1426793Y-3604586D01*
X1426794Y-3604589D01*
X1438235Y-3624405D01*
X1479520Y-3695913D01*
X1554087Y-3770480D01*
X1645413Y-3823207D01*
X1747273Y-3850500D01*
X1747275Y-3850500D01*
X1852725Y-3850500D01*
X1852727Y-3850500D01*
X1954587Y-3823207D01*
X2045913Y-3770480D01*
X2120480Y-3695913D01*
X2173207Y-3604587D01*
X2200500Y-3502727D01*
X2200500Y-3455123D01*
X2211976Y-3403023D01*
X2221234Y-3383026D01*
X2262364Y-3341897D01*
X2300500Y-3249828D01*
X2300500Y-3247273D01*
X3349500Y-3247273D01*
X3349500Y-3352727D01*
X3376793Y-3454587D01*
X3429520Y-3545913D01*
X3504087Y-3620480D01*
X3595413Y-3673207D01*
X3697273Y-3700500D01*
X3697275Y-3700500D01*
X3802725Y-3700500D01*
X3802727Y-3700500D01*
X3904587Y-3673207D01*
X3995913Y-3620480D01*
X4070480Y-3545913D01*
X4123207Y-3454587D01*
X4126925Y-3440708D01*
X4163287Y-3381049D01*
X4226133Y-3350518D01*
X4295509Y-3358810D01*
X4349388Y-3403294D01*
X4354082Y-3410792D01*
X4403920Y-3497113D01*
X4478487Y-3571680D01*
X4569813Y-3624407D01*
X4671673Y-3651700D01*
X4671675Y-3651700D01*
X4777125Y-3651700D01*
X4777127Y-3651700D01*
X4878987Y-3624407D01*
X4970313Y-3571680D01*
X5044880Y-3497113D01*
X5097607Y-3405787D01*
X5124900Y-3303927D01*
X5124900Y-3249273D01*
X5568500Y-3249273D01*
X5568500Y-3354727D01*
X5595793Y-3456587D01*
X5648520Y-3547913D01*
X5723087Y-3622480D01*
X5814413Y-3675207D01*
X5916273Y-3702500D01*
X5916275Y-3702500D01*
X6021725Y-3702500D01*
X6021727Y-3702500D01*
X6123587Y-3675207D01*
X6214913Y-3622480D01*
X6289480Y-3547913D01*
X6342207Y-3456587D01*
X6369500Y-3354727D01*
X6369500Y-3249273D01*
X6342207Y-3147413D01*
X6289480Y-3056087D01*
X6214913Y-2981520D01*
X6148059Y-2942922D01*
X6123589Y-2928794D01*
X6123588Y-2928793D01*
X6123587Y-2928793D01*
X6021727Y-2901500D01*
X5916273Y-2901500D01*
X5814413Y-2928793D01*
X5814410Y-2928794D01*
X5723085Y-2981521D01*
X5648521Y-3056085D01*
X5595794Y-3147410D01*
X5595793Y-3147413D01*
X5568500Y-3249273D01*
X5124900Y-3249273D01*
X5124900Y-3198473D01*
X5097607Y-3096613D01*
X5044880Y-3005287D01*
X4970313Y-2930720D01*
X4885870Y-2881967D01*
X4878989Y-2877994D01*
X4878988Y-2877993D01*
X4878987Y-2877993D01*
X4777127Y-2850700D01*
X4671673Y-2850700D01*
X4569813Y-2877993D01*
X4569810Y-2877994D01*
X4478485Y-2930721D01*
X4403921Y-3005285D01*
X4351194Y-3096610D01*
X4351192Y-3096615D01*
X4347473Y-3110495D01*
X4311107Y-3170155D01*
X4248259Y-3200683D01*
X4178884Y-3192386D01*
X4125007Y-3147900D01*
X4120312Y-3140399D01*
X4099636Y-3104587D01*
X4070480Y-3054087D01*
X3995913Y-2979520D01*
X3909965Y-2929898D01*
X3904589Y-2926794D01*
X3904588Y-2926793D01*
X3904587Y-2926793D01*
X3802727Y-2899500D01*
X3697273Y-2899500D01*
X3595413Y-2926793D01*
X3595410Y-2926794D01*
X3504085Y-2979521D01*
X3429521Y-3054085D01*
X3376794Y-3145410D01*
X3376793Y-3145413D01*
X3349500Y-3247273D01*
X2300500Y-3247273D01*
X2300500Y-3150173D01*
X2300500Y-2147273D01*
X2545900Y-2147273D01*
X2545900Y-2252727D01*
X2567841Y-2334613D01*
X2573193Y-2354586D01*
X2573194Y-2354589D01*
X2580778Y-2367724D01*
X2625920Y-2445913D01*
X2700487Y-2520480D01*
X2791813Y-2573207D01*
X2893673Y-2600500D01*
X2893675Y-2600500D01*
X2999125Y-2600500D01*
X2999127Y-2600500D01*
X3100987Y-2573207D01*
X3192313Y-2520480D01*
X3266880Y-2445913D01*
X3319607Y-2354587D01*
X3346900Y-2252727D01*
X3346900Y-2147273D01*
X3319607Y-2045413D01*
X3266880Y-1954087D01*
X3192313Y-1879520D01*
X3104328Y-1828722D01*
X3100989Y-1826794D01*
X3100988Y-1826793D01*
X3100987Y-1826793D01*
X2999127Y-1799500D01*
X2893673Y-1799500D01*
X2791813Y-1826793D01*
X2791810Y-1826794D01*
X2700485Y-1879521D01*
X2625921Y-1954085D01*
X2573194Y-2045410D01*
X2573193Y-2045413D01*
X2545900Y-2147273D01*
X2300500Y-2147273D01*
X2300500Y-1597897D01*
X2320185Y-1530858D01*
X2372989Y-1485103D01*
X2442147Y-1475159D01*
X2479360Y-1488040D01*
X2479503Y-1487696D01*
X2485291Y-1490093D01*
X2486504Y-1490513D01*
X2487013Y-1490807D01*
X2588873Y-1518100D01*
X2588875Y-1518100D01*
X2694325Y-1518100D01*
X2694327Y-1518100D01*
X2796187Y-1490807D01*
X2887513Y-1438080D01*
X2962080Y-1363513D01*
X3014807Y-1272187D01*
X3042100Y-1170327D01*
X3042100Y-1064873D01*
X3014807Y-963013D01*
X2962080Y-871687D01*
X2887513Y-797120D01*
X2814871Y-755180D01*
X2796189Y-744394D01*
X2796188Y-744393D01*
X2796187Y-744393D01*
X2694327Y-717100D01*
X2694326Y-717100D01*
X2646723Y-717100D01*
X2617285Y-708455D01*
X2587295Y-701932D01*
X2582278Y-698176D01*
X2579684Y-697415D01*
X2559041Y-680781D01*
X2476818Y-598557D01*
X2443334Y-537233D01*
X2440500Y-510876D01*
X2440500Y-471543D01*
X2460185Y-404504D01*
X2512989Y-358749D01*
X2580769Y-349003D01*
X2580817Y-348639D01*
X2582113Y-348809D01*
X2582147Y-348805D01*
X2582270Y-348830D01*
X2588871Y-349699D01*
X2588873Y-349700D01*
X2588875Y-349700D01*
X2694325Y-349700D01*
X2694327Y-349700D01*
X2796187Y-322407D01*
X2887513Y-269680D01*
X2962080Y-195113D01*
X3014807Y-103787D01*
X3042100Y-1927D01*
X3042100Y103527D01*
X3014807Y205387D01*
X2962080Y296713D01*
X2887513Y371280D01*
X2820659Y409878D01*
X2796189Y424006D01*
X2796188Y424007D01*
X2796187Y424007D01*
X2694327Y451300D01*
X2588873Y451300D01*
X2487013Y424007D01*
X2487012Y424007D01*
X2482711Y421523D01*
X2414811Y405052D01*
X2348784Y427904D01*
X2333031Y441230D01*
X1516442Y1257819D01*
X1482957Y1319142D01*
X1487941Y1388834D01*
X1529813Y1444767D01*
X1595277Y1469184D01*
X1604123Y1469500D01*
X1923742Y1469500D01*
X1990781Y1449815D01*
X2035142Y1399961D01*
X2075815Y1316764D01*
X2077403Y1313515D01*
X2160114Y1230804D01*
X2160115Y1230804D01*
X2160117Y1230802D01*
X2265207Y1179427D01*
X2299273Y1174464D01*
X2333339Y1169500D01*
X2333340Y1169500D01*
X2786477Y1169500D01*
X2853516Y1149815D01*
X2874158Y1133181D01*
X4230741Y-223402D01*
X4264226Y-284725D01*
X4259242Y-354417D01*
X4217370Y-410350D01*
X4205073Y-418462D01*
X4197687Y-422727D01*
X4197684Y-422729D01*
X4123121Y-497292D01*
X4070394Y-588617D01*
X4070393Y-588620D01*
X4043100Y-690480D01*
X4043100Y-795934D01*
X4070393Y-897794D01*
X4123120Y-989120D01*
X4197687Y-1063687D01*
X4289013Y-1116414D01*
X4390873Y-1143707D01*
X4390875Y-1143707D01*
X4496325Y-1143707D01*
X4496327Y-1143707D01*
X4598187Y-1116414D01*
X4689513Y-1063687D01*
X4764080Y-989120D01*
X4768337Y-981745D01*
X4818898Y-933533D01*
X4887505Y-920307D01*
X4952371Y-946272D01*
X4963404Y-956065D01*
X5663181Y-1655842D01*
X5677884Y-1682769D01*
X5694477Y-1708588D01*
X5695368Y-1714788D01*
X5696666Y-1717165D01*
X5699500Y-1743523D01*
X5699500Y-1832745D01*
X5679815Y-1899784D01*
X5663181Y-1920426D01*
X5629521Y-1954085D01*
X5576794Y-2045410D01*
X5576793Y-2045413D01*
X5549500Y-2147273D01*
X5549500Y-2252727D01*
X5571441Y-2334610D01*
X5576793Y-2354586D01*
X5576794Y-2354589D01*
X5584378Y-2367724D01*
X5629520Y-2445913D01*
X5704087Y-2520480D01*
X5795413Y-2573207D01*
X5897273Y-2600500D01*
X5897275Y-2600500D01*
X6002725Y-2600500D01*
X6002727Y-2600500D01*
X6104587Y-2573207D01*
X6195913Y-2520480D01*
X6270480Y-2445913D01*
X6323207Y-2354587D01*
X6350500Y-2252727D01*
X6350500Y-2147273D01*
X6323207Y-2045413D01*
X6270480Y-1954087D01*
X6236819Y-1920426D01*
X6203334Y-1859103D01*
X6200500Y-1832745D01*
X6200500Y-1538573D01*
X6200499Y-1538570D01*
X6196273Y-1528368D01*
X6162364Y-1446503D01*
X6091897Y-1376036D01*
X3303419Y1412442D01*
X3269934Y1473765D01*
X3267100Y1500123D01*
X3267100Y1953261D01*
X3257173Y2021392D01*
X3257173Y2021393D01*
X3205798Y2126483D01*
X3205796Y2126485D01*
X3205796Y2126486D01*
X3123085Y2209197D01*
X3017991Y2260574D01*
X2949861Y2270500D01*
X2949860Y2270500D01*
X2333340Y2270500D01*
X2333339Y2270500D01*
X2265208Y2260574D01*
X2211305Y2234222D01*
X2142432Y2222464D01*
X2078135Y2249807D01*
X2038828Y2307571D01*
X2036990Y2377417D01*
X2069164Y2433304D01*
X2232488Y2596627D01*
X2409042Y2773181D01*
X2470365Y2806666D01*
X2496723Y2809500D01*
X2949861Y2809500D01*
X2972571Y2812809D01*
X3017993Y2819427D01*
X3123083Y2870802D01*
X3205798Y2953517D01*
X3206317Y2954580D01*
X3207415Y2955782D01*
X3211768Y2961878D01*
X3212504Y2961353D01*
X3253440Y3006163D01*
X3320973Y3024082D01*
X3387473Y3002646D01*
X3405401Y2987806D01*
X3462487Y2930720D01*
X3553813Y2877993D01*
X3655673Y2850700D01*
X3655675Y2850700D01*
X3761125Y2850700D01*
X3761127Y2850700D01*
X3862987Y2877993D01*
X3954313Y2930720D01*
X4028880Y3005287D01*
X4081607Y3096613D01*
X4108900Y3198473D01*
X4108900Y3303927D01*
X4081607Y3405787D01*
X4028880Y3497113D01*
X3954313Y3571680D01*
X3875274Y3617313D01*
X3862989Y3624406D01*
X3862988Y3624407D01*
X3862987Y3624407D01*
X3761127Y3651700D01*
X3655673Y3651700D01*
X3553813Y3624407D01*
X3553810Y3624406D01*
X3462485Y3571679D01*
X3457283Y3567687D01*
X3392113Y3542496D01*
X3323669Y3556537D01*
X3273681Y3605353D01*
X3259097Y3648187D01*
X3257173Y3661393D01*
X3205798Y3766483D01*
X3205796Y3766485D01*
X3205796Y3766486D01*
X3123085Y3849197D01*
X3017991Y3900574D01*
X2999802Y3903224D01*
X2936301Y3932369D01*
X2898639Y3991219D01*
X2898771Y4061089D01*
X2930000Y4113608D01*
X2970480Y4154087D01*
X3023207Y4245413D01*
X3050500Y4347273D01*
X3050500Y4452727D01*
X3349500Y4452727D01*
X3349500Y4347273D01*
X3376793Y4245413D01*
X3429520Y4154087D01*
X3504087Y4079520D01*
X3595413Y4026793D01*
X3697273Y3999500D01*
X3697275Y3999500D01*
X3802725Y3999500D01*
X3802727Y3999500D01*
X3904587Y4026793D01*
X3995913Y4079520D01*
X4070480Y4154087D01*
X4123207Y4245413D01*
X4150500Y4347273D01*
X4150500Y4452727D01*
X4123207Y4554587D01*
X4070480Y4645913D01*
X3995913Y4720480D01*
X3904587Y4773207D01*
X3802727Y4800500D01*
X3697273Y4800500D01*
X3595413Y4773207D01*
X3595410Y4773206D01*
X3504085Y4720479D01*
X3429521Y4645915D01*
X3376794Y4554590D01*
X3376793Y4554587D01*
X3349500Y4452727D01*
X3050500Y4452727D01*
X3023207Y4554587D01*
X2970480Y4645913D01*
X2895913Y4720480D01*
X2804587Y4773207D01*
X2702727Y4800500D01*
X2597273Y4800500D01*
X2495413Y4773207D01*
X2495410Y4773206D01*
X2404085Y4720479D01*
X2329521Y4645915D01*
X2276794Y4554590D01*
X2276793Y4554587D01*
X2249500Y4452727D01*
X2249500Y4347273D01*
X2276793Y4245413D01*
X2328655Y4155585D01*
X2329521Y4154086D01*
X2367862Y4115745D01*
X2401347Y4054422D01*
X2396363Y3984730D01*
X2354491Y3928797D01*
X2298059Y3905360D01*
X2265208Y3900574D01*
X2160114Y3849197D01*
X2077403Y3766486D01*
X2026026Y3661392D01*
X2020833Y3625748D01*
X1991689Y3562247D01*
X1932839Y3524583D01*
X1862970Y3524715D01*
X1810448Y3555945D01*
X1795914Y3570479D01*
X1795913Y3570480D01*
X1704587Y3623207D01*
X1602727Y3650500D01*
X1497273Y3650500D01*
X1395413Y3623207D01*
X1395410Y3623206D01*
X1304085Y3570479D01*
X1229521Y3495915D01*
X1181780Y3413227D01*
X1131212Y3365012D01*
X1062605Y3351791D01*
X997741Y3377760D01*
X986713Y3387548D01*
X591219Y3783042D01*
X557734Y3844365D01*
X554900Y3870723D01*
X554900Y4396860D01*
X554900Y4420970D01*
X554901Y4420972D01*
X554901Y4520627D01*
X529271Y4582503D01*
X516764Y4612697D01*
X446297Y4683164D01*
X446295Y4683165D01*
X439229Y4690232D01*
X439225Y4690235D01*
X192697Y4936764D01*
X100629Y4974900D01*
X92693Y4976478D01*
X30781Y5008863D01*
X-3793Y5069579D01*
X-54Y5139348D01*
X2324Y5145555D01*
X6762Y5156271D01*
X6767Y5156278D01*
X14142Y5193354D01*
X15500Y5200178D01*
X15500Y5971263D01*
X21738Y5992509D01*
X23318Y6014597D01*
X31390Y6025381D01*
X35185Y6038302D01*
X51918Y6052802D01*
X65190Y6070530D01*
X77810Y6075238D01*
X87989Y6084057D01*
X109906Y6087209D01*
X130654Y6094947D01*
X143814Y6092085D01*
X157147Y6094001D01*
X177290Y6084802D01*
X198927Y6080095D01*
X216652Y6066827D01*
X220703Y6064976D01*
X227181Y6058944D01*
X324950Y5961175D01*
X324953Y5961171D01*
X402488Y5883636D01*
X412646Y5876848D01*
X410344Y5873404D01*
X434779Y5854841D01*
X435773Y5855834D01*
X441519Y5850088D01*
X441520Y5850087D01*
X516087Y5775520D01*
X607413Y5722793D01*
X709273Y5695500D01*
X709275Y5695500D01*
X814725Y5695500D01*
X814727Y5695500D01*
X916587Y5722793D01*
X916595Y5722798D01*
X924097Y5725904D01*
X924993Y5723740D01*
X981217Y5737383D01*
X1047245Y5714535D01*
X1063006Y5701204D01*
X1066523Y5697687D01*
X1141090Y5623120D01*
X1232416Y5570393D01*
X1334276Y5543100D01*
X1334278Y5543100D01*
X1439728Y5543100D01*
X1439730Y5543100D01*
X1541590Y5570393D01*
X1632916Y5623120D01*
X1707483Y5697687D01*
X1760210Y5789013D01*
X1765793Y5809852D01*
X1802154Y5869509D01*
X1864999Y5900040D01*
X1934375Y5891748D01*
X1988255Y5847265D01*
X1992953Y5839759D01*
X2005868Y5817390D01*
X2016320Y5799287D01*
X2090887Y5724720D01*
X2126275Y5704289D01*
X2174490Y5653723D01*
X2187713Y5585116D01*
X2184050Y5564814D01*
X2179984Y5549640D01*
X2179984Y5549637D01*
X2179984Y5444183D01*
X2200994Y5365774D01*
X2207277Y5342324D01*
X2207278Y5342321D01*
X2221406Y5317851D01*
X2260004Y5250997D01*
X2334571Y5176430D01*
X2425897Y5123703D01*
X2527757Y5096410D01*
X2527759Y5096410D01*
X2633209Y5096410D01*
X2633211Y5096410D01*
X2735071Y5123703D01*
X2826397Y5176430D01*
X2900964Y5250997D01*
X2953691Y5342323D01*
X2980984Y5444183D01*
X2980984Y5549637D01*
X2953691Y5651497D01*
X2900964Y5742823D01*
X2826397Y5817390D01*
X2791006Y5837823D01*
X2779514Y5849876D01*
X2764937Y5857920D01*
X2755905Y5874637D01*
X2742793Y5888389D01*
X2739641Y5904741D01*
X2731726Y5919392D01*
X2732332Y5942668D01*
X2729571Y5956996D01*
X2732930Y5965630D01*
X2733235Y5977303D01*
X2737300Y5992473D01*
X2737300Y6089195D01*
X2756985Y6156234D01*
X2809789Y6201989D01*
X2878947Y6211933D01*
X2942503Y6182908D01*
X2948981Y6176876D01*
X3006229Y6119628D01*
X3006464Y6119321D01*
X3006620Y6119235D01*
X3006832Y6118842D01*
X3025934Y6093949D01*
X3031712Y6083942D01*
X3044792Y6061287D01*
X3119359Y5986720D01*
X3210685Y5933993D01*
X3312545Y5906700D01*
X3312547Y5906700D01*
X3417997Y5906700D01*
X3417999Y5906700D01*
X3519859Y5933993D01*
X3611185Y5986720D01*
X3628176Y6003712D01*
X3689496Y6037197D01*
X3759188Y6032214D01*
X3777851Y6023421D01*
X3858613Y5976793D01*
X3960473Y5949500D01*
X3960475Y5949500D01*
X4065924Y5949500D01*
X4065927Y5949500D01*
X4100799Y5958844D01*
X4170646Y5957181D01*
X4228508Y5918019D01*
X4246324Y5889155D01*
X4287793Y5795236D01*
X4287794Y5795235D01*
X4367235Y5715794D01*
X4470009Y5670415D01*
X4495135Y5667500D01*
X5284864Y5667501D01*
X5284879Y5667503D01*
X5284882Y5667503D01*
X5309987Y5670414D01*
X5309988Y5670415D01*
X5309991Y5670415D01*
X5412765Y5715794D01*
X5492206Y5795235D01*
X5518027Y5853714D01*
X5563112Y5907090D01*
X5629899Y5927618D01*
X5693459Y5911015D01*
X5735413Y5886793D01*
X5837273Y5859500D01*
X5837275Y5859500D01*
X5942725Y5859500D01*
X5942727Y5859500D01*
X6044587Y5886793D01*
X6086540Y5911015D01*
X6154437Y5927488D01*
X6220464Y5904637D01*
X6261973Y5853714D01*
X6287793Y5795236D01*
X6287794Y5795235D01*
X6367235Y5715794D01*
X6470009Y5670415D01*
X6495135Y5667500D01*
X7215500Y5667501D01*
X7282539Y5647817D01*
X7328294Y5595013D01*
X7339500Y5543501D01*
X7339500Y5173125D01*
X7330855Y5143685D01*
X7324332Y5113698D01*
X7320577Y5108683D01*
X7319815Y5106086D01*
X7303181Y5085444D01*
X7222556Y5004819D01*
X7161233Y4971334D01*
X7134875Y4968500D01*
X6495143Y4968500D01*
X6495117Y4968498D01*
X6470012Y4965587D01*
X6470008Y4965585D01*
X6367235Y4920207D01*
X6287794Y4840766D01*
X6242415Y4737994D01*
X6242415Y4737992D01*
X6239500Y4712869D01*
X6239500Y4089124D01*
X6219815Y4022085D01*
X6203181Y4001443D01*
X6188436Y3986699D01*
X6188434Y3986697D01*
X6150301Y3894632D01*
X6150300Y3894627D01*
X6150300Y3847843D01*
X6130615Y3780804D01*
X6077811Y3735049D01*
X6008653Y3725105D01*
X5998136Y3727262D01*
X5996328Y3727500D01*
X5996327Y3727500D01*
X5890873Y3727500D01*
X5789013Y3700207D01*
X5789010Y3700206D01*
X5697685Y3647479D01*
X5623121Y3572915D01*
X5570394Y3481590D01*
X5570393Y3481587D01*
X5543100Y3379727D01*
X5543100Y3274273D01*
X5570393Y3172413D01*
X5623120Y3081087D01*
X5697687Y3006520D01*
X5789013Y2953793D01*
X5850116Y2937421D01*
X5909775Y2901058D01*
X5940305Y2838211D01*
X5932011Y2768836D01*
X5905703Y2729966D01*
X5439976Y2264239D01*
X5378653Y2230754D01*
X5308961Y2235738D01*
X5253028Y2277610D01*
X5232521Y2319826D01*
X5223207Y2354587D01*
X5170480Y2445913D01*
X5095913Y2520480D01*
X5004587Y2573207D01*
X4902727Y2600500D01*
X4797273Y2600500D01*
X4695413Y2573207D01*
X4695410Y2573206D01*
X4604085Y2520479D01*
X4529521Y2445915D01*
X4476794Y2354590D01*
X4476793Y2354587D01*
X4449500Y2252727D01*
X4449500Y2147273D01*
X4476793Y2045413D01*
X4529520Y1954087D01*
X4604087Y1879520D01*
X4695413Y1826793D01*
X4730173Y1817480D01*
X4789833Y1781116D01*
X4820363Y1718269D01*
X4812069Y1648894D01*
X4785762Y1610024D01*
X4731375Y1555636D01*
X4587636Y1411897D01*
X4587635Y1411896D01*
X4531703Y1355965D01*
X4531703Y1355964D01*
X4514263Y1338524D01*
X4461236Y1285497D01*
X4423100Y1193430D01*
X4423100Y1129530D01*
X4418875Y1097438D01*
X4399500Y1025129D01*
X4399500Y1025127D01*
X4399500Y919673D01*
X4426793Y817813D01*
X4479520Y726487D01*
X4554087Y651920D01*
X4645413Y599193D01*
X4747273Y571900D01*
X4794877Y571900D01*
X4861916Y552215D01*
X4882558Y535581D01*
X5660035Y-241895D01*
X5660036Y-241897D01*
X5730503Y-312364D01*
X5750097Y-320480D01*
X5822573Y-350501D01*
X5822574Y-350501D01*
X5936662Y-350501D01*
X5936670Y-350500D01*
X5981274Y-350500D01*
X6048313Y-370185D01*
X6068955Y-386819D01*
X7173581Y-1491445D01*
X7207066Y-1552768D01*
X7209900Y-1579126D01*
X7209900Y-2779428D01*
X7190215Y-2846467D01*
X7137411Y-2892222D01*
X7069716Y-2902367D01*
X7063130Y-2901500D01*
X7063127Y-2901500D01*
X6957673Y-2901500D01*
X6855813Y-2928793D01*
X6855810Y-2928794D01*
X6764485Y-2981521D01*
X6689921Y-3056085D01*
X6637194Y-3147410D01*
X6637193Y-3147413D01*
X6622920Y-3200683D01*
X6609900Y-3249273D01*
X6609900Y-3354727D01*
X6637193Y-3456587D01*
X6689920Y-3547913D01*
X6764487Y-3622480D01*
X6855813Y-3675207D01*
X6957673Y-3702500D01*
X6957675Y-3702500D01*
X7063125Y-3702500D01*
X7063127Y-3702500D01*
X7164987Y-3675207D01*
X7215654Y-3645954D01*
X7283551Y-3629482D01*
X7349578Y-3652334D01*
X7365333Y-3665661D01*
X8777091Y-5077419D01*
X8810576Y-5138742D01*
X8805592Y-5208434D01*
X8763720Y-5264367D01*
X8698256Y-5288784D01*
X8689410Y-5289100D01*
X8634073Y-5289100D01*
X8532213Y-5316393D01*
X8532210Y-5316394D01*
X8440885Y-5369121D01*
X8366321Y-5443685D01*
X8313594Y-5535010D01*
X8313593Y-5535013D01*
X8286300Y-5636873D01*
X8286300Y-5742327D01*
X8313593Y-5844187D01*
X8366320Y-5935513D01*
X8440887Y-6010080D01*
X8532213Y-6062807D01*
X8634073Y-6090100D01*
X8634075Y-6090100D01*
X8739525Y-6090100D01*
X8739527Y-6090100D01*
X8841387Y-6062807D01*
X8932713Y-6010080D01*
X9007280Y-5935513D01*
X9060007Y-5844187D01*
X9060009Y-5844177D01*
X9061653Y-5840211D01*
X9063944Y-5837367D01*
X9064071Y-5837148D01*
X9064105Y-5837167D01*
X9105492Y-5785806D01*
X9171786Y-5763739D01*
X9239486Y-5781016D01*
X9287098Y-5832151D01*
X9299506Y-5900911D01*
X9295991Y-5919751D01*
X9269700Y-6017873D01*
X9269700Y-6123327D01*
X9296993Y-6225187D01*
X9349720Y-6316513D01*
X9424287Y-6391080D01*
X9515613Y-6443807D01*
X9617473Y-6471100D01*
X9617475Y-6471100D01*
X9722925Y-6471100D01*
X9722927Y-6471100D01*
X9824787Y-6443807D01*
X9916113Y-6391080D01*
X9990680Y-6316513D01*
X10043407Y-6225187D01*
X10070700Y-6123327D01*
X10070700Y-6017873D01*
X10043407Y-5916013D01*
X9990680Y-5824687D01*
X9916113Y-5750120D01*
X9824787Y-5697393D01*
X9722927Y-5670100D01*
X9722926Y-5670100D01*
X9722922Y-5670099D01*
X9721403Y-5669899D01*
X9720217Y-5669374D01*
X9715077Y-5667997D01*
X9715291Y-5667195D01*
X9657508Y-5641628D01*
X9619041Y-5583301D01*
X9618215Y-5513436D01*
X9630206Y-5484969D01*
X9676807Y-5404254D01*
X9704100Y-5302394D01*
X9704100Y-5196940D01*
X9676807Y-5095080D01*
X9624080Y-5003754D01*
X9549513Y-4929187D01*
X9523162Y-4913973D01*
X9474949Y-4863405D01*
X9461728Y-4794798D01*
X9487697Y-4729934D01*
X9497469Y-4718923D01*
X9570480Y-4645913D01*
X9623207Y-4554587D01*
X9650500Y-4452727D01*
X9650500Y-4347273D01*
X9623207Y-4245413D01*
X9570480Y-4154087D01*
X9495913Y-4079520D01*
X9429059Y-4040922D01*
X9404589Y-4026794D01*
X9404588Y-4026793D01*
X9404587Y-4026793D01*
X9302727Y-3999500D01*
X9197273Y-3999500D01*
X9095413Y-4026793D01*
X9095410Y-4026794D01*
X9004085Y-4079521D01*
X8929521Y-4154085D01*
X8875899Y-4246959D01*
X8825331Y-4295173D01*
X8756724Y-4308395D01*
X8691860Y-4282426D01*
X8680832Y-4272638D01*
X8219884Y-3811690D01*
X8186399Y-3750367D01*
X8191383Y-3680675D01*
X8233255Y-3624742D01*
X8275472Y-3604234D01*
X8280279Y-3602946D01*
X8280281Y-3602946D01*
X8382141Y-3575653D01*
X8473467Y-3522926D01*
X8548034Y-3448359D01*
X8600761Y-3357033D01*
X8628054Y-3255173D01*
X8628054Y-3149719D01*
X8600761Y-3047859D01*
X8548034Y-2956533D01*
X8473467Y-2881966D01*
X8382143Y-2829240D01*
X8382142Y-2829239D01*
X8364914Y-2824623D01*
X8342055Y-2818498D01*
X8282397Y-2782134D01*
X8251868Y-2719287D01*
X8260163Y-2649911D01*
X8304648Y-2596033D01*
X8312117Y-2591357D01*
X8373913Y-2555680D01*
X8448480Y-2481113D01*
X8501207Y-2389787D01*
X8528500Y-2287927D01*
X8528500Y-2182473D01*
X8501207Y-2080613D01*
X8448480Y-1989287D01*
X8426474Y-1967281D01*
X8392989Y-1905958D01*
X8397973Y-1836266D01*
X8426474Y-1791919D01*
X8433573Y-1784820D01*
X8448480Y-1769913D01*
X8501207Y-1678587D01*
X8528500Y-1576727D01*
X8528500Y-1471273D01*
X8501207Y-1369413D01*
X8448480Y-1278087D01*
X8373913Y-1203520D01*
X8282587Y-1150793D01*
X8180727Y-1123500D01*
X8075273Y-1123500D01*
X7973413Y-1150793D01*
X7973410Y-1150794D01*
X7882087Y-1203520D01*
X7825813Y-1259794D01*
X7764489Y-1293278D01*
X7694798Y-1288293D01*
X7650451Y-1259793D01*
X6278294Y112364D01*
X6186226Y150500D01*
X6186225Y150500D01*
X6027522Y150500D01*
X5960483Y170185D01*
X5939841Y186819D01*
X5236819Y889842D01*
X5203924Y948587D01*
X5200500Y962855D01*
X5200500Y1025127D01*
X5173207Y1126987D01*
X5152506Y1162842D01*
X5148310Y1180328D01*
X5149194Y1197981D01*
X5145026Y1215160D01*
X5150906Y1232152D01*
X5151806Y1250110D01*
X5162095Y1264485D01*
X5167876Y1281188D01*
X5181199Y1296939D01*
X6613164Y2728903D01*
X6651300Y2820972D01*
X6651300Y2896945D01*
X6670985Y2963984D01*
X6723789Y3009739D01*
X6792947Y3019683D01*
X6856503Y2990658D01*
X6862981Y2984626D01*
X6866087Y2981520D01*
X6957413Y2928793D01*
X7059273Y2901500D01*
X7059275Y2901500D01*
X7164725Y2901500D01*
X7164727Y2901500D01*
X7266587Y2928793D01*
X7357913Y2981520D01*
X7432480Y3056087D01*
X7485207Y3147413D01*
X7512500Y3249273D01*
X7512500Y3354727D01*
X7485207Y3456587D01*
X7432480Y3547913D01*
X7426363Y3554030D01*
X7392878Y3615353D01*
X7397862Y3685045D01*
X7426363Y3729392D01*
X7446801Y3749830D01*
X7492206Y3795235D01*
X7537585Y3898009D01*
X7540500Y3923135D01*
X7540499Y4562878D01*
X7560183Y4629916D01*
X7576818Y4650558D01*
X7668267Y4742007D01*
X7802364Y4876103D01*
X7840500Y4968172D01*
X7840500Y5067827D01*
X7840500Y6712869D01*
X8239500Y6712869D01*
X8239500Y5923144D01*
X8239502Y5923118D01*
X8242413Y5898013D01*
X8242415Y5898009D01*
X8287793Y5795236D01*
X8287794Y5795235D01*
X8367235Y5715794D01*
X8470009Y5670415D01*
X8495135Y5667500D01*
X9134876Y5667501D01*
X9201915Y5647817D01*
X9222557Y5631182D01*
X9575581Y5278158D01*
X9590284Y5251231D01*
X9606877Y5225412D01*
X9607768Y5219212D01*
X9609066Y5216835D01*
X9611900Y5190477D01*
X9611900Y5019041D01*
X9592215Y4952002D01*
X9539411Y4906247D01*
X9470253Y4896303D01*
X9417827Y4916739D01*
X9412767Y4920205D01*
X9412762Y4920207D01*
X9352893Y4946642D01*
X9309992Y4965585D01*
X9284865Y4968500D01*
X8495143Y4968500D01*
X8495117Y4968498D01*
X8470012Y4965587D01*
X8470008Y4965585D01*
X8367235Y4920207D01*
X8287794Y4840766D01*
X8242415Y4737994D01*
X8242415Y4737992D01*
X8239500Y4712869D01*
X8239500Y3923144D01*
X8239502Y3923118D01*
X8242413Y3898013D01*
X8242415Y3898009D01*
X8287793Y3795236D01*
X8287794Y3795235D01*
X8367235Y3715794D01*
X8470009Y3670415D01*
X8495135Y3667500D01*
X8784945Y3667501D01*
X8851983Y3647817D01*
X8897738Y3595013D01*
X8907682Y3525854D01*
X8892332Y3481503D01*
X8876795Y3454592D01*
X8876794Y3454590D01*
X8876793Y3454587D01*
X8849500Y3352727D01*
X8849500Y3247273D01*
X8876793Y3145413D01*
X8929520Y3054087D01*
X9004087Y2979520D01*
X9095413Y2926793D01*
X9197273Y2899500D01*
X9197275Y2899500D01*
X9302725Y2899500D01*
X9302727Y2899500D01*
X9404587Y2926793D01*
X9425902Y2939100D01*
X9431800Y2940531D01*
X9436389Y2944506D01*
X9465350Y2948671D01*
X9493797Y2955572D01*
X9499536Y2953586D01*
X9505547Y2954450D01*
X9532170Y2942292D01*
X9559824Y2932721D01*
X9563577Y2927949D01*
X9569103Y2925425D01*
X9584928Y2900800D01*
X9603016Y2877801D01*
X9604432Y2870451D01*
X9606877Y2866647D01*
X9611900Y2831712D01*
X9611900Y2620819D01*
X9592215Y2553780D01*
X9539411Y2508025D01*
X9470253Y2498081D01*
X9425900Y2513432D01*
X9414191Y2520192D01*
X9365876Y2548087D01*
X9349389Y2557606D01*
X9349388Y2557607D01*
X9349387Y2557607D01*
X9247527Y2584900D01*
X9142073Y2584900D01*
X9040213Y2557607D01*
X9040210Y2557606D01*
X8948885Y2504879D01*
X8874321Y2430315D01*
X8821594Y2338990D01*
X8821593Y2338987D01*
X8794300Y2237127D01*
X8794300Y2131673D01*
X8808582Y2078374D01*
X8821593Y2029814D01*
X8821594Y2029811D01*
X8826454Y2021393D01*
X8874320Y1938487D01*
X8948887Y1863920D01*
X9040213Y1811193D01*
X9142073Y1783900D01*
X9142075Y1783900D01*
X9247525Y1783900D01*
X9247527Y1783900D01*
X9349387Y1811193D01*
X9425901Y1855369D01*
X9493799Y1871842D01*
X9559826Y1848990D01*
X9603017Y1794069D01*
X9611900Y1747982D01*
X9611900Y-1731711D01*
X9592215Y-1798750D01*
X9539411Y-1844505D01*
X9470253Y-1854449D01*
X9425900Y-1839098D01*
X9404589Y-1826794D01*
X9404588Y-1826793D01*
X9404587Y-1826793D01*
X9302727Y-1799500D01*
X9197273Y-1799500D01*
X9095413Y-1826793D01*
X9095410Y-1826794D01*
X9004085Y-1879521D01*
X8929521Y-1954085D01*
X8876794Y-2045410D01*
X8876793Y-2045413D01*
X8849500Y-2147273D01*
X8849500Y-2252727D01*
X8871441Y-2334610D01*
X8876793Y-2354586D01*
X8876794Y-2354589D01*
X8884378Y-2367724D01*
X8929520Y-2445913D01*
X9004087Y-2520480D01*
X9095413Y-2573207D01*
X9197273Y-2600500D01*
X9197275Y-2600500D01*
X9295877Y-2600500D01*
X9317122Y-2606738D01*
X9339211Y-2608318D01*
X9349994Y-2616390D01*
X9362916Y-2620185D01*
X9377415Y-2636918D01*
X9395144Y-2650190D01*
X9399851Y-2662810D01*
X9408671Y-2672989D01*
X9411822Y-2694906D01*
X9419561Y-2715654D01*
X9416698Y-2728814D01*
X9418615Y-2742147D01*
X9409415Y-2762290D01*
X9404709Y-2783927D01*
X9391440Y-2801652D01*
X9389590Y-2805703D01*
X9383558Y-2812181D01*
X9332558Y-2863181D01*
X9271235Y-2896666D01*
X9244877Y-2899500D01*
X9197273Y-2899500D01*
X9095413Y-2926793D01*
X9095410Y-2926794D01*
X9004085Y-2979521D01*
X8929521Y-3054085D01*
X8876794Y-3145410D01*
X8876792Y-3145415D01*
X8873465Y-3157829D01*
X8873464Y-3157836D01*
X8849500Y-3247273D01*
X8849500Y-3352727D01*
X8876793Y-3454587D01*
X8929520Y-3545913D01*
X9004087Y-3620480D01*
X9095413Y-3673207D01*
X9197273Y-3700500D01*
X9197275Y-3700500D01*
X9302725Y-3700500D01*
X9302727Y-3700500D01*
X9404587Y-3673207D01*
X9495913Y-3620480D01*
X9570480Y-3545913D01*
X9623207Y-3454587D01*
X9650500Y-3352727D01*
X9650500Y-3305123D01*
X9659144Y-3275682D01*
X9665668Y-3245696D01*
X9669422Y-3240680D01*
X9670185Y-3238084D01*
X9686819Y-3217442D01*
X9799419Y-3104842D01*
X9860742Y-3071357D01*
X9930434Y-3076341D01*
X9986367Y-3118213D01*
X10010784Y-3183677D01*
X10011100Y-3192523D01*
X10011100Y-5079029D01*
X10043098Y-5156278D01*
X10049236Y-5171097D01*
X10201636Y-5323497D01*
X10272103Y-5393964D01*
X10364172Y-5432100D01*
X10530358Y-5432100D01*
X10597397Y-5451785D01*
X10643152Y-5504589D01*
X10654358Y-5556100D01*
X10654358Y-5663118D01*
X10669211Y-5756904D01*
X10726807Y-5869942D01*
X10726809Y-5869944D01*
X10726811Y-5869947D01*
X10816509Y-5959645D01*
X10816511Y-5959646D01*
X10816515Y-5959650D01*
X10915485Y-6010078D01*
X10929555Y-6017247D01*
X11023332Y-6032099D01*
X11023338Y-6032100D01*
X11611375Y-6032099D01*
X11705161Y-6017246D01*
X11818199Y-5959650D01*
X11907907Y-5869942D01*
X11965503Y-5756904D01*
X11965503Y-5756902D01*
X11965504Y-5756901D01*
X11965504Y-5756900D01*
X11980356Y-5663124D01*
X11980357Y-5663119D01*
X11980356Y-4700082D01*
X11965503Y-4606296D01*
X11907907Y-4493258D01*
X11907903Y-4493254D01*
X11907902Y-4493252D01*
X11818204Y-4403554D01*
X11818201Y-4403552D01*
X11818199Y-4403550D01*
X11705161Y-4345954D01*
X11705159Y-4345953D01*
X11705158Y-4345953D01*
X11673743Y-4340977D01*
X11673743Y-4340976D01*
X11611383Y-4331100D01*
X11289703Y-4331100D01*
X11222664Y-4311415D01*
X11176909Y-4258611D01*
X11166965Y-4189453D01*
X11195990Y-4125897D01*
X11202010Y-4119431D01*
X11220480Y-4100962D01*
X11273207Y-4009636D01*
X11300500Y-3907776D01*
X11300500Y-3802322D01*
X11273207Y-3700462D01*
X11220480Y-3609136D01*
X11145913Y-3534569D01*
X11054587Y-3481842D01*
X10952727Y-3454549D01*
X10847273Y-3454549D01*
X10745413Y-3481842D01*
X10745410Y-3481843D01*
X10698100Y-3509158D01*
X10630200Y-3525631D01*
X10564173Y-3502778D01*
X10520982Y-3447857D01*
X10512100Y-3401771D01*
X10512100Y-2652290D01*
X10531785Y-2585251D01*
X10553157Y-2562018D01*
X10552566Y-2561427D01*
X10592568Y-2521425D01*
X10632880Y-2481113D01*
X10685607Y-2389787D01*
X10712900Y-2287927D01*
X10712900Y-2182473D01*
X10685607Y-2080613D01*
X10632880Y-1989287D01*
X10558313Y-1914720D01*
X10497483Y-1879600D01*
X10466989Y-1861994D01*
X10466988Y-1861993D01*
X10466987Y-1861993D01*
X10365127Y-1834700D01*
X10259673Y-1834700D01*
X10259670Y-1834700D01*
X10253084Y-1835567D01*
X10184049Y-1824801D01*
X10131793Y-1778420D01*
X10112900Y-1712628D01*
X10112900Y-1369673D01*
X10572300Y-1369673D01*
X10572300Y-1475127D01*
X10599524Y-1576727D01*
X10599593Y-1576986D01*
X10599594Y-1576989D01*
X10604040Y-1584689D01*
X10652320Y-1668313D01*
X10726887Y-1742880D01*
X10818213Y-1795607D01*
X10920073Y-1822900D01*
X10920075Y-1822900D01*
X11025525Y-1822900D01*
X11025527Y-1822900D01*
X11127387Y-1795607D01*
X11218713Y-1742880D01*
X11293280Y-1668313D01*
X11346007Y-1576987D01*
X11373300Y-1475127D01*
X11373300Y-1369673D01*
X11346007Y-1267813D01*
X11293280Y-1176487D01*
X11218713Y-1101920D01*
X11127387Y-1049193D01*
X11025527Y-1021900D01*
X10920073Y-1021900D01*
X10818213Y-1049193D01*
X10818210Y-1049194D01*
X10726885Y-1101921D01*
X10652321Y-1176485D01*
X10599594Y-1267810D01*
X10599593Y-1267813D01*
X10572300Y-1369673D01*
X10112900Y-1369673D01*
X10112900Y977429D01*
X10132585Y1044468D01*
X10185389Y1090223D01*
X10253092Y1100367D01*
X10259671Y1099501D01*
X10259673Y1099500D01*
X10259675Y1099500D01*
X10365125Y1099500D01*
X10365127Y1099500D01*
X10466987Y1126793D01*
X10558313Y1179520D01*
X10632880Y1254087D01*
X10685607Y1345413D01*
X10712900Y1447273D01*
X10712900Y1552727D01*
X10685607Y1654587D01*
X10632880Y1745913D01*
X10558313Y1820480D01*
X10483069Y1863922D01*
X10466989Y1873206D01*
X10466988Y1873207D01*
X10466987Y1873207D01*
X10365127Y1900500D01*
X10259673Y1900500D01*
X10259670Y1900500D01*
X10253084Y1899633D01*
X10184049Y1910399D01*
X10131793Y1956780D01*
X10112900Y2022572D01*
X10112900Y2728629D01*
X10132585Y2795668D01*
X10185389Y2841423D01*
X10253092Y2851567D01*
X10259671Y2850701D01*
X10259673Y2850700D01*
X10259675Y2850700D01*
X10365125Y2850700D01*
X10365127Y2850700D01*
X10466987Y2877993D01*
X10558313Y2930720D01*
X10632880Y3005287D01*
X10685607Y3096613D01*
X10712900Y3198473D01*
X10712900Y3303927D01*
X10685607Y3405787D01*
X10632880Y3497113D01*
X10558313Y3571680D01*
X10479274Y3617313D01*
X10466989Y3624406D01*
X10466988Y3624407D01*
X10466987Y3624407D01*
X10365127Y3651700D01*
X10259673Y3651700D01*
X10259670Y3651700D01*
X10253084Y3650833D01*
X10236184Y3653469D01*
X10219253Y3651034D01*
X10202377Y3658741D01*
X10184049Y3661599D01*
X10171256Y3672954D01*
X10155697Y3680059D01*
X10145667Y3695666D01*
X10131793Y3707980D01*
X10126978Y3724747D01*
X10117923Y3738837D01*
X10112900Y3773772D01*
X10112900Y3859640D01*
X10132585Y3926679D01*
X10185389Y3972434D01*
X10254547Y3982378D01*
X10268980Y3979418D01*
X10310473Y3968300D01*
X10310476Y3968300D01*
X10415925Y3968300D01*
X10415927Y3968300D01*
X10517787Y3995593D01*
X10609113Y4048320D01*
X10683680Y4122887D01*
X10736407Y4214213D01*
X10763700Y4316073D01*
X10763700Y4421527D01*
X10736407Y4523387D01*
X10683680Y4614713D01*
X10609113Y4689280D01*
X10517787Y4742007D01*
X10415927Y4769300D01*
X10310473Y4769300D01*
X10310468Y4769300D01*
X10268991Y4758186D01*
X10199142Y4759850D01*
X10141280Y4799013D01*
X10113777Y4863242D01*
X10112900Y4877961D01*
X10112900Y5395427D01*
X10112899Y5395430D01*
X10109728Y5403085D01*
X10074764Y5487497D01*
X10004297Y5557964D01*
X9576818Y5985443D01*
X9562114Y6012371D01*
X9545522Y6038189D01*
X9544630Y6044390D01*
X9543333Y6046766D01*
X9540499Y6073124D01*
X9540499Y6148727D01*
X10724700Y6148727D01*
X10724700Y6043273D01*
X10747323Y5958844D01*
X10751993Y5941414D01*
X10751994Y5941411D01*
X10760033Y5927488D01*
X10804720Y5850087D01*
X10879287Y5775520D01*
X10970613Y5722793D01*
X11072473Y5695500D01*
X11072475Y5695500D01*
X11177925Y5695500D01*
X11177927Y5695500D01*
X11279787Y5722793D01*
X11371113Y5775520D01*
X11445680Y5850087D01*
X11498407Y5941413D01*
X11525700Y6043273D01*
X11525700Y6148727D01*
X11498407Y6250587D01*
X11445680Y6341913D01*
X11371113Y6416480D01*
X11279787Y6469207D01*
X11177927Y6496500D01*
X11072473Y6496500D01*
X10970613Y6469207D01*
X10970610Y6469206D01*
X10879285Y6416479D01*
X10804721Y6341915D01*
X10751994Y6250590D01*
X10751993Y6250587D01*
X10724700Y6148727D01*
X9540499Y6148727D01*
X9540499Y6611746D01*
X9560184Y6678785D01*
X9612988Y6724540D01*
X9682146Y6734484D01*
X9745702Y6705459D01*
X9752180Y6699427D01*
X9812487Y6639120D01*
X9903813Y6586393D01*
X10005673Y6559100D01*
X10005675Y6559100D01*
X10111125Y6559100D01*
X10111127Y6559100D01*
X10212987Y6586393D01*
X10304313Y6639120D01*
X10378880Y6713687D01*
X10431607Y6805013D01*
X10458900Y6906873D01*
X10458900Y7012327D01*
X10431607Y7114187D01*
X10378880Y7205513D01*
X10304313Y7280080D01*
X10212987Y7332807D01*
X10111127Y7360100D01*
X10005673Y7360100D01*
X9903813Y7332807D01*
X9903810Y7332806D01*
X9812485Y7280079D01*
X9737921Y7205515D01*
X9685194Y7114190D01*
X9685193Y7114187D01*
X9657900Y7012327D01*
X9657900Y6974433D01*
X9638215Y6907394D01*
X9585411Y6861639D01*
X9516253Y6851695D01*
X9452697Y6880720D01*
X9446219Y6886752D01*
X9412765Y6920206D01*
X9309992Y6965585D01*
X9284865Y6968500D01*
X8495143Y6968500D01*
X8495117Y6968498D01*
X8470012Y6965587D01*
X8470008Y6965585D01*
X8367235Y6920207D01*
X8287794Y6840766D01*
X8242415Y6737994D01*
X8242415Y6737992D01*
X8239500Y6712869D01*
X7840500Y6712869D01*
X7840500Y6866958D01*
X7802364Y6959027D01*
X7731897Y7029494D01*
X7291827Y7469564D01*
X7263069Y7481476D01*
X7215946Y7500995D01*
X7175718Y7527875D01*
X7125914Y7577679D01*
X7125913Y7577680D01*
X7034587Y7630407D01*
X6932727Y7657700D01*
X6827273Y7657700D01*
X6725413Y7630407D01*
X6725410Y7630406D01*
X6634085Y7577679D01*
X6559521Y7503115D01*
X6506794Y7411790D01*
X6506793Y7411787D01*
X6479500Y7309927D01*
X6479500Y7204473D01*
X6504969Y7109419D01*
X6508238Y7097222D01*
X6506575Y7027372D01*
X6467412Y6969510D01*
X6438550Y6951695D01*
X6367234Y6920206D01*
X6287794Y6840766D01*
X6242415Y6737994D01*
X6242413Y6737987D01*
X6240348Y6720186D01*
X6213067Y6655863D01*
X6155340Y6616500D01*
X6085496Y6614596D01*
X6055175Y6627094D01*
X6044589Y6633206D01*
X6044588Y6633207D01*
X6044587Y6633207D01*
X5942727Y6660500D01*
X5837273Y6660500D01*
X5735413Y6633207D01*
X5735410Y6633206D01*
X5724823Y6627093D01*
X5656922Y6610620D01*
X5590895Y6633473D01*
X5547705Y6688394D01*
X5539649Y6720193D01*
X5537585Y6737991D01*
X5492206Y6840765D01*
X5412765Y6920206D01*
X5389551Y6930456D01*
X5309992Y6965585D01*
X5284865Y6968500D01*
X4495143Y6968500D01*
X4495117Y6968498D01*
X4470012Y6965587D01*
X4470008Y6965585D01*
X4367235Y6920207D01*
X4287795Y6840767D01*
X4287794Y6840766D01*
X4287794Y6840765D01*
X4275579Y6813100D01*
X4271593Y6804073D01*
X4226506Y6750698D01*
X4159720Y6730171D01*
X4126066Y6734386D01*
X4119423Y6736166D01*
X4065927Y6750500D01*
X3960473Y6750500D01*
X3858613Y6723207D01*
X3858610Y6723206D01*
X3767285Y6670479D01*
X3750293Y6653487D01*
X3688969Y6620003D01*
X3619278Y6624989D01*
X3600614Y6633783D01*
X3591943Y6638789D01*
X3529496Y6674843D01*
X3519861Y6680406D01*
X3519860Y6680407D01*
X3519859Y6680407D01*
X3417999Y6707700D01*
X3312545Y6707700D01*
X3235108Y6686951D01*
X3223107Y6687237D01*
X3211861Y6683042D01*
X3188826Y6688053D01*
X3165258Y6688614D01*
X3153610Y6695714D01*
X3143588Y6697894D01*
X3115334Y6719045D01*
X3043173Y6791206D01*
X3009688Y6852529D01*
X3014672Y6922221D01*
X3056544Y6978154D01*
X3068838Y6986264D01*
X3082913Y6994390D01*
X3157480Y7068957D01*
X3210207Y7160283D01*
X3237500Y7262143D01*
X3237500Y7367597D01*
X3210207Y7469457D01*
X3157480Y7560783D01*
X3082913Y7635350D01*
X2991587Y7688077D01*
X2889727Y7715370D01*
X2784273Y7715370D01*
X2682413Y7688077D01*
X2682410Y7688076D01*
X2591085Y7635349D01*
X2516521Y7560785D01*
X2501077Y7534035D01*
X2450509Y7485820D01*
X2381902Y7472599D01*
X2346240Y7481476D01*
X2293998Y7503115D01*
X2265547Y7514900D01*
X2265546Y7514900D01*
X621255Y7514900D01*
X554216Y7534585D01*
X533574Y7551219D01*
X499914Y7584879D01*
X499913Y7584880D01*
X408587Y7637607D01*
X306727Y7664900D01*
X201273Y7664900D01*
X99413Y7637607D01*
X99410Y7637606D01*
X8085Y7584879D01*
X-66479Y7510315D01*
X-119206Y7418990D01*
X-119207Y7418989D01*
X-132693Y7368655D01*
X-147188Y7344876D01*
X-158755Y7319546D01*
X-165121Y7315456D01*
X-169058Y7308995D01*
X-194106Y7296828D01*
X-217533Y7281772D01*
X-228281Y7280227D01*
X-231905Y7278466D01*
X-252468Y7276749D01*
X-269144Y7276749D01*
X-336183Y7296434D01*
X-381938Y7349238D01*
X-388471Y7367408D01*
X-388792Y7368182D01*
X-388793Y7368187D01*
X-441520Y7459513D01*
X-516087Y7534080D01*
X-591603Y7577679D01*
X-607411Y7586806D01*
X-607412Y7586807D01*
X-607413Y7586807D01*
X-696955Y7610800D01*
X-756615Y7647164D01*
X-787144Y7710011D01*
X-778849Y7779387D01*
X-752545Y7818251D01*
X428839Y8999636D01*
X490161Y9033119D01*
X559853Y9028135D01*
X615786Y8986263D01*
X621401Y8976402D01*
X621448Y8976432D01*
X660389Y8918153D01*
X661496Y8916496D01*
X711278Y8883233D01*
X711281Y8883233D01*
X711282Y8883232D01*
X755177Y8874500D01*
X755180Y8874500D01*
X1784822Y8874500D01*
X1828717Y8883232D01*
X1828717Y8883233D01*
X1828722Y8883233D01*
X1878504Y8916496D01*
X1911767Y8966278D01*
X1913787Y8976432D01*
X1920500Y9010178D01*
X1920500Y9361677D01*
X10300158Y9361677D01*
X10300158Y9210146D01*
X10339377Y9063775D01*
X10357077Y9033119D01*
X10415143Y8932546D01*
X10522293Y8825396D01*
X10653523Y8749630D01*
X10799892Y8710411D01*
X10799894Y8710411D01*
X10951422Y8710411D01*
X10951424Y8710411D01*
X11097793Y8749630D01*
X11229023Y8825396D01*
X11336173Y8932546D01*
X11411939Y9063776D01*
X11451158Y9210145D01*
X11451158Y9361677D01*
X11411939Y9508046D01*
X11336173Y9639276D01*
X11229023Y9746426D01*
X11152605Y9790546D01*
X11097794Y9822192D01*
X11013440Y9844794D01*
X10951424Y9861411D01*
X10799892Y9861411D01*
X10653521Y9822192D01*
X10522293Y9746426D01*
X10522290Y9746424D01*
X10415145Y9639279D01*
X10415143Y9639276D01*
X10339377Y9508048D01*
X10300158Y9361677D01*
X1920500Y9361677D01*
X1920500Y9996809D01*
X2429500Y9996809D01*
X2429500Y9878191D01*
X2460201Y9763614D01*
X2519511Y9660887D01*
X2603387Y9577011D01*
X2706114Y9517701D01*
X2820691Y9487000D01*
X2820694Y9487000D01*
X2939306Y9487000D01*
X2939309Y9487000D01*
X3053886Y9517701D01*
X3156613Y9577011D01*
X3240489Y9660887D01*
X3299799Y9763614D01*
X3330500Y9878191D01*
X3330500Y9996809D01*
X3315683Y10052107D01*
X8280486Y10052107D01*
X8280486Y9946653D01*
X8307779Y9844793D01*
X8360506Y9753467D01*
X8435073Y9678900D01*
X8526399Y9626173D01*
X8628259Y9598880D01*
X8628261Y9598880D01*
X8733711Y9598880D01*
X8733713Y9598880D01*
X8835573Y9626173D01*
X8926899Y9678900D01*
X9001466Y9753467D01*
X9054193Y9844793D01*
X9081486Y9946653D01*
X9081486Y10052107D01*
X9054193Y10153967D01*
X9001466Y10245293D01*
X8926899Y10319860D01*
X8860045Y10358458D01*
X8835575Y10372586D01*
X8835574Y10372587D01*
X8835573Y10372587D01*
X8733713Y10399880D01*
X8628259Y10399880D01*
X8526399Y10372587D01*
X8526396Y10372586D01*
X8435071Y10319859D01*
X8360507Y10245295D01*
X8307780Y10153970D01*
X8307779Y10153967D01*
X8280486Y10052107D01*
X3315683Y10052107D01*
X3299799Y10111386D01*
X3240489Y10214113D01*
X3156613Y10297989D01*
X3053886Y10357299D01*
X2939309Y10388000D01*
X2820691Y10388000D01*
X2706114Y10357299D01*
X2706112Y10357299D01*
X2706112Y10357298D01*
X2603387Y10297989D01*
X2603384Y10297987D01*
X2519513Y10214116D01*
X2519511Y10214113D01*
X2472972Y10133505D01*
X2460201Y10111386D01*
X2429500Y9996809D01*
X1920500Y9996809D01*
X1920500Y10039823D01*
X1911768Y10083718D01*
X1911767Y10083719D01*
X1911767Y10083722D01*
X1878504Y10133504D01*
X1847879Y10153967D01*
X1828724Y10166766D01*
X1828717Y10166769D01*
X1784822Y10175500D01*
X1784820Y10175500D01*
X755180Y10175500D01*
X755178Y10175500D01*
X711282Y10166769D01*
X711275Y10166766D01*
X661496Y10133505D01*
X661495Y10133504D01*
X628234Y10083725D01*
X628231Y10083718D01*
X619500Y10039823D01*
X619500Y9887095D01*
X613868Y9867918D01*
X613156Y9847939D01*
X604225Y9835076D01*
X599815Y9820056D01*
X584710Y9806968D01*
X573309Y9790546D01*
X549354Y9776333D01*
X547011Y9774301D01*
X542956Y9772535D01*
X521423Y9763615D01*
X521421Y9763614D01*
X481341Y9747012D01*
X458046Y9737363D01*
X-107819Y9171497D01*
X-169142Y9138012D01*
X-238834Y9142996D01*
X-294767Y9184868D01*
X-319184Y9250332D01*
X-319500Y9259178D01*
X-319500Y10069877D01*
X-299815Y10136916D01*
X-283181Y10157558D01*
X1707116Y12147855D01*
X7090842Y12147855D01*
X7090842Y11996324D01*
X7130061Y11849953D01*
X7167944Y11784339D01*
X7205827Y11718724D01*
X7312977Y11611574D01*
X7444207Y11535808D01*
X7590576Y11496589D01*
X7590578Y11496589D01*
X7742106Y11496589D01*
X7742108Y11496589D01*
X7888477Y11535808D01*
X8019707Y11611574D01*
X8126857Y11718724D01*
X8202623Y11849954D01*
X8241842Y11996323D01*
X8241842Y12147855D01*
X8202623Y12294224D01*
X8126857Y12425454D01*
X8019707Y12532604D01*
X7954092Y12570487D01*
X7888478Y12608370D01*
X7815292Y12627980D01*
X7742108Y12647589D01*
X7590576Y12647589D01*
X7444205Y12608370D01*
X7312977Y12532604D01*
X7312974Y12532602D01*
X7205829Y12425457D01*
X7205827Y12425454D01*
X7130061Y12294226D01*
X7090842Y12147855D01*
X1707116Y12147855D01*
X2207442Y12648181D01*
X2268765Y12681666D01*
X2295123Y12684500D01*
X3054822Y12684500D01*
X3098717Y12693232D01*
X3098717Y12693233D01*
X3098722Y12693233D01*
X3148504Y12726496D01*
X3181767Y12776278D01*
X3190500Y12820180D01*
X3190500Y13849820D01*
X3190500Y13849823D01*
X3181768Y13893718D01*
X3181767Y13893719D01*
X3181767Y13893722D01*
X3148504Y13943504D01*
X3148503Y13943505D01*
X3098724Y13976766D01*
X3098717Y13976769D01*
X3054822Y13985500D01*
X3054820Y13985500D01*
X2025180Y13985500D01*
X2025178Y13985500D01*
X1981282Y13976769D01*
X1981275Y13976766D01*
X1931496Y13943505D01*
X1931495Y13943504D01*
X1898234Y13893725D01*
X1898231Y13893718D01*
X1889500Y13849823D01*
X1889500Y13090123D01*
X1869815Y13023084D01*
X1853181Y13002442D01*
X-782363Y10366899D01*
X-782364Y10366898D01*
X-825174Y10263544D01*
X-826313Y10264016D01*
X-852790Y10213397D01*
X-913506Y10178823D01*
X-942022Y10175500D01*
X-1784822Y10175500D01*
X-1828718Y10166769D01*
X-1828725Y10166766D01*
X-1878504Y10133505D01*
X-1878505Y10133504D01*
X-1911766Y10083725D01*
X-1911769Y10083718D01*
X-1920500Y10039823D01*
X-1920500Y9747012D01*
X-1940185Y9679973D01*
X-1956819Y9659331D01*
X-5287819Y6328331D01*
X-5349142Y6294846D01*
X-5418834Y6299830D01*
X-5474767Y6341702D01*
X-5499184Y6407166D01*
X-5499500Y6416012D01*
X-5499500Y7844878D01*
X-5479815Y7911917D01*
X-5463186Y7932554D01*
X-3537668Y9858073D01*
X-3476347Y9891556D01*
X-3406655Y9886572D01*
X-3350722Y9844700D01*
X-3330216Y9802488D01*
X-3319799Y9763614D01*
X-3260489Y9660887D01*
X-3176613Y9577011D01*
X-3073886Y9517701D01*
X-2959309Y9487000D01*
X-2959306Y9487000D01*
X-2840694Y9487000D01*
X-2840691Y9487000D01*
X-2726114Y9517701D01*
X-2623387Y9577011D01*
X-2539511Y9660887D01*
X-2480201Y9763614D01*
X-2449500Y9878191D01*
X-2449500Y9996809D01*
X-2480201Y10111386D01*
X-2539511Y10214113D01*
X-2623387Y10297989D01*
X-2726114Y10357299D01*
X-2764987Y10367715D01*
X-2824645Y10404080D01*
X-2855173Y10466927D01*
X-2846878Y10536303D01*
X-2820574Y10575167D01*
X-716871Y12678870D01*
X-655550Y12712353D01*
X-585858Y12707369D01*
X-560305Y12694291D01*
X-558722Y12693233D01*
X-558719Y12693233D01*
X-558718Y12693232D01*
X-514823Y12684500D01*
X-514820Y12684500D01*
X514822Y12684500D01*
X558717Y12693232D01*
X558717Y12693233D01*
X558722Y12693233D01*
X608504Y12726496D01*
X641767Y12776278D01*
X650500Y12820180D01*
X650500Y13849820D01*
X650500Y13849823D01*
X641768Y13893718D01*
X641767Y13893719D01*
X641767Y13893722D01*
X608504Y13943504D01*
X608503Y13943505D01*
X558724Y13976766D01*
X558717Y13976769D01*
X514822Y13985500D01*
X514820Y13985500D01*
X-514820Y13985500D01*
X-514822Y13985500D01*
X-558718Y13976769D01*
X-558725Y13976766D01*
X-608504Y13943505D01*
X-608505Y13943504D01*
X-641766Y13893725D01*
X-641769Y13893718D01*
X-650500Y13849823D01*
X-650500Y13505123D01*
X-670185Y13438084D01*
X-686819Y13417442D01*
X-5587819Y8516442D01*
X-5649142Y8482957D01*
X-5718834Y8487941D01*
X-5774767Y8529813D01*
X-5799184Y8595277D01*
X-5799500Y8604123D01*
X-5799500Y9669878D01*
X-5779815Y9736917D01*
X-5763181Y9757559D01*
X-2872559Y12648181D01*
X-2811236Y12681666D01*
X-2784878Y12684500D01*
X-2025178Y12684500D01*
X-1981283Y12693232D01*
X-1981283Y12693233D01*
X-1981278Y12693233D01*
X-1931496Y12726496D01*
X-1898233Y12776278D01*
X-1889500Y12820180D01*
X-1889500Y13849820D01*
X-1889500Y13849823D01*
X-1898232Y13893718D01*
X-1898233Y13893719D01*
X-1898233Y13893722D01*
X-1931496Y13943504D01*
X-1931497Y13943505D01*
X-1981276Y13976766D01*
X-1981283Y13976769D01*
X-2025178Y13985500D01*
X-2025180Y13985500D01*
X-3054820Y13985500D01*
X-3054822Y13985500D01*
X-3098718Y13976769D01*
X-3098725Y13976766D01*
X-3148504Y13943505D01*
X-3148505Y13943504D01*
X-3181766Y13893725D01*
X-3181769Y13893718D01*
X-3190500Y13849823D01*
X-3190500Y13090123D01*
X-3210185Y13023084D01*
X-3226819Y13002442D01*
X-5887819Y10341442D01*
X-5949142Y10307957D01*
X-6018834Y10312941D01*
X-6074767Y10354813D01*
X-6099184Y10420277D01*
X-6099500Y10429123D01*
X-6099500Y11909877D01*
X-6079815Y11976916D01*
X-6063181Y11997558D01*
X-5412558Y12648181D01*
X-5351235Y12681666D01*
X-5324877Y12684500D01*
X-4565178Y12684500D01*
X-4521283Y12693232D01*
X-4521283Y12693233D01*
X-4521278Y12693233D01*
X-4471496Y12726496D01*
X-4438233Y12776278D01*
X-4429500Y12820180D01*
X-4429500Y13849820D01*
X-4429500Y13849823D01*
X-4438232Y13893718D01*
X-4438233Y13893719D01*
X-4438233Y13893722D01*
X-4471496Y13943504D01*
X-4471497Y13943505D01*
X-4521276Y13976766D01*
X-4521283Y13976769D01*
X-4565178Y13985500D01*
X-4565180Y13985500D01*
X-5594820Y13985500D01*
X-5594822Y13985500D01*
X-5638718Y13976769D01*
X-5638725Y13976766D01*
X-5688504Y13943505D01*
X-5688505Y13943504D01*
X-5721766Y13893725D01*
X-5721769Y13893718D01*
X-5730500Y13849823D01*
X-5730500Y13090123D01*
X-5750185Y13023084D01*
X-5766819Y13002442D01*
X-6562363Y12206899D01*
X-6562364Y12206898D01*
X-6600500Y12114830D01*
X-6600500Y7317923D01*
X-6620185Y7250884D01*
X-6636819Y7230242D01*
X-7486642Y6380419D01*
X-7547965Y6346934D01*
X-7574323Y6344100D01*
X-7621927Y6344100D01*
X-7723787Y6316807D01*
X-7723790Y6316806D01*
X-7815115Y6264079D01*
X-7889679Y6189515D01*
X-7942406Y6098190D01*
X-7942407Y6098187D01*
X-7969700Y5996327D01*
X-7969700Y5890873D01*
X-7942407Y5789013D01*
X-7889680Y5697687D01*
X-7815113Y5623120D01*
X-7723787Y5570393D01*
X-7626508Y5544328D01*
X-7566849Y5507965D01*
X-7536319Y5445118D01*
X-7544613Y5375743D01*
X-7570921Y5336873D01*
X-8668418Y4239375D01*
X-8729741Y4205890D01*
X-8756099Y4203056D01*
X-8803703Y4203056D01*
X-8905563Y4175763D01*
X-8905566Y4175762D01*
X-8996891Y4123035D01*
X-9071455Y4048471D01*
X-9124182Y3957146D01*
X-9124183Y3957143D01*
X-9151476Y3855283D01*
X-9151476Y3749829D01*
X-9124596Y3649513D01*
X-9124183Y3647970D01*
X-9124181Y3647965D01*
X-9123901Y3647480D01*
X-9106483Y3617311D01*
X-9103128Y3611501D01*
X-9086654Y3543601D01*
X-9109506Y3477574D01*
X-9164427Y3434383D01*
X-9210514Y3425500D01*
X-11925500Y3425500D01*
X-11992539Y3445185D01*
X-12038294Y3497989D01*
X-12049500Y3549500D01*
X-12049500Y3689823D01*
X-12058232Y3733718D01*
X-12058233Y3733719D01*
X-12058233Y3733722D01*
X-12091496Y3783504D01*
X-12091602Y3783575D01*
X-12141276Y3816766D01*
X-12141283Y3816769D01*
X-12185178Y3825500D01*
X-12185180Y3825500D01*
X-13214820Y3825500D01*
X-13214822Y3825500D01*
X-13258133Y3816885D01*
X-13258135Y3816884D01*
X-13258722Y3816767D01*
X-13308504Y3783504D01*
X-13341767Y3733722D01*
X-13341884Y3733135D01*
X-13341885Y3733133D01*
X-13350500Y3689823D01*
X-13350500Y3689820D01*
X-13350500Y2660180D01*
X-13350500Y2660178D01*
X-13350501Y2660178D01*
X-14225159Y2660178D01*
X-14225159Y3149219D01*
X-14205474Y3216258D01*
X-14188840Y3236900D01*
X-13858053Y3567687D01*
X-12397559Y5028181D01*
X-12336236Y5061666D01*
X-12309878Y5064500D01*
X-12057255Y5064500D01*
X-11990216Y5044815D01*
X-11944461Y4992011D01*
X-11934517Y4922853D01*
X-11963542Y4859297D01*
X-11969574Y4852819D01*
X-12004479Y4817915D01*
X-12057206Y4726590D01*
X-12057207Y4726587D01*
X-12084500Y4624727D01*
X-12084500Y4519273D01*
X-12057207Y4417413D01*
X-12004480Y4326087D01*
X-11929913Y4251520D01*
X-11838587Y4198793D01*
X-11736727Y4171500D01*
X-11736725Y4171500D01*
X-11631275Y4171500D01*
X-11631273Y4171500D01*
X-11529413Y4198793D01*
X-11438087Y4251520D01*
X-11363520Y4326087D01*
X-11310793Y4417413D01*
X-11283500Y4519273D01*
X-11283500Y4624727D01*
X-11310793Y4726587D01*
X-11363520Y4817913D01*
X-11438087Y4892480D01*
X-11447104Y4897686D01*
X-11495316Y4948253D01*
X-11508537Y5016860D01*
X-11482568Y5081724D01*
X-11465132Y5097860D01*
X-11456500Y5106494D01*
X-11456496Y5106496D01*
X-11423233Y5156278D01*
X-11417761Y5183787D01*
X-11414500Y5200178D01*
X-11414500Y6229823D01*
X-11423232Y6273718D01*
X-11423233Y6273719D01*
X-11423233Y6273722D01*
X-11456496Y6323504D01*
X-11456497Y6323505D01*
X-11506276Y6356766D01*
X-11506283Y6356769D01*
X-11550178Y6365500D01*
X-11550180Y6365500D01*
X-12579820Y6365500D01*
X-12579822Y6365500D01*
X-12623718Y6356769D01*
X-12623725Y6356766D01*
X-12673504Y6323505D01*
X-12673505Y6323504D01*
X-12706766Y6273725D01*
X-12706769Y6273718D01*
X-12715500Y6229823D01*
X-12715500Y5470124D01*
X-12735185Y5403085D01*
X-12751819Y5382443D01*
X-14634998Y3499265D01*
X-14634997Y3499264D01*
X-14688023Y3446238D01*
X-14726159Y3354171D01*
X-14726159Y2520192D01*
X-14745844Y2453153D01*
X-14762478Y2432511D01*
X-14796138Y2398852D01*
X-14848865Y2307527D01*
X-14848866Y2307524D01*
X-14876159Y2205664D01*
X-16019376Y2205664D01*
X-15936817Y2762237D01*
X-15935777Y2768221D01*
X-15782086Y3540881D01*
X-15780764Y3546768D01*
X-15589333Y4311004D01*
X-15587713Y4316857D01*
X-15582015Y4335640D01*
X-15359017Y5070768D01*
X-15357113Y5076527D01*
X-15091714Y5818267D01*
X-15089541Y5823903D01*
X-14788043Y6551784D01*
X-14785600Y6557297D01*
X-14714546Y6707527D01*
X-13811700Y6707527D01*
X-13811700Y6602073D01*
X-13784407Y6500213D01*
X-13731680Y6408887D01*
X-13657113Y6334320D01*
X-13565787Y6281593D01*
X-13463927Y6254300D01*
X-13463925Y6254300D01*
X-13358475Y6254300D01*
X-13358473Y6254300D01*
X-13256613Y6281593D01*
X-13165287Y6334320D01*
X-13090720Y6408887D01*
X-13037993Y6500213D01*
X-13010700Y6602073D01*
X-13010700Y6656727D01*
X-9036500Y6656727D01*
X-9036500Y6551273D01*
X-9010877Y6455648D01*
X-9009207Y6449414D01*
X-9009206Y6449411D01*
X-8998527Y6430915D01*
X-8956480Y6358087D01*
X-8881913Y6283520D01*
X-8790587Y6230793D01*
X-8688727Y6203500D01*
X-8688725Y6203500D01*
X-8583275Y6203500D01*
X-8583273Y6203500D01*
X-8481413Y6230793D01*
X-8390087Y6283520D01*
X-8315520Y6358087D01*
X-8262793Y6449413D01*
X-8235500Y6551273D01*
X-8235500Y6656727D01*
X-8262793Y6758587D01*
X-8315520Y6849913D01*
X-8390087Y6924480D01*
X-8456941Y6963078D01*
X-8481411Y6977206D01*
X-8481412Y6977207D01*
X-8481413Y6977207D01*
X-8583273Y7004500D01*
X-8688727Y7004500D01*
X-8790587Y6977207D01*
X-8790590Y6977206D01*
X-8881915Y6924479D01*
X-8956479Y6849915D01*
X-9009206Y6758590D01*
X-9009207Y6758587D01*
X-9036500Y6656727D01*
X-13010700Y6656727D01*
X-13010700Y6707527D01*
X-13037993Y6809387D01*
X-13090720Y6900713D01*
X-13165287Y6975280D01*
X-13256613Y7028007D01*
X-13358473Y7055300D01*
X-13463927Y7055300D01*
X-13565787Y7028007D01*
X-13565790Y7028006D01*
X-13657115Y6975279D01*
X-13731679Y6900715D01*
X-13784406Y6809390D01*
X-13784407Y6809387D01*
X-13811700Y6707527D01*
X-14714546Y6707527D01*
X-14448744Y7269517D01*
X-14446025Y7274917D01*
X-14074646Y7969720D01*
X-14071673Y7974968D01*
X-13666625Y8650750D01*
X-13663422Y8655807D01*
X-13225706Y9310897D01*
X-13222217Y9315849D01*
X-13188229Y9361677D01*
X-11451158Y9361677D01*
X-11451158Y9210146D01*
X-11411939Y9063775D01*
X-11394239Y9033119D01*
X-11336173Y8932546D01*
X-11229023Y8825396D01*
X-11097793Y8749630D01*
X-10951424Y8710411D01*
X-10951422Y8710411D01*
X-10799894Y8710411D01*
X-10799892Y8710411D01*
X-10653523Y8749630D01*
X-10522293Y8825396D01*
X-10415143Y8932546D01*
X-10339377Y9063776D01*
X-10300158Y9210145D01*
X-10300158Y9361677D01*
X-10339377Y9508046D01*
X-10415143Y9639276D01*
X-10522293Y9746426D01*
X-10598711Y9790546D01*
X-10653522Y9822192D01*
X-10737876Y9844794D01*
X-10799892Y9861411D01*
X-10951424Y9861411D01*
X-11097795Y9822192D01*
X-11229023Y9746426D01*
X-11229026Y9746424D01*
X-11336171Y9639279D01*
X-11336173Y9639276D01*
X-11411939Y9508048D01*
X-11451158Y9361677D01*
X-13188229Y9361677D01*
X-13127420Y9443668D01*
X-13127418Y9443671D01*
X-12752906Y9948642D01*
X-12749185Y9953409D01*
X-12668185Y10052107D01*
X-9081486Y10052107D01*
X-9081486Y9946653D01*
X-9054193Y9844793D01*
X-9001466Y9753467D01*
X-8926899Y9678900D01*
X-8835573Y9626173D01*
X-8733713Y9598880D01*
X-8733711Y9598880D01*
X-8628261Y9598880D01*
X-8628259Y9598880D01*
X-8526399Y9626173D01*
X-8435073Y9678900D01*
X-8360506Y9753467D01*
X-8307779Y9844793D01*
X-8280486Y9946653D01*
X-8280486Y10052107D01*
X-8307779Y10153967D01*
X-8360506Y10245293D01*
X-8435073Y10319860D01*
X-8501927Y10358458D01*
X-8526397Y10372586D01*
X-8526398Y10372587D01*
X-8526399Y10372587D01*
X-8628259Y10399880D01*
X-8733713Y10399880D01*
X-8835573Y10372587D01*
X-8835576Y10372586D01*
X-8926901Y10319859D01*
X-9001465Y10245295D01*
X-9054192Y10153970D01*
X-9054193Y10153967D01*
X-9081486Y10052107D01*
X-12668185Y10052107D01*
X-12249392Y10562407D01*
X-12245442Y10566987D01*
X-11716358Y11150742D01*
X-11712199Y11155110D01*
X-11155110Y11712199D01*
X-11150742Y11716358D01*
X-10674658Y12147855D01*
X-8241842Y12147855D01*
X-8241842Y11996324D01*
X-8202623Y11849953D01*
X-8164740Y11784339D01*
X-8126857Y11718724D01*
X-8019707Y11611574D01*
X-7888477Y11535808D01*
X-7742108Y11496589D01*
X-7742106Y11496589D01*
X-7590578Y11496589D01*
X-7590576Y11496589D01*
X-7444207Y11535808D01*
X-7312977Y11611574D01*
X-7205827Y11718724D01*
X-7130061Y11849954D01*
X-7090842Y11996323D01*
X-7090842Y12147855D01*
X-7130061Y12294224D01*
X-7205827Y12425454D01*
X-7312977Y12532604D01*
X-7378592Y12570487D01*
X-7444206Y12608370D01*
X-7517392Y12627980D01*
X-7590576Y12647589D01*
X-7742108Y12647589D01*
X-7888479Y12608370D01*
X-8019707Y12532604D01*
X-8019710Y12532602D01*
X-8126855Y12425457D01*
X-8126857Y12425454D01*
X-8202623Y12294226D01*
X-8241842Y12147855D01*
X-10674658Y12147855D01*
X-10566987Y12245442D01*
X-10562421Y12249381D01*
X-9953409Y12749185D01*
X-9948642Y12752906D01*
X-9315826Y13222235D01*
X-9310897Y13225706D01*
X-8655807Y13663422D01*
X-8650750Y13666625D01*
X-7974968Y14071673D01*
X-7969720Y14074646D01*
X-7274917Y14446025D01*
X-7269517Y14448744D01*
X-6557297Y14785600D01*
X-6551784Y14788043D01*
X-5823903Y15089541D01*
X-5818267Y15091714D01*
X-5076508Y15357120D01*
X-5070768Y15359017D01*
X-4316845Y15587717D01*
X-4311004Y15589333D01*
X-3546768Y15780764D01*
X-3540881Y15782086D01*
X-2768208Y15935780D01*
X-2762237Y15936817D01*
X-1982922Y16052417D01*
X-1976920Y16053157D01*
X-1192865Y16130380D01*
X-1186875Y16130822D01*
X-434794Y16167770D01*
X-399974Y16169480D01*
X-393890Y16169629D01*
X393890Y16169629D01*
X399974Y16169480D01*
G37*
%TD.AperFunction*%
%TD*%
M02*
