%TF.GenerationSoftware,KiCad,Pcbnew,10.0.1*%
%TF.CreationDate,2026-06-05T16:41:55-04:00*%
%TF.ProjectId,Smart_Watch,536d6172-745f-4576-9174-63682e6b6963,rev?*%
%TF.SameCoordinates,Original*%
%TF.FileFunction,Legend,Top*%
%TF.FilePolarity,Positive*%
%FSLAX46Y46*%
G04 Gerber Fmt 4.6, Leading zero omitted, Abs format (unit mm)*
G04 Created by KiCad (PCBNEW 10.0.1) date 2026-06-05 16:41:55*
%MOMM*%
%LPD*%
G01*
G04 APERTURE LIST*
G04 Aperture macros list*
%AMRoundRect*
0 Rectangle with rounded corners*
0 $1 Rounding radius*
0 $2 $3 $4 $5 $6 $7 $8 $9 X,Y pos of 4 corners*
0 Add a 4 corners polygon primitive as box body*
4,1,4,$2,$3,$4,$5,$6,$7,$8,$9,$2,$3,0*
0 Add four circle primitives for the rounded corners*
1,1,$1+$1,$2,$3*
1,1,$1+$1,$4,$5*
1,1,$1+$1,$6,$7*
1,1,$1+$1,$8,$9*
0 Add four rect primitives between the rounded corners*
20,1,$1+$1,$2,$3,$4,$5,0*
20,1,$1+$1,$4,$5,$6,$7,0*
20,1,$1+$1,$6,$7,$8,$9,0*
20,1,$1+$1,$8,$9,$2,$3,0*%
G04 Aperture macros list end*
%ADD10C,0.150000*%
%ADD11C,0.000000*%
%ADD12C,0.152400*%
%ADD13C,0.120000*%
%ADD14C,0.127000*%
%ADD15C,0.200000*%
%ADD16C,0.127500*%
%ADD17C,0.010000*%
%ADD18RoundRect,0.244000X0.244000X0.269000X-0.244000X0.269000X-0.244000X-0.269000X0.244000X-0.269000X0*%
%ADD19RoundRect,0.244000X-0.269000X0.244000X-0.269000X-0.244000X0.269000X-0.244000X0.269000X0.244000X0*%
%ADD20R,0.280000X0.950000*%
%ADD21R,0.950000X0.280000*%
%ADD22RoundRect,0.244000X-0.244000X-0.269000X0.244000X-0.269000X0.244000X0.269000X-0.244000X0.269000X0*%
%ADD23C,0.900000*%
%ADD24RoundRect,0.187500X-0.325507X0.660952X-0.608682X0.415113X0.325507X-0.660952X0.608682X-0.415113X0*%
%ADD25RoundRect,0.150000X-0.378409X0.664686X-0.604949X0.468014X0.378409X-0.664686X0.604949X-0.468014X0*%
%ADD26RoundRect,0.225000X0.173428X0.448523X-0.468435X-0.108713X-0.173428X-0.448523X0.468435X0.108713X0*%
%ADD27RoundRect,0.159000X-0.189000X0.159000X-0.189000X-0.159000X0.189000X-0.159000X0.189000X0.159000X0*%
%ADD28RoundRect,0.150000X0.350000X0.350000X-0.350000X0.350000X-0.350000X-0.350000X0.350000X-0.350000X0*%
%ADD29RoundRect,0.076200X0.425000X-0.300000X0.425000X0.300000X-0.425000X0.300000X-0.425000X-0.300000X0*%
%ADD30RoundRect,0.076200X0.400000X-0.350000X0.400000X0.350000X-0.400000X0.350000X-0.400000X-0.350000X0*%
%ADD31RoundRect,0.218750X0.218750X0.381250X-0.218750X0.381250X-0.218750X-0.381250X0.218750X-0.381250X0*%
%ADD32RoundRect,0.219000X0.219000X0.294000X-0.219000X0.294000X-0.219000X-0.294000X0.219000X-0.294000X0*%
%ADD33R,0.228600X0.685800*%
%ADD34R,0.228600X0.609600*%
%ADD35R,0.600000X0.600000*%
%ADD36RoundRect,0.219000X-0.219000X-0.294000X0.219000X-0.294000X0.219000X0.294000X-0.219000X0.294000X0*%
%ADD37R,0.254000X0.660400*%
%ADD38R,0.660400X0.254000*%
%ADD39R,3.606800X3.606800*%
%ADD40RoundRect,0.218750X-0.218750X-0.381250X0.218750X-0.381250X0.218750X0.381250X-0.218750X0.381250X0*%
%ADD41RoundRect,0.162500X0.650000X0.162500X-0.650000X0.162500X-0.650000X-0.162500X0.650000X-0.162500X0*%
%ADD42C,0.650000*%
%ADD43R,0.600000X1.150000*%
%ADD44R,0.300000X1.150000*%
%ADD45R,2.180000X2.000000*%
%ADD46RoundRect,0.187500X0.608682X0.415113X0.325507X0.660952X-0.608682X-0.415113X-0.325507X-0.660952X0*%
%ADD47RoundRect,0.150000X0.604949X0.468014X0.378409X0.664686X-0.604949X-0.468014X-0.378409X-0.664686X0*%
%ADD48RoundRect,0.225000X0.468435X-0.108713X-0.173428X0.448523X-0.468435X0.108713X0.173428X-0.448523X0*%
%ADD49RoundRect,0.219000X-0.294000X0.219000X-0.294000X-0.219000X0.294000X-0.219000X0.294000X0.219000X0*%
%ADD50RoundRect,0.034500X-0.080500X-0.200500X0.080500X-0.200500X0.080500X0.200500X-0.080500X0.200500X0*%
%ADD51R,0.965200X0.508000*%
%ADD52RoundRect,0.250000X-0.250000X0.650000X-0.250000X-0.650000X0.250000X-0.650000X0.250000X0.650000X0*%
%ADD53RoundRect,0.187500X0.325507X-0.660952X0.608682X-0.415113X-0.325507X0.660952X-0.608682X0.415113X0*%
%ADD54RoundRect,0.150000X0.378409X-0.664686X0.604949X-0.468014X-0.378409X0.664686X-0.604949X0.468014X0*%
%ADD55RoundRect,0.225000X-0.173428X-0.448523X0.468435X0.108713X0.173428X0.448523X-0.468435X-0.108713X0*%
%ADD56R,0.381000X0.203200*%
%ADD57R,0.203200X0.381000*%
%ADD58RoundRect,0.187500X-0.608682X-0.415113X-0.325507X-0.660952X0.608682X0.415113X0.325507X0.660952X0*%
%ADD59RoundRect,0.150000X-0.604949X-0.468014X-0.378409X-0.664686X0.604949X0.468014X0.378409X0.664686X0*%
%ADD60RoundRect,0.225000X-0.468435X0.108713X0.173428X-0.448523X0.468435X-0.108713X-0.173428X0.448523X0*%
G04 APERTURE END LIST*
D10*
X-15400000Y1645181D02*
X-15400000Y1407086D01*
X-15638095Y1502324D02*
X-15400000Y1407086D01*
X-15400000Y1407086D02*
X-15161905Y1502324D01*
X-15542857Y1216610D02*
X-15400000Y1407086D01*
X-15400000Y1407086D02*
X-15257143Y1216610D01*
X-15400000Y1645181D02*
X-15400000Y1407086D01*
X-15638095Y1502324D02*
X-15400000Y1407086D01*
X-15400000Y1407086D02*
X-15161905Y1502324D01*
X-15542857Y1216610D02*
X-15400000Y1407086D01*
X-15400000Y1407086D02*
X-15257143Y1216610D01*
X-1245181Y4800001D02*
X-1007086Y4800001D01*
X-1102324Y4561906D02*
X-1007086Y4800001D01*
X-1007086Y4800001D02*
X-1102324Y5038096D01*
X-816610Y4657144D02*
X-1007086Y4800001D01*
X-1007086Y4800001D02*
X-816610Y4942858D01*
X-1245181Y4800001D02*
X-1007086Y4800001D01*
X-1102324Y4561906D02*
X-1007086Y4800001D01*
X-1007086Y4800001D02*
X-1102324Y5038096D01*
X-816610Y4657144D02*
X-1007086Y4800001D01*
X-1007086Y4800001D02*
X-816610Y4942858D01*
X-2554820Y4700000D02*
X-2792915Y4700000D01*
X-2697677Y4938095D02*
X-2792915Y4700000D01*
X-2792915Y4700000D02*
X-2697677Y4461905D01*
X-2983391Y4842857D02*
X-2792915Y4700000D01*
X-2792915Y4700000D02*
X-2983391Y4557143D01*
X-3045181Y4700001D02*
X-2807086Y4700001D01*
X-2902324Y4461906D02*
X-2807086Y4700001D01*
X-2807086Y4700001D02*
X-2902324Y4938096D01*
X-2616610Y4557144D02*
X-2807086Y4700001D01*
X-2807086Y4700001D02*
X-2616610Y4842858D01*
X-15700000Y-1454819D02*
X-15700000Y-1692914D01*
X-15938095Y-1597676D02*
X-15700000Y-1692914D01*
X-15700000Y-1692914D02*
X-15461905Y-1597676D01*
X-15842857Y-1883390D02*
X-15700000Y-1692914D01*
X-15700000Y-1692914D02*
X-15557143Y-1883390D01*
X-14111932Y-834799D02*
X-14111932Y-1072894D01*
X-14350027Y-977656D02*
X-14111932Y-1072894D01*
X-14111932Y-1072894D02*
X-13873837Y-977656D01*
X-14254789Y-1263370D02*
X-14111932Y-1072894D01*
X-14111932Y-1072894D02*
X-13969075Y-1263370D01*
X-7611999Y-5503319D02*
X-7611999Y-5741414D01*
X-7850094Y-5646176D02*
X-7611999Y-5741414D01*
X-7611999Y-5741414D02*
X-7373904Y-5646176D01*
X-7754856Y-5931890D02*
X-7611999Y-5741414D01*
X-7611999Y-5741414D02*
X-7469142Y-5931890D01*
X-7611999Y-5503319D02*
X-7611999Y-5741414D01*
X-7850094Y-5646176D02*
X-7611999Y-5741414D01*
X-7611999Y-5741414D02*
X-7373904Y-5646176D01*
X-7754856Y-5931890D02*
X-7611999Y-5741414D01*
X-7611999Y-5741414D02*
X-7469142Y-5931890D01*
D11*
%TO.C,U12*%
G36*
X-13296900Y2327001D02*
G01*
X-13677900Y2327001D01*
X-13677900Y2581001D01*
X-13296900Y2581001D01*
X-13296900Y2327001D01*
G37*
D12*
X-12056400Y2054001D02*
X-13014660Y2054001D01*
X-13014660Y-807999D02*
X-12056400Y-807999D01*
X-13960140Y2054001D02*
X-14918400Y2054001D01*
X-14918400Y-807999D02*
X-13960140Y-807999D01*
%TO.C,SW5*%
D13*
X-11317962Y9376929D02*
X-11973533Y10132061D01*
X-10864883Y9770272D02*
X-11317962Y9376929D01*
X-10586110Y13720246D02*
X-12096376Y12409101D01*
X-8146404Y12130328D02*
X-7693324Y12523671D01*
X-7693324Y12523671D02*
X-8348893Y13278805D01*
%TO.C,J4*%
D14*
X-14243200Y7126600D02*
X-11073200Y7126600D01*
X-14243200Y6236600D02*
X-14243200Y7126600D01*
X-14243200Y3816600D02*
X-14243200Y2926600D01*
X-14243200Y2926600D02*
X-11073200Y2926600D01*
X-9653200Y2926600D02*
X-9653200Y7126600D01*
D15*
X-14963200Y4426600D02*
G75*
G02*
X-15163200Y4426600I-100000J0D01*
G01*
X-15163200Y4426600D02*
G75*
G02*
X-14963200Y4426600I100000J0D01*
G01*
%TO.C,L3*%
D13*
X-3283378Y7164000D02*
X-4082622Y7164000D01*
X-3283378Y6044000D02*
X-4082622Y6044000D01*
%TO.C,U3*%
D14*
X650000Y5350000D02*
X15100000Y5350000D01*
X650000Y-5350000D02*
X650000Y5350000D01*
X650000Y-5350000D02*
X15100000Y-5350000D01*
D16*
X706690Y-5193980D02*
X856690Y-5343980D01*
X750000Y-5150000D02*
G75*
G02*
X900000Y-5300000I0J-150000D01*
G01*
X750002Y-5049996D02*
G75*
G02*
X1025090Y-5348960I-24911J-298963D01*
G01*
%TO.C,U6*%
D12*
X-8343900Y4025900D02*
X-8343900Y3606739D01*
X-8343900Y-812739D02*
X-8343900Y-1231900D01*
X-8343900Y-1231900D02*
X-7924739Y-1231900D01*
X-7924739Y4025900D02*
X-8343900Y4025900D01*
X-3505261Y-1231900D02*
X-3086100Y-1231900D01*
X-3086100Y4025900D02*
X-3505261Y4025900D01*
X-3086100Y3606739D02*
X-3086100Y4025900D01*
X-3086100Y-1231900D02*
X-3086100Y-812739D01*
D11*
G36*
X-8674100Y2456500D02*
G01*
X-8928100Y2456500D01*
X-8928100Y2837500D01*
X-8674100Y2837500D01*
X-8674100Y2456500D01*
G37*
G36*
X-5774499Y-1816100D02*
G01*
X-6155500Y-1816100D01*
X-6155500Y-1562100D01*
X-5774499Y-1562100D01*
X-5774499Y-1816100D01*
G37*
G36*
X-2501900Y1956501D02*
G01*
X-2755900Y1956501D01*
X-2755900Y2337501D01*
X-2501900Y2337501D01*
X-2501900Y1956501D01*
G37*
%TO.C,L4*%
D13*
X-7973122Y7164000D02*
X-7173878Y7164000D01*
X-7973122Y6044000D02*
X-7173878Y6044000D01*
%TO.C,U5*%
X-982000Y-8797000D02*
X4538000Y-8797000D01*
X-982000Y-9067000D02*
X-982000Y-8797000D01*
X-982000Y-14317000D02*
X-982000Y-14047000D01*
X4538000Y-8797000D02*
X4538000Y-9067000D01*
X4538000Y-14047000D02*
X4538000Y-14317000D01*
X4538000Y-14317000D02*
X-982000Y-14317000D01*
X5708000Y-14527000D02*
X5028000Y-14527000D01*
X5368000Y-14057000D01*
X5708000Y-14527000D01*
G36*
X5708000Y-14527000D02*
G01*
X5028000Y-14527000D01*
X5368000Y-14057000D01*
X5708000Y-14527000D01*
G37*
%TO.C,J7*%
D15*
X-4470000Y18480000D02*
X-4470000Y16990000D01*
X-4470000Y13060000D02*
X-4470000Y14270000D01*
X4470000Y18480000D02*
X-4470000Y18480000D01*
X4470000Y16990000D02*
X4470000Y18480000D01*
X4470000Y13060000D02*
X4470000Y14270000D01*
X3880000Y9970000D02*
G75*
G02*
X3680000Y9970000I-100000J0D01*
G01*
X3680000Y9970000D02*
G75*
G02*
X3880000Y9970000I100000J0D01*
G01*
%TO.C,SW4*%
D13*
X7693324Y12523671D02*
X8348893Y13278805D01*
X8146404Y12130328D02*
X7693324Y12523671D01*
X10864882Y9770272D02*
X11317962Y9376929D01*
X11317962Y9376929D02*
X11973534Y10132061D01*
X12096376Y12409101D02*
X10586110Y13720245D01*
%TO.C,U7*%
D12*
X-13423900Y-4328201D02*
X-11468100Y-4328201D01*
X-11468100Y-1077001D02*
X-13423900Y-1077001D01*
%TO.C,X1*%
D10*
X3950000Y7250000D02*
X5150000Y7250000D01*
X5150000Y5650000D02*
X3950000Y5650000D01*
%TO.C,A1*%
D14*
X-10150000Y-1800000D02*
X-9895000Y-1800000D01*
X-10150000Y-3800000D02*
X-9895000Y-3800000D01*
X-8405000Y-1800000D02*
X-8150000Y-1800000D01*
X-8150000Y-3800000D02*
X-8405000Y-3800000D01*
D15*
X-8800000Y-1300000D02*
G75*
G02*
X-9000000Y-1300000I-100000J0D01*
G01*
X-9000000Y-1300000D02*
G75*
G02*
X-8800000Y-1300000I100000J0D01*
G01*
%TO.C,SW6*%
D13*
X7693324Y-12523671D02*
X8348893Y-13278805D01*
X8146404Y-12130328D02*
X7693324Y-12523671D01*
X10586110Y-13720245D02*
X12096376Y-12409101D01*
X10864882Y-9770272D02*
X11317962Y-9376929D01*
X11317962Y-9376929D02*
X11973534Y-10132061D01*
%TO.C,U10*%
D12*
X-7230999Y-5651500D02*
X-7230999Y-5981957D01*
X-7230999Y-8115043D02*
X-7230999Y-8445500D01*
X-7230999Y-8445500D02*
X-6396540Y-8445500D01*
X-6396540Y-5651500D02*
X-7230999Y-5651500D01*
X-4763458Y-8445500D02*
X-3928999Y-8445500D01*
X-3928999Y-5651500D02*
X-4763458Y-5651500D01*
X-3928999Y-5981957D02*
X-3928999Y-5651500D01*
X-3928999Y-8445500D02*
X-3928999Y-8115043D01*
D11*
G36*
X-3674999Y-6989001D02*
G01*
X-3928999Y-6989001D01*
X-3928999Y-6608000D01*
X-3674999Y-6608000D01*
X-3674999Y-6989001D01*
G37*
%TO.C,SW7*%
D13*
X-12096376Y-12409101D02*
X-10586110Y-13720245D01*
X-11317962Y-9376929D02*
X-11973534Y-10132061D01*
X-10864882Y-9770272D02*
X-11317962Y-9376929D01*
X-8146404Y-12130328D02*
X-7693324Y-12523671D01*
X-7693324Y-12523671D02*
X-8348893Y-13278805D01*
%TD*%
%LPC*%
D17*
%TO.C,A1*%
X-9675000Y-2525000D02*
X-10150000Y-2525000D01*
X-10150000Y-2075000D01*
X-9675000Y-2075000D01*
X-9675000Y-2525000D01*
G36*
X-9675000Y-2525000D02*
G01*
X-10150000Y-2525000D01*
X-10150000Y-2075000D01*
X-9675000Y-2075000D01*
X-9675000Y-2525000D01*
G37*
X-9675000Y-3025000D02*
X-10150000Y-3025000D01*
X-10150000Y-2575000D01*
X-9675000Y-2575000D01*
X-9675000Y-3025000D01*
G36*
X-9675000Y-3025000D02*
G01*
X-10150000Y-3025000D01*
X-10150000Y-2575000D01*
X-9675000Y-2575000D01*
X-9675000Y-3025000D01*
G37*
X-9675000Y-3525000D02*
X-10150000Y-3525000D01*
X-10150000Y-3075000D01*
X-9675000Y-3075000D01*
X-9675000Y-3525000D01*
G36*
X-9675000Y-3525000D02*
G01*
X-10150000Y-3525000D01*
X-10150000Y-3075000D01*
X-9675000Y-3075000D01*
X-9675000Y-3525000D01*
G37*
X-9175000Y-2275000D02*
X-9625000Y-2275000D01*
X-9625000Y-1800000D01*
X-9175000Y-1800000D01*
X-9175000Y-2275000D01*
G36*
X-9175000Y-2275000D02*
G01*
X-9625000Y-2275000D01*
X-9625000Y-1800000D01*
X-9175000Y-1800000D01*
X-9175000Y-2275000D01*
G37*
X-9175000Y-3800000D02*
X-9625000Y-3800000D01*
X-9625000Y-3325000D01*
X-9175000Y-3325000D01*
X-9175000Y-3800000D01*
G36*
X-9175000Y-3800000D02*
G01*
X-9625000Y-3800000D01*
X-9625000Y-3325000D01*
X-9175000Y-3325000D01*
X-9175000Y-3800000D01*
G37*
X-8675000Y-2275000D02*
X-9125000Y-2275000D01*
X-9125000Y-1800000D01*
X-8675000Y-1800000D01*
X-8675000Y-2275000D01*
G36*
X-8675000Y-2275000D02*
G01*
X-9125000Y-2275000D01*
X-9125000Y-1800000D01*
X-8675000Y-1800000D01*
X-8675000Y-2275000D01*
G37*
X-8675000Y-3800000D02*
X-9125000Y-3800000D01*
X-9125000Y-3325000D01*
X-8675000Y-3325000D01*
X-8675000Y-3800000D01*
G36*
X-8675000Y-3800000D02*
G01*
X-9125000Y-3800000D01*
X-9125000Y-3325000D01*
X-8675000Y-3325000D01*
X-8675000Y-3800000D01*
G37*
X-8150000Y-2525000D02*
X-8625000Y-2525000D01*
X-8625000Y-2075000D01*
X-8150000Y-2075000D01*
X-8150000Y-2525000D01*
G36*
X-8150000Y-2525000D02*
G01*
X-8625000Y-2525000D01*
X-8625000Y-2075000D01*
X-8150000Y-2075000D01*
X-8150000Y-2525000D01*
G37*
X-8150000Y-3025000D02*
X-8625000Y-3025000D01*
X-8625000Y-2575000D01*
X-8150000Y-2575000D01*
X-8150000Y-3025000D01*
G36*
X-8150000Y-3025000D02*
G01*
X-8625000Y-3025000D01*
X-8625000Y-2575000D01*
X-8150000Y-2575000D01*
X-8150000Y-3025000D01*
G37*
X-8150000Y-3525000D02*
X-8625000Y-3525000D01*
X-8625000Y-3075000D01*
X-8150000Y-3075000D01*
X-8150000Y-3525000D01*
G36*
X-8150000Y-3525000D02*
G01*
X-8625000Y-3525000D01*
X-8625000Y-3075000D01*
X-8150000Y-3075000D01*
X-8150000Y-3525000D01*
G37*
%TD*%
D18*
%TO.C,C4*%
X-2130000Y-850000D03*
X-570000Y-850000D03*
%TD*%
%TO.C,C1*%
X-670000Y-3800000D03*
X-2230000Y-3800000D03*
%TD*%
D19*
%TO.C,C22*%
X-3500000Y-4080000D03*
X-3500000Y-2520000D03*
%TD*%
D20*
%TO.C,U12*%
X-13487400Y1598000D03*
D21*
X-12512401Y1373002D03*
X-12512401Y873001D03*
X-12512401Y373001D03*
X-12512401Y-127000D03*
D20*
X-13487400Y-351998D03*
D21*
X-14462399Y-127000D03*
X-14462399Y373001D03*
X-14462399Y873001D03*
X-14462399Y1373002D03*
%TD*%
D22*
%TO.C,C20*%
X-2032000Y2800000D03*
X-472000Y2800000D03*
%TD*%
D23*
%TO.C,SW5*%
X-8884342Y13476089D03*
X-12093658Y10689911D03*
D24*
X-8973947Y12206455D03*
X-10824024Y10600305D03*
D25*
X-9898986Y11403380D03*
D26*
X-9780354Y14088697D03*
X-12574347Y11663083D03*
%TD*%
D19*
%TO.C,C6*%
X-5588000Y-10243600D03*
X-5588000Y-11803600D03*
%TD*%
%TO.C,C8*%
X-10033000Y-5704400D03*
X-10033000Y-7264400D03*
%TD*%
D27*
%TO.C,R9*%
X-16200000Y-1235200D03*
X-16200000Y-2235200D03*
%TD*%
D28*
%TO.C,J2*%
X730000Y-15240000D03*
X-1270000Y-15240000D03*
%TD*%
D29*
%TO.C,J4*%
X-14138200Y4426600D03*
X-14138200Y5626600D03*
D30*
X-10363200Y3276600D03*
X-10363200Y6776600D03*
%TD*%
D31*
%TO.C,L3*%
X-2620500Y6604000D03*
X-4745500Y6604000D03*
%TD*%
D19*
%TO.C,C25*%
X8150000Y7530000D03*
X8150000Y5970000D03*
%TD*%
D32*
%TO.C,R13*%
X-9536000Y863600D03*
X-11176000Y863600D03*
%TD*%
D33*
%TO.C,U8*%
X-647598Y5422900D03*
D34*
X-247599Y5384800D03*
X152400Y5384800D03*
X152400Y6172200D03*
X-247599Y6172200D03*
X-647598Y6172200D03*
%TD*%
D35*
%TO.C,U3*%
X1550000Y-4400000D03*
X1550000Y-3300000D03*
X1550000Y-2200000D03*
X1550000Y-1100000D03*
X1550000Y0D03*
X1550000Y1100000D03*
X1550000Y2200000D03*
X1550000Y3300000D03*
X1550000Y4400000D03*
X2650000Y-4400000D03*
X2650000Y-3300000D03*
X2650000Y-2200000D03*
X2650000Y-1100000D03*
X2650000Y0D03*
X2650000Y1100000D03*
X2650000Y2200000D03*
X2650000Y3300000D03*
X2650000Y4400000D03*
X3750000Y-4400000D03*
X3750000Y-3300000D03*
X3750000Y-1100000D03*
X3750000Y0D03*
X3750000Y1100000D03*
X3750000Y3300000D03*
X3750000Y4400000D03*
X4850000Y-4400000D03*
X4850000Y-3300000D03*
X4850000Y-2200000D03*
X4850000Y2200000D03*
X4850000Y3300000D03*
X4850000Y4400000D03*
X5950000Y-4400000D03*
X5950000Y-3300000D03*
X5950000Y-2200000D03*
X5950000Y-550000D03*
X5950000Y550000D03*
X5950000Y2200000D03*
X5950000Y3300000D03*
X5950000Y4400000D03*
X7050000Y-4400000D03*
X7050000Y-3300000D03*
X7050000Y-2200000D03*
X7050000Y-550000D03*
X7050000Y550000D03*
X7050000Y2200000D03*
X7050000Y3300000D03*
X7050000Y4400000D03*
X8150000Y-4400000D03*
X8150000Y-3300000D03*
X8150000Y-2200000D03*
X8150000Y-550000D03*
X8150000Y550000D03*
X8150000Y2200000D03*
X8150000Y3300000D03*
X8150000Y4400000D03*
X9250000Y-4400000D03*
X9250000Y-3300000D03*
X9250000Y-2200000D03*
X9250000Y2200000D03*
X9250000Y3300000D03*
X9250000Y4400000D03*
X10350000Y-4400000D03*
X10350000Y-3300000D03*
X10350000Y-2200000D03*
X10350000Y-550000D03*
X10350000Y550000D03*
X10350000Y2200000D03*
X10350000Y3300000D03*
X10350000Y4400000D03*
X11450000Y-4400000D03*
X11450000Y-3300000D03*
X11450000Y-2200000D03*
X11450000Y0D03*
X11450000Y2200000D03*
X11450000Y3300000D03*
X11450000Y4400000D03*
X12950000Y-4400000D03*
X12950000Y4400000D03*
X14450000Y-4400000D03*
X14450000Y-3300000D03*
X14450000Y3300000D03*
X14450000Y4400000D03*
%TD*%
D18*
%TO.C,C17*%
X-6553200Y5029200D03*
X-8113200Y5029200D03*
%TD*%
%TO.C,C14*%
X-12809000Y-5130800D03*
X-14369000Y-5130800D03*
%TD*%
D36*
%TO.C,R1*%
X-8330000Y-8600000D03*
X-9970000Y-8600000D03*
%TD*%
D37*
%TO.C,U6*%
X-3965001Y3771900D03*
X-4465000Y3771900D03*
X-4964999Y3771900D03*
X-5465000Y3771900D03*
X-5965000Y3771900D03*
X-6465001Y3771900D03*
X-6965000Y3771900D03*
X-7464999Y3771900D03*
D38*
X-8089900Y3146999D03*
X-8089900Y2647000D03*
X-8089900Y2147001D03*
X-8089900Y1647000D03*
X-8089900Y1147000D03*
X-8089900Y646999D03*
X-8089900Y147000D03*
X-8089900Y-352999D03*
D37*
X-7464999Y-977900D03*
X-6965000Y-977900D03*
X-6465001Y-977900D03*
X-5965000Y-977900D03*
X-5465000Y-977900D03*
X-4964999Y-977900D03*
X-4465000Y-977900D03*
X-3965001Y-977900D03*
D38*
X-3340100Y-352999D03*
X-3340100Y147000D03*
X-3340100Y646999D03*
X-3340100Y1147000D03*
X-3340100Y1647000D03*
X-3340100Y2147001D03*
X-3340100Y2647000D03*
X-3340100Y3146999D03*
D39*
X-5715000Y1397000D03*
%TD*%
D40*
%TO.C,L4*%
X-8636000Y6604000D03*
X-6511000Y6604000D03*
%TD*%
D19*
%TO.C,C10*%
X-4800000Y-2520000D03*
X-4800000Y-4080000D03*
%TD*%
%TO.C,C9*%
X-8700000Y-5220000D03*
X-8700000Y-6780000D03*
%TD*%
D41*
%TO.C,U5*%
X5365500Y-13462000D03*
X5365500Y-12192000D03*
X5365500Y-10922000D03*
X5365500Y-9652000D03*
X-1809500Y-9652000D03*
X-1809500Y-10922000D03*
X-1809500Y-12192000D03*
X-1809500Y-13462000D03*
%TD*%
D19*
%TO.C,C11*%
X-6100000Y-2520000D03*
X-6100000Y-4080000D03*
%TD*%
D42*
%TO.C,J7*%
X2890000Y12200000D03*
X-2890000Y12200000D03*
D43*
X3200000Y11125000D03*
X2400000Y11125000D03*
D44*
X1250000Y11125000D03*
X250000Y11125000D03*
X-250000Y11125000D03*
X-1250000Y11125000D03*
D43*
X-3200000Y11125000D03*
X-2400000Y11125000D03*
D44*
X-1750000Y11125000D03*
X-750000Y11125000D03*
X750000Y11125000D03*
X1750000Y11125000D03*
D45*
X5110000Y11700000D03*
X-5110000Y11700000D03*
X5110000Y15630000D03*
X-5110000Y15630000D03*
%TD*%
D18*
%TO.C,C15*%
X-9423400Y2057400D03*
X-10983400Y2057400D03*
%TD*%
D23*
%TO.C,SW4*%
X12093658Y10689911D03*
X8884342Y13476089D03*
D46*
X10824024Y10600305D03*
X8973947Y12206456D03*
D47*
X9898986Y11403380D03*
D48*
X12574347Y11663083D03*
X9780354Y14088697D03*
%TD*%
D22*
%TO.C,C16*%
X-5207000Y4953000D03*
X-3647000Y4953000D03*
%TD*%
D49*
%TO.C,R11*%
X-11557000Y-4945800D03*
X-11557000Y-6585800D03*
%TD*%
D50*
%TO.C,X608*%
X-600000Y-5880000D03*
X-200000Y-5880000D03*
X200000Y-5880000D03*
X600000Y-5880000D03*
X1000000Y-5880000D03*
X1400000Y-5880000D03*
X1800000Y-5880000D03*
X2200000Y-5880000D03*
X2600000Y-5880000D03*
X3000000Y-5880000D03*
X3400000Y-5880000D03*
X3800000Y-5880000D03*
X-600000Y-8070000D03*
X-200000Y-8070000D03*
X200000Y-8070000D03*
X600000Y-8070000D03*
X1000000Y-8070000D03*
X1400000Y-8070000D03*
X1800000Y-8070000D03*
X2200000Y-8070000D03*
X2600000Y-8070000D03*
X3000000Y-8070000D03*
X3400000Y-8070000D03*
X3800000Y-8070000D03*
%TD*%
D18*
%TO.C,C24*%
X6130000Y8200000D03*
X4570000Y8200000D03*
%TD*%
%TO.C,C26*%
X-3639600Y-13157200D03*
X-5199600Y-13157200D03*
%TD*%
D51*
%TO.C,U7*%
X-13614400Y-1752600D03*
X-13614400Y-2702601D03*
X-13614400Y-3652602D03*
X-11277600Y-3652602D03*
X-11277600Y-2702601D03*
X-11277600Y-1752600D03*
%TD*%
D22*
%TO.C,C18*%
X-2118800Y1600000D03*
X-558800Y1600000D03*
%TD*%
D52*
%TO.C,X1*%
X5800000Y6450000D03*
X3300000Y6450000D03*
%TD*%
D22*
%TO.C,C19*%
X-2050000Y4000000D03*
X-490000Y4000000D03*
%TD*%
%TO.C,C23*%
X-11143200Y-482600D03*
X-9583200Y-482600D03*
%TD*%
D23*
%TO.C,SW6*%
X8884342Y-13476089D03*
X12093658Y-10689911D03*
D53*
X8973947Y-12206456D03*
X10824024Y-10600305D03*
D54*
X9898986Y-11403380D03*
D55*
X9780354Y-14088697D03*
X12574347Y-11663083D03*
%TD*%
D32*
%TO.C,R2*%
X7470000Y-6500000D03*
X5830000Y-6500000D03*
%TD*%
D18*
%TO.C,C21*%
X-3639600Y-14427200D03*
X-5199600Y-14427200D03*
%TD*%
D49*
%TO.C,R12*%
X-7400000Y-2380000D03*
X-7400000Y-4020000D03*
%TD*%
D56*
%TO.C,U10*%
X-6786499Y-6298499D03*
X-6786499Y-6798500D03*
X-6786499Y-7298500D03*
X-6786499Y-7798501D03*
D57*
X-6079998Y-8001000D03*
X-5579999Y-8001000D03*
X-5080000Y-8001000D03*
D56*
X-4373499Y-7798501D03*
X-4373499Y-7298500D03*
X-4373499Y-6798500D03*
X-4373499Y-6298499D03*
D57*
X-5080000Y-6096000D03*
X-5579999Y-6096000D03*
X-6079998Y-6096000D03*
%TD*%
D23*
%TO.C,SW7*%
X-12093658Y-10689911D03*
X-8884342Y-13476089D03*
D58*
X-10824024Y-10600305D03*
X-8973947Y-12206456D03*
D59*
X-9898986Y-11403380D03*
D60*
X-12574347Y-11663083D03*
X-9780354Y-14088697D03*
%TD*%
D36*
%TO.C,R3*%
X5880000Y-7850000D03*
X7520000Y-7850000D03*
%TD*%
D18*
%TO.C,C2*%
X-670000Y-2550000D03*
X-2230000Y-2550000D03*
%TD*%
%TO.C,C3*%
X-640000Y400000D03*
X-2200000Y400000D03*
%TD*%
%LPD*%
M02*
