%TF.GenerationSoftware,KiCad,Pcbnew,10.0.1*%
%TF.CreationDate,2026-05-06T10:39:13-04:00*%
%TF.ProjectId,Smart_Watch,536d6172-745f-4576-9174-63682e6b6963,rev?*%
%TF.SameCoordinates,Original*%
%TF.FileFunction,Paste,Top*%
%TF.FilePolarity,Positive*%
%FSLAX46Y46*%
G04 Gerber Fmt 4.6, Leading zero omitted, Abs format (unit mm)*
G04 Created by KiCad (PCBNEW 10.0.1) date 2026-05-06 10:39:13*
%MOMM*%
%LPD*%
G01*
G04 APERTURE LIST*
G04 Aperture macros list*
%AMRoundRect*
0 Rectangle with rounded corners*
0 $1 Rounding radius*
0 $2 $3 $4 $5 $6 $7 $8 $9 X,Y pos of 4 corners*
0 Add a 4 corners polygon primitive as box body*
4,1,4,$2,$3,$4,$5,$6,$7,$8,$9,$2,$3,0*
0 Add four circle primitives for the rounded corners*
1,1,$1+$1,$2,$3*
1,1,$1+$1,$4,$5*
1,1,$1+$1,$6,$7*
1,1,$1+$1,$8,$9*
0 Add four rect primitives between the rounded corners*
20,1,$1+$1,$2,$3,$4,$5,0*
20,1,$1+$1,$4,$5,$6,$7,0*
20,1,$1+$1,$6,$7,$8,$9,0*
20,1,$1+$1,$8,$9,$2,$3,0*%
G04 Aperture macros list end*
%ADD10C,0.000000*%
%ADD11R,0.381000X0.203200*%
%ADD12R,0.203200X0.381000*%
%ADD13RoundRect,0.225000X-0.250000X0.225000X-0.250000X-0.225000X0.250000X-0.225000X0.250000X0.225000X0*%
%ADD14RoundRect,0.225000X-0.225000X-0.250000X0.225000X-0.250000X0.225000X0.250000X-0.225000X0.250000X0*%
%ADD15RoundRect,0.187500X-0.325507X0.660952X-0.608682X0.415113X0.325507X-0.660952X0.608682X-0.415113X0*%
%ADD16RoundRect,0.150000X-0.378409X0.664686X-0.604949X0.468014X0.378409X-0.664686X0.604949X-0.468014X0*%
%ADD17RoundRect,0.225000X0.173428X0.448523X-0.468435X-0.108713X-0.173428X-0.448523X0.468435X0.108713X0*%
%ADD18RoundRect,0.140000X-0.170000X0.140000X-0.170000X-0.140000X0.170000X-0.140000X0.170000X0.140000X0*%
%ADD19RoundRect,0.150000X0.350000X0.350000X-0.350000X0.350000X-0.350000X-0.350000X0.350000X-0.350000X0*%
%ADD20R,0.850000X0.600000*%
%ADD21R,0.800000X0.700000*%
%ADD22O,0.499999X0.249999*%
%ADD23RoundRect,0.218750X0.218750X0.381250X-0.218750X0.381250X-0.218750X-0.381250X0.218750X-0.381250X0*%
%ADD24RoundRect,0.200000X0.200000X0.275000X-0.200000X0.275000X-0.200000X-0.275000X0.200000X-0.275000X0*%
%ADD25R,0.228600X0.685800*%
%ADD26R,0.228600X0.609600*%
%ADD27RoundRect,0.225000X0.225000X0.250000X-0.225000X0.250000X-0.225000X-0.250000X0.225000X-0.250000X0*%
%ADD28RoundRect,0.200000X-0.200000X-0.275000X0.200000X-0.275000X0.200000X0.275000X-0.200000X0.275000X0*%
%ADD29R,0.254000X0.660400*%
%ADD30R,0.660400X0.254000*%
%ADD31R,3.606800X3.606800*%
%ADD32RoundRect,0.218750X-0.218750X-0.381250X0.218750X-0.381250X0.218750X0.381250X-0.218750X0.381250X0*%
%ADD33R,0.950000X0.280000*%
%ADD34R,0.280000X0.950000*%
%ADD35RoundRect,0.087500X0.125000X0.087500X-0.125000X0.087500X-0.125000X-0.087500X0.125000X-0.087500X0*%
%ADD36RoundRect,0.087500X0.087500X0.125000X-0.087500X0.125000X-0.087500X-0.125000X0.087500X-0.125000X0*%
%ADD37RoundRect,0.162500X0.650000X0.162500X-0.650000X0.162500X-0.650000X-0.162500X0.650000X-0.162500X0*%
%ADD38R,0.600000X1.150000*%
%ADD39R,0.300000X1.150000*%
%ADD40R,2.180000X2.000000*%
%ADD41R,0.600000X0.600000*%
%ADD42RoundRect,0.187500X0.608682X0.415113X0.325507X0.660952X-0.608682X-0.415113X-0.325507X-0.660952X0*%
%ADD43RoundRect,0.150000X0.604949X0.468014X0.378409X0.664686X-0.604949X-0.468014X-0.378409X-0.664686X0*%
%ADD44RoundRect,0.225000X0.468435X-0.108713X-0.173428X0.448523X-0.468435X0.108713X0.173428X-0.448523X0*%
%ADD45RoundRect,0.200000X-0.275000X0.200000X-0.275000X-0.200000X0.275000X-0.200000X0.275000X0.200000X0*%
%ADD46RoundRect,0.034500X-0.080500X-0.200500X0.080500X-0.200500X0.080500X0.200500X-0.080500X0.200500X0*%
%ADD47RoundRect,0.225000X0.250000X-0.225000X0.250000X0.225000X-0.250000X0.225000X-0.250000X-0.225000X0*%
%ADD48R,0.965200X0.508000*%
%ADD49RoundRect,0.250000X-0.650000X-0.250000X0.650000X-0.250000X0.650000X0.250000X-0.650000X0.250000X0*%
%ADD50RoundRect,0.187500X0.325507X-0.660952X0.608682X-0.415113X-0.325507X0.660952X-0.608682X0.415113X0*%
%ADD51RoundRect,0.150000X0.378409X-0.664686X0.604949X-0.468014X-0.378409X0.664686X-0.604949X0.468014X0*%
%ADD52RoundRect,0.225000X-0.173428X-0.448523X0.468435X0.108713X0.173428X0.448523X-0.468435X-0.108713X0*%
%ADD53RoundRect,0.187500X-0.608682X-0.415113X-0.325507X-0.660952X0.608682X0.415113X0.325507X0.660952X0*%
%ADD54RoundRect,0.150000X-0.604949X-0.468014X-0.378409X-0.664686X0.604949X0.468014X0.378409X0.664686X0*%
%ADD55RoundRect,0.225000X-0.468435X0.108713X0.173428X-0.448523X0.468435X-0.108713X-0.173428X0.448523X0*%
G04 APERTURE END LIST*
D10*
%TO.C,U2*%
G36*
X7741998Y-7356000D02*
G01*
X7122000Y-7356000D01*
X7122000Y-6106000D01*
X7741998Y-6106000D01*
X7741998Y-7356000D01*
G37*
%TO.C,U6*%
G36*
X-5815000Y1497000D02*
G01*
X-7418400Y1497000D01*
X-7418400Y3100400D01*
X-5815000Y3100400D01*
X-5815000Y1497000D01*
G37*
G36*
X-5815000Y-306400D02*
G01*
X-7418400Y-306400D01*
X-7418400Y1297000D01*
X-5815000Y1297000D01*
X-5815000Y-306400D01*
G37*
G36*
X-4011600Y1497000D02*
G01*
X-5615000Y1497000D01*
X-5615000Y3100400D01*
X-4011600Y3100400D01*
X-4011600Y1497000D01*
G37*
G36*
X-4011600Y-306400D02*
G01*
X-5615000Y-306400D01*
X-5615000Y1297000D01*
X-4011600Y1297000D01*
X-4011600Y-306400D01*
G37*
%TD*%
D11*
%TO.C,U1*%
X-5969000Y-5984999D03*
X-5969000Y-6485000D03*
X-5969000Y-6985000D03*
X-5969000Y-7485001D03*
D12*
X-5262499Y-7687500D03*
X-4762500Y-7687500D03*
X-4262501Y-7687500D03*
D11*
X-3556000Y-7485001D03*
X-3556000Y-6985000D03*
X-3556000Y-6485000D03*
X-3556000Y-5984999D03*
D12*
X-4262501Y-5782500D03*
X-4762500Y-5782500D03*
X-5262499Y-5782500D03*
%TD*%
D13*
%TO.C,C7*%
X5537200Y-6110800D03*
X5537200Y-7670800D03*
%TD*%
D14*
%TO.C,C20*%
X-2032000Y2641600D03*
X-472000Y2641600D03*
%TD*%
D15*
%TO.C,SW5*%
X-7755947Y10802455D03*
X-9606024Y9196305D03*
D16*
X-8680986Y9999380D03*
D17*
X-8562354Y12684697D03*
X-11356347Y10259083D03*
%TD*%
D13*
%TO.C,C6*%
X-3683000Y-8981000D03*
X-3683000Y-10541000D03*
%TD*%
%TO.C,C8*%
X-10033000Y-4800600D03*
X-10033000Y-6360600D03*
%TD*%
D18*
%TO.C,R9*%
X-14986000Y-1235200D03*
X-14986000Y-2235200D03*
%TD*%
D19*
%TO.C,J2*%
X730000Y-15240000D03*
X-1270000Y-15240000D03*
%TD*%
D20*
%TO.C,J4*%
X-14138200Y4426600D03*
X-14138200Y5626600D03*
D21*
X-10363200Y3276600D03*
X-10363200Y6776600D03*
%TD*%
D13*
%TO.C,C9*%
X-8636000Y-4935000D03*
X-8636000Y-6495000D03*
%TD*%
D22*
%TO.C,U2*%
X6481998Y-6080999D03*
X6481998Y-6731000D03*
X6481998Y-7386000D03*
X8382000Y-7381001D03*
X8382000Y-6731000D03*
X8382000Y-6080999D03*
%TD*%
D23*
%TO.C,L3*%
X-2620500Y6604000D03*
X-4745500Y6604000D03*
%TD*%
D13*
%TO.C,C22*%
X-3137700Y-2609000D03*
X-3137700Y-4169000D03*
%TD*%
D14*
%TO.C,C25*%
X-2118800Y0D03*
X-558800Y0D03*
%TD*%
D24*
%TO.C,R13*%
X-9536000Y863600D03*
X-11176000Y863600D03*
%TD*%
D25*
%TO.C,U8*%
X-647598Y5422900D03*
D26*
X-247599Y5384800D03*
X152400Y5384800D03*
X152400Y6172200D03*
X-247599Y6172200D03*
X-647598Y6172200D03*
%TD*%
D27*
%TO.C,C17*%
X-6553200Y5029200D03*
X-8113200Y5029200D03*
%TD*%
%TO.C,C14*%
X-12809000Y-5130800D03*
X-14369000Y-5130800D03*
%TD*%
D28*
%TO.C,R1*%
X6901600Y6172200D03*
X8541600Y6172200D03*
%TD*%
D29*
%TO.C,U6*%
X-3965001Y3771900D03*
X-4465000Y3771900D03*
X-4964999Y3771900D03*
X-5465000Y3771900D03*
X-5965000Y3771900D03*
X-6465001Y3771900D03*
X-6965000Y3771900D03*
X-7464999Y3771900D03*
D30*
X-8089900Y3146999D03*
X-8089900Y2647000D03*
X-8089900Y2147001D03*
X-8089900Y1647000D03*
X-8089900Y1147000D03*
X-8089900Y646999D03*
X-8089900Y147000D03*
X-8089900Y-352999D03*
D29*
X-7464999Y-977900D03*
X-6965000Y-977900D03*
X-6465001Y-977900D03*
X-5965000Y-977900D03*
X-5465000Y-977900D03*
X-4964999Y-977900D03*
X-4465000Y-977900D03*
X-3965001Y-977900D03*
D30*
X-3340100Y-352999D03*
X-3340100Y147000D03*
X-3340100Y646999D03*
X-3340100Y1147000D03*
X-3340100Y1647000D03*
X-3340100Y2147001D03*
X-3340100Y2647000D03*
X-3340100Y3146999D03*
D31*
X-5715000Y1397000D03*
%TD*%
D32*
%TO.C,L4*%
X-8636000Y6604000D03*
X-6511000Y6604000D03*
%TD*%
D33*
%TO.C,U12*%
X-14462399Y1373002D03*
X-14462399Y873001D03*
X-14462399Y373001D03*
X-14462399Y-127000D03*
D34*
X-13487400Y-351998D03*
D33*
X-12512401Y-127000D03*
X-12512401Y373001D03*
X-12512401Y873001D03*
X-12512401Y1373002D03*
D34*
X-13487400Y1598000D03*
%TD*%
D13*
%TO.C,C10*%
X-4531500Y-2609000D03*
X-4531500Y-4169000D03*
%TD*%
D24*
%TO.C,R8*%
X11310200Y-6070600D03*
X9670200Y-6070600D03*
%TD*%
D35*
%TO.C,U4*%
X-8636000Y-3040000D03*
X-8636000Y-2540000D03*
D36*
X-8898500Y-2027500D03*
X-9398500Y-2027500D03*
X-9898500Y-2027500D03*
D35*
X-10161000Y-2540000D03*
X-10161000Y-3040000D03*
D36*
X-9898500Y-3552500D03*
X-9398500Y-3552500D03*
X-8898500Y-3552500D03*
%TD*%
D37*
%TO.C,U5*%
X5365500Y-13462000D03*
X5365500Y-12192000D03*
X5365500Y-10922000D03*
X5365500Y-9652000D03*
X-1809500Y-9652000D03*
X-1809500Y-10922000D03*
X-1809500Y-12192000D03*
X-1809500Y-13462000D03*
%TD*%
D13*
%TO.C,C11*%
X-5928500Y-2808800D03*
X-5928500Y-4368800D03*
%TD*%
D38*
%TO.C,J7*%
X3190000Y8862500D03*
X2390000Y8862500D03*
D39*
X1240000Y8862500D03*
X240000Y8862500D03*
X-260000Y8862500D03*
X-1260000Y8862500D03*
D38*
X-3210000Y8862500D03*
X-2410000Y8862500D03*
D39*
X-1760000Y8862500D03*
X-760000Y8862500D03*
X740000Y8862500D03*
X1740000Y8862500D03*
D40*
X5100000Y9437500D03*
X-5120000Y9437500D03*
X5100000Y13367500D03*
X-5120000Y13367500D03*
%TD*%
D41*
%TO.C,U3*%
X1550000Y-4400000D03*
X1550000Y-3300000D03*
X1550000Y-2200000D03*
X1550000Y-1100000D03*
X1550000Y0D03*
X1550000Y1100000D03*
X1550000Y2200000D03*
X1550000Y3300000D03*
X1550000Y4400000D03*
X2650000Y-4400000D03*
X2650000Y-3300000D03*
X2650000Y-2200000D03*
X2650000Y-1100000D03*
X2650000Y0D03*
X2650000Y1100000D03*
X2650000Y2200000D03*
X2650000Y3300000D03*
X2650000Y4400000D03*
X3750000Y-4400000D03*
X3750000Y-3300000D03*
X3750000Y-1100000D03*
X3750000Y0D03*
X3750000Y1100000D03*
X3750000Y3300000D03*
X3750000Y4400000D03*
X4850000Y-4400000D03*
X4850000Y-3300000D03*
X4850000Y-2200000D03*
X4850000Y2200000D03*
X4850000Y3300000D03*
X4850000Y4400000D03*
X5950000Y-4400000D03*
X5950000Y-3300000D03*
X5950000Y-2200000D03*
X5950000Y-550000D03*
X5950000Y550000D03*
X5950000Y2200000D03*
X5950000Y3300000D03*
X5950000Y4400000D03*
X7050000Y-4400000D03*
X7050000Y-3300000D03*
X7050000Y-2200000D03*
X7050000Y-550000D03*
X7050000Y550000D03*
X7050000Y2200000D03*
X7050000Y3300000D03*
X7050000Y4400000D03*
X8150000Y-4400000D03*
X8150000Y-3300000D03*
X8150000Y-2200000D03*
X8150000Y-550000D03*
X8150000Y550000D03*
X8150000Y2200000D03*
X8150000Y3300000D03*
X8150000Y4400000D03*
X9250000Y-4400000D03*
X9250000Y-3300000D03*
X9250000Y-2200000D03*
X9250000Y2200000D03*
X9250000Y3300000D03*
X9250000Y4400000D03*
X10350000Y-4400000D03*
X10350000Y-3300000D03*
X10350000Y-2200000D03*
X10350000Y-550000D03*
X10350000Y550000D03*
X10350000Y2200000D03*
X10350000Y3300000D03*
X10350000Y4400000D03*
X11450000Y-4400000D03*
X11450000Y-3300000D03*
X11450000Y-2200000D03*
X11450000Y0D03*
X11450000Y2200000D03*
X11450000Y3300000D03*
X11450000Y4400000D03*
X12950000Y-4400000D03*
X12950000Y4400000D03*
X14450000Y-4400000D03*
X14450000Y-3300000D03*
X14450000Y3300000D03*
X14450000Y4400000D03*
%TD*%
D27*
%TO.C,C15*%
X-9423400Y2057400D03*
X-10983400Y2057400D03*
%TD*%
D42*
%TO.C,SW4*%
X9606024Y9196305D03*
X7755947Y10802456D03*
D43*
X8680986Y9999380D03*
D44*
X11356347Y10259083D03*
X8562354Y12684697D03*
%TD*%
D14*
%TO.C,C16*%
X-5207000Y4953000D03*
X-3647000Y4953000D03*
%TD*%
D45*
%TO.C,R11*%
X-11557000Y-4945800D03*
X-11557000Y-6585800D03*
%TD*%
D46*
%TO.C,X608*%
X-600000Y-5880000D03*
X-200000Y-5880000D03*
X200000Y-5880000D03*
X600000Y-5880000D03*
X1000000Y-5880000D03*
X1400000Y-5880000D03*
X1800000Y-5880000D03*
X2200000Y-5880000D03*
X2600000Y-5880000D03*
X3000000Y-5880000D03*
X3400000Y-5880000D03*
X3800000Y-5880000D03*
X-600000Y-8070000D03*
X-200000Y-8070000D03*
X200000Y-8070000D03*
X600000Y-8070000D03*
X1000000Y-8070000D03*
X1400000Y-8070000D03*
X1800000Y-8070000D03*
X2200000Y-8070000D03*
X2600000Y-8070000D03*
X3000000Y-8070000D03*
X3400000Y-8070000D03*
X3800000Y-8070000D03*
%TD*%
D47*
%TO.C,C24*%
X-2286000Y-7790400D03*
X-2286000Y-6230400D03*
%TD*%
D27*
%TO.C,C26*%
X-3919000Y-12192000D03*
X-5479000Y-12192000D03*
%TD*%
D48*
%TO.C,U7*%
X-13614400Y-1752600D03*
X-13614400Y-2702601D03*
X-13614400Y-3652602D03*
X-11277600Y-3652602D03*
X-11277600Y-2702601D03*
X-11277600Y-1752600D03*
%TD*%
D14*
%TO.C,C18*%
X-2118800Y1397000D03*
X-558800Y1397000D03*
%TD*%
D49*
%TO.C,X1*%
X-558800Y-1671000D03*
X-558800Y-4171000D03*
%TD*%
D13*
%TO.C,C5*%
X-5175000Y-8995000D03*
X-5175000Y-10555000D03*
%TD*%
D14*
%TO.C,C19*%
X-2050000Y3860800D03*
X-490000Y3860800D03*
%TD*%
%TO.C,C23*%
X-11143200Y-482600D03*
X-9583200Y-482600D03*
%TD*%
D50*
%TO.C,SW6*%
X7755947Y-10802456D03*
X9606024Y-9196305D03*
D51*
X8680986Y-9999380D03*
D52*
X8562354Y-12684697D03*
X11356347Y-10259083D03*
%TD*%
D28*
%TO.C,R2*%
X6920000Y7391400D03*
X8560000Y7391400D03*
%TD*%
D27*
%TO.C,C21*%
X-3919000Y-13716000D03*
X-5479000Y-13716000D03*
%TD*%
D45*
%TO.C,R12*%
X-7366000Y-2413000D03*
X-7366000Y-4053000D03*
%TD*%
D53*
%TO.C,SW7*%
X-9606024Y-9196305D03*
X-7755947Y-10802456D03*
D54*
X-8680986Y-9999380D03*
D55*
X-11356347Y-10259083D03*
X-8562354Y-12684697D03*
%TD*%
M02*
